M48
; DRILL file {KiCad 5.1.5+dfsg1-2build2} date Wed 07 Sep 2022 09:32:43 PM EDT
; FORMAT={-:-/ absolute / inch / decimal}
; #@! TF.CreationDate,2022-09-07T21:32:43-04:00
; #@! TF.GenerationSoftware,Kicad,Pcbnew,5.1.5+dfsg1-2build2
; #@! TF.FileFunction,Plated,1,2,PTH
FMAT,2
INCH
T1C0.0157
T2C0.0315
T3C0.0394
%
G90
G05
T1
X3.3386Y-4.9055
X3.437Y-5.0039
X3.8189Y-4.4134
X4.2323Y-4.5472
X4.5118Y-4.4685
X4.622Y-4.5394
X4.7067Y-4.7972
X4.7677Y-4.6969
X4.815Y-4.5591
T2
X4.2382Y-4.439
X4.435Y-4.439
X3.4874Y-3.3205
X3.4874Y-3.4205
X3.4874Y-3.5205
X3.4874Y-3.6205
X3.4874Y-3.7205
X3.4874Y-3.8205
X3.4874Y-3.9205
X3.4874Y-4.0205
X3.4874Y-4.1205
X3.4874Y-4.2205
X3.7874Y-3.3205
X3.7874Y-3.4205
X3.7874Y-3.5205
X3.7874Y-3.6205
X3.7874Y-3.7205
X3.7874Y-3.8205
X3.7874Y-3.9205
X3.7874Y-4.0205
X3.7874Y-4.1205
X3.7874Y-4.2205
X4.574Y-3.7307
X4.574Y-3.8307
X4.574Y-3.9307
X4.574Y-4.0307
X4.574Y-4.1307
X4.574Y-4.2307
X4.574Y-4.3307
X4.874Y-3.7307
X4.874Y-3.8307
X4.874Y-3.9307
X4.874Y-4.0307
X4.874Y-4.1307
X4.874Y-4.2307
X4.874Y-4.3307
X3.6679Y-4.6668
X3.8071Y-4.5276
X3.4823Y-4.3937
X3.4823Y-4.5906
X3.9213Y-4.6362
X3.9213Y-5.2362
X4.0213Y-4.6362
X4.0213Y-5.2362
X4.1213Y-4.6362
X4.1213Y-5.2362
X4.2213Y-4.6362
X4.2213Y-5.2362
X4.3213Y-4.6362
X4.3213Y-5.2362
X4.4213Y-4.6362
X4.4213Y-5.2362
X4.5213Y-4.6362
X4.5213Y-5.2362
X4.6213Y-4.6362
X4.6213Y-5.2362
X4.7213Y-4.6362
X4.7213Y-5.2362
X4.8213Y-4.6362
X4.8213Y-5.2362
X4.9213Y-4.6362
X4.9213Y-5.2362
X5.0213Y-4.6362
X5.0213Y-5.2362
X5.1213Y-4.6362
X5.1213Y-5.2362
X5.2213Y-4.6362
X5.2213Y-5.2362
X5.3213Y-4.6362
X5.3213Y-5.2362
X5.4213Y-4.6362
X5.4213Y-5.2362
T3
X5.4134Y-3.3291
X5.4134Y-3.4291
X5.4134Y-3.5291
X5.4134Y-3.6291
X5.4134Y-3.7291
X5.4134Y-3.8291
X5.4134Y-3.9291
X5.4134Y-4.0291
X5.4134Y-4.1291
X5.4134Y-4.2291
X5.4134Y-4.3291
X5.4134Y-4.4291
X4.0354Y-3.3291
X4.0354Y-3.4291
X4.0354Y-3.5291
X4.0354Y-3.6291
X4.0354Y-3.7291
X4.0354Y-3.8291
X4.0354Y-3.9291
X4.0354Y-4.0291
X4.0354Y-4.1291
X4.0354Y-4.2291
X4.0354Y-4.3291
X4.0354Y-4.4291
T0
M30
