G04 #@! TF.GenerationSoftware,KiCad,Pcbnew,5.1.5+dfsg1-2build2*
G04 #@! TF.CreationDate,2022-09-07T21:32:21-04:00*
G04 #@! TF.ProjectId,coco2_3134_64k_static_ram_board,636f636f-325f-4333-9133-345f36346b5f,1.0.0*
G04 #@! TF.SameCoordinates,Original*
G04 #@! TF.FileFunction,Copper,L1,Top*
G04 #@! TF.FilePolarity,Positive*
%FSLAX46Y46*%
G04 Gerber Fmt 4.6, Leading zero omitted, Abs format (unit mm)*
G04 Created by KiCad (PCBNEW 5.1.5+dfsg1-2build2) date 2022-09-07 21:32:21*
%MOMM*%
%LPD*%
G04 APERTURE LIST*
%ADD10R,1.700000X1.700000*%
%ADD11O,1.700000X1.700000*%
%ADD12C,1.600000*%
%ADD13R,1.600000X1.600000*%
%ADD14O,1.600000X1.600000*%
%ADD15R,2.400000X1.600000*%
%ADD16O,2.400000X1.600000*%
%ADD17C,0.800000*%
%ADD18C,0.350000*%
%ADD19C,2.000000*%
%ADD20C,0.254000*%
G04 APERTURE END LIST*
D10*
X102500000Y-112500000D03*
D11*
X102500000Y-109960000D03*
X102500000Y-107420000D03*
X102500000Y-104880000D03*
X102500000Y-102340000D03*
X102500000Y-99800000D03*
X102500000Y-97260000D03*
X102500000Y-94720000D03*
X102500000Y-92180000D03*
X102500000Y-89640000D03*
X102500000Y-87100000D03*
X102500000Y-84560000D03*
X137500000Y-84560000D03*
X137500000Y-87100000D03*
X137500000Y-89640000D03*
X137500000Y-92180000D03*
X137500000Y-94720000D03*
X137500000Y-97260000D03*
X137500000Y-99800000D03*
X137500000Y-102340000D03*
X137500000Y-104880000D03*
X137500000Y-107420000D03*
X137500000Y-109960000D03*
D10*
X137500000Y-112500000D03*
D12*
X88450000Y-111600000D03*
X88450000Y-116600000D03*
X93164466Y-118535534D03*
X96700000Y-115000000D03*
X112650000Y-112750000D03*
X107650000Y-112750000D03*
D13*
X99600000Y-133000000D03*
D14*
X137700000Y-117760000D03*
X102140000Y-133000000D03*
X135160000Y-117760000D03*
X104680000Y-133000000D03*
X132620000Y-117760000D03*
X107220000Y-133000000D03*
X130080000Y-117760000D03*
X109760000Y-133000000D03*
X127540000Y-117760000D03*
X112300000Y-133000000D03*
X125000000Y-117760000D03*
X114840000Y-133000000D03*
X122460000Y-117760000D03*
X117380000Y-133000000D03*
X119920000Y-117760000D03*
X119920000Y-133000000D03*
X117380000Y-117760000D03*
X122460000Y-133000000D03*
X114840000Y-117760000D03*
X125000000Y-133000000D03*
X112300000Y-117760000D03*
X127540000Y-133000000D03*
X109760000Y-117760000D03*
X130080000Y-133000000D03*
X107220000Y-117760000D03*
X132620000Y-133000000D03*
X104680000Y-117760000D03*
X135160000Y-133000000D03*
X102140000Y-117760000D03*
X137700000Y-133000000D03*
X99600000Y-117760000D03*
D15*
X123800000Y-110000000D03*
D16*
X116180000Y-94760000D03*
X123800000Y-107460000D03*
X116180000Y-97300000D03*
X123800000Y-104920000D03*
X116180000Y-99840000D03*
X123800000Y-102380000D03*
X116180000Y-102380000D03*
X123800000Y-99840000D03*
X116180000Y-104920000D03*
X123800000Y-97300000D03*
X116180000Y-107460000D03*
X123800000Y-94760000D03*
X116180000Y-110000000D03*
D15*
X96200000Y-107200000D03*
D16*
X88580000Y-84340000D03*
X96200000Y-104660000D03*
X88580000Y-86880000D03*
X96200000Y-102120000D03*
X88580000Y-89420000D03*
X96200000Y-99580000D03*
X88580000Y-91960000D03*
X96200000Y-97040000D03*
X88580000Y-94500000D03*
X96200000Y-94500000D03*
X88580000Y-97040000D03*
X96200000Y-91960000D03*
X88580000Y-99580000D03*
X96200000Y-89420000D03*
X88580000Y-102120000D03*
X96200000Y-86880000D03*
X88580000Y-104660000D03*
X96200000Y-84340000D03*
X88580000Y-107200000D03*
D17*
X97000000Y-112100000D03*
X114600000Y-113500000D03*
X107500000Y-115500000D03*
X84800000Y-124600000D03*
X87300000Y-127100000D03*
X122300000Y-115800000D03*
X121100000Y-119300000D03*
X117400000Y-115300000D03*
X119550000Y-121850000D03*
D18*
X121100000Y-118734315D02*
X121100000Y-119300000D01*
X121100000Y-116434315D02*
X121100000Y-118734315D01*
X121734315Y-115800000D02*
X121100000Y-116434315D01*
X122300000Y-115800000D02*
X121734315Y-115800000D01*
D19*
X116140000Y-109960000D02*
X116180000Y-110000000D01*
X88580000Y-107200000D02*
X89040000Y-107200000D01*
X91940000Y-109960000D02*
X91900000Y-110000000D01*
X102500000Y-109960000D02*
X91940000Y-109960000D01*
X91900000Y-110000000D02*
X99600000Y-117760000D01*
X89040000Y-107200000D02*
X91900000Y-110000000D01*
X88580000Y-111470000D02*
X88450000Y-111600000D01*
X88580000Y-107200000D02*
X88580000Y-111470000D01*
X112650000Y-110170000D02*
X112650000Y-112750000D01*
X112860000Y-109960000D02*
X112650000Y-110170000D01*
X102500000Y-109960000D02*
X112860000Y-109960000D01*
X112860000Y-109960000D02*
X116140000Y-109960000D01*
D18*
X98700000Y-96600000D02*
X98700000Y-103620000D01*
X96600000Y-94500000D02*
X98700000Y-96600000D01*
X96200000Y-94500000D02*
X96600000Y-94500000D01*
X99450000Y-104450000D02*
X102500000Y-107420000D01*
X98700000Y-103620000D02*
X99450000Y-104450000D01*
X83400000Y-105700000D02*
X85700000Y-103400000D01*
X83400000Y-125300000D02*
X83400000Y-105700000D01*
X85700000Y-103400000D02*
X98400000Y-103400000D01*
X98400000Y-103400000D02*
X99450000Y-104450000D01*
X107220000Y-133000000D02*
X102819989Y-128599989D01*
X102819989Y-128599989D02*
X86699989Y-128599989D01*
X86699989Y-128599989D02*
X83400000Y-125300000D01*
X99299990Y-102399990D02*
X101780000Y-104880000D01*
X99299990Y-93509990D02*
X99299990Y-102399990D01*
X97750000Y-91960000D02*
X99299990Y-93509990D01*
X101780000Y-104880000D02*
X102500000Y-104880000D01*
X96200000Y-91960000D02*
X97750000Y-91960000D01*
X97750000Y-89420000D02*
X99850000Y-91520000D01*
X96200000Y-89420000D02*
X97750000Y-89420000D01*
X99850000Y-99690000D02*
X102500000Y-102340000D01*
X99850000Y-91520000D02*
X99850000Y-99690000D01*
X96200000Y-88270000D02*
X96200000Y-89420000D01*
X96080000Y-88150000D02*
X96200000Y-88270000D01*
X104680000Y-133000000D02*
X100830000Y-129150000D01*
X100830000Y-129150000D02*
X86472167Y-129150000D01*
X85850000Y-88150000D02*
X96080000Y-88150000D01*
X83900000Y-104422167D02*
X83900000Y-90100000D01*
X82849989Y-125527822D02*
X82849989Y-105472178D01*
X86472167Y-129150000D02*
X82849989Y-125527822D01*
X83900000Y-90100000D02*
X85850000Y-88150000D01*
X82849989Y-105472178D02*
X83900000Y-104422167D01*
X100400000Y-97700000D02*
X102500000Y-99800000D01*
X100400000Y-89018285D02*
X100400000Y-97700000D01*
X89840000Y-85600000D02*
X96981715Y-85600000D01*
X96981715Y-85600000D02*
X100400000Y-89018285D01*
X88580000Y-84340000D02*
X89840000Y-85600000D01*
X103349999Y-95569999D02*
X102500000Y-94720000D01*
X111380000Y-103600000D02*
X103349999Y-95569999D01*
X117300000Y-103600000D02*
X111380000Y-103600000D01*
X118744999Y-105044999D02*
X117300000Y-103600000D01*
X118744999Y-119124999D02*
X118744999Y-105044999D01*
X132620000Y-133000000D02*
X118744999Y-119124999D01*
X123040000Y-89640000D02*
X102500000Y-89640000D01*
X126300000Y-92900000D02*
X123040000Y-89640000D01*
X126300000Y-119050000D02*
X126300000Y-92900000D01*
X137700000Y-118891370D02*
X136141370Y-120450000D01*
X127700000Y-120450000D02*
X126300000Y-119050000D01*
X136141370Y-120450000D02*
X127700000Y-120450000D01*
X137700000Y-117760000D02*
X137700000Y-118891370D01*
X127540000Y-102140000D02*
X137500000Y-92180000D01*
X127540000Y-117760000D02*
X127540000Y-102140000D01*
X130080000Y-104680000D02*
X137500000Y-97260000D01*
X130080000Y-117760000D02*
X130080000Y-104680000D01*
X102140000Y-117760000D02*
X106230000Y-121850000D01*
X106230000Y-121850000D02*
X118984315Y-121850000D01*
X118984315Y-121850000D02*
X119550000Y-121850000D01*
X122250000Y-104920000D02*
X120700000Y-106470000D01*
X123800000Y-104920000D02*
X122250000Y-104920000D01*
X120700000Y-106470000D02*
X120700000Y-112150000D01*
X125000000Y-116450000D02*
X125000000Y-117760000D01*
X120700000Y-112150000D02*
X125000000Y-116450000D01*
D20*
G36*
X140640000Y-79273381D02*
G01*
X140640001Y-133726618D01*
X138526620Y-135840000D01*
X84073381Y-135840000D01*
X82033381Y-133800000D01*
X98161928Y-133800000D01*
X98174188Y-133924482D01*
X98210498Y-134044180D01*
X98269463Y-134154494D01*
X98348815Y-134251185D01*
X98445506Y-134330537D01*
X98555820Y-134389502D01*
X98675518Y-134425812D01*
X98800000Y-134438072D01*
X99314250Y-134435000D01*
X99473000Y-134276250D01*
X99473000Y-133127000D01*
X99727000Y-133127000D01*
X99727000Y-134276250D01*
X99885750Y-134435000D01*
X100400000Y-134438072D01*
X100524482Y-134425812D01*
X100644180Y-134389502D01*
X100754494Y-134330537D01*
X100851185Y-134251185D01*
X100930537Y-134154494D01*
X100989502Y-134044180D01*
X101025812Y-133924482D01*
X101028231Y-133899920D01*
X101176586Y-134063519D01*
X101402580Y-134231037D01*
X101656913Y-134351246D01*
X101790961Y-134391904D01*
X102013000Y-134269915D01*
X102013000Y-133127000D01*
X99727000Y-133127000D01*
X99473000Y-133127000D01*
X98323750Y-133127000D01*
X98165000Y-133285750D01*
X98161928Y-133800000D01*
X82033381Y-133800000D01*
X81960000Y-133726620D01*
X81960000Y-132200000D01*
X98161928Y-132200000D01*
X98165000Y-132714250D01*
X98323750Y-132873000D01*
X99473000Y-132873000D01*
X99473000Y-131723750D01*
X99314250Y-131565000D01*
X98800000Y-131561928D01*
X98675518Y-131574188D01*
X98555820Y-131610498D01*
X98445506Y-131669463D01*
X98348815Y-131748815D01*
X98269463Y-131845506D01*
X98210498Y-131955820D01*
X98174188Y-132075518D01*
X98161928Y-132200000D01*
X81960000Y-132200000D01*
X81960000Y-105472178D01*
X82036070Y-105472178D01*
X82039990Y-105511976D01*
X82039989Y-125488034D01*
X82036070Y-125527822D01*
X82039989Y-125567610D01*
X82039989Y-125567612D01*
X82051709Y-125686609D01*
X82098026Y-125839294D01*
X82133038Y-125904797D01*
X82173240Y-125980011D01*
X82204692Y-126018335D01*
X82274461Y-126103350D01*
X82305377Y-126128722D01*
X85871272Y-129694618D01*
X85896639Y-129725528D01*
X85964377Y-129781119D01*
X86019977Y-129826749D01*
X86095191Y-129866951D01*
X86160694Y-129901963D01*
X86313379Y-129948280D01*
X86432376Y-129960000D01*
X86432378Y-129960000D01*
X86472166Y-129963919D01*
X86511954Y-129960000D01*
X100494488Y-129960000D01*
X102099487Y-131565000D01*
X102012998Y-131565000D01*
X102012998Y-131730084D01*
X101790961Y-131608096D01*
X101656913Y-131648754D01*
X101402580Y-131768963D01*
X101176586Y-131936481D01*
X101028231Y-132100080D01*
X101025812Y-132075518D01*
X100989502Y-131955820D01*
X100930537Y-131845506D01*
X100851185Y-131748815D01*
X100754494Y-131669463D01*
X100644180Y-131610498D01*
X100524482Y-131574188D01*
X100400000Y-131561928D01*
X99885750Y-131565000D01*
X99727000Y-131723750D01*
X99727000Y-132873000D01*
X102013000Y-132873000D01*
X102013000Y-132853000D01*
X102267000Y-132853000D01*
X102267000Y-132873000D01*
X102287000Y-132873000D01*
X102287000Y-133127000D01*
X102267000Y-133127000D01*
X102267000Y-134269915D01*
X102489039Y-134391904D01*
X102623087Y-134351246D01*
X102877420Y-134231037D01*
X103103414Y-134063519D01*
X103292385Y-133855131D01*
X103403933Y-133669135D01*
X103408320Y-133679727D01*
X103565363Y-133914759D01*
X103765241Y-134114637D01*
X104000273Y-134271680D01*
X104261426Y-134379853D01*
X104538665Y-134435000D01*
X104821335Y-134435000D01*
X105098574Y-134379853D01*
X105359727Y-134271680D01*
X105594759Y-134114637D01*
X105794637Y-133914759D01*
X105950000Y-133682241D01*
X106105363Y-133914759D01*
X106305241Y-134114637D01*
X106540273Y-134271680D01*
X106801426Y-134379853D01*
X107078665Y-134435000D01*
X107361335Y-134435000D01*
X107638574Y-134379853D01*
X107899727Y-134271680D01*
X108134759Y-134114637D01*
X108334637Y-133914759D01*
X108490000Y-133682241D01*
X108645363Y-133914759D01*
X108845241Y-134114637D01*
X109080273Y-134271680D01*
X109341426Y-134379853D01*
X109618665Y-134435000D01*
X109901335Y-134435000D01*
X110178574Y-134379853D01*
X110439727Y-134271680D01*
X110674759Y-134114637D01*
X110874637Y-133914759D01*
X111030000Y-133682241D01*
X111185363Y-133914759D01*
X111385241Y-134114637D01*
X111620273Y-134271680D01*
X111881426Y-134379853D01*
X112158665Y-134435000D01*
X112441335Y-134435000D01*
X112718574Y-134379853D01*
X112979727Y-134271680D01*
X113214759Y-134114637D01*
X113414637Y-133914759D01*
X113570000Y-133682241D01*
X113725363Y-133914759D01*
X113925241Y-134114637D01*
X114160273Y-134271680D01*
X114421426Y-134379853D01*
X114698665Y-134435000D01*
X114981335Y-134435000D01*
X115258574Y-134379853D01*
X115519727Y-134271680D01*
X115754759Y-134114637D01*
X115954637Y-133914759D01*
X116110000Y-133682241D01*
X116265363Y-133914759D01*
X116465241Y-134114637D01*
X116700273Y-134271680D01*
X116961426Y-134379853D01*
X117238665Y-134435000D01*
X117521335Y-134435000D01*
X117798574Y-134379853D01*
X118059727Y-134271680D01*
X118294759Y-134114637D01*
X118494637Y-133914759D01*
X118650000Y-133682241D01*
X118805363Y-133914759D01*
X119005241Y-134114637D01*
X119240273Y-134271680D01*
X119501426Y-134379853D01*
X119778665Y-134435000D01*
X120061335Y-134435000D01*
X120338574Y-134379853D01*
X120599727Y-134271680D01*
X120834759Y-134114637D01*
X121034637Y-133914759D01*
X121190000Y-133682241D01*
X121345363Y-133914759D01*
X121545241Y-134114637D01*
X121780273Y-134271680D01*
X122041426Y-134379853D01*
X122318665Y-134435000D01*
X122601335Y-134435000D01*
X122878574Y-134379853D01*
X123139727Y-134271680D01*
X123374759Y-134114637D01*
X123574637Y-133914759D01*
X123730000Y-133682241D01*
X123885363Y-133914759D01*
X124085241Y-134114637D01*
X124320273Y-134271680D01*
X124581426Y-134379853D01*
X124858665Y-134435000D01*
X125141335Y-134435000D01*
X125418574Y-134379853D01*
X125679727Y-134271680D01*
X125914759Y-134114637D01*
X126114637Y-133914759D01*
X126270000Y-133682241D01*
X126425363Y-133914759D01*
X126625241Y-134114637D01*
X126860273Y-134271680D01*
X127121426Y-134379853D01*
X127398665Y-134435000D01*
X127681335Y-134435000D01*
X127958574Y-134379853D01*
X128219727Y-134271680D01*
X128454759Y-134114637D01*
X128654637Y-133914759D01*
X128810000Y-133682241D01*
X128965363Y-133914759D01*
X129165241Y-134114637D01*
X129400273Y-134271680D01*
X129661426Y-134379853D01*
X129938665Y-134435000D01*
X130221335Y-134435000D01*
X130498574Y-134379853D01*
X130759727Y-134271680D01*
X130994759Y-134114637D01*
X131194637Y-133914759D01*
X131350000Y-133682241D01*
X131505363Y-133914759D01*
X131705241Y-134114637D01*
X131940273Y-134271680D01*
X132201426Y-134379853D01*
X132478665Y-134435000D01*
X132761335Y-134435000D01*
X133038574Y-134379853D01*
X133299727Y-134271680D01*
X133534759Y-134114637D01*
X133734637Y-133914759D01*
X133890000Y-133682241D01*
X134045363Y-133914759D01*
X134245241Y-134114637D01*
X134480273Y-134271680D01*
X134741426Y-134379853D01*
X135018665Y-134435000D01*
X135301335Y-134435000D01*
X135578574Y-134379853D01*
X135839727Y-134271680D01*
X136074759Y-134114637D01*
X136274637Y-133914759D01*
X136431680Y-133679727D01*
X136436067Y-133669135D01*
X136547615Y-133855131D01*
X136736586Y-134063519D01*
X136962580Y-134231037D01*
X137216913Y-134351246D01*
X137350961Y-134391904D01*
X137573000Y-134269915D01*
X137573000Y-133127000D01*
X137827000Y-133127000D01*
X137827000Y-134269915D01*
X138049039Y-134391904D01*
X138183087Y-134351246D01*
X138437420Y-134231037D01*
X138663414Y-134063519D01*
X138852385Y-133855131D01*
X138997070Y-133613881D01*
X139091909Y-133349040D01*
X138970624Y-133127000D01*
X137827000Y-133127000D01*
X137573000Y-133127000D01*
X137553000Y-133127000D01*
X137553000Y-132873000D01*
X137573000Y-132873000D01*
X137573000Y-131730085D01*
X137827000Y-131730085D01*
X137827000Y-132873000D01*
X138970624Y-132873000D01*
X139091909Y-132650960D01*
X138997070Y-132386119D01*
X138852385Y-132144869D01*
X138663414Y-131936481D01*
X138437420Y-131768963D01*
X138183087Y-131648754D01*
X138049039Y-131608096D01*
X137827000Y-131730085D01*
X137573000Y-131730085D01*
X137350961Y-131608096D01*
X137216913Y-131648754D01*
X136962580Y-131768963D01*
X136736586Y-131936481D01*
X136547615Y-132144869D01*
X136436067Y-132330865D01*
X136431680Y-132320273D01*
X136274637Y-132085241D01*
X136074759Y-131885363D01*
X135839727Y-131728320D01*
X135578574Y-131620147D01*
X135301335Y-131565000D01*
X135018665Y-131565000D01*
X134741426Y-131620147D01*
X134480273Y-131728320D01*
X134245241Y-131885363D01*
X134045363Y-132085241D01*
X133890000Y-132317759D01*
X133734637Y-132085241D01*
X133534759Y-131885363D01*
X133299727Y-131728320D01*
X133038574Y-131620147D01*
X132761335Y-131565000D01*
X132478665Y-131565000D01*
X132355093Y-131589580D01*
X119960512Y-119195000D01*
X120047002Y-119195000D01*
X120047002Y-119029916D01*
X120269039Y-119151904D01*
X120403087Y-119111246D01*
X120657420Y-118991037D01*
X120883414Y-118823519D01*
X121072385Y-118615131D01*
X121183933Y-118429135D01*
X121188320Y-118439727D01*
X121345363Y-118674759D01*
X121545241Y-118874637D01*
X121780273Y-119031680D01*
X122041426Y-119139853D01*
X122318665Y-119195000D01*
X122601335Y-119195000D01*
X122878574Y-119139853D01*
X123139727Y-119031680D01*
X123374759Y-118874637D01*
X123574637Y-118674759D01*
X123730000Y-118442241D01*
X123885363Y-118674759D01*
X124085241Y-118874637D01*
X124320273Y-119031680D01*
X124581426Y-119139853D01*
X124858665Y-119195000D01*
X125141335Y-119195000D01*
X125418574Y-119139853D01*
X125491938Y-119109465D01*
X125501720Y-119208787D01*
X125548037Y-119361472D01*
X125565586Y-119394304D01*
X125623251Y-119502189D01*
X125654703Y-119540513D01*
X125724472Y-119625528D01*
X125755388Y-119650900D01*
X127099100Y-120994612D01*
X127124472Y-121025528D01*
X127212825Y-121098037D01*
X127247810Y-121126749D01*
X127323024Y-121166951D01*
X127388527Y-121201963D01*
X127541212Y-121248280D01*
X127660209Y-121260000D01*
X127660212Y-121260000D01*
X127700000Y-121263919D01*
X127739788Y-121260000D01*
X136101582Y-121260000D01*
X136141370Y-121263919D01*
X136181158Y-121260000D01*
X136181161Y-121260000D01*
X136300158Y-121248280D01*
X136452843Y-121201963D01*
X136593559Y-121126749D01*
X136716898Y-121025528D01*
X136742269Y-120994613D01*
X138244618Y-119492265D01*
X138275528Y-119466898D01*
X138376749Y-119343559D01*
X138410572Y-119280280D01*
X138451963Y-119202844D01*
X138471071Y-119139853D01*
X138498280Y-119050158D01*
X138508580Y-118945584D01*
X138614759Y-118874637D01*
X138814637Y-118674759D01*
X138971680Y-118439727D01*
X139079853Y-118178574D01*
X139135000Y-117901335D01*
X139135000Y-117618665D01*
X139079853Y-117341426D01*
X138971680Y-117080273D01*
X138814637Y-116845241D01*
X138614759Y-116645363D01*
X138379727Y-116488320D01*
X138118574Y-116380147D01*
X137841335Y-116325000D01*
X137558665Y-116325000D01*
X137281426Y-116380147D01*
X137020273Y-116488320D01*
X136785241Y-116645363D01*
X136585363Y-116845241D01*
X136430000Y-117077759D01*
X136274637Y-116845241D01*
X136074759Y-116645363D01*
X135839727Y-116488320D01*
X135578574Y-116380147D01*
X135301335Y-116325000D01*
X135018665Y-116325000D01*
X134741426Y-116380147D01*
X134480273Y-116488320D01*
X134245241Y-116645363D01*
X134045363Y-116845241D01*
X133890000Y-117077759D01*
X133734637Y-116845241D01*
X133534759Y-116645363D01*
X133299727Y-116488320D01*
X133038574Y-116380147D01*
X132761335Y-116325000D01*
X132478665Y-116325000D01*
X132201426Y-116380147D01*
X131940273Y-116488320D01*
X131705241Y-116645363D01*
X131505363Y-116845241D01*
X131350000Y-117077759D01*
X131194637Y-116845241D01*
X130994759Y-116645363D01*
X130890000Y-116575365D01*
X130890000Y-113350000D01*
X136011928Y-113350000D01*
X136024188Y-113474482D01*
X136060498Y-113594180D01*
X136119463Y-113704494D01*
X136198815Y-113801185D01*
X136295506Y-113880537D01*
X136405820Y-113939502D01*
X136525518Y-113975812D01*
X136650000Y-113988072D01*
X137214250Y-113985000D01*
X137373000Y-113826250D01*
X137373000Y-112627000D01*
X137627000Y-112627000D01*
X137627000Y-113826250D01*
X137785750Y-113985000D01*
X138350000Y-113988072D01*
X138474482Y-113975812D01*
X138594180Y-113939502D01*
X138704494Y-113880537D01*
X138801185Y-113801185D01*
X138880537Y-113704494D01*
X138939502Y-113594180D01*
X138975812Y-113474482D01*
X138988072Y-113350000D01*
X138985000Y-112785750D01*
X138826250Y-112627000D01*
X137627000Y-112627000D01*
X137373000Y-112627000D01*
X136173750Y-112627000D01*
X136015000Y-112785750D01*
X136011928Y-113350000D01*
X130890000Y-113350000D01*
X130890000Y-105015512D01*
X136015000Y-99890513D01*
X136015000Y-99946260D01*
X136072068Y-100233158D01*
X136184010Y-100503411D01*
X136346525Y-100746632D01*
X136553368Y-100953475D01*
X136727760Y-101070000D01*
X136553368Y-101186525D01*
X136346525Y-101393368D01*
X136184010Y-101636589D01*
X136072068Y-101906842D01*
X136015000Y-102193740D01*
X136015000Y-102486260D01*
X136072068Y-102773158D01*
X136184010Y-103043411D01*
X136346525Y-103286632D01*
X136553368Y-103493475D01*
X136727760Y-103610000D01*
X136553368Y-103726525D01*
X136346525Y-103933368D01*
X136184010Y-104176589D01*
X136072068Y-104446842D01*
X136015000Y-104733740D01*
X136015000Y-105026260D01*
X136072068Y-105313158D01*
X136184010Y-105583411D01*
X136346525Y-105826632D01*
X136553368Y-106033475D01*
X136727760Y-106150000D01*
X136553368Y-106266525D01*
X136346525Y-106473368D01*
X136184010Y-106716589D01*
X136072068Y-106986842D01*
X136015000Y-107273740D01*
X136015000Y-107566260D01*
X136072068Y-107853158D01*
X136184010Y-108123411D01*
X136346525Y-108366632D01*
X136553368Y-108573475D01*
X136727760Y-108690000D01*
X136553368Y-108806525D01*
X136346525Y-109013368D01*
X136184010Y-109256589D01*
X136072068Y-109526842D01*
X136015000Y-109813740D01*
X136015000Y-110106260D01*
X136072068Y-110393158D01*
X136184010Y-110663411D01*
X136346525Y-110906632D01*
X136478380Y-111038487D01*
X136405820Y-111060498D01*
X136295506Y-111119463D01*
X136198815Y-111198815D01*
X136119463Y-111295506D01*
X136060498Y-111405820D01*
X136024188Y-111525518D01*
X136011928Y-111650000D01*
X136015000Y-112214250D01*
X136173750Y-112373000D01*
X137373000Y-112373000D01*
X137373000Y-112353000D01*
X137627000Y-112353000D01*
X137627000Y-112373000D01*
X138826250Y-112373000D01*
X138985000Y-112214250D01*
X138988072Y-111650000D01*
X138975812Y-111525518D01*
X138939502Y-111405820D01*
X138880537Y-111295506D01*
X138801185Y-111198815D01*
X138704494Y-111119463D01*
X138594180Y-111060498D01*
X138521620Y-111038487D01*
X138653475Y-110906632D01*
X138815990Y-110663411D01*
X138927932Y-110393158D01*
X138985000Y-110106260D01*
X138985000Y-109813740D01*
X138927932Y-109526842D01*
X138815990Y-109256589D01*
X138653475Y-109013368D01*
X138446632Y-108806525D01*
X138272240Y-108690000D01*
X138446632Y-108573475D01*
X138653475Y-108366632D01*
X138815990Y-108123411D01*
X138927932Y-107853158D01*
X138985000Y-107566260D01*
X138985000Y-107273740D01*
X138927932Y-106986842D01*
X138815990Y-106716589D01*
X138653475Y-106473368D01*
X138446632Y-106266525D01*
X138272240Y-106150000D01*
X138446632Y-106033475D01*
X138653475Y-105826632D01*
X138815990Y-105583411D01*
X138927932Y-105313158D01*
X138985000Y-105026260D01*
X138985000Y-104733740D01*
X138927932Y-104446842D01*
X138815990Y-104176589D01*
X138653475Y-103933368D01*
X138446632Y-103726525D01*
X138272240Y-103610000D01*
X138446632Y-103493475D01*
X138653475Y-103286632D01*
X138815990Y-103043411D01*
X138927932Y-102773158D01*
X138985000Y-102486260D01*
X138985000Y-102193740D01*
X138927932Y-101906842D01*
X138815990Y-101636589D01*
X138653475Y-101393368D01*
X138446632Y-101186525D01*
X138272240Y-101070000D01*
X138446632Y-100953475D01*
X138653475Y-100746632D01*
X138815990Y-100503411D01*
X138927932Y-100233158D01*
X138985000Y-99946260D01*
X138985000Y-99653740D01*
X138927932Y-99366842D01*
X138815990Y-99096589D01*
X138653475Y-98853368D01*
X138446632Y-98646525D01*
X138272240Y-98530000D01*
X138446632Y-98413475D01*
X138653475Y-98206632D01*
X138815990Y-97963411D01*
X138927932Y-97693158D01*
X138985000Y-97406260D01*
X138985000Y-97113740D01*
X138927932Y-96826842D01*
X138815990Y-96556589D01*
X138653475Y-96313368D01*
X138446632Y-96106525D01*
X138272240Y-95990000D01*
X138446632Y-95873475D01*
X138653475Y-95666632D01*
X138815990Y-95423411D01*
X138927932Y-95153158D01*
X138985000Y-94866260D01*
X138985000Y-94573740D01*
X138927932Y-94286842D01*
X138815990Y-94016589D01*
X138653475Y-93773368D01*
X138446632Y-93566525D01*
X138272240Y-93450000D01*
X138446632Y-93333475D01*
X138653475Y-93126632D01*
X138815990Y-92883411D01*
X138927932Y-92613158D01*
X138985000Y-92326260D01*
X138985000Y-92033740D01*
X138927932Y-91746842D01*
X138815990Y-91476589D01*
X138653475Y-91233368D01*
X138446632Y-91026525D01*
X138272240Y-90910000D01*
X138446632Y-90793475D01*
X138653475Y-90586632D01*
X138815990Y-90343411D01*
X138927932Y-90073158D01*
X138985000Y-89786260D01*
X138985000Y-89493740D01*
X138927932Y-89206842D01*
X138815990Y-88936589D01*
X138653475Y-88693368D01*
X138446632Y-88486525D01*
X138272240Y-88370000D01*
X138446632Y-88253475D01*
X138653475Y-88046632D01*
X138815990Y-87803411D01*
X138927932Y-87533158D01*
X138985000Y-87246260D01*
X138985000Y-86953740D01*
X138927932Y-86666842D01*
X138815990Y-86396589D01*
X138653475Y-86153368D01*
X138446632Y-85946525D01*
X138264466Y-85824805D01*
X138381355Y-85755178D01*
X138597588Y-85560269D01*
X138771641Y-85326920D01*
X138896825Y-85064099D01*
X138941476Y-84916890D01*
X138820155Y-84687000D01*
X137627000Y-84687000D01*
X137627000Y-84707000D01*
X137373000Y-84707000D01*
X137373000Y-84687000D01*
X136179845Y-84687000D01*
X136058524Y-84916890D01*
X136103175Y-85064099D01*
X136228359Y-85326920D01*
X136402412Y-85560269D01*
X136618645Y-85755178D01*
X136735534Y-85824805D01*
X136553368Y-85946525D01*
X136346525Y-86153368D01*
X136184010Y-86396589D01*
X136072068Y-86666842D01*
X136015000Y-86953740D01*
X136015000Y-87246260D01*
X136072068Y-87533158D01*
X136184010Y-87803411D01*
X136346525Y-88046632D01*
X136553368Y-88253475D01*
X136727760Y-88370000D01*
X136553368Y-88486525D01*
X136346525Y-88693368D01*
X136184010Y-88936589D01*
X136072068Y-89206842D01*
X136015000Y-89493740D01*
X136015000Y-89786260D01*
X136072068Y-90073158D01*
X136184010Y-90343411D01*
X136346525Y-90586632D01*
X136553368Y-90793475D01*
X136727760Y-90910000D01*
X136553368Y-91026525D01*
X136346525Y-91233368D01*
X136184010Y-91476589D01*
X136072068Y-91746842D01*
X136015000Y-92033740D01*
X136015000Y-92326260D01*
X136047059Y-92487428D01*
X127110000Y-101424488D01*
X127110000Y-92939787D01*
X127113919Y-92899999D01*
X127101115Y-92770000D01*
X127098280Y-92741212D01*
X127051963Y-92588527D01*
X127007114Y-92504620D01*
X126976749Y-92447810D01*
X126931119Y-92392210D01*
X126875528Y-92324472D01*
X126844618Y-92299105D01*
X123640900Y-89095388D01*
X123615528Y-89064472D01*
X123492189Y-88963251D01*
X123351473Y-88888037D01*
X123198788Y-88841720D01*
X123079791Y-88830000D01*
X123079788Y-88830000D01*
X123040000Y-88826081D01*
X123000212Y-88830000D01*
X103744770Y-88830000D01*
X103653475Y-88693368D01*
X103446632Y-88486525D01*
X103272240Y-88370000D01*
X103446632Y-88253475D01*
X103653475Y-88046632D01*
X103815990Y-87803411D01*
X103927932Y-87533158D01*
X103985000Y-87246260D01*
X103985000Y-86953740D01*
X103927932Y-86666842D01*
X103815990Y-86396589D01*
X103653475Y-86153368D01*
X103446632Y-85946525D01*
X103264466Y-85824805D01*
X103381355Y-85755178D01*
X103597588Y-85560269D01*
X103771641Y-85326920D01*
X103896825Y-85064099D01*
X103941476Y-84916890D01*
X103820155Y-84687000D01*
X102627000Y-84687000D01*
X102627000Y-84707000D01*
X102373000Y-84707000D01*
X102373000Y-84687000D01*
X101179845Y-84687000D01*
X101058524Y-84916890D01*
X101103175Y-85064099D01*
X101228359Y-85326920D01*
X101402412Y-85560269D01*
X101618645Y-85755178D01*
X101735534Y-85824805D01*
X101553368Y-85946525D01*
X101346525Y-86153368D01*
X101184010Y-86396589D01*
X101072068Y-86666842D01*
X101015000Y-86953740D01*
X101015000Y-87246260D01*
X101072068Y-87533158D01*
X101184010Y-87803411D01*
X101346525Y-88046632D01*
X101553368Y-88253475D01*
X101727760Y-88370000D01*
X101553368Y-88486525D01*
X101346525Y-88693368D01*
X101203064Y-88908072D01*
X101198280Y-88859497D01*
X101151963Y-88706812D01*
X101100216Y-88610000D01*
X101076749Y-88566095D01*
X101011447Y-88486525D01*
X100975528Y-88442757D01*
X100944619Y-88417391D01*
X97740047Y-85212820D01*
X97863715Y-85031646D01*
X97974367Y-84771818D01*
X97991904Y-84689039D01*
X97869915Y-84467000D01*
X96327000Y-84467000D01*
X96327000Y-84487000D01*
X96073000Y-84487000D01*
X96073000Y-84467000D01*
X94530085Y-84467000D01*
X94408096Y-84689039D01*
X94425633Y-84771818D01*
X94433376Y-84790000D01*
X90343065Y-84790000D01*
X90394236Y-84621309D01*
X90421943Y-84340000D01*
X90394236Y-84058691D01*
X90373691Y-83990961D01*
X94408096Y-83990961D01*
X94530085Y-84213000D01*
X96073000Y-84213000D01*
X96073000Y-82905000D01*
X96327000Y-82905000D01*
X96327000Y-84213000D01*
X97869915Y-84213000D01*
X97875348Y-84203110D01*
X101058524Y-84203110D01*
X101179845Y-84433000D01*
X102373000Y-84433000D01*
X102373000Y-83239186D01*
X102627000Y-83239186D01*
X102627000Y-84433000D01*
X103820155Y-84433000D01*
X103941476Y-84203110D01*
X136058524Y-84203110D01*
X136179845Y-84433000D01*
X137373000Y-84433000D01*
X137373000Y-83239186D01*
X137627000Y-83239186D01*
X137627000Y-84433000D01*
X138820155Y-84433000D01*
X138941476Y-84203110D01*
X138896825Y-84055901D01*
X138771641Y-83793080D01*
X138597588Y-83559731D01*
X138381355Y-83364822D01*
X138131252Y-83215843D01*
X137856891Y-83118519D01*
X137627000Y-83239186D01*
X137373000Y-83239186D01*
X137143109Y-83118519D01*
X136868748Y-83215843D01*
X136618645Y-83364822D01*
X136402412Y-83559731D01*
X136228359Y-83793080D01*
X136103175Y-84055901D01*
X136058524Y-84203110D01*
X103941476Y-84203110D01*
X103896825Y-84055901D01*
X103771641Y-83793080D01*
X103597588Y-83559731D01*
X103381355Y-83364822D01*
X103131252Y-83215843D01*
X102856891Y-83118519D01*
X102627000Y-83239186D01*
X102373000Y-83239186D01*
X102143109Y-83118519D01*
X101868748Y-83215843D01*
X101618645Y-83364822D01*
X101402412Y-83559731D01*
X101228359Y-83793080D01*
X101103175Y-84055901D01*
X101058524Y-84203110D01*
X97875348Y-84203110D01*
X97991904Y-83990961D01*
X97974367Y-83908182D01*
X97863715Y-83648354D01*
X97704500Y-83415105D01*
X97502839Y-83217399D01*
X97266483Y-83062834D01*
X97004514Y-82957350D01*
X96727000Y-82905000D01*
X96327000Y-82905000D01*
X96073000Y-82905000D01*
X95673000Y-82905000D01*
X95395486Y-82957350D01*
X95133517Y-83062834D01*
X94897161Y-83217399D01*
X94695500Y-83415105D01*
X94536285Y-83648354D01*
X94425633Y-83908182D01*
X94408096Y-83990961D01*
X90373691Y-83990961D01*
X90312182Y-83788192D01*
X90178932Y-83538899D01*
X89999608Y-83320392D01*
X89781101Y-83141068D01*
X89531808Y-83007818D01*
X89261309Y-82925764D01*
X89050492Y-82905000D01*
X88109508Y-82905000D01*
X87898691Y-82925764D01*
X87628192Y-83007818D01*
X87378899Y-83141068D01*
X87160392Y-83320392D01*
X86981068Y-83538899D01*
X86847818Y-83788192D01*
X86765764Y-84058691D01*
X86738057Y-84340000D01*
X86765764Y-84621309D01*
X86847818Y-84891808D01*
X86981068Y-85141101D01*
X87160392Y-85359608D01*
X87378899Y-85538932D01*
X87511858Y-85610000D01*
X87378899Y-85681068D01*
X87160392Y-85860392D01*
X86981068Y-86078899D01*
X86847818Y-86328192D01*
X86765764Y-86598691D01*
X86738057Y-86880000D01*
X86765764Y-87161309D01*
X86819969Y-87340000D01*
X85889787Y-87340000D01*
X85849999Y-87336081D01*
X85810211Y-87340000D01*
X85810209Y-87340000D01*
X85691212Y-87351720D01*
X85538527Y-87398037D01*
X85397811Y-87473251D01*
X85274472Y-87574472D01*
X85249105Y-87605382D01*
X83355383Y-89499105D01*
X83324473Y-89524472D01*
X83299108Y-89555380D01*
X83223251Y-89647811D01*
X83148038Y-89788527D01*
X83101721Y-89941213D01*
X83086081Y-90100000D01*
X83090001Y-90139798D01*
X83090000Y-104086654D01*
X82305372Y-104871283D01*
X82274462Y-104896650D01*
X82237812Y-104941309D01*
X82173240Y-105019989D01*
X82117394Y-105124472D01*
X82098027Y-105160705D01*
X82051781Y-105313158D01*
X82051710Y-105313391D01*
X82036070Y-105472178D01*
X81960000Y-105472178D01*
X81960000Y-84273380D01*
X84073381Y-82160000D01*
X88767591Y-82160000D01*
X88800000Y-82163192D01*
X88832409Y-82160000D01*
X88832419Y-82160000D01*
X88929383Y-82150450D01*
X89053793Y-82112710D01*
X89168450Y-82051425D01*
X89268948Y-81968948D01*
X89289616Y-81943764D01*
X94073381Y-77160000D01*
X138526620Y-77160000D01*
X140640000Y-79273381D01*
G37*
X140640000Y-79273381D02*
X140640001Y-133726618D01*
X138526620Y-135840000D01*
X84073381Y-135840000D01*
X82033381Y-133800000D01*
X98161928Y-133800000D01*
X98174188Y-133924482D01*
X98210498Y-134044180D01*
X98269463Y-134154494D01*
X98348815Y-134251185D01*
X98445506Y-134330537D01*
X98555820Y-134389502D01*
X98675518Y-134425812D01*
X98800000Y-134438072D01*
X99314250Y-134435000D01*
X99473000Y-134276250D01*
X99473000Y-133127000D01*
X99727000Y-133127000D01*
X99727000Y-134276250D01*
X99885750Y-134435000D01*
X100400000Y-134438072D01*
X100524482Y-134425812D01*
X100644180Y-134389502D01*
X100754494Y-134330537D01*
X100851185Y-134251185D01*
X100930537Y-134154494D01*
X100989502Y-134044180D01*
X101025812Y-133924482D01*
X101028231Y-133899920D01*
X101176586Y-134063519D01*
X101402580Y-134231037D01*
X101656913Y-134351246D01*
X101790961Y-134391904D01*
X102013000Y-134269915D01*
X102013000Y-133127000D01*
X99727000Y-133127000D01*
X99473000Y-133127000D01*
X98323750Y-133127000D01*
X98165000Y-133285750D01*
X98161928Y-133800000D01*
X82033381Y-133800000D01*
X81960000Y-133726620D01*
X81960000Y-132200000D01*
X98161928Y-132200000D01*
X98165000Y-132714250D01*
X98323750Y-132873000D01*
X99473000Y-132873000D01*
X99473000Y-131723750D01*
X99314250Y-131565000D01*
X98800000Y-131561928D01*
X98675518Y-131574188D01*
X98555820Y-131610498D01*
X98445506Y-131669463D01*
X98348815Y-131748815D01*
X98269463Y-131845506D01*
X98210498Y-131955820D01*
X98174188Y-132075518D01*
X98161928Y-132200000D01*
X81960000Y-132200000D01*
X81960000Y-105472178D01*
X82036070Y-105472178D01*
X82039990Y-105511976D01*
X82039989Y-125488034D01*
X82036070Y-125527822D01*
X82039989Y-125567610D01*
X82039989Y-125567612D01*
X82051709Y-125686609D01*
X82098026Y-125839294D01*
X82133038Y-125904797D01*
X82173240Y-125980011D01*
X82204692Y-126018335D01*
X82274461Y-126103350D01*
X82305377Y-126128722D01*
X85871272Y-129694618D01*
X85896639Y-129725528D01*
X85964377Y-129781119D01*
X86019977Y-129826749D01*
X86095191Y-129866951D01*
X86160694Y-129901963D01*
X86313379Y-129948280D01*
X86432376Y-129960000D01*
X86432378Y-129960000D01*
X86472166Y-129963919D01*
X86511954Y-129960000D01*
X100494488Y-129960000D01*
X102099487Y-131565000D01*
X102012998Y-131565000D01*
X102012998Y-131730084D01*
X101790961Y-131608096D01*
X101656913Y-131648754D01*
X101402580Y-131768963D01*
X101176586Y-131936481D01*
X101028231Y-132100080D01*
X101025812Y-132075518D01*
X100989502Y-131955820D01*
X100930537Y-131845506D01*
X100851185Y-131748815D01*
X100754494Y-131669463D01*
X100644180Y-131610498D01*
X100524482Y-131574188D01*
X100400000Y-131561928D01*
X99885750Y-131565000D01*
X99727000Y-131723750D01*
X99727000Y-132873000D01*
X102013000Y-132873000D01*
X102013000Y-132853000D01*
X102267000Y-132853000D01*
X102267000Y-132873000D01*
X102287000Y-132873000D01*
X102287000Y-133127000D01*
X102267000Y-133127000D01*
X102267000Y-134269915D01*
X102489039Y-134391904D01*
X102623087Y-134351246D01*
X102877420Y-134231037D01*
X103103414Y-134063519D01*
X103292385Y-133855131D01*
X103403933Y-133669135D01*
X103408320Y-133679727D01*
X103565363Y-133914759D01*
X103765241Y-134114637D01*
X104000273Y-134271680D01*
X104261426Y-134379853D01*
X104538665Y-134435000D01*
X104821335Y-134435000D01*
X105098574Y-134379853D01*
X105359727Y-134271680D01*
X105594759Y-134114637D01*
X105794637Y-133914759D01*
X105950000Y-133682241D01*
X106105363Y-133914759D01*
X106305241Y-134114637D01*
X106540273Y-134271680D01*
X106801426Y-134379853D01*
X107078665Y-134435000D01*
X107361335Y-134435000D01*
X107638574Y-134379853D01*
X107899727Y-134271680D01*
X108134759Y-134114637D01*
X108334637Y-133914759D01*
X108490000Y-133682241D01*
X108645363Y-133914759D01*
X108845241Y-134114637D01*
X109080273Y-134271680D01*
X109341426Y-134379853D01*
X109618665Y-134435000D01*
X109901335Y-134435000D01*
X110178574Y-134379853D01*
X110439727Y-134271680D01*
X110674759Y-134114637D01*
X110874637Y-133914759D01*
X111030000Y-133682241D01*
X111185363Y-133914759D01*
X111385241Y-134114637D01*
X111620273Y-134271680D01*
X111881426Y-134379853D01*
X112158665Y-134435000D01*
X112441335Y-134435000D01*
X112718574Y-134379853D01*
X112979727Y-134271680D01*
X113214759Y-134114637D01*
X113414637Y-133914759D01*
X113570000Y-133682241D01*
X113725363Y-133914759D01*
X113925241Y-134114637D01*
X114160273Y-134271680D01*
X114421426Y-134379853D01*
X114698665Y-134435000D01*
X114981335Y-134435000D01*
X115258574Y-134379853D01*
X115519727Y-134271680D01*
X115754759Y-134114637D01*
X115954637Y-133914759D01*
X116110000Y-133682241D01*
X116265363Y-133914759D01*
X116465241Y-134114637D01*
X116700273Y-134271680D01*
X116961426Y-134379853D01*
X117238665Y-134435000D01*
X117521335Y-134435000D01*
X117798574Y-134379853D01*
X118059727Y-134271680D01*
X118294759Y-134114637D01*
X118494637Y-133914759D01*
X118650000Y-133682241D01*
X118805363Y-133914759D01*
X119005241Y-134114637D01*
X119240273Y-134271680D01*
X119501426Y-134379853D01*
X119778665Y-134435000D01*
X120061335Y-134435000D01*
X120338574Y-134379853D01*
X120599727Y-134271680D01*
X120834759Y-134114637D01*
X121034637Y-133914759D01*
X121190000Y-133682241D01*
X121345363Y-133914759D01*
X121545241Y-134114637D01*
X121780273Y-134271680D01*
X122041426Y-134379853D01*
X122318665Y-134435000D01*
X122601335Y-134435000D01*
X122878574Y-134379853D01*
X123139727Y-134271680D01*
X123374759Y-134114637D01*
X123574637Y-133914759D01*
X123730000Y-133682241D01*
X123885363Y-133914759D01*
X124085241Y-134114637D01*
X124320273Y-134271680D01*
X124581426Y-134379853D01*
X124858665Y-134435000D01*
X125141335Y-134435000D01*
X125418574Y-134379853D01*
X125679727Y-134271680D01*
X125914759Y-134114637D01*
X126114637Y-133914759D01*
X126270000Y-133682241D01*
X126425363Y-133914759D01*
X126625241Y-134114637D01*
X126860273Y-134271680D01*
X127121426Y-134379853D01*
X127398665Y-134435000D01*
X127681335Y-134435000D01*
X127958574Y-134379853D01*
X128219727Y-134271680D01*
X128454759Y-134114637D01*
X128654637Y-133914759D01*
X128810000Y-133682241D01*
X128965363Y-133914759D01*
X129165241Y-134114637D01*
X129400273Y-134271680D01*
X129661426Y-134379853D01*
X129938665Y-134435000D01*
X130221335Y-134435000D01*
X130498574Y-134379853D01*
X130759727Y-134271680D01*
X130994759Y-134114637D01*
X131194637Y-133914759D01*
X131350000Y-133682241D01*
X131505363Y-133914759D01*
X131705241Y-134114637D01*
X131940273Y-134271680D01*
X132201426Y-134379853D01*
X132478665Y-134435000D01*
X132761335Y-134435000D01*
X133038574Y-134379853D01*
X133299727Y-134271680D01*
X133534759Y-134114637D01*
X133734637Y-133914759D01*
X133890000Y-133682241D01*
X134045363Y-133914759D01*
X134245241Y-134114637D01*
X134480273Y-134271680D01*
X134741426Y-134379853D01*
X135018665Y-134435000D01*
X135301335Y-134435000D01*
X135578574Y-134379853D01*
X135839727Y-134271680D01*
X136074759Y-134114637D01*
X136274637Y-133914759D01*
X136431680Y-133679727D01*
X136436067Y-133669135D01*
X136547615Y-133855131D01*
X136736586Y-134063519D01*
X136962580Y-134231037D01*
X137216913Y-134351246D01*
X137350961Y-134391904D01*
X137573000Y-134269915D01*
X137573000Y-133127000D01*
X137827000Y-133127000D01*
X137827000Y-134269915D01*
X138049039Y-134391904D01*
X138183087Y-134351246D01*
X138437420Y-134231037D01*
X138663414Y-134063519D01*
X138852385Y-133855131D01*
X138997070Y-133613881D01*
X139091909Y-133349040D01*
X138970624Y-133127000D01*
X137827000Y-133127000D01*
X137573000Y-133127000D01*
X137553000Y-133127000D01*
X137553000Y-132873000D01*
X137573000Y-132873000D01*
X137573000Y-131730085D01*
X137827000Y-131730085D01*
X137827000Y-132873000D01*
X138970624Y-132873000D01*
X139091909Y-132650960D01*
X138997070Y-132386119D01*
X138852385Y-132144869D01*
X138663414Y-131936481D01*
X138437420Y-131768963D01*
X138183087Y-131648754D01*
X138049039Y-131608096D01*
X137827000Y-131730085D01*
X137573000Y-131730085D01*
X137350961Y-131608096D01*
X137216913Y-131648754D01*
X136962580Y-131768963D01*
X136736586Y-131936481D01*
X136547615Y-132144869D01*
X136436067Y-132330865D01*
X136431680Y-132320273D01*
X136274637Y-132085241D01*
X136074759Y-131885363D01*
X135839727Y-131728320D01*
X135578574Y-131620147D01*
X135301335Y-131565000D01*
X135018665Y-131565000D01*
X134741426Y-131620147D01*
X134480273Y-131728320D01*
X134245241Y-131885363D01*
X134045363Y-132085241D01*
X133890000Y-132317759D01*
X133734637Y-132085241D01*
X133534759Y-131885363D01*
X133299727Y-131728320D01*
X133038574Y-131620147D01*
X132761335Y-131565000D01*
X132478665Y-131565000D01*
X132355093Y-131589580D01*
X119960512Y-119195000D01*
X120047002Y-119195000D01*
X120047002Y-119029916D01*
X120269039Y-119151904D01*
X120403087Y-119111246D01*
X120657420Y-118991037D01*
X120883414Y-118823519D01*
X121072385Y-118615131D01*
X121183933Y-118429135D01*
X121188320Y-118439727D01*
X121345363Y-118674759D01*
X121545241Y-118874637D01*
X121780273Y-119031680D01*
X122041426Y-119139853D01*
X122318665Y-119195000D01*
X122601335Y-119195000D01*
X122878574Y-119139853D01*
X123139727Y-119031680D01*
X123374759Y-118874637D01*
X123574637Y-118674759D01*
X123730000Y-118442241D01*
X123885363Y-118674759D01*
X124085241Y-118874637D01*
X124320273Y-119031680D01*
X124581426Y-119139853D01*
X124858665Y-119195000D01*
X125141335Y-119195000D01*
X125418574Y-119139853D01*
X125491938Y-119109465D01*
X125501720Y-119208787D01*
X125548037Y-119361472D01*
X125565586Y-119394304D01*
X125623251Y-119502189D01*
X125654703Y-119540513D01*
X125724472Y-119625528D01*
X125755388Y-119650900D01*
X127099100Y-120994612D01*
X127124472Y-121025528D01*
X127212825Y-121098037D01*
X127247810Y-121126749D01*
X127323024Y-121166951D01*
X127388527Y-121201963D01*
X127541212Y-121248280D01*
X127660209Y-121260000D01*
X127660212Y-121260000D01*
X127700000Y-121263919D01*
X127739788Y-121260000D01*
X136101582Y-121260000D01*
X136141370Y-121263919D01*
X136181158Y-121260000D01*
X136181161Y-121260000D01*
X136300158Y-121248280D01*
X136452843Y-121201963D01*
X136593559Y-121126749D01*
X136716898Y-121025528D01*
X136742269Y-120994613D01*
X138244618Y-119492265D01*
X138275528Y-119466898D01*
X138376749Y-119343559D01*
X138410572Y-119280280D01*
X138451963Y-119202844D01*
X138471071Y-119139853D01*
X138498280Y-119050158D01*
X138508580Y-118945584D01*
X138614759Y-118874637D01*
X138814637Y-118674759D01*
X138971680Y-118439727D01*
X139079853Y-118178574D01*
X139135000Y-117901335D01*
X139135000Y-117618665D01*
X139079853Y-117341426D01*
X138971680Y-117080273D01*
X138814637Y-116845241D01*
X138614759Y-116645363D01*
X138379727Y-116488320D01*
X138118574Y-116380147D01*
X137841335Y-116325000D01*
X137558665Y-116325000D01*
X137281426Y-116380147D01*
X137020273Y-116488320D01*
X136785241Y-116645363D01*
X136585363Y-116845241D01*
X136430000Y-117077759D01*
X136274637Y-116845241D01*
X136074759Y-116645363D01*
X135839727Y-116488320D01*
X135578574Y-116380147D01*
X135301335Y-116325000D01*
X135018665Y-116325000D01*
X134741426Y-116380147D01*
X134480273Y-116488320D01*
X134245241Y-116645363D01*
X134045363Y-116845241D01*
X133890000Y-117077759D01*
X133734637Y-116845241D01*
X133534759Y-116645363D01*
X133299727Y-116488320D01*
X133038574Y-116380147D01*
X132761335Y-116325000D01*
X132478665Y-116325000D01*
X132201426Y-116380147D01*
X131940273Y-116488320D01*
X131705241Y-116645363D01*
X131505363Y-116845241D01*
X131350000Y-117077759D01*
X131194637Y-116845241D01*
X130994759Y-116645363D01*
X130890000Y-116575365D01*
X130890000Y-113350000D01*
X136011928Y-113350000D01*
X136024188Y-113474482D01*
X136060498Y-113594180D01*
X136119463Y-113704494D01*
X136198815Y-113801185D01*
X136295506Y-113880537D01*
X136405820Y-113939502D01*
X136525518Y-113975812D01*
X136650000Y-113988072D01*
X137214250Y-113985000D01*
X137373000Y-113826250D01*
X137373000Y-112627000D01*
X137627000Y-112627000D01*
X137627000Y-113826250D01*
X137785750Y-113985000D01*
X138350000Y-113988072D01*
X138474482Y-113975812D01*
X138594180Y-113939502D01*
X138704494Y-113880537D01*
X138801185Y-113801185D01*
X138880537Y-113704494D01*
X138939502Y-113594180D01*
X138975812Y-113474482D01*
X138988072Y-113350000D01*
X138985000Y-112785750D01*
X138826250Y-112627000D01*
X137627000Y-112627000D01*
X137373000Y-112627000D01*
X136173750Y-112627000D01*
X136015000Y-112785750D01*
X136011928Y-113350000D01*
X130890000Y-113350000D01*
X130890000Y-105015512D01*
X136015000Y-99890513D01*
X136015000Y-99946260D01*
X136072068Y-100233158D01*
X136184010Y-100503411D01*
X136346525Y-100746632D01*
X136553368Y-100953475D01*
X136727760Y-101070000D01*
X136553368Y-101186525D01*
X136346525Y-101393368D01*
X136184010Y-101636589D01*
X136072068Y-101906842D01*
X136015000Y-102193740D01*
X136015000Y-102486260D01*
X136072068Y-102773158D01*
X136184010Y-103043411D01*
X136346525Y-103286632D01*
X136553368Y-103493475D01*
X136727760Y-103610000D01*
X136553368Y-103726525D01*
X136346525Y-103933368D01*
X136184010Y-104176589D01*
X136072068Y-104446842D01*
X136015000Y-104733740D01*
X136015000Y-105026260D01*
X136072068Y-105313158D01*
X136184010Y-105583411D01*
X136346525Y-105826632D01*
X136553368Y-106033475D01*
X136727760Y-106150000D01*
X136553368Y-106266525D01*
X136346525Y-106473368D01*
X136184010Y-106716589D01*
X136072068Y-106986842D01*
X136015000Y-107273740D01*
X136015000Y-107566260D01*
X136072068Y-107853158D01*
X136184010Y-108123411D01*
X136346525Y-108366632D01*
X136553368Y-108573475D01*
X136727760Y-108690000D01*
X136553368Y-108806525D01*
X136346525Y-109013368D01*
X136184010Y-109256589D01*
X136072068Y-109526842D01*
X136015000Y-109813740D01*
X136015000Y-110106260D01*
X136072068Y-110393158D01*
X136184010Y-110663411D01*
X136346525Y-110906632D01*
X136478380Y-111038487D01*
X136405820Y-111060498D01*
X136295506Y-111119463D01*
X136198815Y-111198815D01*
X136119463Y-111295506D01*
X136060498Y-111405820D01*
X136024188Y-111525518D01*
X136011928Y-111650000D01*
X136015000Y-112214250D01*
X136173750Y-112373000D01*
X137373000Y-112373000D01*
X137373000Y-112353000D01*
X137627000Y-112353000D01*
X137627000Y-112373000D01*
X138826250Y-112373000D01*
X138985000Y-112214250D01*
X138988072Y-111650000D01*
X138975812Y-111525518D01*
X138939502Y-111405820D01*
X138880537Y-111295506D01*
X138801185Y-111198815D01*
X138704494Y-111119463D01*
X138594180Y-111060498D01*
X138521620Y-111038487D01*
X138653475Y-110906632D01*
X138815990Y-110663411D01*
X138927932Y-110393158D01*
X138985000Y-110106260D01*
X138985000Y-109813740D01*
X138927932Y-109526842D01*
X138815990Y-109256589D01*
X138653475Y-109013368D01*
X138446632Y-108806525D01*
X138272240Y-108690000D01*
X138446632Y-108573475D01*
X138653475Y-108366632D01*
X138815990Y-108123411D01*
X138927932Y-107853158D01*
X138985000Y-107566260D01*
X138985000Y-107273740D01*
X138927932Y-106986842D01*
X138815990Y-106716589D01*
X138653475Y-106473368D01*
X138446632Y-106266525D01*
X138272240Y-106150000D01*
X138446632Y-106033475D01*
X138653475Y-105826632D01*
X138815990Y-105583411D01*
X138927932Y-105313158D01*
X138985000Y-105026260D01*
X138985000Y-104733740D01*
X138927932Y-104446842D01*
X138815990Y-104176589D01*
X138653475Y-103933368D01*
X138446632Y-103726525D01*
X138272240Y-103610000D01*
X138446632Y-103493475D01*
X138653475Y-103286632D01*
X138815990Y-103043411D01*
X138927932Y-102773158D01*
X138985000Y-102486260D01*
X138985000Y-102193740D01*
X138927932Y-101906842D01*
X138815990Y-101636589D01*
X138653475Y-101393368D01*
X138446632Y-101186525D01*
X138272240Y-101070000D01*
X138446632Y-100953475D01*
X138653475Y-100746632D01*
X138815990Y-100503411D01*
X138927932Y-100233158D01*
X138985000Y-99946260D01*
X138985000Y-99653740D01*
X138927932Y-99366842D01*
X138815990Y-99096589D01*
X138653475Y-98853368D01*
X138446632Y-98646525D01*
X138272240Y-98530000D01*
X138446632Y-98413475D01*
X138653475Y-98206632D01*
X138815990Y-97963411D01*
X138927932Y-97693158D01*
X138985000Y-97406260D01*
X138985000Y-97113740D01*
X138927932Y-96826842D01*
X138815990Y-96556589D01*
X138653475Y-96313368D01*
X138446632Y-96106525D01*
X138272240Y-95990000D01*
X138446632Y-95873475D01*
X138653475Y-95666632D01*
X138815990Y-95423411D01*
X138927932Y-95153158D01*
X138985000Y-94866260D01*
X138985000Y-94573740D01*
X138927932Y-94286842D01*
X138815990Y-94016589D01*
X138653475Y-93773368D01*
X138446632Y-93566525D01*
X138272240Y-93450000D01*
X138446632Y-93333475D01*
X138653475Y-93126632D01*
X138815990Y-92883411D01*
X138927932Y-92613158D01*
X138985000Y-92326260D01*
X138985000Y-92033740D01*
X138927932Y-91746842D01*
X138815990Y-91476589D01*
X138653475Y-91233368D01*
X138446632Y-91026525D01*
X138272240Y-90910000D01*
X138446632Y-90793475D01*
X138653475Y-90586632D01*
X138815990Y-90343411D01*
X138927932Y-90073158D01*
X138985000Y-89786260D01*
X138985000Y-89493740D01*
X138927932Y-89206842D01*
X138815990Y-88936589D01*
X138653475Y-88693368D01*
X138446632Y-88486525D01*
X138272240Y-88370000D01*
X138446632Y-88253475D01*
X138653475Y-88046632D01*
X138815990Y-87803411D01*
X138927932Y-87533158D01*
X138985000Y-87246260D01*
X138985000Y-86953740D01*
X138927932Y-86666842D01*
X138815990Y-86396589D01*
X138653475Y-86153368D01*
X138446632Y-85946525D01*
X138264466Y-85824805D01*
X138381355Y-85755178D01*
X138597588Y-85560269D01*
X138771641Y-85326920D01*
X138896825Y-85064099D01*
X138941476Y-84916890D01*
X138820155Y-84687000D01*
X137627000Y-84687000D01*
X137627000Y-84707000D01*
X137373000Y-84707000D01*
X137373000Y-84687000D01*
X136179845Y-84687000D01*
X136058524Y-84916890D01*
X136103175Y-85064099D01*
X136228359Y-85326920D01*
X136402412Y-85560269D01*
X136618645Y-85755178D01*
X136735534Y-85824805D01*
X136553368Y-85946525D01*
X136346525Y-86153368D01*
X136184010Y-86396589D01*
X136072068Y-86666842D01*
X136015000Y-86953740D01*
X136015000Y-87246260D01*
X136072068Y-87533158D01*
X136184010Y-87803411D01*
X136346525Y-88046632D01*
X136553368Y-88253475D01*
X136727760Y-88370000D01*
X136553368Y-88486525D01*
X136346525Y-88693368D01*
X136184010Y-88936589D01*
X136072068Y-89206842D01*
X136015000Y-89493740D01*
X136015000Y-89786260D01*
X136072068Y-90073158D01*
X136184010Y-90343411D01*
X136346525Y-90586632D01*
X136553368Y-90793475D01*
X136727760Y-90910000D01*
X136553368Y-91026525D01*
X136346525Y-91233368D01*
X136184010Y-91476589D01*
X136072068Y-91746842D01*
X136015000Y-92033740D01*
X136015000Y-92326260D01*
X136047059Y-92487428D01*
X127110000Y-101424488D01*
X127110000Y-92939787D01*
X127113919Y-92899999D01*
X127101115Y-92770000D01*
X127098280Y-92741212D01*
X127051963Y-92588527D01*
X127007114Y-92504620D01*
X126976749Y-92447810D01*
X126931119Y-92392210D01*
X126875528Y-92324472D01*
X126844618Y-92299105D01*
X123640900Y-89095388D01*
X123615528Y-89064472D01*
X123492189Y-88963251D01*
X123351473Y-88888037D01*
X123198788Y-88841720D01*
X123079791Y-88830000D01*
X123079788Y-88830000D01*
X123040000Y-88826081D01*
X123000212Y-88830000D01*
X103744770Y-88830000D01*
X103653475Y-88693368D01*
X103446632Y-88486525D01*
X103272240Y-88370000D01*
X103446632Y-88253475D01*
X103653475Y-88046632D01*
X103815990Y-87803411D01*
X103927932Y-87533158D01*
X103985000Y-87246260D01*
X103985000Y-86953740D01*
X103927932Y-86666842D01*
X103815990Y-86396589D01*
X103653475Y-86153368D01*
X103446632Y-85946525D01*
X103264466Y-85824805D01*
X103381355Y-85755178D01*
X103597588Y-85560269D01*
X103771641Y-85326920D01*
X103896825Y-85064099D01*
X103941476Y-84916890D01*
X103820155Y-84687000D01*
X102627000Y-84687000D01*
X102627000Y-84707000D01*
X102373000Y-84707000D01*
X102373000Y-84687000D01*
X101179845Y-84687000D01*
X101058524Y-84916890D01*
X101103175Y-85064099D01*
X101228359Y-85326920D01*
X101402412Y-85560269D01*
X101618645Y-85755178D01*
X101735534Y-85824805D01*
X101553368Y-85946525D01*
X101346525Y-86153368D01*
X101184010Y-86396589D01*
X101072068Y-86666842D01*
X101015000Y-86953740D01*
X101015000Y-87246260D01*
X101072068Y-87533158D01*
X101184010Y-87803411D01*
X101346525Y-88046632D01*
X101553368Y-88253475D01*
X101727760Y-88370000D01*
X101553368Y-88486525D01*
X101346525Y-88693368D01*
X101203064Y-88908072D01*
X101198280Y-88859497D01*
X101151963Y-88706812D01*
X101100216Y-88610000D01*
X101076749Y-88566095D01*
X101011447Y-88486525D01*
X100975528Y-88442757D01*
X100944619Y-88417391D01*
X97740047Y-85212820D01*
X97863715Y-85031646D01*
X97974367Y-84771818D01*
X97991904Y-84689039D01*
X97869915Y-84467000D01*
X96327000Y-84467000D01*
X96327000Y-84487000D01*
X96073000Y-84487000D01*
X96073000Y-84467000D01*
X94530085Y-84467000D01*
X94408096Y-84689039D01*
X94425633Y-84771818D01*
X94433376Y-84790000D01*
X90343065Y-84790000D01*
X90394236Y-84621309D01*
X90421943Y-84340000D01*
X90394236Y-84058691D01*
X90373691Y-83990961D01*
X94408096Y-83990961D01*
X94530085Y-84213000D01*
X96073000Y-84213000D01*
X96073000Y-82905000D01*
X96327000Y-82905000D01*
X96327000Y-84213000D01*
X97869915Y-84213000D01*
X97875348Y-84203110D01*
X101058524Y-84203110D01*
X101179845Y-84433000D01*
X102373000Y-84433000D01*
X102373000Y-83239186D01*
X102627000Y-83239186D01*
X102627000Y-84433000D01*
X103820155Y-84433000D01*
X103941476Y-84203110D01*
X136058524Y-84203110D01*
X136179845Y-84433000D01*
X137373000Y-84433000D01*
X137373000Y-83239186D01*
X137627000Y-83239186D01*
X137627000Y-84433000D01*
X138820155Y-84433000D01*
X138941476Y-84203110D01*
X138896825Y-84055901D01*
X138771641Y-83793080D01*
X138597588Y-83559731D01*
X138381355Y-83364822D01*
X138131252Y-83215843D01*
X137856891Y-83118519D01*
X137627000Y-83239186D01*
X137373000Y-83239186D01*
X137143109Y-83118519D01*
X136868748Y-83215843D01*
X136618645Y-83364822D01*
X136402412Y-83559731D01*
X136228359Y-83793080D01*
X136103175Y-84055901D01*
X136058524Y-84203110D01*
X103941476Y-84203110D01*
X103896825Y-84055901D01*
X103771641Y-83793080D01*
X103597588Y-83559731D01*
X103381355Y-83364822D01*
X103131252Y-83215843D01*
X102856891Y-83118519D01*
X102627000Y-83239186D01*
X102373000Y-83239186D01*
X102143109Y-83118519D01*
X101868748Y-83215843D01*
X101618645Y-83364822D01*
X101402412Y-83559731D01*
X101228359Y-83793080D01*
X101103175Y-84055901D01*
X101058524Y-84203110D01*
X97875348Y-84203110D01*
X97991904Y-83990961D01*
X97974367Y-83908182D01*
X97863715Y-83648354D01*
X97704500Y-83415105D01*
X97502839Y-83217399D01*
X97266483Y-83062834D01*
X97004514Y-82957350D01*
X96727000Y-82905000D01*
X96327000Y-82905000D01*
X96073000Y-82905000D01*
X95673000Y-82905000D01*
X95395486Y-82957350D01*
X95133517Y-83062834D01*
X94897161Y-83217399D01*
X94695500Y-83415105D01*
X94536285Y-83648354D01*
X94425633Y-83908182D01*
X94408096Y-83990961D01*
X90373691Y-83990961D01*
X90312182Y-83788192D01*
X90178932Y-83538899D01*
X89999608Y-83320392D01*
X89781101Y-83141068D01*
X89531808Y-83007818D01*
X89261309Y-82925764D01*
X89050492Y-82905000D01*
X88109508Y-82905000D01*
X87898691Y-82925764D01*
X87628192Y-83007818D01*
X87378899Y-83141068D01*
X87160392Y-83320392D01*
X86981068Y-83538899D01*
X86847818Y-83788192D01*
X86765764Y-84058691D01*
X86738057Y-84340000D01*
X86765764Y-84621309D01*
X86847818Y-84891808D01*
X86981068Y-85141101D01*
X87160392Y-85359608D01*
X87378899Y-85538932D01*
X87511858Y-85610000D01*
X87378899Y-85681068D01*
X87160392Y-85860392D01*
X86981068Y-86078899D01*
X86847818Y-86328192D01*
X86765764Y-86598691D01*
X86738057Y-86880000D01*
X86765764Y-87161309D01*
X86819969Y-87340000D01*
X85889787Y-87340000D01*
X85849999Y-87336081D01*
X85810211Y-87340000D01*
X85810209Y-87340000D01*
X85691212Y-87351720D01*
X85538527Y-87398037D01*
X85397811Y-87473251D01*
X85274472Y-87574472D01*
X85249105Y-87605382D01*
X83355383Y-89499105D01*
X83324473Y-89524472D01*
X83299108Y-89555380D01*
X83223251Y-89647811D01*
X83148038Y-89788527D01*
X83101721Y-89941213D01*
X83086081Y-90100000D01*
X83090001Y-90139798D01*
X83090000Y-104086654D01*
X82305372Y-104871283D01*
X82274462Y-104896650D01*
X82237812Y-104941309D01*
X82173240Y-105019989D01*
X82117394Y-105124472D01*
X82098027Y-105160705D01*
X82051781Y-105313158D01*
X82051710Y-105313391D01*
X82036070Y-105472178D01*
X81960000Y-105472178D01*
X81960000Y-84273380D01*
X84073381Y-82160000D01*
X88767591Y-82160000D01*
X88800000Y-82163192D01*
X88832409Y-82160000D01*
X88832419Y-82160000D01*
X88929383Y-82150450D01*
X89053793Y-82112710D01*
X89168450Y-82051425D01*
X89268948Y-81968948D01*
X89289616Y-81943764D01*
X94073381Y-77160000D01*
X138526620Y-77160000D01*
X140640000Y-79273381D01*
G36*
X86765764Y-104378691D02*
G01*
X86738057Y-104660000D01*
X86765764Y-104941309D01*
X86847818Y-105211808D01*
X86981068Y-105461101D01*
X87160392Y-105679608D01*
X87378899Y-105858932D01*
X87511858Y-105930000D01*
X87378899Y-106001068D01*
X87160392Y-106180392D01*
X86981068Y-106398899D01*
X86847818Y-106648192D01*
X86765764Y-106918691D01*
X86738057Y-107200000D01*
X86765764Y-107481309D01*
X86847818Y-107751808D01*
X86945000Y-107933623D01*
X86945001Y-110947240D01*
X86932148Y-110971286D01*
X86838658Y-111279484D01*
X86807089Y-111600000D01*
X86838658Y-111920516D01*
X86932148Y-112228714D01*
X87083970Y-112512752D01*
X87288287Y-112761713D01*
X87537248Y-112966030D01*
X87821286Y-113117852D01*
X88129484Y-113211342D01*
X88450000Y-113242911D01*
X88770516Y-113211342D01*
X89078714Y-113117852D01*
X89362752Y-112966030D01*
X89549323Y-112812915D01*
X89679313Y-112682925D01*
X89741714Y-112631714D01*
X89946031Y-112382752D01*
X90097852Y-112098715D01*
X90191343Y-111790516D01*
X90215000Y-111550322D01*
X90222911Y-111470000D01*
X90215000Y-111389678D01*
X90215000Y-110638463D01*
X90692600Y-111106044D01*
X90738287Y-111161713D01*
X90798218Y-111210897D01*
X98495977Y-118968640D01*
X98681952Y-119122477D01*
X98965399Y-119275400D01*
X99273232Y-119370086D01*
X99593623Y-119402899D01*
X99914260Y-119372574D01*
X100222819Y-119280280D01*
X100507444Y-119129562D01*
X100757196Y-118926213D01*
X100962477Y-118678047D01*
X100991552Y-118624156D01*
X101025363Y-118674759D01*
X101225241Y-118874637D01*
X101460273Y-119031680D01*
X101721426Y-119139853D01*
X101998665Y-119195000D01*
X102281335Y-119195000D01*
X102404907Y-119170420D01*
X105629105Y-122394618D01*
X105654472Y-122425528D01*
X105777811Y-122526749D01*
X105918527Y-122601963D01*
X106071212Y-122648280D01*
X106190209Y-122660000D01*
X106190211Y-122660000D01*
X106229999Y-122663919D01*
X106269787Y-122660000D01*
X118899300Y-122660000D01*
X119059744Y-122767205D01*
X119248102Y-122845226D01*
X119448061Y-122885000D01*
X119651939Y-122885000D01*
X119851898Y-122845226D01*
X120040256Y-122767205D01*
X120209774Y-122653937D01*
X120353937Y-122509774D01*
X120467205Y-122340256D01*
X120545226Y-122151898D01*
X120558691Y-122084203D01*
X130039487Y-131565000D01*
X129938665Y-131565000D01*
X129661426Y-131620147D01*
X129400273Y-131728320D01*
X129165241Y-131885363D01*
X128965363Y-132085241D01*
X128810000Y-132317759D01*
X128654637Y-132085241D01*
X128454759Y-131885363D01*
X128219727Y-131728320D01*
X127958574Y-131620147D01*
X127681335Y-131565000D01*
X127398665Y-131565000D01*
X127121426Y-131620147D01*
X126860273Y-131728320D01*
X126625241Y-131885363D01*
X126425363Y-132085241D01*
X126270000Y-132317759D01*
X126114637Y-132085241D01*
X125914759Y-131885363D01*
X125679727Y-131728320D01*
X125418574Y-131620147D01*
X125141335Y-131565000D01*
X124858665Y-131565000D01*
X124581426Y-131620147D01*
X124320273Y-131728320D01*
X124085241Y-131885363D01*
X123885363Y-132085241D01*
X123730000Y-132317759D01*
X123574637Y-132085241D01*
X123374759Y-131885363D01*
X123139727Y-131728320D01*
X122878574Y-131620147D01*
X122601335Y-131565000D01*
X122318665Y-131565000D01*
X122041426Y-131620147D01*
X121780273Y-131728320D01*
X121545241Y-131885363D01*
X121345363Y-132085241D01*
X121190000Y-132317759D01*
X121034637Y-132085241D01*
X120834759Y-131885363D01*
X120599727Y-131728320D01*
X120338574Y-131620147D01*
X120061335Y-131565000D01*
X119778665Y-131565000D01*
X119501426Y-131620147D01*
X119240273Y-131728320D01*
X119005241Y-131885363D01*
X118805363Y-132085241D01*
X118650000Y-132317759D01*
X118494637Y-132085241D01*
X118294759Y-131885363D01*
X118059727Y-131728320D01*
X117798574Y-131620147D01*
X117521335Y-131565000D01*
X117238665Y-131565000D01*
X116961426Y-131620147D01*
X116700273Y-131728320D01*
X116465241Y-131885363D01*
X116265363Y-132085241D01*
X116110000Y-132317759D01*
X115954637Y-132085241D01*
X115754759Y-131885363D01*
X115519727Y-131728320D01*
X115258574Y-131620147D01*
X114981335Y-131565000D01*
X114698665Y-131565000D01*
X114421426Y-131620147D01*
X114160273Y-131728320D01*
X113925241Y-131885363D01*
X113725363Y-132085241D01*
X113570000Y-132317759D01*
X113414637Y-132085241D01*
X113214759Y-131885363D01*
X112979727Y-131728320D01*
X112718574Y-131620147D01*
X112441335Y-131565000D01*
X112158665Y-131565000D01*
X111881426Y-131620147D01*
X111620273Y-131728320D01*
X111385241Y-131885363D01*
X111185363Y-132085241D01*
X111030000Y-132317759D01*
X110874637Y-132085241D01*
X110674759Y-131885363D01*
X110439727Y-131728320D01*
X110178574Y-131620147D01*
X109901335Y-131565000D01*
X109618665Y-131565000D01*
X109341426Y-131620147D01*
X109080273Y-131728320D01*
X108845241Y-131885363D01*
X108645363Y-132085241D01*
X108490000Y-132317759D01*
X108334637Y-132085241D01*
X108134759Y-131885363D01*
X107899727Y-131728320D01*
X107638574Y-131620147D01*
X107361335Y-131565000D01*
X107078665Y-131565000D01*
X106955093Y-131589580D01*
X103420889Y-128055377D01*
X103395517Y-128024461D01*
X103272178Y-127923240D01*
X103131462Y-127848026D01*
X102978777Y-127801709D01*
X102859780Y-127789989D01*
X102859777Y-127789989D01*
X102819989Y-127786070D01*
X102780201Y-127789989D01*
X87035502Y-127789989D01*
X84210000Y-124964488D01*
X84210000Y-118885663D01*
X91765678Y-118885663D01*
X91860862Y-119151825D01*
X92006143Y-119394304D01*
X92195938Y-119603781D01*
X92422953Y-119772205D01*
X92678464Y-119893105D01*
X92814337Y-119934322D01*
X93037466Y-119812427D01*
X93037466Y-118662534D01*
X93291466Y-118662534D01*
X93291466Y-119812427D01*
X93514595Y-119934322D01*
X93780757Y-119839138D01*
X94023236Y-119693857D01*
X94232713Y-119504062D01*
X94401137Y-119277047D01*
X94522037Y-119021536D01*
X94563254Y-118885663D01*
X94441359Y-118662534D01*
X93291466Y-118662534D01*
X93037466Y-118662534D01*
X91887573Y-118662534D01*
X91765678Y-118885663D01*
X84210000Y-118885663D01*
X84210000Y-118185405D01*
X91765678Y-118185405D01*
X91887573Y-118408534D01*
X93037466Y-118408534D01*
X93037466Y-117258641D01*
X93291466Y-117258641D01*
X93291466Y-118408534D01*
X94441359Y-118408534D01*
X94563254Y-118185405D01*
X94468070Y-117919243D01*
X94322789Y-117676764D01*
X94132994Y-117467287D01*
X93905979Y-117298863D01*
X93650468Y-117177963D01*
X93514595Y-117136746D01*
X93291466Y-117258641D01*
X93037466Y-117258641D01*
X92814337Y-117136746D01*
X92548175Y-117231930D01*
X92305696Y-117377211D01*
X92096219Y-117567006D01*
X91927795Y-117794021D01*
X91806895Y-118049532D01*
X91765678Y-118185405D01*
X84210000Y-118185405D01*
X84210000Y-117592702D01*
X87636903Y-117592702D01*
X87708486Y-117836671D01*
X87963996Y-117957571D01*
X88238184Y-118026300D01*
X88520512Y-118040217D01*
X88800130Y-117998787D01*
X89066292Y-117903603D01*
X89191514Y-117836671D01*
X89263097Y-117592702D01*
X88450000Y-116779605D01*
X87636903Y-117592702D01*
X84210000Y-117592702D01*
X84210000Y-116670512D01*
X87009783Y-116670512D01*
X87051213Y-116950130D01*
X87146397Y-117216292D01*
X87213329Y-117341514D01*
X87457298Y-117413097D01*
X88270395Y-116600000D01*
X88629605Y-116600000D01*
X89442702Y-117413097D01*
X89686671Y-117341514D01*
X89807571Y-117086004D01*
X89876300Y-116811816D01*
X89890217Y-116529488D01*
X89848787Y-116249870D01*
X89753603Y-115983708D01*
X89686671Y-115858486D01*
X89442702Y-115786903D01*
X88629605Y-116600000D01*
X88270395Y-116600000D01*
X87457298Y-115786903D01*
X87213329Y-115858486D01*
X87092429Y-116113996D01*
X87023700Y-116388184D01*
X87009783Y-116670512D01*
X84210000Y-116670512D01*
X84210000Y-115607298D01*
X87636903Y-115607298D01*
X88450000Y-116420395D01*
X89263097Y-115607298D01*
X89191514Y-115363329D01*
X88936004Y-115242429D01*
X88661816Y-115173700D01*
X88379488Y-115159783D01*
X88099870Y-115201213D01*
X87833708Y-115296397D01*
X87708486Y-115363329D01*
X87636903Y-115607298D01*
X84210000Y-115607298D01*
X84210000Y-106035512D01*
X86035513Y-104210000D01*
X86816935Y-104210000D01*
X86765764Y-104378691D01*
G37*
X86765764Y-104378691D02*
X86738057Y-104660000D01*
X86765764Y-104941309D01*
X86847818Y-105211808D01*
X86981068Y-105461101D01*
X87160392Y-105679608D01*
X87378899Y-105858932D01*
X87511858Y-105930000D01*
X87378899Y-106001068D01*
X87160392Y-106180392D01*
X86981068Y-106398899D01*
X86847818Y-106648192D01*
X86765764Y-106918691D01*
X86738057Y-107200000D01*
X86765764Y-107481309D01*
X86847818Y-107751808D01*
X86945000Y-107933623D01*
X86945001Y-110947240D01*
X86932148Y-110971286D01*
X86838658Y-111279484D01*
X86807089Y-111600000D01*
X86838658Y-111920516D01*
X86932148Y-112228714D01*
X87083970Y-112512752D01*
X87288287Y-112761713D01*
X87537248Y-112966030D01*
X87821286Y-113117852D01*
X88129484Y-113211342D01*
X88450000Y-113242911D01*
X88770516Y-113211342D01*
X89078714Y-113117852D01*
X89362752Y-112966030D01*
X89549323Y-112812915D01*
X89679313Y-112682925D01*
X89741714Y-112631714D01*
X89946031Y-112382752D01*
X90097852Y-112098715D01*
X90191343Y-111790516D01*
X90215000Y-111550322D01*
X90222911Y-111470000D01*
X90215000Y-111389678D01*
X90215000Y-110638463D01*
X90692600Y-111106044D01*
X90738287Y-111161713D01*
X90798218Y-111210897D01*
X98495977Y-118968640D01*
X98681952Y-119122477D01*
X98965399Y-119275400D01*
X99273232Y-119370086D01*
X99593623Y-119402899D01*
X99914260Y-119372574D01*
X100222819Y-119280280D01*
X100507444Y-119129562D01*
X100757196Y-118926213D01*
X100962477Y-118678047D01*
X100991552Y-118624156D01*
X101025363Y-118674759D01*
X101225241Y-118874637D01*
X101460273Y-119031680D01*
X101721426Y-119139853D01*
X101998665Y-119195000D01*
X102281335Y-119195000D01*
X102404907Y-119170420D01*
X105629105Y-122394618D01*
X105654472Y-122425528D01*
X105777811Y-122526749D01*
X105918527Y-122601963D01*
X106071212Y-122648280D01*
X106190209Y-122660000D01*
X106190211Y-122660000D01*
X106229999Y-122663919D01*
X106269787Y-122660000D01*
X118899300Y-122660000D01*
X119059744Y-122767205D01*
X119248102Y-122845226D01*
X119448061Y-122885000D01*
X119651939Y-122885000D01*
X119851898Y-122845226D01*
X120040256Y-122767205D01*
X120209774Y-122653937D01*
X120353937Y-122509774D01*
X120467205Y-122340256D01*
X120545226Y-122151898D01*
X120558691Y-122084203D01*
X130039487Y-131565000D01*
X129938665Y-131565000D01*
X129661426Y-131620147D01*
X129400273Y-131728320D01*
X129165241Y-131885363D01*
X128965363Y-132085241D01*
X128810000Y-132317759D01*
X128654637Y-132085241D01*
X128454759Y-131885363D01*
X128219727Y-131728320D01*
X127958574Y-131620147D01*
X127681335Y-131565000D01*
X127398665Y-131565000D01*
X127121426Y-131620147D01*
X126860273Y-131728320D01*
X126625241Y-131885363D01*
X126425363Y-132085241D01*
X126270000Y-132317759D01*
X126114637Y-132085241D01*
X125914759Y-131885363D01*
X125679727Y-131728320D01*
X125418574Y-131620147D01*
X125141335Y-131565000D01*
X124858665Y-131565000D01*
X124581426Y-131620147D01*
X124320273Y-131728320D01*
X124085241Y-131885363D01*
X123885363Y-132085241D01*
X123730000Y-132317759D01*
X123574637Y-132085241D01*
X123374759Y-131885363D01*
X123139727Y-131728320D01*
X122878574Y-131620147D01*
X122601335Y-131565000D01*
X122318665Y-131565000D01*
X122041426Y-131620147D01*
X121780273Y-131728320D01*
X121545241Y-131885363D01*
X121345363Y-132085241D01*
X121190000Y-132317759D01*
X121034637Y-132085241D01*
X120834759Y-131885363D01*
X120599727Y-131728320D01*
X120338574Y-131620147D01*
X120061335Y-131565000D01*
X119778665Y-131565000D01*
X119501426Y-131620147D01*
X119240273Y-131728320D01*
X119005241Y-131885363D01*
X118805363Y-132085241D01*
X118650000Y-132317759D01*
X118494637Y-132085241D01*
X118294759Y-131885363D01*
X118059727Y-131728320D01*
X117798574Y-131620147D01*
X117521335Y-131565000D01*
X117238665Y-131565000D01*
X116961426Y-131620147D01*
X116700273Y-131728320D01*
X116465241Y-131885363D01*
X116265363Y-132085241D01*
X116110000Y-132317759D01*
X115954637Y-132085241D01*
X115754759Y-131885363D01*
X115519727Y-131728320D01*
X115258574Y-131620147D01*
X114981335Y-131565000D01*
X114698665Y-131565000D01*
X114421426Y-131620147D01*
X114160273Y-131728320D01*
X113925241Y-131885363D01*
X113725363Y-132085241D01*
X113570000Y-132317759D01*
X113414637Y-132085241D01*
X113214759Y-131885363D01*
X112979727Y-131728320D01*
X112718574Y-131620147D01*
X112441335Y-131565000D01*
X112158665Y-131565000D01*
X111881426Y-131620147D01*
X111620273Y-131728320D01*
X111385241Y-131885363D01*
X111185363Y-132085241D01*
X111030000Y-132317759D01*
X110874637Y-132085241D01*
X110674759Y-131885363D01*
X110439727Y-131728320D01*
X110178574Y-131620147D01*
X109901335Y-131565000D01*
X109618665Y-131565000D01*
X109341426Y-131620147D01*
X109080273Y-131728320D01*
X108845241Y-131885363D01*
X108645363Y-132085241D01*
X108490000Y-132317759D01*
X108334637Y-132085241D01*
X108134759Y-131885363D01*
X107899727Y-131728320D01*
X107638574Y-131620147D01*
X107361335Y-131565000D01*
X107078665Y-131565000D01*
X106955093Y-131589580D01*
X103420889Y-128055377D01*
X103395517Y-128024461D01*
X103272178Y-127923240D01*
X103131462Y-127848026D01*
X102978777Y-127801709D01*
X102859780Y-127789989D01*
X102859777Y-127789989D01*
X102819989Y-127786070D01*
X102780201Y-127789989D01*
X87035502Y-127789989D01*
X84210000Y-124964488D01*
X84210000Y-118885663D01*
X91765678Y-118885663D01*
X91860862Y-119151825D01*
X92006143Y-119394304D01*
X92195938Y-119603781D01*
X92422953Y-119772205D01*
X92678464Y-119893105D01*
X92814337Y-119934322D01*
X93037466Y-119812427D01*
X93037466Y-118662534D01*
X93291466Y-118662534D01*
X93291466Y-119812427D01*
X93514595Y-119934322D01*
X93780757Y-119839138D01*
X94023236Y-119693857D01*
X94232713Y-119504062D01*
X94401137Y-119277047D01*
X94522037Y-119021536D01*
X94563254Y-118885663D01*
X94441359Y-118662534D01*
X93291466Y-118662534D01*
X93037466Y-118662534D01*
X91887573Y-118662534D01*
X91765678Y-118885663D01*
X84210000Y-118885663D01*
X84210000Y-118185405D01*
X91765678Y-118185405D01*
X91887573Y-118408534D01*
X93037466Y-118408534D01*
X93037466Y-117258641D01*
X93291466Y-117258641D01*
X93291466Y-118408534D01*
X94441359Y-118408534D01*
X94563254Y-118185405D01*
X94468070Y-117919243D01*
X94322789Y-117676764D01*
X94132994Y-117467287D01*
X93905979Y-117298863D01*
X93650468Y-117177963D01*
X93514595Y-117136746D01*
X93291466Y-117258641D01*
X93037466Y-117258641D01*
X92814337Y-117136746D01*
X92548175Y-117231930D01*
X92305696Y-117377211D01*
X92096219Y-117567006D01*
X91927795Y-117794021D01*
X91806895Y-118049532D01*
X91765678Y-118185405D01*
X84210000Y-118185405D01*
X84210000Y-117592702D01*
X87636903Y-117592702D01*
X87708486Y-117836671D01*
X87963996Y-117957571D01*
X88238184Y-118026300D01*
X88520512Y-118040217D01*
X88800130Y-117998787D01*
X89066292Y-117903603D01*
X89191514Y-117836671D01*
X89263097Y-117592702D01*
X88450000Y-116779605D01*
X87636903Y-117592702D01*
X84210000Y-117592702D01*
X84210000Y-116670512D01*
X87009783Y-116670512D01*
X87051213Y-116950130D01*
X87146397Y-117216292D01*
X87213329Y-117341514D01*
X87457298Y-117413097D01*
X88270395Y-116600000D01*
X88629605Y-116600000D01*
X89442702Y-117413097D01*
X89686671Y-117341514D01*
X89807571Y-117086004D01*
X89876300Y-116811816D01*
X89890217Y-116529488D01*
X89848787Y-116249870D01*
X89753603Y-115983708D01*
X89686671Y-115858486D01*
X89442702Y-115786903D01*
X88629605Y-116600000D01*
X88270395Y-116600000D01*
X87457298Y-115786903D01*
X87213329Y-115858486D01*
X87092429Y-116113996D01*
X87023700Y-116388184D01*
X87009783Y-116670512D01*
X84210000Y-116670512D01*
X84210000Y-115607298D01*
X87636903Y-115607298D01*
X88450000Y-116420395D01*
X89263097Y-115607298D01*
X89191514Y-115363329D01*
X88936004Y-115242429D01*
X88661816Y-115173700D01*
X88379488Y-115159783D01*
X88099870Y-115201213D01*
X87833708Y-115296397D01*
X87708486Y-115363329D01*
X87636903Y-115607298D01*
X84210000Y-115607298D01*
X84210000Y-106035512D01*
X86035513Y-104210000D01*
X86816935Y-104210000D01*
X86765764Y-104378691D01*
G36*
X125490001Y-93235514D02*
G01*
X125490001Y-94130077D01*
X125463715Y-94068354D01*
X125304500Y-93835105D01*
X125102839Y-93637399D01*
X124866483Y-93482834D01*
X124604514Y-93377350D01*
X124327000Y-93325000D01*
X123927000Y-93325000D01*
X123927000Y-94633000D01*
X123947000Y-94633000D01*
X123947000Y-94887000D01*
X123927000Y-94887000D01*
X123927000Y-94907000D01*
X123673000Y-94907000D01*
X123673000Y-94887000D01*
X122130085Y-94887000D01*
X122008096Y-95109039D01*
X122025633Y-95191818D01*
X122136285Y-95451646D01*
X122295500Y-95684895D01*
X122497161Y-95882601D01*
X122726741Y-96032735D01*
X122598899Y-96101068D01*
X122380392Y-96280392D01*
X122201068Y-96498899D01*
X122067818Y-96748192D01*
X121985764Y-97018691D01*
X121958057Y-97300000D01*
X121985764Y-97581309D01*
X122067818Y-97851808D01*
X122201068Y-98101101D01*
X122380392Y-98319608D01*
X122598899Y-98498932D01*
X122726741Y-98567265D01*
X122497161Y-98717399D01*
X122295500Y-98915105D01*
X122136285Y-99148354D01*
X122025633Y-99408182D01*
X122008096Y-99490961D01*
X122130085Y-99713000D01*
X123673000Y-99713000D01*
X123673000Y-99693000D01*
X123927000Y-99693000D01*
X123927000Y-99713000D01*
X123947000Y-99713000D01*
X123947000Y-99967000D01*
X123927000Y-99967000D01*
X123927000Y-102253000D01*
X123947000Y-102253000D01*
X123947000Y-102507000D01*
X123927000Y-102507000D01*
X123927000Y-102527000D01*
X123673000Y-102527000D01*
X123673000Y-102507000D01*
X122130085Y-102507000D01*
X122008096Y-102729039D01*
X122025633Y-102811818D01*
X122136285Y-103071646D01*
X122295500Y-103304895D01*
X122497161Y-103502601D01*
X122726741Y-103652735D01*
X122598899Y-103721068D01*
X122380392Y-103900392D01*
X122208210Y-104110197D01*
X122091212Y-104121720D01*
X121938527Y-104168037D01*
X121887095Y-104195528D01*
X121797810Y-104243251D01*
X121756993Y-104276749D01*
X121674472Y-104344472D01*
X121649105Y-104375382D01*
X120155387Y-105869101D01*
X120124472Y-105894472D01*
X120079875Y-105948815D01*
X120023251Y-106017811D01*
X119993715Y-106073070D01*
X119948037Y-106158528D01*
X119901720Y-106311213D01*
X119890000Y-106430209D01*
X119886081Y-106470000D01*
X119890000Y-106509788D01*
X119890001Y-112110202D01*
X119886081Y-112150000D01*
X119901721Y-112308787D01*
X119948038Y-112461473D01*
X120023251Y-112602189D01*
X120047482Y-112631714D01*
X120124473Y-112725528D01*
X120155383Y-112750895D01*
X124067546Y-116663058D01*
X123885363Y-116845241D01*
X123730000Y-117077759D01*
X123574637Y-116845241D01*
X123374759Y-116645363D01*
X123139727Y-116488320D01*
X122878574Y-116380147D01*
X122601335Y-116325000D01*
X122318665Y-116325000D01*
X122041426Y-116380147D01*
X121780273Y-116488320D01*
X121545241Y-116645363D01*
X121345363Y-116845241D01*
X121188320Y-117080273D01*
X121183933Y-117090865D01*
X121072385Y-116904869D01*
X120883414Y-116696481D01*
X120657420Y-116528963D01*
X120403087Y-116408754D01*
X120269039Y-116368096D01*
X120047000Y-116490085D01*
X120047000Y-117633000D01*
X120067000Y-117633000D01*
X120067000Y-117887000D01*
X120047000Y-117887000D01*
X120047000Y-117907000D01*
X119793000Y-117907000D01*
X119793000Y-117887000D01*
X119773000Y-117887000D01*
X119773000Y-117633000D01*
X119793000Y-117633000D01*
X119793000Y-116490085D01*
X119570961Y-116368096D01*
X119554999Y-116372937D01*
X119554999Y-105084786D01*
X119558918Y-105044998D01*
X119549368Y-104948037D01*
X119543279Y-104886211D01*
X119496962Y-104733526D01*
X119456731Y-104658259D01*
X119421748Y-104592809D01*
X119362989Y-104521212D01*
X119320527Y-104469471D01*
X119289617Y-104444104D01*
X117900899Y-103055387D01*
X117875528Y-103024472D01*
X117866578Y-103017127D01*
X117912182Y-102931808D01*
X117994236Y-102661309D01*
X118021943Y-102380000D01*
X117994236Y-102098691D01*
X117912182Y-101828192D01*
X117778932Y-101578899D01*
X117599608Y-101360392D01*
X117381101Y-101181068D01*
X117253259Y-101112735D01*
X117482839Y-100962601D01*
X117684500Y-100764895D01*
X117843715Y-100531646D01*
X117954367Y-100271818D01*
X117971904Y-100189039D01*
X122008096Y-100189039D01*
X122025633Y-100271818D01*
X122136285Y-100531646D01*
X122295500Y-100764895D01*
X122497161Y-100962601D01*
X122722559Y-101110000D01*
X122497161Y-101257399D01*
X122295500Y-101455105D01*
X122136285Y-101688354D01*
X122025633Y-101948182D01*
X122008096Y-102030961D01*
X122130085Y-102253000D01*
X123673000Y-102253000D01*
X123673000Y-99967000D01*
X122130085Y-99967000D01*
X122008096Y-100189039D01*
X117971904Y-100189039D01*
X117849915Y-99967000D01*
X116307000Y-99967000D01*
X116307000Y-99987000D01*
X116053000Y-99987000D01*
X116053000Y-99967000D01*
X114510085Y-99967000D01*
X114388096Y-100189039D01*
X114405633Y-100271818D01*
X114516285Y-100531646D01*
X114675500Y-100764895D01*
X114877161Y-100962601D01*
X115106741Y-101112735D01*
X114978899Y-101181068D01*
X114760392Y-101360392D01*
X114581068Y-101578899D01*
X114447818Y-101828192D01*
X114365764Y-102098691D01*
X114338057Y-102380000D01*
X114365764Y-102661309D01*
X114404802Y-102790000D01*
X111715513Y-102790000D01*
X106574552Y-97649039D01*
X114388096Y-97649039D01*
X114405633Y-97731818D01*
X114516285Y-97991646D01*
X114675500Y-98224895D01*
X114877161Y-98422601D01*
X115102559Y-98570000D01*
X114877161Y-98717399D01*
X114675500Y-98915105D01*
X114516285Y-99148354D01*
X114405633Y-99408182D01*
X114388096Y-99490961D01*
X114510085Y-99713000D01*
X116053000Y-99713000D01*
X116053000Y-97427000D01*
X116307000Y-97427000D01*
X116307000Y-99713000D01*
X117849915Y-99713000D01*
X117971904Y-99490961D01*
X117954367Y-99408182D01*
X117843715Y-99148354D01*
X117684500Y-98915105D01*
X117482839Y-98717399D01*
X117257441Y-98570000D01*
X117482839Y-98422601D01*
X117684500Y-98224895D01*
X117843715Y-97991646D01*
X117954367Y-97731818D01*
X117971904Y-97649039D01*
X117849915Y-97427000D01*
X116307000Y-97427000D01*
X116053000Y-97427000D01*
X114510085Y-97427000D01*
X114388096Y-97649039D01*
X106574552Y-97649039D01*
X103952941Y-95027429D01*
X103985000Y-94866260D01*
X103985000Y-94760000D01*
X114338057Y-94760000D01*
X114365764Y-95041309D01*
X114447818Y-95311808D01*
X114581068Y-95561101D01*
X114760392Y-95779608D01*
X114978899Y-95958932D01*
X115106741Y-96027265D01*
X114877161Y-96177399D01*
X114675500Y-96375105D01*
X114516285Y-96608354D01*
X114405633Y-96868182D01*
X114388096Y-96950961D01*
X114510085Y-97173000D01*
X116053000Y-97173000D01*
X116053000Y-97153000D01*
X116307000Y-97153000D01*
X116307000Y-97173000D01*
X117849915Y-97173000D01*
X117971904Y-96950961D01*
X117954367Y-96868182D01*
X117843715Y-96608354D01*
X117684500Y-96375105D01*
X117482839Y-96177399D01*
X117253259Y-96027265D01*
X117381101Y-95958932D01*
X117599608Y-95779608D01*
X117778932Y-95561101D01*
X117912182Y-95311808D01*
X117994236Y-95041309D01*
X118021943Y-94760000D01*
X117994236Y-94478691D01*
X117973691Y-94410961D01*
X122008096Y-94410961D01*
X122130085Y-94633000D01*
X123673000Y-94633000D01*
X123673000Y-93325000D01*
X123273000Y-93325000D01*
X122995486Y-93377350D01*
X122733517Y-93482834D01*
X122497161Y-93637399D01*
X122295500Y-93835105D01*
X122136285Y-94068354D01*
X122025633Y-94328182D01*
X122008096Y-94410961D01*
X117973691Y-94410961D01*
X117912182Y-94208192D01*
X117778932Y-93958899D01*
X117599608Y-93740392D01*
X117381101Y-93561068D01*
X117131808Y-93427818D01*
X116861309Y-93345764D01*
X116650492Y-93325000D01*
X115709508Y-93325000D01*
X115498691Y-93345764D01*
X115228192Y-93427818D01*
X114978899Y-93561068D01*
X114760392Y-93740392D01*
X114581068Y-93958899D01*
X114447818Y-94208192D01*
X114365764Y-94478691D01*
X114338057Y-94760000D01*
X103985000Y-94760000D01*
X103985000Y-94573740D01*
X103927932Y-94286842D01*
X103815990Y-94016589D01*
X103653475Y-93773368D01*
X103446632Y-93566525D01*
X103272240Y-93450000D01*
X103446632Y-93333475D01*
X103653475Y-93126632D01*
X103815990Y-92883411D01*
X103927932Y-92613158D01*
X103985000Y-92326260D01*
X103985000Y-92033740D01*
X103927932Y-91746842D01*
X103815990Y-91476589D01*
X103653475Y-91233368D01*
X103446632Y-91026525D01*
X103272240Y-90910000D01*
X103446632Y-90793475D01*
X103653475Y-90586632D01*
X103744770Y-90450000D01*
X122704488Y-90450000D01*
X125490001Y-93235514D01*
G37*
X125490001Y-93235514D02*
X125490001Y-94130077D01*
X125463715Y-94068354D01*
X125304500Y-93835105D01*
X125102839Y-93637399D01*
X124866483Y-93482834D01*
X124604514Y-93377350D01*
X124327000Y-93325000D01*
X123927000Y-93325000D01*
X123927000Y-94633000D01*
X123947000Y-94633000D01*
X123947000Y-94887000D01*
X123927000Y-94887000D01*
X123927000Y-94907000D01*
X123673000Y-94907000D01*
X123673000Y-94887000D01*
X122130085Y-94887000D01*
X122008096Y-95109039D01*
X122025633Y-95191818D01*
X122136285Y-95451646D01*
X122295500Y-95684895D01*
X122497161Y-95882601D01*
X122726741Y-96032735D01*
X122598899Y-96101068D01*
X122380392Y-96280392D01*
X122201068Y-96498899D01*
X122067818Y-96748192D01*
X121985764Y-97018691D01*
X121958057Y-97300000D01*
X121985764Y-97581309D01*
X122067818Y-97851808D01*
X122201068Y-98101101D01*
X122380392Y-98319608D01*
X122598899Y-98498932D01*
X122726741Y-98567265D01*
X122497161Y-98717399D01*
X122295500Y-98915105D01*
X122136285Y-99148354D01*
X122025633Y-99408182D01*
X122008096Y-99490961D01*
X122130085Y-99713000D01*
X123673000Y-99713000D01*
X123673000Y-99693000D01*
X123927000Y-99693000D01*
X123927000Y-99713000D01*
X123947000Y-99713000D01*
X123947000Y-99967000D01*
X123927000Y-99967000D01*
X123927000Y-102253000D01*
X123947000Y-102253000D01*
X123947000Y-102507000D01*
X123927000Y-102507000D01*
X123927000Y-102527000D01*
X123673000Y-102527000D01*
X123673000Y-102507000D01*
X122130085Y-102507000D01*
X122008096Y-102729039D01*
X122025633Y-102811818D01*
X122136285Y-103071646D01*
X122295500Y-103304895D01*
X122497161Y-103502601D01*
X122726741Y-103652735D01*
X122598899Y-103721068D01*
X122380392Y-103900392D01*
X122208210Y-104110197D01*
X122091212Y-104121720D01*
X121938527Y-104168037D01*
X121887095Y-104195528D01*
X121797810Y-104243251D01*
X121756993Y-104276749D01*
X121674472Y-104344472D01*
X121649105Y-104375382D01*
X120155387Y-105869101D01*
X120124472Y-105894472D01*
X120079875Y-105948815D01*
X120023251Y-106017811D01*
X119993715Y-106073070D01*
X119948037Y-106158528D01*
X119901720Y-106311213D01*
X119890000Y-106430209D01*
X119886081Y-106470000D01*
X119890000Y-106509788D01*
X119890001Y-112110202D01*
X119886081Y-112150000D01*
X119901721Y-112308787D01*
X119948038Y-112461473D01*
X120023251Y-112602189D01*
X120047482Y-112631714D01*
X120124473Y-112725528D01*
X120155383Y-112750895D01*
X124067546Y-116663058D01*
X123885363Y-116845241D01*
X123730000Y-117077759D01*
X123574637Y-116845241D01*
X123374759Y-116645363D01*
X123139727Y-116488320D01*
X122878574Y-116380147D01*
X122601335Y-116325000D01*
X122318665Y-116325000D01*
X122041426Y-116380147D01*
X121780273Y-116488320D01*
X121545241Y-116645363D01*
X121345363Y-116845241D01*
X121188320Y-117080273D01*
X121183933Y-117090865D01*
X121072385Y-116904869D01*
X120883414Y-116696481D01*
X120657420Y-116528963D01*
X120403087Y-116408754D01*
X120269039Y-116368096D01*
X120047000Y-116490085D01*
X120047000Y-117633000D01*
X120067000Y-117633000D01*
X120067000Y-117887000D01*
X120047000Y-117887000D01*
X120047000Y-117907000D01*
X119793000Y-117907000D01*
X119793000Y-117887000D01*
X119773000Y-117887000D01*
X119773000Y-117633000D01*
X119793000Y-117633000D01*
X119793000Y-116490085D01*
X119570961Y-116368096D01*
X119554999Y-116372937D01*
X119554999Y-105084786D01*
X119558918Y-105044998D01*
X119549368Y-104948037D01*
X119543279Y-104886211D01*
X119496962Y-104733526D01*
X119456731Y-104658259D01*
X119421748Y-104592809D01*
X119362989Y-104521212D01*
X119320527Y-104469471D01*
X119289617Y-104444104D01*
X117900899Y-103055387D01*
X117875528Y-103024472D01*
X117866578Y-103017127D01*
X117912182Y-102931808D01*
X117994236Y-102661309D01*
X118021943Y-102380000D01*
X117994236Y-102098691D01*
X117912182Y-101828192D01*
X117778932Y-101578899D01*
X117599608Y-101360392D01*
X117381101Y-101181068D01*
X117253259Y-101112735D01*
X117482839Y-100962601D01*
X117684500Y-100764895D01*
X117843715Y-100531646D01*
X117954367Y-100271818D01*
X117971904Y-100189039D01*
X122008096Y-100189039D01*
X122025633Y-100271818D01*
X122136285Y-100531646D01*
X122295500Y-100764895D01*
X122497161Y-100962601D01*
X122722559Y-101110000D01*
X122497161Y-101257399D01*
X122295500Y-101455105D01*
X122136285Y-101688354D01*
X122025633Y-101948182D01*
X122008096Y-102030961D01*
X122130085Y-102253000D01*
X123673000Y-102253000D01*
X123673000Y-99967000D01*
X122130085Y-99967000D01*
X122008096Y-100189039D01*
X117971904Y-100189039D01*
X117849915Y-99967000D01*
X116307000Y-99967000D01*
X116307000Y-99987000D01*
X116053000Y-99987000D01*
X116053000Y-99967000D01*
X114510085Y-99967000D01*
X114388096Y-100189039D01*
X114405633Y-100271818D01*
X114516285Y-100531646D01*
X114675500Y-100764895D01*
X114877161Y-100962601D01*
X115106741Y-101112735D01*
X114978899Y-101181068D01*
X114760392Y-101360392D01*
X114581068Y-101578899D01*
X114447818Y-101828192D01*
X114365764Y-102098691D01*
X114338057Y-102380000D01*
X114365764Y-102661309D01*
X114404802Y-102790000D01*
X111715513Y-102790000D01*
X106574552Y-97649039D01*
X114388096Y-97649039D01*
X114405633Y-97731818D01*
X114516285Y-97991646D01*
X114675500Y-98224895D01*
X114877161Y-98422601D01*
X115102559Y-98570000D01*
X114877161Y-98717399D01*
X114675500Y-98915105D01*
X114516285Y-99148354D01*
X114405633Y-99408182D01*
X114388096Y-99490961D01*
X114510085Y-99713000D01*
X116053000Y-99713000D01*
X116053000Y-97427000D01*
X116307000Y-97427000D01*
X116307000Y-99713000D01*
X117849915Y-99713000D01*
X117971904Y-99490961D01*
X117954367Y-99408182D01*
X117843715Y-99148354D01*
X117684500Y-98915105D01*
X117482839Y-98717399D01*
X117257441Y-98570000D01*
X117482839Y-98422601D01*
X117684500Y-98224895D01*
X117843715Y-97991646D01*
X117954367Y-97731818D01*
X117971904Y-97649039D01*
X117849915Y-97427000D01*
X116307000Y-97427000D01*
X116053000Y-97427000D01*
X114510085Y-97427000D01*
X114388096Y-97649039D01*
X106574552Y-97649039D01*
X103952941Y-95027429D01*
X103985000Y-94866260D01*
X103985000Y-94760000D01*
X114338057Y-94760000D01*
X114365764Y-95041309D01*
X114447818Y-95311808D01*
X114581068Y-95561101D01*
X114760392Y-95779608D01*
X114978899Y-95958932D01*
X115106741Y-96027265D01*
X114877161Y-96177399D01*
X114675500Y-96375105D01*
X114516285Y-96608354D01*
X114405633Y-96868182D01*
X114388096Y-96950961D01*
X114510085Y-97173000D01*
X116053000Y-97173000D01*
X116053000Y-97153000D01*
X116307000Y-97153000D01*
X116307000Y-97173000D01*
X117849915Y-97173000D01*
X117971904Y-96950961D01*
X117954367Y-96868182D01*
X117843715Y-96608354D01*
X117684500Y-96375105D01*
X117482839Y-96177399D01*
X117253259Y-96027265D01*
X117381101Y-95958932D01*
X117599608Y-95779608D01*
X117778932Y-95561101D01*
X117912182Y-95311808D01*
X117994236Y-95041309D01*
X118021943Y-94760000D01*
X117994236Y-94478691D01*
X117973691Y-94410961D01*
X122008096Y-94410961D01*
X122130085Y-94633000D01*
X123673000Y-94633000D01*
X123673000Y-93325000D01*
X123273000Y-93325000D01*
X122995486Y-93377350D01*
X122733517Y-93482834D01*
X122497161Y-93637399D01*
X122295500Y-93835105D01*
X122136285Y-94068354D01*
X122025633Y-94328182D01*
X122008096Y-94410961D01*
X117973691Y-94410961D01*
X117912182Y-94208192D01*
X117778932Y-93958899D01*
X117599608Y-93740392D01*
X117381101Y-93561068D01*
X117131808Y-93427818D01*
X116861309Y-93345764D01*
X116650492Y-93325000D01*
X115709508Y-93325000D01*
X115498691Y-93345764D01*
X115228192Y-93427818D01*
X114978899Y-93561068D01*
X114760392Y-93740392D01*
X114581068Y-93958899D01*
X114447818Y-94208192D01*
X114365764Y-94478691D01*
X114338057Y-94760000D01*
X103985000Y-94760000D01*
X103985000Y-94573740D01*
X103927932Y-94286842D01*
X103815990Y-94016589D01*
X103653475Y-93773368D01*
X103446632Y-93566525D01*
X103272240Y-93450000D01*
X103446632Y-93333475D01*
X103653475Y-93126632D01*
X103815990Y-92883411D01*
X103927932Y-92613158D01*
X103985000Y-92326260D01*
X103985000Y-92033740D01*
X103927932Y-91746842D01*
X103815990Y-91476589D01*
X103653475Y-91233368D01*
X103446632Y-91026525D01*
X103272240Y-90910000D01*
X103446632Y-90793475D01*
X103653475Y-90586632D01*
X103744770Y-90450000D01*
X122704488Y-90450000D01*
X125490001Y-93235514D01*
G36*
X117934999Y-116436656D02*
G01*
X117798574Y-116380147D01*
X117521335Y-116325000D01*
X117238665Y-116325000D01*
X116961426Y-116380147D01*
X116700273Y-116488320D01*
X116465241Y-116645363D01*
X116265363Y-116845241D01*
X116110000Y-117077759D01*
X115954637Y-116845241D01*
X115754759Y-116645363D01*
X115519727Y-116488320D01*
X115258574Y-116380147D01*
X114981335Y-116325000D01*
X114698665Y-116325000D01*
X114421426Y-116380147D01*
X114160273Y-116488320D01*
X113925241Y-116645363D01*
X113725363Y-116845241D01*
X113570000Y-117077759D01*
X113414637Y-116845241D01*
X113214759Y-116645363D01*
X112979727Y-116488320D01*
X112718574Y-116380147D01*
X112441335Y-116325000D01*
X112158665Y-116325000D01*
X111881426Y-116380147D01*
X111620273Y-116488320D01*
X111385241Y-116645363D01*
X111185363Y-116845241D01*
X111030000Y-117077759D01*
X110874637Y-116845241D01*
X110674759Y-116645363D01*
X110439727Y-116488320D01*
X110178574Y-116380147D01*
X109901335Y-116325000D01*
X109618665Y-116325000D01*
X109341426Y-116380147D01*
X109080273Y-116488320D01*
X108845241Y-116645363D01*
X108645363Y-116845241D01*
X108490000Y-117077759D01*
X108334637Y-116845241D01*
X108134759Y-116645363D01*
X107899727Y-116488320D01*
X107638574Y-116380147D01*
X107361335Y-116325000D01*
X107078665Y-116325000D01*
X106801426Y-116380147D01*
X106540273Y-116488320D01*
X106305241Y-116645363D01*
X106105363Y-116845241D01*
X105948320Y-117080273D01*
X105943933Y-117090865D01*
X105832385Y-116904869D01*
X105643414Y-116696481D01*
X105417420Y-116528963D01*
X105163087Y-116408754D01*
X105029039Y-116368096D01*
X104807000Y-116490085D01*
X104807000Y-117633000D01*
X104827000Y-117633000D01*
X104827000Y-117887000D01*
X104807000Y-117887000D01*
X104807000Y-117907000D01*
X104553000Y-117907000D01*
X104553000Y-117887000D01*
X104533000Y-117887000D01*
X104533000Y-117633000D01*
X104553000Y-117633000D01*
X104553000Y-116490085D01*
X104330961Y-116368096D01*
X104196913Y-116408754D01*
X103942580Y-116528963D01*
X103716586Y-116696481D01*
X103527615Y-116904869D01*
X103416067Y-117090865D01*
X103411680Y-117080273D01*
X103254637Y-116845241D01*
X103054759Y-116645363D01*
X102819727Y-116488320D01*
X102558574Y-116380147D01*
X102281335Y-116325000D01*
X101998665Y-116325000D01*
X101721426Y-116380147D01*
X101460273Y-116488320D01*
X101225241Y-116645363D01*
X101025363Y-116845241D01*
X100992072Y-116895064D01*
X100969562Y-116852555D01*
X100817172Y-116665392D01*
X97527415Y-113350000D01*
X101011928Y-113350000D01*
X101024188Y-113474482D01*
X101060498Y-113594180D01*
X101119463Y-113704494D01*
X101198815Y-113801185D01*
X101295506Y-113880537D01*
X101405820Y-113939502D01*
X101525518Y-113975812D01*
X101650000Y-113988072D01*
X102214250Y-113985000D01*
X102373000Y-113826250D01*
X102373000Y-112627000D01*
X102627000Y-112627000D01*
X102627000Y-113826250D01*
X102785750Y-113985000D01*
X103350000Y-113988072D01*
X103474482Y-113975812D01*
X103594180Y-113939502D01*
X103704494Y-113880537D01*
X103801185Y-113801185D01*
X103849180Y-113742702D01*
X106836903Y-113742702D01*
X106908486Y-113986671D01*
X107163996Y-114107571D01*
X107438184Y-114176300D01*
X107720512Y-114190217D01*
X108000130Y-114148787D01*
X108266292Y-114053603D01*
X108391514Y-113986671D01*
X108463097Y-113742702D01*
X107650000Y-112929605D01*
X106836903Y-113742702D01*
X103849180Y-113742702D01*
X103880537Y-113704494D01*
X103939502Y-113594180D01*
X103975812Y-113474482D01*
X103988072Y-113350000D01*
X103985190Y-112820512D01*
X106209783Y-112820512D01*
X106251213Y-113100130D01*
X106346397Y-113366292D01*
X106413329Y-113491514D01*
X106657298Y-113563097D01*
X107470395Y-112750000D01*
X107829605Y-112750000D01*
X108642702Y-113563097D01*
X108886671Y-113491514D01*
X109007571Y-113236004D01*
X109076300Y-112961816D01*
X109090217Y-112679488D01*
X109048787Y-112399870D01*
X108953603Y-112133708D01*
X108886671Y-112008486D01*
X108642702Y-111936903D01*
X107829605Y-112750000D01*
X107470395Y-112750000D01*
X106657298Y-111936903D01*
X106413329Y-112008486D01*
X106292429Y-112263996D01*
X106223700Y-112538184D01*
X106209783Y-112820512D01*
X103985190Y-112820512D01*
X103985000Y-112785750D01*
X103826250Y-112627000D01*
X102627000Y-112627000D01*
X102373000Y-112627000D01*
X101173750Y-112627000D01*
X101015000Y-112785750D01*
X101011928Y-113350000D01*
X97527415Y-113350000D01*
X95785984Y-111595000D01*
X101017345Y-111595000D01*
X101011928Y-111650000D01*
X101015000Y-112214250D01*
X101173750Y-112373000D01*
X102373000Y-112373000D01*
X102373000Y-112353000D01*
X102627000Y-112353000D01*
X102627000Y-112373000D01*
X103826250Y-112373000D01*
X103985000Y-112214250D01*
X103988072Y-111650000D01*
X103982655Y-111595000D01*
X106884523Y-111595000D01*
X106836903Y-111757298D01*
X107650000Y-112570395D01*
X108463097Y-111757298D01*
X108415477Y-111595000D01*
X111015001Y-111595000D01*
X111015001Y-112830322D01*
X111038658Y-113070516D01*
X111132149Y-113378715D01*
X111283970Y-113662752D01*
X111488287Y-113911714D01*
X111737249Y-114116031D01*
X112021286Y-114267852D01*
X112329485Y-114361343D01*
X112650000Y-114392911D01*
X112970516Y-114361343D01*
X113278715Y-114267852D01*
X113562752Y-114116031D01*
X113811714Y-113911714D01*
X114016031Y-113662752D01*
X114167852Y-113378715D01*
X114261343Y-113070516D01*
X114285000Y-112830322D01*
X114285000Y-111595000D01*
X115805608Y-111595000D01*
X115859484Y-111611343D01*
X116180000Y-111642912D01*
X116500516Y-111611343D01*
X116808715Y-111517852D01*
X117092752Y-111366030D01*
X117138083Y-111328828D01*
X117381101Y-111198932D01*
X117599608Y-111019608D01*
X117778932Y-110801101D01*
X117912182Y-110551808D01*
X117935000Y-110476588D01*
X117934999Y-116436656D01*
G37*
X117934999Y-116436656D02*
X117798574Y-116380147D01*
X117521335Y-116325000D01*
X117238665Y-116325000D01*
X116961426Y-116380147D01*
X116700273Y-116488320D01*
X116465241Y-116645363D01*
X116265363Y-116845241D01*
X116110000Y-117077759D01*
X115954637Y-116845241D01*
X115754759Y-116645363D01*
X115519727Y-116488320D01*
X115258574Y-116380147D01*
X114981335Y-116325000D01*
X114698665Y-116325000D01*
X114421426Y-116380147D01*
X114160273Y-116488320D01*
X113925241Y-116645363D01*
X113725363Y-116845241D01*
X113570000Y-117077759D01*
X113414637Y-116845241D01*
X113214759Y-116645363D01*
X112979727Y-116488320D01*
X112718574Y-116380147D01*
X112441335Y-116325000D01*
X112158665Y-116325000D01*
X111881426Y-116380147D01*
X111620273Y-116488320D01*
X111385241Y-116645363D01*
X111185363Y-116845241D01*
X111030000Y-117077759D01*
X110874637Y-116845241D01*
X110674759Y-116645363D01*
X110439727Y-116488320D01*
X110178574Y-116380147D01*
X109901335Y-116325000D01*
X109618665Y-116325000D01*
X109341426Y-116380147D01*
X109080273Y-116488320D01*
X108845241Y-116645363D01*
X108645363Y-116845241D01*
X108490000Y-117077759D01*
X108334637Y-116845241D01*
X108134759Y-116645363D01*
X107899727Y-116488320D01*
X107638574Y-116380147D01*
X107361335Y-116325000D01*
X107078665Y-116325000D01*
X106801426Y-116380147D01*
X106540273Y-116488320D01*
X106305241Y-116645363D01*
X106105363Y-116845241D01*
X105948320Y-117080273D01*
X105943933Y-117090865D01*
X105832385Y-116904869D01*
X105643414Y-116696481D01*
X105417420Y-116528963D01*
X105163087Y-116408754D01*
X105029039Y-116368096D01*
X104807000Y-116490085D01*
X104807000Y-117633000D01*
X104827000Y-117633000D01*
X104827000Y-117887000D01*
X104807000Y-117887000D01*
X104807000Y-117907000D01*
X104553000Y-117907000D01*
X104553000Y-117887000D01*
X104533000Y-117887000D01*
X104533000Y-117633000D01*
X104553000Y-117633000D01*
X104553000Y-116490085D01*
X104330961Y-116368096D01*
X104196913Y-116408754D01*
X103942580Y-116528963D01*
X103716586Y-116696481D01*
X103527615Y-116904869D01*
X103416067Y-117090865D01*
X103411680Y-117080273D01*
X103254637Y-116845241D01*
X103054759Y-116645363D01*
X102819727Y-116488320D01*
X102558574Y-116380147D01*
X102281335Y-116325000D01*
X101998665Y-116325000D01*
X101721426Y-116380147D01*
X101460273Y-116488320D01*
X101225241Y-116645363D01*
X101025363Y-116845241D01*
X100992072Y-116895064D01*
X100969562Y-116852555D01*
X100817172Y-116665392D01*
X97527415Y-113350000D01*
X101011928Y-113350000D01*
X101024188Y-113474482D01*
X101060498Y-113594180D01*
X101119463Y-113704494D01*
X101198815Y-113801185D01*
X101295506Y-113880537D01*
X101405820Y-113939502D01*
X101525518Y-113975812D01*
X101650000Y-113988072D01*
X102214250Y-113985000D01*
X102373000Y-113826250D01*
X102373000Y-112627000D01*
X102627000Y-112627000D01*
X102627000Y-113826250D01*
X102785750Y-113985000D01*
X103350000Y-113988072D01*
X103474482Y-113975812D01*
X103594180Y-113939502D01*
X103704494Y-113880537D01*
X103801185Y-113801185D01*
X103849180Y-113742702D01*
X106836903Y-113742702D01*
X106908486Y-113986671D01*
X107163996Y-114107571D01*
X107438184Y-114176300D01*
X107720512Y-114190217D01*
X108000130Y-114148787D01*
X108266292Y-114053603D01*
X108391514Y-113986671D01*
X108463097Y-113742702D01*
X107650000Y-112929605D01*
X106836903Y-113742702D01*
X103849180Y-113742702D01*
X103880537Y-113704494D01*
X103939502Y-113594180D01*
X103975812Y-113474482D01*
X103988072Y-113350000D01*
X103985190Y-112820512D01*
X106209783Y-112820512D01*
X106251213Y-113100130D01*
X106346397Y-113366292D01*
X106413329Y-113491514D01*
X106657298Y-113563097D01*
X107470395Y-112750000D01*
X107829605Y-112750000D01*
X108642702Y-113563097D01*
X108886671Y-113491514D01*
X109007571Y-113236004D01*
X109076300Y-112961816D01*
X109090217Y-112679488D01*
X109048787Y-112399870D01*
X108953603Y-112133708D01*
X108886671Y-112008486D01*
X108642702Y-111936903D01*
X107829605Y-112750000D01*
X107470395Y-112750000D01*
X106657298Y-111936903D01*
X106413329Y-112008486D01*
X106292429Y-112263996D01*
X106223700Y-112538184D01*
X106209783Y-112820512D01*
X103985190Y-112820512D01*
X103985000Y-112785750D01*
X103826250Y-112627000D01*
X102627000Y-112627000D01*
X102373000Y-112627000D01*
X101173750Y-112627000D01*
X101015000Y-112785750D01*
X101011928Y-113350000D01*
X97527415Y-113350000D01*
X95785984Y-111595000D01*
X101017345Y-111595000D01*
X101011928Y-111650000D01*
X101015000Y-112214250D01*
X101173750Y-112373000D01*
X102373000Y-112373000D01*
X102373000Y-112353000D01*
X102627000Y-112353000D01*
X102627000Y-112373000D01*
X103826250Y-112373000D01*
X103985000Y-112214250D01*
X103988072Y-111650000D01*
X103982655Y-111595000D01*
X106884523Y-111595000D01*
X106836903Y-111757298D01*
X107650000Y-112570395D01*
X108463097Y-111757298D01*
X108415477Y-111595000D01*
X111015001Y-111595000D01*
X111015001Y-112830322D01*
X111038658Y-113070516D01*
X111132149Y-113378715D01*
X111283970Y-113662752D01*
X111488287Y-113911714D01*
X111737249Y-114116031D01*
X112021286Y-114267852D01*
X112329485Y-114361343D01*
X112650000Y-114392911D01*
X112970516Y-114361343D01*
X113278715Y-114267852D01*
X113562752Y-114116031D01*
X113811714Y-113911714D01*
X114016031Y-113662752D01*
X114167852Y-113378715D01*
X114261343Y-113070516D01*
X114285000Y-112830322D01*
X114285000Y-111595000D01*
X115805608Y-111595000D01*
X115859484Y-111611343D01*
X116180000Y-111642912D01*
X116500516Y-111611343D01*
X116808715Y-111517852D01*
X117092752Y-111366030D01*
X117138083Y-111328828D01*
X117381101Y-111198932D01*
X117599608Y-111019608D01*
X117778932Y-110801101D01*
X117912182Y-110551808D01*
X117935000Y-110476588D01*
X117934999Y-116436656D01*
G36*
X94385764Y-104378691D02*
G01*
X94358057Y-104660000D01*
X94385764Y-104941309D01*
X94467818Y-105211808D01*
X94601068Y-105461101D01*
X94780392Y-105679608D01*
X94893482Y-105772419D01*
X94875518Y-105774188D01*
X94755820Y-105810498D01*
X94645506Y-105869463D01*
X94548815Y-105948815D01*
X94469463Y-106045506D01*
X94410498Y-106155820D01*
X94374188Y-106275518D01*
X94361928Y-106400000D01*
X94365000Y-106914250D01*
X94523750Y-107073000D01*
X96073000Y-107073000D01*
X96073000Y-107053000D01*
X96327000Y-107053000D01*
X96327000Y-107073000D01*
X97876250Y-107073000D01*
X98035000Y-106914250D01*
X98038072Y-106400000D01*
X98025812Y-106275518D01*
X97989502Y-106155820D01*
X97930537Y-106045506D01*
X97851185Y-105948815D01*
X97754494Y-105869463D01*
X97644180Y-105810498D01*
X97524482Y-105774188D01*
X97506518Y-105772419D01*
X97619608Y-105679608D01*
X97798932Y-105461101D01*
X97932182Y-105211808D01*
X98014236Y-104941309D01*
X98041943Y-104660000D01*
X98014236Y-104378691D01*
X97963065Y-104210000D01*
X98064488Y-104210000D01*
X98852924Y-104998437D01*
X98856397Y-105002556D01*
X98866359Y-105012257D01*
X98875690Y-105022583D01*
X98890871Y-105036384D01*
X98905379Y-105050892D01*
X98909552Y-105054316D01*
X101043195Y-107131996D01*
X101015000Y-107273740D01*
X101015000Y-107566260D01*
X101072068Y-107853158D01*
X101184010Y-108123411D01*
X101318707Y-108325000D01*
X97946302Y-108325000D01*
X97989502Y-108244180D01*
X98025812Y-108124482D01*
X98038072Y-108000000D01*
X98035000Y-107485750D01*
X97876250Y-107327000D01*
X96327000Y-107327000D01*
X96327000Y-107347000D01*
X96073000Y-107347000D01*
X96073000Y-107327000D01*
X94523750Y-107327000D01*
X94365000Y-107485750D01*
X94361928Y-108000000D01*
X94374188Y-108124482D01*
X94410498Y-108244180D01*
X94453698Y-108325000D01*
X92526251Y-108325000D01*
X90247412Y-106093969D01*
X90201714Y-106038286D01*
X90132599Y-105981565D01*
X90126404Y-105975500D01*
X90070604Y-105930687D01*
X89952752Y-105833969D01*
X89945038Y-105829846D01*
X89938221Y-105824371D01*
X89867871Y-105787722D01*
X89999608Y-105679608D01*
X90178932Y-105461101D01*
X90312182Y-105211808D01*
X90394236Y-104941309D01*
X90421943Y-104660000D01*
X90394236Y-104378691D01*
X90343065Y-104210000D01*
X94436935Y-104210000D01*
X94385764Y-104378691D01*
G37*
X94385764Y-104378691D02*
X94358057Y-104660000D01*
X94385764Y-104941309D01*
X94467818Y-105211808D01*
X94601068Y-105461101D01*
X94780392Y-105679608D01*
X94893482Y-105772419D01*
X94875518Y-105774188D01*
X94755820Y-105810498D01*
X94645506Y-105869463D01*
X94548815Y-105948815D01*
X94469463Y-106045506D01*
X94410498Y-106155820D01*
X94374188Y-106275518D01*
X94361928Y-106400000D01*
X94365000Y-106914250D01*
X94523750Y-107073000D01*
X96073000Y-107073000D01*
X96073000Y-107053000D01*
X96327000Y-107053000D01*
X96327000Y-107073000D01*
X97876250Y-107073000D01*
X98035000Y-106914250D01*
X98038072Y-106400000D01*
X98025812Y-106275518D01*
X97989502Y-106155820D01*
X97930537Y-106045506D01*
X97851185Y-105948815D01*
X97754494Y-105869463D01*
X97644180Y-105810498D01*
X97524482Y-105774188D01*
X97506518Y-105772419D01*
X97619608Y-105679608D01*
X97798932Y-105461101D01*
X97932182Y-105211808D01*
X98014236Y-104941309D01*
X98041943Y-104660000D01*
X98014236Y-104378691D01*
X97963065Y-104210000D01*
X98064488Y-104210000D01*
X98852924Y-104998437D01*
X98856397Y-105002556D01*
X98866359Y-105012257D01*
X98875690Y-105022583D01*
X98890871Y-105036384D01*
X98905379Y-105050892D01*
X98909552Y-105054316D01*
X101043195Y-107131996D01*
X101015000Y-107273740D01*
X101015000Y-107566260D01*
X101072068Y-107853158D01*
X101184010Y-108123411D01*
X101318707Y-108325000D01*
X97946302Y-108325000D01*
X97989502Y-108244180D01*
X98025812Y-108124482D01*
X98038072Y-108000000D01*
X98035000Y-107485750D01*
X97876250Y-107327000D01*
X96327000Y-107327000D01*
X96327000Y-107347000D01*
X96073000Y-107347000D01*
X96073000Y-107327000D01*
X94523750Y-107327000D01*
X94365000Y-107485750D01*
X94361928Y-108000000D01*
X94374188Y-108124482D01*
X94410498Y-108244180D01*
X94453698Y-108325000D01*
X92526251Y-108325000D01*
X90247412Y-106093969D01*
X90201714Y-106038286D01*
X90132599Y-105981565D01*
X90126404Y-105975500D01*
X90070604Y-105930687D01*
X89952752Y-105833969D01*
X89945038Y-105829846D01*
X89938221Y-105824371D01*
X89867871Y-105787722D01*
X89999608Y-105679608D01*
X90178932Y-105461101D01*
X90312182Y-105211808D01*
X90394236Y-104941309D01*
X90421943Y-104660000D01*
X90394236Y-104378691D01*
X90343065Y-104210000D01*
X94436935Y-104210000D01*
X94385764Y-104378691D01*
G36*
X110779105Y-104144618D02*
G01*
X110804472Y-104175528D01*
X110868841Y-104228354D01*
X110927810Y-104276749D01*
X110974742Y-104301834D01*
X111068527Y-104351963D01*
X111221212Y-104398280D01*
X111340209Y-104410000D01*
X111340211Y-104410000D01*
X111379999Y-104413919D01*
X111419787Y-104410000D01*
X114438928Y-104410000D01*
X114405633Y-104488182D01*
X114388096Y-104570961D01*
X114510085Y-104793000D01*
X116053000Y-104793000D01*
X116053000Y-104773000D01*
X116307000Y-104773000D01*
X116307000Y-104793000D01*
X116327000Y-104793000D01*
X116327000Y-105047000D01*
X116307000Y-105047000D01*
X116307000Y-107333000D01*
X116327000Y-107333000D01*
X116327000Y-107587000D01*
X116307000Y-107587000D01*
X116307000Y-107607000D01*
X116053000Y-107607000D01*
X116053000Y-107587000D01*
X114510085Y-107587000D01*
X114388096Y-107809039D01*
X114405633Y-107891818D01*
X114516285Y-108151646D01*
X114634616Y-108325000D01*
X112940322Y-108325000D01*
X112860000Y-108317089D01*
X112779678Y-108325000D01*
X103681293Y-108325000D01*
X103815990Y-108123411D01*
X103927932Y-107853158D01*
X103985000Y-107566260D01*
X103985000Y-107273740D01*
X103927932Y-106986842D01*
X103815990Y-106716589D01*
X103653475Y-106473368D01*
X103446632Y-106266525D01*
X103272240Y-106150000D01*
X103446632Y-106033475D01*
X103653475Y-105826632D01*
X103815990Y-105583411D01*
X103927932Y-105313158D01*
X103936707Y-105269039D01*
X114388096Y-105269039D01*
X114405633Y-105351818D01*
X114516285Y-105611646D01*
X114675500Y-105844895D01*
X114877161Y-106042601D01*
X115102559Y-106190000D01*
X114877161Y-106337399D01*
X114675500Y-106535105D01*
X114516285Y-106768354D01*
X114405633Y-107028182D01*
X114388096Y-107110961D01*
X114510085Y-107333000D01*
X116053000Y-107333000D01*
X116053000Y-105047000D01*
X114510085Y-105047000D01*
X114388096Y-105269039D01*
X103936707Y-105269039D01*
X103985000Y-105026260D01*
X103985000Y-104733740D01*
X103927932Y-104446842D01*
X103815990Y-104176589D01*
X103653475Y-103933368D01*
X103446632Y-103726525D01*
X103272240Y-103610000D01*
X103446632Y-103493475D01*
X103653475Y-103286632D01*
X103815990Y-103043411D01*
X103927932Y-102773158D01*
X103985000Y-102486260D01*
X103985000Y-102193740D01*
X103927932Y-101906842D01*
X103815990Y-101636589D01*
X103653475Y-101393368D01*
X103446632Y-101186525D01*
X103272240Y-101070000D01*
X103446632Y-100953475D01*
X103653475Y-100746632D01*
X103815990Y-100503411D01*
X103927932Y-100233158D01*
X103985000Y-99946260D01*
X103985000Y-99653740D01*
X103927932Y-99366842D01*
X103815990Y-99096589D01*
X103653475Y-98853368D01*
X103446632Y-98646525D01*
X103272240Y-98530000D01*
X103446632Y-98413475D01*
X103653475Y-98206632D01*
X103815990Y-97963411D01*
X103927932Y-97693158D01*
X103985000Y-97406260D01*
X103985000Y-97350512D01*
X110779105Y-104144618D01*
G37*
X110779105Y-104144618D02*
X110804472Y-104175528D01*
X110868841Y-104228354D01*
X110927810Y-104276749D01*
X110974742Y-104301834D01*
X111068527Y-104351963D01*
X111221212Y-104398280D01*
X111340209Y-104410000D01*
X111340211Y-104410000D01*
X111379999Y-104413919D01*
X111419787Y-104410000D01*
X114438928Y-104410000D01*
X114405633Y-104488182D01*
X114388096Y-104570961D01*
X114510085Y-104793000D01*
X116053000Y-104793000D01*
X116053000Y-104773000D01*
X116307000Y-104773000D01*
X116307000Y-104793000D01*
X116327000Y-104793000D01*
X116327000Y-105047000D01*
X116307000Y-105047000D01*
X116307000Y-107333000D01*
X116327000Y-107333000D01*
X116327000Y-107587000D01*
X116307000Y-107587000D01*
X116307000Y-107607000D01*
X116053000Y-107607000D01*
X116053000Y-107587000D01*
X114510085Y-107587000D01*
X114388096Y-107809039D01*
X114405633Y-107891818D01*
X114516285Y-108151646D01*
X114634616Y-108325000D01*
X112940322Y-108325000D01*
X112860000Y-108317089D01*
X112779678Y-108325000D01*
X103681293Y-108325000D01*
X103815990Y-108123411D01*
X103927932Y-107853158D01*
X103985000Y-107566260D01*
X103985000Y-107273740D01*
X103927932Y-106986842D01*
X103815990Y-106716589D01*
X103653475Y-106473368D01*
X103446632Y-106266525D01*
X103272240Y-106150000D01*
X103446632Y-106033475D01*
X103653475Y-105826632D01*
X103815990Y-105583411D01*
X103927932Y-105313158D01*
X103936707Y-105269039D01*
X114388096Y-105269039D01*
X114405633Y-105351818D01*
X114516285Y-105611646D01*
X114675500Y-105844895D01*
X114877161Y-106042601D01*
X115102559Y-106190000D01*
X114877161Y-106337399D01*
X114675500Y-106535105D01*
X114516285Y-106768354D01*
X114405633Y-107028182D01*
X114388096Y-107110961D01*
X114510085Y-107333000D01*
X116053000Y-107333000D01*
X116053000Y-105047000D01*
X114510085Y-105047000D01*
X114388096Y-105269039D01*
X103936707Y-105269039D01*
X103985000Y-105026260D01*
X103985000Y-104733740D01*
X103927932Y-104446842D01*
X103815990Y-104176589D01*
X103653475Y-103933368D01*
X103446632Y-103726525D01*
X103272240Y-103610000D01*
X103446632Y-103493475D01*
X103653475Y-103286632D01*
X103815990Y-103043411D01*
X103927932Y-102773158D01*
X103985000Y-102486260D01*
X103985000Y-102193740D01*
X103927932Y-101906842D01*
X103815990Y-101636589D01*
X103653475Y-101393368D01*
X103446632Y-101186525D01*
X103272240Y-101070000D01*
X103446632Y-100953475D01*
X103653475Y-100746632D01*
X103815990Y-100503411D01*
X103927932Y-100233158D01*
X103985000Y-99946260D01*
X103985000Y-99653740D01*
X103927932Y-99366842D01*
X103815990Y-99096589D01*
X103653475Y-98853368D01*
X103446632Y-98646525D01*
X103272240Y-98530000D01*
X103446632Y-98413475D01*
X103653475Y-98206632D01*
X103815990Y-97963411D01*
X103927932Y-97693158D01*
X103985000Y-97406260D01*
X103985000Y-97350512D01*
X110779105Y-104144618D01*
M02*
