G04 #@! TF.GenerationSoftware,KiCad,Pcbnew,5.1.5+dfsg1-2build2*
G04 #@! TF.CreationDate,2022-09-07T21:32:21-04:00*
G04 #@! TF.ProjectId,coco2_3134_64k_static_ram_board,636f636f-325f-4333-9133-345f36346b5f,1.0.0*
G04 #@! TF.SameCoordinates,Original*
G04 #@! TF.FileFunction,Legend,Top*
G04 #@! TF.FilePolarity,Positive*
%FSLAX46Y46*%
G04 Gerber Fmt 4.6, Leading zero omitted, Abs format (unit mm)*
G04 Created by KiCad (PCBNEW 5.1.5+dfsg1-2build2) date 2022-09-07 21:32:21*
%MOMM*%
%LPD*%
G04 APERTURE LIST*
%ADD10C,0.150000*%
%ADD11C,0.120000*%
G04 APERTURE END LIST*
D10*
X85876190Y-133352380D02*
X85542857Y-132876190D01*
X85304761Y-133352380D02*
X85304761Y-132352380D01*
X85685714Y-132352380D01*
X85780952Y-132400000D01*
X85828571Y-132447619D01*
X85876190Y-132542857D01*
X85876190Y-132685714D01*
X85828571Y-132780952D01*
X85780952Y-132828571D01*
X85685714Y-132876190D01*
X85304761Y-132876190D01*
X86685714Y-133304761D02*
X86590476Y-133352380D01*
X86400000Y-133352380D01*
X86304761Y-133304761D01*
X86257142Y-133209523D01*
X86257142Y-132828571D01*
X86304761Y-132733333D01*
X86400000Y-132685714D01*
X86590476Y-132685714D01*
X86685714Y-132733333D01*
X86733333Y-132828571D01*
X86733333Y-132923809D01*
X86257142Y-133019047D01*
X87066666Y-132685714D02*
X87304761Y-133352380D01*
X87542857Y-132685714D01*
X87923809Y-133257142D02*
X87971428Y-133304761D01*
X87923809Y-133352380D01*
X87876190Y-133304761D01*
X87923809Y-133257142D01*
X87923809Y-133352380D01*
X89685714Y-133352380D02*
X89114285Y-133352380D01*
X89400000Y-133352380D02*
X89400000Y-132352380D01*
X89304761Y-132495238D01*
X89209523Y-132590476D01*
X89114285Y-132638095D01*
X90114285Y-133257142D02*
X90161904Y-133304761D01*
X90114285Y-133352380D01*
X90066666Y-133304761D01*
X90114285Y-133257142D01*
X90114285Y-133352380D01*
X90780952Y-132352380D02*
X90876190Y-132352380D01*
X90971428Y-132400000D01*
X91019047Y-132447619D01*
X91066666Y-132542857D01*
X91114285Y-132733333D01*
X91114285Y-132971428D01*
X91066666Y-133161904D01*
X91019047Y-133257142D01*
X90971428Y-133304761D01*
X90876190Y-133352380D01*
X90780952Y-133352380D01*
X90685714Y-133304761D01*
X90638095Y-133257142D01*
X90590476Y-133161904D01*
X90542857Y-132971428D01*
X90542857Y-132733333D01*
X90590476Y-132542857D01*
X90638095Y-132447619D01*
X90685714Y-132400000D01*
X90780952Y-132352380D01*
X91542857Y-133257142D02*
X91590476Y-133304761D01*
X91542857Y-133352380D01*
X91495238Y-133304761D01*
X91542857Y-133257142D01*
X91542857Y-133352380D01*
X92542857Y-133352380D02*
X91971428Y-133352380D01*
X92257142Y-133352380D02*
X92257142Y-132352380D01*
X92161904Y-132495238D01*
X92066666Y-132590476D01*
X91971428Y-132638095D01*
X85676190Y-130552380D02*
X85342857Y-130076190D01*
X85104761Y-130552380D02*
X85104761Y-129552380D01*
X85485714Y-129552380D01*
X85580952Y-129600000D01*
X85628571Y-129647619D01*
X85676190Y-129742857D01*
X85676190Y-129885714D01*
X85628571Y-129980952D01*
X85580952Y-130028571D01*
X85485714Y-130076190D01*
X85104761Y-130076190D01*
X86247619Y-130552380D02*
X86152380Y-130504761D01*
X86104761Y-130457142D01*
X86057142Y-130361904D01*
X86057142Y-130076190D01*
X86104761Y-129980952D01*
X86152380Y-129933333D01*
X86247619Y-129885714D01*
X86390476Y-129885714D01*
X86485714Y-129933333D01*
X86533333Y-129980952D01*
X86580952Y-130076190D01*
X86580952Y-130361904D01*
X86533333Y-130457142D01*
X86485714Y-130504761D01*
X86390476Y-130552380D01*
X86247619Y-130552380D01*
X87438095Y-130504761D02*
X87342857Y-130552380D01*
X87152380Y-130552380D01*
X87057142Y-130504761D01*
X87009523Y-130457142D01*
X86961904Y-130361904D01*
X86961904Y-130076190D01*
X87009523Y-129980952D01*
X87057142Y-129933333D01*
X87152380Y-129885714D01*
X87342857Y-129885714D01*
X87438095Y-129933333D01*
X87866666Y-130552380D02*
X87866666Y-129552380D01*
X87961904Y-130171428D02*
X88247619Y-130552380D01*
X88247619Y-129885714D02*
X87866666Y-130266666D01*
X88580952Y-129885714D02*
X88819047Y-130552380D01*
X89057142Y-129885714D02*
X88819047Y-130552380D01*
X88723809Y-130790476D01*
X88676190Y-130838095D01*
X88580952Y-130885714D01*
X90200000Y-130552380D02*
X90200000Y-129552380D01*
X90200000Y-130028571D02*
X90771428Y-130028571D01*
X90771428Y-130552380D02*
X90771428Y-129552380D01*
X91247619Y-130552380D02*
X91247619Y-129885714D01*
X91247619Y-129552380D02*
X91200000Y-129600000D01*
X91247619Y-129647619D01*
X91295238Y-129600000D01*
X91247619Y-129552380D01*
X91247619Y-129647619D01*
X91866666Y-130552380D02*
X91771428Y-130504761D01*
X91723809Y-130409523D01*
X91723809Y-129552380D01*
X92390476Y-130552380D02*
X92295238Y-130504761D01*
X92247619Y-130409523D01*
X92247619Y-129552380D01*
X93252380Y-79152380D02*
X93252380Y-78152380D01*
X93490476Y-78152380D01*
X93633333Y-78200000D01*
X93728571Y-78295238D01*
X93776190Y-78390476D01*
X93823809Y-78580952D01*
X93823809Y-78723809D01*
X93776190Y-78914285D01*
X93728571Y-79009523D01*
X93633333Y-79104761D01*
X93490476Y-79152380D01*
X93252380Y-79152380D01*
X94204761Y-78247619D02*
X94252380Y-78200000D01*
X94347619Y-78152380D01*
X94585714Y-78152380D01*
X94680952Y-78200000D01*
X94728571Y-78247619D01*
X94776190Y-78342857D01*
X94776190Y-78438095D01*
X94728571Y-78580952D01*
X94157142Y-79152380D01*
X94776190Y-79152380D01*
X95157142Y-79104761D02*
X95300000Y-79152380D01*
X95538095Y-79152380D01*
X95633333Y-79104761D01*
X95680952Y-79057142D01*
X95728571Y-78961904D01*
X95728571Y-78866666D01*
X95680952Y-78771428D01*
X95633333Y-78723809D01*
X95538095Y-78676190D01*
X95347619Y-78628571D01*
X95252380Y-78580952D01*
X95204761Y-78533333D01*
X95157142Y-78438095D01*
X95157142Y-78342857D01*
X95204761Y-78247619D01*
X95252380Y-78200000D01*
X95347619Y-78152380D01*
X95585714Y-78152380D01*
X95728571Y-78200000D01*
X97347619Y-78152380D02*
X97157142Y-78152380D01*
X97061904Y-78200000D01*
X97014285Y-78247619D01*
X96919047Y-78390476D01*
X96871428Y-78580952D01*
X96871428Y-78961904D01*
X96919047Y-79057142D01*
X96966666Y-79104761D01*
X97061904Y-79152380D01*
X97252380Y-79152380D01*
X97347619Y-79104761D01*
X97395238Y-79057142D01*
X97442857Y-78961904D01*
X97442857Y-78723809D01*
X97395238Y-78628571D01*
X97347619Y-78580952D01*
X97252380Y-78533333D01*
X97061904Y-78533333D01*
X96966666Y-78580952D01*
X96919047Y-78628571D01*
X96871428Y-78723809D01*
X98300000Y-78485714D02*
X98300000Y-79152380D01*
X98061904Y-78104761D02*
X97823809Y-78819047D01*
X98442857Y-78819047D01*
X98823809Y-79152380D02*
X98823809Y-78152380D01*
X99395238Y-79152380D02*
X98966666Y-78580952D01*
X99395238Y-78152380D02*
X98823809Y-78723809D01*
X123500000Y-89957142D02*
X123452380Y-90004761D01*
X123309523Y-90052380D01*
X123214285Y-90052380D01*
X123071428Y-90004761D01*
X122976190Y-89909523D01*
X122928571Y-89814285D01*
X122880952Y-89623809D01*
X122880952Y-89480952D01*
X122928571Y-89290476D01*
X122976190Y-89195238D01*
X123071428Y-89100000D01*
X123214285Y-89052380D01*
X123309523Y-89052380D01*
X123452380Y-89100000D01*
X123500000Y-89147619D01*
X123880952Y-89766666D02*
X124357142Y-89766666D01*
X123785714Y-90052380D02*
X124119047Y-89052380D01*
X124452380Y-90052380D01*
X125357142Y-90052380D02*
X125023809Y-89576190D01*
X124785714Y-90052380D02*
X124785714Y-89052380D01*
X125166666Y-89052380D01*
X125261904Y-89100000D01*
X125309523Y-89147619D01*
X125357142Y-89242857D01*
X125357142Y-89385714D01*
X125309523Y-89480952D01*
X125261904Y-89528571D01*
X125166666Y-89576190D01*
X124785714Y-89576190D01*
X125642857Y-89052380D02*
X126214285Y-89052380D01*
X125928571Y-90052380D02*
X125928571Y-89052380D01*
D11*
X127500000Y-90600000D02*
X126500000Y-91600000D01*
X126500000Y-89600000D02*
X127500000Y-90600000D01*
X122500000Y-90600000D02*
X127500000Y-90600000D01*
X127500000Y-90600000D02*
X122500000Y-90600000D01*
D10*
X119328571Y-89257142D02*
X119376190Y-89114285D01*
X119423809Y-89066666D01*
X119519047Y-89019047D01*
X119661904Y-89019047D01*
X119757142Y-89066666D01*
X119804761Y-89114285D01*
X119852380Y-89209523D01*
X119852380Y-89590476D01*
X118852380Y-89590476D01*
X118852380Y-89257142D01*
X118900000Y-89161904D01*
X118947619Y-89114285D01*
X119042857Y-89066666D01*
X119138095Y-89066666D01*
X119233333Y-89114285D01*
X119280952Y-89161904D01*
X119328571Y-89257142D01*
X119328571Y-89590476D01*
X119566666Y-88638095D02*
X119566666Y-88161904D01*
X119852380Y-88733333D02*
X118852380Y-88400000D01*
X119852380Y-88066666D01*
X119757142Y-87161904D02*
X119804761Y-87209523D01*
X119852380Y-87352380D01*
X119852380Y-87447619D01*
X119804761Y-87590476D01*
X119709523Y-87685714D01*
X119614285Y-87733333D01*
X119423809Y-87780952D01*
X119280952Y-87780952D01*
X119090476Y-87733333D01*
X118995238Y-87685714D01*
X118900000Y-87590476D01*
X118852380Y-87447619D01*
X118852380Y-87352380D01*
X118900000Y-87209523D01*
X118947619Y-87161904D01*
X119852380Y-86733333D02*
X118852380Y-86733333D01*
X119852380Y-86161904D02*
X119280952Y-86590476D01*
X118852380Y-86161904D02*
X119423809Y-86733333D01*
D11*
X120400000Y-84900000D02*
X121400000Y-85900000D01*
X119400000Y-85900000D02*
X120400000Y-84900000D01*
X120400000Y-84900000D02*
X119400000Y-85900000D01*
X120400000Y-84900000D02*
X120400000Y-89900000D01*
D10*
X102076190Y-76702380D02*
X101885714Y-76702380D01*
X101790476Y-76750000D01*
X101742857Y-76797619D01*
X101647619Y-76940476D01*
X101600000Y-77130952D01*
X101600000Y-77511904D01*
X101647619Y-77607142D01*
X101695238Y-77654761D01*
X101790476Y-77702380D01*
X101980952Y-77702380D01*
X102076190Y-77654761D01*
X102123809Y-77607142D01*
X102171428Y-77511904D01*
X102171428Y-77273809D01*
X102123809Y-77178571D01*
X102076190Y-77130952D01*
X101980952Y-77083333D01*
X101790476Y-77083333D01*
X101695238Y-77130952D01*
X101647619Y-77178571D01*
X101600000Y-77273809D01*
X103028571Y-77035714D02*
X103028571Y-77702380D01*
X102790476Y-76654761D02*
X102552380Y-77369047D01*
X103171428Y-77369047D01*
X103552380Y-77702380D02*
X103552380Y-76702380D01*
X104123809Y-77702380D02*
X103695238Y-77130952D01*
X104123809Y-76702380D02*
X103552380Y-77273809D01*
X105266666Y-77654761D02*
X105409523Y-77702380D01*
X105647619Y-77702380D01*
X105742857Y-77654761D01*
X105790476Y-77607142D01*
X105838095Y-77511904D01*
X105838095Y-77416666D01*
X105790476Y-77321428D01*
X105742857Y-77273809D01*
X105647619Y-77226190D01*
X105457142Y-77178571D01*
X105361904Y-77130952D01*
X105314285Y-77083333D01*
X105266666Y-76988095D01*
X105266666Y-76892857D01*
X105314285Y-76797619D01*
X105361904Y-76750000D01*
X105457142Y-76702380D01*
X105695238Y-76702380D01*
X105838095Y-76750000D01*
X106123809Y-77035714D02*
X106504761Y-77035714D01*
X106266666Y-76702380D02*
X106266666Y-77559523D01*
X106314285Y-77654761D01*
X106409523Y-77702380D01*
X106504761Y-77702380D01*
X107266666Y-77702380D02*
X107266666Y-77178571D01*
X107219047Y-77083333D01*
X107123809Y-77035714D01*
X106933333Y-77035714D01*
X106838095Y-77083333D01*
X107266666Y-77654761D02*
X107171428Y-77702380D01*
X106933333Y-77702380D01*
X106838095Y-77654761D01*
X106790476Y-77559523D01*
X106790476Y-77464285D01*
X106838095Y-77369047D01*
X106933333Y-77321428D01*
X107171428Y-77321428D01*
X107266666Y-77273809D01*
X107600000Y-77035714D02*
X107980952Y-77035714D01*
X107742857Y-76702380D02*
X107742857Y-77559523D01*
X107790476Y-77654761D01*
X107885714Y-77702380D01*
X107980952Y-77702380D01*
X108314285Y-77702380D02*
X108314285Y-77035714D01*
X108314285Y-76702380D02*
X108266666Y-76750000D01*
X108314285Y-76797619D01*
X108361904Y-76750000D01*
X108314285Y-76702380D01*
X108314285Y-76797619D01*
X109219047Y-77654761D02*
X109123809Y-77702380D01*
X108933333Y-77702380D01*
X108838095Y-77654761D01*
X108790476Y-77607142D01*
X108742857Y-77511904D01*
X108742857Y-77226190D01*
X108790476Y-77130952D01*
X108838095Y-77083333D01*
X108933333Y-77035714D01*
X109123809Y-77035714D01*
X109219047Y-77083333D01*
X110980952Y-77702380D02*
X110647619Y-77226190D01*
X110409523Y-77702380D02*
X110409523Y-76702380D01*
X110790476Y-76702380D01*
X110885714Y-76750000D01*
X110933333Y-76797619D01*
X110980952Y-76892857D01*
X110980952Y-77035714D01*
X110933333Y-77130952D01*
X110885714Y-77178571D01*
X110790476Y-77226190D01*
X110409523Y-77226190D01*
X111361904Y-77416666D02*
X111838095Y-77416666D01*
X111266666Y-77702380D02*
X111600000Y-76702380D01*
X111933333Y-77702380D01*
X112266666Y-77702380D02*
X112266666Y-76702380D01*
X112600000Y-77416666D01*
X112933333Y-76702380D01*
X112933333Y-77702380D01*
X114171428Y-77702380D02*
X114171428Y-76702380D01*
X114171428Y-77083333D02*
X114266666Y-77035714D01*
X114457142Y-77035714D01*
X114552380Y-77083333D01*
X114600000Y-77130952D01*
X114647619Y-77226190D01*
X114647619Y-77511904D01*
X114600000Y-77607142D01*
X114552380Y-77654761D01*
X114457142Y-77702380D01*
X114266666Y-77702380D01*
X114171428Y-77654761D01*
X115219047Y-77702380D02*
X115123809Y-77654761D01*
X115076190Y-77607142D01*
X115028571Y-77511904D01*
X115028571Y-77226190D01*
X115076190Y-77130952D01*
X115123809Y-77083333D01*
X115219047Y-77035714D01*
X115361904Y-77035714D01*
X115457142Y-77083333D01*
X115504761Y-77130952D01*
X115552380Y-77226190D01*
X115552380Y-77511904D01*
X115504761Y-77607142D01*
X115457142Y-77654761D01*
X115361904Y-77702380D01*
X115219047Y-77702380D01*
X116409523Y-77702380D02*
X116409523Y-77178571D01*
X116361904Y-77083333D01*
X116266666Y-77035714D01*
X116076190Y-77035714D01*
X115980952Y-77083333D01*
X116409523Y-77654761D02*
X116314285Y-77702380D01*
X116076190Y-77702380D01*
X115980952Y-77654761D01*
X115933333Y-77559523D01*
X115933333Y-77464285D01*
X115980952Y-77369047D01*
X116076190Y-77321428D01*
X116314285Y-77321428D01*
X116409523Y-77273809D01*
X116885714Y-77702380D02*
X116885714Y-77035714D01*
X116885714Y-77226190D02*
X116933333Y-77130952D01*
X116980952Y-77083333D01*
X117076190Y-77035714D01*
X117171428Y-77035714D01*
X117933333Y-77702380D02*
X117933333Y-76702380D01*
X117933333Y-77654761D02*
X117838095Y-77702380D01*
X117647619Y-77702380D01*
X117552380Y-77654761D01*
X117504761Y-77607142D01*
X117457142Y-77511904D01*
X117457142Y-77226190D01*
X117504761Y-77130952D01*
X117552380Y-77083333D01*
X117647619Y-77035714D01*
X117838095Y-77035714D01*
X117933333Y-77083333D01*
X119028571Y-77035714D02*
X119409523Y-77035714D01*
X119171428Y-77702380D02*
X119171428Y-76845238D01*
X119219047Y-76750000D01*
X119314285Y-76702380D01*
X119409523Y-76702380D01*
X119885714Y-77702380D02*
X119790476Y-77654761D01*
X119742857Y-77607142D01*
X119695238Y-77511904D01*
X119695238Y-77226190D01*
X119742857Y-77130952D01*
X119790476Y-77083333D01*
X119885714Y-77035714D01*
X120028571Y-77035714D01*
X120123809Y-77083333D01*
X120171428Y-77130952D01*
X120219047Y-77226190D01*
X120219047Y-77511904D01*
X120171428Y-77607142D01*
X120123809Y-77654761D01*
X120028571Y-77702380D01*
X119885714Y-77702380D01*
X120647619Y-77702380D02*
X120647619Y-77035714D01*
X120647619Y-77226190D02*
X120695238Y-77130952D01*
X120742857Y-77083333D01*
X120838095Y-77035714D01*
X120933333Y-77035714D01*
X100885714Y-78685714D02*
X101266666Y-78685714D01*
X101028571Y-78352380D02*
X101028571Y-79209523D01*
X101076190Y-79304761D01*
X101171428Y-79352380D01*
X101266666Y-79352380D01*
X101600000Y-79352380D02*
X101600000Y-78352380D01*
X102028571Y-79352380D02*
X102028571Y-78828571D01*
X101980952Y-78733333D01*
X101885714Y-78685714D01*
X101742857Y-78685714D01*
X101647619Y-78733333D01*
X101600000Y-78780952D01*
X102885714Y-79304761D02*
X102790476Y-79352380D01*
X102600000Y-79352380D01*
X102504761Y-79304761D01*
X102457142Y-79209523D01*
X102457142Y-78828571D01*
X102504761Y-78733333D01*
X102600000Y-78685714D01*
X102790476Y-78685714D01*
X102885714Y-78733333D01*
X102933333Y-78828571D01*
X102933333Y-78923809D01*
X102457142Y-79019047D01*
X104695238Y-79257142D02*
X104647619Y-79304761D01*
X104504761Y-79352380D01*
X104409523Y-79352380D01*
X104266666Y-79304761D01*
X104171428Y-79209523D01*
X104123809Y-79114285D01*
X104076190Y-78923809D01*
X104076190Y-78780952D01*
X104123809Y-78590476D01*
X104171428Y-78495238D01*
X104266666Y-78400000D01*
X104409523Y-78352380D01*
X104504761Y-78352380D01*
X104647619Y-78400000D01*
X104695238Y-78447619D01*
X105266666Y-79352380D02*
X105171428Y-79304761D01*
X105123809Y-79257142D01*
X105076190Y-79161904D01*
X105076190Y-78876190D01*
X105123809Y-78780952D01*
X105171428Y-78733333D01*
X105266666Y-78685714D01*
X105409523Y-78685714D01*
X105504761Y-78733333D01*
X105552380Y-78780952D01*
X105600000Y-78876190D01*
X105600000Y-79161904D01*
X105552380Y-79257142D01*
X105504761Y-79304761D01*
X105409523Y-79352380D01*
X105266666Y-79352380D01*
X106600000Y-79257142D02*
X106552380Y-79304761D01*
X106409523Y-79352380D01*
X106314285Y-79352380D01*
X106171428Y-79304761D01*
X106076190Y-79209523D01*
X106028571Y-79114285D01*
X105980952Y-78923809D01*
X105980952Y-78780952D01*
X106028571Y-78590476D01*
X106076190Y-78495238D01*
X106171428Y-78400000D01*
X106314285Y-78352380D01*
X106409523Y-78352380D01*
X106552380Y-78400000D01*
X106600000Y-78447619D01*
X107171428Y-79352380D02*
X107076190Y-79304761D01*
X107028571Y-79257142D01*
X106980952Y-79161904D01*
X106980952Y-78876190D01*
X107028571Y-78780952D01*
X107076190Y-78733333D01*
X107171428Y-78685714D01*
X107314285Y-78685714D01*
X107409523Y-78733333D01*
X107457142Y-78780952D01*
X107504761Y-78876190D01*
X107504761Y-79161904D01*
X107457142Y-79257142D01*
X107409523Y-79304761D01*
X107314285Y-79352380D01*
X107171428Y-79352380D01*
X108647619Y-78447619D02*
X108695238Y-78400000D01*
X108790476Y-78352380D01*
X109028571Y-78352380D01*
X109123809Y-78400000D01*
X109171428Y-78447619D01*
X109219047Y-78542857D01*
X109219047Y-78638095D01*
X109171428Y-78780952D01*
X108600000Y-79352380D01*
X109219047Y-79352380D01*
X110409523Y-79352380D02*
X110409523Y-78685714D01*
X110409523Y-78780952D02*
X110457142Y-78733333D01*
X110552380Y-78685714D01*
X110695238Y-78685714D01*
X110790476Y-78733333D01*
X110838095Y-78828571D01*
X110838095Y-79352380D01*
X110838095Y-78828571D02*
X110885714Y-78733333D01*
X110980952Y-78685714D01*
X111123809Y-78685714D01*
X111219047Y-78733333D01*
X111266666Y-78828571D01*
X111266666Y-79352380D01*
X111885714Y-79352380D02*
X111790476Y-79304761D01*
X111742857Y-79257142D01*
X111695238Y-79161904D01*
X111695238Y-78876190D01*
X111742857Y-78780952D01*
X111790476Y-78733333D01*
X111885714Y-78685714D01*
X112028571Y-78685714D01*
X112123809Y-78733333D01*
X112171428Y-78780952D01*
X112219047Y-78876190D01*
X112219047Y-79161904D01*
X112171428Y-79257142D01*
X112123809Y-79304761D01*
X112028571Y-79352380D01*
X111885714Y-79352380D01*
X113076190Y-79352380D02*
X113076190Y-78352380D01*
X113076190Y-79304761D02*
X112980952Y-79352380D01*
X112790476Y-79352380D01*
X112695238Y-79304761D01*
X112647619Y-79257142D01*
X112600000Y-79161904D01*
X112600000Y-78876190D01*
X112647619Y-78780952D01*
X112695238Y-78733333D01*
X112790476Y-78685714D01*
X112980952Y-78685714D01*
X113076190Y-78733333D01*
X113933333Y-79304761D02*
X113838095Y-79352380D01*
X113647619Y-79352380D01*
X113552380Y-79304761D01*
X113504761Y-79209523D01*
X113504761Y-78828571D01*
X113552380Y-78733333D01*
X113647619Y-78685714D01*
X113838095Y-78685714D01*
X113933333Y-78733333D01*
X113980952Y-78828571D01*
X113980952Y-78923809D01*
X113504761Y-79019047D01*
X114552380Y-79352380D02*
X114457142Y-79304761D01*
X114409523Y-79209523D01*
X114409523Y-78352380D01*
X115647619Y-78447619D02*
X115695238Y-78400000D01*
X115790476Y-78352380D01*
X116028571Y-78352380D01*
X116123809Y-78400000D01*
X116171428Y-78447619D01*
X116219047Y-78542857D01*
X116219047Y-78638095D01*
X116171428Y-78780952D01*
X115600000Y-79352380D01*
X116219047Y-79352380D01*
X117076190Y-78352380D02*
X116885714Y-78352380D01*
X116790476Y-78400000D01*
X116742857Y-78447619D01*
X116647619Y-78590476D01*
X116600000Y-78780952D01*
X116600000Y-79161904D01*
X116647619Y-79257142D01*
X116695238Y-79304761D01*
X116790476Y-79352380D01*
X116980952Y-79352380D01*
X117076190Y-79304761D01*
X117123809Y-79257142D01*
X117171428Y-79161904D01*
X117171428Y-78923809D01*
X117123809Y-78828571D01*
X117076190Y-78780952D01*
X116980952Y-78733333D01*
X116790476Y-78733333D01*
X116695238Y-78780952D01*
X116647619Y-78828571D01*
X116600000Y-78923809D01*
X117600000Y-78971428D02*
X118361904Y-78971428D01*
X118742857Y-78352380D02*
X119361904Y-78352380D01*
X119028571Y-78733333D01*
X119171428Y-78733333D01*
X119266666Y-78780952D01*
X119314285Y-78828571D01*
X119361904Y-78923809D01*
X119361904Y-79161904D01*
X119314285Y-79257142D01*
X119266666Y-79304761D01*
X119171428Y-79352380D01*
X118885714Y-79352380D01*
X118790476Y-79304761D01*
X118742857Y-79257142D01*
X120314285Y-79352380D02*
X119742857Y-79352380D01*
X120028571Y-79352380D02*
X120028571Y-78352380D01*
X119933333Y-78495238D01*
X119838095Y-78590476D01*
X119742857Y-78638095D01*
X120647619Y-78352380D02*
X121266666Y-78352380D01*
X120933333Y-78733333D01*
X121076190Y-78733333D01*
X121171428Y-78780952D01*
X121219047Y-78828571D01*
X121266666Y-78923809D01*
X121266666Y-79161904D01*
X121219047Y-79257142D01*
X121171428Y-79304761D01*
X121076190Y-79352380D01*
X120790476Y-79352380D01*
X120695238Y-79304761D01*
X120647619Y-79257142D01*
X122123809Y-78685714D02*
X122123809Y-79352380D01*
X121885714Y-78304761D02*
X121647619Y-79019047D01*
X122266666Y-79019047D01*
X107314285Y-81002380D02*
X107314285Y-80002380D01*
X107552380Y-80002380D01*
X107695238Y-80050000D01*
X107790476Y-80145238D01*
X107838095Y-80240476D01*
X107885714Y-80430952D01*
X107885714Y-80573809D01*
X107838095Y-80764285D01*
X107790476Y-80859523D01*
X107695238Y-80954761D01*
X107552380Y-81002380D01*
X107314285Y-81002380D01*
X108314285Y-81002380D02*
X108314285Y-80002380D01*
X108790476Y-81002380D02*
X108790476Y-80002380D01*
X109171428Y-80002380D01*
X109266666Y-80050000D01*
X109314285Y-80097619D01*
X109361904Y-80192857D01*
X109361904Y-80335714D01*
X109314285Y-80430952D01*
X109266666Y-80478571D01*
X109171428Y-80526190D01*
X108790476Y-80526190D01*
X110457142Y-80335714D02*
X110695238Y-81002380D01*
X110933333Y-80335714D01*
X111695238Y-80954761D02*
X111600000Y-81002380D01*
X111409523Y-81002380D01*
X111314285Y-80954761D01*
X111266666Y-80859523D01*
X111266666Y-80478571D01*
X111314285Y-80383333D01*
X111409523Y-80335714D01*
X111600000Y-80335714D01*
X111695238Y-80383333D01*
X111742857Y-80478571D01*
X111742857Y-80573809D01*
X111266666Y-80669047D01*
X112171428Y-81002380D02*
X112171428Y-80335714D01*
X112171428Y-80526190D02*
X112219047Y-80430952D01*
X112266666Y-80383333D01*
X112361904Y-80335714D01*
X112457142Y-80335714D01*
X112742857Y-80954761D02*
X112838095Y-81002380D01*
X113028571Y-81002380D01*
X113123809Y-80954761D01*
X113171428Y-80859523D01*
X113171428Y-80811904D01*
X113123809Y-80716666D01*
X113028571Y-80669047D01*
X112885714Y-80669047D01*
X112790476Y-80621428D01*
X112742857Y-80526190D01*
X112742857Y-80478571D01*
X112790476Y-80383333D01*
X112885714Y-80335714D01*
X113028571Y-80335714D01*
X113123809Y-80383333D01*
X113600000Y-81002380D02*
X113600000Y-80335714D01*
X113600000Y-80002380D02*
X113552380Y-80050000D01*
X113600000Y-80097619D01*
X113647619Y-80050000D01*
X113600000Y-80002380D01*
X113600000Y-80097619D01*
X114219047Y-81002380D02*
X114123809Y-80954761D01*
X114076190Y-80907142D01*
X114028571Y-80811904D01*
X114028571Y-80526190D01*
X114076190Y-80430952D01*
X114123809Y-80383333D01*
X114219047Y-80335714D01*
X114361904Y-80335714D01*
X114457142Y-80383333D01*
X114504761Y-80430952D01*
X114552380Y-80526190D01*
X114552380Y-80811904D01*
X114504761Y-80907142D01*
X114457142Y-80954761D01*
X114361904Y-81002380D01*
X114219047Y-81002380D01*
X114980952Y-80335714D02*
X114980952Y-81002380D01*
X114980952Y-80430952D02*
X115028571Y-80383333D01*
X115123809Y-80335714D01*
X115266666Y-80335714D01*
X115361904Y-80383333D01*
X115409523Y-80478571D01*
X115409523Y-81002380D01*
X115885714Y-80907142D02*
X115933333Y-80954761D01*
X115885714Y-81002380D01*
X115838095Y-80954761D01*
X115885714Y-80907142D01*
X115885714Y-81002380D01*
X132233332Y-110715560D02*
X132233332Y-109715560D01*
X132566666Y-110429846D01*
X132899999Y-109715560D01*
X132899999Y-110715560D01*
X133328570Y-110429846D02*
X133804761Y-110429846D01*
X133233332Y-110715560D02*
X133566666Y-109715560D01*
X133899999Y-110715560D01*
X134138094Y-109715560D02*
X134804761Y-109715560D01*
X134376189Y-110715560D01*
X132233332Y-108178742D02*
X132233332Y-107178742D01*
X132566666Y-107893028D01*
X132899999Y-107178742D01*
X132899999Y-108178742D01*
X133328570Y-107893028D02*
X133804761Y-107893028D01*
X133233332Y-108178742D02*
X133566666Y-107178742D01*
X133899999Y-108178742D01*
X134138094Y-107178742D02*
X134757142Y-107178742D01*
X134423808Y-107559695D01*
X134566666Y-107559695D01*
X134661904Y-107607314D01*
X134709523Y-107654933D01*
X134757142Y-107750171D01*
X134757142Y-107988266D01*
X134709523Y-108083504D01*
X134661904Y-108131123D01*
X134566666Y-108178742D01*
X134280951Y-108178742D01*
X134185713Y-108131123D01*
X134138094Y-108083504D01*
X132233332Y-105641924D02*
X132233332Y-104641924D01*
X132566666Y-105356210D01*
X132899999Y-104641924D01*
X132899999Y-105641924D01*
X133328570Y-105356210D02*
X133804761Y-105356210D01*
X133233332Y-105641924D02*
X133566666Y-104641924D01*
X133899999Y-105641924D01*
X134185713Y-104737163D02*
X134233332Y-104689544D01*
X134328570Y-104641924D01*
X134566666Y-104641924D01*
X134661904Y-104689544D01*
X134709523Y-104737163D01*
X134757142Y-104832401D01*
X134757142Y-104927639D01*
X134709523Y-105070496D01*
X134138094Y-105641924D01*
X134757142Y-105641924D01*
X132233332Y-103105106D02*
X132233332Y-102105106D01*
X132566666Y-102819392D01*
X132899999Y-102105106D01*
X132899999Y-103105106D01*
X133328570Y-102819392D02*
X133804761Y-102819392D01*
X133233332Y-103105106D02*
X133566666Y-102105106D01*
X133899999Y-103105106D01*
X134757142Y-103105106D02*
X134185713Y-103105106D01*
X134471428Y-103105106D02*
X134471428Y-102105106D01*
X134376189Y-102247964D01*
X134280951Y-102343202D01*
X134185713Y-102390821D01*
X132233332Y-100568288D02*
X132233332Y-99568288D01*
X132566666Y-100282574D01*
X132899999Y-99568288D01*
X132899999Y-100568288D01*
X133328570Y-100282574D02*
X133804761Y-100282574D01*
X133233332Y-100568288D02*
X133566666Y-99568288D01*
X133899999Y-100568288D01*
X134423808Y-99568288D02*
X134519047Y-99568288D01*
X134614285Y-99615908D01*
X134661904Y-99663527D01*
X134709523Y-99758765D01*
X134757142Y-99949241D01*
X134757142Y-100187336D01*
X134709523Y-100377812D01*
X134661904Y-100473050D01*
X134614285Y-100520669D01*
X134519047Y-100568288D01*
X134423808Y-100568288D01*
X134328570Y-100520669D01*
X134280951Y-100473050D01*
X134233332Y-100377812D01*
X134185713Y-100187336D01*
X134185713Y-99949241D01*
X134233332Y-99758765D01*
X134280951Y-99663527D01*
X134328570Y-99615908D01*
X134423808Y-99568288D01*
X132233333Y-98031470D02*
X132233333Y-97031470D01*
X132471428Y-97031470D01*
X132614285Y-97079090D01*
X132709523Y-97174328D01*
X132757142Y-97269566D01*
X132804761Y-97460042D01*
X132804761Y-97602899D01*
X132757142Y-97793375D01*
X132709523Y-97888613D01*
X132614285Y-97983851D01*
X132471428Y-98031470D01*
X132233333Y-98031470D01*
X133899999Y-98126709D02*
X133804761Y-98079090D01*
X133709523Y-97983851D01*
X133566666Y-97840994D01*
X133471428Y-97793375D01*
X133376190Y-97793375D01*
X133423809Y-98031470D02*
X133328571Y-97983851D01*
X133233333Y-97888613D01*
X133185714Y-97698137D01*
X133185714Y-97364804D01*
X133233333Y-97174328D01*
X133328571Y-97079090D01*
X133423809Y-97031470D01*
X133614285Y-97031470D01*
X133709523Y-97079090D01*
X133804761Y-97174328D01*
X133852380Y-97364804D01*
X133852380Y-97698137D01*
X133804761Y-97888613D01*
X133709523Y-97983851D01*
X133614285Y-98031470D01*
X133423809Y-98031470D01*
X134709523Y-97031470D02*
X134519047Y-97031470D01*
X134423809Y-97079090D01*
X134376190Y-97126709D01*
X134280952Y-97269566D01*
X134233333Y-97460042D01*
X134233333Y-97840994D01*
X134280952Y-97936232D01*
X134328571Y-97983851D01*
X134423809Y-98031470D01*
X134614285Y-98031470D01*
X134709523Y-97983851D01*
X134757142Y-97936232D01*
X134804761Y-97840994D01*
X134804761Y-97602899D01*
X134757142Y-97507661D01*
X134709523Y-97460042D01*
X134614285Y-97412423D01*
X134423809Y-97412423D01*
X134328571Y-97460042D01*
X134280952Y-97507661D01*
X134233333Y-97602899D01*
X132233333Y-95494652D02*
X132233333Y-94494652D01*
X132471428Y-94494652D01*
X132614285Y-94542272D01*
X132709523Y-94637510D01*
X132757142Y-94732748D01*
X132804761Y-94923224D01*
X132804761Y-95066081D01*
X132757142Y-95256557D01*
X132709523Y-95351795D01*
X132614285Y-95447033D01*
X132471428Y-95494652D01*
X132233333Y-95494652D01*
X133899999Y-95589891D02*
X133804761Y-95542272D01*
X133709523Y-95447033D01*
X133566666Y-95304176D01*
X133471428Y-95256557D01*
X133376190Y-95256557D01*
X133423809Y-95494652D02*
X133328571Y-95447033D01*
X133233333Y-95351795D01*
X133185714Y-95161319D01*
X133185714Y-94827986D01*
X133233333Y-94637510D01*
X133328571Y-94542272D01*
X133423809Y-94494652D01*
X133614285Y-94494652D01*
X133709523Y-94542272D01*
X133804761Y-94637510D01*
X133852380Y-94827986D01*
X133852380Y-95161319D01*
X133804761Y-95351795D01*
X133709523Y-95447033D01*
X133614285Y-95494652D01*
X133423809Y-95494652D01*
X134757142Y-94494652D02*
X134280952Y-94494652D01*
X134233333Y-94970843D01*
X134280952Y-94923224D01*
X134376190Y-94875605D01*
X134614285Y-94875605D01*
X134709523Y-94923224D01*
X134757142Y-94970843D01*
X134804761Y-95066081D01*
X134804761Y-95304176D01*
X134757142Y-95399414D01*
X134709523Y-95447033D01*
X134614285Y-95494652D01*
X134376190Y-95494652D01*
X134280952Y-95447033D01*
X134233333Y-95399414D01*
X132233333Y-92957834D02*
X132233333Y-91957834D01*
X132471428Y-91957834D01*
X132614285Y-92005454D01*
X132709523Y-92100692D01*
X132757142Y-92195930D01*
X132804761Y-92386406D01*
X132804761Y-92529263D01*
X132757142Y-92719739D01*
X132709523Y-92814977D01*
X132614285Y-92910215D01*
X132471428Y-92957834D01*
X132233333Y-92957834D01*
X133899999Y-93053073D02*
X133804761Y-93005454D01*
X133709523Y-92910215D01*
X133566666Y-92767358D01*
X133471428Y-92719739D01*
X133376190Y-92719739D01*
X133423809Y-92957834D02*
X133328571Y-92910215D01*
X133233333Y-92814977D01*
X133185714Y-92624501D01*
X133185714Y-92291168D01*
X133233333Y-92100692D01*
X133328571Y-92005454D01*
X133423809Y-91957834D01*
X133614285Y-91957834D01*
X133709523Y-92005454D01*
X133804761Y-92100692D01*
X133852380Y-92291168D01*
X133852380Y-92624501D01*
X133804761Y-92814977D01*
X133709523Y-92910215D01*
X133614285Y-92957834D01*
X133423809Y-92957834D01*
X134185714Y-91957834D02*
X134852380Y-91957834D01*
X134423809Y-92957834D01*
X132233333Y-90421016D02*
X132233333Y-89421016D01*
X132471428Y-89421016D01*
X132614285Y-89468636D01*
X132709523Y-89563874D01*
X132757142Y-89659112D01*
X132804761Y-89849588D01*
X132804761Y-89992445D01*
X132757142Y-90182921D01*
X132709523Y-90278159D01*
X132614285Y-90373397D01*
X132471428Y-90421016D01*
X132233333Y-90421016D01*
X133899999Y-90516255D02*
X133804761Y-90468636D01*
X133709523Y-90373397D01*
X133566666Y-90230540D01*
X133471428Y-90182921D01*
X133376190Y-90182921D01*
X133423809Y-90421016D02*
X133328571Y-90373397D01*
X133233333Y-90278159D01*
X133185714Y-90087683D01*
X133185714Y-89754350D01*
X133233333Y-89563874D01*
X133328571Y-89468636D01*
X133423809Y-89421016D01*
X133614285Y-89421016D01*
X133709523Y-89468636D01*
X133804761Y-89563874D01*
X133852380Y-89754350D01*
X133852380Y-90087683D01*
X133804761Y-90278159D01*
X133709523Y-90373397D01*
X133614285Y-90421016D01*
X133423809Y-90421016D01*
X134709523Y-89754350D02*
X134709523Y-90421016D01*
X134471428Y-89373397D02*
X134233333Y-90087683D01*
X134852380Y-90087683D01*
X131995238Y-86516818D02*
X132995238Y-86516818D01*
X132804761Y-87788960D02*
X132757142Y-87836579D01*
X132614285Y-87884198D01*
X132519047Y-87884198D01*
X132376190Y-87836579D01*
X132280952Y-87741341D01*
X132233333Y-87646103D01*
X132185714Y-87455627D01*
X132185714Y-87312770D01*
X132233333Y-87122294D01*
X132280952Y-87027056D01*
X132376190Y-86931818D01*
X132519047Y-86884198D01*
X132614285Y-86884198D01*
X132757142Y-86931818D01*
X132804761Y-86979437D01*
X132995238Y-86516818D02*
X133852380Y-86516818D01*
X133185714Y-87598484D02*
X133661904Y-87598484D01*
X133090476Y-87884198D02*
X133423809Y-86884198D01*
X133757142Y-87884198D01*
X133852380Y-86516818D02*
X134804761Y-86516818D01*
X134042857Y-87836579D02*
X134185714Y-87884198D01*
X134423809Y-87884198D01*
X134519047Y-87836579D01*
X134566666Y-87788960D01*
X134614285Y-87693722D01*
X134614285Y-87598484D01*
X134566666Y-87503246D01*
X134519047Y-87455627D01*
X134423809Y-87408008D01*
X134233333Y-87360389D01*
X134138095Y-87312770D01*
X134090476Y-87265151D01*
X134042857Y-87169913D01*
X134042857Y-87074675D01*
X134090476Y-86979437D01*
X134138095Y-86931818D01*
X134233333Y-86884198D01*
X134471428Y-86884198D01*
X134614285Y-86931818D01*
X132757142Y-112300000D02*
X132661904Y-112252380D01*
X132519047Y-112252380D01*
X132376189Y-112300000D01*
X132280951Y-112395238D01*
X132233332Y-112490476D01*
X132185713Y-112680952D01*
X132185713Y-112823809D01*
X132233332Y-113014285D01*
X132280951Y-113109523D01*
X132376189Y-113204761D01*
X132519047Y-113252380D01*
X132614285Y-113252380D01*
X132757142Y-113204761D01*
X132804761Y-113157142D01*
X132804761Y-112823809D01*
X132614285Y-112823809D01*
X133233332Y-113252380D02*
X133233332Y-112252380D01*
X133804761Y-113252380D01*
X133804761Y-112252380D01*
X134280951Y-113252380D02*
X134280951Y-112252380D01*
X134519047Y-112252380D01*
X134661904Y-112300000D01*
X134757142Y-112395238D01*
X134804761Y-112490476D01*
X134852380Y-112680952D01*
X134852380Y-112823809D01*
X134804761Y-113014285D01*
X134757142Y-113109523D01*
X134661904Y-113204761D01*
X134519047Y-113252380D01*
X134280951Y-113252380D01*
X132757142Y-84100000D02*
X132661904Y-84052380D01*
X132519047Y-84052380D01*
X132376189Y-84100000D01*
X132280951Y-84195238D01*
X132233332Y-84290476D01*
X132185713Y-84480952D01*
X132185713Y-84623809D01*
X132233332Y-84814285D01*
X132280951Y-84909523D01*
X132376189Y-85004761D01*
X132519047Y-85052380D01*
X132614285Y-85052380D01*
X132757142Y-85004761D01*
X132804761Y-84957142D01*
X132804761Y-84623809D01*
X132614285Y-84623809D01*
X133233332Y-85052380D02*
X133233332Y-84052380D01*
X133804761Y-85052380D01*
X133804761Y-84052380D01*
X134280951Y-85052380D02*
X134280951Y-84052380D01*
X134519047Y-84052380D01*
X134661904Y-84100000D01*
X134757142Y-84195238D01*
X134804761Y-84290476D01*
X134852380Y-84480952D01*
X134852380Y-84623809D01*
X134804761Y-84814285D01*
X134757142Y-84909523D01*
X134661904Y-85004761D01*
X134519047Y-85052380D01*
X134280951Y-85052380D01*
X104800000Y-113361904D02*
X104752380Y-113457142D01*
X104752380Y-113600000D01*
X104800000Y-113742857D01*
X104895238Y-113838095D01*
X104990476Y-113885714D01*
X105180952Y-113933333D01*
X105323809Y-113933333D01*
X105514285Y-113885714D01*
X105609523Y-113838095D01*
X105704761Y-113742857D01*
X105752380Y-113600000D01*
X105752380Y-113504761D01*
X105704761Y-113361904D01*
X105657142Y-113314285D01*
X105323809Y-113314285D01*
X105323809Y-113504761D01*
X105752380Y-112885714D02*
X104752380Y-112885714D01*
X105752380Y-112314285D01*
X104752380Y-112314285D01*
X105752380Y-111838095D02*
X104752380Y-111838095D01*
X104752380Y-111600000D01*
X104800000Y-111457142D01*
X104895238Y-111361904D01*
X104990476Y-111314285D01*
X105180952Y-111266666D01*
X105323809Y-111266666D01*
X105514285Y-111314285D01*
X105609523Y-111361904D01*
X105704761Y-111457142D01*
X105752380Y-111600000D01*
X105752380Y-111838095D01*
X104814285Y-109551470D02*
X105147619Y-110551470D01*
X105480952Y-109551470D01*
X106385714Y-110456232D02*
X106338095Y-110503851D01*
X106195238Y-110551470D01*
X106099999Y-110551470D01*
X105957142Y-110503851D01*
X105861904Y-110408613D01*
X105814285Y-110313375D01*
X105766666Y-110122899D01*
X105766666Y-109980042D01*
X105814285Y-109789566D01*
X105861904Y-109694328D01*
X105957142Y-109599090D01*
X106099999Y-109551470D01*
X106195238Y-109551470D01*
X106338095Y-109599090D01*
X106385714Y-109646709D01*
X107385714Y-110456232D02*
X107338095Y-110503851D01*
X107195238Y-110551470D01*
X107099999Y-110551470D01*
X106957142Y-110503851D01*
X106861904Y-110408613D01*
X106814285Y-110313375D01*
X106766666Y-110122899D01*
X106766666Y-109980042D01*
X106814285Y-109789566D01*
X106861904Y-109694328D01*
X106957142Y-109599090D01*
X107099999Y-109551470D01*
X107195238Y-109551470D01*
X107338095Y-109599090D01*
X107385714Y-109646709D01*
X104861904Y-108050561D02*
X104861904Y-107050561D01*
X105195238Y-107764847D01*
X105528571Y-107050561D01*
X105528571Y-108050561D01*
X105957142Y-107764847D02*
X106433333Y-107764847D01*
X105861904Y-108050561D02*
X106195238Y-107050561D01*
X106528571Y-108050561D01*
X107290476Y-107383895D02*
X107290476Y-108050561D01*
X107052380Y-107002942D02*
X106814285Y-107717228D01*
X107433333Y-107717228D01*
X104861904Y-105549652D02*
X104861904Y-104549652D01*
X105195238Y-105263938D01*
X105528571Y-104549652D01*
X105528571Y-105549652D01*
X105957142Y-105263938D02*
X106433333Y-105263938D01*
X105861904Y-105549652D02*
X106195238Y-104549652D01*
X106528571Y-105549652D01*
X107338095Y-104549652D02*
X106861904Y-104549652D01*
X106814285Y-105025843D01*
X106861904Y-104978224D01*
X106957142Y-104930605D01*
X107195238Y-104930605D01*
X107290476Y-104978224D01*
X107338095Y-105025843D01*
X107385714Y-105121081D01*
X107385714Y-105359176D01*
X107338095Y-105454414D01*
X107290476Y-105502033D01*
X107195238Y-105549652D01*
X106957142Y-105549652D01*
X106861904Y-105502033D01*
X106814285Y-105454414D01*
X104861904Y-103048743D02*
X104861904Y-102048743D01*
X105195238Y-102763029D01*
X105528571Y-102048743D01*
X105528571Y-103048743D01*
X105957142Y-102763029D02*
X106433333Y-102763029D01*
X105861904Y-103048743D02*
X106195238Y-102048743D01*
X106528571Y-103048743D01*
X107290476Y-102048743D02*
X107100000Y-102048743D01*
X107004761Y-102096363D01*
X106957142Y-102143982D01*
X106861904Y-102286839D01*
X106814285Y-102477315D01*
X106814285Y-102858267D01*
X106861904Y-102953505D01*
X106909523Y-103001124D01*
X107004761Y-103048743D01*
X107195238Y-103048743D01*
X107290476Y-103001124D01*
X107338095Y-102953505D01*
X107385714Y-102858267D01*
X107385714Y-102620172D01*
X107338095Y-102524934D01*
X107290476Y-102477315D01*
X107195238Y-102429696D01*
X107004761Y-102429696D01*
X106909523Y-102477315D01*
X106861904Y-102524934D01*
X106814285Y-102620172D01*
X104766667Y-99180454D02*
X105766667Y-99180454D01*
X105576190Y-100547834D02*
X105242857Y-100071644D01*
X105004762Y-100547834D02*
X105004762Y-99547834D01*
X105385714Y-99547834D01*
X105480952Y-99595454D01*
X105528571Y-99643073D01*
X105576190Y-99738311D01*
X105576190Y-99881168D01*
X105528571Y-99976406D01*
X105480952Y-100024025D01*
X105385714Y-100071644D01*
X105004762Y-100071644D01*
X105766667Y-99180454D02*
X106623809Y-99180454D01*
X105957143Y-100262120D02*
X106433333Y-100262120D01*
X105861905Y-100547834D02*
X106195238Y-99547834D01*
X106528571Y-100547834D01*
X106623809Y-99180454D02*
X107576190Y-99180454D01*
X106814286Y-100500215D02*
X106957143Y-100547834D01*
X107195238Y-100547834D01*
X107290476Y-100500215D01*
X107338095Y-100452596D01*
X107385714Y-100357358D01*
X107385714Y-100262120D01*
X107338095Y-100166882D01*
X107290476Y-100119263D01*
X107195238Y-100071644D01*
X107004762Y-100024025D01*
X106909524Y-99976406D01*
X106861905Y-99928787D01*
X106814286Y-99833549D01*
X106814286Y-99738311D01*
X106861905Y-99643073D01*
X106909524Y-99595454D01*
X107004762Y-99547834D01*
X107242857Y-99547834D01*
X107385714Y-99595454D01*
X105528571Y-96384545D02*
X106671428Y-96384545D01*
X105671428Y-96751925D02*
X105909523Y-97751925D01*
X106100000Y-97037640D01*
X106290476Y-97751925D01*
X106528571Y-96751925D01*
X106671428Y-96384545D02*
X107576190Y-96384545D01*
X106909523Y-97228116D02*
X107242857Y-97228116D01*
X107385714Y-97751925D02*
X106909523Y-97751925D01*
X106909523Y-96751925D01*
X107385714Y-96751925D01*
X104814286Y-94956016D02*
X104814286Y-93956016D01*
X105052381Y-93956016D01*
X105195238Y-94003636D01*
X105290476Y-94098874D01*
X105338095Y-94194112D01*
X105385714Y-94384588D01*
X105385714Y-94527445D01*
X105338095Y-94717921D01*
X105290476Y-94813159D01*
X105195238Y-94908397D01*
X105052381Y-94956016D01*
X104814286Y-94956016D01*
X106480952Y-95051255D02*
X106385714Y-95003636D01*
X106290476Y-94908397D01*
X106147619Y-94765540D01*
X106052381Y-94717921D01*
X105957143Y-94717921D01*
X106004762Y-94956016D02*
X105909524Y-94908397D01*
X105814286Y-94813159D01*
X105766667Y-94622683D01*
X105766667Y-94289350D01*
X105814286Y-94098874D01*
X105909524Y-94003636D01*
X106004762Y-93956016D01*
X106195238Y-93956016D01*
X106290476Y-94003636D01*
X106385714Y-94098874D01*
X106433333Y-94289350D01*
X106433333Y-94622683D01*
X106385714Y-94813159D01*
X106290476Y-94908397D01*
X106195238Y-94956016D01*
X106004762Y-94956016D01*
X107385714Y-94956016D02*
X106814286Y-94956016D01*
X107100000Y-94956016D02*
X107100000Y-93956016D01*
X107004762Y-94098874D01*
X106909524Y-94194112D01*
X106814286Y-94241731D01*
X104814286Y-92455107D02*
X104814286Y-91455107D01*
X105052381Y-91455107D01*
X105195238Y-91502727D01*
X105290476Y-91597965D01*
X105338095Y-91693203D01*
X105385714Y-91883679D01*
X105385714Y-92026536D01*
X105338095Y-92217012D01*
X105290476Y-92312250D01*
X105195238Y-92407488D01*
X105052381Y-92455107D01*
X104814286Y-92455107D01*
X106480952Y-92550346D02*
X106385714Y-92502727D01*
X106290476Y-92407488D01*
X106147619Y-92264631D01*
X106052381Y-92217012D01*
X105957143Y-92217012D01*
X106004762Y-92455107D02*
X105909524Y-92407488D01*
X105814286Y-92312250D01*
X105766667Y-92121774D01*
X105766667Y-91788441D01*
X105814286Y-91597965D01*
X105909524Y-91502727D01*
X106004762Y-91455107D01*
X106195238Y-91455107D01*
X106290476Y-91502727D01*
X106385714Y-91597965D01*
X106433333Y-91788441D01*
X106433333Y-92121774D01*
X106385714Y-92312250D01*
X106290476Y-92407488D01*
X106195238Y-92455107D01*
X106004762Y-92455107D01*
X107052381Y-91455107D02*
X107147619Y-91455107D01*
X107242857Y-91502727D01*
X107290476Y-91550346D01*
X107338095Y-91645584D01*
X107385714Y-91836060D01*
X107385714Y-92074155D01*
X107338095Y-92264631D01*
X107290476Y-92359869D01*
X107242857Y-92407488D01*
X107147619Y-92455107D01*
X107052381Y-92455107D01*
X106957143Y-92407488D01*
X106909524Y-92359869D01*
X106861905Y-92264631D01*
X106814286Y-92074155D01*
X106814286Y-91836060D01*
X106861905Y-91645584D01*
X106909524Y-91550346D01*
X106957143Y-91502727D01*
X107052381Y-91455107D01*
X104814286Y-89954198D02*
X104814286Y-88954198D01*
X105052381Y-88954198D01*
X105195238Y-89001818D01*
X105290476Y-89097056D01*
X105338095Y-89192294D01*
X105385714Y-89382770D01*
X105385714Y-89525627D01*
X105338095Y-89716103D01*
X105290476Y-89811341D01*
X105195238Y-89906579D01*
X105052381Y-89954198D01*
X104814286Y-89954198D01*
X106480952Y-90049437D02*
X106385714Y-90001818D01*
X106290476Y-89906579D01*
X106147619Y-89763722D01*
X106052381Y-89716103D01*
X105957143Y-89716103D01*
X106004762Y-89954198D02*
X105909524Y-89906579D01*
X105814286Y-89811341D01*
X105766667Y-89620865D01*
X105766667Y-89287532D01*
X105814286Y-89097056D01*
X105909524Y-89001818D01*
X106004762Y-88954198D01*
X106195238Y-88954198D01*
X106290476Y-89001818D01*
X106385714Y-89097056D01*
X106433333Y-89287532D01*
X106433333Y-89620865D01*
X106385714Y-89811341D01*
X106290476Y-89906579D01*
X106195238Y-89954198D01*
X106004762Y-89954198D01*
X106766667Y-88954198D02*
X107385714Y-88954198D01*
X107052381Y-89335151D01*
X107195238Y-89335151D01*
X107290476Y-89382770D01*
X107338095Y-89430389D01*
X107385714Y-89525627D01*
X107385714Y-89763722D01*
X107338095Y-89858960D01*
X107290476Y-89906579D01*
X107195238Y-89954198D01*
X106909524Y-89954198D01*
X106814286Y-89906579D01*
X106766667Y-89858960D01*
X104814286Y-87453289D02*
X104814286Y-86453289D01*
X105052381Y-86453289D01*
X105195238Y-86500909D01*
X105290476Y-86596147D01*
X105338095Y-86691385D01*
X105385714Y-86881861D01*
X105385714Y-87024718D01*
X105338095Y-87215194D01*
X105290476Y-87310432D01*
X105195238Y-87405670D01*
X105052381Y-87453289D01*
X104814286Y-87453289D01*
X106480952Y-87548528D02*
X106385714Y-87500909D01*
X106290476Y-87405670D01*
X106147619Y-87262813D01*
X106052381Y-87215194D01*
X105957143Y-87215194D01*
X106004762Y-87453289D02*
X105909524Y-87405670D01*
X105814286Y-87310432D01*
X105766667Y-87119956D01*
X105766667Y-86786623D01*
X105814286Y-86596147D01*
X105909524Y-86500909D01*
X106004762Y-86453289D01*
X106195238Y-86453289D01*
X106290476Y-86500909D01*
X106385714Y-86596147D01*
X106433333Y-86786623D01*
X106433333Y-87119956D01*
X106385714Y-87310432D01*
X106290476Y-87405670D01*
X106195238Y-87453289D01*
X106004762Y-87453289D01*
X106814286Y-86548528D02*
X106861905Y-86500909D01*
X106957143Y-86453289D01*
X107195238Y-86453289D01*
X107290476Y-86500909D01*
X107338095Y-86548528D01*
X107385714Y-86643766D01*
X107385714Y-86739004D01*
X107338095Y-86881861D01*
X106766667Y-87453289D01*
X107385714Y-87453289D01*
X105290476Y-84000000D02*
X105195238Y-83952380D01*
X105052381Y-83952380D01*
X104909523Y-84000000D01*
X104814285Y-84095238D01*
X104766666Y-84190476D01*
X104719047Y-84380952D01*
X104719047Y-84523809D01*
X104766666Y-84714285D01*
X104814285Y-84809523D01*
X104909523Y-84904761D01*
X105052381Y-84952380D01*
X105147619Y-84952380D01*
X105290476Y-84904761D01*
X105338095Y-84857142D01*
X105338095Y-84523809D01*
X105147619Y-84523809D01*
X105766666Y-84952380D02*
X105766666Y-83952380D01*
X106338095Y-84952380D01*
X106338095Y-83952380D01*
X106814285Y-84952380D02*
X106814285Y-83952380D01*
X107052381Y-83952380D01*
X107195238Y-84000000D01*
X107290476Y-84095238D01*
X107338095Y-84190476D01*
X107385714Y-84380952D01*
X107385714Y-84523809D01*
X107338095Y-84714285D01*
X107290476Y-84809523D01*
X107195238Y-84904761D01*
X107052381Y-84952380D01*
X106814285Y-84952380D01*
D11*
X89820000Y-111630000D02*
X89820000Y-116570000D01*
X87080000Y-111630000D02*
X87080000Y-116570000D01*
X89820000Y-111630000D02*
X89505000Y-111630000D01*
X87395000Y-111630000D02*
X87080000Y-111630000D01*
X89820000Y-116570000D02*
X89505000Y-116570000D01*
X87395000Y-116570000D02*
X87080000Y-116570000D01*
X92439682Y-117768323D02*
X92216943Y-117545584D01*
X94154416Y-119483057D02*
X93931677Y-119260318D01*
X95932789Y-114275216D02*
X95710051Y-114052477D01*
X97647523Y-115989949D02*
X97424784Y-115767211D01*
X95710051Y-114052477D02*
X92216943Y-117545584D01*
X97647523Y-115989949D02*
X94154416Y-119483057D01*
X112620000Y-114120000D02*
X107680000Y-114120000D01*
X112620000Y-111380000D02*
X107680000Y-111380000D01*
X112620000Y-114120000D02*
X112620000Y-113805000D01*
X112620000Y-111695000D02*
X112620000Y-111380000D01*
X107680000Y-114120000D02*
X107680000Y-113805000D01*
X107680000Y-111695000D02*
X107680000Y-111380000D01*
X98270000Y-124380000D02*
G75*
G02X98270000Y-126380000I0J-1000000D01*
G01*
X98270000Y-126380000D02*
X98270000Y-131840000D01*
X98270000Y-131840000D02*
X139030000Y-131840000D01*
X139030000Y-131840000D02*
X139030000Y-118920000D01*
X139030000Y-118920000D02*
X98270000Y-118920000D01*
X98270000Y-118920000D02*
X98270000Y-124380000D01*
X118990000Y-111330000D02*
G75*
G02X120990000Y-111330000I1000000J0D01*
G01*
X120990000Y-111330000D02*
X122240000Y-111330000D01*
X122240000Y-111330000D02*
X122240000Y-93430000D01*
X122240000Y-93430000D02*
X117740000Y-93430000D01*
X117740000Y-93430000D02*
X117740000Y-111330000D01*
X117740000Y-111330000D02*
X118990000Y-111330000D01*
X125240000Y-111390000D02*
X125240000Y-93370000D01*
X125240000Y-93370000D02*
X114740000Y-93370000D01*
X114740000Y-93370000D02*
X114740000Y-111390000D01*
X114740000Y-111390000D02*
X125240000Y-111390000D01*
X91390000Y-108530000D02*
G75*
G02X93390000Y-108530000I1000000J0D01*
G01*
X93390000Y-108530000D02*
X94640000Y-108530000D01*
X94640000Y-108530000D02*
X94640000Y-83010000D01*
X94640000Y-83010000D02*
X90140000Y-83010000D01*
X90140000Y-83010000D02*
X90140000Y-108530000D01*
X90140000Y-108530000D02*
X91390000Y-108530000D01*
X97640000Y-108590000D02*
X97640000Y-82950000D01*
X97640000Y-82950000D02*
X87140000Y-82950000D01*
X87140000Y-82950000D02*
X87140000Y-108590000D01*
X87140000Y-108590000D02*
X97640000Y-108590000D01*
D10*
X91307142Y-114266666D02*
X91354761Y-114314285D01*
X91402380Y-114457142D01*
X91402380Y-114552380D01*
X91354761Y-114695238D01*
X91259523Y-114790476D01*
X91164285Y-114838095D01*
X90973809Y-114885714D01*
X90830952Y-114885714D01*
X90640476Y-114838095D01*
X90545238Y-114790476D01*
X90450000Y-114695238D01*
X90402380Y-114552380D01*
X90402380Y-114457142D01*
X90450000Y-114314285D01*
X90497619Y-114266666D01*
X91402380Y-113314285D02*
X91402380Y-113885714D01*
X91402380Y-113600000D02*
X90402380Y-113600000D01*
X90545238Y-113695238D01*
X90640476Y-113790476D01*
X90688095Y-113885714D01*
X86307142Y-115457142D02*
X86354761Y-115409523D01*
X86402380Y-115457142D01*
X86354761Y-115504761D01*
X86307142Y-115457142D01*
X86402380Y-115457142D01*
X86402380Y-114457142D02*
X86402380Y-115028571D01*
X86402380Y-114742857D02*
X85402380Y-114742857D01*
X85545238Y-114838095D01*
X85640476Y-114933333D01*
X85688095Y-115028571D01*
X85735714Y-113600000D02*
X86402380Y-113600000D01*
X85735714Y-114028571D02*
X86259523Y-114028571D01*
X86354761Y-113980952D01*
X86402380Y-113885714D01*
X86402380Y-113742857D01*
X86354761Y-113647619D01*
X86307142Y-113600000D01*
X85878571Y-112790476D02*
X85878571Y-113123809D01*
X86402380Y-113123809D02*
X85402380Y-113123809D01*
X85402380Y-112647619D01*
X96834687Y-118905923D02*
X96834687Y-118973266D01*
X96767343Y-119107953D01*
X96700000Y-119175297D01*
X96565312Y-119242640D01*
X96430625Y-119242640D01*
X96329610Y-119208969D01*
X96161251Y-119107953D01*
X96060236Y-119006938D01*
X95959221Y-118838579D01*
X95925549Y-118737564D01*
X95925549Y-118602877D01*
X95992893Y-118468190D01*
X96060236Y-118400846D01*
X96194923Y-118333503D01*
X96262267Y-118333503D01*
X96531641Y-118064129D02*
X96531641Y-117996785D01*
X96565312Y-117895770D01*
X96733671Y-117727411D01*
X96834687Y-117693740D01*
X96902030Y-117693740D01*
X97003045Y-117727411D01*
X97070389Y-117794755D01*
X97137732Y-117929442D01*
X97137732Y-118737564D01*
X97575465Y-118299831D01*
X92457359Y-116212183D02*
X92524702Y-116212183D01*
X92524702Y-116279526D01*
X92457359Y-116279526D01*
X92457359Y-116212183D01*
X92524702Y-116279526D01*
X93231809Y-115572419D02*
X92827748Y-115976480D01*
X93029778Y-115774450D02*
X92322672Y-115067343D01*
X92356343Y-115235702D01*
X92356343Y-115370389D01*
X92322672Y-115471404D01*
X93366496Y-114494923D02*
X93837901Y-114966328D01*
X93063450Y-114797969D02*
X93433840Y-115168358D01*
X93534855Y-115202030D01*
X93635870Y-115168358D01*
X93736885Y-115067343D01*
X93770557Y-114966328D01*
X93770557Y-114898984D01*
X94039931Y-114023519D02*
X93804229Y-114259221D01*
X94174618Y-114629610D02*
X93467511Y-113922503D01*
X93804229Y-113585786D01*
X109983333Y-115607142D02*
X109935714Y-115654761D01*
X109792857Y-115702380D01*
X109697619Y-115702380D01*
X109554761Y-115654761D01*
X109459523Y-115559523D01*
X109411904Y-115464285D01*
X109364285Y-115273809D01*
X109364285Y-115130952D01*
X109411904Y-114940476D01*
X109459523Y-114845238D01*
X109554761Y-114750000D01*
X109697619Y-114702380D01*
X109792857Y-114702380D01*
X109935714Y-114750000D01*
X109983333Y-114797619D01*
X110316666Y-114702380D02*
X110935714Y-114702380D01*
X110602380Y-115083333D01*
X110745238Y-115083333D01*
X110840476Y-115130952D01*
X110888095Y-115178571D01*
X110935714Y-115273809D01*
X110935714Y-115511904D01*
X110888095Y-115607142D01*
X110840476Y-115654761D01*
X110745238Y-115702380D01*
X110459523Y-115702380D01*
X110364285Y-115654761D01*
X110316666Y-115607142D01*
X108792857Y-110607142D02*
X108840476Y-110654761D01*
X108792857Y-110702380D01*
X108745238Y-110654761D01*
X108792857Y-110607142D01*
X108792857Y-110702380D01*
X109792857Y-110702380D02*
X109221428Y-110702380D01*
X109507142Y-110702380D02*
X109507142Y-109702380D01*
X109411904Y-109845238D01*
X109316666Y-109940476D01*
X109221428Y-109988095D01*
X110650000Y-110035714D02*
X110650000Y-110702380D01*
X110221428Y-110035714D02*
X110221428Y-110559523D01*
X110269047Y-110654761D01*
X110364285Y-110702380D01*
X110507142Y-110702380D01*
X110602380Y-110654761D01*
X110650000Y-110607142D01*
X111459523Y-110178571D02*
X111126190Y-110178571D01*
X111126190Y-110702380D02*
X111126190Y-109702380D01*
X111602380Y-109702380D01*
X96722380Y-126141904D02*
X97531904Y-126141904D01*
X97627142Y-126094285D01*
X97674761Y-126046666D01*
X97722380Y-125951428D01*
X97722380Y-125760952D01*
X97674761Y-125665714D01*
X97627142Y-125618095D01*
X97531904Y-125570476D01*
X96722380Y-125570476D01*
X96817619Y-125141904D02*
X96770000Y-125094285D01*
X96722380Y-124999047D01*
X96722380Y-124760952D01*
X96770000Y-124665714D01*
X96817619Y-124618095D01*
X96912857Y-124570476D01*
X97008095Y-124570476D01*
X97150952Y-124618095D01*
X97722380Y-125189523D01*
X97722380Y-124570476D01*
X111521428Y-135466666D02*
X111997619Y-135466666D01*
X111426190Y-135752380D02*
X111759523Y-134752380D01*
X112092857Y-135752380D01*
X112378571Y-135704761D02*
X112521428Y-135752380D01*
X112759523Y-135752380D01*
X112854761Y-135704761D01*
X112902380Y-135657142D01*
X112950000Y-135561904D01*
X112950000Y-135466666D01*
X112902380Y-135371428D01*
X112854761Y-135323809D01*
X112759523Y-135276190D01*
X112569047Y-135228571D01*
X112473809Y-135180952D01*
X112426190Y-135133333D01*
X112378571Y-135038095D01*
X112378571Y-134942857D01*
X112426190Y-134847619D01*
X112473809Y-134800000D01*
X112569047Y-134752380D01*
X112807142Y-134752380D01*
X112950000Y-134800000D01*
X113807142Y-134752380D02*
X113616666Y-134752380D01*
X113521428Y-134800000D01*
X113473809Y-134847619D01*
X113378571Y-134990476D01*
X113330952Y-135180952D01*
X113330952Y-135561904D01*
X113378571Y-135657142D01*
X113426190Y-135704761D01*
X113521428Y-135752380D01*
X113711904Y-135752380D01*
X113807142Y-135704761D01*
X113854761Y-135657142D01*
X113902380Y-135561904D01*
X113902380Y-135323809D01*
X113854761Y-135228571D01*
X113807142Y-135180952D01*
X113711904Y-135133333D01*
X113521428Y-135133333D01*
X113426190Y-135180952D01*
X113378571Y-135228571D01*
X113330952Y-135323809D01*
X114902380Y-135657142D02*
X114854761Y-135704761D01*
X114711904Y-135752380D01*
X114616666Y-135752380D01*
X114473809Y-135704761D01*
X114378571Y-135609523D01*
X114330952Y-135514285D01*
X114283333Y-135323809D01*
X114283333Y-135180952D01*
X114330952Y-134990476D01*
X114378571Y-134895238D01*
X114473809Y-134800000D01*
X114616666Y-134752380D01*
X114711904Y-134752380D01*
X114854761Y-134800000D01*
X114902380Y-134847619D01*
X115759523Y-135085714D02*
X115759523Y-135752380D01*
X115521428Y-134704761D02*
X115283333Y-135419047D01*
X115902380Y-135419047D01*
X116473809Y-134752380D02*
X116569047Y-134752380D01*
X116664285Y-134800000D01*
X116711904Y-134847619D01*
X116759523Y-134942857D01*
X116807142Y-135133333D01*
X116807142Y-135371428D01*
X116759523Y-135561904D01*
X116711904Y-135657142D01*
X116664285Y-135704761D01*
X116569047Y-135752380D01*
X116473809Y-135752380D01*
X116378571Y-135704761D01*
X116330952Y-135657142D01*
X116283333Y-135561904D01*
X116235714Y-135371428D01*
X116235714Y-135133333D01*
X116283333Y-134942857D01*
X116330952Y-134847619D01*
X116378571Y-134800000D01*
X116473809Y-134752380D01*
X117426190Y-134752380D02*
X117521428Y-134752380D01*
X117616666Y-134800000D01*
X117664285Y-134847619D01*
X117711904Y-134942857D01*
X117759523Y-135133333D01*
X117759523Y-135371428D01*
X117711904Y-135561904D01*
X117664285Y-135657142D01*
X117616666Y-135704761D01*
X117521428Y-135752380D01*
X117426190Y-135752380D01*
X117330952Y-135704761D01*
X117283333Y-135657142D01*
X117235714Y-135561904D01*
X117188095Y-135371428D01*
X117188095Y-135133333D01*
X117235714Y-134942857D01*
X117283333Y-134847619D01*
X117330952Y-134800000D01*
X117426190Y-134752380D01*
X118330952Y-135180952D02*
X118235714Y-135133333D01*
X118188095Y-135085714D01*
X118140476Y-134990476D01*
X118140476Y-134942857D01*
X118188095Y-134847619D01*
X118235714Y-134800000D01*
X118330952Y-134752380D01*
X118521428Y-134752380D01*
X118616666Y-134800000D01*
X118664285Y-134847619D01*
X118711904Y-134942857D01*
X118711904Y-134990476D01*
X118664285Y-135085714D01*
X118616666Y-135133333D01*
X118521428Y-135180952D01*
X118330952Y-135180952D01*
X118235714Y-135228571D01*
X118188095Y-135276190D01*
X118140476Y-135371428D01*
X118140476Y-135561904D01*
X118188095Y-135657142D01*
X118235714Y-135704761D01*
X118330952Y-135752380D01*
X118521428Y-135752380D01*
X118616666Y-135704761D01*
X118664285Y-135657142D01*
X118711904Y-135561904D01*
X118711904Y-135371428D01*
X118664285Y-135276190D01*
X118616666Y-135228571D01*
X118521428Y-135180952D01*
X119140476Y-135371428D02*
X119902380Y-135371428D01*
X120854761Y-134752380D02*
X120378571Y-134752380D01*
X120330952Y-135228571D01*
X120378571Y-135180952D01*
X120473809Y-135133333D01*
X120711904Y-135133333D01*
X120807142Y-135180952D01*
X120854761Y-135228571D01*
X120902380Y-135323809D01*
X120902380Y-135561904D01*
X120854761Y-135657142D01*
X120807142Y-135704761D01*
X120711904Y-135752380D01*
X120473809Y-135752380D01*
X120378571Y-135704761D01*
X120330952Y-135657142D01*
X121807142Y-134752380D02*
X121330952Y-134752380D01*
X121283333Y-135228571D01*
X121330952Y-135180952D01*
X121426190Y-135133333D01*
X121664285Y-135133333D01*
X121759523Y-135180952D01*
X121807142Y-135228571D01*
X121854761Y-135323809D01*
X121854761Y-135561904D01*
X121807142Y-135657142D01*
X121759523Y-135704761D01*
X121664285Y-135752380D01*
X121426190Y-135752380D01*
X121330952Y-135704761D01*
X121283333Y-135657142D01*
X122283333Y-135752380D02*
X122283333Y-134752380D01*
X122664285Y-134752380D01*
X122759523Y-134800000D01*
X122807142Y-134847619D01*
X122854761Y-134942857D01*
X122854761Y-135085714D01*
X122807142Y-135180952D01*
X122759523Y-135228571D01*
X122664285Y-135276190D01*
X122283333Y-135276190D01*
X123283333Y-135752380D02*
X123283333Y-134752380D01*
X123759523Y-135752380D02*
X123759523Y-134752380D01*
X124330952Y-135752380D01*
X124330952Y-134752380D01*
X119228095Y-111782380D02*
X119228095Y-112591904D01*
X119275714Y-112687142D01*
X119323333Y-112734761D01*
X119418571Y-112782380D01*
X119609047Y-112782380D01*
X119704285Y-112734761D01*
X119751904Y-112687142D01*
X119799523Y-112591904D01*
X119799523Y-111782380D01*
X120180476Y-111782380D02*
X120799523Y-111782380D01*
X120466190Y-112163333D01*
X120609047Y-112163333D01*
X120704285Y-112210952D01*
X120751904Y-112258571D01*
X120799523Y-112353809D01*
X120799523Y-112591904D01*
X120751904Y-112687142D01*
X120704285Y-112734761D01*
X120609047Y-112782380D01*
X120323333Y-112782380D01*
X120228095Y-112734761D01*
X120180476Y-112687142D01*
X127204761Y-106597619D02*
X127252380Y-106454761D01*
X127252380Y-106216666D01*
X127204761Y-106121428D01*
X127157142Y-106073809D01*
X127061904Y-106026190D01*
X126966666Y-106026190D01*
X126871428Y-106073809D01*
X126823809Y-106121428D01*
X126776190Y-106216666D01*
X126728571Y-106407142D01*
X126680952Y-106502380D01*
X126633333Y-106550000D01*
X126538095Y-106597619D01*
X126442857Y-106597619D01*
X126347619Y-106550000D01*
X126300000Y-106502380D01*
X126252380Y-106407142D01*
X126252380Y-106169047D01*
X126300000Y-106026190D01*
X127252380Y-105597619D02*
X126252380Y-105597619D01*
X127252380Y-105026190D01*
X126252380Y-105026190D01*
X126252380Y-104645238D02*
X126252380Y-103978571D01*
X127252380Y-104407142D01*
X126585714Y-103169047D02*
X127252380Y-103169047D01*
X126204761Y-103407142D02*
X126919047Y-103645238D01*
X126919047Y-103026190D01*
X126966666Y-102692857D02*
X126966666Y-102216666D01*
X127252380Y-102788095D02*
X126252380Y-102454761D01*
X127252380Y-102121428D01*
X127252380Y-101311904D02*
X127252380Y-101788095D01*
X126252380Y-101788095D01*
X127204761Y-101026190D02*
X127252380Y-100883333D01*
X127252380Y-100645238D01*
X127204761Y-100550000D01*
X127157142Y-100502380D01*
X127061904Y-100454761D01*
X126966666Y-100454761D01*
X126871428Y-100502380D01*
X126823809Y-100550000D01*
X126776190Y-100645238D01*
X126728571Y-100835714D01*
X126680952Y-100930952D01*
X126633333Y-100978571D01*
X126538095Y-101026190D01*
X126442857Y-101026190D01*
X126347619Y-100978571D01*
X126300000Y-100930952D01*
X126252380Y-100835714D01*
X126252380Y-100597619D01*
X126300000Y-100454761D01*
X126252380Y-100121428D02*
X126252380Y-99502380D01*
X126633333Y-99835714D01*
X126633333Y-99692857D01*
X126680952Y-99597619D01*
X126728571Y-99550000D01*
X126823809Y-99502380D01*
X127061904Y-99502380D01*
X127157142Y-99550000D01*
X127204761Y-99597619D01*
X127252380Y-99692857D01*
X127252380Y-99978571D01*
X127204761Y-100073809D01*
X127157142Y-100121428D01*
X126347619Y-99121428D02*
X126300000Y-99073809D01*
X126252380Y-98978571D01*
X126252380Y-98740476D01*
X126300000Y-98645238D01*
X126347619Y-98597619D01*
X126442857Y-98550000D01*
X126538095Y-98550000D01*
X126680952Y-98597619D01*
X127252380Y-99169047D01*
X127252380Y-98550000D01*
X127252380Y-98121428D02*
X126252380Y-98121428D01*
X127252380Y-97550000D01*
X126252380Y-97550000D01*
X91628095Y-108982380D02*
X91628095Y-109791904D01*
X91675714Y-109887142D01*
X91723333Y-109934761D01*
X91818571Y-109982380D01*
X92009047Y-109982380D01*
X92104285Y-109934761D01*
X92151904Y-109887142D01*
X92199523Y-109791904D01*
X92199523Y-108982380D01*
X93199523Y-109982380D02*
X92628095Y-109982380D01*
X92913809Y-109982380D02*
X92913809Y-108982380D01*
X92818571Y-109125238D01*
X92723333Y-109220476D01*
X92628095Y-109268095D01*
X85954761Y-101123809D02*
X86002380Y-100980952D01*
X86002380Y-100742857D01*
X85954761Y-100647619D01*
X85907142Y-100600000D01*
X85811904Y-100552380D01*
X85716666Y-100552380D01*
X85621428Y-100600000D01*
X85573809Y-100647619D01*
X85526190Y-100742857D01*
X85478571Y-100933333D01*
X85430952Y-101028571D01*
X85383333Y-101076190D01*
X85288095Y-101123809D01*
X85192857Y-101123809D01*
X85097619Y-101076190D01*
X85050000Y-101028571D01*
X85002380Y-100933333D01*
X85002380Y-100695238D01*
X85050000Y-100552380D01*
X86002380Y-100123809D02*
X85002380Y-100123809D01*
X86002380Y-99552380D01*
X85002380Y-99552380D01*
X85002380Y-99171428D02*
X85002380Y-98504761D01*
X86002380Y-98933333D01*
X85335714Y-97695238D02*
X86002380Y-97695238D01*
X84954761Y-97933333D02*
X85669047Y-98171428D01*
X85669047Y-97552380D01*
X85716666Y-97219047D02*
X85716666Y-96742857D01*
X86002380Y-97314285D02*
X85002380Y-96980952D01*
X86002380Y-96647619D01*
X86002380Y-95838095D02*
X86002380Y-96314285D01*
X85002380Y-96314285D01*
X85954761Y-95552380D02*
X86002380Y-95409523D01*
X86002380Y-95171428D01*
X85954761Y-95076190D01*
X85907142Y-95028571D01*
X85811904Y-94980952D01*
X85716666Y-94980952D01*
X85621428Y-95028571D01*
X85573809Y-95076190D01*
X85526190Y-95171428D01*
X85478571Y-95361904D01*
X85430952Y-95457142D01*
X85383333Y-95504761D01*
X85288095Y-95552380D01*
X85192857Y-95552380D01*
X85097619Y-95504761D01*
X85050000Y-95457142D01*
X85002380Y-95361904D01*
X85002380Y-95123809D01*
X85050000Y-94980952D01*
X85002380Y-94076190D02*
X85002380Y-94552380D01*
X85478571Y-94600000D01*
X85430952Y-94552380D01*
X85383333Y-94457142D01*
X85383333Y-94219047D01*
X85430952Y-94123809D01*
X85478571Y-94076190D01*
X85573809Y-94028571D01*
X85811904Y-94028571D01*
X85907142Y-94076190D01*
X85954761Y-94123809D01*
X86002380Y-94219047D01*
X86002380Y-94457142D01*
X85954761Y-94552380D01*
X85907142Y-94600000D01*
X85002380Y-93695238D02*
X85002380Y-93028571D01*
X86002380Y-93457142D01*
X85002380Y-92742857D02*
X85002380Y-92123809D01*
X85383333Y-92457142D01*
X85383333Y-92314285D01*
X85430952Y-92219047D01*
X85478571Y-92171428D01*
X85573809Y-92123809D01*
X85811904Y-92123809D01*
X85907142Y-92171428D01*
X85954761Y-92219047D01*
X86002380Y-92314285D01*
X86002380Y-92600000D01*
X85954761Y-92695238D01*
X85907142Y-92742857D01*
X85907142Y-91123809D02*
X85954761Y-91171428D01*
X86002380Y-91314285D01*
X86002380Y-91409523D01*
X85954761Y-91552380D01*
X85859523Y-91647619D01*
X85764285Y-91695238D01*
X85573809Y-91742857D01*
X85430952Y-91742857D01*
X85240476Y-91695238D01*
X85145238Y-91647619D01*
X85050000Y-91552380D01*
X85002380Y-91409523D01*
X85002380Y-91314285D01*
X85050000Y-91171428D01*
X85097619Y-91123809D01*
X86002380Y-90695238D02*
X85002380Y-90695238D01*
X86002380Y-90123809D01*
X85002380Y-90123809D01*
M02*
