G04 #@! TF.GenerationSoftware,KiCad,Pcbnew,5.1.5+dfsg1-2build2*
G04 #@! TF.CreationDate,2022-09-07T21:32:21-04:00*
G04 #@! TF.ProjectId,coco2_3134_64k_static_ram_board,636f636f-325f-4333-9133-345f36346b5f,1.0.0*
G04 #@! TF.SameCoordinates,Original*
G04 #@! TF.FileFunction,Legend,Bot*
G04 #@! TF.FilePolarity,Positive*
%FSLAX46Y46*%
G04 Gerber Fmt 4.6, Leading zero omitted, Abs format (unit mm)*
G04 Created by KiCad (PCBNEW 5.1.5+dfsg1-2build2) date 2022-09-07 21:32:21*
%MOMM*%
%LPD*%
G04 APERTURE LIST*
%ADD10C,0.120000*%
%ADD11C,0.150000*%
G04 APERTURE END LIST*
D10*
X101170000Y-83230000D02*
X103830000Y-83230000D01*
X101170000Y-111230000D02*
X101170000Y-83230000D01*
X103830000Y-111230000D02*
X103830000Y-83230000D01*
X101170000Y-111230000D02*
X103830000Y-111230000D01*
X101170000Y-112500000D02*
X101170000Y-113830000D01*
X101170000Y-113830000D02*
X102500000Y-113830000D01*
X136170000Y-113830000D02*
X137500000Y-113830000D01*
X136170000Y-112500000D02*
X136170000Y-113830000D01*
X136170000Y-111230000D02*
X138830000Y-111230000D01*
X138830000Y-111230000D02*
X138830000Y-83230000D01*
X136170000Y-111230000D02*
X136170000Y-83230000D01*
X136170000Y-83230000D02*
X138830000Y-83230000D01*
D11*
X103290476Y-82457142D02*
X103338095Y-82504761D01*
X103480952Y-82552380D01*
X103576190Y-82552380D01*
X103719047Y-82504761D01*
X103814285Y-82409523D01*
X103861904Y-82314285D01*
X103909523Y-82123809D01*
X103909523Y-81980952D01*
X103861904Y-81790476D01*
X103814285Y-81695238D01*
X103719047Y-81600000D01*
X103576190Y-81552380D01*
X103480952Y-81552380D01*
X103338095Y-81600000D01*
X103290476Y-81647619D01*
X102861904Y-82552380D02*
X102861904Y-81552380D01*
X102290476Y-82552380D01*
X102290476Y-81552380D01*
X101909523Y-81552380D02*
X101290476Y-81552380D01*
X101623809Y-81933333D01*
X101480952Y-81933333D01*
X101385714Y-81980952D01*
X101338095Y-82028571D01*
X101290476Y-82123809D01*
X101290476Y-82361904D01*
X101338095Y-82457142D01*
X101385714Y-82504761D01*
X101480952Y-82552380D01*
X101766666Y-82552380D01*
X101861904Y-82504761D01*
X101909523Y-82457142D01*
X138290476Y-82357142D02*
X138338095Y-82404761D01*
X138480952Y-82452380D01*
X138576190Y-82452380D01*
X138719047Y-82404761D01*
X138814285Y-82309523D01*
X138861904Y-82214285D01*
X138909523Y-82023809D01*
X138909523Y-81880952D01*
X138861904Y-81690476D01*
X138814285Y-81595238D01*
X138719047Y-81500000D01*
X138576190Y-81452380D01*
X138480952Y-81452380D01*
X138338095Y-81500000D01*
X138290476Y-81547619D01*
X137861904Y-82452380D02*
X137861904Y-81452380D01*
X137290476Y-82452380D01*
X137290476Y-81452380D01*
X136385714Y-81785714D02*
X136385714Y-82452380D01*
X136623809Y-81404761D02*
X136861904Y-82119047D01*
X136242857Y-82119047D01*
M02*
