G04 #@! TF.GenerationSoftware,KiCad,Pcbnew,5.1.5+dfsg1-2build2*
G04 #@! TF.CreationDate,2022-09-07T21:32:21-04:00*
G04 #@! TF.ProjectId,coco2_3134_64k_static_ram_board,636f636f-325f-4333-9133-345f36346b5f,1.0.0*
G04 #@! TF.SameCoordinates,Original*
G04 #@! TF.FileFunction,Copper,L2,Bot*
G04 #@! TF.FilePolarity,Positive*
%FSLAX46Y46*%
G04 Gerber Fmt 4.6, Leading zero omitted, Abs format (unit mm)*
G04 Created by KiCad (PCBNEW 5.1.5+dfsg1-2build2) date 2022-09-07 21:32:21*
%MOMM*%
%LPD*%
G04 APERTURE LIST*
%ADD10R,1.700000X1.700000*%
%ADD11O,1.700000X1.700000*%
%ADD12C,1.600000*%
%ADD13R,1.600000X1.600000*%
%ADD14O,1.600000X1.600000*%
%ADD15R,2.400000X1.600000*%
%ADD16O,2.400000X1.600000*%
%ADD17C,0.800000*%
%ADD18C,0.750000*%
%ADD19C,0.350000*%
%ADD20C,0.254000*%
G04 APERTURE END LIST*
D10*
X102500000Y-112500000D03*
D11*
X102500000Y-109960000D03*
X102500000Y-107420000D03*
X102500000Y-104880000D03*
X102500000Y-102340000D03*
X102500000Y-99800000D03*
X102500000Y-97260000D03*
X102500000Y-94720000D03*
X102500000Y-92180000D03*
X102500000Y-89640000D03*
X102500000Y-87100000D03*
X102500000Y-84560000D03*
X137500000Y-84560000D03*
X137500000Y-87100000D03*
X137500000Y-89640000D03*
X137500000Y-92180000D03*
X137500000Y-94720000D03*
X137500000Y-97260000D03*
X137500000Y-99800000D03*
X137500000Y-102340000D03*
X137500000Y-104880000D03*
X137500000Y-107420000D03*
X137500000Y-109960000D03*
D10*
X137500000Y-112500000D03*
D12*
X88450000Y-111600000D03*
X88450000Y-116600000D03*
X93164466Y-118535534D03*
X96700000Y-115000000D03*
X112650000Y-112750000D03*
X107650000Y-112750000D03*
D13*
X99600000Y-133000000D03*
D14*
X137700000Y-117760000D03*
X102140000Y-133000000D03*
X135160000Y-117760000D03*
X104680000Y-133000000D03*
X132620000Y-117760000D03*
X107220000Y-133000000D03*
X130080000Y-117760000D03*
X109760000Y-133000000D03*
X127540000Y-117760000D03*
X112300000Y-133000000D03*
X125000000Y-117760000D03*
X114840000Y-133000000D03*
X122460000Y-117760000D03*
X117380000Y-133000000D03*
X119920000Y-117760000D03*
X119920000Y-133000000D03*
X117380000Y-117760000D03*
X122460000Y-133000000D03*
X114840000Y-117760000D03*
X125000000Y-133000000D03*
X112300000Y-117760000D03*
X127540000Y-133000000D03*
X109760000Y-117760000D03*
X130080000Y-133000000D03*
X107220000Y-117760000D03*
X132620000Y-133000000D03*
X104680000Y-117760000D03*
X135160000Y-133000000D03*
X102140000Y-117760000D03*
X137700000Y-133000000D03*
X99600000Y-117760000D03*
D15*
X123800000Y-110000000D03*
D16*
X116180000Y-94760000D03*
X123800000Y-107460000D03*
X116180000Y-97300000D03*
X123800000Y-104920000D03*
X116180000Y-99840000D03*
X123800000Y-102380000D03*
X116180000Y-102380000D03*
X123800000Y-99840000D03*
X116180000Y-104920000D03*
X123800000Y-97300000D03*
X116180000Y-107460000D03*
X123800000Y-94760000D03*
X116180000Y-110000000D03*
D15*
X96200000Y-107200000D03*
D16*
X88580000Y-84340000D03*
X96200000Y-104660000D03*
X88580000Y-86880000D03*
X96200000Y-102120000D03*
X88580000Y-89420000D03*
X96200000Y-99580000D03*
X88580000Y-91960000D03*
X96200000Y-97040000D03*
X88580000Y-94500000D03*
X96200000Y-94500000D03*
X88580000Y-97040000D03*
X96200000Y-91960000D03*
X88580000Y-99580000D03*
X96200000Y-89420000D03*
X88580000Y-102120000D03*
X96200000Y-86880000D03*
X88580000Y-104660000D03*
X96200000Y-84340000D03*
X88580000Y-107200000D03*
D17*
X97000000Y-112100000D03*
X114600000Y-113500000D03*
X107500000Y-115500000D03*
X84800000Y-124600000D03*
X87300000Y-127100000D03*
X122300000Y-115800000D03*
X121100000Y-119300000D03*
X117400000Y-115300000D03*
X119550000Y-121850000D03*
D18*
X121800000Y-115300000D02*
X122300000Y-115800000D01*
X117400000Y-115300000D02*
X121800000Y-115300000D01*
D19*
X109760000Y-112140000D02*
X109760000Y-117760000D01*
X102500000Y-104880000D02*
X109760000Y-112140000D01*
X122250000Y-110000000D02*
X120600000Y-108350000D01*
X123800000Y-110000000D02*
X122250000Y-110000000D01*
X120600000Y-108350000D02*
X120600000Y-103450000D01*
X103349999Y-100649999D02*
X102500000Y-99800000D01*
X103904990Y-101204990D02*
X103349999Y-100649999D01*
X118354990Y-101204990D02*
X103904990Y-101204990D01*
X120600000Y-103450000D02*
X118354990Y-101204990D01*
X102500000Y-97260000D02*
X99650000Y-100110000D01*
X99650000Y-100110000D02*
X99650000Y-112450000D01*
X99650000Y-112450000D02*
X103050000Y-115850000D01*
X105310000Y-115850000D02*
X107220000Y-117760000D01*
X103050000Y-115850000D02*
X105310000Y-115850000D01*
X106400000Y-88280000D02*
X103349999Y-91330001D01*
X103349999Y-91330001D02*
X102500000Y-92180000D01*
X106400000Y-83250000D02*
X106400000Y-88280000D01*
X103600000Y-80450000D02*
X106400000Y-83250000D01*
X93900000Y-80450000D02*
X103600000Y-80450000D01*
X90599980Y-83750020D02*
X93900000Y-80450000D01*
X90399989Y-119049990D02*
X90399989Y-89840463D01*
X120530053Y-123450053D02*
X94800052Y-123450053D01*
X130080000Y-133000000D02*
X120530053Y-123450053D01*
X90599980Y-89640472D02*
X90599980Y-83750020D01*
X90399989Y-89840463D02*
X90599980Y-89640472D01*
X94800052Y-123450053D02*
X90399989Y-119049990D01*
X101650001Y-86250001D02*
X102500000Y-87100000D01*
X101000000Y-85600000D02*
X101650001Y-86250001D01*
X90950000Y-90068285D02*
X95418285Y-85600000D01*
X90950000Y-118822168D02*
X90950000Y-90068285D01*
X95027874Y-122900042D02*
X90950000Y-118822168D01*
X125060042Y-122900042D02*
X95027874Y-122900042D01*
X95418285Y-85600000D02*
X101000000Y-85600000D01*
X135160000Y-133000000D02*
X125060042Y-122900042D01*
X125350000Y-107460000D02*
X129900000Y-102910000D01*
X123800000Y-107460000D02*
X125350000Y-107460000D01*
X129900000Y-102910000D02*
X129900000Y-92450000D01*
X135250000Y-87100000D02*
X137500000Y-87100000D01*
X129900000Y-92450000D02*
X135250000Y-87100000D01*
X138349999Y-90489999D02*
X137500000Y-89640000D01*
X138577822Y-116250011D02*
X140400000Y-114427833D01*
X140400000Y-114427833D02*
X140400000Y-92540000D01*
X135160000Y-117760000D02*
X136669989Y-116250011D01*
X136669989Y-116250011D02*
X138577822Y-116250011D01*
X140400000Y-92540000D02*
X138349999Y-90489999D01*
X138349999Y-95569999D02*
X137500000Y-94720000D01*
X132620000Y-117760000D02*
X134680000Y-115700000D01*
X134680000Y-115700000D02*
X138350000Y-115700000D01*
X138350000Y-115700000D02*
X139849989Y-114200011D01*
X139849989Y-114200011D02*
X139849989Y-97069989D01*
X139849989Y-97069989D02*
X138349999Y-95569999D01*
X137500000Y-99800000D02*
X124050000Y-113250000D01*
X113099999Y-116960001D02*
X112300000Y-117760000D01*
X116810000Y-113250000D02*
X113099999Y-116960001D01*
X124050000Y-113250000D02*
X116810000Y-113250000D01*
X111500001Y-118559999D02*
X112300000Y-117760000D01*
X109360002Y-120699998D02*
X111500001Y-118559999D01*
X99949998Y-120699998D02*
X109360002Y-120699998D01*
X93400000Y-114150000D02*
X99949998Y-120699998D01*
X96200000Y-104660000D02*
X94650000Y-104660000D01*
X93400000Y-105910000D02*
X93400000Y-114150000D01*
X94650000Y-104660000D02*
X93400000Y-105910000D01*
X114840000Y-116628630D02*
X114840000Y-117760000D01*
X125940000Y-113900000D02*
X117568630Y-113900000D01*
X117568630Y-113900000D02*
X114840000Y-116628630D01*
X137500000Y-102340000D02*
X125940000Y-113900000D01*
X114040001Y-118559999D02*
X114840000Y-117760000D01*
X111349991Y-121250009D02*
X114040001Y-118559999D01*
X92849989Y-114377822D02*
X99722176Y-121250009D01*
X94650000Y-102120000D02*
X92849989Y-103920011D01*
X96200000Y-102120000D02*
X94650000Y-102120000D01*
X92849989Y-103920011D02*
X92849989Y-114377822D01*
X99722176Y-121250009D02*
X111349991Y-121250009D01*
X125520000Y-114700000D02*
X122460000Y-117760000D01*
X127650000Y-114700000D02*
X125520000Y-114700000D01*
X137470000Y-104880000D02*
X127650000Y-114700000D01*
X137500000Y-104880000D02*
X137470000Y-104880000D01*
X121660001Y-116960001D02*
X122460000Y-117760000D01*
X116600000Y-116100000D02*
X120800000Y-116100000D01*
X116100000Y-116600000D02*
X116600000Y-116100000D01*
X120800000Y-116100000D02*
X121660001Y-116960001D01*
X116100000Y-118262168D02*
X116100000Y-116600000D01*
X112562148Y-121800020D02*
X116100000Y-118262168D01*
X94650000Y-99580000D02*
X92250013Y-101979987D01*
X99494354Y-121800020D02*
X112562148Y-121800020D01*
X92250013Y-114555679D02*
X99494354Y-121800020D01*
X92250013Y-101979987D02*
X92250013Y-114555679D01*
X96200000Y-99580000D02*
X94650000Y-99580000D01*
X126689002Y-120350000D02*
X119970000Y-120350000D01*
X128750000Y-118289002D02*
X126689002Y-120350000D01*
X128750000Y-116170000D02*
X128750000Y-118289002D01*
X119970000Y-120350000D02*
X117380000Y-117760000D01*
X137500000Y-107420000D02*
X128750000Y-116170000D01*
X96200000Y-97040000D02*
X94650000Y-97040000D01*
X91700002Y-99989998D02*
X91700002Y-114783501D01*
X94650000Y-97040000D02*
X91700002Y-99989998D01*
X91700002Y-114783501D02*
X99266532Y-122350031D01*
X99266532Y-122350031D02*
X112789969Y-122350031D01*
X112789969Y-122350031D02*
X116580001Y-118559999D01*
X116580001Y-118559999D02*
X117380000Y-117760000D01*
X98650000Y-114270000D02*
X102140000Y-117760000D01*
X97750000Y-86880000D02*
X98650000Y-87780000D01*
X96200000Y-86880000D02*
X97750000Y-86880000D01*
X98650000Y-87780000D02*
X98650000Y-114270000D01*
X136650001Y-110809999D02*
X137500000Y-109960000D01*
X131350000Y-116110000D02*
X136650001Y-110809999D01*
X131350000Y-118400000D02*
X131350000Y-116110000D01*
X127900000Y-121850000D02*
X131350000Y-118400000D01*
X119550000Y-121850000D02*
X127900000Y-121850000D01*
X82500000Y-120344817D02*
X82500000Y-93000000D01*
X108524999Y-131824999D02*
X106500020Y-129800020D01*
X108584999Y-131824999D02*
X108524999Y-131824999D01*
X109760000Y-133000000D02*
X108584999Y-131824999D01*
X91955203Y-129800020D02*
X82500000Y-120344817D01*
X88580000Y-86920000D02*
X88580000Y-86880000D01*
X82500000Y-93000000D02*
X88580000Y-86920000D01*
X106500020Y-129800020D02*
X91955203Y-129800020D01*
X108550009Y-129250009D02*
X92183024Y-129250009D01*
X112300000Y-133000000D02*
X108550009Y-129250009D01*
X87030000Y-89420000D02*
X88580000Y-89420000D01*
X92183024Y-129250009D02*
X83050011Y-120116996D01*
X83050011Y-120116996D02*
X83050011Y-93399989D01*
X83050011Y-93399989D02*
X87030000Y-89420000D01*
X114840000Y-133000000D02*
X110539998Y-128699998D01*
X83600022Y-95389978D02*
X87030000Y-91960000D01*
X87030000Y-91960000D02*
X88580000Y-91960000D01*
X92410845Y-128699998D02*
X83600022Y-119889175D01*
X83600022Y-119889175D02*
X83600022Y-95389978D01*
X110539998Y-128699998D02*
X92410845Y-128699998D01*
X87030000Y-94500000D02*
X88580000Y-94500000D01*
X84150033Y-119661354D02*
X84150033Y-97379967D01*
X112430010Y-128050010D02*
X92538689Y-128050010D01*
X84150033Y-97379967D02*
X87030000Y-94500000D01*
X92538689Y-128050010D02*
X84150033Y-119661354D01*
X117380000Y-133000000D02*
X112430010Y-128050010D01*
X119920000Y-133000000D02*
X114419999Y-127499999D01*
X87030000Y-97040000D02*
X88580000Y-97040000D01*
X84700044Y-99369956D02*
X87030000Y-97040000D01*
X92766510Y-127499999D02*
X84700044Y-119433533D01*
X114419999Y-127499999D02*
X92766510Y-127499999D01*
X84700044Y-119433533D02*
X84700044Y-99369956D01*
X87030000Y-99580000D02*
X88580000Y-99580000D01*
X122460000Y-133000000D02*
X116260000Y-126800000D01*
X92844343Y-126800000D02*
X85250055Y-119205712D01*
X116260000Y-126800000D02*
X92844343Y-126800000D01*
X85250055Y-101359945D02*
X87030000Y-99580000D01*
X85250055Y-119205712D02*
X85250055Y-101359945D01*
X118249989Y-126249989D02*
X93072164Y-126249989D01*
X87030000Y-102120000D02*
X88580000Y-102120000D01*
X93072164Y-126249989D02*
X85800066Y-118977891D01*
X85800066Y-118977891D02*
X85800066Y-103349934D01*
X85800066Y-103349934D02*
X87030000Y-102120000D01*
X125000000Y-133000000D02*
X118249989Y-126249989D01*
X120239978Y-125699978D02*
X93299985Y-125699978D01*
X127540000Y-133000000D02*
X120239978Y-125699978D01*
X93299985Y-125699978D02*
X86350077Y-118750070D01*
X86350077Y-118750070D02*
X86350077Y-105339923D01*
X86350077Y-105339923D02*
X87030000Y-104660000D01*
X87030000Y-104660000D02*
X88580000Y-104660000D01*
D20*
G36*
X140640001Y-133726618D02*
G01*
X138526620Y-135840000D01*
X84073381Y-135840000D01*
X82033381Y-133800000D01*
X98161928Y-133800000D01*
X98174188Y-133924482D01*
X98210498Y-134044180D01*
X98269463Y-134154494D01*
X98348815Y-134251185D01*
X98445506Y-134330537D01*
X98555820Y-134389502D01*
X98675518Y-134425812D01*
X98800000Y-134438072D01*
X99314250Y-134435000D01*
X99473000Y-134276250D01*
X99473000Y-133127000D01*
X99727000Y-133127000D01*
X99727000Y-134276250D01*
X99885750Y-134435000D01*
X100400000Y-134438072D01*
X100524482Y-134425812D01*
X100644180Y-134389502D01*
X100754494Y-134330537D01*
X100851185Y-134251185D01*
X100930537Y-134154494D01*
X100989502Y-134044180D01*
X101025812Y-133924482D01*
X101028231Y-133899920D01*
X101176586Y-134063519D01*
X101402580Y-134231037D01*
X101656913Y-134351246D01*
X101790961Y-134391904D01*
X102013000Y-134269915D01*
X102013000Y-133127000D01*
X99727000Y-133127000D01*
X99473000Y-133127000D01*
X98323750Y-133127000D01*
X98165000Y-133285750D01*
X98161928Y-133800000D01*
X82033381Y-133800000D01*
X81960000Y-133726620D01*
X81960000Y-132200000D01*
X98161928Y-132200000D01*
X98165000Y-132714250D01*
X98323750Y-132873000D01*
X99473000Y-132873000D01*
X99473000Y-131723750D01*
X99727000Y-131723750D01*
X99727000Y-132873000D01*
X102013000Y-132873000D01*
X102013000Y-131730085D01*
X101790961Y-131608096D01*
X101656913Y-131648754D01*
X101402580Y-131768963D01*
X101176586Y-131936481D01*
X101028231Y-132100080D01*
X101025812Y-132075518D01*
X100989502Y-131955820D01*
X100930537Y-131845506D01*
X100851185Y-131748815D01*
X100754494Y-131669463D01*
X100644180Y-131610498D01*
X100524482Y-131574188D01*
X100400000Y-131561928D01*
X99885750Y-131565000D01*
X99727000Y-131723750D01*
X99473000Y-131723750D01*
X99314250Y-131565000D01*
X98800000Y-131561928D01*
X98675518Y-131574188D01*
X98555820Y-131610498D01*
X98445506Y-131669463D01*
X98348815Y-131748815D01*
X98269463Y-131845506D01*
X98210498Y-131955820D01*
X98174188Y-132075518D01*
X98161928Y-132200000D01*
X81960000Y-132200000D01*
X81960000Y-120950329D01*
X91354308Y-130344638D01*
X91379675Y-130375548D01*
X91447413Y-130431139D01*
X91503013Y-130476769D01*
X91578227Y-130516971D01*
X91643730Y-130551983D01*
X91796415Y-130598300D01*
X91915412Y-130610020D01*
X91915414Y-130610020D01*
X91955202Y-130613939D01*
X91994990Y-130610020D01*
X106164508Y-130610020D01*
X107119487Y-131565000D01*
X107078665Y-131565000D01*
X106801426Y-131620147D01*
X106540273Y-131728320D01*
X106305241Y-131885363D01*
X106105363Y-132085241D01*
X105950000Y-132317759D01*
X105794637Y-132085241D01*
X105594759Y-131885363D01*
X105359727Y-131728320D01*
X105098574Y-131620147D01*
X104821335Y-131565000D01*
X104538665Y-131565000D01*
X104261426Y-131620147D01*
X104000273Y-131728320D01*
X103765241Y-131885363D01*
X103565363Y-132085241D01*
X103408320Y-132320273D01*
X103403933Y-132330865D01*
X103292385Y-132144869D01*
X103103414Y-131936481D01*
X102877420Y-131768963D01*
X102623087Y-131648754D01*
X102489039Y-131608096D01*
X102267000Y-131730085D01*
X102267000Y-132873000D01*
X102287000Y-132873000D01*
X102287000Y-133127000D01*
X102267000Y-133127000D01*
X102267000Y-134269915D01*
X102489039Y-134391904D01*
X102623087Y-134351246D01*
X102877420Y-134231037D01*
X103103414Y-134063519D01*
X103292385Y-133855131D01*
X103403933Y-133669135D01*
X103408320Y-133679727D01*
X103565363Y-133914759D01*
X103765241Y-134114637D01*
X104000273Y-134271680D01*
X104261426Y-134379853D01*
X104538665Y-134435000D01*
X104821335Y-134435000D01*
X105098574Y-134379853D01*
X105359727Y-134271680D01*
X105594759Y-134114637D01*
X105794637Y-133914759D01*
X105950000Y-133682241D01*
X106105363Y-133914759D01*
X106305241Y-134114637D01*
X106540273Y-134271680D01*
X106801426Y-134379853D01*
X107078665Y-134435000D01*
X107361335Y-134435000D01*
X107638574Y-134379853D01*
X107899727Y-134271680D01*
X108134759Y-134114637D01*
X108334637Y-133914759D01*
X108490000Y-133682241D01*
X108645363Y-133914759D01*
X108845241Y-134114637D01*
X109080273Y-134271680D01*
X109341426Y-134379853D01*
X109618665Y-134435000D01*
X109901335Y-134435000D01*
X110178574Y-134379853D01*
X110439727Y-134271680D01*
X110674759Y-134114637D01*
X110874637Y-133914759D01*
X111030000Y-133682241D01*
X111185363Y-133914759D01*
X111385241Y-134114637D01*
X111620273Y-134271680D01*
X111881426Y-134379853D01*
X112158665Y-134435000D01*
X112441335Y-134435000D01*
X112718574Y-134379853D01*
X112979727Y-134271680D01*
X113214759Y-134114637D01*
X113414637Y-133914759D01*
X113570000Y-133682241D01*
X113725363Y-133914759D01*
X113925241Y-134114637D01*
X114160273Y-134271680D01*
X114421426Y-134379853D01*
X114698665Y-134435000D01*
X114981335Y-134435000D01*
X115258574Y-134379853D01*
X115519727Y-134271680D01*
X115754759Y-134114637D01*
X115954637Y-133914759D01*
X116110000Y-133682241D01*
X116265363Y-133914759D01*
X116465241Y-134114637D01*
X116700273Y-134271680D01*
X116961426Y-134379853D01*
X117238665Y-134435000D01*
X117521335Y-134435000D01*
X117798574Y-134379853D01*
X118059727Y-134271680D01*
X118294759Y-134114637D01*
X118494637Y-133914759D01*
X118650000Y-133682241D01*
X118805363Y-133914759D01*
X119005241Y-134114637D01*
X119240273Y-134271680D01*
X119501426Y-134379853D01*
X119778665Y-134435000D01*
X120061335Y-134435000D01*
X120338574Y-134379853D01*
X120599727Y-134271680D01*
X120834759Y-134114637D01*
X121034637Y-133914759D01*
X121190000Y-133682241D01*
X121345363Y-133914759D01*
X121545241Y-134114637D01*
X121780273Y-134271680D01*
X122041426Y-134379853D01*
X122318665Y-134435000D01*
X122601335Y-134435000D01*
X122878574Y-134379853D01*
X123139727Y-134271680D01*
X123374759Y-134114637D01*
X123574637Y-133914759D01*
X123730000Y-133682241D01*
X123885363Y-133914759D01*
X124085241Y-134114637D01*
X124320273Y-134271680D01*
X124581426Y-134379853D01*
X124858665Y-134435000D01*
X125141335Y-134435000D01*
X125418574Y-134379853D01*
X125679727Y-134271680D01*
X125914759Y-134114637D01*
X126114637Y-133914759D01*
X126270000Y-133682241D01*
X126425363Y-133914759D01*
X126625241Y-134114637D01*
X126860273Y-134271680D01*
X127121426Y-134379853D01*
X127398665Y-134435000D01*
X127681335Y-134435000D01*
X127958574Y-134379853D01*
X128219727Y-134271680D01*
X128454759Y-134114637D01*
X128654637Y-133914759D01*
X128810000Y-133682241D01*
X128965363Y-133914759D01*
X129165241Y-134114637D01*
X129400273Y-134271680D01*
X129661426Y-134379853D01*
X129938665Y-134435000D01*
X130221335Y-134435000D01*
X130498574Y-134379853D01*
X130759727Y-134271680D01*
X130994759Y-134114637D01*
X131194637Y-133914759D01*
X131350000Y-133682241D01*
X131505363Y-133914759D01*
X131705241Y-134114637D01*
X131940273Y-134271680D01*
X132201426Y-134379853D01*
X132478665Y-134435000D01*
X132761335Y-134435000D01*
X133038574Y-134379853D01*
X133299727Y-134271680D01*
X133534759Y-134114637D01*
X133734637Y-133914759D01*
X133890000Y-133682241D01*
X134045363Y-133914759D01*
X134245241Y-134114637D01*
X134480273Y-134271680D01*
X134741426Y-134379853D01*
X135018665Y-134435000D01*
X135301335Y-134435000D01*
X135578574Y-134379853D01*
X135839727Y-134271680D01*
X136074759Y-134114637D01*
X136274637Y-133914759D01*
X136431680Y-133679727D01*
X136436067Y-133669135D01*
X136547615Y-133855131D01*
X136736586Y-134063519D01*
X136962580Y-134231037D01*
X137216913Y-134351246D01*
X137350961Y-134391904D01*
X137573000Y-134269915D01*
X137573000Y-133127000D01*
X137827000Y-133127000D01*
X137827000Y-134269915D01*
X138049039Y-134391904D01*
X138183087Y-134351246D01*
X138437420Y-134231037D01*
X138663414Y-134063519D01*
X138852385Y-133855131D01*
X138997070Y-133613881D01*
X139091909Y-133349040D01*
X138970624Y-133127000D01*
X137827000Y-133127000D01*
X137573000Y-133127000D01*
X137553000Y-133127000D01*
X137553000Y-132873000D01*
X137573000Y-132873000D01*
X137573000Y-131730085D01*
X137827000Y-131730085D01*
X137827000Y-132873000D01*
X138970624Y-132873000D01*
X139091909Y-132650960D01*
X138997070Y-132386119D01*
X138852385Y-132144869D01*
X138663414Y-131936481D01*
X138437420Y-131768963D01*
X138183087Y-131648754D01*
X138049039Y-131608096D01*
X137827000Y-131730085D01*
X137573000Y-131730085D01*
X137350961Y-131608096D01*
X137216913Y-131648754D01*
X136962580Y-131768963D01*
X136736586Y-131936481D01*
X136547615Y-132144869D01*
X136436067Y-132330865D01*
X136431680Y-132320273D01*
X136274637Y-132085241D01*
X136074759Y-131885363D01*
X135839727Y-131728320D01*
X135578574Y-131620147D01*
X135301335Y-131565000D01*
X135018665Y-131565000D01*
X134895093Y-131589580D01*
X125965512Y-122660000D01*
X127860212Y-122660000D01*
X127900000Y-122663919D01*
X127939788Y-122660000D01*
X127939791Y-122660000D01*
X128058788Y-122648280D01*
X128211473Y-122601963D01*
X128352189Y-122526749D01*
X128475528Y-122425528D01*
X128500900Y-122394612D01*
X131894451Y-119001062D01*
X131940273Y-119031680D01*
X132201426Y-119139853D01*
X132478665Y-119195000D01*
X132761335Y-119195000D01*
X133038574Y-119139853D01*
X133299727Y-119031680D01*
X133534759Y-118874637D01*
X133734637Y-118674759D01*
X133890000Y-118442241D01*
X134045363Y-118674759D01*
X134245241Y-118874637D01*
X134480273Y-119031680D01*
X134741426Y-119139853D01*
X135018665Y-119195000D01*
X135301335Y-119195000D01*
X135578574Y-119139853D01*
X135839727Y-119031680D01*
X136074759Y-118874637D01*
X136274637Y-118674759D01*
X136430000Y-118442241D01*
X136585363Y-118674759D01*
X136785241Y-118874637D01*
X137020273Y-119031680D01*
X137281426Y-119139853D01*
X137558665Y-119195000D01*
X137841335Y-119195000D01*
X138118574Y-119139853D01*
X138379727Y-119031680D01*
X138614759Y-118874637D01*
X138814637Y-118674759D01*
X138971680Y-118439727D01*
X139079853Y-118178574D01*
X139135000Y-117901335D01*
X139135000Y-117618665D01*
X139079853Y-117341426D01*
X138971680Y-117080273D01*
X138911450Y-116990132D01*
X139030011Y-116926760D01*
X139153350Y-116825539D01*
X139178721Y-116794624D01*
X140640001Y-115333345D01*
X140640001Y-133726618D01*
G37*
X140640001Y-133726618D02*
X138526620Y-135840000D01*
X84073381Y-135840000D01*
X82033381Y-133800000D01*
X98161928Y-133800000D01*
X98174188Y-133924482D01*
X98210498Y-134044180D01*
X98269463Y-134154494D01*
X98348815Y-134251185D01*
X98445506Y-134330537D01*
X98555820Y-134389502D01*
X98675518Y-134425812D01*
X98800000Y-134438072D01*
X99314250Y-134435000D01*
X99473000Y-134276250D01*
X99473000Y-133127000D01*
X99727000Y-133127000D01*
X99727000Y-134276250D01*
X99885750Y-134435000D01*
X100400000Y-134438072D01*
X100524482Y-134425812D01*
X100644180Y-134389502D01*
X100754494Y-134330537D01*
X100851185Y-134251185D01*
X100930537Y-134154494D01*
X100989502Y-134044180D01*
X101025812Y-133924482D01*
X101028231Y-133899920D01*
X101176586Y-134063519D01*
X101402580Y-134231037D01*
X101656913Y-134351246D01*
X101790961Y-134391904D01*
X102013000Y-134269915D01*
X102013000Y-133127000D01*
X99727000Y-133127000D01*
X99473000Y-133127000D01*
X98323750Y-133127000D01*
X98165000Y-133285750D01*
X98161928Y-133800000D01*
X82033381Y-133800000D01*
X81960000Y-133726620D01*
X81960000Y-132200000D01*
X98161928Y-132200000D01*
X98165000Y-132714250D01*
X98323750Y-132873000D01*
X99473000Y-132873000D01*
X99473000Y-131723750D01*
X99727000Y-131723750D01*
X99727000Y-132873000D01*
X102013000Y-132873000D01*
X102013000Y-131730085D01*
X101790961Y-131608096D01*
X101656913Y-131648754D01*
X101402580Y-131768963D01*
X101176586Y-131936481D01*
X101028231Y-132100080D01*
X101025812Y-132075518D01*
X100989502Y-131955820D01*
X100930537Y-131845506D01*
X100851185Y-131748815D01*
X100754494Y-131669463D01*
X100644180Y-131610498D01*
X100524482Y-131574188D01*
X100400000Y-131561928D01*
X99885750Y-131565000D01*
X99727000Y-131723750D01*
X99473000Y-131723750D01*
X99314250Y-131565000D01*
X98800000Y-131561928D01*
X98675518Y-131574188D01*
X98555820Y-131610498D01*
X98445506Y-131669463D01*
X98348815Y-131748815D01*
X98269463Y-131845506D01*
X98210498Y-131955820D01*
X98174188Y-132075518D01*
X98161928Y-132200000D01*
X81960000Y-132200000D01*
X81960000Y-120950329D01*
X91354308Y-130344638D01*
X91379675Y-130375548D01*
X91447413Y-130431139D01*
X91503013Y-130476769D01*
X91578227Y-130516971D01*
X91643730Y-130551983D01*
X91796415Y-130598300D01*
X91915412Y-130610020D01*
X91915414Y-130610020D01*
X91955202Y-130613939D01*
X91994990Y-130610020D01*
X106164508Y-130610020D01*
X107119487Y-131565000D01*
X107078665Y-131565000D01*
X106801426Y-131620147D01*
X106540273Y-131728320D01*
X106305241Y-131885363D01*
X106105363Y-132085241D01*
X105950000Y-132317759D01*
X105794637Y-132085241D01*
X105594759Y-131885363D01*
X105359727Y-131728320D01*
X105098574Y-131620147D01*
X104821335Y-131565000D01*
X104538665Y-131565000D01*
X104261426Y-131620147D01*
X104000273Y-131728320D01*
X103765241Y-131885363D01*
X103565363Y-132085241D01*
X103408320Y-132320273D01*
X103403933Y-132330865D01*
X103292385Y-132144869D01*
X103103414Y-131936481D01*
X102877420Y-131768963D01*
X102623087Y-131648754D01*
X102489039Y-131608096D01*
X102267000Y-131730085D01*
X102267000Y-132873000D01*
X102287000Y-132873000D01*
X102287000Y-133127000D01*
X102267000Y-133127000D01*
X102267000Y-134269915D01*
X102489039Y-134391904D01*
X102623087Y-134351246D01*
X102877420Y-134231037D01*
X103103414Y-134063519D01*
X103292385Y-133855131D01*
X103403933Y-133669135D01*
X103408320Y-133679727D01*
X103565363Y-133914759D01*
X103765241Y-134114637D01*
X104000273Y-134271680D01*
X104261426Y-134379853D01*
X104538665Y-134435000D01*
X104821335Y-134435000D01*
X105098574Y-134379853D01*
X105359727Y-134271680D01*
X105594759Y-134114637D01*
X105794637Y-133914759D01*
X105950000Y-133682241D01*
X106105363Y-133914759D01*
X106305241Y-134114637D01*
X106540273Y-134271680D01*
X106801426Y-134379853D01*
X107078665Y-134435000D01*
X107361335Y-134435000D01*
X107638574Y-134379853D01*
X107899727Y-134271680D01*
X108134759Y-134114637D01*
X108334637Y-133914759D01*
X108490000Y-133682241D01*
X108645363Y-133914759D01*
X108845241Y-134114637D01*
X109080273Y-134271680D01*
X109341426Y-134379853D01*
X109618665Y-134435000D01*
X109901335Y-134435000D01*
X110178574Y-134379853D01*
X110439727Y-134271680D01*
X110674759Y-134114637D01*
X110874637Y-133914759D01*
X111030000Y-133682241D01*
X111185363Y-133914759D01*
X111385241Y-134114637D01*
X111620273Y-134271680D01*
X111881426Y-134379853D01*
X112158665Y-134435000D01*
X112441335Y-134435000D01*
X112718574Y-134379853D01*
X112979727Y-134271680D01*
X113214759Y-134114637D01*
X113414637Y-133914759D01*
X113570000Y-133682241D01*
X113725363Y-133914759D01*
X113925241Y-134114637D01*
X114160273Y-134271680D01*
X114421426Y-134379853D01*
X114698665Y-134435000D01*
X114981335Y-134435000D01*
X115258574Y-134379853D01*
X115519727Y-134271680D01*
X115754759Y-134114637D01*
X115954637Y-133914759D01*
X116110000Y-133682241D01*
X116265363Y-133914759D01*
X116465241Y-134114637D01*
X116700273Y-134271680D01*
X116961426Y-134379853D01*
X117238665Y-134435000D01*
X117521335Y-134435000D01*
X117798574Y-134379853D01*
X118059727Y-134271680D01*
X118294759Y-134114637D01*
X118494637Y-133914759D01*
X118650000Y-133682241D01*
X118805363Y-133914759D01*
X119005241Y-134114637D01*
X119240273Y-134271680D01*
X119501426Y-134379853D01*
X119778665Y-134435000D01*
X120061335Y-134435000D01*
X120338574Y-134379853D01*
X120599727Y-134271680D01*
X120834759Y-134114637D01*
X121034637Y-133914759D01*
X121190000Y-133682241D01*
X121345363Y-133914759D01*
X121545241Y-134114637D01*
X121780273Y-134271680D01*
X122041426Y-134379853D01*
X122318665Y-134435000D01*
X122601335Y-134435000D01*
X122878574Y-134379853D01*
X123139727Y-134271680D01*
X123374759Y-134114637D01*
X123574637Y-133914759D01*
X123730000Y-133682241D01*
X123885363Y-133914759D01*
X124085241Y-134114637D01*
X124320273Y-134271680D01*
X124581426Y-134379853D01*
X124858665Y-134435000D01*
X125141335Y-134435000D01*
X125418574Y-134379853D01*
X125679727Y-134271680D01*
X125914759Y-134114637D01*
X126114637Y-133914759D01*
X126270000Y-133682241D01*
X126425363Y-133914759D01*
X126625241Y-134114637D01*
X126860273Y-134271680D01*
X127121426Y-134379853D01*
X127398665Y-134435000D01*
X127681335Y-134435000D01*
X127958574Y-134379853D01*
X128219727Y-134271680D01*
X128454759Y-134114637D01*
X128654637Y-133914759D01*
X128810000Y-133682241D01*
X128965363Y-133914759D01*
X129165241Y-134114637D01*
X129400273Y-134271680D01*
X129661426Y-134379853D01*
X129938665Y-134435000D01*
X130221335Y-134435000D01*
X130498574Y-134379853D01*
X130759727Y-134271680D01*
X130994759Y-134114637D01*
X131194637Y-133914759D01*
X131350000Y-133682241D01*
X131505363Y-133914759D01*
X131705241Y-134114637D01*
X131940273Y-134271680D01*
X132201426Y-134379853D01*
X132478665Y-134435000D01*
X132761335Y-134435000D01*
X133038574Y-134379853D01*
X133299727Y-134271680D01*
X133534759Y-134114637D01*
X133734637Y-133914759D01*
X133890000Y-133682241D01*
X134045363Y-133914759D01*
X134245241Y-134114637D01*
X134480273Y-134271680D01*
X134741426Y-134379853D01*
X135018665Y-134435000D01*
X135301335Y-134435000D01*
X135578574Y-134379853D01*
X135839727Y-134271680D01*
X136074759Y-134114637D01*
X136274637Y-133914759D01*
X136431680Y-133679727D01*
X136436067Y-133669135D01*
X136547615Y-133855131D01*
X136736586Y-134063519D01*
X136962580Y-134231037D01*
X137216913Y-134351246D01*
X137350961Y-134391904D01*
X137573000Y-134269915D01*
X137573000Y-133127000D01*
X137827000Y-133127000D01*
X137827000Y-134269915D01*
X138049039Y-134391904D01*
X138183087Y-134351246D01*
X138437420Y-134231037D01*
X138663414Y-134063519D01*
X138852385Y-133855131D01*
X138997070Y-133613881D01*
X139091909Y-133349040D01*
X138970624Y-133127000D01*
X137827000Y-133127000D01*
X137573000Y-133127000D01*
X137553000Y-133127000D01*
X137553000Y-132873000D01*
X137573000Y-132873000D01*
X137573000Y-131730085D01*
X137827000Y-131730085D01*
X137827000Y-132873000D01*
X138970624Y-132873000D01*
X139091909Y-132650960D01*
X138997070Y-132386119D01*
X138852385Y-132144869D01*
X138663414Y-131936481D01*
X138437420Y-131768963D01*
X138183087Y-131648754D01*
X138049039Y-131608096D01*
X137827000Y-131730085D01*
X137573000Y-131730085D01*
X137350961Y-131608096D01*
X137216913Y-131648754D01*
X136962580Y-131768963D01*
X136736586Y-131936481D01*
X136547615Y-132144869D01*
X136436067Y-132330865D01*
X136431680Y-132320273D01*
X136274637Y-132085241D01*
X136074759Y-131885363D01*
X135839727Y-131728320D01*
X135578574Y-131620147D01*
X135301335Y-131565000D01*
X135018665Y-131565000D01*
X134895093Y-131589580D01*
X125965512Y-122660000D01*
X127860212Y-122660000D01*
X127900000Y-122663919D01*
X127939788Y-122660000D01*
X127939791Y-122660000D01*
X128058788Y-122648280D01*
X128211473Y-122601963D01*
X128352189Y-122526749D01*
X128475528Y-122425528D01*
X128500900Y-122394612D01*
X131894451Y-119001062D01*
X131940273Y-119031680D01*
X132201426Y-119139853D01*
X132478665Y-119195000D01*
X132761335Y-119195000D01*
X133038574Y-119139853D01*
X133299727Y-119031680D01*
X133534759Y-118874637D01*
X133734637Y-118674759D01*
X133890000Y-118442241D01*
X134045363Y-118674759D01*
X134245241Y-118874637D01*
X134480273Y-119031680D01*
X134741426Y-119139853D01*
X135018665Y-119195000D01*
X135301335Y-119195000D01*
X135578574Y-119139853D01*
X135839727Y-119031680D01*
X136074759Y-118874637D01*
X136274637Y-118674759D01*
X136430000Y-118442241D01*
X136585363Y-118674759D01*
X136785241Y-118874637D01*
X137020273Y-119031680D01*
X137281426Y-119139853D01*
X137558665Y-119195000D01*
X137841335Y-119195000D01*
X138118574Y-119139853D01*
X138379727Y-119031680D01*
X138614759Y-118874637D01*
X138814637Y-118674759D01*
X138971680Y-118439727D01*
X139079853Y-118178574D01*
X139135000Y-117901335D01*
X139135000Y-117618665D01*
X139079853Y-117341426D01*
X138971680Y-117080273D01*
X138911450Y-116990132D01*
X139030011Y-116926760D01*
X139153350Y-116825539D01*
X139178721Y-116794624D01*
X140640001Y-115333345D01*
X140640001Y-133726618D01*
G36*
X87178320Y-112279727D02*
G01*
X87335363Y-112514759D01*
X87535241Y-112714637D01*
X87770273Y-112871680D01*
X88031426Y-112979853D01*
X88308665Y-113035000D01*
X88591335Y-113035000D01*
X88868574Y-112979853D01*
X89129727Y-112871680D01*
X89364759Y-112714637D01*
X89564637Y-112514759D01*
X89589989Y-112476817D01*
X89589989Y-115830119D01*
X89442702Y-115786903D01*
X88629605Y-116600000D01*
X89442702Y-117413097D01*
X89589989Y-117369881D01*
X89589989Y-119010202D01*
X89586070Y-119049990D01*
X89589989Y-119089778D01*
X89589989Y-119089780D01*
X89601709Y-119208777D01*
X89648026Y-119361462D01*
X89682960Y-119426819D01*
X89723240Y-119502179D01*
X89754279Y-119540000D01*
X89824461Y-119625518D01*
X89855377Y-119650890D01*
X94199157Y-123994671D01*
X94224524Y-124025581D01*
X94347863Y-124126802D01*
X94488579Y-124202016D01*
X94641264Y-124248333D01*
X94760261Y-124260053D01*
X94760264Y-124260053D01*
X94800052Y-124263972D01*
X94839840Y-124260053D01*
X120194541Y-124260053D01*
X127499487Y-131565000D01*
X127398665Y-131565000D01*
X127275093Y-131589580D01*
X120840878Y-125155366D01*
X120815506Y-125124450D01*
X120692167Y-125023229D01*
X120551451Y-124948015D01*
X120398766Y-124901698D01*
X120279769Y-124889978D01*
X120279766Y-124889978D01*
X120239978Y-124886059D01*
X120200190Y-124889978D01*
X93635498Y-124889978D01*
X87160077Y-118414558D01*
X87160077Y-117592702D01*
X87636903Y-117592702D01*
X87708486Y-117836671D01*
X87963996Y-117957571D01*
X88238184Y-118026300D01*
X88520512Y-118040217D01*
X88800130Y-117998787D01*
X89066292Y-117903603D01*
X89191514Y-117836671D01*
X89263097Y-117592702D01*
X88450000Y-116779605D01*
X87636903Y-117592702D01*
X87160077Y-117592702D01*
X87160077Y-117241886D01*
X87213329Y-117341514D01*
X87457298Y-117413097D01*
X88270395Y-116600000D01*
X87457298Y-115786903D01*
X87213329Y-115858486D01*
X87160077Y-115971029D01*
X87160077Y-115607298D01*
X87636903Y-115607298D01*
X88450000Y-116420395D01*
X89263097Y-115607298D01*
X89191514Y-115363329D01*
X88936004Y-115242429D01*
X88661816Y-115173700D01*
X88379488Y-115159783D01*
X88099870Y-115201213D01*
X87833708Y-115296397D01*
X87708486Y-115363329D01*
X87636903Y-115607298D01*
X87160077Y-115607298D01*
X87160077Y-112235684D01*
X87178320Y-112279727D01*
G37*
X87178320Y-112279727D02*
X87335363Y-112514759D01*
X87535241Y-112714637D01*
X87770273Y-112871680D01*
X88031426Y-112979853D01*
X88308665Y-113035000D01*
X88591335Y-113035000D01*
X88868574Y-112979853D01*
X89129727Y-112871680D01*
X89364759Y-112714637D01*
X89564637Y-112514759D01*
X89589989Y-112476817D01*
X89589989Y-115830119D01*
X89442702Y-115786903D01*
X88629605Y-116600000D01*
X89442702Y-117413097D01*
X89589989Y-117369881D01*
X89589989Y-119010202D01*
X89586070Y-119049990D01*
X89589989Y-119089778D01*
X89589989Y-119089780D01*
X89601709Y-119208777D01*
X89648026Y-119361462D01*
X89682960Y-119426819D01*
X89723240Y-119502179D01*
X89754279Y-119540000D01*
X89824461Y-119625518D01*
X89855377Y-119650890D01*
X94199157Y-123994671D01*
X94224524Y-124025581D01*
X94347863Y-124126802D01*
X94488579Y-124202016D01*
X94641264Y-124248333D01*
X94760261Y-124260053D01*
X94760264Y-124260053D01*
X94800052Y-124263972D01*
X94839840Y-124260053D01*
X120194541Y-124260053D01*
X127499487Y-131565000D01*
X127398665Y-131565000D01*
X127275093Y-131589580D01*
X120840878Y-125155366D01*
X120815506Y-125124450D01*
X120692167Y-125023229D01*
X120551451Y-124948015D01*
X120398766Y-124901698D01*
X120279769Y-124889978D01*
X120279766Y-124889978D01*
X120239978Y-124886059D01*
X120200190Y-124889978D01*
X93635498Y-124889978D01*
X87160077Y-118414558D01*
X87160077Y-117592702D01*
X87636903Y-117592702D01*
X87708486Y-117836671D01*
X87963996Y-117957571D01*
X88238184Y-118026300D01*
X88520512Y-118040217D01*
X88800130Y-117998787D01*
X89066292Y-117903603D01*
X89191514Y-117836671D01*
X89263097Y-117592702D01*
X88450000Y-116779605D01*
X87636903Y-117592702D01*
X87160077Y-117592702D01*
X87160077Y-117241886D01*
X87213329Y-117341514D01*
X87457298Y-117413097D01*
X88270395Y-116600000D01*
X87457298Y-115786903D01*
X87213329Y-115858486D01*
X87160077Y-115971029D01*
X87160077Y-115607298D01*
X87636903Y-115607298D01*
X88450000Y-116420395D01*
X89263097Y-115607298D01*
X89191514Y-115363329D01*
X88936004Y-115242429D01*
X88661816Y-115173700D01*
X88379488Y-115159783D01*
X88099870Y-115201213D01*
X87833708Y-115296397D01*
X87708486Y-115363329D01*
X87636903Y-115607298D01*
X87160077Y-115607298D01*
X87160077Y-112235684D01*
X87178320Y-112279727D01*
G36*
X93020194Y-117249205D02*
G01*
X92814337Y-117136746D01*
X92548175Y-117231930D01*
X92305696Y-117377211D01*
X92096219Y-117567006D01*
X91927795Y-117794021D01*
X91806895Y-118049532D01*
X91765678Y-118185405D01*
X91887573Y-118408534D01*
X93037466Y-118408534D01*
X93037466Y-117266477D01*
X93291466Y-117520477D01*
X93291466Y-118228926D01*
X93178607Y-118341785D01*
X93358215Y-118521393D01*
X93471074Y-118408534D01*
X94179523Y-118408534D01*
X94433523Y-118662534D01*
X93291466Y-118662534D01*
X93291466Y-119812427D01*
X93514595Y-119934322D01*
X93780757Y-119839138D01*
X94023236Y-119693857D01*
X94232713Y-119504062D01*
X94401137Y-119277047D01*
X94522037Y-119021536D01*
X94563254Y-118885663D01*
X94450795Y-118679806D01*
X97861030Y-122090042D01*
X95363387Y-122090042D01*
X93037466Y-119764122D01*
X93037466Y-118842142D01*
X93150325Y-118729283D01*
X92970717Y-118549675D01*
X92857858Y-118662534D01*
X91935878Y-118662534D01*
X91760000Y-118486656D01*
X91760000Y-115989011D01*
X93020194Y-117249205D01*
G37*
X93020194Y-117249205D02*
X92814337Y-117136746D01*
X92548175Y-117231930D01*
X92305696Y-117377211D01*
X92096219Y-117567006D01*
X91927795Y-117794021D01*
X91806895Y-118049532D01*
X91765678Y-118185405D01*
X91887573Y-118408534D01*
X93037466Y-118408534D01*
X93037466Y-117266477D01*
X93291466Y-117520477D01*
X93291466Y-118228926D01*
X93178607Y-118341785D01*
X93358215Y-118521393D01*
X93471074Y-118408534D01*
X94179523Y-118408534D01*
X94433523Y-118662534D01*
X93291466Y-118662534D01*
X93291466Y-119812427D01*
X93514595Y-119934322D01*
X93780757Y-119839138D01*
X94023236Y-119693857D01*
X94232713Y-119504062D01*
X94401137Y-119277047D01*
X94522037Y-119021536D01*
X94563254Y-118885663D01*
X94450795Y-118679806D01*
X97861030Y-122090042D01*
X95363387Y-122090042D01*
X93037466Y-119764122D01*
X93037466Y-118842142D01*
X93150325Y-118729283D01*
X92970717Y-118549675D01*
X92857858Y-118662534D01*
X91935878Y-118662534D01*
X91760000Y-118486656D01*
X91760000Y-115989011D01*
X93020194Y-117249205D01*
G36*
X104807000Y-117633000D02*
G01*
X104827000Y-117633000D01*
X104827000Y-117887000D01*
X104807000Y-117887000D01*
X104807000Y-119029915D01*
X105029039Y-119151904D01*
X105163087Y-119111246D01*
X105417420Y-118991037D01*
X105643414Y-118823519D01*
X105832385Y-118615131D01*
X105943933Y-118429135D01*
X105948320Y-118439727D01*
X106105363Y-118674759D01*
X106305241Y-118874637D01*
X106540273Y-119031680D01*
X106801426Y-119139853D01*
X107078665Y-119195000D01*
X107361335Y-119195000D01*
X107638574Y-119139853D01*
X107899727Y-119031680D01*
X108134759Y-118874637D01*
X108334637Y-118674759D01*
X108490000Y-118442241D01*
X108645363Y-118674759D01*
X108845241Y-118874637D01*
X109080273Y-119031680D01*
X109341426Y-119139853D01*
X109618665Y-119195000D01*
X109719488Y-119195000D01*
X109024490Y-119889998D01*
X100285511Y-119889998D01*
X99590513Y-119195000D01*
X99741335Y-119195000D01*
X100018574Y-119139853D01*
X100279727Y-119031680D01*
X100514759Y-118874637D01*
X100714637Y-118674759D01*
X100870000Y-118442241D01*
X101025363Y-118674759D01*
X101225241Y-118874637D01*
X101460273Y-119031680D01*
X101721426Y-119139853D01*
X101998665Y-119195000D01*
X102281335Y-119195000D01*
X102558574Y-119139853D01*
X102819727Y-119031680D01*
X103054759Y-118874637D01*
X103254637Y-118674759D01*
X103411680Y-118439727D01*
X103416067Y-118429135D01*
X103527615Y-118615131D01*
X103716586Y-118823519D01*
X103942580Y-118991037D01*
X104196913Y-119111246D01*
X104330961Y-119151904D01*
X104553000Y-119029915D01*
X104553000Y-117887000D01*
X104533000Y-117887000D01*
X104533000Y-117633000D01*
X104553000Y-117633000D01*
X104553000Y-117613000D01*
X104807000Y-117613000D01*
X104807000Y-117633000D01*
G37*
X104807000Y-117633000D02*
X104827000Y-117633000D01*
X104827000Y-117887000D01*
X104807000Y-117887000D01*
X104807000Y-119029915D01*
X105029039Y-119151904D01*
X105163087Y-119111246D01*
X105417420Y-118991037D01*
X105643414Y-118823519D01*
X105832385Y-118615131D01*
X105943933Y-118429135D01*
X105948320Y-118439727D01*
X106105363Y-118674759D01*
X106305241Y-118874637D01*
X106540273Y-119031680D01*
X106801426Y-119139853D01*
X107078665Y-119195000D01*
X107361335Y-119195000D01*
X107638574Y-119139853D01*
X107899727Y-119031680D01*
X108134759Y-118874637D01*
X108334637Y-118674759D01*
X108490000Y-118442241D01*
X108645363Y-118674759D01*
X108845241Y-118874637D01*
X109080273Y-119031680D01*
X109341426Y-119139853D01*
X109618665Y-119195000D01*
X109719488Y-119195000D01*
X109024490Y-119889998D01*
X100285511Y-119889998D01*
X99590513Y-119195000D01*
X99741335Y-119195000D01*
X100018574Y-119139853D01*
X100279727Y-119031680D01*
X100514759Y-118874637D01*
X100714637Y-118674759D01*
X100870000Y-118442241D01*
X101025363Y-118674759D01*
X101225241Y-118874637D01*
X101460273Y-119031680D01*
X101721426Y-119139853D01*
X101998665Y-119195000D01*
X102281335Y-119195000D01*
X102558574Y-119139853D01*
X102819727Y-119031680D01*
X103054759Y-118874637D01*
X103254637Y-118674759D01*
X103411680Y-118439727D01*
X103416067Y-118429135D01*
X103527615Y-118615131D01*
X103716586Y-118823519D01*
X103942580Y-118991037D01*
X104196913Y-119111246D01*
X104330961Y-119151904D01*
X104553000Y-119029915D01*
X104553000Y-117887000D01*
X104533000Y-117887000D01*
X104533000Y-117633000D01*
X104553000Y-117633000D01*
X104553000Y-117613000D01*
X104807000Y-117613000D01*
X104807000Y-117633000D01*
G36*
X121188320Y-118439727D02*
G01*
X121345363Y-118674759D01*
X121545241Y-118874637D01*
X121780273Y-119031680D01*
X122041426Y-119139853D01*
X122318665Y-119195000D01*
X122601335Y-119195000D01*
X122878574Y-119139853D01*
X123139727Y-119031680D01*
X123374759Y-118874637D01*
X123574637Y-118674759D01*
X123730000Y-118442241D01*
X123885363Y-118674759D01*
X124085241Y-118874637D01*
X124320273Y-119031680D01*
X124581426Y-119139853D01*
X124858665Y-119195000D01*
X125141335Y-119195000D01*
X125418574Y-119139853D01*
X125679727Y-119031680D01*
X125914759Y-118874637D01*
X126114637Y-118674759D01*
X126270000Y-118442241D01*
X126425363Y-118674759D01*
X126625241Y-118874637D01*
X126860273Y-119031680D01*
X126861360Y-119032130D01*
X126353490Y-119540000D01*
X120305513Y-119540000D01*
X119960513Y-119195000D01*
X120047002Y-119195000D01*
X120047002Y-119029916D01*
X120269039Y-119151904D01*
X120403087Y-119111246D01*
X120657420Y-118991037D01*
X120883414Y-118823519D01*
X121072385Y-118615131D01*
X121183933Y-118429135D01*
X121188320Y-118439727D01*
G37*
X121188320Y-118439727D02*
X121345363Y-118674759D01*
X121545241Y-118874637D01*
X121780273Y-119031680D01*
X122041426Y-119139853D01*
X122318665Y-119195000D01*
X122601335Y-119195000D01*
X122878574Y-119139853D01*
X123139727Y-119031680D01*
X123374759Y-118874637D01*
X123574637Y-118674759D01*
X123730000Y-118442241D01*
X123885363Y-118674759D01*
X124085241Y-118874637D01*
X124320273Y-119031680D01*
X124581426Y-119139853D01*
X124858665Y-119195000D01*
X125141335Y-119195000D01*
X125418574Y-119139853D01*
X125679727Y-119031680D01*
X125914759Y-118874637D01*
X126114637Y-118674759D01*
X126270000Y-118442241D01*
X126425363Y-118674759D01*
X126625241Y-118874637D01*
X126860273Y-119031680D01*
X126861360Y-119032130D01*
X126353490Y-119540000D01*
X120305513Y-119540000D01*
X119960513Y-119195000D01*
X120047002Y-119195000D01*
X120047002Y-119029916D01*
X120269039Y-119151904D01*
X120403087Y-119111246D01*
X120657420Y-118991037D01*
X120883414Y-118823519D01*
X121072385Y-118615131D01*
X121183933Y-118429135D01*
X121188320Y-118439727D01*
G36*
X120047000Y-117633000D02*
G01*
X120067000Y-117633000D01*
X120067000Y-117887000D01*
X120047000Y-117887000D01*
X120047000Y-117907000D01*
X119793000Y-117907000D01*
X119793000Y-117887000D01*
X119773000Y-117887000D01*
X119773000Y-117633000D01*
X119793000Y-117633000D01*
X119793000Y-117613000D01*
X120047000Y-117613000D01*
X120047000Y-117633000D01*
G37*
X120047000Y-117633000D02*
X120067000Y-117633000D01*
X120067000Y-117887000D01*
X120047000Y-117887000D01*
X120047000Y-117907000D01*
X119793000Y-117907000D01*
X119793000Y-117887000D01*
X119773000Y-117887000D01*
X119773000Y-117633000D01*
X119793000Y-117633000D01*
X119793000Y-117613000D01*
X120047000Y-117613000D01*
X120047000Y-117633000D01*
G36*
X101015000Y-99946260D02*
G01*
X101072068Y-100233158D01*
X101184010Y-100503411D01*
X101346525Y-100746632D01*
X101553368Y-100953475D01*
X101727760Y-101070000D01*
X101553368Y-101186525D01*
X101346525Y-101393368D01*
X101184010Y-101636589D01*
X101072068Y-101906842D01*
X101015000Y-102193740D01*
X101015000Y-102486260D01*
X101072068Y-102773158D01*
X101184010Y-103043411D01*
X101346525Y-103286632D01*
X101553368Y-103493475D01*
X101727760Y-103610000D01*
X101553368Y-103726525D01*
X101346525Y-103933368D01*
X101184010Y-104176589D01*
X101072068Y-104446842D01*
X101015000Y-104733740D01*
X101015000Y-105026260D01*
X101072068Y-105313158D01*
X101184010Y-105583411D01*
X101346525Y-105826632D01*
X101553368Y-106033475D01*
X101727760Y-106150000D01*
X101553368Y-106266525D01*
X101346525Y-106473368D01*
X101184010Y-106716589D01*
X101072068Y-106986842D01*
X101015000Y-107273740D01*
X101015000Y-107566260D01*
X101072068Y-107853158D01*
X101184010Y-108123411D01*
X101346525Y-108366632D01*
X101553368Y-108573475D01*
X101727760Y-108690000D01*
X101553368Y-108806525D01*
X101346525Y-109013368D01*
X101184010Y-109256589D01*
X101072068Y-109526842D01*
X101015000Y-109813740D01*
X101015000Y-110106260D01*
X101072068Y-110393158D01*
X101184010Y-110663411D01*
X101346525Y-110906632D01*
X101478380Y-111038487D01*
X101405820Y-111060498D01*
X101295506Y-111119463D01*
X101198815Y-111198815D01*
X101119463Y-111295506D01*
X101060498Y-111405820D01*
X101024188Y-111525518D01*
X101011928Y-111650000D01*
X101015000Y-112214250D01*
X101173750Y-112373000D01*
X102373000Y-112373000D01*
X102373000Y-112353000D01*
X102627000Y-112353000D01*
X102627000Y-112373000D01*
X103826250Y-112373000D01*
X103985000Y-112214250D01*
X103988072Y-111650000D01*
X103975812Y-111525518D01*
X103939502Y-111405820D01*
X103880537Y-111295506D01*
X103801185Y-111198815D01*
X103704494Y-111119463D01*
X103594180Y-111060498D01*
X103521620Y-111038487D01*
X103653475Y-110906632D01*
X103815990Y-110663411D01*
X103927932Y-110393158D01*
X103985000Y-110106260D01*
X103985000Y-109813740D01*
X103927932Y-109526842D01*
X103815990Y-109256589D01*
X103653475Y-109013368D01*
X103446632Y-108806525D01*
X103272240Y-108690000D01*
X103446632Y-108573475D01*
X103653475Y-108366632D01*
X103815990Y-108123411D01*
X103927932Y-107853158D01*
X103985000Y-107566260D01*
X103985000Y-107510512D01*
X107794888Y-111320401D01*
X107579488Y-111309783D01*
X107299870Y-111351213D01*
X107033708Y-111446397D01*
X106908486Y-111513329D01*
X106836903Y-111757298D01*
X107650000Y-112570395D01*
X107664143Y-112556253D01*
X107843748Y-112735858D01*
X107829605Y-112750000D01*
X108642702Y-113563097D01*
X108886671Y-113491514D01*
X108950000Y-113357674D01*
X108950001Y-116575365D01*
X108845241Y-116645363D01*
X108645363Y-116845241D01*
X108490000Y-117077759D01*
X108334637Y-116845241D01*
X108134759Y-116645363D01*
X107899727Y-116488320D01*
X107638574Y-116380147D01*
X107361335Y-116325000D01*
X107078665Y-116325000D01*
X106955093Y-116349580D01*
X105910899Y-115305387D01*
X105885528Y-115274472D01*
X105762189Y-115173251D01*
X105621473Y-115098037D01*
X105468788Y-115051720D01*
X105349791Y-115040000D01*
X105349788Y-115040000D01*
X105310000Y-115036081D01*
X105270212Y-115040000D01*
X103385513Y-115040000D01*
X102272381Y-113926869D01*
X102373000Y-113826250D01*
X102373000Y-112627000D01*
X102627000Y-112627000D01*
X102627000Y-113826250D01*
X102785750Y-113985000D01*
X103350000Y-113988072D01*
X103474482Y-113975812D01*
X103594180Y-113939502D01*
X103704494Y-113880537D01*
X103801185Y-113801185D01*
X103849180Y-113742702D01*
X106836903Y-113742702D01*
X106908486Y-113986671D01*
X107163996Y-114107571D01*
X107438184Y-114176300D01*
X107720512Y-114190217D01*
X108000130Y-114148787D01*
X108266292Y-114053603D01*
X108391514Y-113986671D01*
X108463097Y-113742702D01*
X107650000Y-112929605D01*
X106836903Y-113742702D01*
X103849180Y-113742702D01*
X103880537Y-113704494D01*
X103939502Y-113594180D01*
X103975812Y-113474482D01*
X103988072Y-113350000D01*
X103985190Y-112820512D01*
X106209783Y-112820512D01*
X106251213Y-113100130D01*
X106346397Y-113366292D01*
X106413329Y-113491514D01*
X106657298Y-113563097D01*
X107470395Y-112750000D01*
X106657298Y-111936903D01*
X106413329Y-112008486D01*
X106292429Y-112263996D01*
X106223700Y-112538184D01*
X106209783Y-112820512D01*
X103985190Y-112820512D01*
X103985000Y-112785750D01*
X103826250Y-112627000D01*
X102627000Y-112627000D01*
X102373000Y-112627000D01*
X101173750Y-112627000D01*
X101073131Y-112727619D01*
X100460000Y-112114488D01*
X100460000Y-100445512D01*
X101015000Y-99890512D01*
X101015000Y-99946260D01*
G37*
X101015000Y-99946260D02*
X101072068Y-100233158D01*
X101184010Y-100503411D01*
X101346525Y-100746632D01*
X101553368Y-100953475D01*
X101727760Y-101070000D01*
X101553368Y-101186525D01*
X101346525Y-101393368D01*
X101184010Y-101636589D01*
X101072068Y-101906842D01*
X101015000Y-102193740D01*
X101015000Y-102486260D01*
X101072068Y-102773158D01*
X101184010Y-103043411D01*
X101346525Y-103286632D01*
X101553368Y-103493475D01*
X101727760Y-103610000D01*
X101553368Y-103726525D01*
X101346525Y-103933368D01*
X101184010Y-104176589D01*
X101072068Y-104446842D01*
X101015000Y-104733740D01*
X101015000Y-105026260D01*
X101072068Y-105313158D01*
X101184010Y-105583411D01*
X101346525Y-105826632D01*
X101553368Y-106033475D01*
X101727760Y-106150000D01*
X101553368Y-106266525D01*
X101346525Y-106473368D01*
X101184010Y-106716589D01*
X101072068Y-106986842D01*
X101015000Y-107273740D01*
X101015000Y-107566260D01*
X101072068Y-107853158D01*
X101184010Y-108123411D01*
X101346525Y-108366632D01*
X101553368Y-108573475D01*
X101727760Y-108690000D01*
X101553368Y-108806525D01*
X101346525Y-109013368D01*
X101184010Y-109256589D01*
X101072068Y-109526842D01*
X101015000Y-109813740D01*
X101015000Y-110106260D01*
X101072068Y-110393158D01*
X101184010Y-110663411D01*
X101346525Y-110906632D01*
X101478380Y-111038487D01*
X101405820Y-111060498D01*
X101295506Y-111119463D01*
X101198815Y-111198815D01*
X101119463Y-111295506D01*
X101060498Y-111405820D01*
X101024188Y-111525518D01*
X101011928Y-111650000D01*
X101015000Y-112214250D01*
X101173750Y-112373000D01*
X102373000Y-112373000D01*
X102373000Y-112353000D01*
X102627000Y-112353000D01*
X102627000Y-112373000D01*
X103826250Y-112373000D01*
X103985000Y-112214250D01*
X103988072Y-111650000D01*
X103975812Y-111525518D01*
X103939502Y-111405820D01*
X103880537Y-111295506D01*
X103801185Y-111198815D01*
X103704494Y-111119463D01*
X103594180Y-111060498D01*
X103521620Y-111038487D01*
X103653475Y-110906632D01*
X103815990Y-110663411D01*
X103927932Y-110393158D01*
X103985000Y-110106260D01*
X103985000Y-109813740D01*
X103927932Y-109526842D01*
X103815990Y-109256589D01*
X103653475Y-109013368D01*
X103446632Y-108806525D01*
X103272240Y-108690000D01*
X103446632Y-108573475D01*
X103653475Y-108366632D01*
X103815990Y-108123411D01*
X103927932Y-107853158D01*
X103985000Y-107566260D01*
X103985000Y-107510512D01*
X107794888Y-111320401D01*
X107579488Y-111309783D01*
X107299870Y-111351213D01*
X107033708Y-111446397D01*
X106908486Y-111513329D01*
X106836903Y-111757298D01*
X107650000Y-112570395D01*
X107664143Y-112556253D01*
X107843748Y-112735858D01*
X107829605Y-112750000D01*
X108642702Y-113563097D01*
X108886671Y-113491514D01*
X108950000Y-113357674D01*
X108950001Y-116575365D01*
X108845241Y-116645363D01*
X108645363Y-116845241D01*
X108490000Y-117077759D01*
X108334637Y-116845241D01*
X108134759Y-116645363D01*
X107899727Y-116488320D01*
X107638574Y-116380147D01*
X107361335Y-116325000D01*
X107078665Y-116325000D01*
X106955093Y-116349580D01*
X105910899Y-115305387D01*
X105885528Y-115274472D01*
X105762189Y-115173251D01*
X105621473Y-115098037D01*
X105468788Y-115051720D01*
X105349791Y-115040000D01*
X105349788Y-115040000D01*
X105310000Y-115036081D01*
X105270212Y-115040000D01*
X103385513Y-115040000D01*
X102272381Y-113926869D01*
X102373000Y-113826250D01*
X102373000Y-112627000D01*
X102627000Y-112627000D01*
X102627000Y-113826250D01*
X102785750Y-113985000D01*
X103350000Y-113988072D01*
X103474482Y-113975812D01*
X103594180Y-113939502D01*
X103704494Y-113880537D01*
X103801185Y-113801185D01*
X103849180Y-113742702D01*
X106836903Y-113742702D01*
X106908486Y-113986671D01*
X107163996Y-114107571D01*
X107438184Y-114176300D01*
X107720512Y-114190217D01*
X108000130Y-114148787D01*
X108266292Y-114053603D01*
X108391514Y-113986671D01*
X108463097Y-113742702D01*
X107650000Y-112929605D01*
X106836903Y-113742702D01*
X103849180Y-113742702D01*
X103880537Y-113704494D01*
X103939502Y-113594180D01*
X103975812Y-113474482D01*
X103988072Y-113350000D01*
X103985190Y-112820512D01*
X106209783Y-112820512D01*
X106251213Y-113100130D01*
X106346397Y-113366292D01*
X106413329Y-113491514D01*
X106657298Y-113563097D01*
X107470395Y-112750000D01*
X106657298Y-111936903D01*
X106413329Y-112008486D01*
X106292429Y-112263996D01*
X106223700Y-112538184D01*
X106209783Y-112820512D01*
X103985190Y-112820512D01*
X103985000Y-112785750D01*
X103826250Y-112627000D01*
X102627000Y-112627000D01*
X102373000Y-112627000D01*
X101173750Y-112627000D01*
X101073131Y-112727619D01*
X100460000Y-112114488D01*
X100460000Y-100445512D01*
X101015000Y-99890512D01*
X101015000Y-99946260D01*
G36*
X114365764Y-102098691D02*
G01*
X114338057Y-102380000D01*
X114365764Y-102661309D01*
X114447818Y-102931808D01*
X114581068Y-103181101D01*
X114760392Y-103399608D01*
X114978899Y-103578932D01*
X115106741Y-103647265D01*
X114877161Y-103797399D01*
X114675500Y-103995105D01*
X114516285Y-104228354D01*
X114405633Y-104488182D01*
X114388096Y-104570961D01*
X114510085Y-104793000D01*
X116053000Y-104793000D01*
X116053000Y-104773000D01*
X116307000Y-104773000D01*
X116307000Y-104793000D01*
X117849915Y-104793000D01*
X117971904Y-104570961D01*
X117954367Y-104488182D01*
X117843715Y-104228354D01*
X117684500Y-103995105D01*
X117482839Y-103797399D01*
X117253259Y-103647265D01*
X117381101Y-103578932D01*
X117599608Y-103399608D01*
X117778932Y-103181101D01*
X117912182Y-102931808D01*
X117994236Y-102661309D01*
X118021943Y-102380000D01*
X117994236Y-102098691D01*
X117968846Y-102014990D01*
X118019478Y-102014990D01*
X119790001Y-103785514D01*
X119790000Y-108310212D01*
X119786081Y-108350000D01*
X119790000Y-108389788D01*
X119790000Y-108389790D01*
X119801720Y-108508787D01*
X119848037Y-108661472D01*
X119883049Y-108726975D01*
X119923251Y-108802189D01*
X119926810Y-108806525D01*
X120024472Y-108925528D01*
X120055387Y-108950899D01*
X121649105Y-110544618D01*
X121674472Y-110575528D01*
X121742210Y-110631119D01*
X121797810Y-110676749D01*
X121813698Y-110685241D01*
X121938527Y-110751963D01*
X121961928Y-110759062D01*
X121961928Y-110800000D01*
X121974188Y-110924482D01*
X122010498Y-111044180D01*
X122069463Y-111154494D01*
X122148815Y-111251185D01*
X122245506Y-111330537D01*
X122355820Y-111389502D01*
X122475518Y-111425812D01*
X122600000Y-111438072D01*
X124716416Y-111438072D01*
X123714488Y-112440000D01*
X116849788Y-112440000D01*
X116810000Y-112436081D01*
X116770212Y-112440000D01*
X116770209Y-112440000D01*
X116651212Y-112451720D01*
X116498527Y-112498037D01*
X116357811Y-112573251D01*
X116234472Y-112674472D01*
X116209107Y-112705380D01*
X112564908Y-116349580D01*
X112441335Y-116325000D01*
X112158665Y-116325000D01*
X111881426Y-116380147D01*
X111620273Y-116488320D01*
X111385241Y-116645363D01*
X111185363Y-116845241D01*
X111030000Y-117077759D01*
X110874637Y-116845241D01*
X110674759Y-116645363D01*
X110570000Y-116575365D01*
X110570000Y-112608665D01*
X111215000Y-112608665D01*
X111215000Y-112891335D01*
X111270147Y-113168574D01*
X111378320Y-113429727D01*
X111535363Y-113664759D01*
X111735241Y-113864637D01*
X111970273Y-114021680D01*
X112231426Y-114129853D01*
X112508665Y-114185000D01*
X112791335Y-114185000D01*
X113068574Y-114129853D01*
X113329727Y-114021680D01*
X113564759Y-113864637D01*
X113764637Y-113664759D01*
X113921680Y-113429727D01*
X114029853Y-113168574D01*
X114085000Y-112891335D01*
X114085000Y-112608665D01*
X114029853Y-112331426D01*
X113921680Y-112070273D01*
X113764637Y-111835241D01*
X113564759Y-111635363D01*
X113329727Y-111478320D01*
X113068574Y-111370147D01*
X112791335Y-111315000D01*
X112508665Y-111315000D01*
X112231426Y-111370147D01*
X111970273Y-111478320D01*
X111735241Y-111635363D01*
X111535363Y-111835241D01*
X111378320Y-112070273D01*
X111270147Y-112331426D01*
X111215000Y-112608665D01*
X110570000Y-112608665D01*
X110570000Y-112179787D01*
X110573919Y-112139999D01*
X110570000Y-112100209D01*
X110558280Y-111981212D01*
X110511963Y-111828527D01*
X110436749Y-111687811D01*
X110335528Y-111564472D01*
X110304619Y-111539106D01*
X108765513Y-110000000D01*
X114338057Y-110000000D01*
X114365764Y-110281309D01*
X114447818Y-110551808D01*
X114581068Y-110801101D01*
X114760392Y-111019608D01*
X114978899Y-111198932D01*
X115228192Y-111332182D01*
X115498691Y-111414236D01*
X115709508Y-111435000D01*
X116650492Y-111435000D01*
X116861309Y-111414236D01*
X117131808Y-111332182D01*
X117381101Y-111198932D01*
X117599608Y-111019608D01*
X117778932Y-110801101D01*
X117912182Y-110551808D01*
X117994236Y-110281309D01*
X118021943Y-110000000D01*
X117994236Y-109718691D01*
X117912182Y-109448192D01*
X117778932Y-109198899D01*
X117599608Y-108980392D01*
X117381101Y-108801068D01*
X117253259Y-108732735D01*
X117482839Y-108582601D01*
X117684500Y-108384895D01*
X117843715Y-108151646D01*
X117954367Y-107891818D01*
X117971904Y-107809039D01*
X117849915Y-107587000D01*
X116307000Y-107587000D01*
X116307000Y-107607000D01*
X116053000Y-107607000D01*
X116053000Y-107587000D01*
X114510085Y-107587000D01*
X114388096Y-107809039D01*
X114405633Y-107891818D01*
X114516285Y-108151646D01*
X114675500Y-108384895D01*
X114877161Y-108582601D01*
X115106741Y-108732735D01*
X114978899Y-108801068D01*
X114760392Y-108980392D01*
X114581068Y-109198899D01*
X114447818Y-109448192D01*
X114365764Y-109718691D01*
X114338057Y-110000000D01*
X108765513Y-110000000D01*
X104034552Y-105269039D01*
X114388096Y-105269039D01*
X114405633Y-105351818D01*
X114516285Y-105611646D01*
X114675500Y-105844895D01*
X114877161Y-106042601D01*
X115102559Y-106190000D01*
X114877161Y-106337399D01*
X114675500Y-106535105D01*
X114516285Y-106768354D01*
X114405633Y-107028182D01*
X114388096Y-107110961D01*
X114510085Y-107333000D01*
X116053000Y-107333000D01*
X116053000Y-105047000D01*
X116307000Y-105047000D01*
X116307000Y-107333000D01*
X117849915Y-107333000D01*
X117971904Y-107110961D01*
X117954367Y-107028182D01*
X117843715Y-106768354D01*
X117684500Y-106535105D01*
X117482839Y-106337399D01*
X117257441Y-106190000D01*
X117482839Y-106042601D01*
X117684500Y-105844895D01*
X117843715Y-105611646D01*
X117954367Y-105351818D01*
X117971904Y-105269039D01*
X117849915Y-105047000D01*
X116307000Y-105047000D01*
X116053000Y-105047000D01*
X114510085Y-105047000D01*
X114388096Y-105269039D01*
X104034552Y-105269039D01*
X103952941Y-105187429D01*
X103985000Y-105026260D01*
X103985000Y-104733740D01*
X103927932Y-104446842D01*
X103815990Y-104176589D01*
X103653475Y-103933368D01*
X103446632Y-103726525D01*
X103272240Y-103610000D01*
X103446632Y-103493475D01*
X103653475Y-103286632D01*
X103815990Y-103043411D01*
X103927932Y-102773158D01*
X103985000Y-102486260D01*
X103985000Y-102193740D01*
X103949444Y-102014990D01*
X114391154Y-102014990D01*
X114365764Y-102098691D01*
G37*
X114365764Y-102098691D02*
X114338057Y-102380000D01*
X114365764Y-102661309D01*
X114447818Y-102931808D01*
X114581068Y-103181101D01*
X114760392Y-103399608D01*
X114978899Y-103578932D01*
X115106741Y-103647265D01*
X114877161Y-103797399D01*
X114675500Y-103995105D01*
X114516285Y-104228354D01*
X114405633Y-104488182D01*
X114388096Y-104570961D01*
X114510085Y-104793000D01*
X116053000Y-104793000D01*
X116053000Y-104773000D01*
X116307000Y-104773000D01*
X116307000Y-104793000D01*
X117849915Y-104793000D01*
X117971904Y-104570961D01*
X117954367Y-104488182D01*
X117843715Y-104228354D01*
X117684500Y-103995105D01*
X117482839Y-103797399D01*
X117253259Y-103647265D01*
X117381101Y-103578932D01*
X117599608Y-103399608D01*
X117778932Y-103181101D01*
X117912182Y-102931808D01*
X117994236Y-102661309D01*
X118021943Y-102380000D01*
X117994236Y-102098691D01*
X117968846Y-102014990D01*
X118019478Y-102014990D01*
X119790001Y-103785514D01*
X119790000Y-108310212D01*
X119786081Y-108350000D01*
X119790000Y-108389788D01*
X119790000Y-108389790D01*
X119801720Y-108508787D01*
X119848037Y-108661472D01*
X119883049Y-108726975D01*
X119923251Y-108802189D01*
X119926810Y-108806525D01*
X120024472Y-108925528D01*
X120055387Y-108950899D01*
X121649105Y-110544618D01*
X121674472Y-110575528D01*
X121742210Y-110631119D01*
X121797810Y-110676749D01*
X121813698Y-110685241D01*
X121938527Y-110751963D01*
X121961928Y-110759062D01*
X121961928Y-110800000D01*
X121974188Y-110924482D01*
X122010498Y-111044180D01*
X122069463Y-111154494D01*
X122148815Y-111251185D01*
X122245506Y-111330537D01*
X122355820Y-111389502D01*
X122475518Y-111425812D01*
X122600000Y-111438072D01*
X124716416Y-111438072D01*
X123714488Y-112440000D01*
X116849788Y-112440000D01*
X116810000Y-112436081D01*
X116770212Y-112440000D01*
X116770209Y-112440000D01*
X116651212Y-112451720D01*
X116498527Y-112498037D01*
X116357811Y-112573251D01*
X116234472Y-112674472D01*
X116209107Y-112705380D01*
X112564908Y-116349580D01*
X112441335Y-116325000D01*
X112158665Y-116325000D01*
X111881426Y-116380147D01*
X111620273Y-116488320D01*
X111385241Y-116645363D01*
X111185363Y-116845241D01*
X111030000Y-117077759D01*
X110874637Y-116845241D01*
X110674759Y-116645363D01*
X110570000Y-116575365D01*
X110570000Y-112608665D01*
X111215000Y-112608665D01*
X111215000Y-112891335D01*
X111270147Y-113168574D01*
X111378320Y-113429727D01*
X111535363Y-113664759D01*
X111735241Y-113864637D01*
X111970273Y-114021680D01*
X112231426Y-114129853D01*
X112508665Y-114185000D01*
X112791335Y-114185000D01*
X113068574Y-114129853D01*
X113329727Y-114021680D01*
X113564759Y-113864637D01*
X113764637Y-113664759D01*
X113921680Y-113429727D01*
X114029853Y-113168574D01*
X114085000Y-112891335D01*
X114085000Y-112608665D01*
X114029853Y-112331426D01*
X113921680Y-112070273D01*
X113764637Y-111835241D01*
X113564759Y-111635363D01*
X113329727Y-111478320D01*
X113068574Y-111370147D01*
X112791335Y-111315000D01*
X112508665Y-111315000D01*
X112231426Y-111370147D01*
X111970273Y-111478320D01*
X111735241Y-111635363D01*
X111535363Y-111835241D01*
X111378320Y-112070273D01*
X111270147Y-112331426D01*
X111215000Y-112608665D01*
X110570000Y-112608665D01*
X110570000Y-112179787D01*
X110573919Y-112139999D01*
X110570000Y-112100209D01*
X110558280Y-111981212D01*
X110511963Y-111828527D01*
X110436749Y-111687811D01*
X110335528Y-111564472D01*
X110304619Y-111539106D01*
X108765513Y-110000000D01*
X114338057Y-110000000D01*
X114365764Y-110281309D01*
X114447818Y-110551808D01*
X114581068Y-110801101D01*
X114760392Y-111019608D01*
X114978899Y-111198932D01*
X115228192Y-111332182D01*
X115498691Y-111414236D01*
X115709508Y-111435000D01*
X116650492Y-111435000D01*
X116861309Y-111414236D01*
X117131808Y-111332182D01*
X117381101Y-111198932D01*
X117599608Y-111019608D01*
X117778932Y-110801101D01*
X117912182Y-110551808D01*
X117994236Y-110281309D01*
X118021943Y-110000000D01*
X117994236Y-109718691D01*
X117912182Y-109448192D01*
X117778932Y-109198899D01*
X117599608Y-108980392D01*
X117381101Y-108801068D01*
X117253259Y-108732735D01*
X117482839Y-108582601D01*
X117684500Y-108384895D01*
X117843715Y-108151646D01*
X117954367Y-107891818D01*
X117971904Y-107809039D01*
X117849915Y-107587000D01*
X116307000Y-107587000D01*
X116307000Y-107607000D01*
X116053000Y-107607000D01*
X116053000Y-107587000D01*
X114510085Y-107587000D01*
X114388096Y-107809039D01*
X114405633Y-107891818D01*
X114516285Y-108151646D01*
X114675500Y-108384895D01*
X114877161Y-108582601D01*
X115106741Y-108732735D01*
X114978899Y-108801068D01*
X114760392Y-108980392D01*
X114581068Y-109198899D01*
X114447818Y-109448192D01*
X114365764Y-109718691D01*
X114338057Y-110000000D01*
X108765513Y-110000000D01*
X104034552Y-105269039D01*
X114388096Y-105269039D01*
X114405633Y-105351818D01*
X114516285Y-105611646D01*
X114675500Y-105844895D01*
X114877161Y-106042601D01*
X115102559Y-106190000D01*
X114877161Y-106337399D01*
X114675500Y-106535105D01*
X114516285Y-106768354D01*
X114405633Y-107028182D01*
X114388096Y-107110961D01*
X114510085Y-107333000D01*
X116053000Y-107333000D01*
X116053000Y-105047000D01*
X116307000Y-105047000D01*
X116307000Y-107333000D01*
X117849915Y-107333000D01*
X117971904Y-107110961D01*
X117954367Y-107028182D01*
X117843715Y-106768354D01*
X117684500Y-106535105D01*
X117482839Y-106337399D01*
X117257441Y-106190000D01*
X117482839Y-106042601D01*
X117684500Y-105844895D01*
X117843715Y-105611646D01*
X117954367Y-105351818D01*
X117971904Y-105269039D01*
X117849915Y-105047000D01*
X116307000Y-105047000D01*
X116053000Y-105047000D01*
X114510085Y-105047000D01*
X114388096Y-105269039D01*
X104034552Y-105269039D01*
X103952941Y-105187429D01*
X103985000Y-105026260D01*
X103985000Y-104733740D01*
X103927932Y-104446842D01*
X103815990Y-104176589D01*
X103653475Y-103933368D01*
X103446632Y-103726525D01*
X103272240Y-103610000D01*
X103446632Y-103493475D01*
X103653475Y-103286632D01*
X103815990Y-103043411D01*
X103927932Y-102773158D01*
X103985000Y-102486260D01*
X103985000Y-102193740D01*
X103949444Y-102014990D01*
X114391154Y-102014990D01*
X114365764Y-102098691D01*
G36*
X139039990Y-97405503D02*
G01*
X139039989Y-113864498D01*
X138014488Y-114890000D01*
X134719788Y-114890000D01*
X134680000Y-114886081D01*
X134640212Y-114890000D01*
X134640209Y-114890000D01*
X134521212Y-114901720D01*
X134368527Y-114948037D01*
X134338814Y-114963919D01*
X134227810Y-115023251D01*
X134163796Y-115075786D01*
X134104472Y-115124472D01*
X134079107Y-115155380D01*
X132884907Y-116349580D01*
X132761335Y-116325000D01*
X132478665Y-116325000D01*
X132231309Y-116374203D01*
X136015000Y-112590513D01*
X136015000Y-112627002D01*
X136173748Y-112627002D01*
X136015000Y-112785750D01*
X136011928Y-113350000D01*
X136024188Y-113474482D01*
X136060498Y-113594180D01*
X136119463Y-113704494D01*
X136198815Y-113801185D01*
X136295506Y-113880537D01*
X136405820Y-113939502D01*
X136525518Y-113975812D01*
X136650000Y-113988072D01*
X137214250Y-113985000D01*
X137373000Y-113826250D01*
X137373000Y-112627000D01*
X137627000Y-112627000D01*
X137627000Y-113826250D01*
X137785750Y-113985000D01*
X138350000Y-113988072D01*
X138474482Y-113975812D01*
X138594180Y-113939502D01*
X138704494Y-113880537D01*
X138801185Y-113801185D01*
X138880537Y-113704494D01*
X138939502Y-113594180D01*
X138975812Y-113474482D01*
X138988072Y-113350000D01*
X138985000Y-112785750D01*
X138826250Y-112627000D01*
X137627000Y-112627000D01*
X137373000Y-112627000D01*
X137353000Y-112627000D01*
X137353000Y-112373000D01*
X137373000Y-112373000D01*
X137373000Y-112353000D01*
X137627000Y-112353000D01*
X137627000Y-112373000D01*
X138826250Y-112373000D01*
X138985000Y-112214250D01*
X138988072Y-111650000D01*
X138975812Y-111525518D01*
X138939502Y-111405820D01*
X138880537Y-111295506D01*
X138801185Y-111198815D01*
X138704494Y-111119463D01*
X138594180Y-111060498D01*
X138521620Y-111038487D01*
X138653475Y-110906632D01*
X138815990Y-110663411D01*
X138927932Y-110393158D01*
X138985000Y-110106260D01*
X138985000Y-109813740D01*
X138927932Y-109526842D01*
X138815990Y-109256589D01*
X138653475Y-109013368D01*
X138446632Y-108806525D01*
X138272240Y-108690000D01*
X138446632Y-108573475D01*
X138653475Y-108366632D01*
X138815990Y-108123411D01*
X138927932Y-107853158D01*
X138985000Y-107566260D01*
X138985000Y-107273740D01*
X138927932Y-106986842D01*
X138815990Y-106716589D01*
X138653475Y-106473368D01*
X138446632Y-106266525D01*
X138272240Y-106150000D01*
X138446632Y-106033475D01*
X138653475Y-105826632D01*
X138815990Y-105583411D01*
X138927932Y-105313158D01*
X138985000Y-105026260D01*
X138985000Y-104733740D01*
X138927932Y-104446842D01*
X138815990Y-104176589D01*
X138653475Y-103933368D01*
X138446632Y-103726525D01*
X138272240Y-103610000D01*
X138446632Y-103493475D01*
X138653475Y-103286632D01*
X138815990Y-103043411D01*
X138927932Y-102773158D01*
X138985000Y-102486260D01*
X138985000Y-102193740D01*
X138927932Y-101906842D01*
X138815990Y-101636589D01*
X138653475Y-101393368D01*
X138446632Y-101186525D01*
X138272240Y-101070000D01*
X138446632Y-100953475D01*
X138653475Y-100746632D01*
X138815990Y-100503411D01*
X138927932Y-100233158D01*
X138985000Y-99946260D01*
X138985000Y-99653740D01*
X138927932Y-99366842D01*
X138815990Y-99096589D01*
X138653475Y-98853368D01*
X138446632Y-98646525D01*
X138272240Y-98530000D01*
X138446632Y-98413475D01*
X138653475Y-98206632D01*
X138815990Y-97963411D01*
X138927932Y-97693158D01*
X138985000Y-97406260D01*
X138985000Y-97350513D01*
X139039990Y-97405503D01*
G37*
X139039990Y-97405503D02*
X139039989Y-113864498D01*
X138014488Y-114890000D01*
X134719788Y-114890000D01*
X134680000Y-114886081D01*
X134640212Y-114890000D01*
X134640209Y-114890000D01*
X134521212Y-114901720D01*
X134368527Y-114948037D01*
X134338814Y-114963919D01*
X134227810Y-115023251D01*
X134163796Y-115075786D01*
X134104472Y-115124472D01*
X134079107Y-115155380D01*
X132884907Y-116349580D01*
X132761335Y-116325000D01*
X132478665Y-116325000D01*
X132231309Y-116374203D01*
X136015000Y-112590513D01*
X136015000Y-112627002D01*
X136173748Y-112627002D01*
X136015000Y-112785750D01*
X136011928Y-113350000D01*
X136024188Y-113474482D01*
X136060498Y-113594180D01*
X136119463Y-113704494D01*
X136198815Y-113801185D01*
X136295506Y-113880537D01*
X136405820Y-113939502D01*
X136525518Y-113975812D01*
X136650000Y-113988072D01*
X137214250Y-113985000D01*
X137373000Y-113826250D01*
X137373000Y-112627000D01*
X137627000Y-112627000D01*
X137627000Y-113826250D01*
X137785750Y-113985000D01*
X138350000Y-113988072D01*
X138474482Y-113975812D01*
X138594180Y-113939502D01*
X138704494Y-113880537D01*
X138801185Y-113801185D01*
X138880537Y-113704494D01*
X138939502Y-113594180D01*
X138975812Y-113474482D01*
X138988072Y-113350000D01*
X138985000Y-112785750D01*
X138826250Y-112627000D01*
X137627000Y-112627000D01*
X137373000Y-112627000D01*
X137353000Y-112627000D01*
X137353000Y-112373000D01*
X137373000Y-112373000D01*
X137373000Y-112353000D01*
X137627000Y-112353000D01*
X137627000Y-112373000D01*
X138826250Y-112373000D01*
X138985000Y-112214250D01*
X138988072Y-111650000D01*
X138975812Y-111525518D01*
X138939502Y-111405820D01*
X138880537Y-111295506D01*
X138801185Y-111198815D01*
X138704494Y-111119463D01*
X138594180Y-111060498D01*
X138521620Y-111038487D01*
X138653475Y-110906632D01*
X138815990Y-110663411D01*
X138927932Y-110393158D01*
X138985000Y-110106260D01*
X138985000Y-109813740D01*
X138927932Y-109526842D01*
X138815990Y-109256589D01*
X138653475Y-109013368D01*
X138446632Y-108806525D01*
X138272240Y-108690000D01*
X138446632Y-108573475D01*
X138653475Y-108366632D01*
X138815990Y-108123411D01*
X138927932Y-107853158D01*
X138985000Y-107566260D01*
X138985000Y-107273740D01*
X138927932Y-106986842D01*
X138815990Y-106716589D01*
X138653475Y-106473368D01*
X138446632Y-106266525D01*
X138272240Y-106150000D01*
X138446632Y-106033475D01*
X138653475Y-105826632D01*
X138815990Y-105583411D01*
X138927932Y-105313158D01*
X138985000Y-105026260D01*
X138985000Y-104733740D01*
X138927932Y-104446842D01*
X138815990Y-104176589D01*
X138653475Y-103933368D01*
X138446632Y-103726525D01*
X138272240Y-103610000D01*
X138446632Y-103493475D01*
X138653475Y-103286632D01*
X138815990Y-103043411D01*
X138927932Y-102773158D01*
X138985000Y-102486260D01*
X138985000Y-102193740D01*
X138927932Y-101906842D01*
X138815990Y-101636589D01*
X138653475Y-101393368D01*
X138446632Y-101186525D01*
X138272240Y-101070000D01*
X138446632Y-100953475D01*
X138653475Y-100746632D01*
X138815990Y-100503411D01*
X138927932Y-100233158D01*
X138985000Y-99946260D01*
X138985000Y-99653740D01*
X138927932Y-99366842D01*
X138815990Y-99096589D01*
X138653475Y-98853368D01*
X138446632Y-98646525D01*
X138272240Y-98530000D01*
X138446632Y-98413475D01*
X138653475Y-98206632D01*
X138815990Y-97963411D01*
X138927932Y-97693158D01*
X138985000Y-97406260D01*
X138985000Y-97350513D01*
X139039990Y-97405503D01*
G36*
X122724907Y-116349580D02*
G01*
X122601335Y-116325000D01*
X122318665Y-116325000D01*
X122195093Y-116349580D01*
X121400899Y-115555387D01*
X121375528Y-115524472D01*
X121252189Y-115423251D01*
X121111473Y-115348037D01*
X120958788Y-115301720D01*
X120839791Y-115290000D01*
X120839788Y-115290000D01*
X120800000Y-115286081D01*
X120760212Y-115290000D01*
X117324143Y-115290000D01*
X117904143Y-114710000D01*
X124364487Y-114710000D01*
X122724907Y-116349580D01*
G37*
X122724907Y-116349580D02*
X122601335Y-116325000D01*
X122318665Y-116325000D01*
X122195093Y-116349580D01*
X121400899Y-115555387D01*
X121375528Y-115524472D01*
X121252189Y-115423251D01*
X121111473Y-115348037D01*
X120958788Y-115301720D01*
X120839791Y-115290000D01*
X120839788Y-115290000D01*
X120800000Y-115286081D01*
X120760212Y-115290000D01*
X117324143Y-115290000D01*
X117904143Y-114710000D01*
X124364487Y-114710000D01*
X122724907Y-116349580D01*
G36*
X94780392Y-105679608D02*
G01*
X94893482Y-105772419D01*
X94875518Y-105774188D01*
X94755820Y-105810498D01*
X94645506Y-105869463D01*
X94548815Y-105948815D01*
X94469463Y-106045506D01*
X94410498Y-106155820D01*
X94374188Y-106275518D01*
X94361928Y-106400000D01*
X94365000Y-106914250D01*
X94523750Y-107073000D01*
X96073000Y-107073000D01*
X96073000Y-107053000D01*
X96327000Y-107053000D01*
X96327000Y-107073000D01*
X96347000Y-107073000D01*
X96347000Y-107327000D01*
X96327000Y-107327000D01*
X96327000Y-108476250D01*
X96485750Y-108635000D01*
X97400000Y-108638072D01*
X97524482Y-108625812D01*
X97644180Y-108589502D01*
X97754494Y-108530537D01*
X97840001Y-108460364D01*
X97840001Y-114123201D01*
X97814637Y-114085241D01*
X97614759Y-113885363D01*
X97379727Y-113728320D01*
X97118574Y-113620147D01*
X96841335Y-113565000D01*
X96558665Y-113565000D01*
X96281426Y-113620147D01*
X96020273Y-113728320D01*
X95785241Y-113885363D01*
X95585363Y-114085241D01*
X95428320Y-114320273D01*
X95320147Y-114581426D01*
X95265000Y-114858665D01*
X95265000Y-114869488D01*
X94210000Y-113814488D01*
X94210000Y-108000000D01*
X94361928Y-108000000D01*
X94374188Y-108124482D01*
X94410498Y-108244180D01*
X94469463Y-108354494D01*
X94548815Y-108451185D01*
X94645506Y-108530537D01*
X94755820Y-108589502D01*
X94875518Y-108625812D01*
X95000000Y-108638072D01*
X95914250Y-108635000D01*
X96073000Y-108476250D01*
X96073000Y-107327000D01*
X94523750Y-107327000D01*
X94365000Y-107485750D01*
X94361928Y-108000000D01*
X94210000Y-108000000D01*
X94210000Y-106245512D01*
X94778369Y-105677143D01*
X94780392Y-105679608D01*
G37*
X94780392Y-105679608D02*
X94893482Y-105772419D01*
X94875518Y-105774188D01*
X94755820Y-105810498D01*
X94645506Y-105869463D01*
X94548815Y-105948815D01*
X94469463Y-106045506D01*
X94410498Y-106155820D01*
X94374188Y-106275518D01*
X94361928Y-106400000D01*
X94365000Y-106914250D01*
X94523750Y-107073000D01*
X96073000Y-107073000D01*
X96073000Y-107053000D01*
X96327000Y-107053000D01*
X96327000Y-107073000D01*
X96347000Y-107073000D01*
X96347000Y-107327000D01*
X96327000Y-107327000D01*
X96327000Y-108476250D01*
X96485750Y-108635000D01*
X97400000Y-108638072D01*
X97524482Y-108625812D01*
X97644180Y-108589502D01*
X97754494Y-108530537D01*
X97840001Y-108460364D01*
X97840001Y-114123201D01*
X97814637Y-114085241D01*
X97614759Y-113885363D01*
X97379727Y-113728320D01*
X97118574Y-113620147D01*
X96841335Y-113565000D01*
X96558665Y-113565000D01*
X96281426Y-113620147D01*
X96020273Y-113728320D01*
X95785241Y-113885363D01*
X95585363Y-114085241D01*
X95428320Y-114320273D01*
X95320147Y-114581426D01*
X95265000Y-114858665D01*
X95265000Y-114869488D01*
X94210000Y-113814488D01*
X94210000Y-108000000D01*
X94361928Y-108000000D01*
X94374188Y-108124482D01*
X94410498Y-108244180D01*
X94469463Y-108354494D01*
X94548815Y-108451185D01*
X94645506Y-108530537D01*
X94755820Y-108589502D01*
X94875518Y-108625812D01*
X95000000Y-108638072D01*
X95914250Y-108635000D01*
X96073000Y-108476250D01*
X96073000Y-107327000D01*
X94523750Y-107327000D01*
X94365000Y-107485750D01*
X94361928Y-108000000D01*
X94210000Y-108000000D01*
X94210000Y-106245512D01*
X94778369Y-105677143D01*
X94780392Y-105679608D01*
G36*
X140640000Y-79273381D02*
G01*
X140640000Y-91634487D01*
X138952941Y-89947429D01*
X138985000Y-89786260D01*
X138985000Y-89493740D01*
X138927932Y-89206842D01*
X138815990Y-88936589D01*
X138653475Y-88693368D01*
X138446632Y-88486525D01*
X138272240Y-88370000D01*
X138446632Y-88253475D01*
X138653475Y-88046632D01*
X138815990Y-87803411D01*
X138927932Y-87533158D01*
X138985000Y-87246260D01*
X138985000Y-86953740D01*
X138927932Y-86666842D01*
X138815990Y-86396589D01*
X138653475Y-86153368D01*
X138446632Y-85946525D01*
X138264466Y-85824805D01*
X138381355Y-85755178D01*
X138597588Y-85560269D01*
X138771641Y-85326920D01*
X138896825Y-85064099D01*
X138941476Y-84916890D01*
X138820155Y-84687000D01*
X137627000Y-84687000D01*
X137627000Y-84707000D01*
X137373000Y-84707000D01*
X137373000Y-84687000D01*
X136179845Y-84687000D01*
X136058524Y-84916890D01*
X136103175Y-85064099D01*
X136228359Y-85326920D01*
X136402412Y-85560269D01*
X136618645Y-85755178D01*
X136735534Y-85824805D01*
X136553368Y-85946525D01*
X136346525Y-86153368D01*
X136255230Y-86290000D01*
X135289791Y-86290000D01*
X135250000Y-86286081D01*
X135091212Y-86301720D01*
X134938526Y-86348037D01*
X134824869Y-86408788D01*
X134797811Y-86423251D01*
X134674472Y-86524472D01*
X134649105Y-86555382D01*
X129355383Y-91849105D01*
X129324473Y-91874472D01*
X129278852Y-91930061D01*
X129223251Y-91997811D01*
X129175146Y-92087811D01*
X129148038Y-92138527D01*
X129120737Y-92228527D01*
X129101721Y-92291213D01*
X129086081Y-92450000D01*
X129090001Y-92489798D01*
X129090000Y-102574487D01*
X125221631Y-106442857D01*
X125219608Y-106440392D01*
X125001101Y-106261068D01*
X124868142Y-106190000D01*
X125001101Y-106118932D01*
X125219608Y-105939608D01*
X125398932Y-105721101D01*
X125532182Y-105471808D01*
X125614236Y-105201309D01*
X125641943Y-104920000D01*
X125614236Y-104638691D01*
X125532182Y-104368192D01*
X125398932Y-104118899D01*
X125219608Y-103900392D01*
X125001101Y-103721068D01*
X124873259Y-103652735D01*
X125102839Y-103502601D01*
X125304500Y-103304895D01*
X125463715Y-103071646D01*
X125574367Y-102811818D01*
X125591904Y-102729039D01*
X125469915Y-102507000D01*
X123927000Y-102507000D01*
X123927000Y-102527000D01*
X123673000Y-102527000D01*
X123673000Y-102507000D01*
X122130085Y-102507000D01*
X122008096Y-102729039D01*
X122025633Y-102811818D01*
X122136285Y-103071646D01*
X122295500Y-103304895D01*
X122497161Y-103502601D01*
X122726741Y-103652735D01*
X122598899Y-103721068D01*
X122380392Y-103900392D01*
X122201068Y-104118899D01*
X122067818Y-104368192D01*
X121985764Y-104638691D01*
X121958057Y-104920000D01*
X121985764Y-105201309D01*
X122067818Y-105471808D01*
X122201068Y-105721101D01*
X122380392Y-105939608D01*
X122598899Y-106118932D01*
X122731858Y-106190000D01*
X122598899Y-106261068D01*
X122380392Y-106440392D01*
X122201068Y-106658899D01*
X122067818Y-106908192D01*
X121985764Y-107178691D01*
X121958057Y-107460000D01*
X121985764Y-107741309D01*
X122067818Y-108011808D01*
X122201068Y-108261101D01*
X122380392Y-108479608D01*
X122493482Y-108572419D01*
X122475518Y-108574188D01*
X122355820Y-108610498D01*
X122245506Y-108669463D01*
X122148815Y-108748815D01*
X122146792Y-108751280D01*
X121410000Y-108014488D01*
X121410000Y-103489791D01*
X121413919Y-103450000D01*
X121398280Y-103291212D01*
X121351963Y-103138526D01*
X121276749Y-102997811D01*
X121200893Y-102905380D01*
X121175528Y-102874472D01*
X121144618Y-102849105D01*
X118955889Y-100660377D01*
X118930518Y-100629462D01*
X118807179Y-100528241D01*
X118666463Y-100453027D01*
X118513778Y-100406710D01*
X118394781Y-100394990D01*
X118394778Y-100394990D01*
X118354990Y-100391071D01*
X118315202Y-100394990D01*
X117901912Y-100394990D01*
X117954367Y-100271818D01*
X117971904Y-100189039D01*
X122008096Y-100189039D01*
X122025633Y-100271818D01*
X122136285Y-100531646D01*
X122295500Y-100764895D01*
X122497161Y-100962601D01*
X122722559Y-101110000D01*
X122497161Y-101257399D01*
X122295500Y-101455105D01*
X122136285Y-101688354D01*
X122025633Y-101948182D01*
X122008096Y-102030961D01*
X122130085Y-102253000D01*
X123673000Y-102253000D01*
X123673000Y-99967000D01*
X123927000Y-99967000D01*
X123927000Y-102253000D01*
X125469915Y-102253000D01*
X125591904Y-102030961D01*
X125574367Y-101948182D01*
X125463715Y-101688354D01*
X125304500Y-101455105D01*
X125102839Y-101257399D01*
X124877441Y-101110000D01*
X125102839Y-100962601D01*
X125304500Y-100764895D01*
X125463715Y-100531646D01*
X125574367Y-100271818D01*
X125591904Y-100189039D01*
X125469915Y-99967000D01*
X123927000Y-99967000D01*
X123673000Y-99967000D01*
X122130085Y-99967000D01*
X122008096Y-100189039D01*
X117971904Y-100189039D01*
X117849915Y-99967000D01*
X116307000Y-99967000D01*
X116307000Y-99987000D01*
X116053000Y-99987000D01*
X116053000Y-99967000D01*
X114510085Y-99967000D01*
X114388096Y-100189039D01*
X114405633Y-100271818D01*
X114458088Y-100394990D01*
X104240503Y-100394990D01*
X103952941Y-100107429D01*
X103985000Y-99946260D01*
X103985000Y-99653740D01*
X103927932Y-99366842D01*
X103815990Y-99096589D01*
X103653475Y-98853368D01*
X103446632Y-98646525D01*
X103272240Y-98530000D01*
X103446632Y-98413475D01*
X103653475Y-98206632D01*
X103815990Y-97963411D01*
X103927932Y-97693158D01*
X103936707Y-97649039D01*
X114388096Y-97649039D01*
X114405633Y-97731818D01*
X114516285Y-97991646D01*
X114675500Y-98224895D01*
X114877161Y-98422601D01*
X115102559Y-98570000D01*
X114877161Y-98717399D01*
X114675500Y-98915105D01*
X114516285Y-99148354D01*
X114405633Y-99408182D01*
X114388096Y-99490961D01*
X114510085Y-99713000D01*
X116053000Y-99713000D01*
X116053000Y-97427000D01*
X116307000Y-97427000D01*
X116307000Y-99713000D01*
X117849915Y-99713000D01*
X117971904Y-99490961D01*
X117954367Y-99408182D01*
X117843715Y-99148354D01*
X117684500Y-98915105D01*
X117482839Y-98717399D01*
X117257441Y-98570000D01*
X117482839Y-98422601D01*
X117684500Y-98224895D01*
X117843715Y-97991646D01*
X117954367Y-97731818D01*
X117971904Y-97649039D01*
X117849915Y-97427000D01*
X116307000Y-97427000D01*
X116053000Y-97427000D01*
X114510085Y-97427000D01*
X114388096Y-97649039D01*
X103936707Y-97649039D01*
X103985000Y-97406260D01*
X103985000Y-97300000D01*
X121958057Y-97300000D01*
X121985764Y-97581309D01*
X122067818Y-97851808D01*
X122201068Y-98101101D01*
X122380392Y-98319608D01*
X122598899Y-98498932D01*
X122726741Y-98567265D01*
X122497161Y-98717399D01*
X122295500Y-98915105D01*
X122136285Y-99148354D01*
X122025633Y-99408182D01*
X122008096Y-99490961D01*
X122130085Y-99713000D01*
X123673000Y-99713000D01*
X123673000Y-99693000D01*
X123927000Y-99693000D01*
X123927000Y-99713000D01*
X125469915Y-99713000D01*
X125591904Y-99490961D01*
X125574367Y-99408182D01*
X125463715Y-99148354D01*
X125304500Y-98915105D01*
X125102839Y-98717399D01*
X124873259Y-98567265D01*
X125001101Y-98498932D01*
X125219608Y-98319608D01*
X125398932Y-98101101D01*
X125532182Y-97851808D01*
X125614236Y-97581309D01*
X125641943Y-97300000D01*
X125614236Y-97018691D01*
X125532182Y-96748192D01*
X125398932Y-96498899D01*
X125219608Y-96280392D01*
X125001101Y-96101068D01*
X124873259Y-96032735D01*
X125102839Y-95882601D01*
X125304500Y-95684895D01*
X125463715Y-95451646D01*
X125574367Y-95191818D01*
X125591904Y-95109039D01*
X125469915Y-94887000D01*
X123927000Y-94887000D01*
X123927000Y-94907000D01*
X123673000Y-94907000D01*
X123673000Y-94887000D01*
X122130085Y-94887000D01*
X122008096Y-95109039D01*
X122025633Y-95191818D01*
X122136285Y-95451646D01*
X122295500Y-95684895D01*
X122497161Y-95882601D01*
X122726741Y-96032735D01*
X122598899Y-96101068D01*
X122380392Y-96280392D01*
X122201068Y-96498899D01*
X122067818Y-96748192D01*
X121985764Y-97018691D01*
X121958057Y-97300000D01*
X103985000Y-97300000D01*
X103985000Y-97113740D01*
X103927932Y-96826842D01*
X103815990Y-96556589D01*
X103653475Y-96313368D01*
X103446632Y-96106525D01*
X103272240Y-95990000D01*
X103446632Y-95873475D01*
X103653475Y-95666632D01*
X103815990Y-95423411D01*
X103927932Y-95153158D01*
X103985000Y-94866260D01*
X103985000Y-94760000D01*
X114338057Y-94760000D01*
X114365764Y-95041309D01*
X114447818Y-95311808D01*
X114581068Y-95561101D01*
X114760392Y-95779608D01*
X114978899Y-95958932D01*
X115106741Y-96027265D01*
X114877161Y-96177399D01*
X114675500Y-96375105D01*
X114516285Y-96608354D01*
X114405633Y-96868182D01*
X114388096Y-96950961D01*
X114510085Y-97173000D01*
X116053000Y-97173000D01*
X116053000Y-97153000D01*
X116307000Y-97153000D01*
X116307000Y-97173000D01*
X117849915Y-97173000D01*
X117971904Y-96950961D01*
X117954367Y-96868182D01*
X117843715Y-96608354D01*
X117684500Y-96375105D01*
X117482839Y-96177399D01*
X117253259Y-96027265D01*
X117381101Y-95958932D01*
X117599608Y-95779608D01*
X117778932Y-95561101D01*
X117912182Y-95311808D01*
X117994236Y-95041309D01*
X118021943Y-94760000D01*
X117994236Y-94478691D01*
X117973691Y-94410961D01*
X122008096Y-94410961D01*
X122130085Y-94633000D01*
X123673000Y-94633000D01*
X123673000Y-93325000D01*
X123927000Y-93325000D01*
X123927000Y-94633000D01*
X125469915Y-94633000D01*
X125591904Y-94410961D01*
X125574367Y-94328182D01*
X125463715Y-94068354D01*
X125304500Y-93835105D01*
X125102839Y-93637399D01*
X124866483Y-93482834D01*
X124604514Y-93377350D01*
X124327000Y-93325000D01*
X123927000Y-93325000D01*
X123673000Y-93325000D01*
X123273000Y-93325000D01*
X122995486Y-93377350D01*
X122733517Y-93482834D01*
X122497161Y-93637399D01*
X122295500Y-93835105D01*
X122136285Y-94068354D01*
X122025633Y-94328182D01*
X122008096Y-94410961D01*
X117973691Y-94410961D01*
X117912182Y-94208192D01*
X117778932Y-93958899D01*
X117599608Y-93740392D01*
X117381101Y-93561068D01*
X117131808Y-93427818D01*
X116861309Y-93345764D01*
X116650492Y-93325000D01*
X115709508Y-93325000D01*
X115498691Y-93345764D01*
X115228192Y-93427818D01*
X114978899Y-93561068D01*
X114760392Y-93740392D01*
X114581068Y-93958899D01*
X114447818Y-94208192D01*
X114365764Y-94478691D01*
X114338057Y-94760000D01*
X103985000Y-94760000D01*
X103985000Y-94573740D01*
X103927932Y-94286842D01*
X103815990Y-94016589D01*
X103653475Y-93773368D01*
X103446632Y-93566525D01*
X103272240Y-93450000D01*
X103446632Y-93333475D01*
X103653475Y-93126632D01*
X103815990Y-92883411D01*
X103927932Y-92613158D01*
X103985000Y-92326260D01*
X103985000Y-92033740D01*
X103952941Y-91872571D01*
X106944618Y-88880895D01*
X106975528Y-88855528D01*
X107076749Y-88732189D01*
X107151963Y-88591473D01*
X107198280Y-88438788D01*
X107210000Y-88319791D01*
X107210000Y-88319788D01*
X107213919Y-88280000D01*
X107210000Y-88240212D01*
X107210000Y-84203110D01*
X136058524Y-84203110D01*
X136179845Y-84433000D01*
X137373000Y-84433000D01*
X137373000Y-83239186D01*
X137627000Y-83239186D01*
X137627000Y-84433000D01*
X138820155Y-84433000D01*
X138941476Y-84203110D01*
X138896825Y-84055901D01*
X138771641Y-83793080D01*
X138597588Y-83559731D01*
X138381355Y-83364822D01*
X138131252Y-83215843D01*
X137856891Y-83118519D01*
X137627000Y-83239186D01*
X137373000Y-83239186D01*
X137143109Y-83118519D01*
X136868748Y-83215843D01*
X136618645Y-83364822D01*
X136402412Y-83559731D01*
X136228359Y-83793080D01*
X136103175Y-84055901D01*
X136058524Y-84203110D01*
X107210000Y-84203110D01*
X107210000Y-83289788D01*
X107213919Y-83250000D01*
X107200969Y-83118519D01*
X107198280Y-83091212D01*
X107151963Y-82938527D01*
X107076750Y-82797812D01*
X107076749Y-82797810D01*
X107048257Y-82763093D01*
X106975528Y-82674472D01*
X106944614Y-82649102D01*
X104200900Y-79905388D01*
X104175528Y-79874472D01*
X104052189Y-79773251D01*
X103911473Y-79698037D01*
X103758788Y-79651720D01*
X103639791Y-79640000D01*
X103639788Y-79640000D01*
X103600000Y-79636081D01*
X103560212Y-79640000D01*
X93939787Y-79640000D01*
X93899999Y-79636081D01*
X93860211Y-79640000D01*
X93860209Y-79640000D01*
X93741212Y-79651720D01*
X93588527Y-79698037D01*
X93523024Y-79733049D01*
X93447810Y-79773251D01*
X93392210Y-79818881D01*
X93324472Y-79874472D01*
X93299105Y-79905382D01*
X90055363Y-83149125D01*
X90024453Y-83174492D01*
X89978832Y-83230081D01*
X89942906Y-83273858D01*
X89781101Y-83141068D01*
X89531808Y-83007818D01*
X89261309Y-82925764D01*
X89050492Y-82905000D01*
X88109508Y-82905000D01*
X87898691Y-82925764D01*
X87628192Y-83007818D01*
X87378899Y-83141068D01*
X87160392Y-83320392D01*
X86981068Y-83538899D01*
X86847818Y-83788192D01*
X86765764Y-84058691D01*
X86738057Y-84340000D01*
X86765764Y-84621309D01*
X86847818Y-84891808D01*
X86981068Y-85141101D01*
X87160392Y-85359608D01*
X87378899Y-85538932D01*
X87511858Y-85610000D01*
X87378899Y-85681068D01*
X87160392Y-85860392D01*
X86981068Y-86078899D01*
X86847818Y-86328192D01*
X86765764Y-86598691D01*
X86738057Y-86880000D01*
X86765764Y-87161309D01*
X86847818Y-87431808D01*
X86873894Y-87480593D01*
X81960000Y-92394488D01*
X81960000Y-84273380D01*
X84073381Y-82160000D01*
X88767591Y-82160000D01*
X88800000Y-82163192D01*
X88832409Y-82160000D01*
X88832419Y-82160000D01*
X88929383Y-82150450D01*
X89053793Y-82112710D01*
X89168450Y-82051425D01*
X89268948Y-81968948D01*
X89289616Y-81943764D01*
X94073381Y-77160000D01*
X138526620Y-77160000D01*
X140640000Y-79273381D01*
G37*
X140640000Y-79273381D02*
X140640000Y-91634487D01*
X138952941Y-89947429D01*
X138985000Y-89786260D01*
X138985000Y-89493740D01*
X138927932Y-89206842D01*
X138815990Y-88936589D01*
X138653475Y-88693368D01*
X138446632Y-88486525D01*
X138272240Y-88370000D01*
X138446632Y-88253475D01*
X138653475Y-88046632D01*
X138815990Y-87803411D01*
X138927932Y-87533158D01*
X138985000Y-87246260D01*
X138985000Y-86953740D01*
X138927932Y-86666842D01*
X138815990Y-86396589D01*
X138653475Y-86153368D01*
X138446632Y-85946525D01*
X138264466Y-85824805D01*
X138381355Y-85755178D01*
X138597588Y-85560269D01*
X138771641Y-85326920D01*
X138896825Y-85064099D01*
X138941476Y-84916890D01*
X138820155Y-84687000D01*
X137627000Y-84687000D01*
X137627000Y-84707000D01*
X137373000Y-84707000D01*
X137373000Y-84687000D01*
X136179845Y-84687000D01*
X136058524Y-84916890D01*
X136103175Y-85064099D01*
X136228359Y-85326920D01*
X136402412Y-85560269D01*
X136618645Y-85755178D01*
X136735534Y-85824805D01*
X136553368Y-85946525D01*
X136346525Y-86153368D01*
X136255230Y-86290000D01*
X135289791Y-86290000D01*
X135250000Y-86286081D01*
X135091212Y-86301720D01*
X134938526Y-86348037D01*
X134824869Y-86408788D01*
X134797811Y-86423251D01*
X134674472Y-86524472D01*
X134649105Y-86555382D01*
X129355383Y-91849105D01*
X129324473Y-91874472D01*
X129278852Y-91930061D01*
X129223251Y-91997811D01*
X129175146Y-92087811D01*
X129148038Y-92138527D01*
X129120737Y-92228527D01*
X129101721Y-92291213D01*
X129086081Y-92450000D01*
X129090001Y-92489798D01*
X129090000Y-102574487D01*
X125221631Y-106442857D01*
X125219608Y-106440392D01*
X125001101Y-106261068D01*
X124868142Y-106190000D01*
X125001101Y-106118932D01*
X125219608Y-105939608D01*
X125398932Y-105721101D01*
X125532182Y-105471808D01*
X125614236Y-105201309D01*
X125641943Y-104920000D01*
X125614236Y-104638691D01*
X125532182Y-104368192D01*
X125398932Y-104118899D01*
X125219608Y-103900392D01*
X125001101Y-103721068D01*
X124873259Y-103652735D01*
X125102839Y-103502601D01*
X125304500Y-103304895D01*
X125463715Y-103071646D01*
X125574367Y-102811818D01*
X125591904Y-102729039D01*
X125469915Y-102507000D01*
X123927000Y-102507000D01*
X123927000Y-102527000D01*
X123673000Y-102527000D01*
X123673000Y-102507000D01*
X122130085Y-102507000D01*
X122008096Y-102729039D01*
X122025633Y-102811818D01*
X122136285Y-103071646D01*
X122295500Y-103304895D01*
X122497161Y-103502601D01*
X122726741Y-103652735D01*
X122598899Y-103721068D01*
X122380392Y-103900392D01*
X122201068Y-104118899D01*
X122067818Y-104368192D01*
X121985764Y-104638691D01*
X121958057Y-104920000D01*
X121985764Y-105201309D01*
X122067818Y-105471808D01*
X122201068Y-105721101D01*
X122380392Y-105939608D01*
X122598899Y-106118932D01*
X122731858Y-106190000D01*
X122598899Y-106261068D01*
X122380392Y-106440392D01*
X122201068Y-106658899D01*
X122067818Y-106908192D01*
X121985764Y-107178691D01*
X121958057Y-107460000D01*
X121985764Y-107741309D01*
X122067818Y-108011808D01*
X122201068Y-108261101D01*
X122380392Y-108479608D01*
X122493482Y-108572419D01*
X122475518Y-108574188D01*
X122355820Y-108610498D01*
X122245506Y-108669463D01*
X122148815Y-108748815D01*
X122146792Y-108751280D01*
X121410000Y-108014488D01*
X121410000Y-103489791D01*
X121413919Y-103450000D01*
X121398280Y-103291212D01*
X121351963Y-103138526D01*
X121276749Y-102997811D01*
X121200893Y-102905380D01*
X121175528Y-102874472D01*
X121144618Y-102849105D01*
X118955889Y-100660377D01*
X118930518Y-100629462D01*
X118807179Y-100528241D01*
X118666463Y-100453027D01*
X118513778Y-100406710D01*
X118394781Y-100394990D01*
X118394778Y-100394990D01*
X118354990Y-100391071D01*
X118315202Y-100394990D01*
X117901912Y-100394990D01*
X117954367Y-100271818D01*
X117971904Y-100189039D01*
X122008096Y-100189039D01*
X122025633Y-100271818D01*
X122136285Y-100531646D01*
X122295500Y-100764895D01*
X122497161Y-100962601D01*
X122722559Y-101110000D01*
X122497161Y-101257399D01*
X122295500Y-101455105D01*
X122136285Y-101688354D01*
X122025633Y-101948182D01*
X122008096Y-102030961D01*
X122130085Y-102253000D01*
X123673000Y-102253000D01*
X123673000Y-99967000D01*
X123927000Y-99967000D01*
X123927000Y-102253000D01*
X125469915Y-102253000D01*
X125591904Y-102030961D01*
X125574367Y-101948182D01*
X125463715Y-101688354D01*
X125304500Y-101455105D01*
X125102839Y-101257399D01*
X124877441Y-101110000D01*
X125102839Y-100962601D01*
X125304500Y-100764895D01*
X125463715Y-100531646D01*
X125574367Y-100271818D01*
X125591904Y-100189039D01*
X125469915Y-99967000D01*
X123927000Y-99967000D01*
X123673000Y-99967000D01*
X122130085Y-99967000D01*
X122008096Y-100189039D01*
X117971904Y-100189039D01*
X117849915Y-99967000D01*
X116307000Y-99967000D01*
X116307000Y-99987000D01*
X116053000Y-99987000D01*
X116053000Y-99967000D01*
X114510085Y-99967000D01*
X114388096Y-100189039D01*
X114405633Y-100271818D01*
X114458088Y-100394990D01*
X104240503Y-100394990D01*
X103952941Y-100107429D01*
X103985000Y-99946260D01*
X103985000Y-99653740D01*
X103927932Y-99366842D01*
X103815990Y-99096589D01*
X103653475Y-98853368D01*
X103446632Y-98646525D01*
X103272240Y-98530000D01*
X103446632Y-98413475D01*
X103653475Y-98206632D01*
X103815990Y-97963411D01*
X103927932Y-97693158D01*
X103936707Y-97649039D01*
X114388096Y-97649039D01*
X114405633Y-97731818D01*
X114516285Y-97991646D01*
X114675500Y-98224895D01*
X114877161Y-98422601D01*
X115102559Y-98570000D01*
X114877161Y-98717399D01*
X114675500Y-98915105D01*
X114516285Y-99148354D01*
X114405633Y-99408182D01*
X114388096Y-99490961D01*
X114510085Y-99713000D01*
X116053000Y-99713000D01*
X116053000Y-97427000D01*
X116307000Y-97427000D01*
X116307000Y-99713000D01*
X117849915Y-99713000D01*
X117971904Y-99490961D01*
X117954367Y-99408182D01*
X117843715Y-99148354D01*
X117684500Y-98915105D01*
X117482839Y-98717399D01*
X117257441Y-98570000D01*
X117482839Y-98422601D01*
X117684500Y-98224895D01*
X117843715Y-97991646D01*
X117954367Y-97731818D01*
X117971904Y-97649039D01*
X117849915Y-97427000D01*
X116307000Y-97427000D01*
X116053000Y-97427000D01*
X114510085Y-97427000D01*
X114388096Y-97649039D01*
X103936707Y-97649039D01*
X103985000Y-97406260D01*
X103985000Y-97300000D01*
X121958057Y-97300000D01*
X121985764Y-97581309D01*
X122067818Y-97851808D01*
X122201068Y-98101101D01*
X122380392Y-98319608D01*
X122598899Y-98498932D01*
X122726741Y-98567265D01*
X122497161Y-98717399D01*
X122295500Y-98915105D01*
X122136285Y-99148354D01*
X122025633Y-99408182D01*
X122008096Y-99490961D01*
X122130085Y-99713000D01*
X123673000Y-99713000D01*
X123673000Y-99693000D01*
X123927000Y-99693000D01*
X123927000Y-99713000D01*
X125469915Y-99713000D01*
X125591904Y-99490961D01*
X125574367Y-99408182D01*
X125463715Y-99148354D01*
X125304500Y-98915105D01*
X125102839Y-98717399D01*
X124873259Y-98567265D01*
X125001101Y-98498932D01*
X125219608Y-98319608D01*
X125398932Y-98101101D01*
X125532182Y-97851808D01*
X125614236Y-97581309D01*
X125641943Y-97300000D01*
X125614236Y-97018691D01*
X125532182Y-96748192D01*
X125398932Y-96498899D01*
X125219608Y-96280392D01*
X125001101Y-96101068D01*
X124873259Y-96032735D01*
X125102839Y-95882601D01*
X125304500Y-95684895D01*
X125463715Y-95451646D01*
X125574367Y-95191818D01*
X125591904Y-95109039D01*
X125469915Y-94887000D01*
X123927000Y-94887000D01*
X123927000Y-94907000D01*
X123673000Y-94907000D01*
X123673000Y-94887000D01*
X122130085Y-94887000D01*
X122008096Y-95109039D01*
X122025633Y-95191818D01*
X122136285Y-95451646D01*
X122295500Y-95684895D01*
X122497161Y-95882601D01*
X122726741Y-96032735D01*
X122598899Y-96101068D01*
X122380392Y-96280392D01*
X122201068Y-96498899D01*
X122067818Y-96748192D01*
X121985764Y-97018691D01*
X121958057Y-97300000D01*
X103985000Y-97300000D01*
X103985000Y-97113740D01*
X103927932Y-96826842D01*
X103815990Y-96556589D01*
X103653475Y-96313368D01*
X103446632Y-96106525D01*
X103272240Y-95990000D01*
X103446632Y-95873475D01*
X103653475Y-95666632D01*
X103815990Y-95423411D01*
X103927932Y-95153158D01*
X103985000Y-94866260D01*
X103985000Y-94760000D01*
X114338057Y-94760000D01*
X114365764Y-95041309D01*
X114447818Y-95311808D01*
X114581068Y-95561101D01*
X114760392Y-95779608D01*
X114978899Y-95958932D01*
X115106741Y-96027265D01*
X114877161Y-96177399D01*
X114675500Y-96375105D01*
X114516285Y-96608354D01*
X114405633Y-96868182D01*
X114388096Y-96950961D01*
X114510085Y-97173000D01*
X116053000Y-97173000D01*
X116053000Y-97153000D01*
X116307000Y-97153000D01*
X116307000Y-97173000D01*
X117849915Y-97173000D01*
X117971904Y-96950961D01*
X117954367Y-96868182D01*
X117843715Y-96608354D01*
X117684500Y-96375105D01*
X117482839Y-96177399D01*
X117253259Y-96027265D01*
X117381101Y-95958932D01*
X117599608Y-95779608D01*
X117778932Y-95561101D01*
X117912182Y-95311808D01*
X117994236Y-95041309D01*
X118021943Y-94760000D01*
X117994236Y-94478691D01*
X117973691Y-94410961D01*
X122008096Y-94410961D01*
X122130085Y-94633000D01*
X123673000Y-94633000D01*
X123673000Y-93325000D01*
X123927000Y-93325000D01*
X123927000Y-94633000D01*
X125469915Y-94633000D01*
X125591904Y-94410961D01*
X125574367Y-94328182D01*
X125463715Y-94068354D01*
X125304500Y-93835105D01*
X125102839Y-93637399D01*
X124866483Y-93482834D01*
X124604514Y-93377350D01*
X124327000Y-93325000D01*
X123927000Y-93325000D01*
X123673000Y-93325000D01*
X123273000Y-93325000D01*
X122995486Y-93377350D01*
X122733517Y-93482834D01*
X122497161Y-93637399D01*
X122295500Y-93835105D01*
X122136285Y-94068354D01*
X122025633Y-94328182D01*
X122008096Y-94410961D01*
X117973691Y-94410961D01*
X117912182Y-94208192D01*
X117778932Y-93958899D01*
X117599608Y-93740392D01*
X117381101Y-93561068D01*
X117131808Y-93427818D01*
X116861309Y-93345764D01*
X116650492Y-93325000D01*
X115709508Y-93325000D01*
X115498691Y-93345764D01*
X115228192Y-93427818D01*
X114978899Y-93561068D01*
X114760392Y-93740392D01*
X114581068Y-93958899D01*
X114447818Y-94208192D01*
X114365764Y-94478691D01*
X114338057Y-94760000D01*
X103985000Y-94760000D01*
X103985000Y-94573740D01*
X103927932Y-94286842D01*
X103815990Y-94016589D01*
X103653475Y-93773368D01*
X103446632Y-93566525D01*
X103272240Y-93450000D01*
X103446632Y-93333475D01*
X103653475Y-93126632D01*
X103815990Y-92883411D01*
X103927932Y-92613158D01*
X103985000Y-92326260D01*
X103985000Y-92033740D01*
X103952941Y-91872571D01*
X106944618Y-88880895D01*
X106975528Y-88855528D01*
X107076749Y-88732189D01*
X107151963Y-88591473D01*
X107198280Y-88438788D01*
X107210000Y-88319791D01*
X107210000Y-88319788D01*
X107213919Y-88280000D01*
X107210000Y-88240212D01*
X107210000Y-84203110D01*
X136058524Y-84203110D01*
X136179845Y-84433000D01*
X137373000Y-84433000D01*
X137373000Y-83239186D01*
X137627000Y-83239186D01*
X137627000Y-84433000D01*
X138820155Y-84433000D01*
X138941476Y-84203110D01*
X138896825Y-84055901D01*
X138771641Y-83793080D01*
X138597588Y-83559731D01*
X138381355Y-83364822D01*
X138131252Y-83215843D01*
X137856891Y-83118519D01*
X137627000Y-83239186D01*
X137373000Y-83239186D01*
X137143109Y-83118519D01*
X136868748Y-83215843D01*
X136618645Y-83364822D01*
X136402412Y-83559731D01*
X136228359Y-83793080D01*
X136103175Y-84055901D01*
X136058524Y-84203110D01*
X107210000Y-84203110D01*
X107210000Y-83289788D01*
X107213919Y-83250000D01*
X107200969Y-83118519D01*
X107198280Y-83091212D01*
X107151963Y-82938527D01*
X107076750Y-82797812D01*
X107076749Y-82797810D01*
X107048257Y-82763093D01*
X106975528Y-82674472D01*
X106944614Y-82649102D01*
X104200900Y-79905388D01*
X104175528Y-79874472D01*
X104052189Y-79773251D01*
X103911473Y-79698037D01*
X103758788Y-79651720D01*
X103639791Y-79640000D01*
X103639788Y-79640000D01*
X103600000Y-79636081D01*
X103560212Y-79640000D01*
X93939787Y-79640000D01*
X93899999Y-79636081D01*
X93860211Y-79640000D01*
X93860209Y-79640000D01*
X93741212Y-79651720D01*
X93588527Y-79698037D01*
X93523024Y-79733049D01*
X93447810Y-79773251D01*
X93392210Y-79818881D01*
X93324472Y-79874472D01*
X93299105Y-79905382D01*
X90055363Y-83149125D01*
X90024453Y-83174492D01*
X89978832Y-83230081D01*
X89942906Y-83273858D01*
X89781101Y-83141068D01*
X89531808Y-83007818D01*
X89261309Y-82925764D01*
X89050492Y-82905000D01*
X88109508Y-82905000D01*
X87898691Y-82925764D01*
X87628192Y-83007818D01*
X87378899Y-83141068D01*
X87160392Y-83320392D01*
X86981068Y-83538899D01*
X86847818Y-83788192D01*
X86765764Y-84058691D01*
X86738057Y-84340000D01*
X86765764Y-84621309D01*
X86847818Y-84891808D01*
X86981068Y-85141101D01*
X87160392Y-85359608D01*
X87378899Y-85538932D01*
X87511858Y-85610000D01*
X87378899Y-85681068D01*
X87160392Y-85860392D01*
X86981068Y-86078899D01*
X86847818Y-86328192D01*
X86765764Y-86598691D01*
X86738057Y-86880000D01*
X86765764Y-87161309D01*
X86847818Y-87431808D01*
X86873894Y-87480593D01*
X81960000Y-92394488D01*
X81960000Y-84273380D01*
X84073381Y-82160000D01*
X88767591Y-82160000D01*
X88800000Y-82163192D01*
X88832409Y-82160000D01*
X88832419Y-82160000D01*
X88929383Y-82150450D01*
X89053793Y-82112710D01*
X89168450Y-82051425D01*
X89268948Y-81968948D01*
X89289616Y-81943764D01*
X94073381Y-77160000D01*
X138526620Y-77160000D01*
X140640000Y-79273381D01*
G36*
X105590000Y-83585512D02*
G01*
X105590001Y-87944486D01*
X103985000Y-89549488D01*
X103985000Y-89493740D01*
X103927932Y-89206842D01*
X103815990Y-88936589D01*
X103653475Y-88693368D01*
X103446632Y-88486525D01*
X103272240Y-88370000D01*
X103446632Y-88253475D01*
X103653475Y-88046632D01*
X103815990Y-87803411D01*
X103927932Y-87533158D01*
X103985000Y-87246260D01*
X103985000Y-86953740D01*
X103927932Y-86666842D01*
X103815990Y-86396589D01*
X103653475Y-86153368D01*
X103446632Y-85946525D01*
X103264466Y-85824805D01*
X103381355Y-85755178D01*
X103597588Y-85560269D01*
X103771641Y-85326920D01*
X103896825Y-85064099D01*
X103941476Y-84916890D01*
X103820155Y-84687000D01*
X102627000Y-84687000D01*
X102627000Y-84707000D01*
X102373000Y-84707000D01*
X102373000Y-84687000D01*
X101179845Y-84687000D01*
X101121254Y-84798023D01*
X101039791Y-84790000D01*
X101039788Y-84790000D01*
X101000000Y-84786081D01*
X100960212Y-84790000D01*
X97966624Y-84790000D01*
X97974367Y-84771818D01*
X97991904Y-84689039D01*
X97869915Y-84467000D01*
X96327000Y-84467000D01*
X96327000Y-84487000D01*
X96073000Y-84487000D01*
X96073000Y-84467000D01*
X94530085Y-84467000D01*
X94408096Y-84689039D01*
X94425633Y-84771818D01*
X94536285Y-85031646D01*
X94659953Y-85212819D01*
X91409980Y-88462793D01*
X91409980Y-84085532D01*
X91504551Y-83990961D01*
X94408096Y-83990961D01*
X94530085Y-84213000D01*
X96073000Y-84213000D01*
X96073000Y-82905000D01*
X96327000Y-82905000D01*
X96327000Y-84213000D01*
X97869915Y-84213000D01*
X97875348Y-84203110D01*
X101058524Y-84203110D01*
X101179845Y-84433000D01*
X102373000Y-84433000D01*
X102373000Y-83239186D01*
X102627000Y-83239186D01*
X102627000Y-84433000D01*
X103820155Y-84433000D01*
X103941476Y-84203110D01*
X103896825Y-84055901D01*
X103771641Y-83793080D01*
X103597588Y-83559731D01*
X103381355Y-83364822D01*
X103131252Y-83215843D01*
X102856891Y-83118519D01*
X102627000Y-83239186D01*
X102373000Y-83239186D01*
X102143109Y-83118519D01*
X101868748Y-83215843D01*
X101618645Y-83364822D01*
X101402412Y-83559731D01*
X101228359Y-83793080D01*
X101103175Y-84055901D01*
X101058524Y-84203110D01*
X97875348Y-84203110D01*
X97991904Y-83990961D01*
X97974367Y-83908182D01*
X97863715Y-83648354D01*
X97704500Y-83415105D01*
X97502839Y-83217399D01*
X97266483Y-83062834D01*
X97004514Y-82957350D01*
X96727000Y-82905000D01*
X96327000Y-82905000D01*
X96073000Y-82905000D01*
X95673000Y-82905000D01*
X95395486Y-82957350D01*
X95133517Y-83062834D01*
X94897161Y-83217399D01*
X94695500Y-83415105D01*
X94536285Y-83648354D01*
X94425633Y-83908182D01*
X94408096Y-83990961D01*
X91504551Y-83990961D01*
X94235513Y-81260000D01*
X103264488Y-81260000D01*
X105590000Y-83585512D01*
G37*
X105590000Y-83585512D02*
X105590001Y-87944486D01*
X103985000Y-89549488D01*
X103985000Y-89493740D01*
X103927932Y-89206842D01*
X103815990Y-88936589D01*
X103653475Y-88693368D01*
X103446632Y-88486525D01*
X103272240Y-88370000D01*
X103446632Y-88253475D01*
X103653475Y-88046632D01*
X103815990Y-87803411D01*
X103927932Y-87533158D01*
X103985000Y-87246260D01*
X103985000Y-86953740D01*
X103927932Y-86666842D01*
X103815990Y-86396589D01*
X103653475Y-86153368D01*
X103446632Y-85946525D01*
X103264466Y-85824805D01*
X103381355Y-85755178D01*
X103597588Y-85560269D01*
X103771641Y-85326920D01*
X103896825Y-85064099D01*
X103941476Y-84916890D01*
X103820155Y-84687000D01*
X102627000Y-84687000D01*
X102627000Y-84707000D01*
X102373000Y-84707000D01*
X102373000Y-84687000D01*
X101179845Y-84687000D01*
X101121254Y-84798023D01*
X101039791Y-84790000D01*
X101039788Y-84790000D01*
X101000000Y-84786081D01*
X100960212Y-84790000D01*
X97966624Y-84790000D01*
X97974367Y-84771818D01*
X97991904Y-84689039D01*
X97869915Y-84467000D01*
X96327000Y-84467000D01*
X96327000Y-84487000D01*
X96073000Y-84487000D01*
X96073000Y-84467000D01*
X94530085Y-84467000D01*
X94408096Y-84689039D01*
X94425633Y-84771818D01*
X94536285Y-85031646D01*
X94659953Y-85212819D01*
X91409980Y-88462793D01*
X91409980Y-84085532D01*
X91504551Y-83990961D01*
X94408096Y-83990961D01*
X94530085Y-84213000D01*
X96073000Y-84213000D01*
X96073000Y-82905000D01*
X96327000Y-82905000D01*
X96327000Y-84213000D01*
X97869915Y-84213000D01*
X97875348Y-84203110D01*
X101058524Y-84203110D01*
X101179845Y-84433000D01*
X102373000Y-84433000D01*
X102373000Y-83239186D01*
X102627000Y-83239186D01*
X102627000Y-84433000D01*
X103820155Y-84433000D01*
X103941476Y-84203110D01*
X103896825Y-84055901D01*
X103771641Y-83793080D01*
X103597588Y-83559731D01*
X103381355Y-83364822D01*
X103131252Y-83215843D01*
X102856891Y-83118519D01*
X102627000Y-83239186D01*
X102373000Y-83239186D01*
X102143109Y-83118519D01*
X101868748Y-83215843D01*
X101618645Y-83364822D01*
X101402412Y-83559731D01*
X101228359Y-83793080D01*
X101103175Y-84055901D01*
X101058524Y-84203110D01*
X97875348Y-84203110D01*
X97991904Y-83990961D01*
X97974367Y-83908182D01*
X97863715Y-83648354D01*
X97704500Y-83415105D01*
X97502839Y-83217399D01*
X97266483Y-83062834D01*
X97004514Y-82957350D01*
X96727000Y-82905000D01*
X96327000Y-82905000D01*
X96073000Y-82905000D01*
X95673000Y-82905000D01*
X95395486Y-82957350D01*
X95133517Y-83062834D01*
X94897161Y-83217399D01*
X94695500Y-83415105D01*
X94536285Y-83648354D01*
X94425633Y-83908182D01*
X94408096Y-83990961D01*
X91504551Y-83990961D01*
X94235513Y-81260000D01*
X103264488Y-81260000D01*
X105590000Y-83585512D01*
M02*
