G04 #@! TF.GenerationSoftware,KiCad,Pcbnew,5.1.5+dfsg1-2build2*
G04 #@! TF.CreationDate,2022-07-16T15:57:28-04:00*
G04 #@! TF.ProjectId,coco2_3134_64k_static_ram_board,636f636f-325f-4333-9133-345f36346b5f,rev?*
G04 #@! TF.SameCoordinates,Original*
G04 #@! TF.FileFunction,Copper,L1,Top*
G04 #@! TF.FilePolarity,Positive*
%FSLAX46Y46*%
G04 Gerber Fmt 4.6, Leading zero omitted, Abs format (unit mm)*
G04 Created by KiCad (PCBNEW 5.1.5+dfsg1-2build2) date 2022-07-16 15:57:28*
%MOMM*%
%LPD*%
G04 APERTURE LIST*
%ADD10R,1.700000X1.700000*%
%ADD11O,1.700000X1.700000*%
%ADD12C,0.800000*%
%ADD13C,1.600000*%
%ADD14C,0.250000*%
%ADD15C,1.000000*%
%ADD16C,0.254000*%
G04 APERTURE END LIST*
D10*
X116200000Y-112000000D03*
D11*
X118740000Y-112000000D03*
X121280000Y-112000000D03*
X123820000Y-112000000D03*
D10*
X102500000Y-112500000D03*
D11*
X102500000Y-109960000D03*
X102500000Y-107420000D03*
X102500000Y-104880000D03*
X102500000Y-102340000D03*
X102500000Y-99800000D03*
X102500000Y-97260000D03*
X102500000Y-94720000D03*
X102500000Y-92180000D03*
X102500000Y-89640000D03*
X102500000Y-87100000D03*
X102500000Y-84560000D03*
X137500000Y-84560000D03*
X137500000Y-87100000D03*
X137500000Y-89640000D03*
X137500000Y-92180000D03*
X137500000Y-94720000D03*
X137500000Y-97260000D03*
X137500000Y-99800000D03*
X137500000Y-102340000D03*
X137500000Y-104880000D03*
X137500000Y-107420000D03*
X137500000Y-109960000D03*
D10*
X137500000Y-112500000D03*
D12*
X126777000Y-104641600D03*
D13*
X113800000Y-91100000D03*
X128500000Y-88800000D03*
X133800000Y-91900000D03*
X133400000Y-88500000D03*
D12*
X133846000Y-109654000D03*
X131975000Y-113225000D03*
X111500000Y-88300000D03*
X105900000Y-94600000D03*
X105600000Y-96900000D03*
X106000000Y-100900000D03*
X104800000Y-101000000D03*
X107600000Y-107400000D03*
X123600000Y-90900000D03*
X123400000Y-88300000D03*
X128000000Y-100700000D03*
X132900000Y-100800000D03*
X122250000Y-104900000D03*
D13*
X110500000Y-97600000D03*
X112200000Y-109800000D03*
D12*
X107857600Y-101254400D03*
X115552300Y-101070600D03*
X121953000Y-102290300D03*
X114400000Y-97300000D03*
X129525000Y-92943800D03*
X128075000Y-82200000D03*
X116800000Y-97099998D03*
X117874990Y-92500000D03*
X115583300Y-100054800D03*
X121350000Y-100054800D03*
X113138200Y-102083300D03*
X117903700Y-101897200D03*
X112692100Y-100395600D03*
X118925000Y-106750000D03*
X112486500Y-98901000D03*
X119624300Y-97535400D03*
X119457510Y-91065803D03*
X120349700Y-96517100D03*
X119700000Y-92700002D03*
X123175100Y-98491500D03*
X123175100Y-93534000D03*
D14*
X125451500Y-109193200D02*
X123820000Y-110824700D01*
X125451500Y-105865300D02*
X125451500Y-109193200D01*
X137500000Y-112500000D02*
X130100000Y-112500000D01*
X128758300Y-112500000D02*
X125451500Y-109193200D01*
X123820000Y-112000000D02*
X123820000Y-110824700D01*
X125451500Y-105865300D02*
X125553300Y-105865300D01*
X125553300Y-105865300D02*
X126777000Y-104641600D01*
X130100000Y-112500000D02*
X128758300Y-112500000D01*
X125451500Y-105865300D02*
X125361200Y-105775000D01*
D15*
X102500000Y-109960000D02*
X110500000Y-101960000D01*
X110500000Y-101960000D02*
X110500000Y-97600000D01*
X102500000Y-109960000D02*
X112040000Y-109960000D01*
X112040000Y-109960000D02*
X112200000Y-109800000D01*
D14*
X107857600Y-101254400D02*
X102867300Y-106244700D01*
X102867300Y-106244700D02*
X102500000Y-106244700D01*
X102500000Y-107420000D02*
X102500000Y-106244700D01*
X121953000Y-102290300D02*
X120733300Y-101070600D01*
X120733300Y-101070600D02*
X115552300Y-101070600D01*
X104625000Y-99800000D02*
X102500000Y-99800000D01*
X107971700Y-96453300D02*
X104625000Y-99800000D01*
X111156400Y-96453300D02*
X107971700Y-96453300D01*
X113368400Y-98665300D02*
X111156400Y-96453300D01*
X113368400Y-98886700D02*
X113368400Y-98665300D01*
X115552300Y-101070600D02*
X113368400Y-98886700D01*
X102500000Y-97260000D02*
X103795400Y-95964600D01*
X113064600Y-95964600D02*
X114000001Y-96900001D01*
X103795400Y-95964600D02*
X113064600Y-95964600D01*
X114000001Y-96900001D02*
X114400000Y-97300000D01*
X102500000Y-89640000D02*
X126221200Y-89640000D01*
X126221200Y-89640000D02*
X129525000Y-92943800D01*
X102500000Y-87100000D02*
X123175000Y-87100000D01*
X123175000Y-87100000D02*
X128075000Y-82200000D01*
X123398900Y-99800000D02*
X121859700Y-98260800D01*
X117199999Y-97499997D02*
X116800000Y-97099998D01*
X117960802Y-98260800D02*
X117199999Y-97499997D01*
X121859700Y-98260800D02*
X117960802Y-98260800D01*
X137500000Y-99800000D02*
X123398900Y-99800000D01*
X117474991Y-92899999D02*
X117874990Y-92500000D01*
X121673200Y-98711200D02*
X117038198Y-98711200D01*
X137500000Y-102340000D02*
X136297919Y-102340000D01*
X124626800Y-101664800D02*
X121673200Y-98711200D01*
X116074999Y-97748001D02*
X116074998Y-94299992D01*
X116074998Y-94299992D02*
X117474991Y-92899999D01*
X136297919Y-102340000D02*
X135622719Y-101664800D01*
X117038198Y-98711200D02*
X116074999Y-97748001D01*
X135622719Y-101664800D02*
X124626800Y-101664800D01*
X136324700Y-104880000D02*
X134010100Y-102565400D01*
X134010100Y-102565400D02*
X123860600Y-102565400D01*
X123860600Y-102565400D02*
X121350000Y-100054800D01*
X121350000Y-100054800D02*
X115583300Y-100054800D01*
X137500000Y-104880000D02*
X136324700Y-104880000D01*
X117903600Y-102083300D02*
X117903600Y-101897200D01*
X117903600Y-101897200D02*
X117903700Y-101897200D01*
X136324700Y-107420000D02*
X131920400Y-103015700D01*
X131920400Y-103015700D02*
X118836000Y-103015700D01*
X118836000Y-103015700D02*
X117903600Y-102083300D01*
X117903600Y-102083300D02*
X113138200Y-102083300D01*
X137500000Y-107420000D02*
X136324700Y-107420000D01*
X112692100Y-100395600D02*
X112412900Y-100674800D01*
X112412900Y-100674800D02*
X112412900Y-102383700D01*
X112412900Y-102383700D02*
X113720300Y-103691100D01*
X113720300Y-103691100D02*
X130055800Y-103691100D01*
X130055800Y-103691100D02*
X136324700Y-109960000D01*
X137500000Y-109960000D02*
X136324700Y-109960000D01*
X118925000Y-111815000D02*
X118740000Y-112000000D01*
X118925000Y-106750000D02*
X118925000Y-111815000D01*
X121280000Y-113320000D02*
X121280000Y-112000000D01*
X121100000Y-113500000D02*
X121280000Y-113320000D01*
X115479700Y-113500000D02*
X121100000Y-113500000D01*
X114202600Y-112222900D02*
X115479700Y-113500000D01*
X114202600Y-106851600D02*
X114202600Y-112222900D01*
X111962600Y-104611600D02*
X114202600Y-106851600D01*
X111962600Y-99424900D02*
X111962600Y-104611600D01*
X112486500Y-98901000D02*
X111962600Y-99424900D01*
X118825001Y-91698312D02*
X119057511Y-91465802D01*
X119624300Y-97535400D02*
X118825001Y-96736101D01*
X119057511Y-91465802D02*
X119457510Y-91065803D01*
X118825001Y-96736101D02*
X118825001Y-91698312D01*
X120349700Y-96517100D02*
X119700000Y-95867400D01*
X119700000Y-95867400D02*
X119700000Y-93265687D01*
X119700000Y-93265687D02*
X119700000Y-92700002D01*
X123175100Y-93534000D02*
X123175100Y-98491500D01*
D16*
G36*
X113442601Y-112185568D02*
G01*
X113438924Y-112222900D01*
X113453598Y-112371885D01*
X113497054Y-112515146D01*
X113567626Y-112647176D01*
X113615530Y-112705546D01*
X113662600Y-112762901D01*
X113691598Y-112786699D01*
X114744898Y-113840000D01*
X103753889Y-113840000D01*
X103801185Y-113801185D01*
X103880537Y-113704494D01*
X103939502Y-113594180D01*
X103975812Y-113474482D01*
X103988072Y-113350000D01*
X103985000Y-112785750D01*
X103826250Y-112627000D01*
X102627000Y-112627000D01*
X102627000Y-112647000D01*
X102373000Y-112647000D01*
X102373000Y-112627000D01*
X102353000Y-112627000D01*
X102353000Y-112373000D01*
X102373000Y-112373000D01*
X102373000Y-112353000D01*
X102627000Y-112353000D01*
X102627000Y-112373000D01*
X103826250Y-112373000D01*
X103985000Y-112214250D01*
X103988072Y-111650000D01*
X103975812Y-111525518D01*
X103939502Y-111405820D01*
X103880537Y-111295506D01*
X103801185Y-111198815D01*
X103704494Y-111119463D01*
X103658728Y-111095000D01*
X111576573Y-111095000D01*
X111781426Y-111179853D01*
X112058665Y-111235000D01*
X112341335Y-111235000D01*
X112618574Y-111179853D01*
X112879727Y-111071680D01*
X113114759Y-110914637D01*
X113314637Y-110714759D01*
X113442601Y-110523247D01*
X113442601Y-112185568D01*
G37*
X113442601Y-112185568D02*
X113438924Y-112222900D01*
X113453598Y-112371885D01*
X113497054Y-112515146D01*
X113567626Y-112647176D01*
X113615530Y-112705546D01*
X113662600Y-112762901D01*
X113691598Y-112786699D01*
X114744898Y-113840000D01*
X103753889Y-113840000D01*
X103801185Y-113801185D01*
X103880537Y-113704494D01*
X103939502Y-113594180D01*
X103975812Y-113474482D01*
X103988072Y-113350000D01*
X103985000Y-112785750D01*
X103826250Y-112627000D01*
X102627000Y-112627000D01*
X102627000Y-112647000D01*
X102373000Y-112647000D01*
X102373000Y-112627000D01*
X102353000Y-112627000D01*
X102353000Y-112373000D01*
X102373000Y-112373000D01*
X102373000Y-112353000D01*
X102627000Y-112353000D01*
X102627000Y-112373000D01*
X103826250Y-112373000D01*
X103985000Y-112214250D01*
X103988072Y-111650000D01*
X103975812Y-111525518D01*
X103939502Y-111405820D01*
X103880537Y-111295506D01*
X103801185Y-111198815D01*
X103704494Y-111119463D01*
X103658728Y-111095000D01*
X111576573Y-111095000D01*
X111781426Y-111179853D01*
X112058665Y-111235000D01*
X112341335Y-111235000D01*
X112618574Y-111179853D01*
X112879727Y-111071680D01*
X113114759Y-110914637D01*
X113314637Y-110714759D01*
X113442601Y-110523247D01*
X113442601Y-112185568D01*
G36*
X113156500Y-104202102D02*
G01*
X113180299Y-104231101D01*
X113296024Y-104326074D01*
X113428053Y-104396646D01*
X113571314Y-104440103D01*
X113682967Y-104451100D01*
X113682977Y-104451100D01*
X113720300Y-104454776D01*
X113757623Y-104451100D01*
X129740999Y-104451100D01*
X135760905Y-110471008D01*
X135784699Y-110500001D01*
X135813692Y-110523795D01*
X135813696Y-110523799D01*
X135872513Y-110572068D01*
X135900424Y-110594974D01*
X136032453Y-110665546D01*
X136175714Y-110709003D01*
X136217204Y-110713089D01*
X136346525Y-110906632D01*
X136478380Y-111038487D01*
X136405820Y-111060498D01*
X136295506Y-111119463D01*
X136198815Y-111198815D01*
X136119463Y-111295506D01*
X136060498Y-111405820D01*
X136024188Y-111525518D01*
X136011928Y-111650000D01*
X136015000Y-112214250D01*
X136173750Y-112373000D01*
X137373000Y-112373000D01*
X137373000Y-112353000D01*
X137627000Y-112353000D01*
X137627000Y-112373000D01*
X137647000Y-112373000D01*
X137647000Y-112627000D01*
X137627000Y-112627000D01*
X137627000Y-112647000D01*
X137373000Y-112647000D01*
X137373000Y-112627000D01*
X136173750Y-112627000D01*
X136015000Y-112785750D01*
X136011928Y-113350000D01*
X136024188Y-113474482D01*
X136060498Y-113594180D01*
X136119463Y-113704494D01*
X136198815Y-113801185D01*
X136246111Y-113840000D01*
X121836415Y-113840000D01*
X121914974Y-113744276D01*
X121985546Y-113612247D01*
X122029003Y-113468986D01*
X122040000Y-113357333D01*
X122040000Y-113357324D01*
X122043676Y-113320001D01*
X122040000Y-113282678D01*
X122040000Y-113278178D01*
X122226632Y-113153475D01*
X122433475Y-112946632D01*
X122555195Y-112764466D01*
X122624822Y-112881355D01*
X122819731Y-113097588D01*
X123053080Y-113271641D01*
X123315901Y-113396825D01*
X123463110Y-113441476D01*
X123693000Y-113320155D01*
X123693000Y-112127000D01*
X123947000Y-112127000D01*
X123947000Y-113320155D01*
X124176890Y-113441476D01*
X124324099Y-113396825D01*
X124586920Y-113271641D01*
X124820269Y-113097588D01*
X125015178Y-112881355D01*
X125164157Y-112631252D01*
X125261481Y-112356891D01*
X125140814Y-112127000D01*
X123947000Y-112127000D01*
X123693000Y-112127000D01*
X123673000Y-112127000D01*
X123673000Y-111873000D01*
X123693000Y-111873000D01*
X123693000Y-110679845D01*
X123947000Y-110679845D01*
X123947000Y-111873000D01*
X125140814Y-111873000D01*
X125261481Y-111643109D01*
X125164157Y-111368748D01*
X125015178Y-111118645D01*
X124820269Y-110902412D01*
X124586920Y-110728359D01*
X124324099Y-110603175D01*
X124176890Y-110558524D01*
X123947000Y-110679845D01*
X123693000Y-110679845D01*
X123463110Y-110558524D01*
X123315901Y-110603175D01*
X123053080Y-110728359D01*
X122819731Y-110902412D01*
X122624822Y-111118645D01*
X122555195Y-111235534D01*
X122433475Y-111053368D01*
X122226632Y-110846525D01*
X121983411Y-110684010D01*
X121713158Y-110572068D01*
X121426260Y-110515000D01*
X121133740Y-110515000D01*
X120846842Y-110572068D01*
X120576589Y-110684010D01*
X120333368Y-110846525D01*
X120126525Y-111053368D01*
X120010000Y-111227760D01*
X119893475Y-111053368D01*
X119686632Y-110846525D01*
X119685000Y-110845435D01*
X119685000Y-107453711D01*
X119728937Y-107409774D01*
X119842205Y-107240256D01*
X119920226Y-107051898D01*
X119960000Y-106851939D01*
X119960000Y-106648061D01*
X119920226Y-106448102D01*
X119842205Y-106259744D01*
X119728937Y-106090226D01*
X119584774Y-105946063D01*
X119415256Y-105832795D01*
X119226898Y-105754774D01*
X119026939Y-105715000D01*
X118823061Y-105715000D01*
X118623102Y-105754774D01*
X118434744Y-105832795D01*
X118265226Y-105946063D01*
X118121063Y-106090226D01*
X118007795Y-106259744D01*
X117929774Y-106448102D01*
X117890000Y-106648061D01*
X117890000Y-106851939D01*
X117929774Y-107051898D01*
X118007795Y-107240256D01*
X118121063Y-107409774D01*
X118165000Y-107453711D01*
X118165001Y-110630820D01*
X118036589Y-110684010D01*
X117793368Y-110846525D01*
X117661513Y-110978380D01*
X117639502Y-110905820D01*
X117580537Y-110795506D01*
X117501185Y-110698815D01*
X117404494Y-110619463D01*
X117294180Y-110560498D01*
X117174482Y-110524188D01*
X117050000Y-110511928D01*
X115350000Y-110511928D01*
X115225518Y-110524188D01*
X115105820Y-110560498D01*
X114995506Y-110619463D01*
X114962600Y-110646468D01*
X114962600Y-106888922D01*
X114966276Y-106851599D01*
X114962600Y-106814276D01*
X114962600Y-106814267D01*
X114951603Y-106702614D01*
X114908146Y-106559353D01*
X114837574Y-106427324D01*
X114809967Y-106393685D01*
X114766399Y-106340596D01*
X114766395Y-106340592D01*
X114742601Y-106311599D01*
X114713609Y-106287806D01*
X112722600Y-104296799D01*
X112722600Y-103768202D01*
X113156500Y-104202102D01*
G37*
X113156500Y-104202102D02*
X113180299Y-104231101D01*
X113296024Y-104326074D01*
X113428053Y-104396646D01*
X113571314Y-104440103D01*
X113682967Y-104451100D01*
X113682977Y-104451100D01*
X113720300Y-104454776D01*
X113757623Y-104451100D01*
X129740999Y-104451100D01*
X135760905Y-110471008D01*
X135784699Y-110500001D01*
X135813692Y-110523795D01*
X135813696Y-110523799D01*
X135872513Y-110572068D01*
X135900424Y-110594974D01*
X136032453Y-110665546D01*
X136175714Y-110709003D01*
X136217204Y-110713089D01*
X136346525Y-110906632D01*
X136478380Y-111038487D01*
X136405820Y-111060498D01*
X136295506Y-111119463D01*
X136198815Y-111198815D01*
X136119463Y-111295506D01*
X136060498Y-111405820D01*
X136024188Y-111525518D01*
X136011928Y-111650000D01*
X136015000Y-112214250D01*
X136173750Y-112373000D01*
X137373000Y-112373000D01*
X137373000Y-112353000D01*
X137627000Y-112353000D01*
X137627000Y-112373000D01*
X137647000Y-112373000D01*
X137647000Y-112627000D01*
X137627000Y-112627000D01*
X137627000Y-112647000D01*
X137373000Y-112647000D01*
X137373000Y-112627000D01*
X136173750Y-112627000D01*
X136015000Y-112785750D01*
X136011928Y-113350000D01*
X136024188Y-113474482D01*
X136060498Y-113594180D01*
X136119463Y-113704494D01*
X136198815Y-113801185D01*
X136246111Y-113840000D01*
X121836415Y-113840000D01*
X121914974Y-113744276D01*
X121985546Y-113612247D01*
X122029003Y-113468986D01*
X122040000Y-113357333D01*
X122040000Y-113357324D01*
X122043676Y-113320001D01*
X122040000Y-113282678D01*
X122040000Y-113278178D01*
X122226632Y-113153475D01*
X122433475Y-112946632D01*
X122555195Y-112764466D01*
X122624822Y-112881355D01*
X122819731Y-113097588D01*
X123053080Y-113271641D01*
X123315901Y-113396825D01*
X123463110Y-113441476D01*
X123693000Y-113320155D01*
X123693000Y-112127000D01*
X123947000Y-112127000D01*
X123947000Y-113320155D01*
X124176890Y-113441476D01*
X124324099Y-113396825D01*
X124586920Y-113271641D01*
X124820269Y-113097588D01*
X125015178Y-112881355D01*
X125164157Y-112631252D01*
X125261481Y-112356891D01*
X125140814Y-112127000D01*
X123947000Y-112127000D01*
X123693000Y-112127000D01*
X123673000Y-112127000D01*
X123673000Y-111873000D01*
X123693000Y-111873000D01*
X123693000Y-110679845D01*
X123947000Y-110679845D01*
X123947000Y-111873000D01*
X125140814Y-111873000D01*
X125261481Y-111643109D01*
X125164157Y-111368748D01*
X125015178Y-111118645D01*
X124820269Y-110902412D01*
X124586920Y-110728359D01*
X124324099Y-110603175D01*
X124176890Y-110558524D01*
X123947000Y-110679845D01*
X123693000Y-110679845D01*
X123463110Y-110558524D01*
X123315901Y-110603175D01*
X123053080Y-110728359D01*
X122819731Y-110902412D01*
X122624822Y-111118645D01*
X122555195Y-111235534D01*
X122433475Y-111053368D01*
X122226632Y-110846525D01*
X121983411Y-110684010D01*
X121713158Y-110572068D01*
X121426260Y-110515000D01*
X121133740Y-110515000D01*
X120846842Y-110572068D01*
X120576589Y-110684010D01*
X120333368Y-110846525D01*
X120126525Y-111053368D01*
X120010000Y-111227760D01*
X119893475Y-111053368D01*
X119686632Y-110846525D01*
X119685000Y-110845435D01*
X119685000Y-107453711D01*
X119728937Y-107409774D01*
X119842205Y-107240256D01*
X119920226Y-107051898D01*
X119960000Y-106851939D01*
X119960000Y-106648061D01*
X119920226Y-106448102D01*
X119842205Y-106259744D01*
X119728937Y-106090226D01*
X119584774Y-105946063D01*
X119415256Y-105832795D01*
X119226898Y-105754774D01*
X119026939Y-105715000D01*
X118823061Y-105715000D01*
X118623102Y-105754774D01*
X118434744Y-105832795D01*
X118265226Y-105946063D01*
X118121063Y-106090226D01*
X118007795Y-106259744D01*
X117929774Y-106448102D01*
X117890000Y-106648061D01*
X117890000Y-106851939D01*
X117929774Y-107051898D01*
X118007795Y-107240256D01*
X118121063Y-107409774D01*
X118165000Y-107453711D01*
X118165001Y-110630820D01*
X118036589Y-110684010D01*
X117793368Y-110846525D01*
X117661513Y-110978380D01*
X117639502Y-110905820D01*
X117580537Y-110795506D01*
X117501185Y-110698815D01*
X117404494Y-110619463D01*
X117294180Y-110560498D01*
X117174482Y-110524188D01*
X117050000Y-110511928D01*
X115350000Y-110511928D01*
X115225518Y-110524188D01*
X115105820Y-110560498D01*
X114995506Y-110619463D01*
X114962600Y-110646468D01*
X114962600Y-106888922D01*
X114966276Y-106851599D01*
X114962600Y-106814276D01*
X114962600Y-106814267D01*
X114951603Y-106702614D01*
X114908146Y-106559353D01*
X114837574Y-106427324D01*
X114809967Y-106393685D01*
X114766399Y-106340596D01*
X114766395Y-106340592D01*
X114742601Y-106311599D01*
X114713609Y-106287806D01*
X112722600Y-104296799D01*
X112722600Y-103768202D01*
X113156500Y-104202102D01*
G36*
X111202601Y-104574268D02*
G01*
X111198924Y-104611600D01*
X111213598Y-104760585D01*
X111257054Y-104903846D01*
X111327626Y-105035876D01*
X111398801Y-105122602D01*
X111422600Y-105151601D01*
X111451598Y-105175399D01*
X113442600Y-107166403D01*
X113442600Y-109076752D01*
X113314637Y-108885241D01*
X113114759Y-108685363D01*
X112879727Y-108528320D01*
X112618574Y-108420147D01*
X112341335Y-108365000D01*
X112058665Y-108365000D01*
X111781426Y-108420147D01*
X111520273Y-108528320D01*
X111285241Y-108685363D01*
X111145604Y-108825000D01*
X105240131Y-108825000D01*
X111202601Y-102862531D01*
X111202601Y-104574268D01*
G37*
X111202601Y-104574268D02*
X111198924Y-104611600D01*
X111213598Y-104760585D01*
X111257054Y-104903846D01*
X111327626Y-105035876D01*
X111398801Y-105122602D01*
X111422600Y-105151601D01*
X111451598Y-105175399D01*
X113442600Y-107166403D01*
X113442600Y-109076752D01*
X113314637Y-108885241D01*
X113114759Y-108685363D01*
X112879727Y-108528320D01*
X112618574Y-108420147D01*
X112341335Y-108365000D01*
X112058665Y-108365000D01*
X111781426Y-108420147D01*
X111520273Y-108528320D01*
X111285241Y-108685363D01*
X111145604Y-108825000D01*
X105240131Y-108825000D01*
X111202601Y-102862531D01*
X111202601Y-104574268D01*
G36*
X109065000Y-97458665D02*
G01*
X109065000Y-97741335D01*
X109120147Y-98018574D01*
X109228320Y-98279727D01*
X109365001Y-98484285D01*
X109365000Y-101489868D01*
X103910386Y-106944483D01*
X103815990Y-106716589D01*
X103677491Y-106509310D01*
X107897402Y-102289400D01*
X107959539Y-102289400D01*
X108159498Y-102249626D01*
X108347856Y-102171605D01*
X108517374Y-102058337D01*
X108661537Y-101914174D01*
X108774805Y-101744656D01*
X108852826Y-101556298D01*
X108892600Y-101356339D01*
X108892600Y-101152461D01*
X108852826Y-100952502D01*
X108774805Y-100764144D01*
X108661537Y-100594626D01*
X108517374Y-100450463D01*
X108347856Y-100337195D01*
X108159498Y-100259174D01*
X107959539Y-100219400D01*
X107755661Y-100219400D01*
X107555702Y-100259174D01*
X107367344Y-100337195D01*
X107197826Y-100450463D01*
X107053663Y-100594626D01*
X106940395Y-100764144D01*
X106862374Y-100952502D01*
X106822600Y-101152461D01*
X106822600Y-101214598D01*
X103829059Y-104208140D01*
X103815990Y-104176589D01*
X103653475Y-103933368D01*
X103446632Y-103726525D01*
X103272240Y-103610000D01*
X103446632Y-103493475D01*
X103653475Y-103286632D01*
X103815990Y-103043411D01*
X103927932Y-102773158D01*
X103985000Y-102486260D01*
X103985000Y-102193740D01*
X103927932Y-101906842D01*
X103815990Y-101636589D01*
X103653475Y-101393368D01*
X103446632Y-101186525D01*
X103272240Y-101070000D01*
X103446632Y-100953475D01*
X103653475Y-100746632D01*
X103778178Y-100560000D01*
X104587678Y-100560000D01*
X104625000Y-100563676D01*
X104662322Y-100560000D01*
X104662333Y-100560000D01*
X104773986Y-100549003D01*
X104917247Y-100505546D01*
X105049276Y-100434974D01*
X105165001Y-100340001D01*
X105188804Y-100310997D01*
X108286502Y-97213300D01*
X109113807Y-97213300D01*
X109065000Y-97458665D01*
G37*
X109065000Y-97458665D02*
X109065000Y-97741335D01*
X109120147Y-98018574D01*
X109228320Y-98279727D01*
X109365001Y-98484285D01*
X109365000Y-101489868D01*
X103910386Y-106944483D01*
X103815990Y-106716589D01*
X103677491Y-106509310D01*
X107897402Y-102289400D01*
X107959539Y-102289400D01*
X108159498Y-102249626D01*
X108347856Y-102171605D01*
X108517374Y-102058337D01*
X108661537Y-101914174D01*
X108774805Y-101744656D01*
X108852826Y-101556298D01*
X108892600Y-101356339D01*
X108892600Y-101152461D01*
X108852826Y-100952502D01*
X108774805Y-100764144D01*
X108661537Y-100594626D01*
X108517374Y-100450463D01*
X108347856Y-100337195D01*
X108159498Y-100259174D01*
X107959539Y-100219400D01*
X107755661Y-100219400D01*
X107555702Y-100259174D01*
X107367344Y-100337195D01*
X107197826Y-100450463D01*
X107053663Y-100594626D01*
X106940395Y-100764144D01*
X106862374Y-100952502D01*
X106822600Y-101152461D01*
X106822600Y-101214598D01*
X103829059Y-104208140D01*
X103815990Y-104176589D01*
X103653475Y-103933368D01*
X103446632Y-103726525D01*
X103272240Y-103610000D01*
X103446632Y-103493475D01*
X103653475Y-103286632D01*
X103815990Y-103043411D01*
X103927932Y-102773158D01*
X103985000Y-102486260D01*
X103985000Y-102193740D01*
X103927932Y-101906842D01*
X103815990Y-101636589D01*
X103653475Y-101393368D01*
X103446632Y-101186525D01*
X103272240Y-101070000D01*
X103446632Y-100953475D01*
X103653475Y-100746632D01*
X103778178Y-100560000D01*
X104587678Y-100560000D01*
X104625000Y-100563676D01*
X104662322Y-100560000D01*
X104662333Y-100560000D01*
X104773986Y-100549003D01*
X104917247Y-100505546D01*
X105049276Y-100434974D01*
X105165001Y-100340001D01*
X105188804Y-100310997D01*
X108286502Y-97213300D01*
X109113807Y-97213300D01*
X109065000Y-97458665D01*
G36*
X136346525Y-100746632D02*
G01*
X136553368Y-100953475D01*
X136727760Y-101070000D01*
X136553368Y-101186525D01*
X136386307Y-101353586D01*
X136186522Y-101153802D01*
X136162720Y-101124799D01*
X136046995Y-101029826D01*
X135914966Y-100959254D01*
X135771705Y-100915797D01*
X135660052Y-100904800D01*
X135660041Y-100904800D01*
X135622719Y-100901124D01*
X135585397Y-100904800D01*
X124941602Y-100904800D01*
X124596802Y-100560000D01*
X136221822Y-100560000D01*
X136346525Y-100746632D01*
G37*
X136346525Y-100746632D02*
X136553368Y-100953475D01*
X136727760Y-101070000D01*
X136553368Y-101186525D01*
X136386307Y-101353586D01*
X136186522Y-101153802D01*
X136162720Y-101124799D01*
X136046995Y-101029826D01*
X135914966Y-100959254D01*
X135771705Y-100915797D01*
X135660052Y-100904800D01*
X135660041Y-100904800D01*
X135622719Y-100901124D01*
X135585397Y-100904800D01*
X124941602Y-100904800D01*
X124596802Y-100560000D01*
X136221822Y-100560000D01*
X136346525Y-100746632D01*
G36*
X104310199Y-99040000D02*
G01*
X103778178Y-99040000D01*
X103653475Y-98853368D01*
X103446632Y-98646525D01*
X103272240Y-98530000D01*
X103446632Y-98413475D01*
X103653475Y-98206632D01*
X103815990Y-97963411D01*
X103927932Y-97693158D01*
X103985000Y-97406260D01*
X103985000Y-97113740D01*
X103941210Y-96893592D01*
X104110202Y-96724600D01*
X106625598Y-96724600D01*
X104310199Y-99040000D01*
G37*
X104310199Y-99040000D02*
X103778178Y-99040000D01*
X103653475Y-98853368D01*
X103446632Y-98646525D01*
X103272240Y-98530000D01*
X103446632Y-98413475D01*
X103653475Y-98206632D01*
X103815990Y-97963411D01*
X103927932Y-97693158D01*
X103985000Y-97406260D01*
X103985000Y-97113740D01*
X103941210Y-96893592D01*
X104110202Y-96724600D01*
X106625598Y-96724600D01*
X104310199Y-99040000D01*
G36*
X138840000Y-83936598D02*
G01*
X138771641Y-83793080D01*
X138597588Y-83559731D01*
X138381355Y-83364822D01*
X138131252Y-83215843D01*
X137856891Y-83118519D01*
X137627000Y-83239186D01*
X137627000Y-84433000D01*
X137647000Y-84433000D01*
X137647000Y-84687000D01*
X137627000Y-84687000D01*
X137627000Y-84707000D01*
X137373000Y-84707000D01*
X137373000Y-84687000D01*
X136179845Y-84687000D01*
X136058524Y-84916890D01*
X136103175Y-85064099D01*
X136228359Y-85326920D01*
X136402412Y-85560269D01*
X136618645Y-85755178D01*
X136735534Y-85824805D01*
X136553368Y-85946525D01*
X136346525Y-86153368D01*
X136184010Y-86396589D01*
X136072068Y-86666842D01*
X136015000Y-86953740D01*
X136015000Y-87246260D01*
X136072068Y-87533158D01*
X136184010Y-87803411D01*
X136346525Y-88046632D01*
X136553368Y-88253475D01*
X136727760Y-88370000D01*
X136553368Y-88486525D01*
X136346525Y-88693368D01*
X136184010Y-88936589D01*
X136072068Y-89206842D01*
X136015000Y-89493740D01*
X136015000Y-89786260D01*
X136072068Y-90073158D01*
X136184010Y-90343411D01*
X136346525Y-90586632D01*
X136553368Y-90793475D01*
X136727760Y-90910000D01*
X136553368Y-91026525D01*
X136346525Y-91233368D01*
X136184010Y-91476589D01*
X136072068Y-91746842D01*
X136015000Y-92033740D01*
X136015000Y-92326260D01*
X136072068Y-92613158D01*
X136184010Y-92883411D01*
X136346525Y-93126632D01*
X136553368Y-93333475D01*
X136727760Y-93450000D01*
X136553368Y-93566525D01*
X136346525Y-93773368D01*
X136184010Y-94016589D01*
X136072068Y-94286842D01*
X136015000Y-94573740D01*
X136015000Y-94866260D01*
X136072068Y-95153158D01*
X136184010Y-95423411D01*
X136346525Y-95666632D01*
X136553368Y-95873475D01*
X136727760Y-95990000D01*
X136553368Y-96106525D01*
X136346525Y-96313368D01*
X136184010Y-96556589D01*
X136072068Y-96826842D01*
X136015000Y-97113740D01*
X136015000Y-97406260D01*
X136072068Y-97693158D01*
X136184010Y-97963411D01*
X136346525Y-98206632D01*
X136553368Y-98413475D01*
X136727760Y-98530000D01*
X136553368Y-98646525D01*
X136346525Y-98853368D01*
X136221822Y-99040000D01*
X124053388Y-99040000D01*
X124092305Y-98981756D01*
X124170326Y-98793398D01*
X124210100Y-98593439D01*
X124210100Y-98389561D01*
X124170326Y-98189602D01*
X124092305Y-98001244D01*
X123979037Y-97831726D01*
X123935100Y-97787789D01*
X123935100Y-94237711D01*
X123979037Y-94193774D01*
X124092305Y-94024256D01*
X124170326Y-93835898D01*
X124210100Y-93635939D01*
X124210100Y-93432061D01*
X124170326Y-93232102D01*
X124092305Y-93043744D01*
X123979037Y-92874226D01*
X123834874Y-92730063D01*
X123665356Y-92616795D01*
X123476998Y-92538774D01*
X123277039Y-92499000D01*
X123073161Y-92499000D01*
X122873202Y-92538774D01*
X122684844Y-92616795D01*
X122515326Y-92730063D01*
X122371163Y-92874226D01*
X122257895Y-93043744D01*
X122179874Y-93232102D01*
X122140100Y-93432061D01*
X122140100Y-93635939D01*
X122179874Y-93835898D01*
X122257895Y-94024256D01*
X122371163Y-94193774D01*
X122415100Y-94237711D01*
X122415101Y-97739564D01*
X122399701Y-97720799D01*
X122283976Y-97625826D01*
X122151947Y-97555254D01*
X122008686Y-97511797D01*
X121897033Y-97500800D01*
X121897022Y-97500800D01*
X121859700Y-97497124D01*
X121822378Y-97500800D01*
X120679424Y-97500800D01*
X120839956Y-97434305D01*
X121009474Y-97321037D01*
X121153637Y-97176874D01*
X121266905Y-97007356D01*
X121344926Y-96818998D01*
X121384700Y-96619039D01*
X121384700Y-96415161D01*
X121344926Y-96215202D01*
X121266905Y-96026844D01*
X121153637Y-95857326D01*
X121009474Y-95713163D01*
X120839956Y-95599895D01*
X120651598Y-95521874D01*
X120460000Y-95483763D01*
X120460000Y-93403713D01*
X120503937Y-93359776D01*
X120617205Y-93190258D01*
X120695226Y-93001900D01*
X120735000Y-92801941D01*
X120735000Y-92598063D01*
X120695226Y-92398104D01*
X120617205Y-92209746D01*
X120503937Y-92040228D01*
X120359774Y-91896065D01*
X120198631Y-91788393D01*
X120261447Y-91725577D01*
X120374715Y-91556059D01*
X120452736Y-91367701D01*
X120492510Y-91167742D01*
X120492510Y-90963864D01*
X120452736Y-90763905D01*
X120374715Y-90575547D01*
X120261447Y-90406029D01*
X120255418Y-90400000D01*
X125906399Y-90400000D01*
X128490000Y-92983602D01*
X128490000Y-93045739D01*
X128529774Y-93245698D01*
X128607795Y-93434056D01*
X128721063Y-93603574D01*
X128865226Y-93747737D01*
X129034744Y-93861005D01*
X129223102Y-93939026D01*
X129423061Y-93978800D01*
X129626939Y-93978800D01*
X129826898Y-93939026D01*
X130015256Y-93861005D01*
X130184774Y-93747737D01*
X130328937Y-93603574D01*
X130442205Y-93434056D01*
X130520226Y-93245698D01*
X130560000Y-93045739D01*
X130560000Y-92841861D01*
X130520226Y-92641902D01*
X130442205Y-92453544D01*
X130328937Y-92284026D01*
X130184774Y-92139863D01*
X130015256Y-92026595D01*
X129826898Y-91948574D01*
X129626939Y-91908800D01*
X129564802Y-91908800D01*
X126785004Y-89129003D01*
X126761201Y-89099999D01*
X126645476Y-89005026D01*
X126513447Y-88934454D01*
X126370186Y-88890997D01*
X126258533Y-88880000D01*
X126258522Y-88880000D01*
X126221200Y-88876324D01*
X126183878Y-88880000D01*
X103778178Y-88880000D01*
X103653475Y-88693368D01*
X103446632Y-88486525D01*
X103272240Y-88370000D01*
X103446632Y-88253475D01*
X103653475Y-88046632D01*
X103778178Y-87860000D01*
X123137678Y-87860000D01*
X123175000Y-87863676D01*
X123212322Y-87860000D01*
X123212333Y-87860000D01*
X123323986Y-87849003D01*
X123467247Y-87805546D01*
X123599276Y-87734974D01*
X123715001Y-87640001D01*
X123738804Y-87610997D01*
X127146692Y-84203110D01*
X136058524Y-84203110D01*
X136179845Y-84433000D01*
X137373000Y-84433000D01*
X137373000Y-83239186D01*
X137143109Y-83118519D01*
X136868748Y-83215843D01*
X136618645Y-83364822D01*
X136402412Y-83559731D01*
X136228359Y-83793080D01*
X136103175Y-84055901D01*
X136058524Y-84203110D01*
X127146692Y-84203110D01*
X128114803Y-83235000D01*
X128176939Y-83235000D01*
X128376898Y-83195226D01*
X128565256Y-83117205D01*
X128734774Y-83003937D01*
X128878937Y-82859774D01*
X128992205Y-82690256D01*
X129070226Y-82501898D01*
X129110000Y-82301939D01*
X129110000Y-82098061D01*
X129070226Y-81898102D01*
X129054444Y-81860000D01*
X138840000Y-81860000D01*
X138840000Y-83936598D01*
G37*
X138840000Y-83936598D02*
X138771641Y-83793080D01*
X138597588Y-83559731D01*
X138381355Y-83364822D01*
X138131252Y-83215843D01*
X137856891Y-83118519D01*
X137627000Y-83239186D01*
X137627000Y-84433000D01*
X137647000Y-84433000D01*
X137647000Y-84687000D01*
X137627000Y-84687000D01*
X137627000Y-84707000D01*
X137373000Y-84707000D01*
X137373000Y-84687000D01*
X136179845Y-84687000D01*
X136058524Y-84916890D01*
X136103175Y-85064099D01*
X136228359Y-85326920D01*
X136402412Y-85560269D01*
X136618645Y-85755178D01*
X136735534Y-85824805D01*
X136553368Y-85946525D01*
X136346525Y-86153368D01*
X136184010Y-86396589D01*
X136072068Y-86666842D01*
X136015000Y-86953740D01*
X136015000Y-87246260D01*
X136072068Y-87533158D01*
X136184010Y-87803411D01*
X136346525Y-88046632D01*
X136553368Y-88253475D01*
X136727760Y-88370000D01*
X136553368Y-88486525D01*
X136346525Y-88693368D01*
X136184010Y-88936589D01*
X136072068Y-89206842D01*
X136015000Y-89493740D01*
X136015000Y-89786260D01*
X136072068Y-90073158D01*
X136184010Y-90343411D01*
X136346525Y-90586632D01*
X136553368Y-90793475D01*
X136727760Y-90910000D01*
X136553368Y-91026525D01*
X136346525Y-91233368D01*
X136184010Y-91476589D01*
X136072068Y-91746842D01*
X136015000Y-92033740D01*
X136015000Y-92326260D01*
X136072068Y-92613158D01*
X136184010Y-92883411D01*
X136346525Y-93126632D01*
X136553368Y-93333475D01*
X136727760Y-93450000D01*
X136553368Y-93566525D01*
X136346525Y-93773368D01*
X136184010Y-94016589D01*
X136072068Y-94286842D01*
X136015000Y-94573740D01*
X136015000Y-94866260D01*
X136072068Y-95153158D01*
X136184010Y-95423411D01*
X136346525Y-95666632D01*
X136553368Y-95873475D01*
X136727760Y-95990000D01*
X136553368Y-96106525D01*
X136346525Y-96313368D01*
X136184010Y-96556589D01*
X136072068Y-96826842D01*
X136015000Y-97113740D01*
X136015000Y-97406260D01*
X136072068Y-97693158D01*
X136184010Y-97963411D01*
X136346525Y-98206632D01*
X136553368Y-98413475D01*
X136727760Y-98530000D01*
X136553368Y-98646525D01*
X136346525Y-98853368D01*
X136221822Y-99040000D01*
X124053388Y-99040000D01*
X124092305Y-98981756D01*
X124170326Y-98793398D01*
X124210100Y-98593439D01*
X124210100Y-98389561D01*
X124170326Y-98189602D01*
X124092305Y-98001244D01*
X123979037Y-97831726D01*
X123935100Y-97787789D01*
X123935100Y-94237711D01*
X123979037Y-94193774D01*
X124092305Y-94024256D01*
X124170326Y-93835898D01*
X124210100Y-93635939D01*
X124210100Y-93432061D01*
X124170326Y-93232102D01*
X124092305Y-93043744D01*
X123979037Y-92874226D01*
X123834874Y-92730063D01*
X123665356Y-92616795D01*
X123476998Y-92538774D01*
X123277039Y-92499000D01*
X123073161Y-92499000D01*
X122873202Y-92538774D01*
X122684844Y-92616795D01*
X122515326Y-92730063D01*
X122371163Y-92874226D01*
X122257895Y-93043744D01*
X122179874Y-93232102D01*
X122140100Y-93432061D01*
X122140100Y-93635939D01*
X122179874Y-93835898D01*
X122257895Y-94024256D01*
X122371163Y-94193774D01*
X122415100Y-94237711D01*
X122415101Y-97739564D01*
X122399701Y-97720799D01*
X122283976Y-97625826D01*
X122151947Y-97555254D01*
X122008686Y-97511797D01*
X121897033Y-97500800D01*
X121897022Y-97500800D01*
X121859700Y-97497124D01*
X121822378Y-97500800D01*
X120679424Y-97500800D01*
X120839956Y-97434305D01*
X121009474Y-97321037D01*
X121153637Y-97176874D01*
X121266905Y-97007356D01*
X121344926Y-96818998D01*
X121384700Y-96619039D01*
X121384700Y-96415161D01*
X121344926Y-96215202D01*
X121266905Y-96026844D01*
X121153637Y-95857326D01*
X121009474Y-95713163D01*
X120839956Y-95599895D01*
X120651598Y-95521874D01*
X120460000Y-95483763D01*
X120460000Y-93403713D01*
X120503937Y-93359776D01*
X120617205Y-93190258D01*
X120695226Y-93001900D01*
X120735000Y-92801941D01*
X120735000Y-92598063D01*
X120695226Y-92398104D01*
X120617205Y-92209746D01*
X120503937Y-92040228D01*
X120359774Y-91896065D01*
X120198631Y-91788393D01*
X120261447Y-91725577D01*
X120374715Y-91556059D01*
X120452736Y-91367701D01*
X120492510Y-91167742D01*
X120492510Y-90963864D01*
X120452736Y-90763905D01*
X120374715Y-90575547D01*
X120261447Y-90406029D01*
X120255418Y-90400000D01*
X125906399Y-90400000D01*
X128490000Y-92983602D01*
X128490000Y-93045739D01*
X128529774Y-93245698D01*
X128607795Y-93434056D01*
X128721063Y-93603574D01*
X128865226Y-93747737D01*
X129034744Y-93861005D01*
X129223102Y-93939026D01*
X129423061Y-93978800D01*
X129626939Y-93978800D01*
X129826898Y-93939026D01*
X130015256Y-93861005D01*
X130184774Y-93747737D01*
X130328937Y-93603574D01*
X130442205Y-93434056D01*
X130520226Y-93245698D01*
X130560000Y-93045739D01*
X130560000Y-92841861D01*
X130520226Y-92641902D01*
X130442205Y-92453544D01*
X130328937Y-92284026D01*
X130184774Y-92139863D01*
X130015256Y-92026595D01*
X129826898Y-91948574D01*
X129626939Y-91908800D01*
X129564802Y-91908800D01*
X126785004Y-89129003D01*
X126761201Y-89099999D01*
X126645476Y-89005026D01*
X126513447Y-88934454D01*
X126370186Y-88890997D01*
X126258533Y-88880000D01*
X126258522Y-88880000D01*
X126221200Y-88876324D01*
X126183878Y-88880000D01*
X103778178Y-88880000D01*
X103653475Y-88693368D01*
X103446632Y-88486525D01*
X103272240Y-88370000D01*
X103446632Y-88253475D01*
X103653475Y-88046632D01*
X103778178Y-87860000D01*
X123137678Y-87860000D01*
X123175000Y-87863676D01*
X123212322Y-87860000D01*
X123212333Y-87860000D01*
X123323986Y-87849003D01*
X123467247Y-87805546D01*
X123599276Y-87734974D01*
X123715001Y-87640001D01*
X123738804Y-87610997D01*
X127146692Y-84203110D01*
X136058524Y-84203110D01*
X136179845Y-84433000D01*
X137373000Y-84433000D01*
X137373000Y-83239186D01*
X137143109Y-83118519D01*
X136868748Y-83215843D01*
X136618645Y-83364822D01*
X136402412Y-83559731D01*
X136228359Y-83793080D01*
X136103175Y-84055901D01*
X136058524Y-84203110D01*
X127146692Y-84203110D01*
X128114803Y-83235000D01*
X128176939Y-83235000D01*
X128376898Y-83195226D01*
X128565256Y-83117205D01*
X128734774Y-83003937D01*
X128878937Y-82859774D01*
X128992205Y-82690256D01*
X129070226Y-82501898D01*
X129110000Y-82301939D01*
X129110000Y-82098061D01*
X129070226Y-81898102D01*
X129054444Y-81860000D01*
X138840000Y-81860000D01*
X138840000Y-83936598D01*
G36*
X118653573Y-90406029D02*
G01*
X118540305Y-90575547D01*
X118462284Y-90763905D01*
X118422510Y-90963864D01*
X118422510Y-91026002D01*
X118313999Y-91134513D01*
X118285001Y-91158311D01*
X118261203Y-91187309D01*
X118261202Y-91187310D01*
X118190027Y-91274036D01*
X118119455Y-91406066D01*
X118101335Y-91465802D01*
X118094485Y-91488383D01*
X117976929Y-91465000D01*
X117773051Y-91465000D01*
X117573092Y-91504774D01*
X117384734Y-91582795D01*
X117215216Y-91696063D01*
X117071053Y-91840226D01*
X116957785Y-92009744D01*
X116879764Y-92198102D01*
X116839990Y-92398061D01*
X116839990Y-92460198D01*
X115563995Y-93736194D01*
X115534997Y-93759992D01*
X115511199Y-93788990D01*
X115440024Y-93875716D01*
X115426691Y-93900661D01*
X115369452Y-94007746D01*
X115325995Y-94151007D01*
X115314998Y-94262660D01*
X115314998Y-94262670D01*
X115311322Y-94299992D01*
X115314998Y-94337315D01*
X115314999Y-96806443D01*
X115203937Y-96640226D01*
X115059774Y-96496063D01*
X114890256Y-96382795D01*
X114701898Y-96304774D01*
X114501939Y-96265000D01*
X114439802Y-96265000D01*
X113628404Y-95453602D01*
X113604601Y-95424599D01*
X113488876Y-95329626D01*
X113356847Y-95259054D01*
X113213586Y-95215597D01*
X113101933Y-95204600D01*
X113101922Y-95204600D01*
X113064600Y-95200924D01*
X113027278Y-95204600D01*
X103906624Y-95204600D01*
X103927932Y-95153158D01*
X103985000Y-94866260D01*
X103985000Y-94573740D01*
X103927932Y-94286842D01*
X103815990Y-94016589D01*
X103653475Y-93773368D01*
X103446632Y-93566525D01*
X103272240Y-93450000D01*
X103446632Y-93333475D01*
X103653475Y-93126632D01*
X103815990Y-92883411D01*
X103927932Y-92613158D01*
X103985000Y-92326260D01*
X103985000Y-92033740D01*
X103927932Y-91746842D01*
X103815990Y-91476589D01*
X103653475Y-91233368D01*
X103446632Y-91026525D01*
X103272240Y-90910000D01*
X103446632Y-90793475D01*
X103653475Y-90586632D01*
X103778178Y-90400000D01*
X118659602Y-90400000D01*
X118653573Y-90406029D01*
G37*
X118653573Y-90406029D02*
X118540305Y-90575547D01*
X118462284Y-90763905D01*
X118422510Y-90963864D01*
X118422510Y-91026002D01*
X118313999Y-91134513D01*
X118285001Y-91158311D01*
X118261203Y-91187309D01*
X118261202Y-91187310D01*
X118190027Y-91274036D01*
X118119455Y-91406066D01*
X118101335Y-91465802D01*
X118094485Y-91488383D01*
X117976929Y-91465000D01*
X117773051Y-91465000D01*
X117573092Y-91504774D01*
X117384734Y-91582795D01*
X117215216Y-91696063D01*
X117071053Y-91840226D01*
X116957785Y-92009744D01*
X116879764Y-92198102D01*
X116839990Y-92398061D01*
X116839990Y-92460198D01*
X115563995Y-93736194D01*
X115534997Y-93759992D01*
X115511199Y-93788990D01*
X115440024Y-93875716D01*
X115426691Y-93900661D01*
X115369452Y-94007746D01*
X115325995Y-94151007D01*
X115314998Y-94262660D01*
X115314998Y-94262670D01*
X115311322Y-94299992D01*
X115314998Y-94337315D01*
X115314999Y-96806443D01*
X115203937Y-96640226D01*
X115059774Y-96496063D01*
X114890256Y-96382795D01*
X114701898Y-96304774D01*
X114501939Y-96265000D01*
X114439802Y-96265000D01*
X113628404Y-95453602D01*
X113604601Y-95424599D01*
X113488876Y-95329626D01*
X113356847Y-95259054D01*
X113213586Y-95215597D01*
X113101933Y-95204600D01*
X113101922Y-95204600D01*
X113064600Y-95200924D01*
X113027278Y-95204600D01*
X103906624Y-95204600D01*
X103927932Y-95153158D01*
X103985000Y-94866260D01*
X103985000Y-94573740D01*
X103927932Y-94286842D01*
X103815990Y-94016589D01*
X103653475Y-93773368D01*
X103446632Y-93566525D01*
X103272240Y-93450000D01*
X103446632Y-93333475D01*
X103653475Y-93126632D01*
X103815990Y-92883411D01*
X103927932Y-92613158D01*
X103985000Y-92326260D01*
X103985000Y-92033740D01*
X103927932Y-91746842D01*
X103815990Y-91476589D01*
X103653475Y-91233368D01*
X103446632Y-91026525D01*
X103272240Y-90910000D01*
X103446632Y-90793475D01*
X103653475Y-90586632D01*
X103778178Y-90400000D01*
X118659602Y-90400000D01*
X118653573Y-90406029D01*
G36*
X127079774Y-81898102D02*
G01*
X127040000Y-82098061D01*
X127040000Y-82160197D01*
X122860199Y-86340000D01*
X103778178Y-86340000D01*
X103653475Y-86153368D01*
X103446632Y-85946525D01*
X103264466Y-85824805D01*
X103381355Y-85755178D01*
X103597588Y-85560269D01*
X103771641Y-85326920D01*
X103896825Y-85064099D01*
X103941476Y-84916890D01*
X103820155Y-84687000D01*
X102627000Y-84687000D01*
X102627000Y-84707000D01*
X102373000Y-84707000D01*
X102373000Y-84687000D01*
X102353000Y-84687000D01*
X102353000Y-84433000D01*
X102373000Y-84433000D01*
X102373000Y-83239186D01*
X102627000Y-83239186D01*
X102627000Y-84433000D01*
X103820155Y-84433000D01*
X103941476Y-84203110D01*
X103896825Y-84055901D01*
X103771641Y-83793080D01*
X103597588Y-83559731D01*
X103381355Y-83364822D01*
X103131252Y-83215843D01*
X102856891Y-83118519D01*
X102627000Y-83239186D01*
X102373000Y-83239186D01*
X102143109Y-83118519D01*
X101868748Y-83215843D01*
X101618645Y-83364822D01*
X101402412Y-83559731D01*
X101228359Y-83793080D01*
X101160000Y-83936598D01*
X101160000Y-81860000D01*
X127095556Y-81860000D01*
X127079774Y-81898102D01*
G37*
X127079774Y-81898102D02*
X127040000Y-82098061D01*
X127040000Y-82160197D01*
X122860199Y-86340000D01*
X103778178Y-86340000D01*
X103653475Y-86153368D01*
X103446632Y-85946525D01*
X103264466Y-85824805D01*
X103381355Y-85755178D01*
X103597588Y-85560269D01*
X103771641Y-85326920D01*
X103896825Y-85064099D01*
X103941476Y-84916890D01*
X103820155Y-84687000D01*
X102627000Y-84687000D01*
X102627000Y-84707000D01*
X102373000Y-84707000D01*
X102373000Y-84687000D01*
X102353000Y-84687000D01*
X102353000Y-84433000D01*
X102373000Y-84433000D01*
X102373000Y-83239186D01*
X102627000Y-83239186D01*
X102627000Y-84433000D01*
X103820155Y-84433000D01*
X103941476Y-84203110D01*
X103896825Y-84055901D01*
X103771641Y-83793080D01*
X103597588Y-83559731D01*
X103381355Y-83364822D01*
X103131252Y-83215843D01*
X102856891Y-83118519D01*
X102627000Y-83239186D01*
X102373000Y-83239186D01*
X102143109Y-83118519D01*
X101868748Y-83215843D01*
X101618645Y-83364822D01*
X101402412Y-83559731D01*
X101228359Y-83793080D01*
X101160000Y-83936598D01*
X101160000Y-81860000D01*
X127095556Y-81860000D01*
X127079774Y-81898102D01*
M02*
