G04 #@! TF.GenerationSoftware,KiCad,Pcbnew,5.1.5+dfsg1-2build2*
G04 #@! TF.CreationDate,2022-07-16T15:57:28-04:00*
G04 #@! TF.ProjectId,coco2_3134_64k_static_ram_board,636f636f-325f-4333-9133-345f36346b5f,rev?*
G04 #@! TF.SameCoordinates,Original*
G04 #@! TF.FileFunction,Soldermask,Bot*
G04 #@! TF.FilePolarity,Negative*
%FSLAX46Y46*%
G04 Gerber Fmt 4.6, Leading zero omitted, Abs format (unit mm)*
G04 Created by KiCad (PCBNEW 5.1.5+dfsg1-2build2) date 2022-07-16 15:57:28*
%MOMM*%
%LPD*%
G04 APERTURE LIST*
%ADD10C,0.100000*%
G04 APERTURE END LIST*
D10*
G36*
X138401000Y-113401000D02*
G01*
X136599000Y-113401000D01*
X136599000Y-111599000D01*
X138401000Y-111599000D01*
X138401000Y-113401000D01*
G37*
G36*
X103401000Y-113401000D02*
G01*
X101599000Y-113401000D01*
X101599000Y-111599000D01*
X103401000Y-111599000D01*
X103401000Y-113401000D01*
G37*
G36*
X128316242Y-111653404D02*
G01*
X128353337Y-111664657D01*
X128387515Y-111682925D01*
X128417481Y-111707519D01*
X128442075Y-111737485D01*
X128460343Y-111771663D01*
X128471596Y-111808758D01*
X128476000Y-111853474D01*
X128476000Y-112946526D01*
X128471596Y-112991242D01*
X128460343Y-113028337D01*
X128442075Y-113062515D01*
X128417481Y-113092481D01*
X128387515Y-113117075D01*
X128353337Y-113135343D01*
X128316242Y-113146596D01*
X128271526Y-113151000D01*
X127378474Y-113151000D01*
X127333758Y-113146596D01*
X127296663Y-113135343D01*
X127262485Y-113117075D01*
X127232519Y-113092481D01*
X127207925Y-113062515D01*
X127189657Y-113028337D01*
X127178404Y-112991242D01*
X127174000Y-112946526D01*
X127174000Y-111853474D01*
X127178404Y-111808758D01*
X127189657Y-111771663D01*
X127207925Y-111737485D01*
X127232519Y-111707519D01*
X127262485Y-111682925D01*
X127296663Y-111664657D01*
X127333758Y-111653404D01*
X127378474Y-111649000D01*
X128271526Y-111649000D01*
X128316242Y-111653404D01*
G37*
G36*
X130316242Y-111653404D02*
G01*
X130353337Y-111664657D01*
X130387515Y-111682925D01*
X130417481Y-111707519D01*
X130442075Y-111737485D01*
X130460343Y-111771663D01*
X130471596Y-111808758D01*
X130476000Y-111853474D01*
X130476000Y-112946526D01*
X130471596Y-112991242D01*
X130460343Y-113028337D01*
X130442075Y-113062515D01*
X130417481Y-113092481D01*
X130387515Y-113117075D01*
X130353337Y-113135343D01*
X130316242Y-113146596D01*
X130271526Y-113151000D01*
X129378474Y-113151000D01*
X129333758Y-113146596D01*
X129296663Y-113135343D01*
X129262485Y-113117075D01*
X129232519Y-113092481D01*
X129207925Y-113062515D01*
X129189657Y-113028337D01*
X129178404Y-112991242D01*
X129174000Y-112946526D01*
X129174000Y-111853474D01*
X129178404Y-111808758D01*
X129189657Y-111771663D01*
X129207925Y-111737485D01*
X129232519Y-111707519D01*
X129262485Y-111682925D01*
X129296663Y-111664657D01*
X129333758Y-111653404D01*
X129378474Y-111649000D01*
X130271526Y-111649000D01*
X130316242Y-111653404D01*
G37*
G36*
X107941242Y-111628404D02*
G01*
X107978337Y-111639657D01*
X108012515Y-111657925D01*
X108042481Y-111682519D01*
X108067075Y-111712485D01*
X108085343Y-111746663D01*
X108096596Y-111783758D01*
X108101000Y-111828474D01*
X108101000Y-112921526D01*
X108096596Y-112966242D01*
X108085343Y-113003337D01*
X108067075Y-113037515D01*
X108042481Y-113067481D01*
X108012515Y-113092075D01*
X107978337Y-113110343D01*
X107941242Y-113121596D01*
X107896526Y-113126000D01*
X107003474Y-113126000D01*
X106958758Y-113121596D01*
X106921663Y-113110343D01*
X106887485Y-113092075D01*
X106857519Y-113067481D01*
X106832925Y-113037515D01*
X106814657Y-113003337D01*
X106803404Y-112966242D01*
X106799000Y-112921526D01*
X106799000Y-111828474D01*
X106803404Y-111783758D01*
X106814657Y-111746663D01*
X106832925Y-111712485D01*
X106857519Y-111682519D01*
X106887485Y-111657925D01*
X106921663Y-111639657D01*
X106958758Y-111628404D01*
X107003474Y-111624000D01*
X107896526Y-111624000D01*
X107941242Y-111628404D01*
G37*
G36*
X109941242Y-111628404D02*
G01*
X109978337Y-111639657D01*
X110012515Y-111657925D01*
X110042481Y-111682519D01*
X110067075Y-111712485D01*
X110085343Y-111746663D01*
X110096596Y-111783758D01*
X110101000Y-111828474D01*
X110101000Y-112921526D01*
X110096596Y-112966242D01*
X110085343Y-113003337D01*
X110067075Y-113037515D01*
X110042481Y-113067481D01*
X110012515Y-113092075D01*
X109978337Y-113110343D01*
X109941242Y-113121596D01*
X109896526Y-113126000D01*
X109003474Y-113126000D01*
X108958758Y-113121596D01*
X108921663Y-113110343D01*
X108887485Y-113092075D01*
X108857519Y-113067481D01*
X108832925Y-113037515D01*
X108814657Y-113003337D01*
X108803404Y-112966242D01*
X108799000Y-112921526D01*
X108799000Y-111828474D01*
X108803404Y-111783758D01*
X108814657Y-111746663D01*
X108832925Y-111712485D01*
X108857519Y-111682519D01*
X108887485Y-111657925D01*
X108921663Y-111639657D01*
X108958758Y-111628404D01*
X109003474Y-111624000D01*
X109896526Y-111624000D01*
X109941242Y-111628404D01*
G37*
G36*
X121393512Y-111103927D02*
G01*
X121542812Y-111133624D01*
X121706784Y-111201544D01*
X121854354Y-111300147D01*
X121979853Y-111425646D01*
X122078456Y-111573216D01*
X122146376Y-111737188D01*
X122169506Y-111853474D01*
X122177816Y-111895249D01*
X122181000Y-111911259D01*
X122181000Y-112088741D01*
X122146376Y-112262812D01*
X122078456Y-112426784D01*
X121979853Y-112574354D01*
X121854354Y-112699853D01*
X121706784Y-112798456D01*
X121542812Y-112866376D01*
X121393512Y-112896073D01*
X121368742Y-112901000D01*
X121191258Y-112901000D01*
X121166488Y-112896073D01*
X121017188Y-112866376D01*
X120853216Y-112798456D01*
X120705646Y-112699853D01*
X120580147Y-112574354D01*
X120481544Y-112426784D01*
X120413624Y-112262812D01*
X120379000Y-112088741D01*
X120379000Y-111911259D01*
X120382185Y-111895249D01*
X120390494Y-111853474D01*
X120413624Y-111737188D01*
X120481544Y-111573216D01*
X120580147Y-111425646D01*
X120705646Y-111300147D01*
X120853216Y-111201544D01*
X121017188Y-111133624D01*
X121166488Y-111103927D01*
X121191258Y-111099000D01*
X121368742Y-111099000D01*
X121393512Y-111103927D01*
G37*
G36*
X123933512Y-111103927D02*
G01*
X124082812Y-111133624D01*
X124246784Y-111201544D01*
X124394354Y-111300147D01*
X124519853Y-111425646D01*
X124618456Y-111573216D01*
X124686376Y-111737188D01*
X124709506Y-111853474D01*
X124717816Y-111895249D01*
X124721000Y-111911259D01*
X124721000Y-112088741D01*
X124686376Y-112262812D01*
X124618456Y-112426784D01*
X124519853Y-112574354D01*
X124394354Y-112699853D01*
X124246784Y-112798456D01*
X124082812Y-112866376D01*
X123933512Y-112896073D01*
X123908742Y-112901000D01*
X123731258Y-112901000D01*
X123706488Y-112896073D01*
X123557188Y-112866376D01*
X123393216Y-112798456D01*
X123245646Y-112699853D01*
X123120147Y-112574354D01*
X123021544Y-112426784D01*
X122953624Y-112262812D01*
X122919000Y-112088741D01*
X122919000Y-111911259D01*
X122922185Y-111895249D01*
X122930494Y-111853474D01*
X122953624Y-111737188D01*
X123021544Y-111573216D01*
X123120147Y-111425646D01*
X123245646Y-111300147D01*
X123393216Y-111201544D01*
X123557188Y-111133624D01*
X123706488Y-111103927D01*
X123731258Y-111099000D01*
X123908742Y-111099000D01*
X123933512Y-111103927D01*
G37*
G36*
X118853512Y-111103927D02*
G01*
X119002812Y-111133624D01*
X119166784Y-111201544D01*
X119314354Y-111300147D01*
X119439853Y-111425646D01*
X119538456Y-111573216D01*
X119606376Y-111737188D01*
X119629506Y-111853474D01*
X119637816Y-111895249D01*
X119641000Y-111911259D01*
X119641000Y-112088741D01*
X119606376Y-112262812D01*
X119538456Y-112426784D01*
X119439853Y-112574354D01*
X119314354Y-112699853D01*
X119166784Y-112798456D01*
X119002812Y-112866376D01*
X118853512Y-112896073D01*
X118828742Y-112901000D01*
X118651258Y-112901000D01*
X118626488Y-112896073D01*
X118477188Y-112866376D01*
X118313216Y-112798456D01*
X118165646Y-112699853D01*
X118040147Y-112574354D01*
X117941544Y-112426784D01*
X117873624Y-112262812D01*
X117839000Y-112088741D01*
X117839000Y-111911259D01*
X117842185Y-111895249D01*
X117850494Y-111853474D01*
X117873624Y-111737188D01*
X117941544Y-111573216D01*
X118040147Y-111425646D01*
X118165646Y-111300147D01*
X118313216Y-111201544D01*
X118477188Y-111133624D01*
X118626488Y-111103927D01*
X118651258Y-111099000D01*
X118828742Y-111099000D01*
X118853512Y-111103927D01*
G37*
G36*
X117101000Y-112901000D02*
G01*
X115299000Y-112901000D01*
X115299000Y-111099000D01*
X117101000Y-111099000D01*
X117101000Y-112901000D01*
G37*
G36*
X137613512Y-109063927D02*
G01*
X137762812Y-109093624D01*
X137926784Y-109161544D01*
X138074354Y-109260147D01*
X138199853Y-109385646D01*
X138298456Y-109533216D01*
X138366376Y-109697188D01*
X138401000Y-109871259D01*
X138401000Y-110048741D01*
X138366376Y-110222812D01*
X138298456Y-110386784D01*
X138199853Y-110534354D01*
X138074354Y-110659853D01*
X137926784Y-110758456D01*
X137762812Y-110826376D01*
X137613512Y-110856073D01*
X137588742Y-110861000D01*
X137411258Y-110861000D01*
X137386488Y-110856073D01*
X137237188Y-110826376D01*
X137073216Y-110758456D01*
X136925646Y-110659853D01*
X136800147Y-110534354D01*
X136701544Y-110386784D01*
X136633624Y-110222812D01*
X136599000Y-110048741D01*
X136599000Y-109871259D01*
X136633624Y-109697188D01*
X136701544Y-109533216D01*
X136800147Y-109385646D01*
X136925646Y-109260147D01*
X137073216Y-109161544D01*
X137237188Y-109093624D01*
X137386488Y-109063927D01*
X137411258Y-109059000D01*
X137588742Y-109059000D01*
X137613512Y-109063927D01*
G37*
G36*
X102613512Y-109063927D02*
G01*
X102762812Y-109093624D01*
X102926784Y-109161544D01*
X103074354Y-109260147D01*
X103199853Y-109385646D01*
X103298456Y-109533216D01*
X103366376Y-109697188D01*
X103401000Y-109871259D01*
X103401000Y-110048741D01*
X103366376Y-110222812D01*
X103298456Y-110386784D01*
X103199853Y-110534354D01*
X103074354Y-110659853D01*
X102926784Y-110758456D01*
X102762812Y-110826376D01*
X102613512Y-110856073D01*
X102588742Y-110861000D01*
X102411258Y-110861000D01*
X102386488Y-110856073D01*
X102237188Y-110826376D01*
X102073216Y-110758456D01*
X101925646Y-110659853D01*
X101800147Y-110534354D01*
X101701544Y-110386784D01*
X101633624Y-110222812D01*
X101599000Y-110048741D01*
X101599000Y-109871259D01*
X101633624Y-109697188D01*
X101701544Y-109533216D01*
X101800147Y-109385646D01*
X101925646Y-109260147D01*
X102073216Y-109161544D01*
X102237188Y-109093624D01*
X102386488Y-109063927D01*
X102411258Y-109059000D01*
X102588742Y-109059000D01*
X102613512Y-109063927D01*
G37*
G36*
X102609545Y-106523138D02*
G01*
X102762812Y-106553624D01*
X102926784Y-106621544D01*
X103074354Y-106720147D01*
X103199853Y-106845646D01*
X103298456Y-106993216D01*
X103366376Y-107157188D01*
X103396073Y-107306488D01*
X103401000Y-107331258D01*
X103401000Y-107508742D01*
X103397064Y-107528527D01*
X103366376Y-107682812D01*
X103298456Y-107846784D01*
X103199853Y-107994354D01*
X103074354Y-108119853D01*
X102926784Y-108218456D01*
X102762812Y-108286376D01*
X102613512Y-108316073D01*
X102588742Y-108321000D01*
X102411258Y-108321000D01*
X102386488Y-108316073D01*
X102237188Y-108286376D01*
X102073216Y-108218456D01*
X101925646Y-108119853D01*
X101800147Y-107994354D01*
X101701544Y-107846784D01*
X101633624Y-107682812D01*
X101602936Y-107528527D01*
X101599000Y-107508742D01*
X101599000Y-107331258D01*
X101603927Y-107306488D01*
X101633624Y-107157188D01*
X101701544Y-106993216D01*
X101800147Y-106845646D01*
X101925646Y-106720147D01*
X102073216Y-106621544D01*
X102237188Y-106553624D01*
X102390455Y-106523138D01*
X102411258Y-106519000D01*
X102588742Y-106519000D01*
X102609545Y-106523138D01*
G37*
G36*
X137609545Y-106523138D02*
G01*
X137762812Y-106553624D01*
X137926784Y-106621544D01*
X138074354Y-106720147D01*
X138199853Y-106845646D01*
X138298456Y-106993216D01*
X138366376Y-107157188D01*
X138396073Y-107306488D01*
X138401000Y-107331258D01*
X138401000Y-107508742D01*
X138397064Y-107528527D01*
X138366376Y-107682812D01*
X138298456Y-107846784D01*
X138199853Y-107994354D01*
X138074354Y-108119853D01*
X137926784Y-108218456D01*
X137762812Y-108286376D01*
X137613512Y-108316073D01*
X137588742Y-108321000D01*
X137411258Y-108321000D01*
X137386488Y-108316073D01*
X137237188Y-108286376D01*
X137073216Y-108218456D01*
X136925646Y-108119853D01*
X136800147Y-107994354D01*
X136701544Y-107846784D01*
X136633624Y-107682812D01*
X136602936Y-107528527D01*
X136599000Y-107508742D01*
X136599000Y-107331258D01*
X136603927Y-107306488D01*
X136633624Y-107157188D01*
X136701544Y-106993216D01*
X136800147Y-106845646D01*
X136925646Y-106720147D01*
X137073216Y-106621544D01*
X137237188Y-106553624D01*
X137390455Y-106523138D01*
X137411258Y-106519000D01*
X137588742Y-106519000D01*
X137609545Y-106523138D01*
G37*
G36*
X110192170Y-101905803D02*
G01*
X110203875Y-101909354D01*
X110214665Y-101915121D01*
X110224119Y-101922881D01*
X110231879Y-101932335D01*
X110237646Y-101943125D01*
X110241197Y-101954830D01*
X110243000Y-101973138D01*
X110243000Y-102336862D01*
X110241197Y-102355170D01*
X110237646Y-102366875D01*
X110231879Y-102377665D01*
X110220370Y-102391688D01*
X110211355Y-102400704D01*
X110197741Y-102421078D01*
X110188365Y-102443717D01*
X110183585Y-102467751D01*
X110183585Y-102492255D01*
X110188366Y-102516288D01*
X110197744Y-102538926D01*
X110211358Y-102559301D01*
X110220374Y-102568317D01*
X110231879Y-102582335D01*
X110237646Y-102593125D01*
X110241197Y-102604830D01*
X110243000Y-102623138D01*
X110243000Y-102986862D01*
X110241197Y-103005170D01*
X110237646Y-103016875D01*
X110231879Y-103027665D01*
X110220370Y-103041688D01*
X110211355Y-103050704D01*
X110197741Y-103071078D01*
X110188365Y-103093717D01*
X110183585Y-103117751D01*
X110183585Y-103142255D01*
X110188366Y-103166288D01*
X110197744Y-103188926D01*
X110211358Y-103209301D01*
X110220374Y-103218317D01*
X110231879Y-103232335D01*
X110237646Y-103243125D01*
X110241197Y-103254830D01*
X110243000Y-103273138D01*
X110243000Y-103636862D01*
X110241197Y-103655170D01*
X110237646Y-103666875D01*
X110231879Y-103677665D01*
X110220370Y-103691688D01*
X110211355Y-103700704D01*
X110197741Y-103721078D01*
X110188365Y-103743717D01*
X110183585Y-103767751D01*
X110183585Y-103792255D01*
X110188366Y-103816288D01*
X110197744Y-103838926D01*
X110211358Y-103859301D01*
X110220374Y-103868317D01*
X110231879Y-103882335D01*
X110237646Y-103893125D01*
X110241197Y-103904830D01*
X110243000Y-103923138D01*
X110243000Y-104286862D01*
X110241197Y-104305170D01*
X110237646Y-104316875D01*
X110231879Y-104327665D01*
X110220370Y-104341688D01*
X110211355Y-104350704D01*
X110197741Y-104371078D01*
X110188365Y-104393717D01*
X110183585Y-104417751D01*
X110183585Y-104442255D01*
X110188366Y-104466288D01*
X110197744Y-104488926D01*
X110211358Y-104509301D01*
X110220374Y-104518317D01*
X110231879Y-104532335D01*
X110237646Y-104543125D01*
X110241197Y-104554830D01*
X110243000Y-104573138D01*
X110243000Y-104936862D01*
X110241197Y-104955170D01*
X110237646Y-104966875D01*
X110231879Y-104977665D01*
X110220370Y-104991688D01*
X110211355Y-105000704D01*
X110197741Y-105021078D01*
X110188365Y-105043717D01*
X110183585Y-105067751D01*
X110183585Y-105092255D01*
X110188366Y-105116288D01*
X110197744Y-105138926D01*
X110211358Y-105159301D01*
X110220374Y-105168317D01*
X110231879Y-105182335D01*
X110237646Y-105193125D01*
X110241197Y-105204830D01*
X110243000Y-105223138D01*
X110243000Y-105586862D01*
X110241197Y-105605170D01*
X110237646Y-105616875D01*
X110231879Y-105627665D01*
X110220370Y-105641688D01*
X110211355Y-105650704D01*
X110197741Y-105671078D01*
X110188365Y-105693717D01*
X110183585Y-105717751D01*
X110183585Y-105742255D01*
X110188366Y-105766288D01*
X110197744Y-105788926D01*
X110211358Y-105809301D01*
X110220374Y-105818317D01*
X110231879Y-105832335D01*
X110237646Y-105843125D01*
X110241197Y-105854830D01*
X110243000Y-105873138D01*
X110243000Y-106236862D01*
X110241197Y-106255170D01*
X110237646Y-106266875D01*
X110231879Y-106277665D01*
X110220370Y-106291688D01*
X110211355Y-106300704D01*
X110197741Y-106321078D01*
X110188365Y-106343717D01*
X110183585Y-106367751D01*
X110183585Y-106392255D01*
X110188366Y-106416288D01*
X110197744Y-106438926D01*
X110211358Y-106459301D01*
X110220374Y-106468317D01*
X110231879Y-106482335D01*
X110237646Y-106493125D01*
X110241197Y-106504830D01*
X110243000Y-106523138D01*
X110243000Y-106886862D01*
X110241197Y-106905170D01*
X110237646Y-106916875D01*
X110231879Y-106927665D01*
X110220370Y-106941688D01*
X110211355Y-106950704D01*
X110197741Y-106971078D01*
X110188365Y-106993717D01*
X110183585Y-107017751D01*
X110183585Y-107042255D01*
X110188366Y-107066288D01*
X110197744Y-107088926D01*
X110211358Y-107109301D01*
X110220374Y-107118317D01*
X110231879Y-107132335D01*
X110237646Y-107143125D01*
X110241197Y-107154830D01*
X110243000Y-107173138D01*
X110243000Y-107536862D01*
X110241197Y-107555170D01*
X110237646Y-107566875D01*
X110231879Y-107577665D01*
X110220370Y-107591688D01*
X110211355Y-107600704D01*
X110197741Y-107621078D01*
X110188365Y-107643717D01*
X110183585Y-107667751D01*
X110183585Y-107692255D01*
X110188366Y-107716288D01*
X110197744Y-107738926D01*
X110211358Y-107759301D01*
X110220374Y-107768317D01*
X110231879Y-107782335D01*
X110237646Y-107793125D01*
X110241197Y-107804830D01*
X110243000Y-107823138D01*
X110243000Y-108186862D01*
X110241197Y-108205170D01*
X110237646Y-108216875D01*
X110231879Y-108227665D01*
X110224119Y-108237119D01*
X110214665Y-108244879D01*
X110203875Y-108250646D01*
X110192170Y-108254197D01*
X110173862Y-108256000D01*
X108735138Y-108256000D01*
X108716830Y-108254197D01*
X108705125Y-108250646D01*
X108694335Y-108244879D01*
X108684881Y-108237119D01*
X108677121Y-108227665D01*
X108671354Y-108216875D01*
X108667803Y-108205170D01*
X108666000Y-108186862D01*
X108666000Y-107823138D01*
X108667803Y-107804830D01*
X108671354Y-107793125D01*
X108677121Y-107782335D01*
X108688630Y-107768312D01*
X108697645Y-107759296D01*
X108711259Y-107738922D01*
X108720635Y-107716283D01*
X108725415Y-107692249D01*
X108725415Y-107667745D01*
X108720634Y-107643712D01*
X108711256Y-107621074D01*
X108697642Y-107600699D01*
X108688626Y-107591683D01*
X108677121Y-107577665D01*
X108671354Y-107566875D01*
X108667803Y-107555170D01*
X108666000Y-107536862D01*
X108666000Y-107173138D01*
X108667803Y-107154830D01*
X108671354Y-107143125D01*
X108677121Y-107132335D01*
X108688630Y-107118312D01*
X108697645Y-107109296D01*
X108711259Y-107088922D01*
X108720635Y-107066283D01*
X108725415Y-107042249D01*
X108725415Y-107017745D01*
X108720634Y-106993712D01*
X108711256Y-106971074D01*
X108697642Y-106950699D01*
X108688626Y-106941683D01*
X108677121Y-106927665D01*
X108671354Y-106916875D01*
X108667803Y-106905170D01*
X108666000Y-106886862D01*
X108666000Y-106523138D01*
X108667803Y-106504830D01*
X108671354Y-106493125D01*
X108677121Y-106482335D01*
X108688630Y-106468312D01*
X108697645Y-106459296D01*
X108711259Y-106438922D01*
X108720635Y-106416283D01*
X108725415Y-106392249D01*
X108725415Y-106367745D01*
X108720634Y-106343712D01*
X108711256Y-106321074D01*
X108697642Y-106300699D01*
X108688626Y-106291683D01*
X108677121Y-106277665D01*
X108671354Y-106266875D01*
X108667803Y-106255170D01*
X108666000Y-106236862D01*
X108666000Y-105873138D01*
X108667803Y-105854830D01*
X108671354Y-105843125D01*
X108677121Y-105832335D01*
X108688630Y-105818312D01*
X108697645Y-105809296D01*
X108711259Y-105788922D01*
X108720635Y-105766283D01*
X108725415Y-105742249D01*
X108725415Y-105717745D01*
X108720634Y-105693712D01*
X108711256Y-105671074D01*
X108697642Y-105650699D01*
X108688626Y-105641683D01*
X108677121Y-105627665D01*
X108671354Y-105616875D01*
X108667803Y-105605170D01*
X108666000Y-105586862D01*
X108666000Y-105223138D01*
X108667803Y-105204830D01*
X108671354Y-105193125D01*
X108677121Y-105182335D01*
X108688630Y-105168312D01*
X108697645Y-105159296D01*
X108711259Y-105138922D01*
X108720635Y-105116283D01*
X108725415Y-105092249D01*
X108725415Y-105067745D01*
X108720634Y-105043712D01*
X108711256Y-105021074D01*
X108697642Y-105000699D01*
X108688626Y-104991683D01*
X108677121Y-104977665D01*
X108671354Y-104966875D01*
X108667803Y-104955170D01*
X108666000Y-104936862D01*
X108666000Y-104573138D01*
X108667803Y-104554830D01*
X108671354Y-104543125D01*
X108677121Y-104532335D01*
X108688630Y-104518312D01*
X108697645Y-104509296D01*
X108711259Y-104488922D01*
X108720635Y-104466283D01*
X108725415Y-104442249D01*
X108725415Y-104417745D01*
X108720634Y-104393712D01*
X108711256Y-104371074D01*
X108697642Y-104350699D01*
X108688626Y-104341683D01*
X108677121Y-104327665D01*
X108671354Y-104316875D01*
X108667803Y-104305170D01*
X108666000Y-104286862D01*
X108666000Y-103923138D01*
X108667803Y-103904830D01*
X108671354Y-103893125D01*
X108677121Y-103882335D01*
X108688630Y-103868312D01*
X108697645Y-103859296D01*
X108711259Y-103838922D01*
X108720635Y-103816283D01*
X108725415Y-103792249D01*
X108725415Y-103767745D01*
X108720634Y-103743712D01*
X108711256Y-103721074D01*
X108697642Y-103700699D01*
X108688626Y-103691683D01*
X108677121Y-103677665D01*
X108671354Y-103666875D01*
X108667803Y-103655170D01*
X108666000Y-103636862D01*
X108666000Y-103273138D01*
X108667803Y-103254830D01*
X108671354Y-103243125D01*
X108677121Y-103232335D01*
X108688630Y-103218312D01*
X108697645Y-103209296D01*
X108711259Y-103188922D01*
X108720635Y-103166283D01*
X108725415Y-103142249D01*
X108725415Y-103117745D01*
X108720634Y-103093712D01*
X108711256Y-103071074D01*
X108697642Y-103050699D01*
X108688626Y-103041683D01*
X108677121Y-103027665D01*
X108671354Y-103016875D01*
X108667803Y-103005170D01*
X108666000Y-102986862D01*
X108666000Y-102623138D01*
X108667803Y-102604830D01*
X108671354Y-102593125D01*
X108677121Y-102582335D01*
X108688630Y-102568312D01*
X108697645Y-102559296D01*
X108711259Y-102538922D01*
X108720635Y-102516283D01*
X108725415Y-102492249D01*
X108725415Y-102467745D01*
X108720634Y-102443712D01*
X108711256Y-102421074D01*
X108697642Y-102400699D01*
X108688626Y-102391683D01*
X108677121Y-102377665D01*
X108671354Y-102366875D01*
X108667803Y-102355170D01*
X108666000Y-102336862D01*
X108666000Y-101973138D01*
X108667803Y-101954830D01*
X108671354Y-101943125D01*
X108677121Y-101932335D01*
X108684881Y-101922881D01*
X108694335Y-101915121D01*
X108705125Y-101909354D01*
X108716830Y-101905803D01*
X108735138Y-101904000D01*
X110173862Y-101904000D01*
X110192170Y-101905803D01*
G37*
G36*
X115917170Y-101905803D02*
G01*
X115928875Y-101909354D01*
X115939665Y-101915121D01*
X115949119Y-101922881D01*
X115956879Y-101932335D01*
X115962646Y-101943125D01*
X115966197Y-101954830D01*
X115968000Y-101973138D01*
X115968000Y-102336862D01*
X115966197Y-102355170D01*
X115962646Y-102366875D01*
X115956879Y-102377665D01*
X115945370Y-102391688D01*
X115936355Y-102400704D01*
X115922741Y-102421078D01*
X115913365Y-102443717D01*
X115908585Y-102467751D01*
X115908585Y-102492255D01*
X115913366Y-102516288D01*
X115922744Y-102538926D01*
X115936358Y-102559301D01*
X115945374Y-102568317D01*
X115956879Y-102582335D01*
X115962646Y-102593125D01*
X115966197Y-102604830D01*
X115968000Y-102623138D01*
X115968000Y-102986862D01*
X115966197Y-103005170D01*
X115962646Y-103016875D01*
X115956879Y-103027665D01*
X115945370Y-103041688D01*
X115936355Y-103050704D01*
X115922741Y-103071078D01*
X115913365Y-103093717D01*
X115908585Y-103117751D01*
X115908585Y-103142255D01*
X115913366Y-103166288D01*
X115922744Y-103188926D01*
X115936358Y-103209301D01*
X115945374Y-103218317D01*
X115956879Y-103232335D01*
X115962646Y-103243125D01*
X115966197Y-103254830D01*
X115968000Y-103273138D01*
X115968000Y-103636862D01*
X115966197Y-103655170D01*
X115962646Y-103666875D01*
X115956879Y-103677665D01*
X115945370Y-103691688D01*
X115936355Y-103700704D01*
X115922741Y-103721078D01*
X115913365Y-103743717D01*
X115908585Y-103767751D01*
X115908585Y-103792255D01*
X115913366Y-103816288D01*
X115922744Y-103838926D01*
X115936358Y-103859301D01*
X115945374Y-103868317D01*
X115956879Y-103882335D01*
X115962646Y-103893125D01*
X115966197Y-103904830D01*
X115968000Y-103923138D01*
X115968000Y-104286862D01*
X115966197Y-104305170D01*
X115962646Y-104316875D01*
X115956879Y-104327665D01*
X115945370Y-104341688D01*
X115936355Y-104350704D01*
X115922741Y-104371078D01*
X115913365Y-104393717D01*
X115908585Y-104417751D01*
X115908585Y-104442255D01*
X115913366Y-104466288D01*
X115922744Y-104488926D01*
X115936358Y-104509301D01*
X115945374Y-104518317D01*
X115956879Y-104532335D01*
X115962646Y-104543125D01*
X115966197Y-104554830D01*
X115968000Y-104573138D01*
X115968000Y-104936862D01*
X115966197Y-104955170D01*
X115962646Y-104966875D01*
X115956879Y-104977665D01*
X115945370Y-104991688D01*
X115936355Y-105000704D01*
X115922741Y-105021078D01*
X115913365Y-105043717D01*
X115908585Y-105067751D01*
X115908585Y-105092255D01*
X115913366Y-105116288D01*
X115922744Y-105138926D01*
X115936358Y-105159301D01*
X115945374Y-105168317D01*
X115956879Y-105182335D01*
X115962646Y-105193125D01*
X115966197Y-105204830D01*
X115968000Y-105223138D01*
X115968000Y-105586862D01*
X115966197Y-105605170D01*
X115962646Y-105616875D01*
X115956879Y-105627665D01*
X115945370Y-105641688D01*
X115936355Y-105650704D01*
X115922741Y-105671078D01*
X115913365Y-105693717D01*
X115908585Y-105717751D01*
X115908585Y-105742255D01*
X115913366Y-105766288D01*
X115922744Y-105788926D01*
X115936358Y-105809301D01*
X115945374Y-105818317D01*
X115956879Y-105832335D01*
X115962646Y-105843125D01*
X115966197Y-105854830D01*
X115968000Y-105873138D01*
X115968000Y-106236862D01*
X115966197Y-106255170D01*
X115962646Y-106266875D01*
X115956879Y-106277665D01*
X115945370Y-106291688D01*
X115936355Y-106300704D01*
X115922741Y-106321078D01*
X115913365Y-106343717D01*
X115908585Y-106367751D01*
X115908585Y-106392255D01*
X115913366Y-106416288D01*
X115922744Y-106438926D01*
X115936358Y-106459301D01*
X115945374Y-106468317D01*
X115956879Y-106482335D01*
X115962646Y-106493125D01*
X115966197Y-106504830D01*
X115968000Y-106523138D01*
X115968000Y-106886862D01*
X115966197Y-106905170D01*
X115962646Y-106916875D01*
X115956879Y-106927665D01*
X115945370Y-106941688D01*
X115936355Y-106950704D01*
X115922741Y-106971078D01*
X115913365Y-106993717D01*
X115908585Y-107017751D01*
X115908585Y-107042255D01*
X115913366Y-107066288D01*
X115922744Y-107088926D01*
X115936358Y-107109301D01*
X115945374Y-107118317D01*
X115956879Y-107132335D01*
X115962646Y-107143125D01*
X115966197Y-107154830D01*
X115968000Y-107173138D01*
X115968000Y-107536862D01*
X115966197Y-107555170D01*
X115962646Y-107566875D01*
X115956879Y-107577665D01*
X115945370Y-107591688D01*
X115936355Y-107600704D01*
X115922741Y-107621078D01*
X115913365Y-107643717D01*
X115908585Y-107667751D01*
X115908585Y-107692255D01*
X115913366Y-107716288D01*
X115922744Y-107738926D01*
X115936358Y-107759301D01*
X115945374Y-107768317D01*
X115956879Y-107782335D01*
X115962646Y-107793125D01*
X115966197Y-107804830D01*
X115968000Y-107823138D01*
X115968000Y-108186862D01*
X115966197Y-108205170D01*
X115962646Y-108216875D01*
X115956879Y-108227665D01*
X115949119Y-108237119D01*
X115939665Y-108244879D01*
X115928875Y-108250646D01*
X115917170Y-108254197D01*
X115898862Y-108256000D01*
X114460138Y-108256000D01*
X114441830Y-108254197D01*
X114430125Y-108250646D01*
X114419335Y-108244879D01*
X114409881Y-108237119D01*
X114402121Y-108227665D01*
X114396354Y-108216875D01*
X114392803Y-108205170D01*
X114391000Y-108186862D01*
X114391000Y-107823138D01*
X114392803Y-107804830D01*
X114396354Y-107793125D01*
X114402121Y-107782335D01*
X114413630Y-107768312D01*
X114422645Y-107759296D01*
X114436259Y-107738922D01*
X114445635Y-107716283D01*
X114450415Y-107692249D01*
X114450415Y-107667745D01*
X114445634Y-107643712D01*
X114436256Y-107621074D01*
X114422642Y-107600699D01*
X114413626Y-107591683D01*
X114402121Y-107577665D01*
X114396354Y-107566875D01*
X114392803Y-107555170D01*
X114391000Y-107536862D01*
X114391000Y-107173138D01*
X114392803Y-107154830D01*
X114396354Y-107143125D01*
X114402121Y-107132335D01*
X114413630Y-107118312D01*
X114422645Y-107109296D01*
X114436259Y-107088922D01*
X114445635Y-107066283D01*
X114450415Y-107042249D01*
X114450415Y-107017745D01*
X114445634Y-106993712D01*
X114436256Y-106971074D01*
X114422642Y-106950699D01*
X114413626Y-106941683D01*
X114402121Y-106927665D01*
X114396354Y-106916875D01*
X114392803Y-106905170D01*
X114391000Y-106886862D01*
X114391000Y-106523138D01*
X114392803Y-106504830D01*
X114396354Y-106493125D01*
X114402121Y-106482335D01*
X114413630Y-106468312D01*
X114422645Y-106459296D01*
X114436259Y-106438922D01*
X114445635Y-106416283D01*
X114450415Y-106392249D01*
X114450415Y-106367745D01*
X114445634Y-106343712D01*
X114436256Y-106321074D01*
X114422642Y-106300699D01*
X114413626Y-106291683D01*
X114402121Y-106277665D01*
X114396354Y-106266875D01*
X114392803Y-106255170D01*
X114391000Y-106236862D01*
X114391000Y-105873138D01*
X114392803Y-105854830D01*
X114396354Y-105843125D01*
X114402121Y-105832335D01*
X114413630Y-105818312D01*
X114422645Y-105809296D01*
X114436259Y-105788922D01*
X114445635Y-105766283D01*
X114450415Y-105742249D01*
X114450415Y-105717745D01*
X114445634Y-105693712D01*
X114436256Y-105671074D01*
X114422642Y-105650699D01*
X114413626Y-105641683D01*
X114402121Y-105627665D01*
X114396354Y-105616875D01*
X114392803Y-105605170D01*
X114391000Y-105586862D01*
X114391000Y-105223138D01*
X114392803Y-105204830D01*
X114396354Y-105193125D01*
X114402121Y-105182335D01*
X114413630Y-105168312D01*
X114422645Y-105159296D01*
X114436259Y-105138922D01*
X114445635Y-105116283D01*
X114450415Y-105092249D01*
X114450415Y-105067745D01*
X114445634Y-105043712D01*
X114436256Y-105021074D01*
X114422642Y-105000699D01*
X114413626Y-104991683D01*
X114402121Y-104977665D01*
X114396354Y-104966875D01*
X114392803Y-104955170D01*
X114391000Y-104936862D01*
X114391000Y-104573138D01*
X114392803Y-104554830D01*
X114396354Y-104543125D01*
X114402121Y-104532335D01*
X114413630Y-104518312D01*
X114422645Y-104509296D01*
X114436259Y-104488922D01*
X114445635Y-104466283D01*
X114450415Y-104442249D01*
X114450415Y-104417745D01*
X114445634Y-104393712D01*
X114436256Y-104371074D01*
X114422642Y-104350699D01*
X114413626Y-104341683D01*
X114402121Y-104327665D01*
X114396354Y-104316875D01*
X114392803Y-104305170D01*
X114391000Y-104286862D01*
X114391000Y-103923138D01*
X114392803Y-103904830D01*
X114396354Y-103893125D01*
X114402121Y-103882335D01*
X114413630Y-103868312D01*
X114422645Y-103859296D01*
X114436259Y-103838922D01*
X114445635Y-103816283D01*
X114450415Y-103792249D01*
X114450415Y-103767745D01*
X114445634Y-103743712D01*
X114436256Y-103721074D01*
X114422642Y-103700699D01*
X114413626Y-103691683D01*
X114402121Y-103677665D01*
X114396354Y-103666875D01*
X114392803Y-103655170D01*
X114391000Y-103636862D01*
X114391000Y-103273138D01*
X114392803Y-103254830D01*
X114396354Y-103243125D01*
X114402121Y-103232335D01*
X114413630Y-103218312D01*
X114422645Y-103209296D01*
X114436259Y-103188922D01*
X114445635Y-103166283D01*
X114450415Y-103142249D01*
X114450415Y-103117745D01*
X114445634Y-103093712D01*
X114436256Y-103071074D01*
X114422642Y-103050699D01*
X114413626Y-103041683D01*
X114402121Y-103027665D01*
X114396354Y-103016875D01*
X114392803Y-103005170D01*
X114391000Y-102986862D01*
X114391000Y-102623138D01*
X114392803Y-102604830D01*
X114396354Y-102593125D01*
X114402121Y-102582335D01*
X114413630Y-102568312D01*
X114422645Y-102559296D01*
X114436259Y-102538922D01*
X114445635Y-102516283D01*
X114450415Y-102492249D01*
X114450415Y-102467745D01*
X114445634Y-102443712D01*
X114436256Y-102421074D01*
X114422642Y-102400699D01*
X114413626Y-102391683D01*
X114402121Y-102377665D01*
X114396354Y-102366875D01*
X114392803Y-102355170D01*
X114391000Y-102336862D01*
X114391000Y-101973138D01*
X114392803Y-101954830D01*
X114396354Y-101943125D01*
X114402121Y-101932335D01*
X114409881Y-101922881D01*
X114419335Y-101915121D01*
X114430125Y-101909354D01*
X114441830Y-101905803D01*
X114460138Y-101904000D01*
X115898862Y-101904000D01*
X115917170Y-101905803D01*
G37*
G36*
X131242928Y-107461764D02*
G01*
X131264009Y-107468160D01*
X131283445Y-107478548D01*
X131300476Y-107492524D01*
X131314452Y-107509555D01*
X131324840Y-107528991D01*
X131331236Y-107550072D01*
X131334000Y-107578140D01*
X131334000Y-108041860D01*
X131331236Y-108069928D01*
X131324840Y-108091009D01*
X131314452Y-108110445D01*
X131300476Y-108127476D01*
X131283445Y-108141452D01*
X131264009Y-108151840D01*
X131242928Y-108158236D01*
X131214860Y-108161000D01*
X129401140Y-108161000D01*
X129373072Y-108158236D01*
X129351991Y-108151840D01*
X129332555Y-108141452D01*
X129315524Y-108127476D01*
X129301548Y-108110445D01*
X129291160Y-108091009D01*
X129284764Y-108069928D01*
X129282000Y-108041860D01*
X129282000Y-107578140D01*
X129284764Y-107550072D01*
X129291160Y-107528991D01*
X129301548Y-107509555D01*
X129315524Y-107492524D01*
X129332555Y-107478548D01*
X129351991Y-107468160D01*
X129373072Y-107461764D01*
X129401140Y-107459000D01*
X131214860Y-107459000D01*
X131242928Y-107461764D01*
G37*
G36*
X126292928Y-107461764D02*
G01*
X126314009Y-107468160D01*
X126333445Y-107478548D01*
X126350476Y-107492524D01*
X126364452Y-107509555D01*
X126374840Y-107528991D01*
X126381236Y-107550072D01*
X126384000Y-107578140D01*
X126384000Y-108041860D01*
X126381236Y-108069928D01*
X126374840Y-108091009D01*
X126364452Y-108110445D01*
X126350476Y-108127476D01*
X126333445Y-108141452D01*
X126314009Y-108151840D01*
X126292928Y-108158236D01*
X126264860Y-108161000D01*
X124451140Y-108161000D01*
X124423072Y-108158236D01*
X124401991Y-108151840D01*
X124382555Y-108141452D01*
X124365524Y-108127476D01*
X124351548Y-108110445D01*
X124341160Y-108091009D01*
X124334764Y-108069928D01*
X124332000Y-108041860D01*
X124332000Y-107578140D01*
X124334764Y-107550072D01*
X124341160Y-107528991D01*
X124351548Y-107509555D01*
X124365524Y-107492524D01*
X124382555Y-107478548D01*
X124401991Y-107468160D01*
X124423072Y-107461764D01*
X124451140Y-107459000D01*
X126264860Y-107459000D01*
X126292928Y-107461764D01*
G37*
G36*
X121441242Y-106103404D02*
G01*
X121478337Y-106114657D01*
X121512515Y-106132925D01*
X121542481Y-106157519D01*
X121567075Y-106187485D01*
X121585343Y-106221663D01*
X121596596Y-106258758D01*
X121601000Y-106303474D01*
X121601000Y-107196526D01*
X121596596Y-107241242D01*
X121585343Y-107278337D01*
X121567075Y-107312515D01*
X121542481Y-107342481D01*
X121512515Y-107367075D01*
X121478337Y-107385343D01*
X121441242Y-107396596D01*
X121396526Y-107401000D01*
X120303474Y-107401000D01*
X120258758Y-107396596D01*
X120221663Y-107385343D01*
X120187485Y-107367075D01*
X120157519Y-107342481D01*
X120132925Y-107312515D01*
X120114657Y-107278337D01*
X120103404Y-107241242D01*
X120099000Y-107196526D01*
X120099000Y-106303474D01*
X120103404Y-106258758D01*
X120114657Y-106221663D01*
X120132925Y-106187485D01*
X120157519Y-106157519D01*
X120187485Y-106132925D01*
X120221663Y-106114657D01*
X120258758Y-106103404D01*
X120303474Y-106099000D01*
X121396526Y-106099000D01*
X121441242Y-106103404D01*
G37*
G36*
X131242928Y-106191764D02*
G01*
X131264009Y-106198160D01*
X131283445Y-106208548D01*
X131300476Y-106222524D01*
X131314452Y-106239555D01*
X131324840Y-106258991D01*
X131331236Y-106280072D01*
X131334000Y-106308140D01*
X131334000Y-106771860D01*
X131331236Y-106799928D01*
X131324840Y-106821009D01*
X131314452Y-106840445D01*
X131300476Y-106857476D01*
X131283445Y-106871452D01*
X131264009Y-106881840D01*
X131242928Y-106888236D01*
X131214860Y-106891000D01*
X129401140Y-106891000D01*
X129373072Y-106888236D01*
X129351991Y-106881840D01*
X129332555Y-106871452D01*
X129315524Y-106857476D01*
X129301548Y-106840445D01*
X129291160Y-106821009D01*
X129284764Y-106799928D01*
X129282000Y-106771860D01*
X129282000Y-106308140D01*
X129284764Y-106280072D01*
X129291160Y-106258991D01*
X129301548Y-106239555D01*
X129315524Y-106222524D01*
X129332555Y-106208548D01*
X129351991Y-106198160D01*
X129373072Y-106191764D01*
X129401140Y-106189000D01*
X131214860Y-106189000D01*
X131242928Y-106191764D01*
G37*
G36*
X126292928Y-106191764D02*
G01*
X126314009Y-106198160D01*
X126333445Y-106208548D01*
X126350476Y-106222524D01*
X126364452Y-106239555D01*
X126374840Y-106258991D01*
X126381236Y-106280072D01*
X126384000Y-106308140D01*
X126384000Y-106771860D01*
X126381236Y-106799928D01*
X126374840Y-106821009D01*
X126364452Y-106840445D01*
X126350476Y-106857476D01*
X126333445Y-106871452D01*
X126314009Y-106881840D01*
X126292928Y-106888236D01*
X126264860Y-106891000D01*
X124451140Y-106891000D01*
X124423072Y-106888236D01*
X124401991Y-106881840D01*
X124382555Y-106871452D01*
X124365524Y-106857476D01*
X124351548Y-106840445D01*
X124341160Y-106821009D01*
X124334764Y-106799928D01*
X124332000Y-106771860D01*
X124332000Y-106308140D01*
X124334764Y-106280072D01*
X124341160Y-106258991D01*
X124351548Y-106239555D01*
X124365524Y-106222524D01*
X124382555Y-106208548D01*
X124401991Y-106198160D01*
X124423072Y-106191764D01*
X124451140Y-106189000D01*
X126264860Y-106189000D01*
X126292928Y-106191764D01*
G37*
G36*
X137613512Y-103983927D02*
G01*
X137762812Y-104013624D01*
X137926784Y-104081544D01*
X138074354Y-104180147D01*
X138199853Y-104305646D01*
X138298456Y-104453216D01*
X138366376Y-104617188D01*
X138396073Y-104766488D01*
X138401000Y-104791258D01*
X138401000Y-104968742D01*
X138399225Y-104977665D01*
X138366376Y-105142812D01*
X138298456Y-105306784D01*
X138199853Y-105454354D01*
X138074354Y-105579853D01*
X137926784Y-105678456D01*
X137762812Y-105746376D01*
X137613512Y-105776073D01*
X137588742Y-105781000D01*
X137411258Y-105781000D01*
X137386488Y-105776073D01*
X137237188Y-105746376D01*
X137073216Y-105678456D01*
X136925646Y-105579853D01*
X136800147Y-105454354D01*
X136701544Y-105306784D01*
X136633624Y-105142812D01*
X136600775Y-104977665D01*
X136599000Y-104968742D01*
X136599000Y-104791258D01*
X136603927Y-104766488D01*
X136633624Y-104617188D01*
X136701544Y-104453216D01*
X136800147Y-104305646D01*
X136925646Y-104180147D01*
X137073216Y-104081544D01*
X137237188Y-104013624D01*
X137386488Y-103983927D01*
X137411258Y-103979000D01*
X137588742Y-103979000D01*
X137613512Y-103983927D01*
G37*
G36*
X102613512Y-103983927D02*
G01*
X102762812Y-104013624D01*
X102926784Y-104081544D01*
X103074354Y-104180147D01*
X103199853Y-104305646D01*
X103298456Y-104453216D01*
X103366376Y-104617188D01*
X103396073Y-104766488D01*
X103401000Y-104791258D01*
X103401000Y-104968742D01*
X103399225Y-104977665D01*
X103366376Y-105142812D01*
X103298456Y-105306784D01*
X103199853Y-105454354D01*
X103074354Y-105579853D01*
X102926784Y-105678456D01*
X102762812Y-105746376D01*
X102613512Y-105776073D01*
X102588742Y-105781000D01*
X102411258Y-105781000D01*
X102386488Y-105776073D01*
X102237188Y-105746376D01*
X102073216Y-105678456D01*
X101925646Y-105579853D01*
X101800147Y-105454354D01*
X101701544Y-105306784D01*
X101633624Y-105142812D01*
X101600775Y-104977665D01*
X101599000Y-104968742D01*
X101599000Y-104791258D01*
X101603927Y-104766488D01*
X101633624Y-104617188D01*
X101701544Y-104453216D01*
X101800147Y-104305646D01*
X101925646Y-104180147D01*
X102073216Y-104081544D01*
X102237188Y-104013624D01*
X102386488Y-103983927D01*
X102411258Y-103979000D01*
X102588742Y-103979000D01*
X102613512Y-103983927D01*
G37*
G36*
X126292928Y-104921764D02*
G01*
X126314009Y-104928160D01*
X126333445Y-104938548D01*
X126350476Y-104952524D01*
X126364452Y-104969555D01*
X126374840Y-104988991D01*
X126381236Y-105010072D01*
X126384000Y-105038140D01*
X126384000Y-105501860D01*
X126381236Y-105529928D01*
X126374840Y-105551009D01*
X126364452Y-105570445D01*
X126350476Y-105587476D01*
X126333445Y-105601452D01*
X126314009Y-105611840D01*
X126292928Y-105618236D01*
X126264860Y-105621000D01*
X124451140Y-105621000D01*
X124423072Y-105618236D01*
X124401991Y-105611840D01*
X124382555Y-105601452D01*
X124365524Y-105587476D01*
X124351548Y-105570445D01*
X124341160Y-105551009D01*
X124334764Y-105529928D01*
X124332000Y-105501860D01*
X124332000Y-105038140D01*
X124334764Y-105010072D01*
X124341160Y-104988991D01*
X124351548Y-104969555D01*
X124365524Y-104952524D01*
X124382555Y-104938548D01*
X124401991Y-104928160D01*
X124423072Y-104921764D01*
X124451140Y-104919000D01*
X126264860Y-104919000D01*
X126292928Y-104921764D01*
G37*
G36*
X131242928Y-104921764D02*
G01*
X131264009Y-104928160D01*
X131283445Y-104938548D01*
X131300476Y-104952524D01*
X131314452Y-104969555D01*
X131324840Y-104988991D01*
X131331236Y-105010072D01*
X131334000Y-105038140D01*
X131334000Y-105501860D01*
X131331236Y-105529928D01*
X131324840Y-105551009D01*
X131314452Y-105570445D01*
X131300476Y-105587476D01*
X131283445Y-105601452D01*
X131264009Y-105611840D01*
X131242928Y-105618236D01*
X131214860Y-105621000D01*
X129401140Y-105621000D01*
X129373072Y-105618236D01*
X129351991Y-105611840D01*
X129332555Y-105601452D01*
X129315524Y-105587476D01*
X129301548Y-105570445D01*
X129291160Y-105551009D01*
X129284764Y-105529928D01*
X129282000Y-105501860D01*
X129282000Y-105038140D01*
X129284764Y-105010072D01*
X129291160Y-104988991D01*
X129301548Y-104969555D01*
X129315524Y-104952524D01*
X129332555Y-104938548D01*
X129351991Y-104928160D01*
X129373072Y-104921764D01*
X129401140Y-104919000D01*
X131214860Y-104919000D01*
X131242928Y-104921764D01*
G37*
G36*
X121441242Y-104103404D02*
G01*
X121478337Y-104114657D01*
X121512515Y-104132925D01*
X121542481Y-104157519D01*
X121567075Y-104187485D01*
X121585343Y-104221663D01*
X121596596Y-104258758D01*
X121601000Y-104303474D01*
X121601000Y-105196526D01*
X121596596Y-105241242D01*
X121585343Y-105278337D01*
X121567075Y-105312515D01*
X121542481Y-105342481D01*
X121512515Y-105367075D01*
X121478337Y-105385343D01*
X121441242Y-105396596D01*
X121396526Y-105401000D01*
X120303474Y-105401000D01*
X120258758Y-105396596D01*
X120221663Y-105385343D01*
X120187485Y-105367075D01*
X120157519Y-105342481D01*
X120132925Y-105312515D01*
X120114657Y-105278337D01*
X120103404Y-105241242D01*
X120099000Y-105196526D01*
X120099000Y-104303474D01*
X120103404Y-104258758D01*
X120114657Y-104221663D01*
X120132925Y-104187485D01*
X120157519Y-104157519D01*
X120187485Y-104132925D01*
X120221663Y-104114657D01*
X120258758Y-104103404D01*
X120303474Y-104099000D01*
X121396526Y-104099000D01*
X121441242Y-104103404D01*
G37*
G36*
X131242928Y-103651764D02*
G01*
X131264009Y-103658160D01*
X131283445Y-103668548D01*
X131300476Y-103682524D01*
X131314452Y-103699555D01*
X131324840Y-103718991D01*
X131331236Y-103740072D01*
X131334000Y-103768140D01*
X131334000Y-104231860D01*
X131331236Y-104259928D01*
X131324840Y-104281009D01*
X131314452Y-104300445D01*
X131300476Y-104317476D01*
X131283445Y-104331452D01*
X131264009Y-104341840D01*
X131242928Y-104348236D01*
X131214860Y-104351000D01*
X129401140Y-104351000D01*
X129373072Y-104348236D01*
X129351991Y-104341840D01*
X129332555Y-104331452D01*
X129315524Y-104317476D01*
X129301548Y-104300445D01*
X129291160Y-104281009D01*
X129284764Y-104259928D01*
X129282000Y-104231860D01*
X129282000Y-103768140D01*
X129284764Y-103740072D01*
X129291160Y-103718991D01*
X129301548Y-103699555D01*
X129315524Y-103682524D01*
X129332555Y-103668548D01*
X129351991Y-103658160D01*
X129373072Y-103651764D01*
X129401140Y-103649000D01*
X131214860Y-103649000D01*
X131242928Y-103651764D01*
G37*
G36*
X126292928Y-103651764D02*
G01*
X126314009Y-103658160D01*
X126333445Y-103668548D01*
X126350476Y-103682524D01*
X126364452Y-103699555D01*
X126374840Y-103718991D01*
X126381236Y-103740072D01*
X126384000Y-103768140D01*
X126384000Y-104231860D01*
X126381236Y-104259928D01*
X126374840Y-104281009D01*
X126364452Y-104300445D01*
X126350476Y-104317476D01*
X126333445Y-104331452D01*
X126314009Y-104341840D01*
X126292928Y-104348236D01*
X126264860Y-104351000D01*
X124451140Y-104351000D01*
X124423072Y-104348236D01*
X124401991Y-104341840D01*
X124382555Y-104331452D01*
X124365524Y-104317476D01*
X124351548Y-104300445D01*
X124341160Y-104281009D01*
X124334764Y-104259928D01*
X124332000Y-104231860D01*
X124332000Y-103768140D01*
X124334764Y-103740072D01*
X124341160Y-103718991D01*
X124351548Y-103699555D01*
X124365524Y-103682524D01*
X124382555Y-103668548D01*
X124401991Y-103658160D01*
X124423072Y-103651764D01*
X124451140Y-103649000D01*
X126264860Y-103649000D01*
X126292928Y-103651764D01*
G37*
G36*
X137613512Y-101443927D02*
G01*
X137762812Y-101473624D01*
X137926784Y-101541544D01*
X138074354Y-101640147D01*
X138199853Y-101765646D01*
X138298456Y-101913216D01*
X138366376Y-102077188D01*
X138396073Y-102226488D01*
X138401000Y-102251258D01*
X138401000Y-102428742D01*
X138398022Y-102443712D01*
X138366376Y-102602812D01*
X138298456Y-102766784D01*
X138199853Y-102914354D01*
X138074354Y-103039853D01*
X137926784Y-103138456D01*
X137762812Y-103206376D01*
X137613512Y-103236073D01*
X137588742Y-103241000D01*
X137411258Y-103241000D01*
X137386488Y-103236073D01*
X137237188Y-103206376D01*
X137073216Y-103138456D01*
X136925646Y-103039853D01*
X136800147Y-102914354D01*
X136701544Y-102766784D01*
X136633624Y-102602812D01*
X136601978Y-102443712D01*
X136599000Y-102428742D01*
X136599000Y-102251258D01*
X136603927Y-102226488D01*
X136633624Y-102077188D01*
X136701544Y-101913216D01*
X136800147Y-101765646D01*
X136925646Y-101640147D01*
X137073216Y-101541544D01*
X137237188Y-101473624D01*
X137386488Y-101443927D01*
X137411258Y-101439000D01*
X137588742Y-101439000D01*
X137613512Y-101443927D01*
G37*
G36*
X102613512Y-101443927D02*
G01*
X102762812Y-101473624D01*
X102926784Y-101541544D01*
X103074354Y-101640147D01*
X103199853Y-101765646D01*
X103298456Y-101913216D01*
X103366376Y-102077188D01*
X103396073Y-102226488D01*
X103401000Y-102251258D01*
X103401000Y-102428742D01*
X103398022Y-102443712D01*
X103366376Y-102602812D01*
X103298456Y-102766784D01*
X103199853Y-102914354D01*
X103074354Y-103039853D01*
X102926784Y-103138456D01*
X102762812Y-103206376D01*
X102613512Y-103236073D01*
X102588742Y-103241000D01*
X102411258Y-103241000D01*
X102386488Y-103236073D01*
X102237188Y-103206376D01*
X102073216Y-103138456D01*
X101925646Y-103039853D01*
X101800147Y-102914354D01*
X101701544Y-102766784D01*
X101633624Y-102602812D01*
X101601978Y-102443712D01*
X101599000Y-102428742D01*
X101599000Y-102251258D01*
X101603927Y-102226488D01*
X101633624Y-102077188D01*
X101701544Y-101913216D01*
X101800147Y-101765646D01*
X101925646Y-101640147D01*
X102073216Y-101541544D01*
X102237188Y-101473624D01*
X102386488Y-101443927D01*
X102411258Y-101439000D01*
X102588742Y-101439000D01*
X102613512Y-101443927D01*
G37*
G36*
X126292928Y-102381764D02*
G01*
X126314009Y-102388160D01*
X126333445Y-102398548D01*
X126350476Y-102412524D01*
X126364452Y-102429555D01*
X126374840Y-102448991D01*
X126381236Y-102470072D01*
X126384000Y-102498140D01*
X126384000Y-102961860D01*
X126381236Y-102989928D01*
X126374840Y-103011009D01*
X126364452Y-103030445D01*
X126350476Y-103047476D01*
X126333445Y-103061452D01*
X126314009Y-103071840D01*
X126292928Y-103078236D01*
X126264860Y-103081000D01*
X124451140Y-103081000D01*
X124423072Y-103078236D01*
X124401991Y-103071840D01*
X124382555Y-103061452D01*
X124365524Y-103047476D01*
X124351548Y-103030445D01*
X124341160Y-103011009D01*
X124334764Y-102989928D01*
X124332000Y-102961860D01*
X124332000Y-102498140D01*
X124334764Y-102470072D01*
X124341160Y-102448991D01*
X124351548Y-102429555D01*
X124365524Y-102412524D01*
X124382555Y-102398548D01*
X124401991Y-102388160D01*
X124423072Y-102381764D01*
X124451140Y-102379000D01*
X126264860Y-102379000D01*
X126292928Y-102381764D01*
G37*
G36*
X131242928Y-102381764D02*
G01*
X131264009Y-102388160D01*
X131283445Y-102398548D01*
X131300476Y-102412524D01*
X131314452Y-102429555D01*
X131324840Y-102448991D01*
X131331236Y-102470072D01*
X131334000Y-102498140D01*
X131334000Y-102961860D01*
X131331236Y-102989928D01*
X131324840Y-103011009D01*
X131314452Y-103030445D01*
X131300476Y-103047476D01*
X131283445Y-103061452D01*
X131264009Y-103071840D01*
X131242928Y-103078236D01*
X131214860Y-103081000D01*
X129401140Y-103081000D01*
X129373072Y-103078236D01*
X129351991Y-103071840D01*
X129332555Y-103061452D01*
X129315524Y-103047476D01*
X129301548Y-103030445D01*
X129291160Y-103011009D01*
X129284764Y-102989928D01*
X129282000Y-102961860D01*
X129282000Y-102498140D01*
X129284764Y-102470072D01*
X129291160Y-102448991D01*
X129301548Y-102429555D01*
X129315524Y-102412524D01*
X129332555Y-102398548D01*
X129351991Y-102388160D01*
X129373072Y-102381764D01*
X129401140Y-102379000D01*
X131214860Y-102379000D01*
X131242928Y-102381764D01*
G37*
G36*
X126292928Y-101111764D02*
G01*
X126314009Y-101118160D01*
X126333445Y-101128548D01*
X126350476Y-101142524D01*
X126364452Y-101159555D01*
X126374840Y-101178991D01*
X126381236Y-101200072D01*
X126384000Y-101228140D01*
X126384000Y-101691860D01*
X126381236Y-101719928D01*
X126374840Y-101741009D01*
X126364452Y-101760445D01*
X126350476Y-101777476D01*
X126333445Y-101791452D01*
X126314009Y-101801840D01*
X126292928Y-101808236D01*
X126264860Y-101811000D01*
X124451140Y-101811000D01*
X124423072Y-101808236D01*
X124401991Y-101801840D01*
X124382555Y-101791452D01*
X124365524Y-101777476D01*
X124351548Y-101760445D01*
X124341160Y-101741009D01*
X124334764Y-101719928D01*
X124332000Y-101691860D01*
X124332000Y-101228140D01*
X124334764Y-101200072D01*
X124341160Y-101178991D01*
X124351548Y-101159555D01*
X124365524Y-101142524D01*
X124382555Y-101128548D01*
X124401991Y-101118160D01*
X124423072Y-101111764D01*
X124451140Y-101109000D01*
X126264860Y-101109000D01*
X126292928Y-101111764D01*
G37*
G36*
X131242928Y-101111764D02*
G01*
X131264009Y-101118160D01*
X131283445Y-101128548D01*
X131300476Y-101142524D01*
X131314452Y-101159555D01*
X131324840Y-101178991D01*
X131331236Y-101200072D01*
X131334000Y-101228140D01*
X131334000Y-101691860D01*
X131331236Y-101719928D01*
X131324840Y-101741009D01*
X131314452Y-101760445D01*
X131300476Y-101777476D01*
X131283445Y-101791452D01*
X131264009Y-101801840D01*
X131242928Y-101808236D01*
X131214860Y-101811000D01*
X129401140Y-101811000D01*
X129373072Y-101808236D01*
X129351991Y-101801840D01*
X129332555Y-101791452D01*
X129315524Y-101777476D01*
X129301548Y-101760445D01*
X129291160Y-101741009D01*
X129284764Y-101719928D01*
X129282000Y-101691860D01*
X129282000Y-101228140D01*
X129284764Y-101200072D01*
X129291160Y-101178991D01*
X129301548Y-101159555D01*
X129315524Y-101142524D01*
X129332555Y-101128548D01*
X129351991Y-101118160D01*
X129373072Y-101111764D01*
X129401140Y-101109000D01*
X131214860Y-101109000D01*
X131242928Y-101111764D01*
G37*
G36*
X137613512Y-98903927D02*
G01*
X137762812Y-98933624D01*
X137926784Y-99001544D01*
X138074354Y-99100147D01*
X138199853Y-99225646D01*
X138298456Y-99373216D01*
X138366376Y-99537188D01*
X138396073Y-99686488D01*
X138401000Y-99711258D01*
X138401000Y-99888742D01*
X138396972Y-99908991D01*
X138366376Y-100062812D01*
X138298456Y-100226784D01*
X138199853Y-100374354D01*
X138074354Y-100499853D01*
X137926784Y-100598456D01*
X137762812Y-100666376D01*
X137613512Y-100696073D01*
X137588742Y-100701000D01*
X137411258Y-100701000D01*
X137386488Y-100696073D01*
X137237188Y-100666376D01*
X137073216Y-100598456D01*
X136925646Y-100499853D01*
X136800147Y-100374354D01*
X136701544Y-100226784D01*
X136633624Y-100062812D01*
X136603028Y-99908991D01*
X136599000Y-99888742D01*
X136599000Y-99711258D01*
X136603927Y-99686488D01*
X136633624Y-99537188D01*
X136701544Y-99373216D01*
X136800147Y-99225646D01*
X136925646Y-99100147D01*
X137073216Y-99001544D01*
X137237188Y-98933624D01*
X137386488Y-98903927D01*
X137411258Y-98899000D01*
X137588742Y-98899000D01*
X137613512Y-98903927D01*
G37*
G36*
X102613512Y-98903927D02*
G01*
X102762812Y-98933624D01*
X102926784Y-99001544D01*
X103074354Y-99100147D01*
X103199853Y-99225646D01*
X103298456Y-99373216D01*
X103366376Y-99537188D01*
X103396073Y-99686488D01*
X103401000Y-99711258D01*
X103401000Y-99888742D01*
X103396972Y-99908991D01*
X103366376Y-100062812D01*
X103298456Y-100226784D01*
X103199853Y-100374354D01*
X103074354Y-100499853D01*
X102926784Y-100598456D01*
X102762812Y-100666376D01*
X102613512Y-100696073D01*
X102588742Y-100701000D01*
X102411258Y-100701000D01*
X102386488Y-100696073D01*
X102237188Y-100666376D01*
X102073216Y-100598456D01*
X101925646Y-100499853D01*
X101800147Y-100374354D01*
X101701544Y-100226784D01*
X101633624Y-100062812D01*
X101603028Y-99908991D01*
X101599000Y-99888742D01*
X101599000Y-99711258D01*
X101603927Y-99686488D01*
X101633624Y-99537188D01*
X101701544Y-99373216D01*
X101800147Y-99225646D01*
X101925646Y-99100147D01*
X102073216Y-99001544D01*
X102237188Y-98933624D01*
X102386488Y-98903927D01*
X102411258Y-98899000D01*
X102588742Y-98899000D01*
X102613512Y-98903927D01*
G37*
G36*
X131242928Y-99841764D02*
G01*
X131264009Y-99848160D01*
X131283445Y-99858548D01*
X131300476Y-99872524D01*
X131314452Y-99889555D01*
X131324840Y-99908991D01*
X131331236Y-99930072D01*
X131334000Y-99958140D01*
X131334000Y-100421860D01*
X131331236Y-100449928D01*
X131324840Y-100471009D01*
X131314452Y-100490445D01*
X131300476Y-100507476D01*
X131283445Y-100521452D01*
X131264009Y-100531840D01*
X131242928Y-100538236D01*
X131214860Y-100541000D01*
X129401140Y-100541000D01*
X129373072Y-100538236D01*
X129351991Y-100531840D01*
X129332555Y-100521452D01*
X129315524Y-100507476D01*
X129301548Y-100490445D01*
X129291160Y-100471009D01*
X129284764Y-100449928D01*
X129282000Y-100421860D01*
X129282000Y-99958140D01*
X129284764Y-99930072D01*
X129291160Y-99908991D01*
X129301548Y-99889555D01*
X129315524Y-99872524D01*
X129332555Y-99858548D01*
X129351991Y-99848160D01*
X129373072Y-99841764D01*
X129401140Y-99839000D01*
X131214860Y-99839000D01*
X131242928Y-99841764D01*
G37*
G36*
X126292928Y-99841764D02*
G01*
X126314009Y-99848160D01*
X126333445Y-99858548D01*
X126350476Y-99872524D01*
X126364452Y-99889555D01*
X126374840Y-99908991D01*
X126381236Y-99930072D01*
X126384000Y-99958140D01*
X126384000Y-100421860D01*
X126381236Y-100449928D01*
X126374840Y-100471009D01*
X126364452Y-100490445D01*
X126350476Y-100507476D01*
X126333445Y-100521452D01*
X126314009Y-100531840D01*
X126292928Y-100538236D01*
X126264860Y-100541000D01*
X124451140Y-100541000D01*
X124423072Y-100538236D01*
X124401991Y-100531840D01*
X124382555Y-100521452D01*
X124365524Y-100507476D01*
X124351548Y-100490445D01*
X124341160Y-100471009D01*
X124334764Y-100449928D01*
X124332000Y-100421860D01*
X124332000Y-99958140D01*
X124334764Y-99930072D01*
X124341160Y-99908991D01*
X124351548Y-99889555D01*
X124365524Y-99872524D01*
X124382555Y-99858548D01*
X124401991Y-99848160D01*
X124423072Y-99841764D01*
X124451140Y-99839000D01*
X126264860Y-99839000D01*
X126292928Y-99841764D01*
G37*
G36*
X102613512Y-96363927D02*
G01*
X102762812Y-96393624D01*
X102926784Y-96461544D01*
X103074354Y-96560147D01*
X103199853Y-96685646D01*
X103298456Y-96833216D01*
X103366376Y-96997188D01*
X103401000Y-97171259D01*
X103401000Y-97348741D01*
X103366376Y-97522812D01*
X103298456Y-97686784D01*
X103199853Y-97834354D01*
X103074354Y-97959853D01*
X102926784Y-98058456D01*
X102762812Y-98126376D01*
X102613512Y-98156073D01*
X102588742Y-98161000D01*
X102411258Y-98161000D01*
X102386488Y-98156073D01*
X102237188Y-98126376D01*
X102073216Y-98058456D01*
X101925646Y-97959853D01*
X101800147Y-97834354D01*
X101701544Y-97686784D01*
X101633624Y-97522812D01*
X101599000Y-97348741D01*
X101599000Y-97171259D01*
X101633624Y-96997188D01*
X101701544Y-96833216D01*
X101800147Y-96685646D01*
X101925646Y-96560147D01*
X102073216Y-96461544D01*
X102237188Y-96393624D01*
X102386488Y-96363927D01*
X102411258Y-96359000D01*
X102588742Y-96359000D01*
X102613512Y-96363927D01*
G37*
G36*
X137613512Y-96363927D02*
G01*
X137762812Y-96393624D01*
X137926784Y-96461544D01*
X138074354Y-96560147D01*
X138199853Y-96685646D01*
X138298456Y-96833216D01*
X138366376Y-96997188D01*
X138401000Y-97171259D01*
X138401000Y-97348741D01*
X138366376Y-97522812D01*
X138298456Y-97686784D01*
X138199853Y-97834354D01*
X138074354Y-97959853D01*
X137926784Y-98058456D01*
X137762812Y-98126376D01*
X137613512Y-98156073D01*
X137588742Y-98161000D01*
X137411258Y-98161000D01*
X137386488Y-98156073D01*
X137237188Y-98126376D01*
X137073216Y-98058456D01*
X136925646Y-97959853D01*
X136800147Y-97834354D01*
X136701544Y-97686784D01*
X136633624Y-97522812D01*
X136599000Y-97348741D01*
X136599000Y-97171259D01*
X136633624Y-96997188D01*
X136701544Y-96833216D01*
X136800147Y-96685646D01*
X136925646Y-96560147D01*
X137073216Y-96461544D01*
X137237188Y-96393624D01*
X137386488Y-96363927D01*
X137411258Y-96359000D01*
X137588742Y-96359000D01*
X137613512Y-96363927D01*
G37*
G36*
X110826000Y-95951000D02*
G01*
X110124000Y-95951000D01*
X110124000Y-94249000D01*
X110826000Y-94249000D01*
X110826000Y-95951000D01*
G37*
G36*
X128606000Y-95951000D02*
G01*
X127904000Y-95951000D01*
X127904000Y-94249000D01*
X128606000Y-94249000D01*
X128606000Y-95951000D01*
G37*
G36*
X112096000Y-95951000D02*
G01*
X111394000Y-95951000D01*
X111394000Y-94249000D01*
X112096000Y-94249000D01*
X112096000Y-95951000D01*
G37*
G36*
X113366000Y-95951000D02*
G01*
X112664000Y-95951000D01*
X112664000Y-94249000D01*
X113366000Y-94249000D01*
X113366000Y-95951000D01*
G37*
G36*
X114636000Y-95951000D02*
G01*
X113934000Y-95951000D01*
X113934000Y-94249000D01*
X114636000Y-94249000D01*
X114636000Y-95951000D01*
G37*
G36*
X115906000Y-95951000D02*
G01*
X115204000Y-95951000D01*
X115204000Y-94249000D01*
X115906000Y-94249000D01*
X115906000Y-95951000D01*
G37*
G36*
X117176000Y-95951000D02*
G01*
X116474000Y-95951000D01*
X116474000Y-94249000D01*
X117176000Y-94249000D01*
X117176000Y-95951000D01*
G37*
G36*
X118446000Y-95951000D02*
G01*
X117744000Y-95951000D01*
X117744000Y-94249000D01*
X118446000Y-94249000D01*
X118446000Y-95951000D01*
G37*
G36*
X120976000Y-95951000D02*
G01*
X120274000Y-95951000D01*
X120274000Y-94249000D01*
X120976000Y-94249000D01*
X120976000Y-95951000D01*
G37*
G36*
X119726000Y-95951000D02*
G01*
X119024000Y-95951000D01*
X119024000Y-94249000D01*
X119726000Y-94249000D01*
X119726000Y-95951000D01*
G37*
G36*
X129876000Y-95951000D02*
G01*
X129174000Y-95951000D01*
X129174000Y-94249000D01*
X129876000Y-94249000D01*
X129876000Y-95951000D01*
G37*
G36*
X126066000Y-95951000D02*
G01*
X125364000Y-95951000D01*
X125364000Y-94249000D01*
X126066000Y-94249000D01*
X126066000Y-95951000D01*
G37*
G36*
X127336000Y-95951000D02*
G01*
X126634000Y-95951000D01*
X126634000Y-94249000D01*
X127336000Y-94249000D01*
X127336000Y-95951000D01*
G37*
G36*
X124796000Y-95951000D02*
G01*
X124094000Y-95951000D01*
X124094000Y-94249000D01*
X124796000Y-94249000D01*
X124796000Y-95951000D01*
G37*
G36*
X123526000Y-95951000D02*
G01*
X122824000Y-95951000D01*
X122824000Y-94249000D01*
X123526000Y-94249000D01*
X123526000Y-95951000D01*
G37*
G36*
X122256000Y-95951000D02*
G01*
X121554000Y-95951000D01*
X121554000Y-94249000D01*
X122256000Y-94249000D01*
X122256000Y-95951000D01*
G37*
G36*
X102613512Y-93823927D02*
G01*
X102762812Y-93853624D01*
X102926784Y-93921544D01*
X103074354Y-94020147D01*
X103199853Y-94145646D01*
X103298456Y-94293216D01*
X103366376Y-94457188D01*
X103401000Y-94631259D01*
X103401000Y-94808741D01*
X103366376Y-94982812D01*
X103298456Y-95146784D01*
X103199853Y-95294354D01*
X103074354Y-95419853D01*
X102926784Y-95518456D01*
X102762812Y-95586376D01*
X102613512Y-95616073D01*
X102588742Y-95621000D01*
X102411258Y-95621000D01*
X102386488Y-95616073D01*
X102237188Y-95586376D01*
X102073216Y-95518456D01*
X101925646Y-95419853D01*
X101800147Y-95294354D01*
X101701544Y-95146784D01*
X101633624Y-94982812D01*
X101599000Y-94808741D01*
X101599000Y-94631259D01*
X101633624Y-94457188D01*
X101701544Y-94293216D01*
X101800147Y-94145646D01*
X101925646Y-94020147D01*
X102073216Y-93921544D01*
X102237188Y-93853624D01*
X102386488Y-93823927D01*
X102411258Y-93819000D01*
X102588742Y-93819000D01*
X102613512Y-93823927D01*
G37*
G36*
X137613512Y-93823927D02*
G01*
X137762812Y-93853624D01*
X137926784Y-93921544D01*
X138074354Y-94020147D01*
X138199853Y-94145646D01*
X138298456Y-94293216D01*
X138366376Y-94457188D01*
X138401000Y-94631259D01*
X138401000Y-94808741D01*
X138366376Y-94982812D01*
X138298456Y-95146784D01*
X138199853Y-95294354D01*
X138074354Y-95419853D01*
X137926784Y-95518456D01*
X137762812Y-95586376D01*
X137613512Y-95616073D01*
X137588742Y-95621000D01*
X137411258Y-95621000D01*
X137386488Y-95616073D01*
X137237188Y-95586376D01*
X137073216Y-95518456D01*
X136925646Y-95419853D01*
X136800147Y-95294354D01*
X136701544Y-95146784D01*
X136633624Y-94982812D01*
X136599000Y-94808741D01*
X136599000Y-94631259D01*
X136633624Y-94457188D01*
X136701544Y-94293216D01*
X136800147Y-94145646D01*
X136925646Y-94020147D01*
X137073216Y-93921544D01*
X137237188Y-93853624D01*
X137386488Y-93823927D01*
X137411258Y-93819000D01*
X137588742Y-93819000D01*
X137613512Y-93823927D01*
G37*
G36*
X102613512Y-91283927D02*
G01*
X102762812Y-91313624D01*
X102926784Y-91381544D01*
X103074354Y-91480147D01*
X103199853Y-91605646D01*
X103298456Y-91753216D01*
X103366376Y-91917188D01*
X103401000Y-92091259D01*
X103401000Y-92268741D01*
X103366376Y-92442812D01*
X103298456Y-92606784D01*
X103199853Y-92754354D01*
X103074354Y-92879853D01*
X102926784Y-92978456D01*
X102762812Y-93046376D01*
X102613512Y-93076073D01*
X102588742Y-93081000D01*
X102411258Y-93081000D01*
X102386488Y-93076073D01*
X102237188Y-93046376D01*
X102073216Y-92978456D01*
X101925646Y-92879853D01*
X101800147Y-92754354D01*
X101701544Y-92606784D01*
X101633624Y-92442812D01*
X101599000Y-92268741D01*
X101599000Y-92091259D01*
X101633624Y-91917188D01*
X101701544Y-91753216D01*
X101800147Y-91605646D01*
X101925646Y-91480147D01*
X102073216Y-91381544D01*
X102237188Y-91313624D01*
X102386488Y-91283927D01*
X102411258Y-91279000D01*
X102588742Y-91279000D01*
X102613512Y-91283927D01*
G37*
G36*
X137613512Y-91283927D02*
G01*
X137762812Y-91313624D01*
X137926784Y-91381544D01*
X138074354Y-91480147D01*
X138199853Y-91605646D01*
X138298456Y-91753216D01*
X138366376Y-91917188D01*
X138401000Y-92091259D01*
X138401000Y-92268741D01*
X138366376Y-92442812D01*
X138298456Y-92606784D01*
X138199853Y-92754354D01*
X138074354Y-92879853D01*
X137926784Y-92978456D01*
X137762812Y-93046376D01*
X137613512Y-93076073D01*
X137588742Y-93081000D01*
X137411258Y-93081000D01*
X137386488Y-93076073D01*
X137237188Y-93046376D01*
X137073216Y-92978456D01*
X136925646Y-92879853D01*
X136800147Y-92754354D01*
X136701544Y-92606784D01*
X136633624Y-92442812D01*
X136599000Y-92268741D01*
X136599000Y-92091259D01*
X136633624Y-91917188D01*
X136701544Y-91753216D01*
X136800147Y-91605646D01*
X136925646Y-91480147D01*
X137073216Y-91381544D01*
X137237188Y-91313624D01*
X137386488Y-91283927D01*
X137411258Y-91279000D01*
X137588742Y-91279000D01*
X137613512Y-91283927D01*
G37*
G36*
X137613512Y-88743927D02*
G01*
X137762812Y-88773624D01*
X137926784Y-88841544D01*
X138074354Y-88940147D01*
X138199853Y-89065646D01*
X138298456Y-89213216D01*
X138366376Y-89377188D01*
X138401000Y-89551259D01*
X138401000Y-89728741D01*
X138366376Y-89902812D01*
X138298456Y-90066784D01*
X138199853Y-90214354D01*
X138074354Y-90339853D01*
X137926784Y-90438456D01*
X137762812Y-90506376D01*
X137613512Y-90536073D01*
X137588742Y-90541000D01*
X137411258Y-90541000D01*
X137386488Y-90536073D01*
X137237188Y-90506376D01*
X137073216Y-90438456D01*
X136925646Y-90339853D01*
X136800147Y-90214354D01*
X136701544Y-90066784D01*
X136633624Y-89902812D01*
X136599000Y-89728741D01*
X136599000Y-89551259D01*
X136633624Y-89377188D01*
X136701544Y-89213216D01*
X136800147Y-89065646D01*
X136925646Y-88940147D01*
X137073216Y-88841544D01*
X137237188Y-88773624D01*
X137386488Y-88743927D01*
X137411258Y-88739000D01*
X137588742Y-88739000D01*
X137613512Y-88743927D01*
G37*
G36*
X102613512Y-88743927D02*
G01*
X102762812Y-88773624D01*
X102926784Y-88841544D01*
X103074354Y-88940147D01*
X103199853Y-89065646D01*
X103298456Y-89213216D01*
X103366376Y-89377188D01*
X103401000Y-89551259D01*
X103401000Y-89728741D01*
X103366376Y-89902812D01*
X103298456Y-90066784D01*
X103199853Y-90214354D01*
X103074354Y-90339853D01*
X102926784Y-90438456D01*
X102762812Y-90506376D01*
X102613512Y-90536073D01*
X102588742Y-90541000D01*
X102411258Y-90541000D01*
X102386488Y-90536073D01*
X102237188Y-90506376D01*
X102073216Y-90438456D01*
X101925646Y-90339853D01*
X101800147Y-90214354D01*
X101701544Y-90066784D01*
X101633624Y-89902812D01*
X101599000Y-89728741D01*
X101599000Y-89551259D01*
X101633624Y-89377188D01*
X101701544Y-89213216D01*
X101800147Y-89065646D01*
X101925646Y-88940147D01*
X102073216Y-88841544D01*
X102237188Y-88773624D01*
X102386488Y-88743927D01*
X102411258Y-88739000D01*
X102588742Y-88739000D01*
X102613512Y-88743927D01*
G37*
G36*
X137613512Y-86203927D02*
G01*
X137762812Y-86233624D01*
X137926784Y-86301544D01*
X138074354Y-86400147D01*
X138199853Y-86525646D01*
X138298456Y-86673216D01*
X138366376Y-86837188D01*
X138401000Y-87011259D01*
X138401000Y-87188741D01*
X138366376Y-87362812D01*
X138298456Y-87526784D01*
X138199853Y-87674354D01*
X138074354Y-87799853D01*
X137926784Y-87898456D01*
X137762812Y-87966376D01*
X137613512Y-87996073D01*
X137588742Y-88001000D01*
X137411258Y-88001000D01*
X137386488Y-87996073D01*
X137237188Y-87966376D01*
X137073216Y-87898456D01*
X136925646Y-87799853D01*
X136800147Y-87674354D01*
X136701544Y-87526784D01*
X136633624Y-87362812D01*
X136599000Y-87188741D01*
X136599000Y-87011259D01*
X136633624Y-86837188D01*
X136701544Y-86673216D01*
X136800147Y-86525646D01*
X136925646Y-86400147D01*
X137073216Y-86301544D01*
X137237188Y-86233624D01*
X137386488Y-86203927D01*
X137411258Y-86199000D01*
X137588742Y-86199000D01*
X137613512Y-86203927D01*
G37*
G36*
X102613512Y-86203927D02*
G01*
X102762812Y-86233624D01*
X102926784Y-86301544D01*
X103074354Y-86400147D01*
X103199853Y-86525646D01*
X103298456Y-86673216D01*
X103366376Y-86837188D01*
X103401000Y-87011259D01*
X103401000Y-87188741D01*
X103366376Y-87362812D01*
X103298456Y-87526784D01*
X103199853Y-87674354D01*
X103074354Y-87799853D01*
X102926784Y-87898456D01*
X102762812Y-87966376D01*
X102613512Y-87996073D01*
X102588742Y-88001000D01*
X102411258Y-88001000D01*
X102386488Y-87996073D01*
X102237188Y-87966376D01*
X102073216Y-87898456D01*
X101925646Y-87799853D01*
X101800147Y-87674354D01*
X101701544Y-87526784D01*
X101633624Y-87362812D01*
X101599000Y-87188741D01*
X101599000Y-87011259D01*
X101633624Y-86837188D01*
X101701544Y-86673216D01*
X101800147Y-86525646D01*
X101925646Y-86400147D01*
X102073216Y-86301544D01*
X102237188Y-86233624D01*
X102386488Y-86203927D01*
X102411258Y-86199000D01*
X102588742Y-86199000D01*
X102613512Y-86203927D01*
G37*
G36*
X137613512Y-83663927D02*
G01*
X137762812Y-83693624D01*
X137926784Y-83761544D01*
X138074354Y-83860147D01*
X138199853Y-83985646D01*
X138298456Y-84133216D01*
X138366376Y-84297188D01*
X138401000Y-84471259D01*
X138401000Y-84648741D01*
X138366376Y-84822812D01*
X138298456Y-84986784D01*
X138199853Y-85134354D01*
X138074354Y-85259853D01*
X137926784Y-85358456D01*
X137762812Y-85426376D01*
X137613512Y-85456073D01*
X137588742Y-85461000D01*
X137411258Y-85461000D01*
X137386488Y-85456073D01*
X137237188Y-85426376D01*
X137073216Y-85358456D01*
X136925646Y-85259853D01*
X136800147Y-85134354D01*
X136701544Y-84986784D01*
X136633624Y-84822812D01*
X136599000Y-84648741D01*
X136599000Y-84471259D01*
X136633624Y-84297188D01*
X136701544Y-84133216D01*
X136800147Y-83985646D01*
X136925646Y-83860147D01*
X137073216Y-83761544D01*
X137237188Y-83693624D01*
X137386488Y-83663927D01*
X137411258Y-83659000D01*
X137588742Y-83659000D01*
X137613512Y-83663927D01*
G37*
G36*
X102613512Y-83663927D02*
G01*
X102762812Y-83693624D01*
X102926784Y-83761544D01*
X103074354Y-83860147D01*
X103199853Y-83985646D01*
X103298456Y-84133216D01*
X103366376Y-84297188D01*
X103401000Y-84471259D01*
X103401000Y-84648741D01*
X103366376Y-84822812D01*
X103298456Y-84986784D01*
X103199853Y-85134354D01*
X103074354Y-85259853D01*
X102926784Y-85358456D01*
X102762812Y-85426376D01*
X102613512Y-85456073D01*
X102588742Y-85461000D01*
X102411258Y-85461000D01*
X102386488Y-85456073D01*
X102237188Y-85426376D01*
X102073216Y-85358456D01*
X101925646Y-85259853D01*
X101800147Y-85134354D01*
X101701544Y-84986784D01*
X101633624Y-84822812D01*
X101599000Y-84648741D01*
X101599000Y-84471259D01*
X101633624Y-84297188D01*
X101701544Y-84133216D01*
X101800147Y-83985646D01*
X101925646Y-83860147D01*
X102073216Y-83761544D01*
X102237188Y-83693624D01*
X102386488Y-83663927D01*
X102411258Y-83659000D01*
X102588742Y-83659000D01*
X102613512Y-83663927D01*
G37*
G36*
X118446000Y-84751000D02*
G01*
X117744000Y-84751000D01*
X117744000Y-83049000D01*
X118446000Y-83049000D01*
X118446000Y-84751000D01*
G37*
G36*
X127336000Y-84751000D02*
G01*
X126634000Y-84751000D01*
X126634000Y-83049000D01*
X127336000Y-83049000D01*
X127336000Y-84751000D01*
G37*
G36*
X129876000Y-84751000D02*
G01*
X129174000Y-84751000D01*
X129174000Y-83049000D01*
X129876000Y-83049000D01*
X129876000Y-84751000D01*
G37*
G36*
X126066000Y-84751000D02*
G01*
X125364000Y-84751000D01*
X125364000Y-83049000D01*
X126066000Y-83049000D01*
X126066000Y-84751000D01*
G37*
G36*
X124796000Y-84751000D02*
G01*
X124094000Y-84751000D01*
X124094000Y-83049000D01*
X124796000Y-83049000D01*
X124796000Y-84751000D01*
G37*
G36*
X123526000Y-84751000D02*
G01*
X122824000Y-84751000D01*
X122824000Y-83049000D01*
X123526000Y-83049000D01*
X123526000Y-84751000D01*
G37*
G36*
X122256000Y-84751000D02*
G01*
X121554000Y-84751000D01*
X121554000Y-83049000D01*
X122256000Y-83049000D01*
X122256000Y-84751000D01*
G37*
G36*
X120976000Y-84751000D02*
G01*
X120274000Y-84751000D01*
X120274000Y-83049000D01*
X120976000Y-83049000D01*
X120976000Y-84751000D01*
G37*
G36*
X119726000Y-84751000D02*
G01*
X119024000Y-84751000D01*
X119024000Y-83049000D01*
X119726000Y-83049000D01*
X119726000Y-84751000D01*
G37*
G36*
X117176000Y-84751000D02*
G01*
X116474000Y-84751000D01*
X116474000Y-83049000D01*
X117176000Y-83049000D01*
X117176000Y-84751000D01*
G37*
G36*
X115906000Y-84751000D02*
G01*
X115204000Y-84751000D01*
X115204000Y-83049000D01*
X115906000Y-83049000D01*
X115906000Y-84751000D01*
G37*
G36*
X114636000Y-84751000D02*
G01*
X113934000Y-84751000D01*
X113934000Y-83049000D01*
X114636000Y-83049000D01*
X114636000Y-84751000D01*
G37*
G36*
X113366000Y-84751000D02*
G01*
X112664000Y-84751000D01*
X112664000Y-83049000D01*
X113366000Y-83049000D01*
X113366000Y-84751000D01*
G37*
G36*
X112096000Y-84751000D02*
G01*
X111394000Y-84751000D01*
X111394000Y-83049000D01*
X112096000Y-83049000D01*
X112096000Y-84751000D01*
G37*
G36*
X128606000Y-84751000D02*
G01*
X127904000Y-84751000D01*
X127904000Y-83049000D01*
X128606000Y-83049000D01*
X128606000Y-84751000D01*
G37*
G36*
X110826000Y-84751000D02*
G01*
X110124000Y-84751000D01*
X110124000Y-83049000D01*
X110826000Y-83049000D01*
X110826000Y-84751000D01*
G37*
M02*
