G04 #@! TF.GenerationSoftware,KiCad,Pcbnew,5.1.5+dfsg1-2build2*
G04 #@! TF.CreationDate,2022-07-16T15:57:28-04:00*
G04 #@! TF.ProjectId,coco2_3134_64k_static_ram_board,636f636f-325f-4333-9133-345f36346b5f,rev?*
G04 #@! TF.SameCoordinates,Original*
G04 #@! TF.FileFunction,Soldermask,Top*
G04 #@! TF.FilePolarity,Negative*
%FSLAX46Y46*%
G04 Gerber Fmt 4.6, Leading zero omitted, Abs format (unit mm)*
G04 Created by KiCad (PCBNEW 5.1.5+dfsg1-2build2) date 2022-07-16 15:57:28*
%MOMM*%
%LPD*%
G04 APERTURE LIST*
%ADD10C,0.100000*%
G04 APERTURE END LIST*
D10*
G36*
X138401000Y-113401000D02*
G01*
X136599000Y-113401000D01*
X136599000Y-111599000D01*
X138401000Y-111599000D01*
X138401000Y-113401000D01*
G37*
G36*
X103401000Y-113401000D02*
G01*
X101599000Y-113401000D01*
X101599000Y-111599000D01*
X103401000Y-111599000D01*
X103401000Y-113401000D01*
G37*
G36*
X118853512Y-111103927D02*
G01*
X119002812Y-111133624D01*
X119166784Y-111201544D01*
X119314354Y-111300147D01*
X119439853Y-111425646D01*
X119538456Y-111573216D01*
X119606376Y-111737188D01*
X119641000Y-111911259D01*
X119641000Y-112088741D01*
X119606376Y-112262812D01*
X119538456Y-112426784D01*
X119439853Y-112574354D01*
X119314354Y-112699853D01*
X119166784Y-112798456D01*
X119002812Y-112866376D01*
X118853512Y-112896073D01*
X118828742Y-112901000D01*
X118651258Y-112901000D01*
X118626488Y-112896073D01*
X118477188Y-112866376D01*
X118313216Y-112798456D01*
X118165646Y-112699853D01*
X118040147Y-112574354D01*
X117941544Y-112426784D01*
X117873624Y-112262812D01*
X117839000Y-112088741D01*
X117839000Y-111911259D01*
X117873624Y-111737188D01*
X117941544Y-111573216D01*
X118040147Y-111425646D01*
X118165646Y-111300147D01*
X118313216Y-111201544D01*
X118477188Y-111133624D01*
X118626488Y-111103927D01*
X118651258Y-111099000D01*
X118828742Y-111099000D01*
X118853512Y-111103927D01*
G37*
G36*
X123933512Y-111103927D02*
G01*
X124082812Y-111133624D01*
X124246784Y-111201544D01*
X124394354Y-111300147D01*
X124519853Y-111425646D01*
X124618456Y-111573216D01*
X124686376Y-111737188D01*
X124721000Y-111911259D01*
X124721000Y-112088741D01*
X124686376Y-112262812D01*
X124618456Y-112426784D01*
X124519853Y-112574354D01*
X124394354Y-112699853D01*
X124246784Y-112798456D01*
X124082812Y-112866376D01*
X123933512Y-112896073D01*
X123908742Y-112901000D01*
X123731258Y-112901000D01*
X123706488Y-112896073D01*
X123557188Y-112866376D01*
X123393216Y-112798456D01*
X123245646Y-112699853D01*
X123120147Y-112574354D01*
X123021544Y-112426784D01*
X122953624Y-112262812D01*
X122919000Y-112088741D01*
X122919000Y-111911259D01*
X122953624Y-111737188D01*
X123021544Y-111573216D01*
X123120147Y-111425646D01*
X123245646Y-111300147D01*
X123393216Y-111201544D01*
X123557188Y-111133624D01*
X123706488Y-111103927D01*
X123731258Y-111099000D01*
X123908742Y-111099000D01*
X123933512Y-111103927D01*
G37*
G36*
X121393512Y-111103927D02*
G01*
X121542812Y-111133624D01*
X121706784Y-111201544D01*
X121854354Y-111300147D01*
X121979853Y-111425646D01*
X122078456Y-111573216D01*
X122146376Y-111737188D01*
X122181000Y-111911259D01*
X122181000Y-112088741D01*
X122146376Y-112262812D01*
X122078456Y-112426784D01*
X121979853Y-112574354D01*
X121854354Y-112699853D01*
X121706784Y-112798456D01*
X121542812Y-112866376D01*
X121393512Y-112896073D01*
X121368742Y-112901000D01*
X121191258Y-112901000D01*
X121166488Y-112896073D01*
X121017188Y-112866376D01*
X120853216Y-112798456D01*
X120705646Y-112699853D01*
X120580147Y-112574354D01*
X120481544Y-112426784D01*
X120413624Y-112262812D01*
X120379000Y-112088741D01*
X120379000Y-111911259D01*
X120413624Y-111737188D01*
X120481544Y-111573216D01*
X120580147Y-111425646D01*
X120705646Y-111300147D01*
X120853216Y-111201544D01*
X121017188Y-111133624D01*
X121166488Y-111103927D01*
X121191258Y-111099000D01*
X121368742Y-111099000D01*
X121393512Y-111103927D01*
G37*
G36*
X117101000Y-112901000D02*
G01*
X115299000Y-112901000D01*
X115299000Y-111099000D01*
X117101000Y-111099000D01*
X117101000Y-112901000D01*
G37*
G36*
X102613512Y-109063927D02*
G01*
X102762812Y-109093624D01*
X102926784Y-109161544D01*
X103074354Y-109260147D01*
X103199853Y-109385646D01*
X103298456Y-109533216D01*
X103366376Y-109697188D01*
X103401000Y-109871259D01*
X103401000Y-110048741D01*
X103366376Y-110222812D01*
X103298456Y-110386784D01*
X103199853Y-110534354D01*
X103074354Y-110659853D01*
X102926784Y-110758456D01*
X102762812Y-110826376D01*
X102613512Y-110856073D01*
X102588742Y-110861000D01*
X102411258Y-110861000D01*
X102386488Y-110856073D01*
X102237188Y-110826376D01*
X102073216Y-110758456D01*
X101925646Y-110659853D01*
X101800147Y-110534354D01*
X101701544Y-110386784D01*
X101633624Y-110222812D01*
X101599000Y-110048741D01*
X101599000Y-109871259D01*
X101633624Y-109697188D01*
X101701544Y-109533216D01*
X101800147Y-109385646D01*
X101925646Y-109260147D01*
X102073216Y-109161544D01*
X102237188Y-109093624D01*
X102386488Y-109063927D01*
X102411258Y-109059000D01*
X102588742Y-109059000D01*
X102613512Y-109063927D01*
G37*
G36*
X137613512Y-109063927D02*
G01*
X137762812Y-109093624D01*
X137926784Y-109161544D01*
X138074354Y-109260147D01*
X138199853Y-109385646D01*
X138298456Y-109533216D01*
X138366376Y-109697188D01*
X138401000Y-109871259D01*
X138401000Y-110048741D01*
X138366376Y-110222812D01*
X138298456Y-110386784D01*
X138199853Y-110534354D01*
X138074354Y-110659853D01*
X137926784Y-110758456D01*
X137762812Y-110826376D01*
X137613512Y-110856073D01*
X137588742Y-110861000D01*
X137411258Y-110861000D01*
X137386488Y-110856073D01*
X137237188Y-110826376D01*
X137073216Y-110758456D01*
X136925646Y-110659853D01*
X136800147Y-110534354D01*
X136701544Y-110386784D01*
X136633624Y-110222812D01*
X136599000Y-110048741D01*
X136599000Y-109871259D01*
X136633624Y-109697188D01*
X136701544Y-109533216D01*
X136800147Y-109385646D01*
X136925646Y-109260147D01*
X137073216Y-109161544D01*
X137237188Y-109093624D01*
X137386488Y-109063927D01*
X137411258Y-109059000D01*
X137588742Y-109059000D01*
X137613512Y-109063927D01*
G37*
G36*
X137613512Y-106523927D02*
G01*
X137762812Y-106553624D01*
X137926784Y-106621544D01*
X138074354Y-106720147D01*
X138199853Y-106845646D01*
X138298456Y-106993216D01*
X138366376Y-107157188D01*
X138401000Y-107331259D01*
X138401000Y-107508741D01*
X138366376Y-107682812D01*
X138298456Y-107846784D01*
X138199853Y-107994354D01*
X138074354Y-108119853D01*
X137926784Y-108218456D01*
X137762812Y-108286376D01*
X137613512Y-108316073D01*
X137588742Y-108321000D01*
X137411258Y-108321000D01*
X137386488Y-108316073D01*
X137237188Y-108286376D01*
X137073216Y-108218456D01*
X136925646Y-108119853D01*
X136800147Y-107994354D01*
X136701544Y-107846784D01*
X136633624Y-107682812D01*
X136599000Y-107508741D01*
X136599000Y-107331259D01*
X136633624Y-107157188D01*
X136701544Y-106993216D01*
X136800147Y-106845646D01*
X136925646Y-106720147D01*
X137073216Y-106621544D01*
X137237188Y-106553624D01*
X137386488Y-106523927D01*
X137411258Y-106519000D01*
X137588742Y-106519000D01*
X137613512Y-106523927D01*
G37*
G36*
X102613512Y-106523927D02*
G01*
X102762812Y-106553624D01*
X102926784Y-106621544D01*
X103074354Y-106720147D01*
X103199853Y-106845646D01*
X103298456Y-106993216D01*
X103366376Y-107157188D01*
X103401000Y-107331259D01*
X103401000Y-107508741D01*
X103366376Y-107682812D01*
X103298456Y-107846784D01*
X103199853Y-107994354D01*
X103074354Y-108119853D01*
X102926784Y-108218456D01*
X102762812Y-108286376D01*
X102613512Y-108316073D01*
X102588742Y-108321000D01*
X102411258Y-108321000D01*
X102386488Y-108316073D01*
X102237188Y-108286376D01*
X102073216Y-108218456D01*
X101925646Y-108119853D01*
X101800147Y-107994354D01*
X101701544Y-107846784D01*
X101633624Y-107682812D01*
X101599000Y-107508741D01*
X101599000Y-107331259D01*
X101633624Y-107157188D01*
X101701544Y-106993216D01*
X101800147Y-106845646D01*
X101925646Y-106720147D01*
X102073216Y-106621544D01*
X102237188Y-106553624D01*
X102386488Y-106523927D01*
X102411258Y-106519000D01*
X102588742Y-106519000D01*
X102613512Y-106523927D01*
G37*
G36*
X102613512Y-103983927D02*
G01*
X102762812Y-104013624D01*
X102926784Y-104081544D01*
X103074354Y-104180147D01*
X103199853Y-104305646D01*
X103298456Y-104453216D01*
X103366376Y-104617188D01*
X103401000Y-104791259D01*
X103401000Y-104968741D01*
X103366376Y-105142812D01*
X103298456Y-105306784D01*
X103199853Y-105454354D01*
X103074354Y-105579853D01*
X102926784Y-105678456D01*
X102762812Y-105746376D01*
X102613512Y-105776073D01*
X102588742Y-105781000D01*
X102411258Y-105781000D01*
X102386488Y-105776073D01*
X102237188Y-105746376D01*
X102073216Y-105678456D01*
X101925646Y-105579853D01*
X101800147Y-105454354D01*
X101701544Y-105306784D01*
X101633624Y-105142812D01*
X101599000Y-104968741D01*
X101599000Y-104791259D01*
X101633624Y-104617188D01*
X101701544Y-104453216D01*
X101800147Y-104305646D01*
X101925646Y-104180147D01*
X102073216Y-104081544D01*
X102237188Y-104013624D01*
X102386488Y-103983927D01*
X102411258Y-103979000D01*
X102588742Y-103979000D01*
X102613512Y-103983927D01*
G37*
G36*
X137613512Y-103983927D02*
G01*
X137762812Y-104013624D01*
X137926784Y-104081544D01*
X138074354Y-104180147D01*
X138199853Y-104305646D01*
X138298456Y-104453216D01*
X138366376Y-104617188D01*
X138401000Y-104791259D01*
X138401000Y-104968741D01*
X138366376Y-105142812D01*
X138298456Y-105306784D01*
X138199853Y-105454354D01*
X138074354Y-105579853D01*
X137926784Y-105678456D01*
X137762812Y-105746376D01*
X137613512Y-105776073D01*
X137588742Y-105781000D01*
X137411258Y-105781000D01*
X137386488Y-105776073D01*
X137237188Y-105746376D01*
X137073216Y-105678456D01*
X136925646Y-105579853D01*
X136800147Y-105454354D01*
X136701544Y-105306784D01*
X136633624Y-105142812D01*
X136599000Y-104968741D01*
X136599000Y-104791259D01*
X136633624Y-104617188D01*
X136701544Y-104453216D01*
X136800147Y-104305646D01*
X136925646Y-104180147D01*
X137073216Y-104081544D01*
X137237188Y-104013624D01*
X137386488Y-103983927D01*
X137411258Y-103979000D01*
X137588742Y-103979000D01*
X137613512Y-103983927D01*
G37*
G36*
X102613512Y-101443927D02*
G01*
X102762812Y-101473624D01*
X102926784Y-101541544D01*
X103074354Y-101640147D01*
X103199853Y-101765646D01*
X103298456Y-101913216D01*
X103366376Y-102077188D01*
X103401000Y-102251259D01*
X103401000Y-102428741D01*
X103366376Y-102602812D01*
X103298456Y-102766784D01*
X103199853Y-102914354D01*
X103074354Y-103039853D01*
X102926784Y-103138456D01*
X102762812Y-103206376D01*
X102613512Y-103236073D01*
X102588742Y-103241000D01*
X102411258Y-103241000D01*
X102386488Y-103236073D01*
X102237188Y-103206376D01*
X102073216Y-103138456D01*
X101925646Y-103039853D01*
X101800147Y-102914354D01*
X101701544Y-102766784D01*
X101633624Y-102602812D01*
X101599000Y-102428741D01*
X101599000Y-102251259D01*
X101633624Y-102077188D01*
X101701544Y-101913216D01*
X101800147Y-101765646D01*
X101925646Y-101640147D01*
X102073216Y-101541544D01*
X102237188Y-101473624D01*
X102386488Y-101443927D01*
X102411258Y-101439000D01*
X102588742Y-101439000D01*
X102613512Y-101443927D01*
G37*
G36*
X137613512Y-101443927D02*
G01*
X137762812Y-101473624D01*
X137926784Y-101541544D01*
X138074354Y-101640147D01*
X138199853Y-101765646D01*
X138298456Y-101913216D01*
X138366376Y-102077188D01*
X138401000Y-102251259D01*
X138401000Y-102428741D01*
X138366376Y-102602812D01*
X138298456Y-102766784D01*
X138199853Y-102914354D01*
X138074354Y-103039853D01*
X137926784Y-103138456D01*
X137762812Y-103206376D01*
X137613512Y-103236073D01*
X137588742Y-103241000D01*
X137411258Y-103241000D01*
X137386488Y-103236073D01*
X137237188Y-103206376D01*
X137073216Y-103138456D01*
X136925646Y-103039853D01*
X136800147Y-102914354D01*
X136701544Y-102766784D01*
X136633624Y-102602812D01*
X136599000Y-102428741D01*
X136599000Y-102251259D01*
X136633624Y-102077188D01*
X136701544Y-101913216D01*
X136800147Y-101765646D01*
X136925646Y-101640147D01*
X137073216Y-101541544D01*
X137237188Y-101473624D01*
X137386488Y-101443927D01*
X137411258Y-101439000D01*
X137588742Y-101439000D01*
X137613512Y-101443927D01*
G37*
G36*
X102613512Y-98903927D02*
G01*
X102762812Y-98933624D01*
X102926784Y-99001544D01*
X103074354Y-99100147D01*
X103199853Y-99225646D01*
X103298456Y-99373216D01*
X103366376Y-99537188D01*
X103401000Y-99711259D01*
X103401000Y-99888741D01*
X103366376Y-100062812D01*
X103298456Y-100226784D01*
X103199853Y-100374354D01*
X103074354Y-100499853D01*
X102926784Y-100598456D01*
X102762812Y-100666376D01*
X102613512Y-100696073D01*
X102588742Y-100701000D01*
X102411258Y-100701000D01*
X102386488Y-100696073D01*
X102237188Y-100666376D01*
X102073216Y-100598456D01*
X101925646Y-100499853D01*
X101800147Y-100374354D01*
X101701544Y-100226784D01*
X101633624Y-100062812D01*
X101599000Y-99888741D01*
X101599000Y-99711259D01*
X101633624Y-99537188D01*
X101701544Y-99373216D01*
X101800147Y-99225646D01*
X101925646Y-99100147D01*
X102073216Y-99001544D01*
X102237188Y-98933624D01*
X102386488Y-98903927D01*
X102411258Y-98899000D01*
X102588742Y-98899000D01*
X102613512Y-98903927D01*
G37*
G36*
X137613512Y-98903927D02*
G01*
X137762812Y-98933624D01*
X137926784Y-99001544D01*
X138074354Y-99100147D01*
X138199853Y-99225646D01*
X138298456Y-99373216D01*
X138366376Y-99537188D01*
X138401000Y-99711259D01*
X138401000Y-99888741D01*
X138366376Y-100062812D01*
X138298456Y-100226784D01*
X138199853Y-100374354D01*
X138074354Y-100499853D01*
X137926784Y-100598456D01*
X137762812Y-100666376D01*
X137613512Y-100696073D01*
X137588742Y-100701000D01*
X137411258Y-100701000D01*
X137386488Y-100696073D01*
X137237188Y-100666376D01*
X137073216Y-100598456D01*
X136925646Y-100499853D01*
X136800147Y-100374354D01*
X136701544Y-100226784D01*
X136633624Y-100062812D01*
X136599000Y-99888741D01*
X136599000Y-99711259D01*
X136633624Y-99537188D01*
X136701544Y-99373216D01*
X136800147Y-99225646D01*
X136925646Y-99100147D01*
X137073216Y-99001544D01*
X137237188Y-98933624D01*
X137386488Y-98903927D01*
X137411258Y-98899000D01*
X137588742Y-98899000D01*
X137613512Y-98903927D01*
G37*
G36*
X102613512Y-96363927D02*
G01*
X102762812Y-96393624D01*
X102926784Y-96461544D01*
X103074354Y-96560147D01*
X103199853Y-96685646D01*
X103298456Y-96833216D01*
X103366376Y-96997188D01*
X103401000Y-97171259D01*
X103401000Y-97348741D01*
X103366376Y-97522812D01*
X103298456Y-97686784D01*
X103199853Y-97834354D01*
X103074354Y-97959853D01*
X102926784Y-98058456D01*
X102762812Y-98126376D01*
X102613512Y-98156073D01*
X102588742Y-98161000D01*
X102411258Y-98161000D01*
X102386488Y-98156073D01*
X102237188Y-98126376D01*
X102073216Y-98058456D01*
X101925646Y-97959853D01*
X101800147Y-97834354D01*
X101701544Y-97686784D01*
X101633624Y-97522812D01*
X101599000Y-97348741D01*
X101599000Y-97171259D01*
X101633624Y-96997188D01*
X101701544Y-96833216D01*
X101800147Y-96685646D01*
X101925646Y-96560147D01*
X102073216Y-96461544D01*
X102237188Y-96393624D01*
X102386488Y-96363927D01*
X102411258Y-96359000D01*
X102588742Y-96359000D01*
X102613512Y-96363927D01*
G37*
G36*
X137613512Y-96363927D02*
G01*
X137762812Y-96393624D01*
X137926784Y-96461544D01*
X138074354Y-96560147D01*
X138199853Y-96685646D01*
X138298456Y-96833216D01*
X138366376Y-96997188D01*
X138401000Y-97171259D01*
X138401000Y-97348741D01*
X138366376Y-97522812D01*
X138298456Y-97686784D01*
X138199853Y-97834354D01*
X138074354Y-97959853D01*
X137926784Y-98058456D01*
X137762812Y-98126376D01*
X137613512Y-98156073D01*
X137588742Y-98161000D01*
X137411258Y-98161000D01*
X137386488Y-98156073D01*
X137237188Y-98126376D01*
X137073216Y-98058456D01*
X136925646Y-97959853D01*
X136800147Y-97834354D01*
X136701544Y-97686784D01*
X136633624Y-97522812D01*
X136599000Y-97348741D01*
X136599000Y-97171259D01*
X136633624Y-96997188D01*
X136701544Y-96833216D01*
X136800147Y-96685646D01*
X136925646Y-96560147D01*
X137073216Y-96461544D01*
X137237188Y-96393624D01*
X137386488Y-96363927D01*
X137411258Y-96359000D01*
X137588742Y-96359000D01*
X137613512Y-96363927D01*
G37*
G36*
X102613512Y-93823927D02*
G01*
X102762812Y-93853624D01*
X102926784Y-93921544D01*
X103074354Y-94020147D01*
X103199853Y-94145646D01*
X103298456Y-94293216D01*
X103366376Y-94457188D01*
X103401000Y-94631259D01*
X103401000Y-94808741D01*
X103366376Y-94982812D01*
X103298456Y-95146784D01*
X103199853Y-95294354D01*
X103074354Y-95419853D01*
X102926784Y-95518456D01*
X102762812Y-95586376D01*
X102613512Y-95616073D01*
X102588742Y-95621000D01*
X102411258Y-95621000D01*
X102386488Y-95616073D01*
X102237188Y-95586376D01*
X102073216Y-95518456D01*
X101925646Y-95419853D01*
X101800147Y-95294354D01*
X101701544Y-95146784D01*
X101633624Y-94982812D01*
X101599000Y-94808741D01*
X101599000Y-94631259D01*
X101633624Y-94457188D01*
X101701544Y-94293216D01*
X101800147Y-94145646D01*
X101925646Y-94020147D01*
X102073216Y-93921544D01*
X102237188Y-93853624D01*
X102386488Y-93823927D01*
X102411258Y-93819000D01*
X102588742Y-93819000D01*
X102613512Y-93823927D01*
G37*
G36*
X137613512Y-93823927D02*
G01*
X137762812Y-93853624D01*
X137926784Y-93921544D01*
X138074354Y-94020147D01*
X138199853Y-94145646D01*
X138298456Y-94293216D01*
X138366376Y-94457188D01*
X138401000Y-94631259D01*
X138401000Y-94808741D01*
X138366376Y-94982812D01*
X138298456Y-95146784D01*
X138199853Y-95294354D01*
X138074354Y-95419853D01*
X137926784Y-95518456D01*
X137762812Y-95586376D01*
X137613512Y-95616073D01*
X137588742Y-95621000D01*
X137411258Y-95621000D01*
X137386488Y-95616073D01*
X137237188Y-95586376D01*
X137073216Y-95518456D01*
X136925646Y-95419853D01*
X136800147Y-95294354D01*
X136701544Y-95146784D01*
X136633624Y-94982812D01*
X136599000Y-94808741D01*
X136599000Y-94631259D01*
X136633624Y-94457188D01*
X136701544Y-94293216D01*
X136800147Y-94145646D01*
X136925646Y-94020147D01*
X137073216Y-93921544D01*
X137237188Y-93853624D01*
X137386488Y-93823927D01*
X137411258Y-93819000D01*
X137588742Y-93819000D01*
X137613512Y-93823927D01*
G37*
G36*
X102613512Y-91283927D02*
G01*
X102762812Y-91313624D01*
X102926784Y-91381544D01*
X103074354Y-91480147D01*
X103199853Y-91605646D01*
X103298456Y-91753216D01*
X103366376Y-91917188D01*
X103401000Y-92091259D01*
X103401000Y-92268741D01*
X103366376Y-92442812D01*
X103298456Y-92606784D01*
X103199853Y-92754354D01*
X103074354Y-92879853D01*
X102926784Y-92978456D01*
X102762812Y-93046376D01*
X102613512Y-93076073D01*
X102588742Y-93081000D01*
X102411258Y-93081000D01*
X102386488Y-93076073D01*
X102237188Y-93046376D01*
X102073216Y-92978456D01*
X101925646Y-92879853D01*
X101800147Y-92754354D01*
X101701544Y-92606784D01*
X101633624Y-92442812D01*
X101599000Y-92268741D01*
X101599000Y-92091259D01*
X101633624Y-91917188D01*
X101701544Y-91753216D01*
X101800147Y-91605646D01*
X101925646Y-91480147D01*
X102073216Y-91381544D01*
X102237188Y-91313624D01*
X102386488Y-91283927D01*
X102411258Y-91279000D01*
X102588742Y-91279000D01*
X102613512Y-91283927D01*
G37*
G36*
X137613512Y-91283927D02*
G01*
X137762812Y-91313624D01*
X137926784Y-91381544D01*
X138074354Y-91480147D01*
X138199853Y-91605646D01*
X138298456Y-91753216D01*
X138366376Y-91917188D01*
X138401000Y-92091259D01*
X138401000Y-92268741D01*
X138366376Y-92442812D01*
X138298456Y-92606784D01*
X138199853Y-92754354D01*
X138074354Y-92879853D01*
X137926784Y-92978456D01*
X137762812Y-93046376D01*
X137613512Y-93076073D01*
X137588742Y-93081000D01*
X137411258Y-93081000D01*
X137386488Y-93076073D01*
X137237188Y-93046376D01*
X137073216Y-92978456D01*
X136925646Y-92879853D01*
X136800147Y-92754354D01*
X136701544Y-92606784D01*
X136633624Y-92442812D01*
X136599000Y-92268741D01*
X136599000Y-92091259D01*
X136633624Y-91917188D01*
X136701544Y-91753216D01*
X136800147Y-91605646D01*
X136925646Y-91480147D01*
X137073216Y-91381544D01*
X137237188Y-91313624D01*
X137386488Y-91283927D01*
X137411258Y-91279000D01*
X137588742Y-91279000D01*
X137613512Y-91283927D01*
G37*
G36*
X137613512Y-88743927D02*
G01*
X137762812Y-88773624D01*
X137926784Y-88841544D01*
X138074354Y-88940147D01*
X138199853Y-89065646D01*
X138298456Y-89213216D01*
X138366376Y-89377188D01*
X138401000Y-89551259D01*
X138401000Y-89728741D01*
X138366376Y-89902812D01*
X138298456Y-90066784D01*
X138199853Y-90214354D01*
X138074354Y-90339853D01*
X137926784Y-90438456D01*
X137762812Y-90506376D01*
X137613512Y-90536073D01*
X137588742Y-90541000D01*
X137411258Y-90541000D01*
X137386488Y-90536073D01*
X137237188Y-90506376D01*
X137073216Y-90438456D01*
X136925646Y-90339853D01*
X136800147Y-90214354D01*
X136701544Y-90066784D01*
X136633624Y-89902812D01*
X136599000Y-89728741D01*
X136599000Y-89551259D01*
X136633624Y-89377188D01*
X136701544Y-89213216D01*
X136800147Y-89065646D01*
X136925646Y-88940147D01*
X137073216Y-88841544D01*
X137237188Y-88773624D01*
X137386488Y-88743927D01*
X137411258Y-88739000D01*
X137588742Y-88739000D01*
X137613512Y-88743927D01*
G37*
G36*
X102613512Y-88743927D02*
G01*
X102762812Y-88773624D01*
X102926784Y-88841544D01*
X103074354Y-88940147D01*
X103199853Y-89065646D01*
X103298456Y-89213216D01*
X103366376Y-89377188D01*
X103401000Y-89551259D01*
X103401000Y-89728741D01*
X103366376Y-89902812D01*
X103298456Y-90066784D01*
X103199853Y-90214354D01*
X103074354Y-90339853D01*
X102926784Y-90438456D01*
X102762812Y-90506376D01*
X102613512Y-90536073D01*
X102588742Y-90541000D01*
X102411258Y-90541000D01*
X102386488Y-90536073D01*
X102237188Y-90506376D01*
X102073216Y-90438456D01*
X101925646Y-90339853D01*
X101800147Y-90214354D01*
X101701544Y-90066784D01*
X101633624Y-89902812D01*
X101599000Y-89728741D01*
X101599000Y-89551259D01*
X101633624Y-89377188D01*
X101701544Y-89213216D01*
X101800147Y-89065646D01*
X101925646Y-88940147D01*
X102073216Y-88841544D01*
X102237188Y-88773624D01*
X102386488Y-88743927D01*
X102411258Y-88739000D01*
X102588742Y-88739000D01*
X102613512Y-88743927D01*
G37*
G36*
X102613512Y-86203927D02*
G01*
X102762812Y-86233624D01*
X102926784Y-86301544D01*
X103074354Y-86400147D01*
X103199853Y-86525646D01*
X103298456Y-86673216D01*
X103366376Y-86837188D01*
X103401000Y-87011259D01*
X103401000Y-87188741D01*
X103366376Y-87362812D01*
X103298456Y-87526784D01*
X103199853Y-87674354D01*
X103074354Y-87799853D01*
X102926784Y-87898456D01*
X102762812Y-87966376D01*
X102613512Y-87996073D01*
X102588742Y-88001000D01*
X102411258Y-88001000D01*
X102386488Y-87996073D01*
X102237188Y-87966376D01*
X102073216Y-87898456D01*
X101925646Y-87799853D01*
X101800147Y-87674354D01*
X101701544Y-87526784D01*
X101633624Y-87362812D01*
X101599000Y-87188741D01*
X101599000Y-87011259D01*
X101633624Y-86837188D01*
X101701544Y-86673216D01*
X101800147Y-86525646D01*
X101925646Y-86400147D01*
X102073216Y-86301544D01*
X102237188Y-86233624D01*
X102386488Y-86203927D01*
X102411258Y-86199000D01*
X102588742Y-86199000D01*
X102613512Y-86203927D01*
G37*
G36*
X137613512Y-86203927D02*
G01*
X137762812Y-86233624D01*
X137926784Y-86301544D01*
X138074354Y-86400147D01*
X138199853Y-86525646D01*
X138298456Y-86673216D01*
X138366376Y-86837188D01*
X138401000Y-87011259D01*
X138401000Y-87188741D01*
X138366376Y-87362812D01*
X138298456Y-87526784D01*
X138199853Y-87674354D01*
X138074354Y-87799853D01*
X137926784Y-87898456D01*
X137762812Y-87966376D01*
X137613512Y-87996073D01*
X137588742Y-88001000D01*
X137411258Y-88001000D01*
X137386488Y-87996073D01*
X137237188Y-87966376D01*
X137073216Y-87898456D01*
X136925646Y-87799853D01*
X136800147Y-87674354D01*
X136701544Y-87526784D01*
X136633624Y-87362812D01*
X136599000Y-87188741D01*
X136599000Y-87011259D01*
X136633624Y-86837188D01*
X136701544Y-86673216D01*
X136800147Y-86525646D01*
X136925646Y-86400147D01*
X137073216Y-86301544D01*
X137237188Y-86233624D01*
X137386488Y-86203927D01*
X137411258Y-86199000D01*
X137588742Y-86199000D01*
X137613512Y-86203927D01*
G37*
G36*
X137613512Y-83663927D02*
G01*
X137762812Y-83693624D01*
X137926784Y-83761544D01*
X138074354Y-83860147D01*
X138199853Y-83985646D01*
X138298456Y-84133216D01*
X138366376Y-84297188D01*
X138401000Y-84471259D01*
X138401000Y-84648741D01*
X138366376Y-84822812D01*
X138298456Y-84986784D01*
X138199853Y-85134354D01*
X138074354Y-85259853D01*
X137926784Y-85358456D01*
X137762812Y-85426376D01*
X137613512Y-85456073D01*
X137588742Y-85461000D01*
X137411258Y-85461000D01*
X137386488Y-85456073D01*
X137237188Y-85426376D01*
X137073216Y-85358456D01*
X136925646Y-85259853D01*
X136800147Y-85134354D01*
X136701544Y-84986784D01*
X136633624Y-84822812D01*
X136599000Y-84648741D01*
X136599000Y-84471259D01*
X136633624Y-84297188D01*
X136701544Y-84133216D01*
X136800147Y-83985646D01*
X136925646Y-83860147D01*
X137073216Y-83761544D01*
X137237188Y-83693624D01*
X137386488Y-83663927D01*
X137411258Y-83659000D01*
X137588742Y-83659000D01*
X137613512Y-83663927D01*
G37*
G36*
X102613512Y-83663927D02*
G01*
X102762812Y-83693624D01*
X102926784Y-83761544D01*
X103074354Y-83860147D01*
X103199853Y-83985646D01*
X103298456Y-84133216D01*
X103366376Y-84297188D01*
X103401000Y-84471259D01*
X103401000Y-84648741D01*
X103366376Y-84822812D01*
X103298456Y-84986784D01*
X103199853Y-85134354D01*
X103074354Y-85259853D01*
X102926784Y-85358456D01*
X102762812Y-85426376D01*
X102613512Y-85456073D01*
X102588742Y-85461000D01*
X102411258Y-85461000D01*
X102386488Y-85456073D01*
X102237188Y-85426376D01*
X102073216Y-85358456D01*
X101925646Y-85259853D01*
X101800147Y-85134354D01*
X101701544Y-84986784D01*
X101633624Y-84822812D01*
X101599000Y-84648741D01*
X101599000Y-84471259D01*
X101633624Y-84297188D01*
X101701544Y-84133216D01*
X101800147Y-83985646D01*
X101925646Y-83860147D01*
X102073216Y-83761544D01*
X102237188Y-83693624D01*
X102386488Y-83663927D01*
X102411258Y-83659000D01*
X102588742Y-83659000D01*
X102613512Y-83663927D01*
G37*
M02*
