G04 #@! TF.GenerationSoftware,KiCad,Pcbnew,5.1.5+dfsg1-2build2*
G04 #@! TF.CreationDate,2022-07-16T15:57:28-04:00*
G04 #@! TF.ProjectId,coco2_3134_64k_static_ram_board,636f636f-325f-4333-9133-345f36346b5f,rev?*
G04 #@! TF.SameCoordinates,Original*
G04 #@! TF.FileFunction,Legend,Bot*
G04 #@! TF.FilePolarity,Positive*
%FSLAX46Y46*%
G04 Gerber Fmt 4.6, Leading zero omitted, Abs format (unit mm)*
G04 Created by KiCad (PCBNEW 5.1.5+dfsg1-2build2) date 2022-07-16 15:57:28*
%MOMM*%
%LPD*%
G04 APERTURE LIST*
%ADD10C,0.120000*%
%ADD11C,0.150000*%
G04 APERTURE END LIST*
D10*
X112317000Y-101695000D02*
X114517000Y-101695000D01*
X112317000Y-101695000D02*
X110117000Y-101695000D01*
X112317000Y-108465000D02*
X114517000Y-108465000D01*
X112317000Y-108465000D02*
X108717000Y-108465000D01*
X109600000Y-84900000D02*
X109800000Y-84900000D01*
X109600000Y-84900000D02*
X109600000Y-96100000D01*
X130400000Y-82900000D02*
X130400000Y-96100000D01*
X109800000Y-84900000D02*
X109800000Y-82900000D01*
X127833000Y-99565000D02*
X129783000Y-99565000D01*
X127833000Y-99565000D02*
X125883000Y-99565000D01*
X127833000Y-108435000D02*
X129783000Y-108435000D01*
X127833000Y-108435000D02*
X124383000Y-108435000D01*
X101170000Y-83230000D02*
X103830000Y-83230000D01*
X101170000Y-111230000D02*
X101170000Y-83230000D01*
X103830000Y-111230000D02*
X103830000Y-83230000D01*
X101170000Y-111230000D02*
X103830000Y-111230000D01*
X101170000Y-112500000D02*
X101170000Y-113830000D01*
X101170000Y-113830000D02*
X102500000Y-113830000D01*
X136170000Y-113830000D02*
X137500000Y-113830000D01*
X136170000Y-112500000D02*
X136170000Y-113830000D01*
X136170000Y-111230000D02*
X138830000Y-111230000D01*
X138830000Y-111230000D02*
X138830000Y-83230000D01*
X136170000Y-111230000D02*
X136170000Y-83230000D01*
X136170000Y-83230000D02*
X138830000Y-83230000D01*
X108677064Y-111640000D02*
X108222936Y-111640000D01*
X108677064Y-113110000D02*
X108222936Y-113110000D01*
X120115000Y-105977064D02*
X120115000Y-105522936D01*
X121585000Y-105977064D02*
X121585000Y-105522936D01*
X128597936Y-113135000D02*
X129052064Y-113135000D01*
X128597936Y-111665000D02*
X129052064Y-111665000D01*
D11*
X113078904Y-108732380D02*
X113078904Y-109541904D01*
X113031285Y-109637142D01*
X112983666Y-109684761D01*
X112888428Y-109732380D01*
X112697952Y-109732380D01*
X112602714Y-109684761D01*
X112555095Y-109637142D01*
X112507476Y-109541904D01*
X112507476Y-108732380D01*
X111507476Y-109732380D02*
X112078904Y-109732380D01*
X111793190Y-109732380D02*
X111793190Y-108732380D01*
X111888428Y-108875238D01*
X111983666Y-108970476D01*
X112078904Y-109018095D01*
X118366666Y-100904761D02*
X118223809Y-100952380D01*
X117985714Y-100952380D01*
X117890476Y-100904761D01*
X117842857Y-100857142D01*
X117795238Y-100761904D01*
X117795238Y-100666666D01*
X117842857Y-100571428D01*
X117890476Y-100523809D01*
X117985714Y-100476190D01*
X118176190Y-100428571D01*
X118271428Y-100380952D01*
X118319047Y-100333333D01*
X118366666Y-100238095D01*
X118366666Y-100142857D01*
X118319047Y-100047619D01*
X118271428Y-100000000D01*
X118176190Y-99952380D01*
X117938095Y-99952380D01*
X117795238Y-100000000D01*
X117366666Y-100952380D02*
X117366666Y-99952380D01*
X116795238Y-100952380D01*
X116795238Y-99952380D01*
X116414285Y-99952380D02*
X115747619Y-99952380D01*
X116176190Y-100952380D01*
X114938095Y-100285714D02*
X114938095Y-100952380D01*
X115176190Y-99904761D02*
X115414285Y-100619047D01*
X114795238Y-100619047D01*
X114414285Y-100952380D02*
X114414285Y-99952380D01*
X114414285Y-100428571D02*
X113842857Y-100428571D01*
X113842857Y-100952380D02*
X113842857Y-99952380D01*
X112795238Y-100857142D02*
X112842857Y-100904761D01*
X112985714Y-100952380D01*
X113080952Y-100952380D01*
X113223809Y-100904761D01*
X113319047Y-100809523D01*
X113366666Y-100714285D01*
X113414285Y-100523809D01*
X113414285Y-100380952D01*
X113366666Y-100190476D01*
X113319047Y-100095238D01*
X113223809Y-100000000D01*
X113080952Y-99952380D01*
X112985714Y-99952380D01*
X112842857Y-100000000D01*
X112795238Y-100047619D01*
X112509523Y-99952380D02*
X111938095Y-99952380D01*
X112223809Y-100952380D02*
X112223809Y-99952380D01*
X111128571Y-99952380D02*
X111604761Y-99952380D01*
X111652380Y-100428571D01*
X111604761Y-100380952D01*
X111509523Y-100333333D01*
X111271428Y-100333333D01*
X111176190Y-100380952D01*
X111128571Y-100428571D01*
X111080952Y-100523809D01*
X111080952Y-100761904D01*
X111128571Y-100857142D01*
X111176190Y-100904761D01*
X111271428Y-100952380D01*
X111509523Y-100952380D01*
X111604761Y-100904761D01*
X111652380Y-100857142D01*
X110747619Y-99952380D02*
X110080952Y-99952380D01*
X110509523Y-100952380D01*
X109795238Y-99952380D02*
X109176190Y-99952380D01*
X109509523Y-100333333D01*
X109366666Y-100333333D01*
X109271428Y-100380952D01*
X109223809Y-100428571D01*
X109176190Y-100523809D01*
X109176190Y-100761904D01*
X109223809Y-100857142D01*
X109271428Y-100904761D01*
X109366666Y-100952380D01*
X109652380Y-100952380D01*
X109747619Y-100904761D01*
X109795238Y-100857142D01*
X108747619Y-100952380D02*
X108747619Y-99952380D01*
X108366666Y-99952380D01*
X108271428Y-100000000D01*
X108223809Y-100047619D01*
X108176190Y-100142857D01*
X108176190Y-100285714D01*
X108223809Y-100380952D01*
X108271428Y-100428571D01*
X108366666Y-100476190D01*
X108747619Y-100476190D01*
X107842857Y-99952380D02*
X107604761Y-100952380D01*
X107414285Y-100238095D01*
X107223809Y-100952380D01*
X106985714Y-99952380D01*
X106033333Y-100952380D02*
X106366666Y-100476190D01*
X106604761Y-100952380D02*
X106604761Y-99952380D01*
X106223809Y-99952380D01*
X106128571Y-100000000D01*
X106080952Y-100047619D01*
X106033333Y-100142857D01*
X106033333Y-100285714D01*
X106080952Y-100380952D01*
X106128571Y-100428571D01*
X106223809Y-100476190D01*
X106604761Y-100476190D01*
X108202380Y-84388095D02*
X109011904Y-84388095D01*
X109107142Y-84435714D01*
X109154761Y-84483333D01*
X109202380Y-84578571D01*
X109202380Y-84769047D01*
X109154761Y-84864285D01*
X109107142Y-84911904D01*
X109011904Y-84959523D01*
X108202380Y-84959523D01*
X108297619Y-85388095D02*
X108250000Y-85435714D01*
X108202380Y-85530952D01*
X108202380Y-85769047D01*
X108250000Y-85864285D01*
X108297619Y-85911904D01*
X108392857Y-85959523D01*
X108488095Y-85959523D01*
X108630952Y-85911904D01*
X109202380Y-85340476D01*
X109202380Y-85959523D01*
X127433333Y-82652380D02*
X127433333Y-81652380D01*
X127004761Y-82604761D02*
X126861904Y-82652380D01*
X126623809Y-82652380D01*
X126528571Y-82604761D01*
X126480952Y-82557142D01*
X126433333Y-82461904D01*
X126433333Y-82366666D01*
X126480952Y-82271428D01*
X126528571Y-82223809D01*
X126623809Y-82176190D01*
X126814285Y-82128571D01*
X126909523Y-82080952D01*
X126957142Y-82033333D01*
X127004761Y-81938095D01*
X127004761Y-81842857D01*
X126957142Y-81747619D01*
X126909523Y-81700000D01*
X126814285Y-81652380D01*
X126576190Y-81652380D01*
X126433333Y-81700000D01*
X125576190Y-81652380D02*
X125766666Y-81652380D01*
X125861904Y-81700000D01*
X125909523Y-81747619D01*
X126004761Y-81890476D01*
X126052380Y-82080952D01*
X126052380Y-82461904D01*
X126004761Y-82557142D01*
X125957142Y-82604761D01*
X125861904Y-82652380D01*
X125671428Y-82652380D01*
X125576190Y-82604761D01*
X125528571Y-82557142D01*
X125480952Y-82461904D01*
X125480952Y-82223809D01*
X125528571Y-82128571D01*
X125576190Y-82080952D01*
X125671428Y-82033333D01*
X125861904Y-82033333D01*
X125957142Y-82080952D01*
X126004761Y-82128571D01*
X126052380Y-82223809D01*
X124528571Y-82652380D02*
X125100000Y-82652380D01*
X124814285Y-82652380D02*
X124814285Y-81652380D01*
X124909523Y-81795238D01*
X125004761Y-81890476D01*
X125100000Y-81938095D01*
X123528571Y-82557142D02*
X123576190Y-82604761D01*
X123719047Y-82652380D01*
X123814285Y-82652380D01*
X123957142Y-82604761D01*
X124052380Y-82509523D01*
X124100000Y-82414285D01*
X124147619Y-82223809D01*
X124147619Y-82080952D01*
X124100000Y-81890476D01*
X124052380Y-81795238D01*
X123957142Y-81700000D01*
X123814285Y-81652380D01*
X123719047Y-81652380D01*
X123576190Y-81700000D01*
X123528571Y-81747619D01*
X122623809Y-81652380D02*
X123100000Y-81652380D01*
X123147619Y-82128571D01*
X123100000Y-82080952D01*
X123004761Y-82033333D01*
X122766666Y-82033333D01*
X122671428Y-82080952D01*
X122623809Y-82128571D01*
X122576190Y-82223809D01*
X122576190Y-82461904D01*
X122623809Y-82557142D01*
X122671428Y-82604761D01*
X122766666Y-82652380D01*
X123004761Y-82652380D01*
X123100000Y-82604761D01*
X123147619Y-82557142D01*
X121623809Y-82652380D02*
X122195238Y-82652380D01*
X121909523Y-82652380D02*
X121909523Y-81652380D01*
X122004761Y-81795238D01*
X122100000Y-81890476D01*
X122195238Y-81938095D01*
X121242857Y-81747619D02*
X121195238Y-81700000D01*
X121100000Y-81652380D01*
X120861904Y-81652380D01*
X120766666Y-81700000D01*
X120719047Y-81747619D01*
X120671428Y-81842857D01*
X120671428Y-81938095D01*
X120719047Y-82080952D01*
X121290476Y-82652380D01*
X120671428Y-82652380D01*
X120100000Y-82080952D02*
X120195238Y-82033333D01*
X120242857Y-81985714D01*
X120290476Y-81890476D01*
X120290476Y-81842857D01*
X120242857Y-81747619D01*
X120195238Y-81700000D01*
X120100000Y-81652380D01*
X119909523Y-81652380D01*
X119814285Y-81700000D01*
X119766666Y-81747619D01*
X119719047Y-81842857D01*
X119719047Y-81890476D01*
X119766666Y-81985714D01*
X119814285Y-82033333D01*
X119909523Y-82080952D01*
X120100000Y-82080952D01*
X120195238Y-82128571D01*
X120242857Y-82176190D01*
X120290476Y-82271428D01*
X120290476Y-82461904D01*
X120242857Y-82557142D01*
X120195238Y-82604761D01*
X120100000Y-82652380D01*
X119909523Y-82652380D01*
X119814285Y-82604761D01*
X119766666Y-82557142D01*
X119719047Y-82461904D01*
X119719047Y-82271428D01*
X119766666Y-82176190D01*
X119814285Y-82128571D01*
X119909523Y-82080952D01*
X119338095Y-82366666D02*
X118861904Y-82366666D01*
X119433333Y-82652380D02*
X119100000Y-81652380D01*
X118766666Y-82652380D01*
X118480952Y-82604761D02*
X118338095Y-82652380D01*
X118100000Y-82652380D01*
X118004761Y-82604761D01*
X117957142Y-82557142D01*
X117909523Y-82461904D01*
X117909523Y-82366666D01*
X117957142Y-82271428D01*
X118004761Y-82223809D01*
X118100000Y-82176190D01*
X118290476Y-82128571D01*
X118385714Y-82080952D01*
X118433333Y-82033333D01*
X118480952Y-81938095D01*
X118480952Y-81842857D01*
X118433333Y-81747619D01*
X118385714Y-81700000D01*
X118290476Y-81652380D01*
X118052380Y-81652380D01*
X117909523Y-81700000D01*
X117480952Y-82271428D02*
X116719047Y-82271428D01*
X116290476Y-81747619D02*
X116242857Y-81700000D01*
X116147619Y-81652380D01*
X115909523Y-81652380D01*
X115814285Y-81700000D01*
X115766666Y-81747619D01*
X115719047Y-81842857D01*
X115719047Y-81938095D01*
X115766666Y-82080952D01*
X116338095Y-82652380D01*
X115719047Y-82652380D01*
X114814285Y-81652380D02*
X115290476Y-81652380D01*
X115338095Y-82128571D01*
X115290476Y-82080952D01*
X115195238Y-82033333D01*
X114957142Y-82033333D01*
X114861904Y-82080952D01*
X114814285Y-82128571D01*
X114766666Y-82223809D01*
X114766666Y-82461904D01*
X114814285Y-82557142D01*
X114861904Y-82604761D01*
X114957142Y-82652380D01*
X115195238Y-82652380D01*
X115290476Y-82604761D01*
X115338095Y-82557142D01*
X114480952Y-81652380D02*
X113909523Y-81652380D01*
X114195238Y-82652380D02*
X114195238Y-81652380D01*
X113100000Y-82652380D02*
X113576190Y-82652380D01*
X113576190Y-81652380D01*
X112766666Y-82652380D02*
X112766666Y-81652380D01*
X128594904Y-108732380D02*
X128594904Y-109541904D01*
X128547285Y-109637142D01*
X128499666Y-109684761D01*
X128404428Y-109732380D01*
X128213952Y-109732380D01*
X128118714Y-109684761D01*
X128071095Y-109637142D01*
X128023476Y-109541904D01*
X128023476Y-108732380D01*
X127642523Y-108732380D02*
X127023476Y-108732380D01*
X127356809Y-109113333D01*
X127213952Y-109113333D01*
X127118714Y-109160952D01*
X127071095Y-109208571D01*
X127023476Y-109303809D01*
X127023476Y-109541904D01*
X127071095Y-109637142D01*
X127118714Y-109684761D01*
X127213952Y-109732380D01*
X127499666Y-109732380D01*
X127594904Y-109684761D01*
X127642523Y-109637142D01*
X132952047Y-99124761D02*
X132809190Y-99172380D01*
X132571095Y-99172380D01*
X132475857Y-99124761D01*
X132428238Y-99077142D01*
X132380619Y-98981904D01*
X132380619Y-98886666D01*
X132428238Y-98791428D01*
X132475857Y-98743809D01*
X132571095Y-98696190D01*
X132761571Y-98648571D01*
X132856809Y-98600952D01*
X132904428Y-98553333D01*
X132952047Y-98458095D01*
X132952047Y-98362857D01*
X132904428Y-98267619D01*
X132856809Y-98220000D01*
X132761571Y-98172380D01*
X132523476Y-98172380D01*
X132380619Y-98220000D01*
X131952047Y-99172380D02*
X131952047Y-98172380D01*
X131380619Y-99172380D01*
X131380619Y-98172380D01*
X130999666Y-98172380D02*
X130333000Y-98172380D01*
X130761571Y-99172380D01*
X129523476Y-98505714D02*
X129523476Y-99172380D01*
X129761571Y-98124761D02*
X129999666Y-98839047D01*
X129380619Y-98839047D01*
X128999666Y-99172380D02*
X128999666Y-98172380D01*
X128999666Y-98648571D02*
X128428238Y-98648571D01*
X128428238Y-99172380D02*
X128428238Y-98172380D01*
X127380619Y-99077142D02*
X127428238Y-99124761D01*
X127571095Y-99172380D01*
X127666333Y-99172380D01*
X127809190Y-99124761D01*
X127904428Y-99029523D01*
X127952047Y-98934285D01*
X127999666Y-98743809D01*
X127999666Y-98600952D01*
X127952047Y-98410476D01*
X127904428Y-98315238D01*
X127809190Y-98220000D01*
X127666333Y-98172380D01*
X127571095Y-98172380D01*
X127428238Y-98220000D01*
X127380619Y-98267619D01*
X127094904Y-98172380D02*
X126523476Y-98172380D01*
X126809190Y-99172380D02*
X126809190Y-98172380D01*
X126285380Y-98172380D02*
X125666333Y-98172380D01*
X125999666Y-98553333D01*
X125856809Y-98553333D01*
X125761571Y-98600952D01*
X125713952Y-98648571D01*
X125666333Y-98743809D01*
X125666333Y-98981904D01*
X125713952Y-99077142D01*
X125761571Y-99124761D01*
X125856809Y-99172380D01*
X126142523Y-99172380D01*
X126237761Y-99124761D01*
X126285380Y-99077142D01*
X125285380Y-98267619D02*
X125237761Y-98220000D01*
X125142523Y-98172380D01*
X124904428Y-98172380D01*
X124809190Y-98220000D01*
X124761571Y-98267619D01*
X124713952Y-98362857D01*
X124713952Y-98458095D01*
X124761571Y-98600952D01*
X125333000Y-99172380D01*
X124713952Y-99172380D01*
X124285380Y-99172380D02*
X124285380Y-98172380D01*
X124047285Y-98172380D01*
X123904428Y-98220000D01*
X123809190Y-98315238D01*
X123761571Y-98410476D01*
X123713952Y-98600952D01*
X123713952Y-98743809D01*
X123761571Y-98934285D01*
X123809190Y-99029523D01*
X123904428Y-99124761D01*
X124047285Y-99172380D01*
X124285380Y-99172380D01*
X122713952Y-99172380D02*
X123047285Y-98696190D01*
X123285380Y-99172380D02*
X123285380Y-98172380D01*
X122904428Y-98172380D01*
X122809190Y-98220000D01*
X122761571Y-98267619D01*
X122713952Y-98362857D01*
X122713952Y-98505714D01*
X122761571Y-98600952D01*
X122809190Y-98648571D01*
X122904428Y-98696190D01*
X123285380Y-98696190D01*
X103290476Y-82457142D02*
X103338095Y-82504761D01*
X103480952Y-82552380D01*
X103576190Y-82552380D01*
X103719047Y-82504761D01*
X103814285Y-82409523D01*
X103861904Y-82314285D01*
X103909523Y-82123809D01*
X103909523Y-81980952D01*
X103861904Y-81790476D01*
X103814285Y-81695238D01*
X103719047Y-81600000D01*
X103576190Y-81552380D01*
X103480952Y-81552380D01*
X103338095Y-81600000D01*
X103290476Y-81647619D01*
X102861904Y-82552380D02*
X102861904Y-81552380D01*
X102290476Y-82552380D01*
X102290476Y-81552380D01*
X101909523Y-81552380D02*
X101290476Y-81552380D01*
X101623809Y-81933333D01*
X101480952Y-81933333D01*
X101385714Y-81980952D01*
X101338095Y-82028571D01*
X101290476Y-82123809D01*
X101290476Y-82361904D01*
X101338095Y-82457142D01*
X101385714Y-82504761D01*
X101480952Y-82552380D01*
X101766666Y-82552380D01*
X101861904Y-82504761D01*
X101909523Y-82457142D01*
X138290476Y-82357142D02*
X138338095Y-82404761D01*
X138480952Y-82452380D01*
X138576190Y-82452380D01*
X138719047Y-82404761D01*
X138814285Y-82309523D01*
X138861904Y-82214285D01*
X138909523Y-82023809D01*
X138909523Y-81880952D01*
X138861904Y-81690476D01*
X138814285Y-81595238D01*
X138719047Y-81500000D01*
X138576190Y-81452380D01*
X138480952Y-81452380D01*
X138338095Y-81500000D01*
X138290476Y-81547619D01*
X137861904Y-82452380D02*
X137861904Y-81452380D01*
X137290476Y-82452380D01*
X137290476Y-81452380D01*
X136385714Y-81785714D02*
X136385714Y-82452380D01*
X136623809Y-81404761D02*
X136861904Y-82119047D01*
X136242857Y-82119047D01*
X108391666Y-109752380D02*
X108725000Y-109276190D01*
X108963095Y-109752380D02*
X108963095Y-108752380D01*
X108582142Y-108752380D01*
X108486904Y-108800000D01*
X108439285Y-108847619D01*
X108391666Y-108942857D01*
X108391666Y-109085714D01*
X108439285Y-109180952D01*
X108486904Y-109228571D01*
X108582142Y-109276190D01*
X108963095Y-109276190D01*
X107439285Y-109752380D02*
X108010714Y-109752380D01*
X107725000Y-109752380D02*
X107725000Y-108752380D01*
X107820238Y-108895238D01*
X107915476Y-108990476D01*
X108010714Y-109038095D01*
X120766666Y-102352380D02*
X121100000Y-101876190D01*
X121338095Y-102352380D02*
X121338095Y-101352380D01*
X120957142Y-101352380D01*
X120861904Y-101400000D01*
X120814285Y-101447619D01*
X120766666Y-101542857D01*
X120766666Y-101685714D01*
X120814285Y-101780952D01*
X120861904Y-101828571D01*
X120957142Y-101876190D01*
X121338095Y-101876190D01*
X120385714Y-101447619D02*
X120338095Y-101400000D01*
X120242857Y-101352380D01*
X120004761Y-101352380D01*
X119909523Y-101400000D01*
X119861904Y-101447619D01*
X119814285Y-101542857D01*
X119814285Y-101638095D01*
X119861904Y-101780952D01*
X120433333Y-102352380D01*
X119814285Y-102352380D01*
X131866666Y-112602380D02*
X132200000Y-112126190D01*
X132438095Y-112602380D02*
X132438095Y-111602380D01*
X132057142Y-111602380D01*
X131961904Y-111650000D01*
X131914285Y-111697619D01*
X131866666Y-111792857D01*
X131866666Y-111935714D01*
X131914285Y-112030952D01*
X131961904Y-112078571D01*
X132057142Y-112126190D01*
X132438095Y-112126190D01*
X131533333Y-111602380D02*
X130914285Y-111602380D01*
X131247619Y-111983333D01*
X131104761Y-111983333D01*
X131009523Y-112030952D01*
X130961904Y-112078571D01*
X130914285Y-112173809D01*
X130914285Y-112411904D01*
X130961904Y-112507142D01*
X131009523Y-112554761D01*
X131104761Y-112602380D01*
X131390476Y-112602380D01*
X131485714Y-112554761D01*
X131533333Y-112507142D01*
M02*
