G04 #@! TF.GenerationSoftware,KiCad,Pcbnew,5.1.5+dfsg1-2build2*
G04 #@! TF.CreationDate,2022-07-16T15:57:28-04:00*
G04 #@! TF.ProjectId,coco2_3134_64k_static_ram_board,636f636f-325f-4333-9133-345f36346b5f,rev?*
G04 #@! TF.SameCoordinates,Original*
G04 #@! TF.FileFunction,Copper,L2,Bot*
G04 #@! TF.FilePolarity,Positive*
%FSLAX46Y46*%
G04 Gerber Fmt 4.6, Leading zero omitted, Abs format (unit mm)*
G04 Created by KiCad (PCBNEW 5.1.5+dfsg1-2build2) date 2022-07-16 15:57:28*
%MOMM*%
%LPD*%
G04 APERTURE LIST*
%ADD10C,0.100000*%
%ADD11R,0.600000X1.600000*%
%ADD12R,1.700000X1.700000*%
%ADD13O,1.700000X1.700000*%
%ADD14C,0.800000*%
%ADD15C,1.600000*%
%ADD16C,0.250000*%
%ADD17C,1.000000*%
%ADD18C,0.254000*%
G04 APERTURE END LIST*
G04 #@! TA.AperFunction,SMDPad,CuDef*
D10*
G36*
X110101802Y-107805482D02*
G01*
X110111509Y-107806921D01*
X110121028Y-107809306D01*
X110130268Y-107812612D01*
X110139140Y-107816808D01*
X110147557Y-107821853D01*
X110155439Y-107827699D01*
X110162711Y-107834289D01*
X110169301Y-107841561D01*
X110175147Y-107849443D01*
X110180192Y-107857860D01*
X110184388Y-107866732D01*
X110187694Y-107875972D01*
X110190079Y-107885491D01*
X110191518Y-107895198D01*
X110192000Y-107905000D01*
X110192000Y-108105000D01*
X110191518Y-108114802D01*
X110190079Y-108124509D01*
X110187694Y-108134028D01*
X110184388Y-108143268D01*
X110180192Y-108152140D01*
X110175147Y-108160557D01*
X110169301Y-108168439D01*
X110162711Y-108175711D01*
X110155439Y-108182301D01*
X110147557Y-108188147D01*
X110139140Y-108193192D01*
X110130268Y-108197388D01*
X110121028Y-108200694D01*
X110111509Y-108203079D01*
X110101802Y-108204518D01*
X110092000Y-108205000D01*
X108817000Y-108205000D01*
X108807198Y-108204518D01*
X108797491Y-108203079D01*
X108787972Y-108200694D01*
X108778732Y-108197388D01*
X108769860Y-108193192D01*
X108761443Y-108188147D01*
X108753561Y-108182301D01*
X108746289Y-108175711D01*
X108739699Y-108168439D01*
X108733853Y-108160557D01*
X108728808Y-108152140D01*
X108724612Y-108143268D01*
X108721306Y-108134028D01*
X108718921Y-108124509D01*
X108717482Y-108114802D01*
X108717000Y-108105000D01*
X108717000Y-107905000D01*
X108717482Y-107895198D01*
X108718921Y-107885491D01*
X108721306Y-107875972D01*
X108724612Y-107866732D01*
X108728808Y-107857860D01*
X108733853Y-107849443D01*
X108739699Y-107841561D01*
X108746289Y-107834289D01*
X108753561Y-107827699D01*
X108761443Y-107821853D01*
X108769860Y-107816808D01*
X108778732Y-107812612D01*
X108787972Y-107809306D01*
X108797491Y-107806921D01*
X108807198Y-107805482D01*
X108817000Y-107805000D01*
X110092000Y-107805000D01*
X110101802Y-107805482D01*
G37*
G04 #@! TD.AperFunction*
G04 #@! TA.AperFunction,SMDPad,CuDef*
G36*
X110101802Y-107155482D02*
G01*
X110111509Y-107156921D01*
X110121028Y-107159306D01*
X110130268Y-107162612D01*
X110139140Y-107166808D01*
X110147557Y-107171853D01*
X110155439Y-107177699D01*
X110162711Y-107184289D01*
X110169301Y-107191561D01*
X110175147Y-107199443D01*
X110180192Y-107207860D01*
X110184388Y-107216732D01*
X110187694Y-107225972D01*
X110190079Y-107235491D01*
X110191518Y-107245198D01*
X110192000Y-107255000D01*
X110192000Y-107455000D01*
X110191518Y-107464802D01*
X110190079Y-107474509D01*
X110187694Y-107484028D01*
X110184388Y-107493268D01*
X110180192Y-107502140D01*
X110175147Y-107510557D01*
X110169301Y-107518439D01*
X110162711Y-107525711D01*
X110155439Y-107532301D01*
X110147557Y-107538147D01*
X110139140Y-107543192D01*
X110130268Y-107547388D01*
X110121028Y-107550694D01*
X110111509Y-107553079D01*
X110101802Y-107554518D01*
X110092000Y-107555000D01*
X108817000Y-107555000D01*
X108807198Y-107554518D01*
X108797491Y-107553079D01*
X108787972Y-107550694D01*
X108778732Y-107547388D01*
X108769860Y-107543192D01*
X108761443Y-107538147D01*
X108753561Y-107532301D01*
X108746289Y-107525711D01*
X108739699Y-107518439D01*
X108733853Y-107510557D01*
X108728808Y-107502140D01*
X108724612Y-107493268D01*
X108721306Y-107484028D01*
X108718921Y-107474509D01*
X108717482Y-107464802D01*
X108717000Y-107455000D01*
X108717000Y-107255000D01*
X108717482Y-107245198D01*
X108718921Y-107235491D01*
X108721306Y-107225972D01*
X108724612Y-107216732D01*
X108728808Y-107207860D01*
X108733853Y-107199443D01*
X108739699Y-107191561D01*
X108746289Y-107184289D01*
X108753561Y-107177699D01*
X108761443Y-107171853D01*
X108769860Y-107166808D01*
X108778732Y-107162612D01*
X108787972Y-107159306D01*
X108797491Y-107156921D01*
X108807198Y-107155482D01*
X108817000Y-107155000D01*
X110092000Y-107155000D01*
X110101802Y-107155482D01*
G37*
G04 #@! TD.AperFunction*
G04 #@! TA.AperFunction,SMDPad,CuDef*
G36*
X110101802Y-106505482D02*
G01*
X110111509Y-106506921D01*
X110121028Y-106509306D01*
X110130268Y-106512612D01*
X110139140Y-106516808D01*
X110147557Y-106521853D01*
X110155439Y-106527699D01*
X110162711Y-106534289D01*
X110169301Y-106541561D01*
X110175147Y-106549443D01*
X110180192Y-106557860D01*
X110184388Y-106566732D01*
X110187694Y-106575972D01*
X110190079Y-106585491D01*
X110191518Y-106595198D01*
X110192000Y-106605000D01*
X110192000Y-106805000D01*
X110191518Y-106814802D01*
X110190079Y-106824509D01*
X110187694Y-106834028D01*
X110184388Y-106843268D01*
X110180192Y-106852140D01*
X110175147Y-106860557D01*
X110169301Y-106868439D01*
X110162711Y-106875711D01*
X110155439Y-106882301D01*
X110147557Y-106888147D01*
X110139140Y-106893192D01*
X110130268Y-106897388D01*
X110121028Y-106900694D01*
X110111509Y-106903079D01*
X110101802Y-106904518D01*
X110092000Y-106905000D01*
X108817000Y-106905000D01*
X108807198Y-106904518D01*
X108797491Y-106903079D01*
X108787972Y-106900694D01*
X108778732Y-106897388D01*
X108769860Y-106893192D01*
X108761443Y-106888147D01*
X108753561Y-106882301D01*
X108746289Y-106875711D01*
X108739699Y-106868439D01*
X108733853Y-106860557D01*
X108728808Y-106852140D01*
X108724612Y-106843268D01*
X108721306Y-106834028D01*
X108718921Y-106824509D01*
X108717482Y-106814802D01*
X108717000Y-106805000D01*
X108717000Y-106605000D01*
X108717482Y-106595198D01*
X108718921Y-106585491D01*
X108721306Y-106575972D01*
X108724612Y-106566732D01*
X108728808Y-106557860D01*
X108733853Y-106549443D01*
X108739699Y-106541561D01*
X108746289Y-106534289D01*
X108753561Y-106527699D01*
X108761443Y-106521853D01*
X108769860Y-106516808D01*
X108778732Y-106512612D01*
X108787972Y-106509306D01*
X108797491Y-106506921D01*
X108807198Y-106505482D01*
X108817000Y-106505000D01*
X110092000Y-106505000D01*
X110101802Y-106505482D01*
G37*
G04 #@! TD.AperFunction*
G04 #@! TA.AperFunction,SMDPad,CuDef*
G36*
X110101802Y-105855482D02*
G01*
X110111509Y-105856921D01*
X110121028Y-105859306D01*
X110130268Y-105862612D01*
X110139140Y-105866808D01*
X110147557Y-105871853D01*
X110155439Y-105877699D01*
X110162711Y-105884289D01*
X110169301Y-105891561D01*
X110175147Y-105899443D01*
X110180192Y-105907860D01*
X110184388Y-105916732D01*
X110187694Y-105925972D01*
X110190079Y-105935491D01*
X110191518Y-105945198D01*
X110192000Y-105955000D01*
X110192000Y-106155000D01*
X110191518Y-106164802D01*
X110190079Y-106174509D01*
X110187694Y-106184028D01*
X110184388Y-106193268D01*
X110180192Y-106202140D01*
X110175147Y-106210557D01*
X110169301Y-106218439D01*
X110162711Y-106225711D01*
X110155439Y-106232301D01*
X110147557Y-106238147D01*
X110139140Y-106243192D01*
X110130268Y-106247388D01*
X110121028Y-106250694D01*
X110111509Y-106253079D01*
X110101802Y-106254518D01*
X110092000Y-106255000D01*
X108817000Y-106255000D01*
X108807198Y-106254518D01*
X108797491Y-106253079D01*
X108787972Y-106250694D01*
X108778732Y-106247388D01*
X108769860Y-106243192D01*
X108761443Y-106238147D01*
X108753561Y-106232301D01*
X108746289Y-106225711D01*
X108739699Y-106218439D01*
X108733853Y-106210557D01*
X108728808Y-106202140D01*
X108724612Y-106193268D01*
X108721306Y-106184028D01*
X108718921Y-106174509D01*
X108717482Y-106164802D01*
X108717000Y-106155000D01*
X108717000Y-105955000D01*
X108717482Y-105945198D01*
X108718921Y-105935491D01*
X108721306Y-105925972D01*
X108724612Y-105916732D01*
X108728808Y-105907860D01*
X108733853Y-105899443D01*
X108739699Y-105891561D01*
X108746289Y-105884289D01*
X108753561Y-105877699D01*
X108761443Y-105871853D01*
X108769860Y-105866808D01*
X108778732Y-105862612D01*
X108787972Y-105859306D01*
X108797491Y-105856921D01*
X108807198Y-105855482D01*
X108817000Y-105855000D01*
X110092000Y-105855000D01*
X110101802Y-105855482D01*
G37*
G04 #@! TD.AperFunction*
G04 #@! TA.AperFunction,SMDPad,CuDef*
G36*
X110101802Y-105205482D02*
G01*
X110111509Y-105206921D01*
X110121028Y-105209306D01*
X110130268Y-105212612D01*
X110139140Y-105216808D01*
X110147557Y-105221853D01*
X110155439Y-105227699D01*
X110162711Y-105234289D01*
X110169301Y-105241561D01*
X110175147Y-105249443D01*
X110180192Y-105257860D01*
X110184388Y-105266732D01*
X110187694Y-105275972D01*
X110190079Y-105285491D01*
X110191518Y-105295198D01*
X110192000Y-105305000D01*
X110192000Y-105505000D01*
X110191518Y-105514802D01*
X110190079Y-105524509D01*
X110187694Y-105534028D01*
X110184388Y-105543268D01*
X110180192Y-105552140D01*
X110175147Y-105560557D01*
X110169301Y-105568439D01*
X110162711Y-105575711D01*
X110155439Y-105582301D01*
X110147557Y-105588147D01*
X110139140Y-105593192D01*
X110130268Y-105597388D01*
X110121028Y-105600694D01*
X110111509Y-105603079D01*
X110101802Y-105604518D01*
X110092000Y-105605000D01*
X108817000Y-105605000D01*
X108807198Y-105604518D01*
X108797491Y-105603079D01*
X108787972Y-105600694D01*
X108778732Y-105597388D01*
X108769860Y-105593192D01*
X108761443Y-105588147D01*
X108753561Y-105582301D01*
X108746289Y-105575711D01*
X108739699Y-105568439D01*
X108733853Y-105560557D01*
X108728808Y-105552140D01*
X108724612Y-105543268D01*
X108721306Y-105534028D01*
X108718921Y-105524509D01*
X108717482Y-105514802D01*
X108717000Y-105505000D01*
X108717000Y-105305000D01*
X108717482Y-105295198D01*
X108718921Y-105285491D01*
X108721306Y-105275972D01*
X108724612Y-105266732D01*
X108728808Y-105257860D01*
X108733853Y-105249443D01*
X108739699Y-105241561D01*
X108746289Y-105234289D01*
X108753561Y-105227699D01*
X108761443Y-105221853D01*
X108769860Y-105216808D01*
X108778732Y-105212612D01*
X108787972Y-105209306D01*
X108797491Y-105206921D01*
X108807198Y-105205482D01*
X108817000Y-105205000D01*
X110092000Y-105205000D01*
X110101802Y-105205482D01*
G37*
G04 #@! TD.AperFunction*
G04 #@! TA.AperFunction,SMDPad,CuDef*
G36*
X110101802Y-104555482D02*
G01*
X110111509Y-104556921D01*
X110121028Y-104559306D01*
X110130268Y-104562612D01*
X110139140Y-104566808D01*
X110147557Y-104571853D01*
X110155439Y-104577699D01*
X110162711Y-104584289D01*
X110169301Y-104591561D01*
X110175147Y-104599443D01*
X110180192Y-104607860D01*
X110184388Y-104616732D01*
X110187694Y-104625972D01*
X110190079Y-104635491D01*
X110191518Y-104645198D01*
X110192000Y-104655000D01*
X110192000Y-104855000D01*
X110191518Y-104864802D01*
X110190079Y-104874509D01*
X110187694Y-104884028D01*
X110184388Y-104893268D01*
X110180192Y-104902140D01*
X110175147Y-104910557D01*
X110169301Y-104918439D01*
X110162711Y-104925711D01*
X110155439Y-104932301D01*
X110147557Y-104938147D01*
X110139140Y-104943192D01*
X110130268Y-104947388D01*
X110121028Y-104950694D01*
X110111509Y-104953079D01*
X110101802Y-104954518D01*
X110092000Y-104955000D01*
X108817000Y-104955000D01*
X108807198Y-104954518D01*
X108797491Y-104953079D01*
X108787972Y-104950694D01*
X108778732Y-104947388D01*
X108769860Y-104943192D01*
X108761443Y-104938147D01*
X108753561Y-104932301D01*
X108746289Y-104925711D01*
X108739699Y-104918439D01*
X108733853Y-104910557D01*
X108728808Y-104902140D01*
X108724612Y-104893268D01*
X108721306Y-104884028D01*
X108718921Y-104874509D01*
X108717482Y-104864802D01*
X108717000Y-104855000D01*
X108717000Y-104655000D01*
X108717482Y-104645198D01*
X108718921Y-104635491D01*
X108721306Y-104625972D01*
X108724612Y-104616732D01*
X108728808Y-104607860D01*
X108733853Y-104599443D01*
X108739699Y-104591561D01*
X108746289Y-104584289D01*
X108753561Y-104577699D01*
X108761443Y-104571853D01*
X108769860Y-104566808D01*
X108778732Y-104562612D01*
X108787972Y-104559306D01*
X108797491Y-104556921D01*
X108807198Y-104555482D01*
X108817000Y-104555000D01*
X110092000Y-104555000D01*
X110101802Y-104555482D01*
G37*
G04 #@! TD.AperFunction*
G04 #@! TA.AperFunction,SMDPad,CuDef*
G36*
X110101802Y-103905482D02*
G01*
X110111509Y-103906921D01*
X110121028Y-103909306D01*
X110130268Y-103912612D01*
X110139140Y-103916808D01*
X110147557Y-103921853D01*
X110155439Y-103927699D01*
X110162711Y-103934289D01*
X110169301Y-103941561D01*
X110175147Y-103949443D01*
X110180192Y-103957860D01*
X110184388Y-103966732D01*
X110187694Y-103975972D01*
X110190079Y-103985491D01*
X110191518Y-103995198D01*
X110192000Y-104005000D01*
X110192000Y-104205000D01*
X110191518Y-104214802D01*
X110190079Y-104224509D01*
X110187694Y-104234028D01*
X110184388Y-104243268D01*
X110180192Y-104252140D01*
X110175147Y-104260557D01*
X110169301Y-104268439D01*
X110162711Y-104275711D01*
X110155439Y-104282301D01*
X110147557Y-104288147D01*
X110139140Y-104293192D01*
X110130268Y-104297388D01*
X110121028Y-104300694D01*
X110111509Y-104303079D01*
X110101802Y-104304518D01*
X110092000Y-104305000D01*
X108817000Y-104305000D01*
X108807198Y-104304518D01*
X108797491Y-104303079D01*
X108787972Y-104300694D01*
X108778732Y-104297388D01*
X108769860Y-104293192D01*
X108761443Y-104288147D01*
X108753561Y-104282301D01*
X108746289Y-104275711D01*
X108739699Y-104268439D01*
X108733853Y-104260557D01*
X108728808Y-104252140D01*
X108724612Y-104243268D01*
X108721306Y-104234028D01*
X108718921Y-104224509D01*
X108717482Y-104214802D01*
X108717000Y-104205000D01*
X108717000Y-104005000D01*
X108717482Y-103995198D01*
X108718921Y-103985491D01*
X108721306Y-103975972D01*
X108724612Y-103966732D01*
X108728808Y-103957860D01*
X108733853Y-103949443D01*
X108739699Y-103941561D01*
X108746289Y-103934289D01*
X108753561Y-103927699D01*
X108761443Y-103921853D01*
X108769860Y-103916808D01*
X108778732Y-103912612D01*
X108787972Y-103909306D01*
X108797491Y-103906921D01*
X108807198Y-103905482D01*
X108817000Y-103905000D01*
X110092000Y-103905000D01*
X110101802Y-103905482D01*
G37*
G04 #@! TD.AperFunction*
G04 #@! TA.AperFunction,SMDPad,CuDef*
G36*
X110101802Y-103255482D02*
G01*
X110111509Y-103256921D01*
X110121028Y-103259306D01*
X110130268Y-103262612D01*
X110139140Y-103266808D01*
X110147557Y-103271853D01*
X110155439Y-103277699D01*
X110162711Y-103284289D01*
X110169301Y-103291561D01*
X110175147Y-103299443D01*
X110180192Y-103307860D01*
X110184388Y-103316732D01*
X110187694Y-103325972D01*
X110190079Y-103335491D01*
X110191518Y-103345198D01*
X110192000Y-103355000D01*
X110192000Y-103555000D01*
X110191518Y-103564802D01*
X110190079Y-103574509D01*
X110187694Y-103584028D01*
X110184388Y-103593268D01*
X110180192Y-103602140D01*
X110175147Y-103610557D01*
X110169301Y-103618439D01*
X110162711Y-103625711D01*
X110155439Y-103632301D01*
X110147557Y-103638147D01*
X110139140Y-103643192D01*
X110130268Y-103647388D01*
X110121028Y-103650694D01*
X110111509Y-103653079D01*
X110101802Y-103654518D01*
X110092000Y-103655000D01*
X108817000Y-103655000D01*
X108807198Y-103654518D01*
X108797491Y-103653079D01*
X108787972Y-103650694D01*
X108778732Y-103647388D01*
X108769860Y-103643192D01*
X108761443Y-103638147D01*
X108753561Y-103632301D01*
X108746289Y-103625711D01*
X108739699Y-103618439D01*
X108733853Y-103610557D01*
X108728808Y-103602140D01*
X108724612Y-103593268D01*
X108721306Y-103584028D01*
X108718921Y-103574509D01*
X108717482Y-103564802D01*
X108717000Y-103555000D01*
X108717000Y-103355000D01*
X108717482Y-103345198D01*
X108718921Y-103335491D01*
X108721306Y-103325972D01*
X108724612Y-103316732D01*
X108728808Y-103307860D01*
X108733853Y-103299443D01*
X108739699Y-103291561D01*
X108746289Y-103284289D01*
X108753561Y-103277699D01*
X108761443Y-103271853D01*
X108769860Y-103266808D01*
X108778732Y-103262612D01*
X108787972Y-103259306D01*
X108797491Y-103256921D01*
X108807198Y-103255482D01*
X108817000Y-103255000D01*
X110092000Y-103255000D01*
X110101802Y-103255482D01*
G37*
G04 #@! TD.AperFunction*
G04 #@! TA.AperFunction,SMDPad,CuDef*
G36*
X110101802Y-102605482D02*
G01*
X110111509Y-102606921D01*
X110121028Y-102609306D01*
X110130268Y-102612612D01*
X110139140Y-102616808D01*
X110147557Y-102621853D01*
X110155439Y-102627699D01*
X110162711Y-102634289D01*
X110169301Y-102641561D01*
X110175147Y-102649443D01*
X110180192Y-102657860D01*
X110184388Y-102666732D01*
X110187694Y-102675972D01*
X110190079Y-102685491D01*
X110191518Y-102695198D01*
X110192000Y-102705000D01*
X110192000Y-102905000D01*
X110191518Y-102914802D01*
X110190079Y-102924509D01*
X110187694Y-102934028D01*
X110184388Y-102943268D01*
X110180192Y-102952140D01*
X110175147Y-102960557D01*
X110169301Y-102968439D01*
X110162711Y-102975711D01*
X110155439Y-102982301D01*
X110147557Y-102988147D01*
X110139140Y-102993192D01*
X110130268Y-102997388D01*
X110121028Y-103000694D01*
X110111509Y-103003079D01*
X110101802Y-103004518D01*
X110092000Y-103005000D01*
X108817000Y-103005000D01*
X108807198Y-103004518D01*
X108797491Y-103003079D01*
X108787972Y-103000694D01*
X108778732Y-102997388D01*
X108769860Y-102993192D01*
X108761443Y-102988147D01*
X108753561Y-102982301D01*
X108746289Y-102975711D01*
X108739699Y-102968439D01*
X108733853Y-102960557D01*
X108728808Y-102952140D01*
X108724612Y-102943268D01*
X108721306Y-102934028D01*
X108718921Y-102924509D01*
X108717482Y-102914802D01*
X108717000Y-102905000D01*
X108717000Y-102705000D01*
X108717482Y-102695198D01*
X108718921Y-102685491D01*
X108721306Y-102675972D01*
X108724612Y-102666732D01*
X108728808Y-102657860D01*
X108733853Y-102649443D01*
X108739699Y-102641561D01*
X108746289Y-102634289D01*
X108753561Y-102627699D01*
X108761443Y-102621853D01*
X108769860Y-102616808D01*
X108778732Y-102612612D01*
X108787972Y-102609306D01*
X108797491Y-102606921D01*
X108807198Y-102605482D01*
X108817000Y-102605000D01*
X110092000Y-102605000D01*
X110101802Y-102605482D01*
G37*
G04 #@! TD.AperFunction*
G04 #@! TA.AperFunction,SMDPad,CuDef*
G36*
X110101802Y-101955482D02*
G01*
X110111509Y-101956921D01*
X110121028Y-101959306D01*
X110130268Y-101962612D01*
X110139140Y-101966808D01*
X110147557Y-101971853D01*
X110155439Y-101977699D01*
X110162711Y-101984289D01*
X110169301Y-101991561D01*
X110175147Y-101999443D01*
X110180192Y-102007860D01*
X110184388Y-102016732D01*
X110187694Y-102025972D01*
X110190079Y-102035491D01*
X110191518Y-102045198D01*
X110192000Y-102055000D01*
X110192000Y-102255000D01*
X110191518Y-102264802D01*
X110190079Y-102274509D01*
X110187694Y-102284028D01*
X110184388Y-102293268D01*
X110180192Y-102302140D01*
X110175147Y-102310557D01*
X110169301Y-102318439D01*
X110162711Y-102325711D01*
X110155439Y-102332301D01*
X110147557Y-102338147D01*
X110139140Y-102343192D01*
X110130268Y-102347388D01*
X110121028Y-102350694D01*
X110111509Y-102353079D01*
X110101802Y-102354518D01*
X110092000Y-102355000D01*
X108817000Y-102355000D01*
X108807198Y-102354518D01*
X108797491Y-102353079D01*
X108787972Y-102350694D01*
X108778732Y-102347388D01*
X108769860Y-102343192D01*
X108761443Y-102338147D01*
X108753561Y-102332301D01*
X108746289Y-102325711D01*
X108739699Y-102318439D01*
X108733853Y-102310557D01*
X108728808Y-102302140D01*
X108724612Y-102293268D01*
X108721306Y-102284028D01*
X108718921Y-102274509D01*
X108717482Y-102264802D01*
X108717000Y-102255000D01*
X108717000Y-102055000D01*
X108717482Y-102045198D01*
X108718921Y-102035491D01*
X108721306Y-102025972D01*
X108724612Y-102016732D01*
X108728808Y-102007860D01*
X108733853Y-101999443D01*
X108739699Y-101991561D01*
X108746289Y-101984289D01*
X108753561Y-101977699D01*
X108761443Y-101971853D01*
X108769860Y-101966808D01*
X108778732Y-101962612D01*
X108787972Y-101959306D01*
X108797491Y-101956921D01*
X108807198Y-101955482D01*
X108817000Y-101955000D01*
X110092000Y-101955000D01*
X110101802Y-101955482D01*
G37*
G04 #@! TD.AperFunction*
G04 #@! TA.AperFunction,SMDPad,CuDef*
G36*
X115826802Y-101955482D02*
G01*
X115836509Y-101956921D01*
X115846028Y-101959306D01*
X115855268Y-101962612D01*
X115864140Y-101966808D01*
X115872557Y-101971853D01*
X115880439Y-101977699D01*
X115887711Y-101984289D01*
X115894301Y-101991561D01*
X115900147Y-101999443D01*
X115905192Y-102007860D01*
X115909388Y-102016732D01*
X115912694Y-102025972D01*
X115915079Y-102035491D01*
X115916518Y-102045198D01*
X115917000Y-102055000D01*
X115917000Y-102255000D01*
X115916518Y-102264802D01*
X115915079Y-102274509D01*
X115912694Y-102284028D01*
X115909388Y-102293268D01*
X115905192Y-102302140D01*
X115900147Y-102310557D01*
X115894301Y-102318439D01*
X115887711Y-102325711D01*
X115880439Y-102332301D01*
X115872557Y-102338147D01*
X115864140Y-102343192D01*
X115855268Y-102347388D01*
X115846028Y-102350694D01*
X115836509Y-102353079D01*
X115826802Y-102354518D01*
X115817000Y-102355000D01*
X114542000Y-102355000D01*
X114532198Y-102354518D01*
X114522491Y-102353079D01*
X114512972Y-102350694D01*
X114503732Y-102347388D01*
X114494860Y-102343192D01*
X114486443Y-102338147D01*
X114478561Y-102332301D01*
X114471289Y-102325711D01*
X114464699Y-102318439D01*
X114458853Y-102310557D01*
X114453808Y-102302140D01*
X114449612Y-102293268D01*
X114446306Y-102284028D01*
X114443921Y-102274509D01*
X114442482Y-102264802D01*
X114442000Y-102255000D01*
X114442000Y-102055000D01*
X114442482Y-102045198D01*
X114443921Y-102035491D01*
X114446306Y-102025972D01*
X114449612Y-102016732D01*
X114453808Y-102007860D01*
X114458853Y-101999443D01*
X114464699Y-101991561D01*
X114471289Y-101984289D01*
X114478561Y-101977699D01*
X114486443Y-101971853D01*
X114494860Y-101966808D01*
X114503732Y-101962612D01*
X114512972Y-101959306D01*
X114522491Y-101956921D01*
X114532198Y-101955482D01*
X114542000Y-101955000D01*
X115817000Y-101955000D01*
X115826802Y-101955482D01*
G37*
G04 #@! TD.AperFunction*
G04 #@! TA.AperFunction,SMDPad,CuDef*
G36*
X115826802Y-102605482D02*
G01*
X115836509Y-102606921D01*
X115846028Y-102609306D01*
X115855268Y-102612612D01*
X115864140Y-102616808D01*
X115872557Y-102621853D01*
X115880439Y-102627699D01*
X115887711Y-102634289D01*
X115894301Y-102641561D01*
X115900147Y-102649443D01*
X115905192Y-102657860D01*
X115909388Y-102666732D01*
X115912694Y-102675972D01*
X115915079Y-102685491D01*
X115916518Y-102695198D01*
X115917000Y-102705000D01*
X115917000Y-102905000D01*
X115916518Y-102914802D01*
X115915079Y-102924509D01*
X115912694Y-102934028D01*
X115909388Y-102943268D01*
X115905192Y-102952140D01*
X115900147Y-102960557D01*
X115894301Y-102968439D01*
X115887711Y-102975711D01*
X115880439Y-102982301D01*
X115872557Y-102988147D01*
X115864140Y-102993192D01*
X115855268Y-102997388D01*
X115846028Y-103000694D01*
X115836509Y-103003079D01*
X115826802Y-103004518D01*
X115817000Y-103005000D01*
X114542000Y-103005000D01*
X114532198Y-103004518D01*
X114522491Y-103003079D01*
X114512972Y-103000694D01*
X114503732Y-102997388D01*
X114494860Y-102993192D01*
X114486443Y-102988147D01*
X114478561Y-102982301D01*
X114471289Y-102975711D01*
X114464699Y-102968439D01*
X114458853Y-102960557D01*
X114453808Y-102952140D01*
X114449612Y-102943268D01*
X114446306Y-102934028D01*
X114443921Y-102924509D01*
X114442482Y-102914802D01*
X114442000Y-102905000D01*
X114442000Y-102705000D01*
X114442482Y-102695198D01*
X114443921Y-102685491D01*
X114446306Y-102675972D01*
X114449612Y-102666732D01*
X114453808Y-102657860D01*
X114458853Y-102649443D01*
X114464699Y-102641561D01*
X114471289Y-102634289D01*
X114478561Y-102627699D01*
X114486443Y-102621853D01*
X114494860Y-102616808D01*
X114503732Y-102612612D01*
X114512972Y-102609306D01*
X114522491Y-102606921D01*
X114532198Y-102605482D01*
X114542000Y-102605000D01*
X115817000Y-102605000D01*
X115826802Y-102605482D01*
G37*
G04 #@! TD.AperFunction*
G04 #@! TA.AperFunction,SMDPad,CuDef*
G36*
X115826802Y-103255482D02*
G01*
X115836509Y-103256921D01*
X115846028Y-103259306D01*
X115855268Y-103262612D01*
X115864140Y-103266808D01*
X115872557Y-103271853D01*
X115880439Y-103277699D01*
X115887711Y-103284289D01*
X115894301Y-103291561D01*
X115900147Y-103299443D01*
X115905192Y-103307860D01*
X115909388Y-103316732D01*
X115912694Y-103325972D01*
X115915079Y-103335491D01*
X115916518Y-103345198D01*
X115917000Y-103355000D01*
X115917000Y-103555000D01*
X115916518Y-103564802D01*
X115915079Y-103574509D01*
X115912694Y-103584028D01*
X115909388Y-103593268D01*
X115905192Y-103602140D01*
X115900147Y-103610557D01*
X115894301Y-103618439D01*
X115887711Y-103625711D01*
X115880439Y-103632301D01*
X115872557Y-103638147D01*
X115864140Y-103643192D01*
X115855268Y-103647388D01*
X115846028Y-103650694D01*
X115836509Y-103653079D01*
X115826802Y-103654518D01*
X115817000Y-103655000D01*
X114542000Y-103655000D01*
X114532198Y-103654518D01*
X114522491Y-103653079D01*
X114512972Y-103650694D01*
X114503732Y-103647388D01*
X114494860Y-103643192D01*
X114486443Y-103638147D01*
X114478561Y-103632301D01*
X114471289Y-103625711D01*
X114464699Y-103618439D01*
X114458853Y-103610557D01*
X114453808Y-103602140D01*
X114449612Y-103593268D01*
X114446306Y-103584028D01*
X114443921Y-103574509D01*
X114442482Y-103564802D01*
X114442000Y-103555000D01*
X114442000Y-103355000D01*
X114442482Y-103345198D01*
X114443921Y-103335491D01*
X114446306Y-103325972D01*
X114449612Y-103316732D01*
X114453808Y-103307860D01*
X114458853Y-103299443D01*
X114464699Y-103291561D01*
X114471289Y-103284289D01*
X114478561Y-103277699D01*
X114486443Y-103271853D01*
X114494860Y-103266808D01*
X114503732Y-103262612D01*
X114512972Y-103259306D01*
X114522491Y-103256921D01*
X114532198Y-103255482D01*
X114542000Y-103255000D01*
X115817000Y-103255000D01*
X115826802Y-103255482D01*
G37*
G04 #@! TD.AperFunction*
G04 #@! TA.AperFunction,SMDPad,CuDef*
G36*
X115826802Y-103905482D02*
G01*
X115836509Y-103906921D01*
X115846028Y-103909306D01*
X115855268Y-103912612D01*
X115864140Y-103916808D01*
X115872557Y-103921853D01*
X115880439Y-103927699D01*
X115887711Y-103934289D01*
X115894301Y-103941561D01*
X115900147Y-103949443D01*
X115905192Y-103957860D01*
X115909388Y-103966732D01*
X115912694Y-103975972D01*
X115915079Y-103985491D01*
X115916518Y-103995198D01*
X115917000Y-104005000D01*
X115917000Y-104205000D01*
X115916518Y-104214802D01*
X115915079Y-104224509D01*
X115912694Y-104234028D01*
X115909388Y-104243268D01*
X115905192Y-104252140D01*
X115900147Y-104260557D01*
X115894301Y-104268439D01*
X115887711Y-104275711D01*
X115880439Y-104282301D01*
X115872557Y-104288147D01*
X115864140Y-104293192D01*
X115855268Y-104297388D01*
X115846028Y-104300694D01*
X115836509Y-104303079D01*
X115826802Y-104304518D01*
X115817000Y-104305000D01*
X114542000Y-104305000D01*
X114532198Y-104304518D01*
X114522491Y-104303079D01*
X114512972Y-104300694D01*
X114503732Y-104297388D01*
X114494860Y-104293192D01*
X114486443Y-104288147D01*
X114478561Y-104282301D01*
X114471289Y-104275711D01*
X114464699Y-104268439D01*
X114458853Y-104260557D01*
X114453808Y-104252140D01*
X114449612Y-104243268D01*
X114446306Y-104234028D01*
X114443921Y-104224509D01*
X114442482Y-104214802D01*
X114442000Y-104205000D01*
X114442000Y-104005000D01*
X114442482Y-103995198D01*
X114443921Y-103985491D01*
X114446306Y-103975972D01*
X114449612Y-103966732D01*
X114453808Y-103957860D01*
X114458853Y-103949443D01*
X114464699Y-103941561D01*
X114471289Y-103934289D01*
X114478561Y-103927699D01*
X114486443Y-103921853D01*
X114494860Y-103916808D01*
X114503732Y-103912612D01*
X114512972Y-103909306D01*
X114522491Y-103906921D01*
X114532198Y-103905482D01*
X114542000Y-103905000D01*
X115817000Y-103905000D01*
X115826802Y-103905482D01*
G37*
G04 #@! TD.AperFunction*
G04 #@! TA.AperFunction,SMDPad,CuDef*
G36*
X115826802Y-104555482D02*
G01*
X115836509Y-104556921D01*
X115846028Y-104559306D01*
X115855268Y-104562612D01*
X115864140Y-104566808D01*
X115872557Y-104571853D01*
X115880439Y-104577699D01*
X115887711Y-104584289D01*
X115894301Y-104591561D01*
X115900147Y-104599443D01*
X115905192Y-104607860D01*
X115909388Y-104616732D01*
X115912694Y-104625972D01*
X115915079Y-104635491D01*
X115916518Y-104645198D01*
X115917000Y-104655000D01*
X115917000Y-104855000D01*
X115916518Y-104864802D01*
X115915079Y-104874509D01*
X115912694Y-104884028D01*
X115909388Y-104893268D01*
X115905192Y-104902140D01*
X115900147Y-104910557D01*
X115894301Y-104918439D01*
X115887711Y-104925711D01*
X115880439Y-104932301D01*
X115872557Y-104938147D01*
X115864140Y-104943192D01*
X115855268Y-104947388D01*
X115846028Y-104950694D01*
X115836509Y-104953079D01*
X115826802Y-104954518D01*
X115817000Y-104955000D01*
X114542000Y-104955000D01*
X114532198Y-104954518D01*
X114522491Y-104953079D01*
X114512972Y-104950694D01*
X114503732Y-104947388D01*
X114494860Y-104943192D01*
X114486443Y-104938147D01*
X114478561Y-104932301D01*
X114471289Y-104925711D01*
X114464699Y-104918439D01*
X114458853Y-104910557D01*
X114453808Y-104902140D01*
X114449612Y-104893268D01*
X114446306Y-104884028D01*
X114443921Y-104874509D01*
X114442482Y-104864802D01*
X114442000Y-104855000D01*
X114442000Y-104655000D01*
X114442482Y-104645198D01*
X114443921Y-104635491D01*
X114446306Y-104625972D01*
X114449612Y-104616732D01*
X114453808Y-104607860D01*
X114458853Y-104599443D01*
X114464699Y-104591561D01*
X114471289Y-104584289D01*
X114478561Y-104577699D01*
X114486443Y-104571853D01*
X114494860Y-104566808D01*
X114503732Y-104562612D01*
X114512972Y-104559306D01*
X114522491Y-104556921D01*
X114532198Y-104555482D01*
X114542000Y-104555000D01*
X115817000Y-104555000D01*
X115826802Y-104555482D01*
G37*
G04 #@! TD.AperFunction*
G04 #@! TA.AperFunction,SMDPad,CuDef*
G36*
X115826802Y-105205482D02*
G01*
X115836509Y-105206921D01*
X115846028Y-105209306D01*
X115855268Y-105212612D01*
X115864140Y-105216808D01*
X115872557Y-105221853D01*
X115880439Y-105227699D01*
X115887711Y-105234289D01*
X115894301Y-105241561D01*
X115900147Y-105249443D01*
X115905192Y-105257860D01*
X115909388Y-105266732D01*
X115912694Y-105275972D01*
X115915079Y-105285491D01*
X115916518Y-105295198D01*
X115917000Y-105305000D01*
X115917000Y-105505000D01*
X115916518Y-105514802D01*
X115915079Y-105524509D01*
X115912694Y-105534028D01*
X115909388Y-105543268D01*
X115905192Y-105552140D01*
X115900147Y-105560557D01*
X115894301Y-105568439D01*
X115887711Y-105575711D01*
X115880439Y-105582301D01*
X115872557Y-105588147D01*
X115864140Y-105593192D01*
X115855268Y-105597388D01*
X115846028Y-105600694D01*
X115836509Y-105603079D01*
X115826802Y-105604518D01*
X115817000Y-105605000D01*
X114542000Y-105605000D01*
X114532198Y-105604518D01*
X114522491Y-105603079D01*
X114512972Y-105600694D01*
X114503732Y-105597388D01*
X114494860Y-105593192D01*
X114486443Y-105588147D01*
X114478561Y-105582301D01*
X114471289Y-105575711D01*
X114464699Y-105568439D01*
X114458853Y-105560557D01*
X114453808Y-105552140D01*
X114449612Y-105543268D01*
X114446306Y-105534028D01*
X114443921Y-105524509D01*
X114442482Y-105514802D01*
X114442000Y-105505000D01*
X114442000Y-105305000D01*
X114442482Y-105295198D01*
X114443921Y-105285491D01*
X114446306Y-105275972D01*
X114449612Y-105266732D01*
X114453808Y-105257860D01*
X114458853Y-105249443D01*
X114464699Y-105241561D01*
X114471289Y-105234289D01*
X114478561Y-105227699D01*
X114486443Y-105221853D01*
X114494860Y-105216808D01*
X114503732Y-105212612D01*
X114512972Y-105209306D01*
X114522491Y-105206921D01*
X114532198Y-105205482D01*
X114542000Y-105205000D01*
X115817000Y-105205000D01*
X115826802Y-105205482D01*
G37*
G04 #@! TD.AperFunction*
G04 #@! TA.AperFunction,SMDPad,CuDef*
G36*
X115826802Y-105855482D02*
G01*
X115836509Y-105856921D01*
X115846028Y-105859306D01*
X115855268Y-105862612D01*
X115864140Y-105866808D01*
X115872557Y-105871853D01*
X115880439Y-105877699D01*
X115887711Y-105884289D01*
X115894301Y-105891561D01*
X115900147Y-105899443D01*
X115905192Y-105907860D01*
X115909388Y-105916732D01*
X115912694Y-105925972D01*
X115915079Y-105935491D01*
X115916518Y-105945198D01*
X115917000Y-105955000D01*
X115917000Y-106155000D01*
X115916518Y-106164802D01*
X115915079Y-106174509D01*
X115912694Y-106184028D01*
X115909388Y-106193268D01*
X115905192Y-106202140D01*
X115900147Y-106210557D01*
X115894301Y-106218439D01*
X115887711Y-106225711D01*
X115880439Y-106232301D01*
X115872557Y-106238147D01*
X115864140Y-106243192D01*
X115855268Y-106247388D01*
X115846028Y-106250694D01*
X115836509Y-106253079D01*
X115826802Y-106254518D01*
X115817000Y-106255000D01*
X114542000Y-106255000D01*
X114532198Y-106254518D01*
X114522491Y-106253079D01*
X114512972Y-106250694D01*
X114503732Y-106247388D01*
X114494860Y-106243192D01*
X114486443Y-106238147D01*
X114478561Y-106232301D01*
X114471289Y-106225711D01*
X114464699Y-106218439D01*
X114458853Y-106210557D01*
X114453808Y-106202140D01*
X114449612Y-106193268D01*
X114446306Y-106184028D01*
X114443921Y-106174509D01*
X114442482Y-106164802D01*
X114442000Y-106155000D01*
X114442000Y-105955000D01*
X114442482Y-105945198D01*
X114443921Y-105935491D01*
X114446306Y-105925972D01*
X114449612Y-105916732D01*
X114453808Y-105907860D01*
X114458853Y-105899443D01*
X114464699Y-105891561D01*
X114471289Y-105884289D01*
X114478561Y-105877699D01*
X114486443Y-105871853D01*
X114494860Y-105866808D01*
X114503732Y-105862612D01*
X114512972Y-105859306D01*
X114522491Y-105856921D01*
X114532198Y-105855482D01*
X114542000Y-105855000D01*
X115817000Y-105855000D01*
X115826802Y-105855482D01*
G37*
G04 #@! TD.AperFunction*
G04 #@! TA.AperFunction,SMDPad,CuDef*
G36*
X115826802Y-106505482D02*
G01*
X115836509Y-106506921D01*
X115846028Y-106509306D01*
X115855268Y-106512612D01*
X115864140Y-106516808D01*
X115872557Y-106521853D01*
X115880439Y-106527699D01*
X115887711Y-106534289D01*
X115894301Y-106541561D01*
X115900147Y-106549443D01*
X115905192Y-106557860D01*
X115909388Y-106566732D01*
X115912694Y-106575972D01*
X115915079Y-106585491D01*
X115916518Y-106595198D01*
X115917000Y-106605000D01*
X115917000Y-106805000D01*
X115916518Y-106814802D01*
X115915079Y-106824509D01*
X115912694Y-106834028D01*
X115909388Y-106843268D01*
X115905192Y-106852140D01*
X115900147Y-106860557D01*
X115894301Y-106868439D01*
X115887711Y-106875711D01*
X115880439Y-106882301D01*
X115872557Y-106888147D01*
X115864140Y-106893192D01*
X115855268Y-106897388D01*
X115846028Y-106900694D01*
X115836509Y-106903079D01*
X115826802Y-106904518D01*
X115817000Y-106905000D01*
X114542000Y-106905000D01*
X114532198Y-106904518D01*
X114522491Y-106903079D01*
X114512972Y-106900694D01*
X114503732Y-106897388D01*
X114494860Y-106893192D01*
X114486443Y-106888147D01*
X114478561Y-106882301D01*
X114471289Y-106875711D01*
X114464699Y-106868439D01*
X114458853Y-106860557D01*
X114453808Y-106852140D01*
X114449612Y-106843268D01*
X114446306Y-106834028D01*
X114443921Y-106824509D01*
X114442482Y-106814802D01*
X114442000Y-106805000D01*
X114442000Y-106605000D01*
X114442482Y-106595198D01*
X114443921Y-106585491D01*
X114446306Y-106575972D01*
X114449612Y-106566732D01*
X114453808Y-106557860D01*
X114458853Y-106549443D01*
X114464699Y-106541561D01*
X114471289Y-106534289D01*
X114478561Y-106527699D01*
X114486443Y-106521853D01*
X114494860Y-106516808D01*
X114503732Y-106512612D01*
X114512972Y-106509306D01*
X114522491Y-106506921D01*
X114532198Y-106505482D01*
X114542000Y-106505000D01*
X115817000Y-106505000D01*
X115826802Y-106505482D01*
G37*
G04 #@! TD.AperFunction*
G04 #@! TA.AperFunction,SMDPad,CuDef*
G36*
X115826802Y-107155482D02*
G01*
X115836509Y-107156921D01*
X115846028Y-107159306D01*
X115855268Y-107162612D01*
X115864140Y-107166808D01*
X115872557Y-107171853D01*
X115880439Y-107177699D01*
X115887711Y-107184289D01*
X115894301Y-107191561D01*
X115900147Y-107199443D01*
X115905192Y-107207860D01*
X115909388Y-107216732D01*
X115912694Y-107225972D01*
X115915079Y-107235491D01*
X115916518Y-107245198D01*
X115917000Y-107255000D01*
X115917000Y-107455000D01*
X115916518Y-107464802D01*
X115915079Y-107474509D01*
X115912694Y-107484028D01*
X115909388Y-107493268D01*
X115905192Y-107502140D01*
X115900147Y-107510557D01*
X115894301Y-107518439D01*
X115887711Y-107525711D01*
X115880439Y-107532301D01*
X115872557Y-107538147D01*
X115864140Y-107543192D01*
X115855268Y-107547388D01*
X115846028Y-107550694D01*
X115836509Y-107553079D01*
X115826802Y-107554518D01*
X115817000Y-107555000D01*
X114542000Y-107555000D01*
X114532198Y-107554518D01*
X114522491Y-107553079D01*
X114512972Y-107550694D01*
X114503732Y-107547388D01*
X114494860Y-107543192D01*
X114486443Y-107538147D01*
X114478561Y-107532301D01*
X114471289Y-107525711D01*
X114464699Y-107518439D01*
X114458853Y-107510557D01*
X114453808Y-107502140D01*
X114449612Y-107493268D01*
X114446306Y-107484028D01*
X114443921Y-107474509D01*
X114442482Y-107464802D01*
X114442000Y-107455000D01*
X114442000Y-107255000D01*
X114442482Y-107245198D01*
X114443921Y-107235491D01*
X114446306Y-107225972D01*
X114449612Y-107216732D01*
X114453808Y-107207860D01*
X114458853Y-107199443D01*
X114464699Y-107191561D01*
X114471289Y-107184289D01*
X114478561Y-107177699D01*
X114486443Y-107171853D01*
X114494860Y-107166808D01*
X114503732Y-107162612D01*
X114512972Y-107159306D01*
X114522491Y-107156921D01*
X114532198Y-107155482D01*
X114542000Y-107155000D01*
X115817000Y-107155000D01*
X115826802Y-107155482D01*
G37*
G04 #@! TD.AperFunction*
G04 #@! TA.AperFunction,SMDPad,CuDef*
G36*
X115826802Y-107805482D02*
G01*
X115836509Y-107806921D01*
X115846028Y-107809306D01*
X115855268Y-107812612D01*
X115864140Y-107816808D01*
X115872557Y-107821853D01*
X115880439Y-107827699D01*
X115887711Y-107834289D01*
X115894301Y-107841561D01*
X115900147Y-107849443D01*
X115905192Y-107857860D01*
X115909388Y-107866732D01*
X115912694Y-107875972D01*
X115915079Y-107885491D01*
X115916518Y-107895198D01*
X115917000Y-107905000D01*
X115917000Y-108105000D01*
X115916518Y-108114802D01*
X115915079Y-108124509D01*
X115912694Y-108134028D01*
X115909388Y-108143268D01*
X115905192Y-108152140D01*
X115900147Y-108160557D01*
X115894301Y-108168439D01*
X115887711Y-108175711D01*
X115880439Y-108182301D01*
X115872557Y-108188147D01*
X115864140Y-108193192D01*
X115855268Y-108197388D01*
X115846028Y-108200694D01*
X115836509Y-108203079D01*
X115826802Y-108204518D01*
X115817000Y-108205000D01*
X114542000Y-108205000D01*
X114532198Y-108204518D01*
X114522491Y-108203079D01*
X114512972Y-108200694D01*
X114503732Y-108197388D01*
X114494860Y-108193192D01*
X114486443Y-108188147D01*
X114478561Y-108182301D01*
X114471289Y-108175711D01*
X114464699Y-108168439D01*
X114458853Y-108160557D01*
X114453808Y-108152140D01*
X114449612Y-108143268D01*
X114446306Y-108134028D01*
X114443921Y-108124509D01*
X114442482Y-108114802D01*
X114442000Y-108105000D01*
X114442000Y-107905000D01*
X114442482Y-107895198D01*
X114443921Y-107885491D01*
X114446306Y-107875972D01*
X114449612Y-107866732D01*
X114453808Y-107857860D01*
X114458853Y-107849443D01*
X114464699Y-107841561D01*
X114471289Y-107834289D01*
X114478561Y-107827699D01*
X114486443Y-107821853D01*
X114494860Y-107816808D01*
X114503732Y-107812612D01*
X114512972Y-107809306D01*
X114522491Y-107806921D01*
X114532198Y-107805482D01*
X114542000Y-107805000D01*
X115817000Y-107805000D01*
X115826802Y-107805482D01*
G37*
G04 #@! TD.AperFunction*
D11*
X110475000Y-83900000D03*
X111745000Y-83900000D03*
X113015000Y-83900000D03*
X114285000Y-83900000D03*
X115555000Y-83900000D03*
X116825000Y-83900000D03*
X118095000Y-83900000D03*
X119375000Y-83900000D03*
X120625000Y-83900000D03*
X121905000Y-83900000D03*
X123175000Y-83900000D03*
X124445000Y-83900000D03*
X125715000Y-83900000D03*
X126985000Y-83900000D03*
X128255000Y-83900000D03*
X129525000Y-83900000D03*
X129525000Y-95100000D03*
X128255000Y-95100000D03*
X126985000Y-95100000D03*
X125715000Y-95100000D03*
X124445000Y-95100000D03*
X123175000Y-95100000D03*
X121905000Y-95100000D03*
X120625000Y-95100000D03*
X119375000Y-95100000D03*
X118095000Y-95100000D03*
X116825000Y-95100000D03*
X115555000Y-95100000D03*
X114285000Y-95100000D03*
X113015000Y-95100000D03*
X111745000Y-95100000D03*
X110475000Y-95100000D03*
G04 #@! TA.AperFunction,SMDPad,CuDef*
D10*
G36*
X126197703Y-107510722D02*
G01*
X126212264Y-107512882D01*
X126226543Y-107516459D01*
X126240403Y-107521418D01*
X126253710Y-107527712D01*
X126266336Y-107535280D01*
X126278159Y-107544048D01*
X126289066Y-107553934D01*
X126298952Y-107564841D01*
X126307720Y-107576664D01*
X126315288Y-107589290D01*
X126321582Y-107602597D01*
X126326541Y-107616457D01*
X126330118Y-107630736D01*
X126332278Y-107645297D01*
X126333000Y-107660000D01*
X126333000Y-107960000D01*
X126332278Y-107974703D01*
X126330118Y-107989264D01*
X126326541Y-108003543D01*
X126321582Y-108017403D01*
X126315288Y-108030710D01*
X126307720Y-108043336D01*
X126298952Y-108055159D01*
X126289066Y-108066066D01*
X126278159Y-108075952D01*
X126266336Y-108084720D01*
X126253710Y-108092288D01*
X126240403Y-108098582D01*
X126226543Y-108103541D01*
X126212264Y-108107118D01*
X126197703Y-108109278D01*
X126183000Y-108110000D01*
X124533000Y-108110000D01*
X124518297Y-108109278D01*
X124503736Y-108107118D01*
X124489457Y-108103541D01*
X124475597Y-108098582D01*
X124462290Y-108092288D01*
X124449664Y-108084720D01*
X124437841Y-108075952D01*
X124426934Y-108066066D01*
X124417048Y-108055159D01*
X124408280Y-108043336D01*
X124400712Y-108030710D01*
X124394418Y-108017403D01*
X124389459Y-108003543D01*
X124385882Y-107989264D01*
X124383722Y-107974703D01*
X124383000Y-107960000D01*
X124383000Y-107660000D01*
X124383722Y-107645297D01*
X124385882Y-107630736D01*
X124389459Y-107616457D01*
X124394418Y-107602597D01*
X124400712Y-107589290D01*
X124408280Y-107576664D01*
X124417048Y-107564841D01*
X124426934Y-107553934D01*
X124437841Y-107544048D01*
X124449664Y-107535280D01*
X124462290Y-107527712D01*
X124475597Y-107521418D01*
X124489457Y-107516459D01*
X124503736Y-107512882D01*
X124518297Y-107510722D01*
X124533000Y-107510000D01*
X126183000Y-107510000D01*
X126197703Y-107510722D01*
G37*
G04 #@! TD.AperFunction*
G04 #@! TA.AperFunction,SMDPad,CuDef*
G36*
X126197703Y-106240722D02*
G01*
X126212264Y-106242882D01*
X126226543Y-106246459D01*
X126240403Y-106251418D01*
X126253710Y-106257712D01*
X126266336Y-106265280D01*
X126278159Y-106274048D01*
X126289066Y-106283934D01*
X126298952Y-106294841D01*
X126307720Y-106306664D01*
X126315288Y-106319290D01*
X126321582Y-106332597D01*
X126326541Y-106346457D01*
X126330118Y-106360736D01*
X126332278Y-106375297D01*
X126333000Y-106390000D01*
X126333000Y-106690000D01*
X126332278Y-106704703D01*
X126330118Y-106719264D01*
X126326541Y-106733543D01*
X126321582Y-106747403D01*
X126315288Y-106760710D01*
X126307720Y-106773336D01*
X126298952Y-106785159D01*
X126289066Y-106796066D01*
X126278159Y-106805952D01*
X126266336Y-106814720D01*
X126253710Y-106822288D01*
X126240403Y-106828582D01*
X126226543Y-106833541D01*
X126212264Y-106837118D01*
X126197703Y-106839278D01*
X126183000Y-106840000D01*
X124533000Y-106840000D01*
X124518297Y-106839278D01*
X124503736Y-106837118D01*
X124489457Y-106833541D01*
X124475597Y-106828582D01*
X124462290Y-106822288D01*
X124449664Y-106814720D01*
X124437841Y-106805952D01*
X124426934Y-106796066D01*
X124417048Y-106785159D01*
X124408280Y-106773336D01*
X124400712Y-106760710D01*
X124394418Y-106747403D01*
X124389459Y-106733543D01*
X124385882Y-106719264D01*
X124383722Y-106704703D01*
X124383000Y-106690000D01*
X124383000Y-106390000D01*
X124383722Y-106375297D01*
X124385882Y-106360736D01*
X124389459Y-106346457D01*
X124394418Y-106332597D01*
X124400712Y-106319290D01*
X124408280Y-106306664D01*
X124417048Y-106294841D01*
X124426934Y-106283934D01*
X124437841Y-106274048D01*
X124449664Y-106265280D01*
X124462290Y-106257712D01*
X124475597Y-106251418D01*
X124489457Y-106246459D01*
X124503736Y-106242882D01*
X124518297Y-106240722D01*
X124533000Y-106240000D01*
X126183000Y-106240000D01*
X126197703Y-106240722D01*
G37*
G04 #@! TD.AperFunction*
G04 #@! TA.AperFunction,SMDPad,CuDef*
G36*
X126197703Y-104970722D02*
G01*
X126212264Y-104972882D01*
X126226543Y-104976459D01*
X126240403Y-104981418D01*
X126253710Y-104987712D01*
X126266336Y-104995280D01*
X126278159Y-105004048D01*
X126289066Y-105013934D01*
X126298952Y-105024841D01*
X126307720Y-105036664D01*
X126315288Y-105049290D01*
X126321582Y-105062597D01*
X126326541Y-105076457D01*
X126330118Y-105090736D01*
X126332278Y-105105297D01*
X126333000Y-105120000D01*
X126333000Y-105420000D01*
X126332278Y-105434703D01*
X126330118Y-105449264D01*
X126326541Y-105463543D01*
X126321582Y-105477403D01*
X126315288Y-105490710D01*
X126307720Y-105503336D01*
X126298952Y-105515159D01*
X126289066Y-105526066D01*
X126278159Y-105535952D01*
X126266336Y-105544720D01*
X126253710Y-105552288D01*
X126240403Y-105558582D01*
X126226543Y-105563541D01*
X126212264Y-105567118D01*
X126197703Y-105569278D01*
X126183000Y-105570000D01*
X124533000Y-105570000D01*
X124518297Y-105569278D01*
X124503736Y-105567118D01*
X124489457Y-105563541D01*
X124475597Y-105558582D01*
X124462290Y-105552288D01*
X124449664Y-105544720D01*
X124437841Y-105535952D01*
X124426934Y-105526066D01*
X124417048Y-105515159D01*
X124408280Y-105503336D01*
X124400712Y-105490710D01*
X124394418Y-105477403D01*
X124389459Y-105463543D01*
X124385882Y-105449264D01*
X124383722Y-105434703D01*
X124383000Y-105420000D01*
X124383000Y-105120000D01*
X124383722Y-105105297D01*
X124385882Y-105090736D01*
X124389459Y-105076457D01*
X124394418Y-105062597D01*
X124400712Y-105049290D01*
X124408280Y-105036664D01*
X124417048Y-105024841D01*
X124426934Y-105013934D01*
X124437841Y-105004048D01*
X124449664Y-104995280D01*
X124462290Y-104987712D01*
X124475597Y-104981418D01*
X124489457Y-104976459D01*
X124503736Y-104972882D01*
X124518297Y-104970722D01*
X124533000Y-104970000D01*
X126183000Y-104970000D01*
X126197703Y-104970722D01*
G37*
G04 #@! TD.AperFunction*
G04 #@! TA.AperFunction,SMDPad,CuDef*
G36*
X126197703Y-103700722D02*
G01*
X126212264Y-103702882D01*
X126226543Y-103706459D01*
X126240403Y-103711418D01*
X126253710Y-103717712D01*
X126266336Y-103725280D01*
X126278159Y-103734048D01*
X126289066Y-103743934D01*
X126298952Y-103754841D01*
X126307720Y-103766664D01*
X126315288Y-103779290D01*
X126321582Y-103792597D01*
X126326541Y-103806457D01*
X126330118Y-103820736D01*
X126332278Y-103835297D01*
X126333000Y-103850000D01*
X126333000Y-104150000D01*
X126332278Y-104164703D01*
X126330118Y-104179264D01*
X126326541Y-104193543D01*
X126321582Y-104207403D01*
X126315288Y-104220710D01*
X126307720Y-104233336D01*
X126298952Y-104245159D01*
X126289066Y-104256066D01*
X126278159Y-104265952D01*
X126266336Y-104274720D01*
X126253710Y-104282288D01*
X126240403Y-104288582D01*
X126226543Y-104293541D01*
X126212264Y-104297118D01*
X126197703Y-104299278D01*
X126183000Y-104300000D01*
X124533000Y-104300000D01*
X124518297Y-104299278D01*
X124503736Y-104297118D01*
X124489457Y-104293541D01*
X124475597Y-104288582D01*
X124462290Y-104282288D01*
X124449664Y-104274720D01*
X124437841Y-104265952D01*
X124426934Y-104256066D01*
X124417048Y-104245159D01*
X124408280Y-104233336D01*
X124400712Y-104220710D01*
X124394418Y-104207403D01*
X124389459Y-104193543D01*
X124385882Y-104179264D01*
X124383722Y-104164703D01*
X124383000Y-104150000D01*
X124383000Y-103850000D01*
X124383722Y-103835297D01*
X124385882Y-103820736D01*
X124389459Y-103806457D01*
X124394418Y-103792597D01*
X124400712Y-103779290D01*
X124408280Y-103766664D01*
X124417048Y-103754841D01*
X124426934Y-103743934D01*
X124437841Y-103734048D01*
X124449664Y-103725280D01*
X124462290Y-103717712D01*
X124475597Y-103711418D01*
X124489457Y-103706459D01*
X124503736Y-103702882D01*
X124518297Y-103700722D01*
X124533000Y-103700000D01*
X126183000Y-103700000D01*
X126197703Y-103700722D01*
G37*
G04 #@! TD.AperFunction*
G04 #@! TA.AperFunction,SMDPad,CuDef*
G36*
X126197703Y-102430722D02*
G01*
X126212264Y-102432882D01*
X126226543Y-102436459D01*
X126240403Y-102441418D01*
X126253710Y-102447712D01*
X126266336Y-102455280D01*
X126278159Y-102464048D01*
X126289066Y-102473934D01*
X126298952Y-102484841D01*
X126307720Y-102496664D01*
X126315288Y-102509290D01*
X126321582Y-102522597D01*
X126326541Y-102536457D01*
X126330118Y-102550736D01*
X126332278Y-102565297D01*
X126333000Y-102580000D01*
X126333000Y-102880000D01*
X126332278Y-102894703D01*
X126330118Y-102909264D01*
X126326541Y-102923543D01*
X126321582Y-102937403D01*
X126315288Y-102950710D01*
X126307720Y-102963336D01*
X126298952Y-102975159D01*
X126289066Y-102986066D01*
X126278159Y-102995952D01*
X126266336Y-103004720D01*
X126253710Y-103012288D01*
X126240403Y-103018582D01*
X126226543Y-103023541D01*
X126212264Y-103027118D01*
X126197703Y-103029278D01*
X126183000Y-103030000D01*
X124533000Y-103030000D01*
X124518297Y-103029278D01*
X124503736Y-103027118D01*
X124489457Y-103023541D01*
X124475597Y-103018582D01*
X124462290Y-103012288D01*
X124449664Y-103004720D01*
X124437841Y-102995952D01*
X124426934Y-102986066D01*
X124417048Y-102975159D01*
X124408280Y-102963336D01*
X124400712Y-102950710D01*
X124394418Y-102937403D01*
X124389459Y-102923543D01*
X124385882Y-102909264D01*
X124383722Y-102894703D01*
X124383000Y-102880000D01*
X124383000Y-102580000D01*
X124383722Y-102565297D01*
X124385882Y-102550736D01*
X124389459Y-102536457D01*
X124394418Y-102522597D01*
X124400712Y-102509290D01*
X124408280Y-102496664D01*
X124417048Y-102484841D01*
X124426934Y-102473934D01*
X124437841Y-102464048D01*
X124449664Y-102455280D01*
X124462290Y-102447712D01*
X124475597Y-102441418D01*
X124489457Y-102436459D01*
X124503736Y-102432882D01*
X124518297Y-102430722D01*
X124533000Y-102430000D01*
X126183000Y-102430000D01*
X126197703Y-102430722D01*
G37*
G04 #@! TD.AperFunction*
G04 #@! TA.AperFunction,SMDPad,CuDef*
G36*
X126197703Y-101160722D02*
G01*
X126212264Y-101162882D01*
X126226543Y-101166459D01*
X126240403Y-101171418D01*
X126253710Y-101177712D01*
X126266336Y-101185280D01*
X126278159Y-101194048D01*
X126289066Y-101203934D01*
X126298952Y-101214841D01*
X126307720Y-101226664D01*
X126315288Y-101239290D01*
X126321582Y-101252597D01*
X126326541Y-101266457D01*
X126330118Y-101280736D01*
X126332278Y-101295297D01*
X126333000Y-101310000D01*
X126333000Y-101610000D01*
X126332278Y-101624703D01*
X126330118Y-101639264D01*
X126326541Y-101653543D01*
X126321582Y-101667403D01*
X126315288Y-101680710D01*
X126307720Y-101693336D01*
X126298952Y-101705159D01*
X126289066Y-101716066D01*
X126278159Y-101725952D01*
X126266336Y-101734720D01*
X126253710Y-101742288D01*
X126240403Y-101748582D01*
X126226543Y-101753541D01*
X126212264Y-101757118D01*
X126197703Y-101759278D01*
X126183000Y-101760000D01*
X124533000Y-101760000D01*
X124518297Y-101759278D01*
X124503736Y-101757118D01*
X124489457Y-101753541D01*
X124475597Y-101748582D01*
X124462290Y-101742288D01*
X124449664Y-101734720D01*
X124437841Y-101725952D01*
X124426934Y-101716066D01*
X124417048Y-101705159D01*
X124408280Y-101693336D01*
X124400712Y-101680710D01*
X124394418Y-101667403D01*
X124389459Y-101653543D01*
X124385882Y-101639264D01*
X124383722Y-101624703D01*
X124383000Y-101610000D01*
X124383000Y-101310000D01*
X124383722Y-101295297D01*
X124385882Y-101280736D01*
X124389459Y-101266457D01*
X124394418Y-101252597D01*
X124400712Y-101239290D01*
X124408280Y-101226664D01*
X124417048Y-101214841D01*
X124426934Y-101203934D01*
X124437841Y-101194048D01*
X124449664Y-101185280D01*
X124462290Y-101177712D01*
X124475597Y-101171418D01*
X124489457Y-101166459D01*
X124503736Y-101162882D01*
X124518297Y-101160722D01*
X124533000Y-101160000D01*
X126183000Y-101160000D01*
X126197703Y-101160722D01*
G37*
G04 #@! TD.AperFunction*
G04 #@! TA.AperFunction,SMDPad,CuDef*
G36*
X126197703Y-99890722D02*
G01*
X126212264Y-99892882D01*
X126226543Y-99896459D01*
X126240403Y-99901418D01*
X126253710Y-99907712D01*
X126266336Y-99915280D01*
X126278159Y-99924048D01*
X126289066Y-99933934D01*
X126298952Y-99944841D01*
X126307720Y-99956664D01*
X126315288Y-99969290D01*
X126321582Y-99982597D01*
X126326541Y-99996457D01*
X126330118Y-100010736D01*
X126332278Y-100025297D01*
X126333000Y-100040000D01*
X126333000Y-100340000D01*
X126332278Y-100354703D01*
X126330118Y-100369264D01*
X126326541Y-100383543D01*
X126321582Y-100397403D01*
X126315288Y-100410710D01*
X126307720Y-100423336D01*
X126298952Y-100435159D01*
X126289066Y-100446066D01*
X126278159Y-100455952D01*
X126266336Y-100464720D01*
X126253710Y-100472288D01*
X126240403Y-100478582D01*
X126226543Y-100483541D01*
X126212264Y-100487118D01*
X126197703Y-100489278D01*
X126183000Y-100490000D01*
X124533000Y-100490000D01*
X124518297Y-100489278D01*
X124503736Y-100487118D01*
X124489457Y-100483541D01*
X124475597Y-100478582D01*
X124462290Y-100472288D01*
X124449664Y-100464720D01*
X124437841Y-100455952D01*
X124426934Y-100446066D01*
X124417048Y-100435159D01*
X124408280Y-100423336D01*
X124400712Y-100410710D01*
X124394418Y-100397403D01*
X124389459Y-100383543D01*
X124385882Y-100369264D01*
X124383722Y-100354703D01*
X124383000Y-100340000D01*
X124383000Y-100040000D01*
X124383722Y-100025297D01*
X124385882Y-100010736D01*
X124389459Y-99996457D01*
X124394418Y-99982597D01*
X124400712Y-99969290D01*
X124408280Y-99956664D01*
X124417048Y-99944841D01*
X124426934Y-99933934D01*
X124437841Y-99924048D01*
X124449664Y-99915280D01*
X124462290Y-99907712D01*
X124475597Y-99901418D01*
X124489457Y-99896459D01*
X124503736Y-99892882D01*
X124518297Y-99890722D01*
X124533000Y-99890000D01*
X126183000Y-99890000D01*
X126197703Y-99890722D01*
G37*
G04 #@! TD.AperFunction*
G04 #@! TA.AperFunction,SMDPad,CuDef*
G36*
X131147703Y-99890722D02*
G01*
X131162264Y-99892882D01*
X131176543Y-99896459D01*
X131190403Y-99901418D01*
X131203710Y-99907712D01*
X131216336Y-99915280D01*
X131228159Y-99924048D01*
X131239066Y-99933934D01*
X131248952Y-99944841D01*
X131257720Y-99956664D01*
X131265288Y-99969290D01*
X131271582Y-99982597D01*
X131276541Y-99996457D01*
X131280118Y-100010736D01*
X131282278Y-100025297D01*
X131283000Y-100040000D01*
X131283000Y-100340000D01*
X131282278Y-100354703D01*
X131280118Y-100369264D01*
X131276541Y-100383543D01*
X131271582Y-100397403D01*
X131265288Y-100410710D01*
X131257720Y-100423336D01*
X131248952Y-100435159D01*
X131239066Y-100446066D01*
X131228159Y-100455952D01*
X131216336Y-100464720D01*
X131203710Y-100472288D01*
X131190403Y-100478582D01*
X131176543Y-100483541D01*
X131162264Y-100487118D01*
X131147703Y-100489278D01*
X131133000Y-100490000D01*
X129483000Y-100490000D01*
X129468297Y-100489278D01*
X129453736Y-100487118D01*
X129439457Y-100483541D01*
X129425597Y-100478582D01*
X129412290Y-100472288D01*
X129399664Y-100464720D01*
X129387841Y-100455952D01*
X129376934Y-100446066D01*
X129367048Y-100435159D01*
X129358280Y-100423336D01*
X129350712Y-100410710D01*
X129344418Y-100397403D01*
X129339459Y-100383543D01*
X129335882Y-100369264D01*
X129333722Y-100354703D01*
X129333000Y-100340000D01*
X129333000Y-100040000D01*
X129333722Y-100025297D01*
X129335882Y-100010736D01*
X129339459Y-99996457D01*
X129344418Y-99982597D01*
X129350712Y-99969290D01*
X129358280Y-99956664D01*
X129367048Y-99944841D01*
X129376934Y-99933934D01*
X129387841Y-99924048D01*
X129399664Y-99915280D01*
X129412290Y-99907712D01*
X129425597Y-99901418D01*
X129439457Y-99896459D01*
X129453736Y-99892882D01*
X129468297Y-99890722D01*
X129483000Y-99890000D01*
X131133000Y-99890000D01*
X131147703Y-99890722D01*
G37*
G04 #@! TD.AperFunction*
G04 #@! TA.AperFunction,SMDPad,CuDef*
G36*
X131147703Y-101160722D02*
G01*
X131162264Y-101162882D01*
X131176543Y-101166459D01*
X131190403Y-101171418D01*
X131203710Y-101177712D01*
X131216336Y-101185280D01*
X131228159Y-101194048D01*
X131239066Y-101203934D01*
X131248952Y-101214841D01*
X131257720Y-101226664D01*
X131265288Y-101239290D01*
X131271582Y-101252597D01*
X131276541Y-101266457D01*
X131280118Y-101280736D01*
X131282278Y-101295297D01*
X131283000Y-101310000D01*
X131283000Y-101610000D01*
X131282278Y-101624703D01*
X131280118Y-101639264D01*
X131276541Y-101653543D01*
X131271582Y-101667403D01*
X131265288Y-101680710D01*
X131257720Y-101693336D01*
X131248952Y-101705159D01*
X131239066Y-101716066D01*
X131228159Y-101725952D01*
X131216336Y-101734720D01*
X131203710Y-101742288D01*
X131190403Y-101748582D01*
X131176543Y-101753541D01*
X131162264Y-101757118D01*
X131147703Y-101759278D01*
X131133000Y-101760000D01*
X129483000Y-101760000D01*
X129468297Y-101759278D01*
X129453736Y-101757118D01*
X129439457Y-101753541D01*
X129425597Y-101748582D01*
X129412290Y-101742288D01*
X129399664Y-101734720D01*
X129387841Y-101725952D01*
X129376934Y-101716066D01*
X129367048Y-101705159D01*
X129358280Y-101693336D01*
X129350712Y-101680710D01*
X129344418Y-101667403D01*
X129339459Y-101653543D01*
X129335882Y-101639264D01*
X129333722Y-101624703D01*
X129333000Y-101610000D01*
X129333000Y-101310000D01*
X129333722Y-101295297D01*
X129335882Y-101280736D01*
X129339459Y-101266457D01*
X129344418Y-101252597D01*
X129350712Y-101239290D01*
X129358280Y-101226664D01*
X129367048Y-101214841D01*
X129376934Y-101203934D01*
X129387841Y-101194048D01*
X129399664Y-101185280D01*
X129412290Y-101177712D01*
X129425597Y-101171418D01*
X129439457Y-101166459D01*
X129453736Y-101162882D01*
X129468297Y-101160722D01*
X129483000Y-101160000D01*
X131133000Y-101160000D01*
X131147703Y-101160722D01*
G37*
G04 #@! TD.AperFunction*
G04 #@! TA.AperFunction,SMDPad,CuDef*
G36*
X131147703Y-102430722D02*
G01*
X131162264Y-102432882D01*
X131176543Y-102436459D01*
X131190403Y-102441418D01*
X131203710Y-102447712D01*
X131216336Y-102455280D01*
X131228159Y-102464048D01*
X131239066Y-102473934D01*
X131248952Y-102484841D01*
X131257720Y-102496664D01*
X131265288Y-102509290D01*
X131271582Y-102522597D01*
X131276541Y-102536457D01*
X131280118Y-102550736D01*
X131282278Y-102565297D01*
X131283000Y-102580000D01*
X131283000Y-102880000D01*
X131282278Y-102894703D01*
X131280118Y-102909264D01*
X131276541Y-102923543D01*
X131271582Y-102937403D01*
X131265288Y-102950710D01*
X131257720Y-102963336D01*
X131248952Y-102975159D01*
X131239066Y-102986066D01*
X131228159Y-102995952D01*
X131216336Y-103004720D01*
X131203710Y-103012288D01*
X131190403Y-103018582D01*
X131176543Y-103023541D01*
X131162264Y-103027118D01*
X131147703Y-103029278D01*
X131133000Y-103030000D01*
X129483000Y-103030000D01*
X129468297Y-103029278D01*
X129453736Y-103027118D01*
X129439457Y-103023541D01*
X129425597Y-103018582D01*
X129412290Y-103012288D01*
X129399664Y-103004720D01*
X129387841Y-102995952D01*
X129376934Y-102986066D01*
X129367048Y-102975159D01*
X129358280Y-102963336D01*
X129350712Y-102950710D01*
X129344418Y-102937403D01*
X129339459Y-102923543D01*
X129335882Y-102909264D01*
X129333722Y-102894703D01*
X129333000Y-102880000D01*
X129333000Y-102580000D01*
X129333722Y-102565297D01*
X129335882Y-102550736D01*
X129339459Y-102536457D01*
X129344418Y-102522597D01*
X129350712Y-102509290D01*
X129358280Y-102496664D01*
X129367048Y-102484841D01*
X129376934Y-102473934D01*
X129387841Y-102464048D01*
X129399664Y-102455280D01*
X129412290Y-102447712D01*
X129425597Y-102441418D01*
X129439457Y-102436459D01*
X129453736Y-102432882D01*
X129468297Y-102430722D01*
X129483000Y-102430000D01*
X131133000Y-102430000D01*
X131147703Y-102430722D01*
G37*
G04 #@! TD.AperFunction*
G04 #@! TA.AperFunction,SMDPad,CuDef*
G36*
X131147703Y-103700722D02*
G01*
X131162264Y-103702882D01*
X131176543Y-103706459D01*
X131190403Y-103711418D01*
X131203710Y-103717712D01*
X131216336Y-103725280D01*
X131228159Y-103734048D01*
X131239066Y-103743934D01*
X131248952Y-103754841D01*
X131257720Y-103766664D01*
X131265288Y-103779290D01*
X131271582Y-103792597D01*
X131276541Y-103806457D01*
X131280118Y-103820736D01*
X131282278Y-103835297D01*
X131283000Y-103850000D01*
X131283000Y-104150000D01*
X131282278Y-104164703D01*
X131280118Y-104179264D01*
X131276541Y-104193543D01*
X131271582Y-104207403D01*
X131265288Y-104220710D01*
X131257720Y-104233336D01*
X131248952Y-104245159D01*
X131239066Y-104256066D01*
X131228159Y-104265952D01*
X131216336Y-104274720D01*
X131203710Y-104282288D01*
X131190403Y-104288582D01*
X131176543Y-104293541D01*
X131162264Y-104297118D01*
X131147703Y-104299278D01*
X131133000Y-104300000D01*
X129483000Y-104300000D01*
X129468297Y-104299278D01*
X129453736Y-104297118D01*
X129439457Y-104293541D01*
X129425597Y-104288582D01*
X129412290Y-104282288D01*
X129399664Y-104274720D01*
X129387841Y-104265952D01*
X129376934Y-104256066D01*
X129367048Y-104245159D01*
X129358280Y-104233336D01*
X129350712Y-104220710D01*
X129344418Y-104207403D01*
X129339459Y-104193543D01*
X129335882Y-104179264D01*
X129333722Y-104164703D01*
X129333000Y-104150000D01*
X129333000Y-103850000D01*
X129333722Y-103835297D01*
X129335882Y-103820736D01*
X129339459Y-103806457D01*
X129344418Y-103792597D01*
X129350712Y-103779290D01*
X129358280Y-103766664D01*
X129367048Y-103754841D01*
X129376934Y-103743934D01*
X129387841Y-103734048D01*
X129399664Y-103725280D01*
X129412290Y-103717712D01*
X129425597Y-103711418D01*
X129439457Y-103706459D01*
X129453736Y-103702882D01*
X129468297Y-103700722D01*
X129483000Y-103700000D01*
X131133000Y-103700000D01*
X131147703Y-103700722D01*
G37*
G04 #@! TD.AperFunction*
G04 #@! TA.AperFunction,SMDPad,CuDef*
G36*
X131147703Y-104970722D02*
G01*
X131162264Y-104972882D01*
X131176543Y-104976459D01*
X131190403Y-104981418D01*
X131203710Y-104987712D01*
X131216336Y-104995280D01*
X131228159Y-105004048D01*
X131239066Y-105013934D01*
X131248952Y-105024841D01*
X131257720Y-105036664D01*
X131265288Y-105049290D01*
X131271582Y-105062597D01*
X131276541Y-105076457D01*
X131280118Y-105090736D01*
X131282278Y-105105297D01*
X131283000Y-105120000D01*
X131283000Y-105420000D01*
X131282278Y-105434703D01*
X131280118Y-105449264D01*
X131276541Y-105463543D01*
X131271582Y-105477403D01*
X131265288Y-105490710D01*
X131257720Y-105503336D01*
X131248952Y-105515159D01*
X131239066Y-105526066D01*
X131228159Y-105535952D01*
X131216336Y-105544720D01*
X131203710Y-105552288D01*
X131190403Y-105558582D01*
X131176543Y-105563541D01*
X131162264Y-105567118D01*
X131147703Y-105569278D01*
X131133000Y-105570000D01*
X129483000Y-105570000D01*
X129468297Y-105569278D01*
X129453736Y-105567118D01*
X129439457Y-105563541D01*
X129425597Y-105558582D01*
X129412290Y-105552288D01*
X129399664Y-105544720D01*
X129387841Y-105535952D01*
X129376934Y-105526066D01*
X129367048Y-105515159D01*
X129358280Y-105503336D01*
X129350712Y-105490710D01*
X129344418Y-105477403D01*
X129339459Y-105463543D01*
X129335882Y-105449264D01*
X129333722Y-105434703D01*
X129333000Y-105420000D01*
X129333000Y-105120000D01*
X129333722Y-105105297D01*
X129335882Y-105090736D01*
X129339459Y-105076457D01*
X129344418Y-105062597D01*
X129350712Y-105049290D01*
X129358280Y-105036664D01*
X129367048Y-105024841D01*
X129376934Y-105013934D01*
X129387841Y-105004048D01*
X129399664Y-104995280D01*
X129412290Y-104987712D01*
X129425597Y-104981418D01*
X129439457Y-104976459D01*
X129453736Y-104972882D01*
X129468297Y-104970722D01*
X129483000Y-104970000D01*
X131133000Y-104970000D01*
X131147703Y-104970722D01*
G37*
G04 #@! TD.AperFunction*
G04 #@! TA.AperFunction,SMDPad,CuDef*
G36*
X131147703Y-106240722D02*
G01*
X131162264Y-106242882D01*
X131176543Y-106246459D01*
X131190403Y-106251418D01*
X131203710Y-106257712D01*
X131216336Y-106265280D01*
X131228159Y-106274048D01*
X131239066Y-106283934D01*
X131248952Y-106294841D01*
X131257720Y-106306664D01*
X131265288Y-106319290D01*
X131271582Y-106332597D01*
X131276541Y-106346457D01*
X131280118Y-106360736D01*
X131282278Y-106375297D01*
X131283000Y-106390000D01*
X131283000Y-106690000D01*
X131282278Y-106704703D01*
X131280118Y-106719264D01*
X131276541Y-106733543D01*
X131271582Y-106747403D01*
X131265288Y-106760710D01*
X131257720Y-106773336D01*
X131248952Y-106785159D01*
X131239066Y-106796066D01*
X131228159Y-106805952D01*
X131216336Y-106814720D01*
X131203710Y-106822288D01*
X131190403Y-106828582D01*
X131176543Y-106833541D01*
X131162264Y-106837118D01*
X131147703Y-106839278D01*
X131133000Y-106840000D01*
X129483000Y-106840000D01*
X129468297Y-106839278D01*
X129453736Y-106837118D01*
X129439457Y-106833541D01*
X129425597Y-106828582D01*
X129412290Y-106822288D01*
X129399664Y-106814720D01*
X129387841Y-106805952D01*
X129376934Y-106796066D01*
X129367048Y-106785159D01*
X129358280Y-106773336D01*
X129350712Y-106760710D01*
X129344418Y-106747403D01*
X129339459Y-106733543D01*
X129335882Y-106719264D01*
X129333722Y-106704703D01*
X129333000Y-106690000D01*
X129333000Y-106390000D01*
X129333722Y-106375297D01*
X129335882Y-106360736D01*
X129339459Y-106346457D01*
X129344418Y-106332597D01*
X129350712Y-106319290D01*
X129358280Y-106306664D01*
X129367048Y-106294841D01*
X129376934Y-106283934D01*
X129387841Y-106274048D01*
X129399664Y-106265280D01*
X129412290Y-106257712D01*
X129425597Y-106251418D01*
X129439457Y-106246459D01*
X129453736Y-106242882D01*
X129468297Y-106240722D01*
X129483000Y-106240000D01*
X131133000Y-106240000D01*
X131147703Y-106240722D01*
G37*
G04 #@! TD.AperFunction*
G04 #@! TA.AperFunction,SMDPad,CuDef*
G36*
X131147703Y-107510722D02*
G01*
X131162264Y-107512882D01*
X131176543Y-107516459D01*
X131190403Y-107521418D01*
X131203710Y-107527712D01*
X131216336Y-107535280D01*
X131228159Y-107544048D01*
X131239066Y-107553934D01*
X131248952Y-107564841D01*
X131257720Y-107576664D01*
X131265288Y-107589290D01*
X131271582Y-107602597D01*
X131276541Y-107616457D01*
X131280118Y-107630736D01*
X131282278Y-107645297D01*
X131283000Y-107660000D01*
X131283000Y-107960000D01*
X131282278Y-107974703D01*
X131280118Y-107989264D01*
X131276541Y-108003543D01*
X131271582Y-108017403D01*
X131265288Y-108030710D01*
X131257720Y-108043336D01*
X131248952Y-108055159D01*
X131239066Y-108066066D01*
X131228159Y-108075952D01*
X131216336Y-108084720D01*
X131203710Y-108092288D01*
X131190403Y-108098582D01*
X131176543Y-108103541D01*
X131162264Y-108107118D01*
X131147703Y-108109278D01*
X131133000Y-108110000D01*
X129483000Y-108110000D01*
X129468297Y-108109278D01*
X129453736Y-108107118D01*
X129439457Y-108103541D01*
X129425597Y-108098582D01*
X129412290Y-108092288D01*
X129399664Y-108084720D01*
X129387841Y-108075952D01*
X129376934Y-108066066D01*
X129367048Y-108055159D01*
X129358280Y-108043336D01*
X129350712Y-108030710D01*
X129344418Y-108017403D01*
X129339459Y-108003543D01*
X129335882Y-107989264D01*
X129333722Y-107974703D01*
X129333000Y-107960000D01*
X129333000Y-107660000D01*
X129333722Y-107645297D01*
X129335882Y-107630736D01*
X129339459Y-107616457D01*
X129344418Y-107602597D01*
X129350712Y-107589290D01*
X129358280Y-107576664D01*
X129367048Y-107564841D01*
X129376934Y-107553934D01*
X129387841Y-107544048D01*
X129399664Y-107535280D01*
X129412290Y-107527712D01*
X129425597Y-107521418D01*
X129439457Y-107516459D01*
X129453736Y-107512882D01*
X129468297Y-107510722D01*
X129483000Y-107510000D01*
X131133000Y-107510000D01*
X131147703Y-107510722D01*
G37*
G04 #@! TD.AperFunction*
D12*
X116200000Y-112000000D03*
D13*
X118740000Y-112000000D03*
X121280000Y-112000000D03*
X123820000Y-112000000D03*
D12*
X102500000Y-112500000D03*
D13*
X102500000Y-109960000D03*
X102500000Y-107420000D03*
X102500000Y-104880000D03*
X102500000Y-102340000D03*
X102500000Y-99800000D03*
X102500000Y-97260000D03*
X102500000Y-94720000D03*
X102500000Y-92180000D03*
X102500000Y-89640000D03*
X102500000Y-87100000D03*
X102500000Y-84560000D03*
X137500000Y-84560000D03*
X137500000Y-87100000D03*
X137500000Y-89640000D03*
X137500000Y-92180000D03*
X137500000Y-94720000D03*
X137500000Y-97260000D03*
X137500000Y-99800000D03*
X137500000Y-102340000D03*
X137500000Y-104880000D03*
X137500000Y-107420000D03*
X137500000Y-109960000D03*
D12*
X137500000Y-112500000D03*
G04 #@! TA.AperFunction,SMDPad,CuDef*
D10*
G36*
X109824505Y-111676204D02*
G01*
X109848773Y-111679804D01*
X109872572Y-111685765D01*
X109895671Y-111694030D01*
X109917850Y-111704520D01*
X109938893Y-111717132D01*
X109958599Y-111731747D01*
X109976777Y-111748223D01*
X109993253Y-111766401D01*
X110007868Y-111786107D01*
X110020480Y-111807150D01*
X110030970Y-111829329D01*
X110039235Y-111852428D01*
X110045196Y-111876227D01*
X110048796Y-111900495D01*
X110050000Y-111924999D01*
X110050000Y-112825001D01*
X110048796Y-112849505D01*
X110045196Y-112873773D01*
X110039235Y-112897572D01*
X110030970Y-112920671D01*
X110020480Y-112942850D01*
X110007868Y-112963893D01*
X109993253Y-112983599D01*
X109976777Y-113001777D01*
X109958599Y-113018253D01*
X109938893Y-113032868D01*
X109917850Y-113045480D01*
X109895671Y-113055970D01*
X109872572Y-113064235D01*
X109848773Y-113070196D01*
X109824505Y-113073796D01*
X109800001Y-113075000D01*
X109099999Y-113075000D01*
X109075495Y-113073796D01*
X109051227Y-113070196D01*
X109027428Y-113064235D01*
X109004329Y-113055970D01*
X108982150Y-113045480D01*
X108961107Y-113032868D01*
X108941401Y-113018253D01*
X108923223Y-113001777D01*
X108906747Y-112983599D01*
X108892132Y-112963893D01*
X108879520Y-112942850D01*
X108869030Y-112920671D01*
X108860765Y-112897572D01*
X108854804Y-112873773D01*
X108851204Y-112849505D01*
X108850000Y-112825001D01*
X108850000Y-111924999D01*
X108851204Y-111900495D01*
X108854804Y-111876227D01*
X108860765Y-111852428D01*
X108869030Y-111829329D01*
X108879520Y-111807150D01*
X108892132Y-111786107D01*
X108906747Y-111766401D01*
X108923223Y-111748223D01*
X108941401Y-111731747D01*
X108961107Y-111717132D01*
X108982150Y-111704520D01*
X109004329Y-111694030D01*
X109027428Y-111685765D01*
X109051227Y-111679804D01*
X109075495Y-111676204D01*
X109099999Y-111675000D01*
X109800001Y-111675000D01*
X109824505Y-111676204D01*
G37*
G04 #@! TD.AperFunction*
G04 #@! TA.AperFunction,SMDPad,CuDef*
G36*
X107824505Y-111676204D02*
G01*
X107848773Y-111679804D01*
X107872572Y-111685765D01*
X107895671Y-111694030D01*
X107917850Y-111704520D01*
X107938893Y-111717132D01*
X107958599Y-111731747D01*
X107976777Y-111748223D01*
X107993253Y-111766401D01*
X108007868Y-111786107D01*
X108020480Y-111807150D01*
X108030970Y-111829329D01*
X108039235Y-111852428D01*
X108045196Y-111876227D01*
X108048796Y-111900495D01*
X108050000Y-111924999D01*
X108050000Y-112825001D01*
X108048796Y-112849505D01*
X108045196Y-112873773D01*
X108039235Y-112897572D01*
X108030970Y-112920671D01*
X108020480Y-112942850D01*
X108007868Y-112963893D01*
X107993253Y-112983599D01*
X107976777Y-113001777D01*
X107958599Y-113018253D01*
X107938893Y-113032868D01*
X107917850Y-113045480D01*
X107895671Y-113055970D01*
X107872572Y-113064235D01*
X107848773Y-113070196D01*
X107824505Y-113073796D01*
X107800001Y-113075000D01*
X107099999Y-113075000D01*
X107075495Y-113073796D01*
X107051227Y-113070196D01*
X107027428Y-113064235D01*
X107004329Y-113055970D01*
X106982150Y-113045480D01*
X106961107Y-113032868D01*
X106941401Y-113018253D01*
X106923223Y-113001777D01*
X106906747Y-112983599D01*
X106892132Y-112963893D01*
X106879520Y-112942850D01*
X106869030Y-112920671D01*
X106860765Y-112897572D01*
X106854804Y-112873773D01*
X106851204Y-112849505D01*
X106850000Y-112825001D01*
X106850000Y-111924999D01*
X106851204Y-111900495D01*
X106854804Y-111876227D01*
X106860765Y-111852428D01*
X106869030Y-111829329D01*
X106879520Y-111807150D01*
X106892132Y-111786107D01*
X106906747Y-111766401D01*
X106923223Y-111748223D01*
X106941401Y-111731747D01*
X106961107Y-111717132D01*
X106982150Y-111704520D01*
X107004329Y-111694030D01*
X107027428Y-111685765D01*
X107051227Y-111679804D01*
X107075495Y-111676204D01*
X107099999Y-111675000D01*
X107800001Y-111675000D01*
X107824505Y-111676204D01*
G37*
G04 #@! TD.AperFunction*
G04 #@! TA.AperFunction,SMDPad,CuDef*
G36*
X121324505Y-104151204D02*
G01*
X121348773Y-104154804D01*
X121372572Y-104160765D01*
X121395671Y-104169030D01*
X121417850Y-104179520D01*
X121438893Y-104192132D01*
X121458599Y-104206747D01*
X121476777Y-104223223D01*
X121493253Y-104241401D01*
X121507868Y-104261107D01*
X121520480Y-104282150D01*
X121530970Y-104304329D01*
X121539235Y-104327428D01*
X121545196Y-104351227D01*
X121548796Y-104375495D01*
X121550000Y-104399999D01*
X121550000Y-105100001D01*
X121548796Y-105124505D01*
X121545196Y-105148773D01*
X121539235Y-105172572D01*
X121530970Y-105195671D01*
X121520480Y-105217850D01*
X121507868Y-105238893D01*
X121493253Y-105258599D01*
X121476777Y-105276777D01*
X121458599Y-105293253D01*
X121438893Y-105307868D01*
X121417850Y-105320480D01*
X121395671Y-105330970D01*
X121372572Y-105339235D01*
X121348773Y-105345196D01*
X121324505Y-105348796D01*
X121300001Y-105350000D01*
X120399999Y-105350000D01*
X120375495Y-105348796D01*
X120351227Y-105345196D01*
X120327428Y-105339235D01*
X120304329Y-105330970D01*
X120282150Y-105320480D01*
X120261107Y-105307868D01*
X120241401Y-105293253D01*
X120223223Y-105276777D01*
X120206747Y-105258599D01*
X120192132Y-105238893D01*
X120179520Y-105217850D01*
X120169030Y-105195671D01*
X120160765Y-105172572D01*
X120154804Y-105148773D01*
X120151204Y-105124505D01*
X120150000Y-105100001D01*
X120150000Y-104399999D01*
X120151204Y-104375495D01*
X120154804Y-104351227D01*
X120160765Y-104327428D01*
X120169030Y-104304329D01*
X120179520Y-104282150D01*
X120192132Y-104261107D01*
X120206747Y-104241401D01*
X120223223Y-104223223D01*
X120241401Y-104206747D01*
X120261107Y-104192132D01*
X120282150Y-104179520D01*
X120304329Y-104169030D01*
X120327428Y-104160765D01*
X120351227Y-104154804D01*
X120375495Y-104151204D01*
X120399999Y-104150000D01*
X121300001Y-104150000D01*
X121324505Y-104151204D01*
G37*
G04 #@! TD.AperFunction*
G04 #@! TA.AperFunction,SMDPad,CuDef*
G36*
X121324505Y-106151204D02*
G01*
X121348773Y-106154804D01*
X121372572Y-106160765D01*
X121395671Y-106169030D01*
X121417850Y-106179520D01*
X121438893Y-106192132D01*
X121458599Y-106206747D01*
X121476777Y-106223223D01*
X121493253Y-106241401D01*
X121507868Y-106261107D01*
X121520480Y-106282150D01*
X121530970Y-106304329D01*
X121539235Y-106327428D01*
X121545196Y-106351227D01*
X121548796Y-106375495D01*
X121550000Y-106399999D01*
X121550000Y-107100001D01*
X121548796Y-107124505D01*
X121545196Y-107148773D01*
X121539235Y-107172572D01*
X121530970Y-107195671D01*
X121520480Y-107217850D01*
X121507868Y-107238893D01*
X121493253Y-107258599D01*
X121476777Y-107276777D01*
X121458599Y-107293253D01*
X121438893Y-107307868D01*
X121417850Y-107320480D01*
X121395671Y-107330970D01*
X121372572Y-107339235D01*
X121348773Y-107345196D01*
X121324505Y-107348796D01*
X121300001Y-107350000D01*
X120399999Y-107350000D01*
X120375495Y-107348796D01*
X120351227Y-107345196D01*
X120327428Y-107339235D01*
X120304329Y-107330970D01*
X120282150Y-107320480D01*
X120261107Y-107307868D01*
X120241401Y-107293253D01*
X120223223Y-107276777D01*
X120206747Y-107258599D01*
X120192132Y-107238893D01*
X120179520Y-107217850D01*
X120169030Y-107195671D01*
X120160765Y-107172572D01*
X120154804Y-107148773D01*
X120151204Y-107124505D01*
X120150000Y-107100001D01*
X120150000Y-106399999D01*
X120151204Y-106375495D01*
X120154804Y-106351227D01*
X120160765Y-106327428D01*
X120169030Y-106304329D01*
X120179520Y-106282150D01*
X120192132Y-106261107D01*
X120206747Y-106241401D01*
X120223223Y-106223223D01*
X120241401Y-106206747D01*
X120261107Y-106192132D01*
X120282150Y-106179520D01*
X120304329Y-106169030D01*
X120327428Y-106160765D01*
X120351227Y-106154804D01*
X120375495Y-106151204D01*
X120399999Y-106150000D01*
X121300001Y-106150000D01*
X121324505Y-106151204D01*
G37*
G04 #@! TD.AperFunction*
G04 #@! TA.AperFunction,SMDPad,CuDef*
G36*
X128199505Y-111701204D02*
G01*
X128223773Y-111704804D01*
X128247572Y-111710765D01*
X128270671Y-111719030D01*
X128292850Y-111729520D01*
X128313893Y-111742132D01*
X128333599Y-111756747D01*
X128351777Y-111773223D01*
X128368253Y-111791401D01*
X128382868Y-111811107D01*
X128395480Y-111832150D01*
X128405970Y-111854329D01*
X128414235Y-111877428D01*
X128420196Y-111901227D01*
X128423796Y-111925495D01*
X128425000Y-111949999D01*
X128425000Y-112850001D01*
X128423796Y-112874505D01*
X128420196Y-112898773D01*
X128414235Y-112922572D01*
X128405970Y-112945671D01*
X128395480Y-112967850D01*
X128382868Y-112988893D01*
X128368253Y-113008599D01*
X128351777Y-113026777D01*
X128333599Y-113043253D01*
X128313893Y-113057868D01*
X128292850Y-113070480D01*
X128270671Y-113080970D01*
X128247572Y-113089235D01*
X128223773Y-113095196D01*
X128199505Y-113098796D01*
X128175001Y-113100000D01*
X127474999Y-113100000D01*
X127450495Y-113098796D01*
X127426227Y-113095196D01*
X127402428Y-113089235D01*
X127379329Y-113080970D01*
X127357150Y-113070480D01*
X127336107Y-113057868D01*
X127316401Y-113043253D01*
X127298223Y-113026777D01*
X127281747Y-113008599D01*
X127267132Y-112988893D01*
X127254520Y-112967850D01*
X127244030Y-112945671D01*
X127235765Y-112922572D01*
X127229804Y-112898773D01*
X127226204Y-112874505D01*
X127225000Y-112850001D01*
X127225000Y-111949999D01*
X127226204Y-111925495D01*
X127229804Y-111901227D01*
X127235765Y-111877428D01*
X127244030Y-111854329D01*
X127254520Y-111832150D01*
X127267132Y-111811107D01*
X127281747Y-111791401D01*
X127298223Y-111773223D01*
X127316401Y-111756747D01*
X127336107Y-111742132D01*
X127357150Y-111729520D01*
X127379329Y-111719030D01*
X127402428Y-111710765D01*
X127426227Y-111704804D01*
X127450495Y-111701204D01*
X127474999Y-111700000D01*
X128175001Y-111700000D01*
X128199505Y-111701204D01*
G37*
G04 #@! TD.AperFunction*
G04 #@! TA.AperFunction,SMDPad,CuDef*
G36*
X130199505Y-111701204D02*
G01*
X130223773Y-111704804D01*
X130247572Y-111710765D01*
X130270671Y-111719030D01*
X130292850Y-111729520D01*
X130313893Y-111742132D01*
X130333599Y-111756747D01*
X130351777Y-111773223D01*
X130368253Y-111791401D01*
X130382868Y-111811107D01*
X130395480Y-111832150D01*
X130405970Y-111854329D01*
X130414235Y-111877428D01*
X130420196Y-111901227D01*
X130423796Y-111925495D01*
X130425000Y-111949999D01*
X130425000Y-112850001D01*
X130423796Y-112874505D01*
X130420196Y-112898773D01*
X130414235Y-112922572D01*
X130405970Y-112945671D01*
X130395480Y-112967850D01*
X130382868Y-112988893D01*
X130368253Y-113008599D01*
X130351777Y-113026777D01*
X130333599Y-113043253D01*
X130313893Y-113057868D01*
X130292850Y-113070480D01*
X130270671Y-113080970D01*
X130247572Y-113089235D01*
X130223773Y-113095196D01*
X130199505Y-113098796D01*
X130175001Y-113100000D01*
X129474999Y-113100000D01*
X129450495Y-113098796D01*
X129426227Y-113095196D01*
X129402428Y-113089235D01*
X129379329Y-113080970D01*
X129357150Y-113070480D01*
X129336107Y-113057868D01*
X129316401Y-113043253D01*
X129298223Y-113026777D01*
X129281747Y-113008599D01*
X129267132Y-112988893D01*
X129254520Y-112967850D01*
X129244030Y-112945671D01*
X129235765Y-112922572D01*
X129229804Y-112898773D01*
X129226204Y-112874505D01*
X129225000Y-112850001D01*
X129225000Y-111949999D01*
X129226204Y-111925495D01*
X129229804Y-111901227D01*
X129235765Y-111877428D01*
X129244030Y-111854329D01*
X129254520Y-111832150D01*
X129267132Y-111811107D01*
X129281747Y-111791401D01*
X129298223Y-111773223D01*
X129316401Y-111756747D01*
X129336107Y-111742132D01*
X129357150Y-111729520D01*
X129379329Y-111719030D01*
X129402428Y-111710765D01*
X129426227Y-111704804D01*
X129450495Y-111701204D01*
X129474999Y-111700000D01*
X130175001Y-111700000D01*
X130199505Y-111701204D01*
G37*
G04 #@! TD.AperFunction*
D14*
X126777000Y-104641600D03*
D15*
X113800000Y-91100000D03*
X128500000Y-88800000D03*
X133800000Y-91900000D03*
X133400000Y-88500000D03*
D14*
X133846000Y-109654000D03*
X131975000Y-113225000D03*
X111500000Y-88300000D03*
X105900000Y-94600000D03*
X105600000Y-96900000D03*
X106000000Y-100900000D03*
X104800000Y-101000000D03*
X107600000Y-107400000D03*
X123600000Y-90900000D03*
X123400000Y-88300000D03*
X128000000Y-100700000D03*
X132900000Y-100800000D03*
X122250000Y-104900000D03*
D15*
X110500000Y-97600000D03*
X112200000Y-109800000D03*
D14*
X107857600Y-101254400D03*
X115552300Y-101070600D03*
X121953000Y-102290300D03*
X114400000Y-97300000D03*
X129525000Y-92943800D03*
X128075000Y-82200000D03*
X116800000Y-97099998D03*
X117874990Y-92500000D03*
X115583300Y-100054800D03*
X121350000Y-100054800D03*
X113138200Y-102083300D03*
X117903700Y-101897200D03*
X112692100Y-100395600D03*
X118925000Y-106750000D03*
X112486500Y-98901000D03*
X119624300Y-97535400D03*
X119457510Y-91065803D03*
X120349700Y-96517100D03*
X119700000Y-92700002D03*
X123175100Y-98491500D03*
X123175100Y-93534000D03*
D16*
X109454500Y-102155000D02*
X109357900Y-102058400D01*
X109357900Y-102058400D02*
X109357900Y-93831500D01*
X109357900Y-93831500D02*
X114910400Y-88279000D01*
X114910400Y-88279000D02*
X114910400Y-82774600D01*
X124773900Y-100190000D02*
X124773900Y-97425900D01*
X124773900Y-97425900D02*
X123800400Y-96452400D01*
X123800400Y-96452400D02*
X123800400Y-93934500D01*
X123800400Y-93934500D02*
X125070400Y-92664500D01*
X125070400Y-92664500D02*
X125070400Y-85025300D01*
X126777000Y-104641600D02*
X128688600Y-102730000D01*
X128688600Y-102730000D02*
X130308000Y-102730000D01*
X126777000Y-104641600D02*
X125999600Y-104641600D01*
X125999600Y-104641600D02*
X125358000Y-104000000D01*
X130308000Y-102730000D02*
X130308000Y-101460000D01*
X130308000Y-106540000D02*
X130308000Y-105270000D01*
X136324700Y-112500000D02*
X136324700Y-112132700D01*
X136324700Y-112132700D02*
X133846000Y-109654000D01*
X130732000Y-106540000D02*
X130308000Y-106540000D01*
X125358000Y-102730000D02*
X124975100Y-102730000D01*
X124975100Y-102730000D02*
X124056300Y-101811200D01*
X124056300Y-101811200D02*
X124056300Y-100907600D01*
X124056300Y-100907600D02*
X124773900Y-100190000D01*
X125358000Y-102730000D02*
X125358000Y-104000000D01*
X125358000Y-100190000D02*
X124773900Y-100190000D01*
X137500000Y-84560000D02*
X136324700Y-84560000D01*
X129525000Y-84462600D02*
X136227300Y-84462600D01*
X136227300Y-84462600D02*
X136324700Y-84560000D01*
X129525000Y-83900000D02*
X129525000Y-84462600D01*
X137500000Y-112500000D02*
X136324700Y-112500000D01*
X103675300Y-84560000D02*
X102500000Y-84560000D01*
X105735300Y-82500000D02*
X103675300Y-84560000D01*
X114635800Y-82500000D02*
X105735300Y-82500000D01*
X114910400Y-82774600D02*
X114635800Y-82500000D01*
X128052296Y-85025300D02*
X125070400Y-85025300D01*
X128151998Y-85125002D02*
X128052296Y-85025300D01*
X128972990Y-85125002D02*
X128151998Y-85125002D01*
X129525000Y-84462600D02*
X129525000Y-84572992D01*
X129525000Y-84572992D02*
X128972990Y-85125002D01*
X120632523Y-85672477D02*
X120632523Y-94042477D01*
X121279600Y-82965300D02*
X121279600Y-85025400D01*
X120625000Y-94050000D02*
X120625000Y-95100000D01*
X121279600Y-85025400D02*
X120632523Y-85672477D01*
X120632523Y-94042477D02*
X120625000Y-94050000D01*
X115185000Y-82500000D02*
X114910400Y-82774600D01*
X120814300Y-82500000D02*
X115185000Y-82500000D01*
X121279600Y-82965300D02*
X120814300Y-82500000D01*
X124683300Y-82500000D02*
X121744900Y-82500000D01*
X121744900Y-82500000D02*
X121279600Y-82965300D01*
X125070400Y-82887100D02*
X124683300Y-82500000D01*
X125070400Y-85025300D02*
X125070400Y-82887100D01*
X133846000Y-109654000D02*
X130732000Y-106540000D01*
X109454500Y-111004500D02*
X109500000Y-111050000D01*
X109454500Y-108005000D02*
X109454500Y-111004500D01*
X107450000Y-111125000D02*
X107475000Y-111100000D01*
X107450000Y-112375000D02*
X107450000Y-111125000D01*
X103900000Y-111100000D02*
X102500000Y-112500000D01*
X107475000Y-111100000D02*
X103900000Y-111100000D01*
X110275000Y-111100000D02*
X107475000Y-111100000D01*
X111015400Y-111840400D02*
X110275000Y-111100000D01*
X115194800Y-110824600D02*
X114179000Y-111840400D01*
X114179000Y-111840400D02*
X111015400Y-111840400D01*
X121836600Y-110824600D02*
X115194800Y-110824600D01*
X123820000Y-110824700D02*
X121836700Y-110824700D01*
X121836700Y-110824700D02*
X121836600Y-110824600D01*
X123820000Y-112000000D02*
X123820000Y-110824700D01*
X120850000Y-104750000D02*
X122100000Y-104750000D01*
X122100000Y-104750000D02*
X122250000Y-104900000D01*
X122250000Y-104900000D02*
X122250000Y-104900000D01*
X130200000Y-107900000D02*
X130218000Y-107900000D01*
X130218000Y-107900000D02*
X130308000Y-107810000D01*
D17*
X115474500Y-108300000D02*
X122800000Y-108300000D01*
X122800000Y-108300000D02*
X123500000Y-109000000D01*
X123500000Y-109000000D02*
X128500000Y-109000000D01*
X128500000Y-109000000D02*
X129600000Y-107900000D01*
X129600000Y-107900000D02*
X130200000Y-107900000D01*
D16*
X110500000Y-96050000D02*
X110475000Y-96025000D01*
X110475000Y-96025000D02*
X110475000Y-95100000D01*
D17*
X110500000Y-96050000D02*
X110500000Y-97600000D01*
X110500000Y-94500000D02*
X110500000Y-96050000D01*
D16*
X115474500Y-108300000D02*
X115179500Y-108005000D01*
D17*
X112200000Y-109800000D02*
X113700000Y-108300000D01*
X113700000Y-108300000D02*
X115474500Y-108300000D01*
X112040000Y-109960000D02*
X112200000Y-109800000D01*
D16*
X114285000Y-83900000D02*
X114285000Y-87173600D01*
X114285000Y-87173600D02*
X107857600Y-93601000D01*
X107857600Y-93601000D02*
X107857600Y-101254400D01*
X103675300Y-107420000D02*
X106340300Y-104755000D01*
X106340300Y-104755000D02*
X109454500Y-104755000D01*
X102500000Y-107420000D02*
X103675300Y-107420000D01*
X115555000Y-95100000D02*
X115555000Y-98640800D01*
X115555000Y-98640800D02*
X112412900Y-101782900D01*
X112412900Y-101782900D02*
X112412900Y-101835700D01*
X112412900Y-101835700D02*
X110143600Y-104105000D01*
X110143600Y-104105000D02*
X109454500Y-104105000D01*
X102500000Y-104880000D02*
X103675300Y-104880000D01*
X109454500Y-104105000D02*
X104450300Y-104105000D01*
X104450300Y-104105000D02*
X103675300Y-104880000D01*
X107110600Y-101982100D02*
X107110600Y-90929700D01*
X107110600Y-90929700D02*
X113015000Y-85025300D01*
X107110600Y-101982100D02*
X108583500Y-103455000D01*
X108583500Y-103455000D02*
X109454500Y-103455000D01*
X107110600Y-101982100D02*
X104033200Y-101982100D01*
X104033200Y-101982100D02*
X103675300Y-102340000D01*
X102500000Y-102340000D02*
X103675300Y-102340000D01*
X113015000Y-83900000D02*
X113015000Y-85025300D01*
X115179500Y-102155000D02*
X115552300Y-101782200D01*
X115552300Y-101782200D02*
X115552300Y-101070600D01*
X123025000Y-103362300D02*
X121953000Y-102290300D01*
X123025000Y-106125000D02*
X123025000Y-103362300D01*
X124710000Y-107810000D02*
X123025000Y-106125000D01*
X125358000Y-107810000D02*
X124710000Y-107810000D01*
X114285000Y-97185000D02*
X114400000Y-97300000D01*
X114285000Y-95100000D02*
X114285000Y-97185000D01*
X101650001Y-93870001D02*
X102500000Y-94720000D01*
X100860600Y-93080600D02*
X101650001Y-93870001D01*
X100860600Y-83839400D02*
X100860600Y-93080600D01*
X103100022Y-81599978D02*
X100860600Y-83839400D01*
X125810278Y-81599978D02*
X103100022Y-81599978D01*
X126985000Y-82774700D02*
X125810278Y-81599978D01*
X126985000Y-83900000D02*
X126985000Y-82774700D01*
X103346811Y-82049989D02*
X101324700Y-84072100D01*
X125715000Y-83900000D02*
X125715000Y-82774700D01*
X101650001Y-91330001D02*
X102500000Y-92180000D01*
X125715000Y-82774700D02*
X124990289Y-82049989D01*
X101324700Y-91004700D02*
X101650001Y-91330001D01*
X101324700Y-84072100D02*
X101324700Y-91004700D01*
X124990289Y-82049989D02*
X103346811Y-82049989D01*
X129525000Y-93974700D02*
X129525000Y-92943800D01*
X129525000Y-95100000D02*
X129525000Y-93974700D01*
X128255000Y-83900000D02*
X128255000Y-82380000D01*
X128255000Y-82380000D02*
X128075000Y-82200000D01*
X137500000Y-87100000D02*
X137500000Y-88275300D01*
X125358000Y-106540000D02*
X125969300Y-106540000D01*
X125969300Y-106540000D02*
X129144300Y-103365000D01*
X129144300Y-103365000D02*
X132034800Y-103365000D01*
X132034800Y-103365000D02*
X136869800Y-98530000D01*
X136869800Y-98530000D02*
X137998400Y-98530000D01*
X137998400Y-98530000D02*
X138675300Y-97853100D01*
X138675300Y-97853100D02*
X138675300Y-89083200D01*
X138675300Y-89083200D02*
X137867400Y-88275300D01*
X137867400Y-88275300D02*
X137500000Y-88275300D01*
X128255000Y-95100000D02*
X128255000Y-93181900D01*
X128255000Y-93181900D02*
X131796900Y-89640000D01*
X131796900Y-89640000D02*
X137500000Y-89640000D01*
X137500000Y-92180000D02*
X136324700Y-92180000D01*
X124445000Y-95100000D02*
X124445000Y-93974700D01*
X124445000Y-93974700D02*
X127421700Y-93974700D01*
X127421700Y-93974700D02*
X127629600Y-94182600D01*
X127629600Y-94182600D02*
X127629600Y-96034800D01*
X127629600Y-96034800D02*
X127820100Y-96225300D01*
X127820100Y-96225300D02*
X132279400Y-96225300D01*
X132279400Y-96225300D02*
X136324700Y-92180000D01*
X126985000Y-96225300D02*
X127435300Y-96675600D01*
X127435300Y-96675600D02*
X134369100Y-96675600D01*
X134369100Y-96675600D02*
X136324700Y-94720000D01*
X137500000Y-94720000D02*
X136324700Y-94720000D01*
X126985000Y-95100000D02*
X126985000Y-96225300D01*
X125715000Y-96225300D02*
X126749700Y-97260000D01*
X126749700Y-97260000D02*
X136324700Y-97260000D01*
X137500000Y-97260000D02*
X136324700Y-97260000D01*
X125715000Y-95100000D02*
X125715000Y-96225300D01*
X116825000Y-95100000D02*
X116825000Y-97074998D01*
X116825000Y-97074998D02*
X116800000Y-97099998D01*
X110564800Y-110439200D02*
X110564800Y-107747000D01*
X111515700Y-111390100D02*
X110564800Y-110439200D01*
X110172800Y-107355000D02*
X109454500Y-107355000D01*
X114718411Y-110349989D02*
X113678300Y-111390100D01*
X110564800Y-107747000D02*
X110172800Y-107355000D01*
X135175700Y-114125700D02*
X131399989Y-110349989D01*
X138729200Y-114125700D02*
X135175700Y-114125700D01*
X139125700Y-101425700D02*
X139125700Y-113729200D01*
X113678300Y-111390100D02*
X111515700Y-111390100D01*
X131399989Y-110349989D02*
X114718411Y-110349989D01*
X139125700Y-113729200D02*
X138729200Y-114125700D01*
X137500000Y-99800000D02*
X139125700Y-101425700D01*
X118095000Y-95100000D02*
X118095000Y-92720010D01*
X118095000Y-92720010D02*
X117874990Y-92500000D01*
X110159700Y-106705000D02*
X109454500Y-106705000D01*
X111015100Y-110252500D02*
X111015100Y-107560400D01*
X111702400Y-110939800D02*
X111015100Y-110252500D01*
X113173500Y-110939800D02*
X111702400Y-110939800D01*
X132303500Y-109895000D02*
X114218300Y-109895000D01*
X138542600Y-113675400D02*
X136083900Y-113675400D01*
X114218300Y-109895000D02*
X113173500Y-110939800D01*
X138675400Y-113542600D02*
X138542600Y-113675400D01*
X138675400Y-102475400D02*
X138675400Y-113542600D01*
X111015100Y-107560400D02*
X110159700Y-106705000D01*
X136083900Y-113675400D02*
X132303500Y-109895000D01*
X138540000Y-102340000D02*
X138675400Y-102475400D01*
X137500000Y-102340000D02*
X138540000Y-102340000D01*
X109454500Y-106055000D02*
X110238400Y-106055000D01*
X110238400Y-106055000D02*
X114069800Y-102223600D01*
X114069800Y-102223600D02*
X114069800Y-101496700D01*
X114069800Y-101496700D02*
X115511700Y-100054800D01*
X115511700Y-100054800D02*
X115583300Y-100054800D01*
X121905000Y-96225300D02*
X121737300Y-96393000D01*
X121737300Y-96393000D02*
X121737300Y-99667500D01*
X121737300Y-99667500D02*
X121350000Y-100054800D01*
X121905000Y-95100000D02*
X121905000Y-96225300D01*
X113138200Y-102083300D02*
X113138200Y-102422000D01*
X113138200Y-102422000D02*
X110155200Y-105405000D01*
X110155200Y-105405000D02*
X109454500Y-105405000D01*
X119375000Y-96225300D02*
X119375000Y-96759000D01*
X119375000Y-96759000D02*
X118471300Y-97662700D01*
X118471300Y-97662700D02*
X118471300Y-99124400D01*
X118471300Y-99124400D02*
X117903700Y-99692000D01*
X117903700Y-99692000D02*
X117903700Y-101897200D01*
X119375000Y-95100000D02*
X119375000Y-96225300D01*
X111745000Y-100395600D02*
X111745000Y-95100000D01*
X109454500Y-102805000D02*
X110163900Y-102805000D01*
X110163900Y-102805000D02*
X111745000Y-101223900D01*
X111745000Y-101223900D02*
X111745000Y-100395600D01*
X111745000Y-100395600D02*
X112692100Y-100395600D01*
X116200000Y-112000000D02*
X115024700Y-112000000D01*
X115024700Y-112000000D02*
X113349300Y-113675400D01*
X101473200Y-113675400D02*
X101313700Y-113515900D01*
X101313700Y-113515900D02*
X101313700Y-101853700D01*
X101313700Y-101853700D02*
X102097400Y-101070000D01*
X102097400Y-101070000D02*
X102949500Y-101070000D01*
X102949500Y-101070000D02*
X104576100Y-99443400D01*
X104576100Y-99443400D02*
X104576100Y-92594500D01*
X104576100Y-92594500D02*
X111745000Y-85425600D01*
X111745000Y-85425600D02*
X111745000Y-83900000D01*
X111350400Y-113675400D02*
X112675400Y-113675400D01*
X110050000Y-112375000D02*
X111350400Y-113675400D01*
X109450000Y-112375000D02*
X110050000Y-112375000D01*
X112675400Y-113675400D02*
X101473200Y-113675400D01*
X113349300Y-113675400D02*
X112675400Y-113675400D01*
X117974300Y-114125700D02*
X118740000Y-113360000D01*
X100863400Y-99693400D02*
X100863400Y-113702500D01*
X102954200Y-98530000D02*
X102026800Y-98530000D01*
X101286600Y-114125700D02*
X117974300Y-114125700D01*
X104125700Y-97358500D02*
X102954200Y-98530000D01*
X100863400Y-113702500D02*
X101286600Y-114125700D01*
X102026800Y-98530000D02*
X100863400Y-99693400D01*
X104125700Y-91374600D02*
X104125700Y-97358500D01*
X118740000Y-113360000D02*
X118740000Y-112000000D01*
X110475000Y-85025300D02*
X104125700Y-91374600D01*
X110475000Y-83900000D02*
X110475000Y-85025300D01*
X120850000Y-106750000D02*
X118925000Y-106750000D01*
X118925000Y-106750000D02*
X118925000Y-106750000D01*
X113015000Y-95100000D02*
X113015000Y-96225300D01*
X113015000Y-96225300D02*
X112486500Y-96753800D01*
X112486500Y-96753800D02*
X112486500Y-98901000D01*
X127225000Y-112400000D02*
X125500000Y-114125000D01*
X127825000Y-112400000D02*
X127225000Y-112400000D01*
X125500000Y-114125000D02*
X123405000Y-114125000D01*
X123405000Y-114125000D02*
X121280000Y-112000000D01*
X115555000Y-85025300D02*
X116180300Y-85650600D01*
X116180300Y-85650600D02*
X116180300Y-96275000D01*
X116180300Y-96275000D02*
X116062100Y-96393200D01*
X116062100Y-96393200D02*
X116062100Y-98217000D01*
X116062100Y-98217000D02*
X116308700Y-98463600D01*
X116308700Y-98463600D02*
X116308700Y-101121500D01*
X116308700Y-101121500D02*
X116277700Y-101152500D01*
X116277700Y-101152500D02*
X116277700Y-102447100D01*
X116277700Y-102447100D02*
X115919800Y-102805000D01*
X115919800Y-102805000D02*
X115179500Y-102805000D01*
X115555000Y-83900000D02*
X115555000Y-85025300D01*
X117450400Y-93880000D02*
X117450400Y-96577398D01*
X116759100Y-101308000D02*
X116728000Y-101339100D01*
X116759100Y-99562800D02*
X116759100Y-101308000D01*
X117525001Y-98796899D02*
X116759100Y-99562800D01*
X117525001Y-96651999D02*
X117525001Y-98796899D01*
X116825000Y-83900000D02*
X116825000Y-93254600D01*
X116728000Y-102644000D02*
X115917000Y-103455000D01*
X116825000Y-93254600D02*
X117450400Y-93880000D01*
X116728000Y-101339100D02*
X116728000Y-102644000D01*
X117450400Y-96577398D02*
X117525001Y-96651999D01*
X115917000Y-103455000D02*
X115179500Y-103455000D01*
X117178300Y-102843700D02*
X115917000Y-104105000D01*
X117237600Y-99721200D02*
X117237600Y-101466400D01*
X118021000Y-98937800D02*
X117237600Y-99721200D01*
X118021000Y-97476100D02*
X118021000Y-98937800D01*
X118732500Y-89932500D02*
X118732500Y-96764600D01*
X118095000Y-83900000D02*
X118095000Y-89295000D01*
X117178300Y-101525700D02*
X117178300Y-102843700D01*
X115917000Y-104105000D02*
X115179500Y-104105000D01*
X118095000Y-89295000D02*
X118732500Y-89932500D01*
X117237600Y-101466400D02*
X117178300Y-101525700D01*
X118732500Y-96764600D02*
X118021000Y-97476100D01*
X115179500Y-104755000D02*
X115979600Y-104755000D01*
X115979600Y-104755000D02*
X117605500Y-103129100D01*
X117605500Y-103129100D02*
X117708300Y-103129100D01*
X117708300Y-103129100D02*
X118794600Y-102042800D01*
X118794600Y-102042800D02*
X118794600Y-99438000D01*
X118794600Y-99438000D02*
X119624300Y-98608300D01*
X119624300Y-98608300D02*
X119624300Y-97535400D01*
X119375000Y-90983293D02*
X119457510Y-91065803D01*
X119375000Y-83900000D02*
X119375000Y-90983293D01*
X115179500Y-105405000D02*
X116031400Y-105405000D01*
X116031400Y-105405000D02*
X116031400Y-105404900D01*
X116031400Y-105404900D02*
X117856900Y-103579400D01*
X117856900Y-103579400D02*
X117997800Y-103579400D01*
X117997800Y-103579400D02*
X119244900Y-102332300D01*
X119244900Y-102332300D02*
X119244900Y-99624600D01*
X119244900Y-99624600D02*
X120349700Y-98519800D01*
X120349700Y-98519800D02*
X120349700Y-96517100D01*
X120099999Y-92300003D02*
X119700000Y-92700002D01*
X120182512Y-92217490D02*
X120099999Y-92300003D01*
X120182512Y-85392488D02*
X120182512Y-92217490D01*
X120625000Y-84950000D02*
X120182512Y-85392488D01*
X120625000Y-83900000D02*
X120625000Y-84950000D01*
X121905000Y-83900000D02*
X121905000Y-87514200D01*
X121905000Y-87514200D02*
X121250300Y-88168900D01*
X121250300Y-88168900D02*
X121250300Y-98256100D01*
X121250300Y-98256100D02*
X119695200Y-99811200D01*
X119695200Y-99811200D02*
X119695200Y-102518900D01*
X119695200Y-102518900D02*
X116699600Y-105514500D01*
X116699600Y-105514500D02*
X116558700Y-105514500D01*
X116558700Y-105514500D02*
X116558700Y-105514600D01*
X116558700Y-105514600D02*
X116018300Y-106055000D01*
X116018300Y-106055000D02*
X115179500Y-106055000D01*
X123175000Y-85025300D02*
X122449800Y-85750500D01*
X122449800Y-85750500D02*
X122449800Y-93834400D01*
X122449800Y-93834400D02*
X122549700Y-93934300D01*
X122549700Y-93934300D02*
X122549700Y-98050100D01*
X122549700Y-98050100D02*
X122187700Y-98412100D01*
X122187700Y-98412100D02*
X122187700Y-100393000D01*
X122187700Y-100393000D02*
X120777400Y-101803300D01*
X120777400Y-101803300D02*
X120777400Y-102084500D01*
X120777400Y-102084500D02*
X116156900Y-106705000D01*
X116156900Y-106705000D02*
X115179500Y-106705000D01*
X123175000Y-83900000D02*
X123175000Y-85025300D01*
X115179500Y-107355000D02*
X116144200Y-107355000D01*
X116144200Y-107355000D02*
X121227700Y-102271500D01*
X121227700Y-102271500D02*
X121227700Y-101989900D01*
X121227700Y-101989900D02*
X122983900Y-100233700D01*
X122983900Y-100233700D02*
X122983900Y-98682700D01*
X122983900Y-98682700D02*
X123175100Y-98491500D01*
X124445000Y-83900000D02*
X124445000Y-92264100D01*
X124445000Y-92264100D02*
X123175100Y-93534000D01*
X125358000Y-105270000D02*
X124951300Y-105270000D01*
X124951300Y-105270000D02*
X123562500Y-103881200D01*
X123562500Y-103881200D02*
X123562500Y-99270600D01*
X123562500Y-99270600D02*
X123916900Y-98916200D01*
X123916900Y-98916200D02*
X123916900Y-97859600D01*
X123916900Y-97859600D02*
X123175000Y-97117700D01*
X123175000Y-97117700D02*
X123175000Y-95100000D01*
D18*
G36*
X133815198Y-113840000D02*
G01*
X126859802Y-113840000D01*
X127066190Y-113633612D01*
X127135149Y-113670472D01*
X127301745Y-113721008D01*
X127474999Y-113738072D01*
X128175001Y-113738072D01*
X128348255Y-113721008D01*
X128514851Y-113670472D01*
X128668387Y-113588405D01*
X128749637Y-113521724D01*
X128773815Y-113551185D01*
X128870506Y-113630537D01*
X128980820Y-113689502D01*
X129100518Y-113725812D01*
X129225000Y-113738072D01*
X129539250Y-113735000D01*
X129698000Y-113576250D01*
X129698000Y-112527000D01*
X129952000Y-112527000D01*
X129952000Y-113576250D01*
X130110750Y-113735000D01*
X130425000Y-113738072D01*
X130549482Y-113725812D01*
X130669180Y-113689502D01*
X130779494Y-113630537D01*
X130876185Y-113551185D01*
X130955537Y-113454494D01*
X131014502Y-113344180D01*
X131050812Y-113224482D01*
X131063072Y-113100000D01*
X131060000Y-112685750D01*
X130901250Y-112527000D01*
X129952000Y-112527000D01*
X129698000Y-112527000D01*
X129678000Y-112527000D01*
X129678000Y-112273000D01*
X129698000Y-112273000D01*
X129698000Y-112253000D01*
X129952000Y-112253000D01*
X129952000Y-112273000D01*
X130901250Y-112273000D01*
X131060000Y-112114250D01*
X131063072Y-111700000D01*
X131050812Y-111575518D01*
X131014502Y-111455820D01*
X130955537Y-111345506D01*
X130876185Y-111248815D01*
X130779494Y-111169463D01*
X130669180Y-111110498D01*
X130667502Y-111109989D01*
X131085188Y-111109989D01*
X133815198Y-113840000D01*
G37*
X133815198Y-113840000D02*
X126859802Y-113840000D01*
X127066190Y-113633612D01*
X127135149Y-113670472D01*
X127301745Y-113721008D01*
X127474999Y-113738072D01*
X128175001Y-113738072D01*
X128348255Y-113721008D01*
X128514851Y-113670472D01*
X128668387Y-113588405D01*
X128749637Y-113521724D01*
X128773815Y-113551185D01*
X128870506Y-113630537D01*
X128980820Y-113689502D01*
X129100518Y-113725812D01*
X129225000Y-113738072D01*
X129539250Y-113735000D01*
X129698000Y-113576250D01*
X129698000Y-112527000D01*
X129952000Y-112527000D01*
X129952000Y-113576250D01*
X130110750Y-113735000D01*
X130425000Y-113738072D01*
X130549482Y-113725812D01*
X130669180Y-113689502D01*
X130779494Y-113630537D01*
X130876185Y-113551185D01*
X130955537Y-113454494D01*
X131014502Y-113344180D01*
X131050812Y-113224482D01*
X131063072Y-113100000D01*
X131060000Y-112685750D01*
X130901250Y-112527000D01*
X129952000Y-112527000D01*
X129698000Y-112527000D01*
X129678000Y-112527000D01*
X129678000Y-112273000D01*
X129698000Y-112273000D01*
X129698000Y-112253000D01*
X129952000Y-112253000D01*
X129952000Y-112273000D01*
X130901250Y-112273000D01*
X131060000Y-112114250D01*
X131063072Y-111700000D01*
X131050812Y-111575518D01*
X131014502Y-111455820D01*
X130955537Y-111345506D01*
X130876185Y-111248815D01*
X130779494Y-111169463D01*
X130669180Y-111110498D01*
X130667502Y-111109989D01*
X131085188Y-111109989D01*
X133815198Y-113840000D01*
G36*
X127135149Y-111129528D02*
G01*
X126981613Y-111211595D01*
X126847038Y-111322038D01*
X126736595Y-111456613D01*
X126654528Y-111610149D01*
X126603992Y-111776745D01*
X126586928Y-111949999D01*
X126586928Y-111963269D01*
X125185199Y-113365000D01*
X124390915Y-113365000D01*
X124586920Y-113271641D01*
X124820269Y-113097588D01*
X125015178Y-112881355D01*
X125164157Y-112631252D01*
X125261481Y-112356891D01*
X125140814Y-112127000D01*
X123947000Y-112127000D01*
X123947000Y-112147000D01*
X123693000Y-112147000D01*
X123693000Y-112127000D01*
X123673000Y-112127000D01*
X123673000Y-111873000D01*
X123693000Y-111873000D01*
X123693000Y-111853000D01*
X123947000Y-111853000D01*
X123947000Y-111873000D01*
X125140814Y-111873000D01*
X125261481Y-111643109D01*
X125164157Y-111368748D01*
X125015178Y-111118645D01*
X125007376Y-111109989D01*
X127199561Y-111109989D01*
X127135149Y-111129528D01*
G37*
X127135149Y-111129528D02*
X126981613Y-111211595D01*
X126847038Y-111322038D01*
X126736595Y-111456613D01*
X126654528Y-111610149D01*
X126603992Y-111776745D01*
X126586928Y-111949999D01*
X126586928Y-111963269D01*
X125185199Y-113365000D01*
X124390915Y-113365000D01*
X124586920Y-113271641D01*
X124820269Y-113097588D01*
X125015178Y-112881355D01*
X125164157Y-112631252D01*
X125261481Y-112356891D01*
X125140814Y-112127000D01*
X123947000Y-112127000D01*
X123947000Y-112147000D01*
X123693000Y-112147000D01*
X123693000Y-112127000D01*
X123673000Y-112127000D01*
X123673000Y-111873000D01*
X123693000Y-111873000D01*
X123693000Y-111853000D01*
X123947000Y-111853000D01*
X123947000Y-111873000D01*
X125140814Y-111873000D01*
X125261481Y-111643109D01*
X125164157Y-111368748D01*
X125015178Y-111118645D01*
X125007376Y-111109989D01*
X127199561Y-111109989D01*
X127135149Y-111129528D01*
G36*
X108093110Y-105648991D02*
G01*
X108117684Y-105730000D01*
X108093110Y-105811009D01*
X108078928Y-105955000D01*
X108078928Y-106155000D01*
X108093110Y-106298991D01*
X108117684Y-106380000D01*
X108093110Y-106461009D01*
X108078928Y-106605000D01*
X108078928Y-106805000D01*
X108093110Y-106948991D01*
X108117684Y-107030000D01*
X108093110Y-107111009D01*
X108078928Y-107255000D01*
X108078928Y-107455000D01*
X108093110Y-107598991D01*
X108104350Y-107636045D01*
X108093132Y-107671117D01*
X108082000Y-107773250D01*
X108240750Y-107932000D01*
X108258259Y-107932000D01*
X108295104Y-107976896D01*
X108406949Y-108068684D01*
X108424378Y-108078000D01*
X108240750Y-108078000D01*
X108082000Y-108236750D01*
X108093132Y-108338883D01*
X108131239Y-108458021D01*
X108191856Y-108567436D01*
X108272654Y-108662922D01*
X108370529Y-108740811D01*
X108481718Y-108798109D01*
X108601948Y-108832614D01*
X108726600Y-108843000D01*
X109168750Y-108840000D01*
X109327500Y-108681250D01*
X109327500Y-108193072D01*
X109581500Y-108193072D01*
X109581500Y-108681250D01*
X109740250Y-108840000D01*
X109804801Y-108840438D01*
X109804800Y-110401877D01*
X109801124Y-110439200D01*
X109804800Y-110476522D01*
X109804800Y-110476532D01*
X109815797Y-110588185D01*
X109844865Y-110684010D01*
X109859254Y-110731446D01*
X109929826Y-110863476D01*
X109942647Y-110879098D01*
X110024799Y-110979201D01*
X110053802Y-111003004D01*
X110173098Y-111122299D01*
X110139851Y-111104528D01*
X109973255Y-111053992D01*
X109800001Y-111036928D01*
X109099999Y-111036928D01*
X108926745Y-111053992D01*
X108760149Y-111104528D01*
X108606613Y-111186595D01*
X108525363Y-111253276D01*
X108501185Y-111223815D01*
X108404494Y-111144463D01*
X108294180Y-111085498D01*
X108174482Y-111049188D01*
X108050000Y-111036928D01*
X107735750Y-111040000D01*
X107577000Y-111198750D01*
X107577000Y-112248000D01*
X107597000Y-112248000D01*
X107597000Y-112502000D01*
X107577000Y-112502000D01*
X107577000Y-112522000D01*
X107323000Y-112522000D01*
X107323000Y-112502000D01*
X106373750Y-112502000D01*
X106215000Y-112660750D01*
X106213112Y-112915400D01*
X103985706Y-112915400D01*
X103985000Y-112785750D01*
X103826250Y-112627000D01*
X102627000Y-112627000D01*
X102627000Y-112647000D01*
X102373000Y-112647000D01*
X102373000Y-112627000D01*
X102353000Y-112627000D01*
X102353000Y-112373000D01*
X102373000Y-112373000D01*
X102373000Y-112353000D01*
X102627000Y-112353000D01*
X102627000Y-112373000D01*
X103826250Y-112373000D01*
X103985000Y-112214250D01*
X103987935Y-111675000D01*
X106211928Y-111675000D01*
X106215000Y-112089250D01*
X106373750Y-112248000D01*
X107323000Y-112248000D01*
X107323000Y-111198750D01*
X107164250Y-111040000D01*
X106850000Y-111036928D01*
X106725518Y-111049188D01*
X106605820Y-111085498D01*
X106495506Y-111144463D01*
X106398815Y-111223815D01*
X106319463Y-111320506D01*
X106260498Y-111430820D01*
X106224188Y-111550518D01*
X106211928Y-111675000D01*
X103987935Y-111675000D01*
X103988072Y-111650000D01*
X103975812Y-111525518D01*
X103939502Y-111405820D01*
X103880537Y-111295506D01*
X103801185Y-111198815D01*
X103704494Y-111119463D01*
X103594180Y-111060498D01*
X103521620Y-111038487D01*
X103653475Y-110906632D01*
X103815990Y-110663411D01*
X103927932Y-110393158D01*
X103985000Y-110106260D01*
X103985000Y-109813740D01*
X103927932Y-109526842D01*
X103815990Y-109256589D01*
X103653475Y-109013368D01*
X103446632Y-108806525D01*
X103272240Y-108690000D01*
X103446632Y-108573475D01*
X103653475Y-108366632D01*
X103782796Y-108173089D01*
X103824286Y-108169003D01*
X103967547Y-108125546D01*
X104099576Y-108054974D01*
X104215301Y-107960001D01*
X104239104Y-107930997D01*
X106655102Y-105515000D01*
X108079913Y-105515000D01*
X108093110Y-105648991D01*
G37*
X108093110Y-105648991D02*
X108117684Y-105730000D01*
X108093110Y-105811009D01*
X108078928Y-105955000D01*
X108078928Y-106155000D01*
X108093110Y-106298991D01*
X108117684Y-106380000D01*
X108093110Y-106461009D01*
X108078928Y-106605000D01*
X108078928Y-106805000D01*
X108093110Y-106948991D01*
X108117684Y-107030000D01*
X108093110Y-107111009D01*
X108078928Y-107255000D01*
X108078928Y-107455000D01*
X108093110Y-107598991D01*
X108104350Y-107636045D01*
X108093132Y-107671117D01*
X108082000Y-107773250D01*
X108240750Y-107932000D01*
X108258259Y-107932000D01*
X108295104Y-107976896D01*
X108406949Y-108068684D01*
X108424378Y-108078000D01*
X108240750Y-108078000D01*
X108082000Y-108236750D01*
X108093132Y-108338883D01*
X108131239Y-108458021D01*
X108191856Y-108567436D01*
X108272654Y-108662922D01*
X108370529Y-108740811D01*
X108481718Y-108798109D01*
X108601948Y-108832614D01*
X108726600Y-108843000D01*
X109168750Y-108840000D01*
X109327500Y-108681250D01*
X109327500Y-108193072D01*
X109581500Y-108193072D01*
X109581500Y-108681250D01*
X109740250Y-108840000D01*
X109804801Y-108840438D01*
X109804800Y-110401877D01*
X109801124Y-110439200D01*
X109804800Y-110476522D01*
X109804800Y-110476532D01*
X109815797Y-110588185D01*
X109844865Y-110684010D01*
X109859254Y-110731446D01*
X109929826Y-110863476D01*
X109942647Y-110879098D01*
X110024799Y-110979201D01*
X110053802Y-111003004D01*
X110173098Y-111122299D01*
X110139851Y-111104528D01*
X109973255Y-111053992D01*
X109800001Y-111036928D01*
X109099999Y-111036928D01*
X108926745Y-111053992D01*
X108760149Y-111104528D01*
X108606613Y-111186595D01*
X108525363Y-111253276D01*
X108501185Y-111223815D01*
X108404494Y-111144463D01*
X108294180Y-111085498D01*
X108174482Y-111049188D01*
X108050000Y-111036928D01*
X107735750Y-111040000D01*
X107577000Y-111198750D01*
X107577000Y-112248000D01*
X107597000Y-112248000D01*
X107597000Y-112502000D01*
X107577000Y-112502000D01*
X107577000Y-112522000D01*
X107323000Y-112522000D01*
X107323000Y-112502000D01*
X106373750Y-112502000D01*
X106215000Y-112660750D01*
X106213112Y-112915400D01*
X103985706Y-112915400D01*
X103985000Y-112785750D01*
X103826250Y-112627000D01*
X102627000Y-112627000D01*
X102627000Y-112647000D01*
X102373000Y-112647000D01*
X102373000Y-112627000D01*
X102353000Y-112627000D01*
X102353000Y-112373000D01*
X102373000Y-112373000D01*
X102373000Y-112353000D01*
X102627000Y-112353000D01*
X102627000Y-112373000D01*
X103826250Y-112373000D01*
X103985000Y-112214250D01*
X103987935Y-111675000D01*
X106211928Y-111675000D01*
X106215000Y-112089250D01*
X106373750Y-112248000D01*
X107323000Y-112248000D01*
X107323000Y-111198750D01*
X107164250Y-111040000D01*
X106850000Y-111036928D01*
X106725518Y-111049188D01*
X106605820Y-111085498D01*
X106495506Y-111144463D01*
X106398815Y-111223815D01*
X106319463Y-111320506D01*
X106260498Y-111430820D01*
X106224188Y-111550518D01*
X106211928Y-111675000D01*
X103987935Y-111675000D01*
X103988072Y-111650000D01*
X103975812Y-111525518D01*
X103939502Y-111405820D01*
X103880537Y-111295506D01*
X103801185Y-111198815D01*
X103704494Y-111119463D01*
X103594180Y-111060498D01*
X103521620Y-111038487D01*
X103653475Y-110906632D01*
X103815990Y-110663411D01*
X103927932Y-110393158D01*
X103985000Y-110106260D01*
X103985000Y-109813740D01*
X103927932Y-109526842D01*
X103815990Y-109256589D01*
X103653475Y-109013368D01*
X103446632Y-108806525D01*
X103272240Y-108690000D01*
X103446632Y-108573475D01*
X103653475Y-108366632D01*
X103782796Y-108173089D01*
X103824286Y-108169003D01*
X103967547Y-108125546D01*
X104099576Y-108054974D01*
X104215301Y-107960001D01*
X104239104Y-107930997D01*
X106655102Y-105515000D01*
X108079913Y-105515000D01*
X108093110Y-105648991D01*
G36*
X110951901Y-111901103D02*
G01*
X110975699Y-111930101D01*
X111091424Y-112025074D01*
X111223453Y-112095646D01*
X111366714Y-112139103D01*
X111478367Y-112150100D01*
X111478375Y-112150100D01*
X111515700Y-112153776D01*
X111553025Y-112150100D01*
X113640978Y-112150100D01*
X113678300Y-112153776D01*
X113715622Y-112150100D01*
X113715633Y-112150100D01*
X113808993Y-112140905D01*
X113034499Y-112915400D01*
X111665202Y-112915400D01*
X110688072Y-111938271D01*
X110688072Y-111924999D01*
X110671008Y-111751745D01*
X110620472Y-111585149D01*
X110602702Y-111551903D01*
X110951901Y-111901103D01*
G37*
X110951901Y-111901103D02*
X110975699Y-111930101D01*
X111091424Y-112025074D01*
X111223453Y-112095646D01*
X111366714Y-112139103D01*
X111478367Y-112150100D01*
X111478375Y-112150100D01*
X111515700Y-112153776D01*
X111553025Y-112150100D01*
X113640978Y-112150100D01*
X113678300Y-112153776D01*
X113715622Y-112150100D01*
X113715633Y-112150100D01*
X113808993Y-112140905D01*
X113034499Y-112915400D01*
X111665202Y-112915400D01*
X110688072Y-111938271D01*
X110688072Y-111924999D01*
X110671008Y-111751745D01*
X110620472Y-111585149D01*
X110602702Y-111551903D01*
X110951901Y-111901103D01*
G36*
X136184010Y-100503411D02*
G01*
X136346525Y-100746632D01*
X136553368Y-100953475D01*
X136727760Y-101070000D01*
X136553368Y-101186525D01*
X136346525Y-101393368D01*
X136184010Y-101636589D01*
X136072068Y-101906842D01*
X136015000Y-102193740D01*
X136015000Y-102486260D01*
X136072068Y-102773158D01*
X136184010Y-103043411D01*
X136346525Y-103286632D01*
X136553368Y-103493475D01*
X136727760Y-103610000D01*
X136553368Y-103726525D01*
X136346525Y-103933368D01*
X136184010Y-104176589D01*
X136072068Y-104446842D01*
X136015000Y-104733740D01*
X136015000Y-105026260D01*
X136072068Y-105313158D01*
X136184010Y-105583411D01*
X136346525Y-105826632D01*
X136553368Y-106033475D01*
X136727760Y-106150000D01*
X136553368Y-106266525D01*
X136346525Y-106473368D01*
X136184010Y-106716589D01*
X136072068Y-106986842D01*
X136015000Y-107273740D01*
X136015000Y-107566260D01*
X136072068Y-107853158D01*
X136184010Y-108123411D01*
X136346525Y-108366632D01*
X136553368Y-108573475D01*
X136727760Y-108690000D01*
X136553368Y-108806525D01*
X136346525Y-109013368D01*
X136184010Y-109256589D01*
X136072068Y-109526842D01*
X136015000Y-109813740D01*
X136015000Y-110106260D01*
X136072068Y-110393158D01*
X136184010Y-110663411D01*
X136346525Y-110906632D01*
X136478380Y-111038487D01*
X136405820Y-111060498D01*
X136295506Y-111119463D01*
X136198815Y-111198815D01*
X136119463Y-111295506D01*
X136060498Y-111405820D01*
X136024188Y-111525518D01*
X136011928Y-111650000D01*
X136015000Y-112214250D01*
X136173750Y-112373000D01*
X137373000Y-112373000D01*
X137373000Y-112353000D01*
X137627000Y-112353000D01*
X137627000Y-112373000D01*
X137647000Y-112373000D01*
X137647000Y-112627000D01*
X137627000Y-112627000D01*
X137627000Y-112647000D01*
X137373000Y-112647000D01*
X137373000Y-112627000D01*
X136173750Y-112627000D01*
X136142026Y-112658724D01*
X132867304Y-109384003D01*
X132843501Y-109354999D01*
X132727776Y-109260026D01*
X132595747Y-109189454D01*
X132452486Y-109145997D01*
X132340833Y-109135000D01*
X132340822Y-109135000D01*
X132303500Y-109131324D01*
X132266178Y-109135000D01*
X129970132Y-109135000D01*
X130070132Y-109035000D01*
X130255752Y-109035000D01*
X130422499Y-109018577D01*
X130636447Y-108953676D01*
X130833623Y-108848284D01*
X130955731Y-108748072D01*
X131133000Y-108748072D01*
X131286745Y-108732929D01*
X131434582Y-108688084D01*
X131570829Y-108615258D01*
X131690251Y-108517251D01*
X131788258Y-108397829D01*
X131861084Y-108261582D01*
X131905929Y-108113745D01*
X131921072Y-107960000D01*
X131921072Y-107660000D01*
X131905929Y-107506255D01*
X131861084Y-107358418D01*
X131789270Y-107224064D01*
X131813537Y-107194494D01*
X131872502Y-107084180D01*
X131908812Y-106964482D01*
X131921072Y-106840000D01*
X131918000Y-106825750D01*
X131759250Y-106667000D01*
X130435000Y-106667000D01*
X130435000Y-106687000D01*
X130181000Y-106687000D01*
X130181000Y-106667000D01*
X128856750Y-106667000D01*
X128698000Y-106825750D01*
X128694928Y-106840000D01*
X128707188Y-106964482D01*
X128743498Y-107084180D01*
X128766273Y-107126789D01*
X128758008Y-107136860D01*
X128029869Y-107865000D01*
X126971072Y-107865000D01*
X126971072Y-107660000D01*
X126955929Y-107506255D01*
X126911084Y-107358418D01*
X126838258Y-107222171D01*
X126799546Y-107175000D01*
X126838258Y-107127829D01*
X126911084Y-106991582D01*
X126955929Y-106843745D01*
X126971072Y-106690000D01*
X126971072Y-106613029D01*
X128014101Y-105570000D01*
X128694928Y-105570000D01*
X128707188Y-105694482D01*
X128743498Y-105814180D01*
X128792043Y-105905000D01*
X128743498Y-105995820D01*
X128707188Y-106115518D01*
X128694928Y-106240000D01*
X128698000Y-106254250D01*
X128856750Y-106413000D01*
X130181000Y-106413000D01*
X130181000Y-105397000D01*
X130435000Y-105397000D01*
X130435000Y-106413000D01*
X131759250Y-106413000D01*
X131918000Y-106254250D01*
X131921072Y-106240000D01*
X131908812Y-106115518D01*
X131872502Y-105995820D01*
X131823957Y-105905000D01*
X131872502Y-105814180D01*
X131908812Y-105694482D01*
X131921072Y-105570000D01*
X131918000Y-105555750D01*
X131759250Y-105397000D01*
X130435000Y-105397000D01*
X130181000Y-105397000D01*
X128856750Y-105397000D01*
X128698000Y-105555750D01*
X128694928Y-105570000D01*
X128014101Y-105570000D01*
X128703758Y-104880344D01*
X128694928Y-104970000D01*
X128698000Y-104984250D01*
X128856750Y-105143000D01*
X130181000Y-105143000D01*
X130181000Y-105123000D01*
X130435000Y-105123000D01*
X130435000Y-105143000D01*
X131759250Y-105143000D01*
X131918000Y-104984250D01*
X131921072Y-104970000D01*
X131908812Y-104845518D01*
X131872502Y-104725820D01*
X131813537Y-104615506D01*
X131789270Y-104585936D01*
X131861084Y-104451582D01*
X131905929Y-104303745D01*
X131921072Y-104150000D01*
X131921072Y-104125000D01*
X131997478Y-104125000D01*
X132034800Y-104128676D01*
X132072122Y-104125000D01*
X132072133Y-104125000D01*
X132183786Y-104114003D01*
X132327047Y-104070546D01*
X132459076Y-103999974D01*
X132574801Y-103905001D01*
X132598604Y-103875997D01*
X136121677Y-100352925D01*
X136184010Y-100503411D01*
G37*
X136184010Y-100503411D02*
X136346525Y-100746632D01*
X136553368Y-100953475D01*
X136727760Y-101070000D01*
X136553368Y-101186525D01*
X136346525Y-101393368D01*
X136184010Y-101636589D01*
X136072068Y-101906842D01*
X136015000Y-102193740D01*
X136015000Y-102486260D01*
X136072068Y-102773158D01*
X136184010Y-103043411D01*
X136346525Y-103286632D01*
X136553368Y-103493475D01*
X136727760Y-103610000D01*
X136553368Y-103726525D01*
X136346525Y-103933368D01*
X136184010Y-104176589D01*
X136072068Y-104446842D01*
X136015000Y-104733740D01*
X136015000Y-105026260D01*
X136072068Y-105313158D01*
X136184010Y-105583411D01*
X136346525Y-105826632D01*
X136553368Y-106033475D01*
X136727760Y-106150000D01*
X136553368Y-106266525D01*
X136346525Y-106473368D01*
X136184010Y-106716589D01*
X136072068Y-106986842D01*
X136015000Y-107273740D01*
X136015000Y-107566260D01*
X136072068Y-107853158D01*
X136184010Y-108123411D01*
X136346525Y-108366632D01*
X136553368Y-108573475D01*
X136727760Y-108690000D01*
X136553368Y-108806525D01*
X136346525Y-109013368D01*
X136184010Y-109256589D01*
X136072068Y-109526842D01*
X136015000Y-109813740D01*
X136015000Y-110106260D01*
X136072068Y-110393158D01*
X136184010Y-110663411D01*
X136346525Y-110906632D01*
X136478380Y-111038487D01*
X136405820Y-111060498D01*
X136295506Y-111119463D01*
X136198815Y-111198815D01*
X136119463Y-111295506D01*
X136060498Y-111405820D01*
X136024188Y-111525518D01*
X136011928Y-111650000D01*
X136015000Y-112214250D01*
X136173750Y-112373000D01*
X137373000Y-112373000D01*
X137373000Y-112353000D01*
X137627000Y-112353000D01*
X137627000Y-112373000D01*
X137647000Y-112373000D01*
X137647000Y-112627000D01*
X137627000Y-112627000D01*
X137627000Y-112647000D01*
X137373000Y-112647000D01*
X137373000Y-112627000D01*
X136173750Y-112627000D01*
X136142026Y-112658724D01*
X132867304Y-109384003D01*
X132843501Y-109354999D01*
X132727776Y-109260026D01*
X132595747Y-109189454D01*
X132452486Y-109145997D01*
X132340833Y-109135000D01*
X132340822Y-109135000D01*
X132303500Y-109131324D01*
X132266178Y-109135000D01*
X129970132Y-109135000D01*
X130070132Y-109035000D01*
X130255752Y-109035000D01*
X130422499Y-109018577D01*
X130636447Y-108953676D01*
X130833623Y-108848284D01*
X130955731Y-108748072D01*
X131133000Y-108748072D01*
X131286745Y-108732929D01*
X131434582Y-108688084D01*
X131570829Y-108615258D01*
X131690251Y-108517251D01*
X131788258Y-108397829D01*
X131861084Y-108261582D01*
X131905929Y-108113745D01*
X131921072Y-107960000D01*
X131921072Y-107660000D01*
X131905929Y-107506255D01*
X131861084Y-107358418D01*
X131789270Y-107224064D01*
X131813537Y-107194494D01*
X131872502Y-107084180D01*
X131908812Y-106964482D01*
X131921072Y-106840000D01*
X131918000Y-106825750D01*
X131759250Y-106667000D01*
X130435000Y-106667000D01*
X130435000Y-106687000D01*
X130181000Y-106687000D01*
X130181000Y-106667000D01*
X128856750Y-106667000D01*
X128698000Y-106825750D01*
X128694928Y-106840000D01*
X128707188Y-106964482D01*
X128743498Y-107084180D01*
X128766273Y-107126789D01*
X128758008Y-107136860D01*
X128029869Y-107865000D01*
X126971072Y-107865000D01*
X126971072Y-107660000D01*
X126955929Y-107506255D01*
X126911084Y-107358418D01*
X126838258Y-107222171D01*
X126799546Y-107175000D01*
X126838258Y-107127829D01*
X126911084Y-106991582D01*
X126955929Y-106843745D01*
X126971072Y-106690000D01*
X126971072Y-106613029D01*
X128014101Y-105570000D01*
X128694928Y-105570000D01*
X128707188Y-105694482D01*
X128743498Y-105814180D01*
X128792043Y-105905000D01*
X128743498Y-105995820D01*
X128707188Y-106115518D01*
X128694928Y-106240000D01*
X128698000Y-106254250D01*
X128856750Y-106413000D01*
X130181000Y-106413000D01*
X130181000Y-105397000D01*
X130435000Y-105397000D01*
X130435000Y-106413000D01*
X131759250Y-106413000D01*
X131918000Y-106254250D01*
X131921072Y-106240000D01*
X131908812Y-106115518D01*
X131872502Y-105995820D01*
X131823957Y-105905000D01*
X131872502Y-105814180D01*
X131908812Y-105694482D01*
X131921072Y-105570000D01*
X131918000Y-105555750D01*
X131759250Y-105397000D01*
X130435000Y-105397000D01*
X130181000Y-105397000D01*
X128856750Y-105397000D01*
X128698000Y-105555750D01*
X128694928Y-105570000D01*
X128014101Y-105570000D01*
X128703758Y-104880344D01*
X128694928Y-104970000D01*
X128698000Y-104984250D01*
X128856750Y-105143000D01*
X130181000Y-105143000D01*
X130181000Y-105123000D01*
X130435000Y-105123000D01*
X130435000Y-105143000D01*
X131759250Y-105143000D01*
X131918000Y-104984250D01*
X131921072Y-104970000D01*
X131908812Y-104845518D01*
X131872502Y-104725820D01*
X131813537Y-104615506D01*
X131789270Y-104585936D01*
X131861084Y-104451582D01*
X131905929Y-104303745D01*
X131921072Y-104150000D01*
X131921072Y-104125000D01*
X131997478Y-104125000D01*
X132034800Y-104128676D01*
X132072122Y-104125000D01*
X132072133Y-104125000D01*
X132183786Y-104114003D01*
X132327047Y-104070546D01*
X132459076Y-103999974D01*
X132574801Y-103905001D01*
X132598604Y-103875997D01*
X136121677Y-100352925D01*
X136184010Y-100503411D01*
G36*
X121462744Y-103207505D02*
G01*
X121651102Y-103285526D01*
X121851061Y-103325300D01*
X121913199Y-103325300D01*
X122265001Y-103677103D01*
X122265000Y-106087677D01*
X122261324Y-106125000D01*
X122265000Y-106162322D01*
X122265000Y-106162332D01*
X122275997Y-106273985D01*
X122303606Y-106365000D01*
X122319454Y-106417246D01*
X122390026Y-106549276D01*
X122424534Y-106591324D01*
X122484999Y-106665001D01*
X122514003Y-106688804D01*
X123004887Y-107179688D01*
X122855752Y-107165000D01*
X122855751Y-107165000D01*
X122800000Y-107159509D01*
X122744249Y-107165000D01*
X122181670Y-107165000D01*
X122188072Y-107100001D01*
X122188072Y-106399999D01*
X122171008Y-106226745D01*
X122120472Y-106060149D01*
X122038405Y-105906613D01*
X121971724Y-105825363D01*
X122001185Y-105801185D01*
X122080537Y-105704494D01*
X122139502Y-105594180D01*
X122175812Y-105474482D01*
X122188072Y-105350000D01*
X122185000Y-105035750D01*
X122026250Y-104877000D01*
X120977000Y-104877000D01*
X120977000Y-104897000D01*
X120723000Y-104897000D01*
X120723000Y-104877000D01*
X120703000Y-104877000D01*
X120703000Y-104623000D01*
X120723000Y-104623000D01*
X120723000Y-104603000D01*
X120977000Y-104603000D01*
X120977000Y-104623000D01*
X122026250Y-104623000D01*
X122185000Y-104464250D01*
X122188072Y-104150000D01*
X122175812Y-104025518D01*
X122139502Y-103905820D01*
X122080537Y-103795506D01*
X122001185Y-103698815D01*
X121904494Y-103619463D01*
X121794180Y-103560498D01*
X121674482Y-103524188D01*
X121550000Y-103511928D01*
X121135750Y-103515000D01*
X120977002Y-103673748D01*
X120977002Y-103597000D01*
X121405048Y-103168954D01*
X121462744Y-103207505D01*
G37*
X121462744Y-103207505D02*
X121651102Y-103285526D01*
X121851061Y-103325300D01*
X121913199Y-103325300D01*
X122265001Y-103677103D01*
X122265000Y-106087677D01*
X122261324Y-106125000D01*
X122265000Y-106162322D01*
X122265000Y-106162332D01*
X122275997Y-106273985D01*
X122303606Y-106365000D01*
X122319454Y-106417246D01*
X122390026Y-106549276D01*
X122424534Y-106591324D01*
X122484999Y-106665001D01*
X122514003Y-106688804D01*
X123004887Y-107179688D01*
X122855752Y-107165000D01*
X122855751Y-107165000D01*
X122800000Y-107159509D01*
X122744249Y-107165000D01*
X122181670Y-107165000D01*
X122188072Y-107100001D01*
X122188072Y-106399999D01*
X122171008Y-106226745D01*
X122120472Y-106060149D01*
X122038405Y-105906613D01*
X121971724Y-105825363D01*
X122001185Y-105801185D01*
X122080537Y-105704494D01*
X122139502Y-105594180D01*
X122175812Y-105474482D01*
X122188072Y-105350000D01*
X122185000Y-105035750D01*
X122026250Y-104877000D01*
X120977000Y-104877000D01*
X120977000Y-104897000D01*
X120723000Y-104897000D01*
X120723000Y-104877000D01*
X120703000Y-104877000D01*
X120703000Y-104623000D01*
X120723000Y-104623000D01*
X120723000Y-104603000D01*
X120977000Y-104603000D01*
X120977000Y-104623000D01*
X122026250Y-104623000D01*
X122185000Y-104464250D01*
X122188072Y-104150000D01*
X122175812Y-104025518D01*
X122139502Y-103905820D01*
X122080537Y-103795506D01*
X122001185Y-103698815D01*
X121904494Y-103619463D01*
X121794180Y-103560498D01*
X121674482Y-103524188D01*
X121550000Y-103511928D01*
X121135750Y-103515000D01*
X120977002Y-103673748D01*
X120977002Y-103597000D01*
X121405048Y-103168954D01*
X121462744Y-103207505D01*
G36*
X125009454Y-96517546D02*
G01*
X125080026Y-96649576D01*
X125143647Y-96727097D01*
X125175000Y-96765301D01*
X125203998Y-96789099D01*
X126185901Y-97771003D01*
X126209699Y-97800001D01*
X126325424Y-97894974D01*
X126457453Y-97965546D01*
X126600714Y-98009003D01*
X126712367Y-98020000D01*
X126712375Y-98020000D01*
X126749700Y-98023676D01*
X126787025Y-98020000D01*
X136221822Y-98020000D01*
X136255137Y-98069861D01*
X131918734Y-102406265D01*
X131908812Y-102305518D01*
X131872502Y-102185820D01*
X131823957Y-102095000D01*
X131872502Y-102004180D01*
X131908812Y-101884482D01*
X131921072Y-101760000D01*
X131918000Y-101745750D01*
X131759250Y-101587000D01*
X130435000Y-101587000D01*
X130435000Y-102603000D01*
X130455000Y-102603000D01*
X130455000Y-102605000D01*
X129181622Y-102605000D01*
X129161316Y-102603000D01*
X130181000Y-102603000D01*
X130181000Y-101587000D01*
X128856750Y-101587000D01*
X128698000Y-101745750D01*
X128694928Y-101760000D01*
X128707188Y-101884482D01*
X128743498Y-102004180D01*
X128792043Y-102095000D01*
X128743498Y-102185820D01*
X128707188Y-102305518D01*
X128694928Y-102430000D01*
X128698000Y-102444250D01*
X128856750Y-102603000D01*
X129127282Y-102603000D01*
X129106976Y-102605000D01*
X129106967Y-102605000D01*
X128995314Y-102615997D01*
X128863390Y-102656015D01*
X128852053Y-102659454D01*
X128720023Y-102730026D01*
X128646977Y-102789974D01*
X128604299Y-102824999D01*
X128580501Y-102853997D01*
X126936516Y-104497983D01*
X126958812Y-104424482D01*
X126971072Y-104300000D01*
X126968000Y-104285750D01*
X126809250Y-104127000D01*
X125485000Y-104127000D01*
X125485000Y-104147000D01*
X125231000Y-104147000D01*
X125231000Y-104127000D01*
X125211000Y-104127000D01*
X125211000Y-103873000D01*
X125231000Y-103873000D01*
X125231000Y-102857000D01*
X125485000Y-102857000D01*
X125485000Y-103873000D01*
X126809250Y-103873000D01*
X126968000Y-103714250D01*
X126971072Y-103700000D01*
X126958812Y-103575518D01*
X126922502Y-103455820D01*
X126873957Y-103365000D01*
X126922502Y-103274180D01*
X126958812Y-103154482D01*
X126971072Y-103030000D01*
X126968000Y-103015750D01*
X126809250Y-102857000D01*
X125485000Y-102857000D01*
X125231000Y-102857000D01*
X125211000Y-102857000D01*
X125211000Y-102603000D01*
X125231000Y-102603000D01*
X125231000Y-102583000D01*
X125485000Y-102583000D01*
X125485000Y-102603000D01*
X126809250Y-102603000D01*
X126968000Y-102444250D01*
X126971072Y-102430000D01*
X126958812Y-102305518D01*
X126922502Y-102185820D01*
X126863537Y-102075506D01*
X126839270Y-102045936D01*
X126911084Y-101911582D01*
X126955929Y-101763745D01*
X126971072Y-101610000D01*
X126971072Y-101310000D01*
X126955929Y-101156255D01*
X126911084Y-101008418D01*
X126839270Y-100874064D01*
X126863537Y-100844494D01*
X126922502Y-100734180D01*
X126958812Y-100614482D01*
X126971072Y-100490000D01*
X126968000Y-100475750D01*
X126809250Y-100317000D01*
X125485000Y-100317000D01*
X125485000Y-100337000D01*
X125231000Y-100337000D01*
X125231000Y-100317000D01*
X125211000Y-100317000D01*
X125211000Y-100063000D01*
X125231000Y-100063000D01*
X125231000Y-99413750D01*
X125485000Y-99413750D01*
X125485000Y-100063000D01*
X126809250Y-100063000D01*
X126832250Y-100040000D01*
X128694928Y-100040000D01*
X128694928Y-100340000D01*
X128710071Y-100493745D01*
X128754916Y-100641582D01*
X128826730Y-100775936D01*
X128802463Y-100805506D01*
X128743498Y-100915820D01*
X128707188Y-101035518D01*
X128694928Y-101160000D01*
X128698000Y-101174250D01*
X128856750Y-101333000D01*
X130181000Y-101333000D01*
X130181000Y-101313000D01*
X130435000Y-101313000D01*
X130435000Y-101333000D01*
X131759250Y-101333000D01*
X131918000Y-101174250D01*
X131921072Y-101160000D01*
X131908812Y-101035518D01*
X131872502Y-100915820D01*
X131813537Y-100805506D01*
X131789270Y-100775936D01*
X131861084Y-100641582D01*
X131905929Y-100493745D01*
X131921072Y-100340000D01*
X131921072Y-100040000D01*
X131905929Y-99886255D01*
X131861084Y-99738418D01*
X131788258Y-99602171D01*
X131690251Y-99482749D01*
X131570829Y-99384742D01*
X131434582Y-99311916D01*
X131286745Y-99267071D01*
X131133000Y-99251928D01*
X129483000Y-99251928D01*
X129329255Y-99267071D01*
X129181418Y-99311916D01*
X129045171Y-99384742D01*
X128925749Y-99482749D01*
X128827742Y-99602171D01*
X128754916Y-99738418D01*
X128710071Y-99886255D01*
X128694928Y-100040000D01*
X126832250Y-100040000D01*
X126968000Y-99904250D01*
X126971072Y-99890000D01*
X126958812Y-99765518D01*
X126922502Y-99645820D01*
X126863537Y-99535506D01*
X126784185Y-99438815D01*
X126687494Y-99359463D01*
X126577180Y-99300498D01*
X126457482Y-99264188D01*
X126333000Y-99251928D01*
X125643750Y-99255000D01*
X125485000Y-99413750D01*
X125231000Y-99413750D01*
X125072250Y-99255000D01*
X124598691Y-99252889D01*
X124622446Y-99208447D01*
X124665903Y-99065186D01*
X124676900Y-98953533D01*
X124676900Y-98953524D01*
X124680576Y-98916201D01*
X124676900Y-98878878D01*
X124676900Y-97896922D01*
X124680576Y-97859599D01*
X124676900Y-97822276D01*
X124676900Y-97822267D01*
X124665903Y-97710614D01*
X124622446Y-97567353D01*
X124601559Y-97528277D01*
X124551874Y-97435323D01*
X124480699Y-97348597D01*
X124456901Y-97319599D01*
X124427902Y-97295801D01*
X123935000Y-96802899D01*
X123935000Y-96499870D01*
X124020518Y-96525812D01*
X124145000Y-96538072D01*
X124745000Y-96538072D01*
X124869482Y-96525812D01*
X124989180Y-96489502D01*
X124999306Y-96484090D01*
X125009454Y-96517546D01*
G37*
X125009454Y-96517546D02*
X125080026Y-96649576D01*
X125143647Y-96727097D01*
X125175000Y-96765301D01*
X125203998Y-96789099D01*
X126185901Y-97771003D01*
X126209699Y-97800001D01*
X126325424Y-97894974D01*
X126457453Y-97965546D01*
X126600714Y-98009003D01*
X126712367Y-98020000D01*
X126712375Y-98020000D01*
X126749700Y-98023676D01*
X126787025Y-98020000D01*
X136221822Y-98020000D01*
X136255137Y-98069861D01*
X131918734Y-102406265D01*
X131908812Y-102305518D01*
X131872502Y-102185820D01*
X131823957Y-102095000D01*
X131872502Y-102004180D01*
X131908812Y-101884482D01*
X131921072Y-101760000D01*
X131918000Y-101745750D01*
X131759250Y-101587000D01*
X130435000Y-101587000D01*
X130435000Y-102603000D01*
X130455000Y-102603000D01*
X130455000Y-102605000D01*
X129181622Y-102605000D01*
X129161316Y-102603000D01*
X130181000Y-102603000D01*
X130181000Y-101587000D01*
X128856750Y-101587000D01*
X128698000Y-101745750D01*
X128694928Y-101760000D01*
X128707188Y-101884482D01*
X128743498Y-102004180D01*
X128792043Y-102095000D01*
X128743498Y-102185820D01*
X128707188Y-102305518D01*
X128694928Y-102430000D01*
X128698000Y-102444250D01*
X128856750Y-102603000D01*
X129127282Y-102603000D01*
X129106976Y-102605000D01*
X129106967Y-102605000D01*
X128995314Y-102615997D01*
X128863390Y-102656015D01*
X128852053Y-102659454D01*
X128720023Y-102730026D01*
X128646977Y-102789974D01*
X128604299Y-102824999D01*
X128580501Y-102853997D01*
X126936516Y-104497983D01*
X126958812Y-104424482D01*
X126971072Y-104300000D01*
X126968000Y-104285750D01*
X126809250Y-104127000D01*
X125485000Y-104127000D01*
X125485000Y-104147000D01*
X125231000Y-104147000D01*
X125231000Y-104127000D01*
X125211000Y-104127000D01*
X125211000Y-103873000D01*
X125231000Y-103873000D01*
X125231000Y-102857000D01*
X125485000Y-102857000D01*
X125485000Y-103873000D01*
X126809250Y-103873000D01*
X126968000Y-103714250D01*
X126971072Y-103700000D01*
X126958812Y-103575518D01*
X126922502Y-103455820D01*
X126873957Y-103365000D01*
X126922502Y-103274180D01*
X126958812Y-103154482D01*
X126971072Y-103030000D01*
X126968000Y-103015750D01*
X126809250Y-102857000D01*
X125485000Y-102857000D01*
X125231000Y-102857000D01*
X125211000Y-102857000D01*
X125211000Y-102603000D01*
X125231000Y-102603000D01*
X125231000Y-102583000D01*
X125485000Y-102583000D01*
X125485000Y-102603000D01*
X126809250Y-102603000D01*
X126968000Y-102444250D01*
X126971072Y-102430000D01*
X126958812Y-102305518D01*
X126922502Y-102185820D01*
X126863537Y-102075506D01*
X126839270Y-102045936D01*
X126911084Y-101911582D01*
X126955929Y-101763745D01*
X126971072Y-101610000D01*
X126971072Y-101310000D01*
X126955929Y-101156255D01*
X126911084Y-101008418D01*
X126839270Y-100874064D01*
X126863537Y-100844494D01*
X126922502Y-100734180D01*
X126958812Y-100614482D01*
X126971072Y-100490000D01*
X126968000Y-100475750D01*
X126809250Y-100317000D01*
X125485000Y-100317000D01*
X125485000Y-100337000D01*
X125231000Y-100337000D01*
X125231000Y-100317000D01*
X125211000Y-100317000D01*
X125211000Y-100063000D01*
X125231000Y-100063000D01*
X125231000Y-99413750D01*
X125485000Y-99413750D01*
X125485000Y-100063000D01*
X126809250Y-100063000D01*
X126832250Y-100040000D01*
X128694928Y-100040000D01*
X128694928Y-100340000D01*
X128710071Y-100493745D01*
X128754916Y-100641582D01*
X128826730Y-100775936D01*
X128802463Y-100805506D01*
X128743498Y-100915820D01*
X128707188Y-101035518D01*
X128694928Y-101160000D01*
X128698000Y-101174250D01*
X128856750Y-101333000D01*
X130181000Y-101333000D01*
X130181000Y-101313000D01*
X130435000Y-101313000D01*
X130435000Y-101333000D01*
X131759250Y-101333000D01*
X131918000Y-101174250D01*
X131921072Y-101160000D01*
X131908812Y-101035518D01*
X131872502Y-100915820D01*
X131813537Y-100805506D01*
X131789270Y-100775936D01*
X131861084Y-100641582D01*
X131905929Y-100493745D01*
X131921072Y-100340000D01*
X131921072Y-100040000D01*
X131905929Y-99886255D01*
X131861084Y-99738418D01*
X131788258Y-99602171D01*
X131690251Y-99482749D01*
X131570829Y-99384742D01*
X131434582Y-99311916D01*
X131286745Y-99267071D01*
X131133000Y-99251928D01*
X129483000Y-99251928D01*
X129329255Y-99267071D01*
X129181418Y-99311916D01*
X129045171Y-99384742D01*
X128925749Y-99482749D01*
X128827742Y-99602171D01*
X128754916Y-99738418D01*
X128710071Y-99886255D01*
X128694928Y-100040000D01*
X126832250Y-100040000D01*
X126968000Y-99904250D01*
X126971072Y-99890000D01*
X126958812Y-99765518D01*
X126922502Y-99645820D01*
X126863537Y-99535506D01*
X126784185Y-99438815D01*
X126687494Y-99359463D01*
X126577180Y-99300498D01*
X126457482Y-99264188D01*
X126333000Y-99251928D01*
X125643750Y-99255000D01*
X125485000Y-99413750D01*
X125231000Y-99413750D01*
X125072250Y-99255000D01*
X124598691Y-99252889D01*
X124622446Y-99208447D01*
X124665903Y-99065186D01*
X124676900Y-98953533D01*
X124676900Y-98953524D01*
X124680576Y-98916201D01*
X124676900Y-98878878D01*
X124676900Y-97896922D01*
X124680576Y-97859599D01*
X124676900Y-97822276D01*
X124676900Y-97822267D01*
X124665903Y-97710614D01*
X124622446Y-97567353D01*
X124601559Y-97528277D01*
X124551874Y-97435323D01*
X124480699Y-97348597D01*
X124456901Y-97319599D01*
X124427902Y-97295801D01*
X123935000Y-96802899D01*
X123935000Y-96499870D01*
X124020518Y-96525812D01*
X124145000Y-96538072D01*
X124745000Y-96538072D01*
X124869482Y-96525812D01*
X124989180Y-96489502D01*
X124999306Y-96484090D01*
X125009454Y-96517546D01*
G36*
X115420300Y-85965402D02*
G01*
X115420301Y-93661928D01*
X115255000Y-93661928D01*
X115130518Y-93674188D01*
X115010820Y-93710498D01*
X114920000Y-93759043D01*
X114829180Y-93710498D01*
X114709482Y-93674188D01*
X114585000Y-93661928D01*
X113985000Y-93661928D01*
X113860518Y-93674188D01*
X113740820Y-93710498D01*
X113650000Y-93759043D01*
X113559180Y-93710498D01*
X113439482Y-93674188D01*
X113315000Y-93661928D01*
X112715000Y-93661928D01*
X112590518Y-93674188D01*
X112470820Y-93710498D01*
X112380000Y-93759043D01*
X112289180Y-93710498D01*
X112169482Y-93674188D01*
X112045000Y-93661928D01*
X111445000Y-93661928D01*
X111320518Y-93674188D01*
X111293019Y-93682530D01*
X111133623Y-93551716D01*
X110936446Y-93446324D01*
X110722498Y-93381423D01*
X110500000Y-93359509D01*
X110277501Y-93381423D01*
X110063553Y-93446324D01*
X109866377Y-93551716D01*
X109693551Y-93693551D01*
X109551716Y-93866377D01*
X109446324Y-94063554D01*
X109381423Y-94277502D01*
X109365000Y-94444249D01*
X109365000Y-96715716D01*
X109228320Y-96920273D01*
X109120147Y-97181426D01*
X109065000Y-97458665D01*
X109065000Y-97741335D01*
X109120147Y-98018574D01*
X109228320Y-98279727D01*
X109385363Y-98514759D01*
X109585241Y-98714637D01*
X109820273Y-98871680D01*
X110081426Y-98979853D01*
X110358665Y-99035000D01*
X110641335Y-99035000D01*
X110918574Y-98979853D01*
X110985000Y-98952338D01*
X110985000Y-100358267D01*
X110981323Y-100395600D01*
X110985000Y-100432932D01*
X110985000Y-100909098D01*
X110496525Y-101397573D01*
X110427282Y-101361891D01*
X110307052Y-101327386D01*
X110182400Y-101317000D01*
X109740250Y-101320000D01*
X109581500Y-101478750D01*
X109581500Y-101966928D01*
X109327500Y-101966928D01*
X109327500Y-101478750D01*
X109168750Y-101320000D01*
X108892600Y-101318126D01*
X108892600Y-101152461D01*
X108852826Y-100952502D01*
X108774805Y-100764144D01*
X108661537Y-100594626D01*
X108617600Y-100550689D01*
X108617600Y-93915801D01*
X114796003Y-87737399D01*
X114825001Y-87713601D01*
X114919974Y-87597876D01*
X114990546Y-87465847D01*
X115034003Y-87322586D01*
X115045000Y-87210933D01*
X115045000Y-87210924D01*
X115048676Y-87173601D01*
X115045000Y-87136278D01*
X115045000Y-85590101D01*
X115420300Y-85965402D01*
G37*
X115420300Y-85965402D02*
X115420301Y-93661928D01*
X115255000Y-93661928D01*
X115130518Y-93674188D01*
X115010820Y-93710498D01*
X114920000Y-93759043D01*
X114829180Y-93710498D01*
X114709482Y-93674188D01*
X114585000Y-93661928D01*
X113985000Y-93661928D01*
X113860518Y-93674188D01*
X113740820Y-93710498D01*
X113650000Y-93759043D01*
X113559180Y-93710498D01*
X113439482Y-93674188D01*
X113315000Y-93661928D01*
X112715000Y-93661928D01*
X112590518Y-93674188D01*
X112470820Y-93710498D01*
X112380000Y-93759043D01*
X112289180Y-93710498D01*
X112169482Y-93674188D01*
X112045000Y-93661928D01*
X111445000Y-93661928D01*
X111320518Y-93674188D01*
X111293019Y-93682530D01*
X111133623Y-93551716D01*
X110936446Y-93446324D01*
X110722498Y-93381423D01*
X110500000Y-93359509D01*
X110277501Y-93381423D01*
X110063553Y-93446324D01*
X109866377Y-93551716D01*
X109693551Y-93693551D01*
X109551716Y-93866377D01*
X109446324Y-94063554D01*
X109381423Y-94277502D01*
X109365000Y-94444249D01*
X109365000Y-96715716D01*
X109228320Y-96920273D01*
X109120147Y-97181426D01*
X109065000Y-97458665D01*
X109065000Y-97741335D01*
X109120147Y-98018574D01*
X109228320Y-98279727D01*
X109385363Y-98514759D01*
X109585241Y-98714637D01*
X109820273Y-98871680D01*
X110081426Y-98979853D01*
X110358665Y-99035000D01*
X110641335Y-99035000D01*
X110918574Y-98979853D01*
X110985000Y-98952338D01*
X110985000Y-100358267D01*
X110981323Y-100395600D01*
X110985000Y-100432932D01*
X110985000Y-100909098D01*
X110496525Y-101397573D01*
X110427282Y-101361891D01*
X110307052Y-101327386D01*
X110182400Y-101317000D01*
X109740250Y-101320000D01*
X109581500Y-101478750D01*
X109581500Y-101966928D01*
X109327500Y-101966928D01*
X109327500Y-101478750D01*
X109168750Y-101320000D01*
X108892600Y-101318126D01*
X108892600Y-101152461D01*
X108852826Y-100952502D01*
X108774805Y-100764144D01*
X108661537Y-100594626D01*
X108617600Y-100550689D01*
X108617600Y-93915801D01*
X114796003Y-87737399D01*
X114825001Y-87713601D01*
X114919974Y-87597876D01*
X114990546Y-87465847D01*
X115034003Y-87322586D01*
X115045000Y-87210933D01*
X115045000Y-87210924D01*
X115048676Y-87173601D01*
X115045000Y-87136278D01*
X115045000Y-85590101D01*
X115420300Y-85965402D01*
G36*
X106350600Y-101222100D02*
G01*
X104070522Y-101222100D01*
X104033199Y-101218424D01*
X103995876Y-101222100D01*
X103995867Y-101222100D01*
X103884214Y-101233097D01*
X103851185Y-101243116D01*
X105087104Y-100007198D01*
X105116101Y-99983401D01*
X105211074Y-99867676D01*
X105281646Y-99735647D01*
X105325103Y-99592386D01*
X105336100Y-99480733D01*
X105336100Y-99480725D01*
X105339776Y-99443400D01*
X105336100Y-99406075D01*
X105336100Y-92909301D01*
X106350601Y-91894800D01*
X106350600Y-101222100D01*
G37*
X106350600Y-101222100D02*
X104070522Y-101222100D01*
X104033199Y-101218424D01*
X103995876Y-101222100D01*
X103995867Y-101222100D01*
X103884214Y-101233097D01*
X103851185Y-101243116D01*
X105087104Y-100007198D01*
X105116101Y-99983401D01*
X105211074Y-99867676D01*
X105281646Y-99735647D01*
X105325103Y-99592386D01*
X105336100Y-99480733D01*
X105336100Y-99480725D01*
X105339776Y-99443400D01*
X105336100Y-99406075D01*
X105336100Y-92909301D01*
X106350601Y-91894800D01*
X106350600Y-101222100D01*
G36*
X136346525Y-90586632D02*
G01*
X136553368Y-90793475D01*
X136727760Y-90910000D01*
X136553368Y-91026525D01*
X136346525Y-91233368D01*
X136217204Y-91426911D01*
X136175714Y-91430997D01*
X136052121Y-91468488D01*
X136032453Y-91474454D01*
X135900423Y-91545026D01*
X135854742Y-91582516D01*
X135784699Y-91639999D01*
X135760901Y-91668997D01*
X131964599Y-95465300D01*
X130463072Y-95465300D01*
X130463072Y-94300000D01*
X130450812Y-94175518D01*
X130414502Y-94055820D01*
X130355537Y-93945506D01*
X130285000Y-93859556D01*
X130285000Y-93647511D01*
X130328937Y-93603574D01*
X130442205Y-93434056D01*
X130520226Y-93245698D01*
X130560000Y-93045739D01*
X130560000Y-92841861D01*
X130520226Y-92641902D01*
X130442205Y-92453544D01*
X130328937Y-92284026D01*
X130278306Y-92233395D01*
X132111702Y-90400000D01*
X136221822Y-90400000D01*
X136346525Y-90586632D01*
G37*
X136346525Y-90586632D02*
X136553368Y-90793475D01*
X136727760Y-90910000D01*
X136553368Y-91026525D01*
X136346525Y-91233368D01*
X136217204Y-91426911D01*
X136175714Y-91430997D01*
X136052121Y-91468488D01*
X136032453Y-91474454D01*
X135900423Y-91545026D01*
X135854742Y-91582516D01*
X135784699Y-91639999D01*
X135760901Y-91668997D01*
X131964599Y-95465300D01*
X130463072Y-95465300D01*
X130463072Y-94300000D01*
X130450812Y-94175518D01*
X130414502Y-94055820D01*
X130355537Y-93945506D01*
X130285000Y-93859556D01*
X130285000Y-93647511D01*
X130328937Y-93603574D01*
X130442205Y-93434056D01*
X130520226Y-93245698D01*
X130560000Y-93045739D01*
X130560000Y-92841861D01*
X130520226Y-92641902D01*
X130442205Y-92453544D01*
X130328937Y-92284026D01*
X130278306Y-92233395D01*
X132111702Y-90400000D01*
X136221822Y-90400000D01*
X136346525Y-90586632D01*
G36*
X138840000Y-83936598D02*
G01*
X138771641Y-83793080D01*
X138597588Y-83559731D01*
X138381355Y-83364822D01*
X138131252Y-83215843D01*
X137856891Y-83118519D01*
X137627000Y-83239186D01*
X137627000Y-84433000D01*
X137647000Y-84433000D01*
X137647000Y-84687000D01*
X137627000Y-84687000D01*
X137627000Y-84707000D01*
X137373000Y-84707000D01*
X137373000Y-84687000D01*
X136179845Y-84687000D01*
X136058524Y-84916890D01*
X136103175Y-85064099D01*
X136228359Y-85326920D01*
X136402412Y-85560269D01*
X136618645Y-85755178D01*
X136735534Y-85824805D01*
X136553368Y-85946525D01*
X136346525Y-86153368D01*
X136184010Y-86396589D01*
X136072068Y-86666842D01*
X136015000Y-86953740D01*
X136015000Y-87246260D01*
X136072068Y-87533158D01*
X136184010Y-87803411D01*
X136346525Y-88046632D01*
X136553368Y-88253475D01*
X136727760Y-88370000D01*
X136553368Y-88486525D01*
X136346525Y-88693368D01*
X136221822Y-88880000D01*
X131834222Y-88880000D01*
X131796899Y-88876324D01*
X131759577Y-88880000D01*
X131759567Y-88880000D01*
X131647914Y-88890997D01*
X131505444Y-88934214D01*
X131504653Y-88934454D01*
X131372623Y-89005026D01*
X131322859Y-89045867D01*
X131256899Y-89099999D01*
X131233101Y-89128997D01*
X127743998Y-92618101D01*
X127715000Y-92641899D01*
X127691202Y-92670897D01*
X127691201Y-92670898D01*
X127620026Y-92757624D01*
X127549454Y-92889654D01*
X127527402Y-92962354D01*
X127505998Y-93032914D01*
X127496549Y-93128854D01*
X127491324Y-93181900D01*
X127494903Y-93218233D01*
X127459033Y-93214700D01*
X127459022Y-93214700D01*
X127421700Y-93211024D01*
X127384378Y-93214700D01*
X124569202Y-93214700D01*
X124956003Y-92827899D01*
X124985001Y-92804101D01*
X125079974Y-92688376D01*
X125150546Y-92556347D01*
X125194003Y-92413086D01*
X125205000Y-92301433D01*
X125205000Y-92301423D01*
X125208676Y-92264100D01*
X125205000Y-92226777D01*
X125205000Y-85299870D01*
X125290518Y-85325812D01*
X125415000Y-85338072D01*
X126015000Y-85338072D01*
X126139482Y-85325812D01*
X126259180Y-85289502D01*
X126350000Y-85240957D01*
X126440820Y-85289502D01*
X126560518Y-85325812D01*
X126685000Y-85338072D01*
X127285000Y-85338072D01*
X127409482Y-85325812D01*
X127529180Y-85289502D01*
X127620000Y-85240957D01*
X127710820Y-85289502D01*
X127830518Y-85325812D01*
X127955000Y-85338072D01*
X128555000Y-85338072D01*
X128679482Y-85325812D01*
X128799180Y-85289502D01*
X128890000Y-85240957D01*
X128980820Y-85289502D01*
X129100518Y-85325812D01*
X129225000Y-85338072D01*
X129239250Y-85335000D01*
X129398000Y-85176250D01*
X129398000Y-84027000D01*
X129652000Y-84027000D01*
X129652000Y-85176250D01*
X129810750Y-85335000D01*
X129825000Y-85338072D01*
X129949482Y-85325812D01*
X130069180Y-85289502D01*
X130179494Y-85230537D01*
X130276185Y-85151185D01*
X130355537Y-85054494D01*
X130414502Y-84944180D01*
X130450812Y-84824482D01*
X130463072Y-84700000D01*
X130460104Y-84203110D01*
X136058524Y-84203110D01*
X136179845Y-84433000D01*
X137373000Y-84433000D01*
X137373000Y-83239186D01*
X137143109Y-83118519D01*
X136868748Y-83215843D01*
X136618645Y-83364822D01*
X136402412Y-83559731D01*
X136228359Y-83793080D01*
X136103175Y-84055901D01*
X136058524Y-84203110D01*
X130460104Y-84203110D01*
X130460000Y-84185750D01*
X130301250Y-84027000D01*
X129652000Y-84027000D01*
X129398000Y-84027000D01*
X129378000Y-84027000D01*
X129378000Y-83773000D01*
X129398000Y-83773000D01*
X129398000Y-82623750D01*
X129652000Y-82623750D01*
X129652000Y-83773000D01*
X130301250Y-83773000D01*
X130460000Y-83614250D01*
X130463072Y-83100000D01*
X130450812Y-82975518D01*
X130414502Y-82855820D01*
X130355537Y-82745506D01*
X130276185Y-82648815D01*
X130179494Y-82569463D01*
X130069180Y-82510498D01*
X129949482Y-82474188D01*
X129825000Y-82461928D01*
X129810750Y-82465000D01*
X129652000Y-82623750D01*
X129398000Y-82623750D01*
X129239250Y-82465000D01*
X129225000Y-82461928D01*
X129100518Y-82474188D01*
X129074147Y-82482188D01*
X129110000Y-82301939D01*
X129110000Y-82098061D01*
X129070226Y-81898102D01*
X129054444Y-81860000D01*
X138840000Y-81860000D01*
X138840000Y-83936598D01*
G37*
X138840000Y-83936598D02*
X138771641Y-83793080D01*
X138597588Y-83559731D01*
X138381355Y-83364822D01*
X138131252Y-83215843D01*
X137856891Y-83118519D01*
X137627000Y-83239186D01*
X137627000Y-84433000D01*
X137647000Y-84433000D01*
X137647000Y-84687000D01*
X137627000Y-84687000D01*
X137627000Y-84707000D01*
X137373000Y-84707000D01*
X137373000Y-84687000D01*
X136179845Y-84687000D01*
X136058524Y-84916890D01*
X136103175Y-85064099D01*
X136228359Y-85326920D01*
X136402412Y-85560269D01*
X136618645Y-85755178D01*
X136735534Y-85824805D01*
X136553368Y-85946525D01*
X136346525Y-86153368D01*
X136184010Y-86396589D01*
X136072068Y-86666842D01*
X136015000Y-86953740D01*
X136015000Y-87246260D01*
X136072068Y-87533158D01*
X136184010Y-87803411D01*
X136346525Y-88046632D01*
X136553368Y-88253475D01*
X136727760Y-88370000D01*
X136553368Y-88486525D01*
X136346525Y-88693368D01*
X136221822Y-88880000D01*
X131834222Y-88880000D01*
X131796899Y-88876324D01*
X131759577Y-88880000D01*
X131759567Y-88880000D01*
X131647914Y-88890997D01*
X131505444Y-88934214D01*
X131504653Y-88934454D01*
X131372623Y-89005026D01*
X131322859Y-89045867D01*
X131256899Y-89099999D01*
X131233101Y-89128997D01*
X127743998Y-92618101D01*
X127715000Y-92641899D01*
X127691202Y-92670897D01*
X127691201Y-92670898D01*
X127620026Y-92757624D01*
X127549454Y-92889654D01*
X127527402Y-92962354D01*
X127505998Y-93032914D01*
X127496549Y-93128854D01*
X127491324Y-93181900D01*
X127494903Y-93218233D01*
X127459033Y-93214700D01*
X127459022Y-93214700D01*
X127421700Y-93211024D01*
X127384378Y-93214700D01*
X124569202Y-93214700D01*
X124956003Y-92827899D01*
X124985001Y-92804101D01*
X125079974Y-92688376D01*
X125150546Y-92556347D01*
X125194003Y-92413086D01*
X125205000Y-92301433D01*
X125205000Y-92301423D01*
X125208676Y-92264100D01*
X125205000Y-92226777D01*
X125205000Y-85299870D01*
X125290518Y-85325812D01*
X125415000Y-85338072D01*
X126015000Y-85338072D01*
X126139482Y-85325812D01*
X126259180Y-85289502D01*
X126350000Y-85240957D01*
X126440820Y-85289502D01*
X126560518Y-85325812D01*
X126685000Y-85338072D01*
X127285000Y-85338072D01*
X127409482Y-85325812D01*
X127529180Y-85289502D01*
X127620000Y-85240957D01*
X127710820Y-85289502D01*
X127830518Y-85325812D01*
X127955000Y-85338072D01*
X128555000Y-85338072D01*
X128679482Y-85325812D01*
X128799180Y-85289502D01*
X128890000Y-85240957D01*
X128980820Y-85289502D01*
X129100518Y-85325812D01*
X129225000Y-85338072D01*
X129239250Y-85335000D01*
X129398000Y-85176250D01*
X129398000Y-84027000D01*
X129652000Y-84027000D01*
X129652000Y-85176250D01*
X129810750Y-85335000D01*
X129825000Y-85338072D01*
X129949482Y-85325812D01*
X130069180Y-85289502D01*
X130179494Y-85230537D01*
X130276185Y-85151185D01*
X130355537Y-85054494D01*
X130414502Y-84944180D01*
X130450812Y-84824482D01*
X130463072Y-84700000D01*
X130460104Y-84203110D01*
X136058524Y-84203110D01*
X136179845Y-84433000D01*
X137373000Y-84433000D01*
X137373000Y-83239186D01*
X137143109Y-83118519D01*
X136868748Y-83215843D01*
X136618645Y-83364822D01*
X136402412Y-83559731D01*
X136228359Y-83793080D01*
X136103175Y-84055901D01*
X136058524Y-84203110D01*
X130460104Y-84203110D01*
X130460000Y-84185750D01*
X130301250Y-84027000D01*
X129652000Y-84027000D01*
X129398000Y-84027000D01*
X129378000Y-84027000D01*
X129378000Y-83773000D01*
X129398000Y-83773000D01*
X129398000Y-82623750D01*
X129652000Y-82623750D01*
X129652000Y-83773000D01*
X130301250Y-83773000D01*
X130460000Y-83614250D01*
X130463072Y-83100000D01*
X130450812Y-82975518D01*
X130414502Y-82855820D01*
X130355537Y-82745506D01*
X130276185Y-82648815D01*
X130179494Y-82569463D01*
X130069180Y-82510498D01*
X129949482Y-82474188D01*
X129825000Y-82461928D01*
X129810750Y-82465000D01*
X129652000Y-82623750D01*
X129398000Y-82623750D01*
X129239250Y-82465000D01*
X129225000Y-82461928D01*
X129100518Y-82474188D01*
X129074147Y-82482188D01*
X129110000Y-82301939D01*
X129110000Y-82098061D01*
X129070226Y-81898102D01*
X129054444Y-81860000D01*
X138840000Y-81860000D01*
X138840000Y-83936598D01*
G36*
X113525001Y-86858797D02*
G01*
X107870600Y-92513199D01*
X107870600Y-91244501D01*
X113525001Y-85590101D01*
X113525001Y-86858797D01*
G37*
X113525001Y-86858797D02*
X107870600Y-92513199D01*
X107870600Y-91244501D01*
X113525001Y-85590101D01*
X113525001Y-86858797D01*
G36*
X123685001Y-91949297D02*
G01*
X123209800Y-92424499D01*
X123209800Y-86065301D01*
X123685000Y-85590102D01*
X123685001Y-91949297D01*
G37*
X123685001Y-91949297D02*
X123209800Y-92424499D01*
X123209800Y-86065301D01*
X123685000Y-85590102D01*
X123685001Y-91949297D01*
G36*
X109585498Y-82855820D02*
G01*
X109549188Y-82975518D01*
X109536928Y-83100000D01*
X109536928Y-84700000D01*
X109549188Y-84824482D01*
X109561251Y-84864247D01*
X103614703Y-90810796D01*
X103585699Y-90834599D01*
X103530571Y-90901774D01*
X103490726Y-90950324D01*
X103448824Y-91028717D01*
X103446632Y-91026525D01*
X103272240Y-90910000D01*
X103446632Y-90793475D01*
X103653475Y-90586632D01*
X103815990Y-90343411D01*
X103927932Y-90073158D01*
X103985000Y-89786260D01*
X103985000Y-89493740D01*
X103927932Y-89206842D01*
X103815990Y-88936589D01*
X103653475Y-88693368D01*
X103446632Y-88486525D01*
X103272240Y-88370000D01*
X103446632Y-88253475D01*
X103653475Y-88046632D01*
X103815990Y-87803411D01*
X103927932Y-87533158D01*
X103985000Y-87246260D01*
X103985000Y-86953740D01*
X103927932Y-86666842D01*
X103815990Y-86396589D01*
X103653475Y-86153368D01*
X103446632Y-85946525D01*
X103264466Y-85824805D01*
X103381355Y-85755178D01*
X103597588Y-85560269D01*
X103771641Y-85326920D01*
X103896825Y-85064099D01*
X103941476Y-84916890D01*
X103820155Y-84687000D01*
X102627000Y-84687000D01*
X102627000Y-84707000D01*
X102373000Y-84707000D01*
X102373000Y-84687000D01*
X102353000Y-84687000D01*
X102353000Y-84433000D01*
X102373000Y-84433000D01*
X102373000Y-84413000D01*
X102627000Y-84413000D01*
X102627000Y-84433000D01*
X103820155Y-84433000D01*
X103941476Y-84203110D01*
X103896825Y-84055901D01*
X103771641Y-83793080D01*
X103597588Y-83559731D01*
X103381355Y-83364822D01*
X103209280Y-83262322D01*
X103661613Y-82809989D01*
X109609996Y-82809989D01*
X109585498Y-82855820D01*
G37*
X109585498Y-82855820D02*
X109549188Y-82975518D01*
X109536928Y-83100000D01*
X109536928Y-84700000D01*
X109549188Y-84824482D01*
X109561251Y-84864247D01*
X103614703Y-90810796D01*
X103585699Y-90834599D01*
X103530571Y-90901774D01*
X103490726Y-90950324D01*
X103448824Y-91028717D01*
X103446632Y-91026525D01*
X103272240Y-90910000D01*
X103446632Y-90793475D01*
X103653475Y-90586632D01*
X103815990Y-90343411D01*
X103927932Y-90073158D01*
X103985000Y-89786260D01*
X103985000Y-89493740D01*
X103927932Y-89206842D01*
X103815990Y-88936589D01*
X103653475Y-88693368D01*
X103446632Y-88486525D01*
X103272240Y-88370000D01*
X103446632Y-88253475D01*
X103653475Y-88046632D01*
X103815990Y-87803411D01*
X103927932Y-87533158D01*
X103985000Y-87246260D01*
X103985000Y-86953740D01*
X103927932Y-86666842D01*
X103815990Y-86396589D01*
X103653475Y-86153368D01*
X103446632Y-85946525D01*
X103264466Y-85824805D01*
X103381355Y-85755178D01*
X103597588Y-85560269D01*
X103771641Y-85326920D01*
X103896825Y-85064099D01*
X103941476Y-84916890D01*
X103820155Y-84687000D01*
X102627000Y-84687000D01*
X102627000Y-84707000D01*
X102373000Y-84707000D01*
X102373000Y-84687000D01*
X102353000Y-84687000D01*
X102353000Y-84433000D01*
X102373000Y-84433000D01*
X102373000Y-84413000D01*
X102627000Y-84413000D01*
X102627000Y-84433000D01*
X103820155Y-84433000D01*
X103941476Y-84203110D01*
X103896825Y-84055901D01*
X103771641Y-83793080D01*
X103597588Y-83559731D01*
X103381355Y-83364822D01*
X103209280Y-83262322D01*
X103661613Y-82809989D01*
X109609996Y-82809989D01*
X109585498Y-82855820D01*
M02*
