G04 #@! TF.GenerationSoftware,KiCad,Pcbnew,5.1.5+dfsg1-2build2*
G04 #@! TF.CreationDate,2022-07-16T15:57:28-04:00*
G04 #@! TF.ProjectId,coco2_3134_64k_static_ram_board,636f636f-325f-4333-9133-345f36346b5f,rev?*
G04 #@! TF.SameCoordinates,Original*
G04 #@! TF.FileFunction,Legend,Top*
G04 #@! TF.FilePolarity,Positive*
%FSLAX46Y46*%
G04 Gerber Fmt 4.6, Leading zero omitted, Abs format (unit mm)*
G04 Created by KiCad (PCBNEW 5.1.5+dfsg1-2build2) date 2022-07-16 15:57:28*
%MOMM*%
%LPD*%
G04 APERTURE LIST*
%ADD10C,0.150000*%
%ADD11C,0.120000*%
G04 APERTURE END LIST*
D10*
X128552380Y-106998809D02*
X128076190Y-107332142D01*
X128552380Y-107570238D02*
X127552380Y-107570238D01*
X127552380Y-107189285D01*
X127600000Y-107094047D01*
X127647619Y-107046428D01*
X127742857Y-106998809D01*
X127885714Y-106998809D01*
X127980952Y-107046428D01*
X128028571Y-107094047D01*
X128076190Y-107189285D01*
X128076190Y-107570238D01*
X128504761Y-106189285D02*
X128552380Y-106284523D01*
X128552380Y-106475000D01*
X128504761Y-106570238D01*
X128409523Y-106617857D01*
X128028571Y-106617857D01*
X127933333Y-106570238D01*
X127885714Y-106475000D01*
X127885714Y-106284523D01*
X127933333Y-106189285D01*
X128028571Y-106141666D01*
X128123809Y-106141666D01*
X128219047Y-106617857D01*
X127885714Y-105808333D02*
X128552380Y-105570238D01*
X127885714Y-105332142D01*
X128457142Y-104951190D02*
X128504761Y-104903571D01*
X128552380Y-104951190D01*
X128504761Y-104998809D01*
X128457142Y-104951190D01*
X128552380Y-104951190D01*
X128552380Y-103189285D02*
X128552380Y-103760714D01*
X128552380Y-103475000D02*
X127552380Y-103475000D01*
X127695238Y-103570238D01*
X127790476Y-103665476D01*
X127838095Y-103760714D01*
X128457142Y-102760714D02*
X128504761Y-102713095D01*
X128552380Y-102760714D01*
X128504761Y-102808333D01*
X128457142Y-102760714D01*
X128552380Y-102760714D01*
X127552380Y-102094047D02*
X127552380Y-101998809D01*
X127600000Y-101903571D01*
X127647619Y-101855952D01*
X127742857Y-101808333D01*
X127933333Y-101760714D01*
X128171428Y-101760714D01*
X128361904Y-101808333D01*
X128457142Y-101855952D01*
X128504761Y-101903571D01*
X128552380Y-101998809D01*
X128552380Y-102094047D01*
X128504761Y-102189285D01*
X128457142Y-102236904D01*
X128361904Y-102284523D01*
X128171428Y-102332142D01*
X127933333Y-102332142D01*
X127742857Y-102284523D01*
X127647619Y-102236904D01*
X127600000Y-102189285D01*
X127552380Y-102094047D01*
X128457142Y-101332142D02*
X128504761Y-101284523D01*
X128552380Y-101332142D01*
X128504761Y-101379761D01*
X128457142Y-101332142D01*
X128552380Y-101332142D01*
X127552380Y-100665476D02*
X127552380Y-100570238D01*
X127600000Y-100475000D01*
X127647619Y-100427380D01*
X127742857Y-100379761D01*
X127933333Y-100332142D01*
X128171428Y-100332142D01*
X128361904Y-100379761D01*
X128457142Y-100427380D01*
X128504761Y-100475000D01*
X128552380Y-100570238D01*
X128552380Y-100665476D01*
X128504761Y-100760714D01*
X128457142Y-100808333D01*
X128361904Y-100855952D01*
X128171428Y-100903571D01*
X127933333Y-100903571D01*
X127742857Y-100855952D01*
X127647619Y-100808333D01*
X127600000Y-100760714D01*
X127552380Y-100665476D01*
X109151190Y-101277380D02*
X108817857Y-100801190D01*
X108579761Y-101277380D02*
X108579761Y-100277380D01*
X108960714Y-100277380D01*
X109055952Y-100325000D01*
X109103571Y-100372619D01*
X109151190Y-100467857D01*
X109151190Y-100610714D01*
X109103571Y-100705952D01*
X109055952Y-100753571D01*
X108960714Y-100801190D01*
X108579761Y-100801190D01*
X109722619Y-101277380D02*
X109627380Y-101229761D01*
X109579761Y-101182142D01*
X109532142Y-101086904D01*
X109532142Y-100801190D01*
X109579761Y-100705952D01*
X109627380Y-100658333D01*
X109722619Y-100610714D01*
X109865476Y-100610714D01*
X109960714Y-100658333D01*
X110008333Y-100705952D01*
X110055952Y-100801190D01*
X110055952Y-101086904D01*
X110008333Y-101182142D01*
X109960714Y-101229761D01*
X109865476Y-101277380D01*
X109722619Y-101277380D01*
X110913095Y-101229761D02*
X110817857Y-101277380D01*
X110627380Y-101277380D01*
X110532142Y-101229761D01*
X110484523Y-101182142D01*
X110436904Y-101086904D01*
X110436904Y-100801190D01*
X110484523Y-100705952D01*
X110532142Y-100658333D01*
X110627380Y-100610714D01*
X110817857Y-100610714D01*
X110913095Y-100658333D01*
X111341666Y-101277380D02*
X111341666Y-100277380D01*
X111436904Y-100896428D02*
X111722619Y-101277380D01*
X111722619Y-100610714D02*
X111341666Y-100991666D01*
X112055952Y-100610714D02*
X112294047Y-101277380D01*
X112532142Y-100610714D02*
X112294047Y-101277380D01*
X112198809Y-101515476D01*
X112151190Y-101563095D01*
X112055952Y-101610714D01*
X113675000Y-101277380D02*
X113675000Y-100277380D01*
X113675000Y-100753571D02*
X114246428Y-100753571D01*
X114246428Y-101277380D02*
X114246428Y-100277380D01*
X114722619Y-101277380D02*
X114722619Y-100610714D01*
X114722619Y-100277380D02*
X114675000Y-100325000D01*
X114722619Y-100372619D01*
X114770238Y-100325000D01*
X114722619Y-100277380D01*
X114722619Y-100372619D01*
X115341666Y-101277380D02*
X115246428Y-101229761D01*
X115198809Y-101134523D01*
X115198809Y-100277380D01*
X115865476Y-101277380D02*
X115770238Y-101229761D01*
X115722619Y-101134523D01*
X115722619Y-100277380D01*
X117502380Y-98152380D02*
X117502380Y-97152380D01*
X117740476Y-97152380D01*
X117883333Y-97200000D01*
X117978571Y-97295238D01*
X118026190Y-97390476D01*
X118073809Y-97580952D01*
X118073809Y-97723809D01*
X118026190Y-97914285D01*
X117978571Y-98009523D01*
X117883333Y-98104761D01*
X117740476Y-98152380D01*
X117502380Y-98152380D01*
X118454761Y-97247619D02*
X118502380Y-97200000D01*
X118597619Y-97152380D01*
X118835714Y-97152380D01*
X118930952Y-97200000D01*
X118978571Y-97247619D01*
X119026190Y-97342857D01*
X119026190Y-97438095D01*
X118978571Y-97580952D01*
X118407142Y-98152380D01*
X119026190Y-98152380D01*
X119407142Y-98104761D02*
X119550000Y-98152380D01*
X119788095Y-98152380D01*
X119883333Y-98104761D01*
X119930952Y-98057142D01*
X119978571Y-97961904D01*
X119978571Y-97866666D01*
X119930952Y-97771428D01*
X119883333Y-97723809D01*
X119788095Y-97676190D01*
X119597619Y-97628571D01*
X119502380Y-97580952D01*
X119454761Y-97533333D01*
X119407142Y-97438095D01*
X119407142Y-97342857D01*
X119454761Y-97247619D01*
X119502380Y-97200000D01*
X119597619Y-97152380D01*
X119835714Y-97152380D01*
X119978571Y-97200000D01*
X121597619Y-97152380D02*
X121407142Y-97152380D01*
X121311904Y-97200000D01*
X121264285Y-97247619D01*
X121169047Y-97390476D01*
X121121428Y-97580952D01*
X121121428Y-97961904D01*
X121169047Y-98057142D01*
X121216666Y-98104761D01*
X121311904Y-98152380D01*
X121502380Y-98152380D01*
X121597619Y-98104761D01*
X121645238Y-98057142D01*
X121692857Y-97961904D01*
X121692857Y-97723809D01*
X121645238Y-97628571D01*
X121597619Y-97580952D01*
X121502380Y-97533333D01*
X121311904Y-97533333D01*
X121216666Y-97580952D01*
X121169047Y-97628571D01*
X121121428Y-97723809D01*
X122550000Y-97485714D02*
X122550000Y-98152380D01*
X122311904Y-97104761D02*
X122073809Y-97819047D01*
X122692857Y-97819047D01*
X123073809Y-98152380D02*
X123073809Y-97152380D01*
X123645238Y-98152380D02*
X123216666Y-97580952D01*
X123645238Y-97152380D02*
X123073809Y-97723809D01*
X126500000Y-95557142D02*
X126452380Y-95604761D01*
X126309523Y-95652380D01*
X126214285Y-95652380D01*
X126071428Y-95604761D01*
X125976190Y-95509523D01*
X125928571Y-95414285D01*
X125880952Y-95223809D01*
X125880952Y-95080952D01*
X125928571Y-94890476D01*
X125976190Y-94795238D01*
X126071428Y-94700000D01*
X126214285Y-94652380D01*
X126309523Y-94652380D01*
X126452380Y-94700000D01*
X126500000Y-94747619D01*
X126880952Y-95366666D02*
X127357142Y-95366666D01*
X126785714Y-95652380D02*
X127119047Y-94652380D01*
X127452380Y-95652380D01*
X128357142Y-95652380D02*
X128023809Y-95176190D01*
X127785714Y-95652380D02*
X127785714Y-94652380D01*
X128166666Y-94652380D01*
X128261904Y-94700000D01*
X128309523Y-94747619D01*
X128357142Y-94842857D01*
X128357142Y-94985714D01*
X128309523Y-95080952D01*
X128261904Y-95128571D01*
X128166666Y-95176190D01*
X127785714Y-95176190D01*
X128642857Y-94652380D02*
X129214285Y-94652380D01*
X128928571Y-95652380D02*
X128928571Y-94652380D01*
D11*
X130500000Y-96200000D02*
X129500000Y-97200000D01*
X129500000Y-95200000D02*
X130500000Y-96200000D01*
X125500000Y-96200000D02*
X130500000Y-96200000D01*
X130500000Y-96200000D02*
X125500000Y-96200000D01*
D10*
X118428571Y-92557142D02*
X118476190Y-92414285D01*
X118523809Y-92366666D01*
X118619047Y-92319047D01*
X118761904Y-92319047D01*
X118857142Y-92366666D01*
X118904761Y-92414285D01*
X118952380Y-92509523D01*
X118952380Y-92890476D01*
X117952380Y-92890476D01*
X117952380Y-92557142D01*
X118000000Y-92461904D01*
X118047619Y-92414285D01*
X118142857Y-92366666D01*
X118238095Y-92366666D01*
X118333333Y-92414285D01*
X118380952Y-92461904D01*
X118428571Y-92557142D01*
X118428571Y-92890476D01*
X118666666Y-91938095D02*
X118666666Y-91461904D01*
X118952380Y-92033333D02*
X117952380Y-91700000D01*
X118952380Y-91366666D01*
X118857142Y-90461904D02*
X118904761Y-90509523D01*
X118952380Y-90652380D01*
X118952380Y-90747619D01*
X118904761Y-90890476D01*
X118809523Y-90985714D01*
X118714285Y-91033333D01*
X118523809Y-91080952D01*
X118380952Y-91080952D01*
X118190476Y-91033333D01*
X118095238Y-90985714D01*
X118000000Y-90890476D01*
X117952380Y-90747619D01*
X117952380Y-90652380D01*
X118000000Y-90509523D01*
X118047619Y-90461904D01*
X118952380Y-90033333D02*
X117952380Y-90033333D01*
X118952380Y-89461904D02*
X118380952Y-89890476D01*
X117952380Y-89461904D02*
X118523809Y-90033333D01*
D11*
X119500000Y-88200000D02*
X120500000Y-89200000D01*
X118500000Y-89200000D02*
X119500000Y-88200000D01*
X119500000Y-88200000D02*
X118500000Y-89200000D01*
X119500000Y-88200000D02*
X119500000Y-93200000D01*
D10*
X109976190Y-82827380D02*
X109785714Y-82827380D01*
X109690476Y-82875000D01*
X109642857Y-82922619D01*
X109547619Y-83065476D01*
X109500000Y-83255952D01*
X109500000Y-83636904D01*
X109547619Y-83732142D01*
X109595238Y-83779761D01*
X109690476Y-83827380D01*
X109880952Y-83827380D01*
X109976190Y-83779761D01*
X110023809Y-83732142D01*
X110071428Y-83636904D01*
X110071428Y-83398809D01*
X110023809Y-83303571D01*
X109976190Y-83255952D01*
X109880952Y-83208333D01*
X109690476Y-83208333D01*
X109595238Y-83255952D01*
X109547619Y-83303571D01*
X109500000Y-83398809D01*
X110928571Y-83160714D02*
X110928571Y-83827380D01*
X110690476Y-82779761D02*
X110452380Y-83494047D01*
X111071428Y-83494047D01*
X111452380Y-83827380D02*
X111452380Y-82827380D01*
X112023809Y-83827380D02*
X111595238Y-83255952D01*
X112023809Y-82827380D02*
X111452380Y-83398809D01*
X113166666Y-83779761D02*
X113309523Y-83827380D01*
X113547619Y-83827380D01*
X113642857Y-83779761D01*
X113690476Y-83732142D01*
X113738095Y-83636904D01*
X113738095Y-83541666D01*
X113690476Y-83446428D01*
X113642857Y-83398809D01*
X113547619Y-83351190D01*
X113357142Y-83303571D01*
X113261904Y-83255952D01*
X113214285Y-83208333D01*
X113166666Y-83113095D01*
X113166666Y-83017857D01*
X113214285Y-82922619D01*
X113261904Y-82875000D01*
X113357142Y-82827380D01*
X113595238Y-82827380D01*
X113738095Y-82875000D01*
X114023809Y-83160714D02*
X114404761Y-83160714D01*
X114166666Y-82827380D02*
X114166666Y-83684523D01*
X114214285Y-83779761D01*
X114309523Y-83827380D01*
X114404761Y-83827380D01*
X115166666Y-83827380D02*
X115166666Y-83303571D01*
X115119047Y-83208333D01*
X115023809Y-83160714D01*
X114833333Y-83160714D01*
X114738095Y-83208333D01*
X115166666Y-83779761D02*
X115071428Y-83827380D01*
X114833333Y-83827380D01*
X114738095Y-83779761D01*
X114690476Y-83684523D01*
X114690476Y-83589285D01*
X114738095Y-83494047D01*
X114833333Y-83446428D01*
X115071428Y-83446428D01*
X115166666Y-83398809D01*
X115500000Y-83160714D02*
X115880952Y-83160714D01*
X115642857Y-82827380D02*
X115642857Y-83684523D01*
X115690476Y-83779761D01*
X115785714Y-83827380D01*
X115880952Y-83827380D01*
X116214285Y-83827380D02*
X116214285Y-83160714D01*
X116214285Y-82827380D02*
X116166666Y-82875000D01*
X116214285Y-82922619D01*
X116261904Y-82875000D01*
X116214285Y-82827380D01*
X116214285Y-82922619D01*
X117119047Y-83779761D02*
X117023809Y-83827380D01*
X116833333Y-83827380D01*
X116738095Y-83779761D01*
X116690476Y-83732142D01*
X116642857Y-83636904D01*
X116642857Y-83351190D01*
X116690476Y-83255952D01*
X116738095Y-83208333D01*
X116833333Y-83160714D01*
X117023809Y-83160714D01*
X117119047Y-83208333D01*
X118880952Y-83827380D02*
X118547619Y-83351190D01*
X118309523Y-83827380D02*
X118309523Y-82827380D01*
X118690476Y-82827380D01*
X118785714Y-82875000D01*
X118833333Y-82922619D01*
X118880952Y-83017857D01*
X118880952Y-83160714D01*
X118833333Y-83255952D01*
X118785714Y-83303571D01*
X118690476Y-83351190D01*
X118309523Y-83351190D01*
X119261904Y-83541666D02*
X119738095Y-83541666D01*
X119166666Y-83827380D02*
X119500000Y-82827380D01*
X119833333Y-83827380D01*
X120166666Y-83827380D02*
X120166666Y-82827380D01*
X120500000Y-83541666D01*
X120833333Y-82827380D01*
X120833333Y-83827380D01*
X122071428Y-83827380D02*
X122071428Y-82827380D01*
X122071428Y-83208333D02*
X122166666Y-83160714D01*
X122357142Y-83160714D01*
X122452380Y-83208333D01*
X122500000Y-83255952D01*
X122547619Y-83351190D01*
X122547619Y-83636904D01*
X122500000Y-83732142D01*
X122452380Y-83779761D01*
X122357142Y-83827380D01*
X122166666Y-83827380D01*
X122071428Y-83779761D01*
X123119047Y-83827380D02*
X123023809Y-83779761D01*
X122976190Y-83732142D01*
X122928571Y-83636904D01*
X122928571Y-83351190D01*
X122976190Y-83255952D01*
X123023809Y-83208333D01*
X123119047Y-83160714D01*
X123261904Y-83160714D01*
X123357142Y-83208333D01*
X123404761Y-83255952D01*
X123452380Y-83351190D01*
X123452380Y-83636904D01*
X123404761Y-83732142D01*
X123357142Y-83779761D01*
X123261904Y-83827380D01*
X123119047Y-83827380D01*
X124309523Y-83827380D02*
X124309523Y-83303571D01*
X124261904Y-83208333D01*
X124166666Y-83160714D01*
X123976190Y-83160714D01*
X123880952Y-83208333D01*
X124309523Y-83779761D02*
X124214285Y-83827380D01*
X123976190Y-83827380D01*
X123880952Y-83779761D01*
X123833333Y-83684523D01*
X123833333Y-83589285D01*
X123880952Y-83494047D01*
X123976190Y-83446428D01*
X124214285Y-83446428D01*
X124309523Y-83398809D01*
X124785714Y-83827380D02*
X124785714Y-83160714D01*
X124785714Y-83351190D02*
X124833333Y-83255952D01*
X124880952Y-83208333D01*
X124976190Y-83160714D01*
X125071428Y-83160714D01*
X125833333Y-83827380D02*
X125833333Y-82827380D01*
X125833333Y-83779761D02*
X125738095Y-83827380D01*
X125547619Y-83827380D01*
X125452380Y-83779761D01*
X125404761Y-83732142D01*
X125357142Y-83636904D01*
X125357142Y-83351190D01*
X125404761Y-83255952D01*
X125452380Y-83208333D01*
X125547619Y-83160714D01*
X125738095Y-83160714D01*
X125833333Y-83208333D01*
X126928571Y-83160714D02*
X127309523Y-83160714D01*
X127071428Y-83827380D02*
X127071428Y-82970238D01*
X127119047Y-82875000D01*
X127214285Y-82827380D01*
X127309523Y-82827380D01*
X127785714Y-83827380D02*
X127690476Y-83779761D01*
X127642857Y-83732142D01*
X127595238Y-83636904D01*
X127595238Y-83351190D01*
X127642857Y-83255952D01*
X127690476Y-83208333D01*
X127785714Y-83160714D01*
X127928571Y-83160714D01*
X128023809Y-83208333D01*
X128071428Y-83255952D01*
X128119047Y-83351190D01*
X128119047Y-83636904D01*
X128071428Y-83732142D01*
X128023809Y-83779761D01*
X127928571Y-83827380D01*
X127785714Y-83827380D01*
X128547619Y-83827380D02*
X128547619Y-83160714D01*
X128547619Y-83351190D02*
X128595238Y-83255952D01*
X128642857Y-83208333D01*
X128738095Y-83160714D01*
X128833333Y-83160714D01*
X108404761Y-84810714D02*
X108785714Y-84810714D01*
X108547619Y-84477380D02*
X108547619Y-85334523D01*
X108595238Y-85429761D01*
X108690476Y-85477380D01*
X108785714Y-85477380D01*
X109119047Y-85477380D02*
X109119047Y-84477380D01*
X109547619Y-85477380D02*
X109547619Y-84953571D01*
X109500000Y-84858333D01*
X109404761Y-84810714D01*
X109261904Y-84810714D01*
X109166666Y-84858333D01*
X109119047Y-84905952D01*
X110404761Y-85429761D02*
X110309523Y-85477380D01*
X110119047Y-85477380D01*
X110023809Y-85429761D01*
X109976190Y-85334523D01*
X109976190Y-84953571D01*
X110023809Y-84858333D01*
X110119047Y-84810714D01*
X110309523Y-84810714D01*
X110404761Y-84858333D01*
X110452380Y-84953571D01*
X110452380Y-85048809D01*
X109976190Y-85144047D01*
X112214285Y-85382142D02*
X112166666Y-85429761D01*
X112023809Y-85477380D01*
X111928571Y-85477380D01*
X111785714Y-85429761D01*
X111690476Y-85334523D01*
X111642857Y-85239285D01*
X111595238Y-85048809D01*
X111595238Y-84905952D01*
X111642857Y-84715476D01*
X111690476Y-84620238D01*
X111785714Y-84525000D01*
X111928571Y-84477380D01*
X112023809Y-84477380D01*
X112166666Y-84525000D01*
X112214285Y-84572619D01*
X112785714Y-85477380D02*
X112690476Y-85429761D01*
X112642857Y-85382142D01*
X112595238Y-85286904D01*
X112595238Y-85001190D01*
X112642857Y-84905952D01*
X112690476Y-84858333D01*
X112785714Y-84810714D01*
X112928571Y-84810714D01*
X113023809Y-84858333D01*
X113071428Y-84905952D01*
X113119047Y-85001190D01*
X113119047Y-85286904D01*
X113071428Y-85382142D01*
X113023809Y-85429761D01*
X112928571Y-85477380D01*
X112785714Y-85477380D01*
X114119047Y-85382142D02*
X114071428Y-85429761D01*
X113928571Y-85477380D01*
X113833333Y-85477380D01*
X113690476Y-85429761D01*
X113595238Y-85334523D01*
X113547619Y-85239285D01*
X113500000Y-85048809D01*
X113500000Y-84905952D01*
X113547619Y-84715476D01*
X113595238Y-84620238D01*
X113690476Y-84525000D01*
X113833333Y-84477380D01*
X113928571Y-84477380D01*
X114071428Y-84525000D01*
X114119047Y-84572619D01*
X114690476Y-85477380D02*
X114595238Y-85429761D01*
X114547619Y-85382142D01*
X114500000Y-85286904D01*
X114500000Y-85001190D01*
X114547619Y-84905952D01*
X114595238Y-84858333D01*
X114690476Y-84810714D01*
X114833333Y-84810714D01*
X114928571Y-84858333D01*
X114976190Y-84905952D01*
X115023809Y-85001190D01*
X115023809Y-85286904D01*
X114976190Y-85382142D01*
X114928571Y-85429761D01*
X114833333Y-85477380D01*
X114690476Y-85477380D01*
X116166666Y-84572619D02*
X116214285Y-84525000D01*
X116309523Y-84477380D01*
X116547619Y-84477380D01*
X116642857Y-84525000D01*
X116690476Y-84572619D01*
X116738095Y-84667857D01*
X116738095Y-84763095D01*
X116690476Y-84905952D01*
X116119047Y-85477380D01*
X116738095Y-85477380D01*
X117928571Y-85477380D02*
X117928571Y-84810714D01*
X117928571Y-84905952D02*
X117976190Y-84858333D01*
X118071428Y-84810714D01*
X118214285Y-84810714D01*
X118309523Y-84858333D01*
X118357142Y-84953571D01*
X118357142Y-85477380D01*
X118357142Y-84953571D02*
X118404761Y-84858333D01*
X118500000Y-84810714D01*
X118642857Y-84810714D01*
X118738095Y-84858333D01*
X118785714Y-84953571D01*
X118785714Y-85477380D01*
X119404761Y-85477380D02*
X119309523Y-85429761D01*
X119261904Y-85382142D01*
X119214285Y-85286904D01*
X119214285Y-85001190D01*
X119261904Y-84905952D01*
X119309523Y-84858333D01*
X119404761Y-84810714D01*
X119547619Y-84810714D01*
X119642857Y-84858333D01*
X119690476Y-84905952D01*
X119738095Y-85001190D01*
X119738095Y-85286904D01*
X119690476Y-85382142D01*
X119642857Y-85429761D01*
X119547619Y-85477380D01*
X119404761Y-85477380D01*
X120595238Y-85477380D02*
X120595238Y-84477380D01*
X120595238Y-85429761D02*
X120500000Y-85477380D01*
X120309523Y-85477380D01*
X120214285Y-85429761D01*
X120166666Y-85382142D01*
X120119047Y-85286904D01*
X120119047Y-85001190D01*
X120166666Y-84905952D01*
X120214285Y-84858333D01*
X120309523Y-84810714D01*
X120500000Y-84810714D01*
X120595238Y-84858333D01*
X121452380Y-85429761D02*
X121357142Y-85477380D01*
X121166666Y-85477380D01*
X121071428Y-85429761D01*
X121023809Y-85334523D01*
X121023809Y-84953571D01*
X121071428Y-84858333D01*
X121166666Y-84810714D01*
X121357142Y-84810714D01*
X121452380Y-84858333D01*
X121500000Y-84953571D01*
X121500000Y-85048809D01*
X121023809Y-85144047D01*
X122071428Y-85477380D02*
X121976190Y-85429761D01*
X121928571Y-85334523D01*
X121928571Y-84477380D01*
X123166666Y-84572619D02*
X123214285Y-84525000D01*
X123309523Y-84477380D01*
X123547619Y-84477380D01*
X123642857Y-84525000D01*
X123690476Y-84572619D01*
X123738095Y-84667857D01*
X123738095Y-84763095D01*
X123690476Y-84905952D01*
X123119047Y-85477380D01*
X123738095Y-85477380D01*
X124595238Y-84477380D02*
X124404761Y-84477380D01*
X124309523Y-84525000D01*
X124261904Y-84572619D01*
X124166666Y-84715476D01*
X124119047Y-84905952D01*
X124119047Y-85286904D01*
X124166666Y-85382142D01*
X124214285Y-85429761D01*
X124309523Y-85477380D01*
X124500000Y-85477380D01*
X124595238Y-85429761D01*
X124642857Y-85382142D01*
X124690476Y-85286904D01*
X124690476Y-85048809D01*
X124642857Y-84953571D01*
X124595238Y-84905952D01*
X124500000Y-84858333D01*
X124309523Y-84858333D01*
X124214285Y-84905952D01*
X124166666Y-84953571D01*
X124119047Y-85048809D01*
X125119047Y-85096428D02*
X125880952Y-85096428D01*
X126261904Y-84477380D02*
X126880952Y-84477380D01*
X126547619Y-84858333D01*
X126690476Y-84858333D01*
X126785714Y-84905952D01*
X126833333Y-84953571D01*
X126880952Y-85048809D01*
X126880952Y-85286904D01*
X126833333Y-85382142D01*
X126785714Y-85429761D01*
X126690476Y-85477380D01*
X126404761Y-85477380D01*
X126309523Y-85429761D01*
X126261904Y-85382142D01*
X127833333Y-85477380D02*
X127261904Y-85477380D01*
X127547619Y-85477380D02*
X127547619Y-84477380D01*
X127452380Y-84620238D01*
X127357142Y-84715476D01*
X127261904Y-84763095D01*
X128166666Y-84477380D02*
X128785714Y-84477380D01*
X128452380Y-84858333D01*
X128595238Y-84858333D01*
X128690476Y-84905952D01*
X128738095Y-84953571D01*
X128785714Y-85048809D01*
X128785714Y-85286904D01*
X128738095Y-85382142D01*
X128690476Y-85429761D01*
X128595238Y-85477380D01*
X128309523Y-85477380D01*
X128214285Y-85429761D01*
X128166666Y-85382142D01*
X129642857Y-84810714D02*
X129642857Y-85477380D01*
X129404761Y-84429761D02*
X129166666Y-85144047D01*
X129785714Y-85144047D01*
X132833332Y-110615560D02*
X132833332Y-109615560D01*
X133166666Y-110329846D01*
X133499999Y-109615560D01*
X133499999Y-110615560D01*
X133928570Y-110329846D02*
X134404761Y-110329846D01*
X133833332Y-110615560D02*
X134166666Y-109615560D01*
X134499999Y-110615560D01*
X134738094Y-109615560D02*
X135404761Y-109615560D01*
X134976189Y-110615560D01*
X132833332Y-108078742D02*
X132833332Y-107078742D01*
X133166666Y-107793028D01*
X133499999Y-107078742D01*
X133499999Y-108078742D01*
X133928570Y-107793028D02*
X134404761Y-107793028D01*
X133833332Y-108078742D02*
X134166666Y-107078742D01*
X134499999Y-108078742D01*
X134738094Y-107078742D02*
X135357142Y-107078742D01*
X135023808Y-107459695D01*
X135166666Y-107459695D01*
X135261904Y-107507314D01*
X135309523Y-107554933D01*
X135357142Y-107650171D01*
X135357142Y-107888266D01*
X135309523Y-107983504D01*
X135261904Y-108031123D01*
X135166666Y-108078742D01*
X134880951Y-108078742D01*
X134785713Y-108031123D01*
X134738094Y-107983504D01*
X132833332Y-105541924D02*
X132833332Y-104541924D01*
X133166666Y-105256210D01*
X133499999Y-104541924D01*
X133499999Y-105541924D01*
X133928570Y-105256210D02*
X134404761Y-105256210D01*
X133833332Y-105541924D02*
X134166666Y-104541924D01*
X134499999Y-105541924D01*
X134785713Y-104637163D02*
X134833332Y-104589544D01*
X134928570Y-104541924D01*
X135166666Y-104541924D01*
X135261904Y-104589544D01*
X135309523Y-104637163D01*
X135357142Y-104732401D01*
X135357142Y-104827639D01*
X135309523Y-104970496D01*
X134738094Y-105541924D01*
X135357142Y-105541924D01*
X132833332Y-103005106D02*
X132833332Y-102005106D01*
X133166666Y-102719392D01*
X133499999Y-102005106D01*
X133499999Y-103005106D01*
X133928570Y-102719392D02*
X134404761Y-102719392D01*
X133833332Y-103005106D02*
X134166666Y-102005106D01*
X134499999Y-103005106D01*
X135357142Y-103005106D02*
X134785713Y-103005106D01*
X135071428Y-103005106D02*
X135071428Y-102005106D01*
X134976189Y-102147964D01*
X134880951Y-102243202D01*
X134785713Y-102290821D01*
X132833332Y-100468288D02*
X132833332Y-99468288D01*
X133166666Y-100182574D01*
X133499999Y-99468288D01*
X133499999Y-100468288D01*
X133928570Y-100182574D02*
X134404761Y-100182574D01*
X133833332Y-100468288D02*
X134166666Y-99468288D01*
X134499999Y-100468288D01*
X135023808Y-99468288D02*
X135119047Y-99468288D01*
X135214285Y-99515908D01*
X135261904Y-99563527D01*
X135309523Y-99658765D01*
X135357142Y-99849241D01*
X135357142Y-100087336D01*
X135309523Y-100277812D01*
X135261904Y-100373050D01*
X135214285Y-100420669D01*
X135119047Y-100468288D01*
X135023808Y-100468288D01*
X134928570Y-100420669D01*
X134880951Y-100373050D01*
X134833332Y-100277812D01*
X134785713Y-100087336D01*
X134785713Y-99849241D01*
X134833332Y-99658765D01*
X134880951Y-99563527D01*
X134928570Y-99515908D01*
X135023808Y-99468288D01*
X132833333Y-97931470D02*
X132833333Y-96931470D01*
X133071428Y-96931470D01*
X133214285Y-96979090D01*
X133309523Y-97074328D01*
X133357142Y-97169566D01*
X133404761Y-97360042D01*
X133404761Y-97502899D01*
X133357142Y-97693375D01*
X133309523Y-97788613D01*
X133214285Y-97883851D01*
X133071428Y-97931470D01*
X132833333Y-97931470D01*
X134499999Y-98026709D02*
X134404761Y-97979090D01*
X134309523Y-97883851D01*
X134166666Y-97740994D01*
X134071428Y-97693375D01*
X133976190Y-97693375D01*
X134023809Y-97931470D02*
X133928571Y-97883851D01*
X133833333Y-97788613D01*
X133785714Y-97598137D01*
X133785714Y-97264804D01*
X133833333Y-97074328D01*
X133928571Y-96979090D01*
X134023809Y-96931470D01*
X134214285Y-96931470D01*
X134309523Y-96979090D01*
X134404761Y-97074328D01*
X134452380Y-97264804D01*
X134452380Y-97598137D01*
X134404761Y-97788613D01*
X134309523Y-97883851D01*
X134214285Y-97931470D01*
X134023809Y-97931470D01*
X135309523Y-96931470D02*
X135119047Y-96931470D01*
X135023809Y-96979090D01*
X134976190Y-97026709D01*
X134880952Y-97169566D01*
X134833333Y-97360042D01*
X134833333Y-97740994D01*
X134880952Y-97836232D01*
X134928571Y-97883851D01*
X135023809Y-97931470D01*
X135214285Y-97931470D01*
X135309523Y-97883851D01*
X135357142Y-97836232D01*
X135404761Y-97740994D01*
X135404761Y-97502899D01*
X135357142Y-97407661D01*
X135309523Y-97360042D01*
X135214285Y-97312423D01*
X135023809Y-97312423D01*
X134928571Y-97360042D01*
X134880952Y-97407661D01*
X134833333Y-97502899D01*
X132833333Y-95394652D02*
X132833333Y-94394652D01*
X133071428Y-94394652D01*
X133214285Y-94442272D01*
X133309523Y-94537510D01*
X133357142Y-94632748D01*
X133404761Y-94823224D01*
X133404761Y-94966081D01*
X133357142Y-95156557D01*
X133309523Y-95251795D01*
X133214285Y-95347033D01*
X133071428Y-95394652D01*
X132833333Y-95394652D01*
X134499999Y-95489891D02*
X134404761Y-95442272D01*
X134309523Y-95347033D01*
X134166666Y-95204176D01*
X134071428Y-95156557D01*
X133976190Y-95156557D01*
X134023809Y-95394652D02*
X133928571Y-95347033D01*
X133833333Y-95251795D01*
X133785714Y-95061319D01*
X133785714Y-94727986D01*
X133833333Y-94537510D01*
X133928571Y-94442272D01*
X134023809Y-94394652D01*
X134214285Y-94394652D01*
X134309523Y-94442272D01*
X134404761Y-94537510D01*
X134452380Y-94727986D01*
X134452380Y-95061319D01*
X134404761Y-95251795D01*
X134309523Y-95347033D01*
X134214285Y-95394652D01*
X134023809Y-95394652D01*
X135357142Y-94394652D02*
X134880952Y-94394652D01*
X134833333Y-94870843D01*
X134880952Y-94823224D01*
X134976190Y-94775605D01*
X135214285Y-94775605D01*
X135309523Y-94823224D01*
X135357142Y-94870843D01*
X135404761Y-94966081D01*
X135404761Y-95204176D01*
X135357142Y-95299414D01*
X135309523Y-95347033D01*
X135214285Y-95394652D01*
X134976190Y-95394652D01*
X134880952Y-95347033D01*
X134833333Y-95299414D01*
X132833333Y-92857834D02*
X132833333Y-91857834D01*
X133071428Y-91857834D01*
X133214285Y-91905454D01*
X133309523Y-92000692D01*
X133357142Y-92095930D01*
X133404761Y-92286406D01*
X133404761Y-92429263D01*
X133357142Y-92619739D01*
X133309523Y-92714977D01*
X133214285Y-92810215D01*
X133071428Y-92857834D01*
X132833333Y-92857834D01*
X134499999Y-92953073D02*
X134404761Y-92905454D01*
X134309523Y-92810215D01*
X134166666Y-92667358D01*
X134071428Y-92619739D01*
X133976190Y-92619739D01*
X134023809Y-92857834D02*
X133928571Y-92810215D01*
X133833333Y-92714977D01*
X133785714Y-92524501D01*
X133785714Y-92191168D01*
X133833333Y-92000692D01*
X133928571Y-91905454D01*
X134023809Y-91857834D01*
X134214285Y-91857834D01*
X134309523Y-91905454D01*
X134404761Y-92000692D01*
X134452380Y-92191168D01*
X134452380Y-92524501D01*
X134404761Y-92714977D01*
X134309523Y-92810215D01*
X134214285Y-92857834D01*
X134023809Y-92857834D01*
X134785714Y-91857834D02*
X135452380Y-91857834D01*
X135023809Y-92857834D01*
X132833333Y-90321016D02*
X132833333Y-89321016D01*
X133071428Y-89321016D01*
X133214285Y-89368636D01*
X133309523Y-89463874D01*
X133357142Y-89559112D01*
X133404761Y-89749588D01*
X133404761Y-89892445D01*
X133357142Y-90082921D01*
X133309523Y-90178159D01*
X133214285Y-90273397D01*
X133071428Y-90321016D01*
X132833333Y-90321016D01*
X134499999Y-90416255D02*
X134404761Y-90368636D01*
X134309523Y-90273397D01*
X134166666Y-90130540D01*
X134071428Y-90082921D01*
X133976190Y-90082921D01*
X134023809Y-90321016D02*
X133928571Y-90273397D01*
X133833333Y-90178159D01*
X133785714Y-89987683D01*
X133785714Y-89654350D01*
X133833333Y-89463874D01*
X133928571Y-89368636D01*
X134023809Y-89321016D01*
X134214285Y-89321016D01*
X134309523Y-89368636D01*
X134404761Y-89463874D01*
X134452380Y-89654350D01*
X134452380Y-89987683D01*
X134404761Y-90178159D01*
X134309523Y-90273397D01*
X134214285Y-90321016D01*
X134023809Y-90321016D01*
X135309523Y-89654350D02*
X135309523Y-90321016D01*
X135071428Y-89273397D02*
X134833333Y-89987683D01*
X135452380Y-89987683D01*
X132595238Y-86416818D02*
X133595238Y-86416818D01*
X133404761Y-87688960D02*
X133357142Y-87736579D01*
X133214285Y-87784198D01*
X133119047Y-87784198D01*
X132976190Y-87736579D01*
X132880952Y-87641341D01*
X132833333Y-87546103D01*
X132785714Y-87355627D01*
X132785714Y-87212770D01*
X132833333Y-87022294D01*
X132880952Y-86927056D01*
X132976190Y-86831818D01*
X133119047Y-86784198D01*
X133214285Y-86784198D01*
X133357142Y-86831818D01*
X133404761Y-86879437D01*
X133595238Y-86416818D02*
X134452380Y-86416818D01*
X133785714Y-87498484D02*
X134261904Y-87498484D01*
X133690476Y-87784198D02*
X134023809Y-86784198D01*
X134357142Y-87784198D01*
X134452380Y-86416818D02*
X135404761Y-86416818D01*
X134642857Y-87736579D02*
X134785714Y-87784198D01*
X135023809Y-87784198D01*
X135119047Y-87736579D01*
X135166666Y-87688960D01*
X135214285Y-87593722D01*
X135214285Y-87498484D01*
X135166666Y-87403246D01*
X135119047Y-87355627D01*
X135023809Y-87308008D01*
X134833333Y-87260389D01*
X134738095Y-87212770D01*
X134690476Y-87165151D01*
X134642857Y-87069913D01*
X134642857Y-86974675D01*
X134690476Y-86879437D01*
X134738095Y-86831818D01*
X134833333Y-86784198D01*
X135071428Y-86784198D01*
X135214285Y-86831818D01*
X133357142Y-112200000D02*
X133261904Y-112152380D01*
X133119047Y-112152380D01*
X132976189Y-112200000D01*
X132880951Y-112295238D01*
X132833332Y-112390476D01*
X132785713Y-112580952D01*
X132785713Y-112723809D01*
X132833332Y-112914285D01*
X132880951Y-113009523D01*
X132976189Y-113104761D01*
X133119047Y-113152380D01*
X133214285Y-113152380D01*
X133357142Y-113104761D01*
X133404761Y-113057142D01*
X133404761Y-112723809D01*
X133214285Y-112723809D01*
X133833332Y-113152380D02*
X133833332Y-112152380D01*
X134404761Y-113152380D01*
X134404761Y-112152380D01*
X134880951Y-113152380D02*
X134880951Y-112152380D01*
X135119047Y-112152380D01*
X135261904Y-112200000D01*
X135357142Y-112295238D01*
X135404761Y-112390476D01*
X135452380Y-112580952D01*
X135452380Y-112723809D01*
X135404761Y-112914285D01*
X135357142Y-113009523D01*
X135261904Y-113104761D01*
X135119047Y-113152380D01*
X134880951Y-113152380D01*
X133357142Y-84000000D02*
X133261904Y-83952380D01*
X133119047Y-83952380D01*
X132976189Y-84000000D01*
X132880951Y-84095238D01*
X132833332Y-84190476D01*
X132785713Y-84380952D01*
X132785713Y-84523809D01*
X132833332Y-84714285D01*
X132880951Y-84809523D01*
X132976189Y-84904761D01*
X133119047Y-84952380D01*
X133214285Y-84952380D01*
X133357142Y-84904761D01*
X133404761Y-84857142D01*
X133404761Y-84523809D01*
X133214285Y-84523809D01*
X133833332Y-84952380D02*
X133833332Y-83952380D01*
X134404761Y-84952380D01*
X134404761Y-83952380D01*
X134880951Y-84952380D02*
X134880951Y-83952380D01*
X135119047Y-83952380D01*
X135261904Y-84000000D01*
X135357142Y-84095238D01*
X135404761Y-84190476D01*
X135452380Y-84380952D01*
X135452380Y-84523809D01*
X135404761Y-84714285D01*
X135357142Y-84809523D01*
X135261904Y-84904761D01*
X135119047Y-84952380D01*
X134880951Y-84952380D01*
X104075000Y-112911904D02*
X104027380Y-113007142D01*
X104027380Y-113150000D01*
X104075000Y-113292857D01*
X104170238Y-113388095D01*
X104265476Y-113435714D01*
X104455952Y-113483333D01*
X104598809Y-113483333D01*
X104789285Y-113435714D01*
X104884523Y-113388095D01*
X104979761Y-113292857D01*
X105027380Y-113150000D01*
X105027380Y-113054761D01*
X104979761Y-112911904D01*
X104932142Y-112864285D01*
X104598809Y-112864285D01*
X104598809Y-113054761D01*
X105027380Y-112435714D02*
X104027380Y-112435714D01*
X105027380Y-111864285D01*
X104027380Y-111864285D01*
X105027380Y-111388095D02*
X104027380Y-111388095D01*
X104027380Y-111150000D01*
X104075000Y-111007142D01*
X104170238Y-110911904D01*
X104265476Y-110864285D01*
X104455952Y-110816666D01*
X104598809Y-110816666D01*
X104789285Y-110864285D01*
X104884523Y-110911904D01*
X104979761Y-111007142D01*
X105027380Y-111150000D01*
X105027380Y-111388095D01*
X104514285Y-109551470D02*
X104847619Y-110551470D01*
X105180952Y-109551470D01*
X106085714Y-110456232D02*
X106038095Y-110503851D01*
X105895238Y-110551470D01*
X105799999Y-110551470D01*
X105657142Y-110503851D01*
X105561904Y-110408613D01*
X105514285Y-110313375D01*
X105466666Y-110122899D01*
X105466666Y-109980042D01*
X105514285Y-109789566D01*
X105561904Y-109694328D01*
X105657142Y-109599090D01*
X105799999Y-109551470D01*
X105895238Y-109551470D01*
X106038095Y-109599090D01*
X106085714Y-109646709D01*
X107085714Y-110456232D02*
X107038095Y-110503851D01*
X106895238Y-110551470D01*
X106799999Y-110551470D01*
X106657142Y-110503851D01*
X106561904Y-110408613D01*
X106514285Y-110313375D01*
X106466666Y-110122899D01*
X106466666Y-109980042D01*
X106514285Y-109789566D01*
X106561904Y-109694328D01*
X106657142Y-109599090D01*
X106799999Y-109551470D01*
X106895238Y-109551470D01*
X107038095Y-109599090D01*
X107085714Y-109646709D01*
X104561904Y-108050561D02*
X104561904Y-107050561D01*
X104895238Y-107764847D01*
X105228571Y-107050561D01*
X105228571Y-108050561D01*
X105657142Y-107764847D02*
X106133333Y-107764847D01*
X105561904Y-108050561D02*
X105895238Y-107050561D01*
X106228571Y-108050561D01*
X106990476Y-107383895D02*
X106990476Y-108050561D01*
X106752380Y-107002942D02*
X106514285Y-107717228D01*
X107133333Y-107717228D01*
X104561904Y-105549652D02*
X104561904Y-104549652D01*
X104895238Y-105263938D01*
X105228571Y-104549652D01*
X105228571Y-105549652D01*
X105657142Y-105263938D02*
X106133333Y-105263938D01*
X105561904Y-105549652D02*
X105895238Y-104549652D01*
X106228571Y-105549652D01*
X107038095Y-104549652D02*
X106561904Y-104549652D01*
X106514285Y-105025843D01*
X106561904Y-104978224D01*
X106657142Y-104930605D01*
X106895238Y-104930605D01*
X106990476Y-104978224D01*
X107038095Y-105025843D01*
X107085714Y-105121081D01*
X107085714Y-105359176D01*
X107038095Y-105454414D01*
X106990476Y-105502033D01*
X106895238Y-105549652D01*
X106657142Y-105549652D01*
X106561904Y-105502033D01*
X106514285Y-105454414D01*
X104561904Y-103048743D02*
X104561904Y-102048743D01*
X104895238Y-102763029D01*
X105228571Y-102048743D01*
X105228571Y-103048743D01*
X105657142Y-102763029D02*
X106133333Y-102763029D01*
X105561904Y-103048743D02*
X105895238Y-102048743D01*
X106228571Y-103048743D01*
X106990476Y-102048743D02*
X106800000Y-102048743D01*
X106704761Y-102096363D01*
X106657142Y-102143982D01*
X106561904Y-102286839D01*
X106514285Y-102477315D01*
X106514285Y-102858267D01*
X106561904Y-102953505D01*
X106609523Y-103001124D01*
X106704761Y-103048743D01*
X106895238Y-103048743D01*
X106990476Y-103001124D01*
X107038095Y-102953505D01*
X107085714Y-102858267D01*
X107085714Y-102620172D01*
X107038095Y-102524934D01*
X106990476Y-102477315D01*
X106895238Y-102429696D01*
X106704761Y-102429696D01*
X106609523Y-102477315D01*
X106561904Y-102524934D01*
X106514285Y-102620172D01*
X104466667Y-99180454D02*
X105466667Y-99180454D01*
X105276190Y-100547834D02*
X104942857Y-100071644D01*
X104704762Y-100547834D02*
X104704762Y-99547834D01*
X105085714Y-99547834D01*
X105180952Y-99595454D01*
X105228571Y-99643073D01*
X105276190Y-99738311D01*
X105276190Y-99881168D01*
X105228571Y-99976406D01*
X105180952Y-100024025D01*
X105085714Y-100071644D01*
X104704762Y-100071644D01*
X105466667Y-99180454D02*
X106323809Y-99180454D01*
X105657143Y-100262120D02*
X106133333Y-100262120D01*
X105561905Y-100547834D02*
X105895238Y-99547834D01*
X106228571Y-100547834D01*
X106323809Y-99180454D02*
X107276190Y-99180454D01*
X106514286Y-100500215D02*
X106657143Y-100547834D01*
X106895238Y-100547834D01*
X106990476Y-100500215D01*
X107038095Y-100452596D01*
X107085714Y-100357358D01*
X107085714Y-100262120D01*
X107038095Y-100166882D01*
X106990476Y-100119263D01*
X106895238Y-100071644D01*
X106704762Y-100024025D01*
X106609524Y-99976406D01*
X106561905Y-99928787D01*
X106514286Y-99833549D01*
X106514286Y-99738311D01*
X106561905Y-99643073D01*
X106609524Y-99595454D01*
X106704762Y-99547834D01*
X106942857Y-99547834D01*
X107085714Y-99595454D01*
X105228571Y-96384545D02*
X106371428Y-96384545D01*
X105371428Y-96751925D02*
X105609523Y-97751925D01*
X105800000Y-97037640D01*
X105990476Y-97751925D01*
X106228571Y-96751925D01*
X106371428Y-96384545D02*
X107276190Y-96384545D01*
X106609523Y-97228116D02*
X106942857Y-97228116D01*
X107085714Y-97751925D02*
X106609523Y-97751925D01*
X106609523Y-96751925D01*
X107085714Y-96751925D01*
X104514286Y-94956016D02*
X104514286Y-93956016D01*
X104752381Y-93956016D01*
X104895238Y-94003636D01*
X104990476Y-94098874D01*
X105038095Y-94194112D01*
X105085714Y-94384588D01*
X105085714Y-94527445D01*
X105038095Y-94717921D01*
X104990476Y-94813159D01*
X104895238Y-94908397D01*
X104752381Y-94956016D01*
X104514286Y-94956016D01*
X106180952Y-95051255D02*
X106085714Y-95003636D01*
X105990476Y-94908397D01*
X105847619Y-94765540D01*
X105752381Y-94717921D01*
X105657143Y-94717921D01*
X105704762Y-94956016D02*
X105609524Y-94908397D01*
X105514286Y-94813159D01*
X105466667Y-94622683D01*
X105466667Y-94289350D01*
X105514286Y-94098874D01*
X105609524Y-94003636D01*
X105704762Y-93956016D01*
X105895238Y-93956016D01*
X105990476Y-94003636D01*
X106085714Y-94098874D01*
X106133333Y-94289350D01*
X106133333Y-94622683D01*
X106085714Y-94813159D01*
X105990476Y-94908397D01*
X105895238Y-94956016D01*
X105704762Y-94956016D01*
X107085714Y-94956016D02*
X106514286Y-94956016D01*
X106800000Y-94956016D02*
X106800000Y-93956016D01*
X106704762Y-94098874D01*
X106609524Y-94194112D01*
X106514286Y-94241731D01*
X104514286Y-92455107D02*
X104514286Y-91455107D01*
X104752381Y-91455107D01*
X104895238Y-91502727D01*
X104990476Y-91597965D01*
X105038095Y-91693203D01*
X105085714Y-91883679D01*
X105085714Y-92026536D01*
X105038095Y-92217012D01*
X104990476Y-92312250D01*
X104895238Y-92407488D01*
X104752381Y-92455107D01*
X104514286Y-92455107D01*
X106180952Y-92550346D02*
X106085714Y-92502727D01*
X105990476Y-92407488D01*
X105847619Y-92264631D01*
X105752381Y-92217012D01*
X105657143Y-92217012D01*
X105704762Y-92455107D02*
X105609524Y-92407488D01*
X105514286Y-92312250D01*
X105466667Y-92121774D01*
X105466667Y-91788441D01*
X105514286Y-91597965D01*
X105609524Y-91502727D01*
X105704762Y-91455107D01*
X105895238Y-91455107D01*
X105990476Y-91502727D01*
X106085714Y-91597965D01*
X106133333Y-91788441D01*
X106133333Y-92121774D01*
X106085714Y-92312250D01*
X105990476Y-92407488D01*
X105895238Y-92455107D01*
X105704762Y-92455107D01*
X106752381Y-91455107D02*
X106847619Y-91455107D01*
X106942857Y-91502727D01*
X106990476Y-91550346D01*
X107038095Y-91645584D01*
X107085714Y-91836060D01*
X107085714Y-92074155D01*
X107038095Y-92264631D01*
X106990476Y-92359869D01*
X106942857Y-92407488D01*
X106847619Y-92455107D01*
X106752381Y-92455107D01*
X106657143Y-92407488D01*
X106609524Y-92359869D01*
X106561905Y-92264631D01*
X106514286Y-92074155D01*
X106514286Y-91836060D01*
X106561905Y-91645584D01*
X106609524Y-91550346D01*
X106657143Y-91502727D01*
X106752381Y-91455107D01*
X104514286Y-89954198D02*
X104514286Y-88954198D01*
X104752381Y-88954198D01*
X104895238Y-89001818D01*
X104990476Y-89097056D01*
X105038095Y-89192294D01*
X105085714Y-89382770D01*
X105085714Y-89525627D01*
X105038095Y-89716103D01*
X104990476Y-89811341D01*
X104895238Y-89906579D01*
X104752381Y-89954198D01*
X104514286Y-89954198D01*
X106180952Y-90049437D02*
X106085714Y-90001818D01*
X105990476Y-89906579D01*
X105847619Y-89763722D01*
X105752381Y-89716103D01*
X105657143Y-89716103D01*
X105704762Y-89954198D02*
X105609524Y-89906579D01*
X105514286Y-89811341D01*
X105466667Y-89620865D01*
X105466667Y-89287532D01*
X105514286Y-89097056D01*
X105609524Y-89001818D01*
X105704762Y-88954198D01*
X105895238Y-88954198D01*
X105990476Y-89001818D01*
X106085714Y-89097056D01*
X106133333Y-89287532D01*
X106133333Y-89620865D01*
X106085714Y-89811341D01*
X105990476Y-89906579D01*
X105895238Y-89954198D01*
X105704762Y-89954198D01*
X106466667Y-88954198D02*
X107085714Y-88954198D01*
X106752381Y-89335151D01*
X106895238Y-89335151D01*
X106990476Y-89382770D01*
X107038095Y-89430389D01*
X107085714Y-89525627D01*
X107085714Y-89763722D01*
X107038095Y-89858960D01*
X106990476Y-89906579D01*
X106895238Y-89954198D01*
X106609524Y-89954198D01*
X106514286Y-89906579D01*
X106466667Y-89858960D01*
X104514286Y-87453289D02*
X104514286Y-86453289D01*
X104752381Y-86453289D01*
X104895238Y-86500909D01*
X104990476Y-86596147D01*
X105038095Y-86691385D01*
X105085714Y-86881861D01*
X105085714Y-87024718D01*
X105038095Y-87215194D01*
X104990476Y-87310432D01*
X104895238Y-87405670D01*
X104752381Y-87453289D01*
X104514286Y-87453289D01*
X106180952Y-87548528D02*
X106085714Y-87500909D01*
X105990476Y-87405670D01*
X105847619Y-87262813D01*
X105752381Y-87215194D01*
X105657143Y-87215194D01*
X105704762Y-87453289D02*
X105609524Y-87405670D01*
X105514286Y-87310432D01*
X105466667Y-87119956D01*
X105466667Y-86786623D01*
X105514286Y-86596147D01*
X105609524Y-86500909D01*
X105704762Y-86453289D01*
X105895238Y-86453289D01*
X105990476Y-86500909D01*
X106085714Y-86596147D01*
X106133333Y-86786623D01*
X106133333Y-87119956D01*
X106085714Y-87310432D01*
X105990476Y-87405670D01*
X105895238Y-87453289D01*
X105704762Y-87453289D01*
X106514286Y-86548528D02*
X106561905Y-86500909D01*
X106657143Y-86453289D01*
X106895238Y-86453289D01*
X106990476Y-86500909D01*
X107038095Y-86548528D01*
X107085714Y-86643766D01*
X107085714Y-86739004D01*
X107038095Y-86881861D01*
X106466667Y-87453289D01*
X107085714Y-87453289D01*
X104990476Y-84000000D02*
X104895238Y-83952380D01*
X104752381Y-83952380D01*
X104609523Y-84000000D01*
X104514285Y-84095238D01*
X104466666Y-84190476D01*
X104419047Y-84380952D01*
X104419047Y-84523809D01*
X104466666Y-84714285D01*
X104514285Y-84809523D01*
X104609523Y-84904761D01*
X104752381Y-84952380D01*
X104847619Y-84952380D01*
X104990476Y-84904761D01*
X105038095Y-84857142D01*
X105038095Y-84523809D01*
X104847619Y-84523809D01*
X105466666Y-84952380D02*
X105466666Y-83952380D01*
X106038095Y-84952380D01*
X106038095Y-83952380D01*
X106514285Y-84952380D02*
X106514285Y-83952380D01*
X106752381Y-83952380D01*
X106895238Y-84000000D01*
X106990476Y-84095238D01*
X107038095Y-84190476D01*
X107085714Y-84380952D01*
X107085714Y-84523809D01*
X107038095Y-84714285D01*
X106990476Y-84809523D01*
X106895238Y-84904761D01*
X106752381Y-84952380D01*
X106514285Y-84952380D01*
X123600000Y-109561904D02*
X123552380Y-109657142D01*
X123552380Y-109800000D01*
X123600000Y-109942857D01*
X123695238Y-110038095D01*
X123790476Y-110085714D01*
X123980952Y-110133333D01*
X124123809Y-110133333D01*
X124314285Y-110085714D01*
X124409523Y-110038095D01*
X124504761Y-109942857D01*
X124552380Y-109800000D01*
X124552380Y-109704761D01*
X124504761Y-109561904D01*
X124457142Y-109514285D01*
X124123809Y-109514285D01*
X124123809Y-109704761D01*
X124552380Y-109085714D02*
X123552380Y-109085714D01*
X124552380Y-108514285D01*
X123552380Y-108514285D01*
X124552380Y-108038095D02*
X123552380Y-108038095D01*
X123552380Y-107800000D01*
X123600000Y-107657142D01*
X123695238Y-107561904D01*
X123790476Y-107514285D01*
X123980952Y-107466666D01*
X124123809Y-107466666D01*
X124314285Y-107514285D01*
X124409523Y-107561904D01*
X124504761Y-107657142D01*
X124552380Y-107800000D01*
X124552380Y-108038095D01*
X120309523Y-109666666D02*
X120785714Y-109666666D01*
X120214285Y-109952380D02*
X120547619Y-108952380D01*
X120880952Y-109952380D01*
X121738095Y-109952380D02*
X121166666Y-109952380D01*
X121452380Y-109952380D02*
X121452380Y-108952380D01*
X121357142Y-109095238D01*
X121261904Y-109190476D01*
X121166666Y-109238095D01*
X122309523Y-109380952D02*
X122214285Y-109333333D01*
X122166666Y-109285714D01*
X122119047Y-109190476D01*
X122119047Y-109142857D01*
X122166666Y-109047619D01*
X122214285Y-109000000D01*
X122309523Y-108952380D01*
X122500000Y-108952380D01*
X122595238Y-109000000D01*
X122642857Y-109047619D01*
X122690476Y-109142857D01*
X122690476Y-109190476D01*
X122642857Y-109285714D01*
X122595238Y-109333333D01*
X122500000Y-109380952D01*
X122309523Y-109380952D01*
X122214285Y-109428571D01*
X122166666Y-109476190D01*
X122119047Y-109571428D01*
X122119047Y-109761904D01*
X122166666Y-109857142D01*
X122214285Y-109904761D01*
X122309523Y-109952380D01*
X122500000Y-109952380D01*
X122595238Y-109904761D01*
X122642857Y-109857142D01*
X122690476Y-109761904D01*
X122690476Y-109571428D01*
X122642857Y-109476190D01*
X122595238Y-109428571D01*
X122500000Y-109380952D01*
X117559523Y-109591666D02*
X118035714Y-109591666D01*
X117464285Y-109877380D02*
X117797619Y-108877380D01*
X118130952Y-109877380D01*
X118988095Y-109877380D02*
X118416666Y-109877380D01*
X118702380Y-109877380D02*
X118702380Y-108877380D01*
X118607142Y-109020238D01*
X118511904Y-109115476D01*
X118416666Y-109163095D01*
X119321428Y-108877380D02*
X119988095Y-108877380D01*
X119559523Y-109877380D01*
X114609523Y-109666666D02*
X115085714Y-109666666D01*
X114514285Y-109952380D02*
X114847619Y-108952380D01*
X115180952Y-109952380D01*
X116038095Y-109952380D02*
X115466666Y-109952380D01*
X115752380Y-109952380D02*
X115752380Y-108952380D01*
X115657142Y-109095238D01*
X115561904Y-109190476D01*
X115466666Y-109238095D01*
X116895238Y-108952380D02*
X116704761Y-108952380D01*
X116609523Y-109000000D01*
X116561904Y-109047619D01*
X116466666Y-109190476D01*
X116419047Y-109380952D01*
X116419047Y-109761904D01*
X116466666Y-109857142D01*
X116514285Y-109904761D01*
X116609523Y-109952380D01*
X116800000Y-109952380D01*
X116895238Y-109904761D01*
X116942857Y-109857142D01*
X116990476Y-109761904D01*
X116990476Y-109523809D01*
X116942857Y-109428571D01*
X116895238Y-109380952D01*
X116800000Y-109333333D01*
X116609523Y-109333333D01*
X116514285Y-109380952D01*
X116466666Y-109428571D01*
X116419047Y-109523809D01*
D11*
X125150000Y-113330000D02*
X125150000Y-110670000D01*
X117470000Y-113330000D02*
X125150000Y-113330000D01*
X117470000Y-110670000D02*
X125150000Y-110670000D01*
X117470000Y-113330000D02*
X117470000Y-110670000D01*
X116200000Y-113330000D02*
X114870000Y-113330000D01*
X114870000Y-113330000D02*
X114870000Y-112000000D01*
D10*
X113322380Y-112333333D02*
X114036666Y-112333333D01*
X114179523Y-112380952D01*
X114274761Y-112476190D01*
X114322380Y-112619047D01*
X114322380Y-112714285D01*
X114322380Y-111333333D02*
X114322380Y-111904761D01*
X114322380Y-111619047D02*
X113322380Y-111619047D01*
X113465238Y-111714285D01*
X113560476Y-111809523D01*
X113608095Y-111904761D01*
M02*
