M48
; DRILL file {KiCad 5.1.5+dfsg1-2build2} date Sat 16 Jul 2022 03:57:26 PM EDT
; FORMAT={-:-/ absolute / inch / decimal}
; #@! TF.CreationDate,2022-07-16T15:57:26-04:00
; #@! TF.GenerationSoftware,Kicad,Pcbnew,5.1.5+dfsg1-2build2
FMAT,2
INCH
T1C0.0157
T2C0.0315
T3C0.0394
%
G90
G05
T1
X4.126Y-3.9764
X4.1575Y-3.815
X4.1693Y-3.7244
X4.1732Y-3.9724
X4.2362Y-4.2283
X4.2464Y-3.9864
X4.3898Y-3.4764
X4.4286Y-3.8937
X4.4367Y-3.9526
X4.4543Y-4.019
X4.5039Y-3.8307
X4.5493Y-3.9792
X4.5505Y-3.9392
X4.5984Y-3.8228
X4.6407Y-3.6417
X4.6419Y-4.0117
X4.6821Y-4.2028
X4.7031Y-3.5853
X4.7096Y-3.84
X4.7126Y-3.6496
X4.7382Y-3.7999
X4.7776Y-3.9392
X4.8013Y-4.0272
X4.813Y-4.1299
X4.8494Y-3.6824
X4.8494Y-3.8776
X4.8583Y-3.4764
X4.8661Y-3.5787
X4.9912Y-4.1197
X5.0394Y-3.9646
X5.0423Y-3.2362
X5.0994Y-3.6592
X5.1959Y-4.4577
X5.2323Y-3.9685
X5.2695Y-4.3171
T2
X4.3504Y-3.8425
X4.4173Y-4.3228
X4.4803Y-3.5866
X5.0591Y-3.4961
X5.252Y-3.4843
X5.2677Y-3.6181
T3
X4.0354Y-3.3291
X4.0354Y-3.4291
X4.0354Y-3.5291
X4.0354Y-3.6291
X4.0354Y-3.7291
X4.0354Y-3.8291
X4.0354Y-3.9291
X4.0354Y-4.0291
X4.0354Y-4.1291
X4.0354Y-4.2291
X4.0354Y-4.3291
X4.0354Y-4.4291
X5.4134Y-3.3291
X5.4134Y-3.4291
X5.4134Y-3.5291
X5.4134Y-3.6291
X5.4134Y-3.7291
X5.4134Y-3.8291
X5.4134Y-3.9291
X5.4134Y-4.0291
X5.4134Y-4.1291
X5.4134Y-4.2291
X5.4134Y-4.3291
X5.4134Y-4.4291
X4.5748Y-4.4094
X4.6748Y-4.4094
X4.7748Y-4.4094
X4.8748Y-4.4094
T0
M30
